<?xml version="1.0"?>
<Project_Data Version="8.00">
<Project_Settings>
<ProfileName>MP4 only (up to 720p)</ProfileName>
<ProjectWidth>1280</ProjectWidth>
<ProjectHeight>720</ProjectHeight>
<IsCustomProject>1</IsCustomProject>
<SavedProjectSettings>1</SavedProjectSettings>
<LastFlashTemplate>-1</LastFlashTemplate>
</Project_Settings>


<AutoSaveFile>C:\Users\ewittman\AppData\Local\TechSmith\Camtasia Studio\8.0\Auto-Saves\configuring-apiman2381200a.autosave.camproj</AutoSaveFile>

<ProjectID>AD7454A9-11AC-4D11-B2E7-787027C79E0B</ProjectID>

<PowerPointProject>0</PowerPointProject>

<PowerPointFilename></PowerPointFilename>


<Project_Notes>
</Project_Notes>

<Project_MetaData>
<Project_MetaData_Object>
<FieldArrayKey>8</FieldArrayKey>
<Value>configuring-apiman</Value>
</Project_MetaData_Object>
<Project_MetaData_Object>
<FieldArrayKey>13</FieldArrayKey>
<Value>2014-11-13 01:23:18 PM</Value>
</Project_MetaData_Object>
<Project_MetaData_Object>
<FieldArrayKey>16</FieldArrayKey>
<Value>ENU</Value>
</Project_MetaData_Object>
</Project_MetaData>

<CSMLData>
<GoProject id="1" version="3.0" >
 <Project id="2" editRate="30/1" version="3.0" >
  <Author></Author>
  <Comment></Comment>
  <System></System>
  <SourceBin id="3"  >
    <Source id="4" src="C:\Users\ewittman\git\apiman-videos\configuring-apiman\video\roledefs.camrec" lastMod="20141113T155342" rect="(0,0,1280,720)" >
      <SourceTrack range="(0,719333333)" type="0" editRate="10000000/1" trackRect="(0,0,1280,720)" sampleRate="10000000/333333" bitDepth="24" numChannels="0" filename="roledefs.camrec!Screen_Stream.avi" metaData="roledefs.camrec!Events.dat;roledefs.camrec!manifest.camxml;" />
    </Source>
    <Source id="5" src="C:\Users\ewittman\git\apiman-videos\configuring-apiman\screenshots\whatsettings.png" lastMod="20141113T161609" rect="(0,0,1280,720)" >
      <SourceTrack range="(0,1)" type="1" editRate="10000000/1" trackRect="(0,0,1280,720)" sampleRate="0/1" bitDepth="32" numChannels="0" filename="" metaData="" />
    </Source>
    <Source id="6" src="C:\Users\ewittman\git\apiman-videos\configuring-apiman\screenshots\intro.png" lastMod="20141120T210459" rect="(0,0,1280,720)" >
      <SourceTrack range="(0,1)" type="1" editRate="10000000/1" trackRect="(0,0,1280,720)" sampleRate="0/1" bitDepth="32" numChannels="0" filename="" metaData="" />
    </Source>
    <Source id="7" src="C:\Users\ewittman\git\apiman-videos\configuring-apiman\video\policydefs.camrec" lastMod="20141113T160509" rect="(0,0,1280,720)" >
      <SourceTrack range="(0,271000000)" type="0" editRate="10000000/1" trackRect="(0,0,1280,720)" sampleRate="10000000/333333" bitDepth="24" numChannels="0" filename="policydefs.camrec!Screen_Stream.avi" metaData="policydefs.camrec!Events.dat;policydefs.camrec!manifest.camxml;" />
    </Source>
    <Source id="8" src="C:\Users\ewittman\git\apiman-videos\configuring-apiman\audio\role-defs.mp3" lastMod="20141113T175244" rect="(0,0,0,0)" >
      <SourceTrack range="(0,502666667)" type="2" editRate="10000000/1" trackRect="(0,0,0,0)" sampleRate="44100/1" bitDepth="0" numChannels="2" filename="" metaData="" />
    </Source>
    <Source id="9" src="C:\Users\ewittman\git\apiman-videos\configuring-apiman\audio\what-settings.mp3" lastMod="20141113T175303" rect="(0,0,0,0)" >
      <SourceTrack range="(0,245333333)" type="2" editRate="10000000/1" trackRect="(0,0,0,0)" sampleRate="44100/1" bitDepth="0" numChannels="2" filename="" metaData="" />
    </Source>
    <Source id="10" src="C:\Users\ewittman\git\apiman-videos\configuring-apiman\audio\wrapup.mp3" lastMod="20141113T175416" rect="(0,0,0,0)" >
      <SourceTrack range="(0,96000000)" type="2" editRate="10000000/1" trackRect="(0,0,0,0)" sampleRate="44100/1" bitDepth="0" numChannels="2" filename="" metaData="" />
    </Source>
    <Source id="11" src="C:\Users\ewittman\git\apiman-videos\configuring-apiman\audio\intro.mp3" lastMod="20141113T174944" rect="(0,0,0,0)" >
      <SourceTrack range="(0,60000000)" type="2" editRate="10000000/1" trackRect="(0,0,0,0)" sampleRate="44100/1" bitDepth="0" numChannels="2" filename="" metaData="" />
    </Source>
    <Source id="12" src="C:\Users\ewittman\git\apiman-videos\configuring-apiman\audio\policy-defs.mp3" lastMod="20141113T175403" rect="(0,0,0,0)" >
      <SourceTrack range="(0,435333333)" type="2" editRate="10000000/1" trackRect="(0,0,0,0)" sampleRate="44100/1" bitDepth="0" numChannels="2" filename="" metaData="" />
    </Source>
    <Source id="13" src="C:\Users\ewittman\git\apiman-videos\music_beat.wav" lastMod="20141115T163242" rect="(0,0,0,0)" >
      <SourceTrack range="(0,160000000)" type="2" editRate="10000000/1" trackRect="(0,0,0,0)" sampleRate="44100/1" bitDepth="16" numChannels="2" filename="" metaData="" />
    </Source>
  </SourceBin>
  <Timeline id="14"  >
   <Attributes>
    <Attribute id="15" value="1280" name="width"/>
    <Attribute id="16" value="720" name="height"/>
    <Attribute id="17" value="(0,0,0,255)" name="backgroundColor"/>
   </Attributes>
    <GenericMixer id="18"  name="Unified Mixer">
     <MetaData>
      <entry key="MixerType" val="TimelineMixer"/>
     </MetaData>
     <Tracks>
      <GenericTrack id="19"  >
       <Attributes>
        <Attribute id="20" value="Music" name="ident"/>
        <Attribute id="21" value="0" name="audioMuted"/>
        <Attribute id="22" value="0" name="videoHidden"/>
       </Attributes>
       <MetaData>
        <entry key="IsLocked" val="False"/>
        <entry key="WinTrackHeight" val="62"/>
       </MetaData>
       <Medias>
        <AMFile id="23" start="0" duration="480" scalar="1/1" mediaStart="0/1" mediaDuration="480/1" trackNumber="0" src="13" channelNumber="0,1" >
         <Parameters>
          <InterpolatingParam id="24" interp="linr"  time="0/1" value="0.022517998136852502" leadInLength="0/1"  name="volume"/>
          <Parameter id="25"  name="captions"/>
         </Parameters>
         <Attributes>
          <Attribute id="26" value="" name="ident"/>
          <Attribute id="27" value="44100" name="sampleRate"/>
          <Attribute id="28" value="16" name="bitDepth"/>
          <Attribute id="29" value="1" name="gain"/>
          <Attribute id="30" value="0" name="mixToMono"/>
         </Attributes>
         <MetaData>
          <entry key="WinSubProjectDisplayName" val=""/>
         </MetaData>
        </AMFile>
        <AMFile id="31" start="480" duration="480" scalar="1/1" mediaStart="0/1" mediaDuration="480/1" trackNumber="0" src="13" channelNumber="0,1" >
         <Parameters>
          <InterpolatingParam id="32" interp="linr"  time="0/1" value="0.022517998136852502" leadInLength="0/1"  name="volume"/>
          <Parameter id="33"  name="captions"/>
         </Parameters>
         <Attributes>
          <Attribute id="34" value="" name="ident"/>
          <Attribute id="35" value="44100" name="sampleRate"/>
          <Attribute id="36" value="16" name="bitDepth"/>
          <Attribute id="37" value="1" name="gain"/>
          <Attribute id="38" value="0" name="mixToMono"/>
         </Attributes>
         <MetaData>
          <entry key="WinSubProjectDisplayName" val=""/>
         </MetaData>
        </AMFile>
        <AMFile id="39" start="960" duration="480" scalar="1/1" mediaStart="0/1" mediaDuration="480/1" trackNumber="0" src="13" channelNumber="0,1" >
         <Parameters>
          <InterpolatingParam id="40" interp="linr"  time="0/1" value="0.022517998136852502" leadInLength="0/1"  name="volume"/>
          <Parameter id="41"  name="captions"/>
         </Parameters>
         <Attributes>
          <Attribute id="42" value="" name="ident"/>
          <Attribute id="43" value="44100" name="sampleRate"/>
          <Attribute id="44" value="16" name="bitDepth"/>
          <Attribute id="45" value="1" name="gain"/>
          <Attribute id="46" value="0" name="mixToMono"/>
         </Attributes>
         <MetaData>
          <entry key="WinSubProjectDisplayName" val=""/>
         </MetaData>
        </AMFile>
        <AMFile id="47" start="1440" duration="480" scalar="1/1" mediaStart="0/1" mediaDuration="480/1" trackNumber="0" src="13" channelNumber="0,1" >
         <Parameters>
          <InterpolatingParam id="48" interp="linr"  time="0/1" value="0.022517998136852502" leadInLength="0/1"  name="volume"/>
          <Parameter id="49"  name="captions"/>
         </Parameters>
         <Attributes>
          <Attribute id="50" value="" name="ident"/>
          <Attribute id="51" value="44100" name="sampleRate"/>
          <Attribute id="52" value="16" name="bitDepth"/>
          <Attribute id="53" value="1" name="gain"/>
          <Attribute id="54" value="0" name="mixToMono"/>
         </Attributes>
         <MetaData>
          <entry key="WinSubProjectDisplayName" val=""/>
         </MetaData>
        </AMFile>
        <AMFile id="55" start="1920" duration="480" scalar="1/1" mediaStart="0/1" mediaDuration="480/1" trackNumber="0" src="13" channelNumber="0,1" >
         <Parameters>
          <InterpolatingParam id="56" interp="linr"  time="0/1" value="0.022517998136852502" leadInLength="0/1"  name="volume"/>
          <Parameter id="57"  name="captions"/>
         </Parameters>
         <Attributes>
          <Attribute id="58" value="" name="ident"/>
          <Attribute id="59" value="44100" name="sampleRate"/>
          <Attribute id="60" value="16" name="bitDepth"/>
          <Attribute id="61" value="1" name="gain"/>
          <Attribute id="62" value="0" name="mixToMono"/>
         </Attributes>
         <MetaData>
          <entry key="WinSubProjectDisplayName" val=""/>
         </MetaData>
        </AMFile>
        <AMFile id="63" start="2400" duration="480" scalar="1/1" mediaStart="0/1" mediaDuration="480/1" trackNumber="0" src="13" channelNumber="0,1" >
         <Parameters>
          <InterpolatingParam id="64" interp="linr"  time="0/1" value="0.022517998136852502" leadInLength="0/1"  name="volume"/>
          <Parameter id="65"  name="captions"/>
         </Parameters>
         <Attributes>
          <Attribute id="66" value="" name="ident"/>
          <Attribute id="67" value="44100" name="sampleRate"/>
          <Attribute id="68" value="16" name="bitDepth"/>
          <Attribute id="69" value="1" name="gain"/>
          <Attribute id="70" value="0" name="mixToMono"/>
         </Attributes>
         <MetaData>
          <entry key="WinSubProjectDisplayName" val=""/>
         </MetaData>
        </AMFile>
        <AMFile id="71" start="2880" duration="480" scalar="1/1" mediaStart="0/1" mediaDuration="480/1" trackNumber="0" src="13" channelNumber="0,1" >
         <Parameters>
          <InterpolatingParam id="72" interp="linr"  time="0/1" value="0.022517998136852502" leadInLength="0/1"  name="volume"/>
          <Parameter id="73"  name="captions"/>
         </Parameters>
         <Attributes>
          <Attribute id="74" value="" name="ident"/>
          <Attribute id="75" value="44100" name="sampleRate"/>
          <Attribute id="76" value="16" name="bitDepth"/>
          <Attribute id="77" value="1" name="gain"/>
          <Attribute id="78" value="0" name="mixToMono"/>
         </Attributes>
         <MetaData>
          <entry key="WinSubProjectDisplayName" val=""/>
         </MetaData>
        </AMFile>
        <AMFile id="79" start="3360" duration="480" scalar="1/1" mediaStart="0/1" mediaDuration="480/1" trackNumber="0" src="13" channelNumber="0,1" >
         <Parameters>
          <InterpolatingParam id="80" interp="linr"  time="0/1" value="0.022517998136852502" leadInLength="0/1"  name="volume"/>
          <Parameter id="81"  name="captions"/>
         </Parameters>
         <Attributes>
          <Attribute id="82" value="" name="ident"/>
          <Attribute id="83" value="44100" name="sampleRate"/>
          <Attribute id="84" value="16" name="bitDepth"/>
          <Attribute id="85" value="1" name="gain"/>
          <Attribute id="86" value="0" name="mixToMono"/>
         </Attributes>
         <MetaData>
          <entry key="WinSubProjectDisplayName" val=""/>
         </MetaData>
        </AMFile>
        <AMFile id="87" start="3840" duration="480" scalar="1/1" mediaStart="0/1" mediaDuration="480/1" trackNumber="0" src="13" channelNumber="0,1" >
         <Parameters>
          <InterpolatingParam id="88" interp="linr"  time="0/1" value="0.022517998136852502" leadInLength="0/1"  name="volume"/>
          <Parameter id="89"  name="captions"/>
         </Parameters>
         <Attributes>
          <Attribute id="90" value="" name="ident"/>
          <Attribute id="91" value="44100" name="sampleRate"/>
          <Attribute id="92" value="16" name="bitDepth"/>
          <Attribute id="93" value="1" name="gain"/>
          <Attribute id="94" value="0" name="mixToMono"/>
         </Attributes>
         <MetaData>
          <entry key="WinSubProjectDisplayName" val=""/>
         </MetaData>
        </AMFile>
        <AMFile id="95" start="4320" duration="465" scalar="1/1" mediaStart="0/1" mediaDuration="465/1" trackNumber="0" src="13" channelNumber="0,1" >
         <Parameters>
          <InterpolatingParam id="96" interp="linr"  name="volume">
           <Keyframes>
           <Keyframe id="97"  time="0/1" value="0.022517998136852502" leadInLength="0/1"  />
           <Keyframe id="98"  time="375/1" value="0.022517998136852502" leadInLength="0/1"  />
           <Keyframe id="99"  time="465/1" value="0" leadInLength="0/1"  />
           <Keyframe id="100"  time="466/1" value="0.022517998136852502" leadInLength="0/1"  />
           </Keyframes>
          </InterpolatingParam>
          <Parameter id="101"  name="captions"/>
         </Parameters>
         <Attributes>
          <Attribute id="102" value="" name="ident"/>
          <Attribute id="103" value="44100" name="sampleRate"/>
          <Attribute id="104" value="16" name="bitDepth"/>
          <Attribute id="105" value="1" name="gain"/>
          <Attribute id="106" value="0" name="mixToMono"/>
         </Attributes>
         <MetaData>
          <entry key="WinSubProjectDisplayName" val=""/>
         </MetaData>
        </AMFile>
       </Medias>
      </GenericTrack>
      <GenericTrack id="107"  >
       <Attributes>
        <Attribute id="108" value="Audio" name="ident"/>
        <Attribute id="109" value="0" name="audioMuted"/>
        <Attribute id="110" value="0" name="videoHidden"/>
       </Attributes>
       <MetaData>
        <entry key="IsLocked" val="False"/>
        <entry key="WinTrackHeight" val="62"/>
       </MetaData>
       <Medias>
        <AMFile id="111" start="0" duration="180" scalar="1/1" mediaStart="0/1" mediaDuration="180/1" trackNumber="0" src="11" channelNumber="0,1" >
         <Parameters>
          <InterpolatingParam id="112" interp="linr"  time="0/1" value="1" leadInLength="0/1"  name="volume"/>
          <Parameter id="113"  name="captions"/>
         </Parameters>
         <Attributes>
          <Attribute id="114" value="" name="ident"/>
          <Attribute id="115" value="44100" name="sampleRate"/>
          <Attribute id="116" value="0" name="bitDepth"/>
          <Attribute id="117" value="1" name="gain"/>
          <Attribute id="118" value="0" name="mixToMono"/>
         </Attributes>
         <MetaData>
          <entry key="WinSubProjectDisplayName" val=""/>
         </MetaData>
        </AMFile>
        <AMFile id="119" start="180" duration="735" scalar="1/1" mediaStart="0/1" mediaDuration="735/1" trackNumber="0" src="9" channelNumber="0,1" >
         <Parameters>
          <InterpolatingParam id="120" interp="linr"  time="0/1" value="1" leadInLength="0/1"  name="volume"/>
          <Parameter id="121"  name="captions"/>
         </Parameters>
         <Attributes>
          <Attribute id="122" value="" name="ident"/>
          <Attribute id="123" value="44100" name="sampleRate"/>
          <Attribute id="124" value="0" name="bitDepth"/>
          <Attribute id="125" value="1" name="gain"/>
          <Attribute id="126" value="0" name="mixToMono"/>
         </Attributes>
         <MetaData>
          <entry key="WinSubProjectDisplayName" val=""/>
         </MetaData>
        </AMFile>
        <AMFile id="127" start="915" duration="1112" scalar="1/1" mediaStart="0/1" mediaDuration="1112/1" trackNumber="0" src="8" channelNumber="0,1" >
         <Parameters>
          <InterpolatingParam id="128" interp="linr"  time="0/1" value="1" leadInLength="0/1"  name="volume"/>
          <Parameter id="129"  name="captions"/>
         </Parameters>
         <Attributes>
          <Attribute id="130" value="" name="ident"/>
          <Attribute id="131" value="44100" name="sampleRate"/>
          <Attribute id="132" value="0" name="bitDepth"/>
          <Attribute id="133" value="1" name="gain"/>
          <Attribute id="134" value="0" name="mixToMono"/>
         </Attributes>
         <MetaData>
          <entry key="WinSubProjectDisplayName" val=""/>
         </MetaData>
        </AMFile>
        <AMFile id="135" start="2196" duration="396" scalar="1/1" mediaStart="1112/1" mediaDuration="396/1" trackNumber="0" src="8" channelNumber="0,1" >
         <Parameters>
          <InterpolatingParam id="136" interp="linr"  time="0/1" value="1" leadInLength="0/1"  name="volume"/>
          <Parameter id="137"  name="captions"/>
         </Parameters>
         <Attributes>
          <Attribute id="138" value="" name="ident"/>
          <Attribute id="139" value="44100" name="sampleRate"/>
          <Attribute id="140" value="0" name="bitDepth"/>
          <Attribute id="141" value="1" name="gain"/>
          <Attribute id="142" value="0" name="mixToMono"/>
         </Attributes>
         <MetaData>
          <entry key="WinSubProjectDisplayName" val=""/>
         </MetaData>
        </AMFile>
        <AMFile id="143" start="2979" duration="1305" scalar="1/1" mediaStart="0/1" mediaDuration="1305/1" trackNumber="0" src="12" channelNumber="0,1" >
         <Parameters>
          <InterpolatingParam id="144" interp="linr"  time="0/1" value="1" leadInLength="0/1"  name="volume"/>
          <Parameter id="145"  name="captions"/>
         </Parameters>
         <Attributes>
          <Attribute id="146" value="" name="ident"/>
          <Attribute id="147" value="44100" name="sampleRate"/>
          <Attribute id="148" value="0" name="bitDepth"/>
          <Attribute id="149" value="1" name="gain"/>
          <Attribute id="150" value="0" name="mixToMono"/>
         </Attributes>
         <MetaData>
          <entry key="WinSubProjectDisplayName" val=""/>
         </MetaData>
        </AMFile>
        <AMFile id="151" start="4497" duration="288" scalar="1/1" mediaStart="0/1" mediaDuration="288/1" trackNumber="0" src="10" channelNumber="0,1" >
         <Parameters>
          <InterpolatingParam id="152" interp="linr"  time="0/1" value="1" leadInLength="0/1"  name="volume"/>
          <Parameter id="153"  name="captions"/>
         </Parameters>
         <Attributes>
          <Attribute id="154" value="" name="ident"/>
          <Attribute id="155" value="44100" name="sampleRate"/>
          <Attribute id="156" value="0" name="bitDepth"/>
          <Attribute id="157" value="1" name="gain"/>
          <Attribute id="158" value="0" name="mixToMono"/>
         </Attributes>
         <MetaData>
          <entry key="WinSubProjectDisplayName" val=""/>
         </MetaData>
        </AMFile>
       </Medias>
      </GenericTrack>
      <GenericTrack id="159"  >
       <Attributes>
        <Attribute id="160" value="Video" name="ident"/>
        <Attribute id="161" value="0" name="audioMuted"/>
        <Attribute id="162" value="0" name="videoHidden"/>
       </Attributes>
       <MetaData>
        <entry key="IsLocked" val="False"/>
        <entry key="WinTrackHeight" val="62"/>
       </MetaData>
       <Medias>
        <IMFile id="163" start="0" duration="165" scalar="1/1" mediaStart="0/1" mediaDuration="1/1" trackNumber="0" src="6" trimStartSum="0/1" >
         <Transformer>
          <VectorParam id="164"  name="translation">
           <InterpolatingParam id="165" interp="linr"  time="-9999999/1" value="1.0924594562312718e-010" leadInLength="0/1"  interpolater="leadin-linr"  />
           <InterpolatingParam id="166" interp="linr"  time="-9999999/1" value="7.645439836778678e-011" leadInLength="0/1"  interpolater="leadin-linr"  />
           <InterpolatingParam id="167" interp="linr"  time="-9999999/1" value="0" leadInLength="0/1"  interpolater="leadin-linr"  />
          </VectorParam>
          <VectorParam id="168"  name="rotation">
           <InterpolatingParam id="169" interp="linr"  time="-9999999/1" value="0" leadInLength="0/1"  interpolater="leadin-linr"  />
           <InterpolatingParam id="170" interp="linr"  time="-9999999/1" value="0" leadInLength="0/1"  interpolater="leadin-linr"  />
           <InterpolatingParam id="171" interp="linr"  time="-9999999/1" value="0" leadInLength="0/1"  interpolater="leadin-linr"  />
          </VectorParam>
          <VectorParam id="172"  name="shear">
           <InterpolatingParam id="173" interp="linr"  time="-9999999/1" value="0" leadInLength="0/1"  interpolater="leadin-linr"  />
           <InterpolatingParam id="174" interp="linr"  time="-9999999/1" value="0" leadInLength="0/1"  interpolater="leadin-linr"  />
           <InterpolatingParam id="175" interp="linr"  time="-9999999/1" value="0" leadInLength="0/1"  interpolater="leadin-linr"  />
          </VectorParam>
          <VectorParam id="176"  name="scale">
           <InterpolatingParam id="177" interp="linr"  time="-9999999/1" value="1" leadInLength="0/1"  interpolater="leadin-linr"  />
           <InterpolatingParam id="178" interp="linr"  time="-9999999/1" value="1" leadInLength="0/1"  interpolater="leadin-linr"  />
           <InterpolatingParam id="179" interp="linr"  time="-9999999/1" value="1" leadInLength="0/1"  interpolater="leadin-linr"  />
          </VectorParam>
          <VectorParam id="180"  name="anchor">
           <InterpolatingParam id="181" interp="linr"  time="0/1" value="0" leadInLength="0/1"  />
           <InterpolatingParam id="182" interp="linr"  time="0/1" value="0" leadInLength="0/1"  />
           <InterpolatingParam id="183" interp="linr"  time="0/1" value="0" leadInLength="0/1"  />
          </VectorParam>
         </Transformer>
         <Parameters>
          <VectorParam id="184"  name="sourceCrop">
           <InterpolatingParam id="185" interp="linr"  time="0/1" value="0" leadInLength="0/1"  />
           <InterpolatingParam id="186" interp="linr"  time="0/1" value="0" leadInLength="0/1"  />
           <InterpolatingParam id="187" interp="linr"  time="0/1" value="0" leadInLength="0/1"  />
           <InterpolatingParam id="188" interp="linr"  time="0/1" value="0" leadInLength="0/1"  />
          </VectorParam>
          <VectorParam id="189"  name="geometryCrop">
           <InterpolatingParam id="190" interp="linr"  time="-9999999/1" value="0" leadInLength="0/1"  interpolater="leadin-linr"  />
           <InterpolatingParam id="191" interp="linr"  time="-9999999/1" value="0" leadInLength="0/1"  interpolater="leadin-linr"  />
           <InterpolatingParam id="192" interp="linr"  time="-9999999/1" value="0" leadInLength="0/1"  interpolater="leadin-linr"  />
           <InterpolatingParam id="193" interp="linr"  time="-9999999/1" value="0" leadInLength="0/1"  interpolater="leadin-linr"  />
          </VectorParam>
          <InterpolatingParam id="194" interp="linr"  time="-9999999/1" value="1" leadInLength="0/1"  interpolater="leadin-linr"  name="opacity"/>
         </Parameters>
         <Attributes>
          <Attribute id="195" value="" name="ident"/>
         </Attributes>
         <MetaData>
          <entry key="WinSubProjectDisplayName" val=""/>
         </MetaData>
         <ExtraData>
          <Entry key="ZoomPanBin">
           <ZoomPanBin id="196"  >
            <ZoomPanKeyframes>
             <ZoomPanKeyframe id="197" timeRangeEnd="-9999999/1" timeRangeDuration="0/1" interpolaterName="leadin-linr"  />
            </ZoomPanKeyframes>
           </ZoomPanBin>
          </Entry>
         </ExtraData>
        </IMFile>
        <UnifiedMedia id="198"  >
         <AudioTransition id="199" start="165" duration="30" >
          <Parameters>
           <InterpolatingParam id="200" interp="linr"  time="0/1" value="1" leadInLength="0/1"  name="volume"/>
           <Parameter id="201"  name="captions"/>
          </Parameters>
          <Effects>
           <GenericEffect id="202" name = "AudioTransition" >
            <Parameters>
            <Parameter id="203"   name="audioEdgeModType">
             <Keyframes>
             <Keyframe id="204"  time="0/1" value="0" leadInLength="0/1"  />
             </Keyframes>
            </Parameter>
            <Parameter id="205"   name="audioTransitionType">
             <Keyframes>
             <Keyframe id="206"  time="0/1" value="" leadInLength="0/1"  />
             </Keyframes>
            </Parameter>
            </Parameters>
            <MetaData>
            </MetaData>
           </GenericEffect>
          </Effects>
          <Attributes>
           <Attribute id="207" value="" name="ident"/>
           <Attribute id="208" value="0" name="sampleRate"/>
           <Attribute id="209" value="0" name="bitDepth"/>
           <Attribute id="210" value="1" name="gain"/>
           <Attribute id="211" value="0" name="mixToMono"/>
          </Attributes>
         </AudioTransition>
         <ImageTransition id="212" start="165" duration="30" >
          <Transformer>
           <VectorParam id="213"  name="translation">
            <InterpolatingParam id="214" interp="linr"  time="0/1" value="0" leadInLength="0/1"  />
            <InterpolatingParam id="215" interp="linr"  time="0/1" value="0" leadInLength="0/1"  />
            <InterpolatingParam id="216" interp="linr"  time="0/1" value="0" leadInLength="0/1"  />
           </VectorParam>
           <VectorParam id="217"  name="rotation">
            <InterpolatingParam id="218" interp="linr"  time="0/1" value="0" leadInLength="0/1"  />
            <InterpolatingParam id="219" interp="linr"  time="0/1" value="0" leadInLength="0/1"  />
            <InterpolatingParam id="220" interp="linr"  time="0/1" value="0" leadInLength="0/1"  />
           </VectorParam>
           <VectorParam id="221"  name="shear">
            <InterpolatingParam id="222" interp="linr"  time="0/1" value="0" leadInLength="0/1"  />
            <InterpolatingParam id="223" interp="linr"  time="0/1" value="0" leadInLength="0/1"  />
            <InterpolatingParam id="224" interp="linr"  time="0/1" value="0" leadInLength="0/1"  />
           </VectorParam>
           <VectorParam id="225"  name="scale">
            <InterpolatingParam id="226" interp="linr"  time="0/1" value="1" leadInLength="0/1"  />
            <InterpolatingParam id="227" interp="linr"  time="0/1" value="1" leadInLength="0/1"  />
            <InterpolatingParam id="228" interp="linr"  time="0/1" value="1" leadInLength="0/1"  />
           </VectorParam>
           <VectorParam id="229"  name="anchor">
            <InterpolatingParam id="230" interp="linr"  time="0/1" value="0" leadInLength="0/1"  />
            <InterpolatingParam id="231" interp="linr"  time="0/1" value="0" leadInLength="0/1"  />
            <InterpolatingParam id="232" interp="linr"  time="0/1" value="0" leadInLength="0/1"  />
           </VectorParam>
          </Transformer>
          <Parameters>
           <VectorParam id="233"  name="sourceCrop">
            <InterpolatingParam id="234" interp="linr"  time="0/1" value="0" leadInLength="0/1"  />
            <InterpolatingParam id="235" interp="linr"  time="0/1" value="0" leadInLength="0/1"  />
            <InterpolatingParam id="236" interp="linr"  time="0/1" value="0" leadInLength="0/1"  />
            <InterpolatingParam id="237" interp="linr"  time="0/1" value="0" leadInLength="0/1"  />
           </VectorParam>
           <VectorParam id="238"  name="geometryCrop">
            <InterpolatingParam id="239" interp="linr"  time="0/1" value="0" leadInLength="0/1"  />
            <InterpolatingParam id="240" interp="linr"  time="0/1" value="0" leadInLength="0/1"  />
            <InterpolatingParam id="241" interp="linr"  time="0/1" value="0" leadInLength="0/1"  />
            <InterpolatingParam id="242" interp="linr"  time="0/1" value="0" leadInLength="0/1"  />
           </VectorParam>
           <InterpolatingParam id="243" interp="linr"  time="0/1" value="1" leadInLength="0/1"  name="opacity"/>
          </Parameters>
          <Effects>
           <GenericEffect id="244" name = "VisualTransition" >
            <Parameters>
            <InterpolatingParam id="245" interp="linr"  time="0/1" value="1" leadInLength="0/1"   name="leftFramePercentage"/>
            <InterpolatingParam id="246" interp="linr"  time="0/1" value="1" leadInLength="0/1"   name="rightFramePercentage"/>
            <Parameter id="247"   name="visualEdgeModType">
             <Keyframes>
             <Keyframe id="248"  time="0/1" value="0" leadInLength="0/1"  />
             </Keyframes>
            </Parameter>
            <Parameter id="249"   name="visualTransitionType">
             <Keyframes>
             <Keyframe id="250"  time="0/1" value="Flip" leadInLength="0/1"  />
             </Keyframes>
            </Parameter>
            </Parameters>
            <MetaData>
            </MetaData>
           </GenericEffect>
          </Effects>
          <Attributes>
           <Attribute id="251" value="" name="ident"/>
          </Attributes>
          <ExtraData>
           <Entry key="ZoomPanBin">
            <ZoomPanBin id="252"  >
             <ZoomPanKeyframes>
             </ZoomPanKeyframes>
            </ZoomPanBin>
           </Entry>
          </ExtraData>
         </ImageTransition>
         <MetaData>
          <entry key="WinSubProjectDisplayName" val=""/>
         </MetaData>
        </UnifiedMedia>
        <IMFile id="253" start="195" duration="720" scalar="1/1" mediaStart="0/1" mediaDuration="1/1" trackNumber="0" src="5" trimStartSum="15/1" >
         <Transformer>
          <VectorParam id="254"  name="translation">
           <InterpolatingParam id="255" interp="linr"  time="-9999999/1" value="0" leadInLength="0/1"  />
           <InterpolatingParam id="256" interp="linr"  time="-9999999/1" value="0" leadInLength="0/1"  />
           <InterpolatingParam id="257" interp="linr"  time="-9999999/1" value="0" leadInLength="0/1"  />
          </VectorParam>
          <VectorParam id="258"  name="rotation">
           <InterpolatingParam id="259" interp="linr"  time="-9999999/1" value="0" leadInLength="0/1"  />
           <InterpolatingParam id="260" interp="linr"  time="-9999999/1" value="0" leadInLength="0/1"  />
           <InterpolatingParam id="261" interp="linr"  time="-9999999/1" value="0" leadInLength="0/1"  />
          </VectorParam>
          <VectorParam id="262"  name="shear">
           <InterpolatingParam id="263" interp="linr"  time="-9999999/1" value="0" leadInLength="0/1"  />
           <InterpolatingParam id="264" interp="linr"  time="-9999999/1" value="0" leadInLength="0/1"  />
           <InterpolatingParam id="265" interp="linr"  time="-9999999/1" value="0" leadInLength="0/1"  />
          </VectorParam>
          <VectorParam id="266"  name="scale">
           <InterpolatingParam id="267" interp="linr"  time="-9999999/1" value="1" leadInLength="0/1"  />
           <InterpolatingParam id="268" interp="linr"  time="-9999999/1" value="1" leadInLength="0/1"  />
           <InterpolatingParam id="269" interp="linr"  time="-9999999/1" value="1" leadInLength="0/1"  />
          </VectorParam>
          <VectorParam id="270"  name="anchor">
           <InterpolatingParam id="271" interp="linr"  time="0/1" value="0" leadInLength="0/1"  />
           <InterpolatingParam id="272" interp="linr"  time="0/1" value="0" leadInLength="0/1"  />
           <InterpolatingParam id="273" interp="linr"  time="0/1" value="0" leadInLength="0/1"  />
          </VectorParam>
         </Transformer>
         <Parameters>
          <VectorParam id="274"  name="sourceCrop">
           <InterpolatingParam id="275" interp="linr"  time="0/1" value="0" leadInLength="0/1"  />
           <InterpolatingParam id="276" interp="linr"  time="0/1" value="0" leadInLength="0/1"  />
           <InterpolatingParam id="277" interp="linr"  time="0/1" value="0" leadInLength="0/1"  />
           <InterpolatingParam id="278" interp="linr"  time="0/1" value="0" leadInLength="0/1"  />
          </VectorParam>
          <VectorParam id="279"  name="geometryCrop">
           <InterpolatingParam id="280" interp="linr"  time="-9999999/1" value="0" leadInLength="0/1"  />
           <InterpolatingParam id="281" interp="linr"  time="-9999999/1" value="0" leadInLength="0/1"  />
           <InterpolatingParam id="282" interp="linr"  time="-9999999/1" value="0" leadInLength="0/1"  />
           <InterpolatingParam id="283" interp="linr"  time="-9999999/1" value="0" leadInLength="0/1"  />
          </VectorParam>
          <InterpolatingParam id="284" interp="linr"  time="-9999999/1" value="1" leadInLength="0/1"  name="opacity"/>
         </Parameters>
         <Attributes>
          <Attribute id="285" value="" name="ident"/>
         </Attributes>
         <MetaData>
          <entry key="WinSubProjectDisplayName" val=""/>
         </MetaData>
         <ExtraData>
          <Entry key="ZoomPanBin">
           <ZoomPanBin id="286"  >
            <ZoomPanKeyframes>
             <ZoomPanKeyframe id="287" timeRangeEnd="-9999999/1" timeRangeDuration="0/1" interpolaterName="linr"  />
            </ZoomPanKeyframes>
           </ZoomPanBin>
          </Entry>
         </ExtraData>
        </IMFile>
        <StitchedMedia id="288" start="915" duration="125" scalar="1/1" mediaStart="0/1" mediaDuration="125/1" minMediaStart="0/1" >
         <Transformer>
          <VectorParam id="289"  name="translation">
           <InterpolatingParam id="290" interp="linr"  time="-9999999/1" value="0" leadInLength="0/1"  />
           <InterpolatingParam id="291" interp="linr"  time="-9999999/1" value="0" leadInLength="0/1"  />
           <InterpolatingParam id="292" interp="linr"  time="-9999999/1" value="0" leadInLength="0/1"  />
          </VectorParam>
          <VectorParam id="293"  name="rotation">
           <InterpolatingParam id="294" interp="linr"  time="-9999999/1" value="0" leadInLength="0/1"  />
           <InterpolatingParam id="295" interp="linr"  time="-9999999/1" value="0" leadInLength="0/1"  />
           <InterpolatingParam id="296" interp="linr"  time="-9999999/1" value="0" leadInLength="0/1"  />
          </VectorParam>
          <VectorParam id="297"  name="shear">
           <InterpolatingParam id="298" interp="linr"  time="-9999999/1" value="0" leadInLength="0/1"  />
           <InterpolatingParam id="299" interp="linr"  time="-9999999/1" value="0" leadInLength="0/1"  />
           <InterpolatingParam id="300" interp="linr"  time="-9999999/1" value="0" leadInLength="0/1"  />
          </VectorParam>
          <VectorParam id="301"  name="scale">
           <InterpolatingParam id="302" interp="linr"  time="-9999999/1" value="1" leadInLength="0/1"  />
           <InterpolatingParam id="303" interp="linr"  time="-9999999/1" value="1" leadInLength="0/1"  />
           <InterpolatingParam id="304" interp="linr"  time="-9999999/1" value="1" leadInLength="0/1"  />
          </VectorParam>
          <VectorParam id="305"  name="anchor">
           <InterpolatingParam id="306" interp="linr"  >
            <Keyframes>
            <Keyframe id="307"  time="0/1" value="0" leadInLength="0/1"  />
            <Keyframe id="308"  time="28/1" value="0" leadInLength="0/1"  />
            </Keyframes>
           </InterpolatingParam>
           <InterpolatingParam id="309" interp="linr"  >
            <Keyframes>
            <Keyframe id="310"  time="0/1" value="0" leadInLength="0/1"  />
            <Keyframe id="311"  time="28/1" value="0" leadInLength="0/1"  />
            </Keyframes>
           </InterpolatingParam>
           <InterpolatingParam id="312" interp="linr"  >
            <Keyframes>
            <Keyframe id="313"  time="0/1" value="0" leadInLength="0/1"  />
            <Keyframe id="314"  time="28/1" value="0" leadInLength="0/1"  />
            </Keyframes>
           </InterpolatingParam>
          </VectorParam>
         </Transformer>
         <Parameters>
          <VectorParam id="315"  name="sourceCrop">
           <InterpolatingParam id="316" interp="linr"  >
            <Keyframes>
            <Keyframe id="317"  time="0/1" value="0" leadInLength="0/1"  />
            <Keyframe id="318"  time="28/1" value="0" leadInLength="0/1"  />
            </Keyframes>
           </InterpolatingParam>
           <InterpolatingParam id="319" interp="linr"  >
            <Keyframes>
            <Keyframe id="320"  time="0/1" value="0" leadInLength="0/1"  />
            <Keyframe id="321"  time="28/1" value="0" leadInLength="0/1"  />
            </Keyframes>
           </InterpolatingParam>
           <InterpolatingParam id="322" interp="linr"  >
            <Keyframes>
            <Keyframe id="323"  time="0/1" value="0" leadInLength="0/1"  />
            <Keyframe id="324"  time="28/1" value="0" leadInLength="0/1"  />
            </Keyframes>
           </InterpolatingParam>
           <InterpolatingParam id="325" interp="linr"  >
            <Keyframes>
            <Keyframe id="326"  time="0/1" value="0" leadInLength="0/1"  />
            <Keyframe id="327"  time="28/1" value="0" leadInLength="0/1"  />
            </Keyframes>
           </InterpolatingParam>
          </VectorParam>
          <VectorParam id="328"  name="geometryCrop">
           <InterpolatingParam id="329" interp="linr"  time="-9999999/1" value="0" leadInLength="0/1"  />
           <InterpolatingParam id="330" interp="linr"  time="-9999999/1" value="0" leadInLength="0/1"  />
           <InterpolatingParam id="331" interp="linr"  time="-9999999/1" value="0" leadInLength="0/1"  />
           <InterpolatingParam id="332" interp="linr"  time="-9999999/1" value="0" leadInLength="0/1"  />
          </VectorParam>
          <InterpolatingParam id="333" interp="linr"  time="-9999999/1" value="1" leadInLength="0/1"  name="opacity"/>
          <InterpolatingParam id="334" interp="linr"  time="0/1" value="1" leadInLength="0/1"  name="cursorOpacity"/>
          <InterpolatingParam id="335" interp="linr"  time="0/1" value="1" leadInLength="0/1"  name="cursorScale"/>
          <Parameter id="336"  name="captions"/>
         </Parameters>
         <Effects>
          <GenericEffect id="337" name = "CursorBaseEffectName" >
           <Parameters>
           <InterpolatingParam id="338" interp="linr"  time="-9999999/1" value="1" leadInLength="0/1"   name="cursorSize"/>
           <InterpolatingParam id="339" interp="linr"  time="-9999999/1" value="0" leadInLength="0/1"   name="highlightBlurRadius"/>
           <InterpolatingParam id="340" interp="linr"  time="-9999999/1" value="0" leadInLength="0/1"   name="highlightColorBlue"/>
           <InterpolatingParam id="341" interp="linr"  time="-9999999/1" value="255" leadInLength="0/1"   name="highlightColorGreen"/>
           <InterpolatingParam id="342" interp="linr"  time="-9999999/1" value="255" leadInLength="0/1"   name="highlightColorRed"/>
           <InterpolatingParam id="343" interp="linr"  time="-9999999/1" value="5" leadInLength="0/1"   name="highlightFeatherSize"/>
           <InterpolatingParam id="344" interp="linr"  time="-9999999/1" value="2" leadInLength="0/1"   name="highlightMagnification"/>
           <InterpolatingParam id="345" interp="linr"  time="-9999999/1" value="1" leadInLength="0/1"   name="highlightOpacity"/>
           <InterpolatingParam id="346" interp="linr"  time="-9999999/1" value="45" leadInLength="0/1"   name="highlightSize"/>
           <Parameter id="347"   name="highlightType">
            <Keyframes>
            <Keyframe id="348"  time="-9999999/1" value="0" leadInLength="0/1"  />
            </Keyframes>
           </Parameter>
           <InterpolatingParam id="349" interp="linr"  time="-9999999/1" value="0" leadInLength="0/1"   name="leftClickColorBlue"/>
           <InterpolatingParam id="350" interp="linr"  time="-9999999/1" value="0" leadInLength="0/1"   name="leftClickColorGreen"/>
           <InterpolatingParam id="351" interp="linr"  time="-9999999/1" value="255" leadInLength="0/1"   name="leftClickColorRed"/>
           <InterpolatingParam id="352" interp="linr"  time="-9999999/1" value="0.80000000000000004" leadInLength="0/1"   name="leftClickDuration"/>
           <InterpolatingParam id="353" interp="linr"  time="-9999999/1" value="20" leadInLength="0/1"   name="leftClickSize"/>
           <Parameter id="354"   name="leftClickSoundFilename">
            <Keyframes>
            <Keyframe id="355"  time="-9999999/1" value="" leadInLength="0/1"  />
            </Keyframes>
           </Parameter>
           <InterpolatingParam id="356" interp="linr"  time="-9999999/1" value="1" leadInLength="0/1"   name="leftClickSoundVolume"/>
           <Parameter id="357"   name="leftClickType">
            <Keyframes>
            <Keyframe id="358"  time="-9999999/1" value="0" leadInLength="0/1"  />
            </Keyframes>
           </Parameter>
           <InterpolatingParam id="359" interp="linr"  time="-9999999/1" value="1" leadInLength="0/1"   name="opacity"/>
           <InterpolatingParam id="360" interp="linr"  time="-9999999/1" value="255" leadInLength="0/1"   name="rightClickColorBlue"/>
           <InterpolatingParam id="361" interp="linr"  time="-9999999/1" value="0" leadInLength="0/1"   name="rightClickColorGreen"/>
           <InterpolatingParam id="362" interp="linr"  time="-9999999/1" value="0" leadInLength="0/1"   name="rightClickColorRed"/>
           <InterpolatingParam id="363" interp="linr"  time="-9999999/1" value="0.80000000000000004" leadInLength="0/1"   name="rightClickDuration"/>
           <InterpolatingParam id="364" interp="linr"  time="-9999999/1" value="20" leadInLength="0/1"   name="rightClickSize"/>
           <Parameter id="365"   name="rightClickSoundFilename">
            <Keyframes>
            <Keyframe id="366"  time="-9999999/1" value="" leadInLength="0/1"  />
            </Keyframes>
           </Parameter>
           <InterpolatingParam id="367" interp="linr"  time="-9999999/1" value="1" leadInLength="0/1"   name="rightClickSoundVolume"/>
           <Parameter id="368"   name="rightClickType">
            <Keyframes>
            <Keyframe id="369"  time="-9999999/1" value="0" leadInLength="0/1"  />
            </Keyframes>
           </Parameter>
           </Parameters>
          </GenericEffect>
         </Effects>
         <Attributes>
          <Attribute id="370" value="" name="ident"/>
         </Attributes>
         <MetaData>
          <entry key="AutoAppliedSmartFocus" val="False"/>
          <entry key="WinSubProjectDisplayName" val=""/>
         </MetaData>
         <ExtraData>
          <Entry key="ZoomPanBin">
           <ZoomPanBin id="371"  >
            <ZoomPanKeyframes>
             <ZoomPanKeyframe id="372" timeRangeEnd="-9999999/1" timeRangeDuration="0/1" interpolaterName="linr"  />
            </ZoomPanKeyframes>
           </ZoomPanBin>
          </Entry>
          <Entry key="CursorEffectBin">
           <CursorEffectBin id="373"  >
            <CursorEffectKeyframes>
             <CursorEffectKeyframe id="374" timeRangeEnd="-9999999/1" timeRangeDuration="0/1" interpolaterName=""  />
            </CursorEffectKeyframes>
           </CursorEffectBin>
          </Entry>
         </ExtraData>
         <GenericTrack id="375"  >
          <Attributes>
           <Attribute id="376" value="" name="ident"/>
           <Attribute id="377" value="0" name="audioMuted"/>
           <Attribute id="378" value="0" name="videoHidden"/>
          </Attributes>
          <MetaData>
           <entry key="IsLocked" val="False"/>
           <entry key="WinTrackHeight" val="0"/>
          </MetaData>
          <Medias>
           <ScreenVMFile id="379" start="0" duration="28" scalar="1/1" mediaStart="0/1" mediaDuration="28/1" trackNumber="0" src="4" >
            <Transformer>
             <VectorParam id="380"  name="translation">
              <InterpolatingParam id="381" interp="linr"  time="-9999999/1" value="0" leadInLength="0/1"  />
              <InterpolatingParam id="382" interp="linr"  time="-9999999/1" value="0" leadInLength="0/1"  />
              <InterpolatingParam id="383" interp="linr"  time="-9999999/1" value="0" leadInLength="0/1"  />
             </VectorParam>
             <VectorParam id="384"  name="rotation">
              <InterpolatingParam id="385" interp="linr"  time="-9999999/1" value="0" leadInLength="0/1"  />
              <InterpolatingParam id="386" interp="linr"  time="-9999999/1" value="0" leadInLength="0/1"  />
              <InterpolatingParam id="387" interp="linr"  time="-9999999/1" value="0" leadInLength="0/1"  />
             </VectorParam>
             <VectorParam id="388"  name="shear">
              <InterpolatingParam id="389" interp="linr"  time="-9999999/1" value="0" leadInLength="0/1"  />
              <InterpolatingParam id="390" interp="linr"  time="-9999999/1" value="0" leadInLength="0/1"  />
              <InterpolatingParam id="391" interp="linr"  time="-9999999/1" value="0" leadInLength="0/1"  />
             </VectorParam>
             <VectorParam id="392"  name="scale">
              <InterpolatingParam id="393" interp="linr"  time="-9999999/1" value="1" leadInLength="0/1"  />
              <InterpolatingParam id="394" interp="linr"  time="-9999999/1" value="1" leadInLength="0/1"  />
              <InterpolatingParam id="395" interp="linr"  time="-9999999/1" value="1" leadInLength="0/1"  />
             </VectorParam>
             <VectorParam id="396"  name="anchor">
              <InterpolatingParam id="397" interp="linr"  time="0/1" value="0" leadInLength="0/1"  />
              <InterpolatingParam id="398" interp="linr"  time="0/1" value="0" leadInLength="0/1"  />
              <InterpolatingParam id="399" interp="linr"  time="0/1" value="0" leadInLength="0/1"  />
             </VectorParam>
            </Transformer>
            <Parameters>
             <VectorParam id="400"  name="sourceCrop">
              <InterpolatingParam id="401" interp="linr"  time="0/1" value="0" leadInLength="0/1"  />
              <InterpolatingParam id="402" interp="linr"  time="0/1" value="0" leadInLength="0/1"  />
              <InterpolatingParam id="403" interp="linr"  time="0/1" value="0" leadInLength="0/1"  />
              <InterpolatingParam id="404" interp="linr"  time="0/1" value="0" leadInLength="0/1"  />
             </VectorParam>
             <VectorParam id="405"  name="geometryCrop">
              <InterpolatingParam id="406" interp="linr"  time="-9999999/1" value="0" leadInLength="0/1"  />
              <InterpolatingParam id="407" interp="linr"  time="-9999999/1" value="0" leadInLength="0/1"  />
              <InterpolatingParam id="408" interp="linr"  time="-9999999/1" value="0" leadInLength="0/1"  />
              <InterpolatingParam id="409" interp="linr"  time="-9999999/1" value="0" leadInLength="0/1"  />
             </VectorParam>
             <InterpolatingParam id="410" interp="linr"  time="-9999999/1" value="1" leadInLength="0/1"  name="opacity"/>
             <InterpolatingParam id="411" interp="linr"  time="0/1" value="0" leadInLength="0/1"  name="cursorOpacity"/>
             <InterpolatingParam id="412" interp="linr"  time="0/1" value="0" leadInLength="0/1"  name="cursorScale"/>
            </Parameters>
            <Attributes>
             <Attribute id="413" value="" name="ident"/>
            </Attributes>
            <MetaData>
             <entry key="AutoAppliedSmartFocus" val="False"/>
             <entry key="WinSubProjectDisplayName" val=""/>
            </MetaData>
            <ExtraData>
             <Entry key="ZoomPanBin">
              <ZoomPanBin id="414"  >
               <ZoomPanKeyframes>
                <ZoomPanKeyframe id="415" timeRangeEnd="-9999999/1" timeRangeDuration="0/1" interpolaterName="linr"  />
               </ZoomPanKeyframes>
              </ZoomPanBin>
             </Entry>
             <Entry key="CursorEffectBin">
              <CursorEffectBin id="416"  >
               <CursorEffectKeyframes>
               </CursorEffectKeyframes>
              </CursorEffectBin>
             </Entry>
            </ExtraData>
           </ScreenVMFile>
           <ScreenIMFile id="417" start="28" duration="108030" scalar="1/1" mediaStart="27/1" mediaDuration="1/1" trackNumber="0" src="4" trimStartSum="0/1" >
            <Transformer>
             <VectorParam id="418"  name="translation">
              <InterpolatingParam id="419" interp="linr"  time="-9999999/1" value="0" leadInLength="0/1"  />
              <InterpolatingParam id="420" interp="linr"  time="-9999999/1" value="0" leadInLength="0/1"  />
              <InterpolatingParam id="421" interp="linr"  time="-9999999/1" value="0" leadInLength="0/1"  />
             </VectorParam>
             <VectorParam id="422"  name="rotation">
              <InterpolatingParam id="423" interp="linr"  time="-9999999/1" value="0" leadInLength="0/1"  />
              <InterpolatingParam id="424" interp="linr"  time="-9999999/1" value="0" leadInLength="0/1"  />
              <InterpolatingParam id="425" interp="linr"  time="-9999999/1" value="0" leadInLength="0/1"  />
             </VectorParam>
             <VectorParam id="426"  name="shear">
              <InterpolatingParam id="427" interp="linr"  time="-9999999/1" value="0" leadInLength="0/1"  />
              <InterpolatingParam id="428" interp="linr"  time="-9999999/1" value="0" leadInLength="0/1"  />
              <InterpolatingParam id="429" interp="linr"  time="-9999999/1" value="0" leadInLength="0/1"  />
             </VectorParam>
             <VectorParam id="430"  name="scale">
              <InterpolatingParam id="431" interp="linr"  time="-9999999/1" value="1" leadInLength="0/1"  />
              <InterpolatingParam id="432" interp="linr"  time="-9999999/1" value="1" leadInLength="0/1"  />
              <InterpolatingParam id="433" interp="linr"  time="-9999999/1" value="1" leadInLength="0/1"  />
             </VectorParam>
             <VectorParam id="434"  name="anchor">
              <InterpolatingParam id="435" interp="linr"  time="0/1" value="0" leadInLength="0/1"  />
              <InterpolatingParam id="436" interp="linr"  time="0/1" value="0" leadInLength="0/1"  />
              <InterpolatingParam id="437" interp="linr"  time="0/1" value="0" leadInLength="0/1"  />
             </VectorParam>
            </Transformer>
            <Parameters>
             <VectorParam id="438"  name="sourceCrop">
              <InterpolatingParam id="439" interp="linr"  time="0/1" value="0" leadInLength="0/1"  />
              <InterpolatingParam id="440" interp="linr"  time="0/1" value="0" leadInLength="0/1"  />
              <InterpolatingParam id="441" interp="linr"  time="0/1" value="0" leadInLength="0/1"  />
              <InterpolatingParam id="442" interp="linr"  time="0/1" value="0" leadInLength="0/1"  />
             </VectorParam>
             <VectorParam id="443"  name="geometryCrop">
              <InterpolatingParam id="444" interp="linr"  time="-9999999/1" value="0" leadInLength="0/1"  />
              <InterpolatingParam id="445" interp="linr"  time="-9999999/1" value="0" leadInLength="0/1"  />
              <InterpolatingParam id="446" interp="linr"  time="-9999999/1" value="0" leadInLength="0/1"  />
              <InterpolatingParam id="447" interp="linr"  time="-9999999/1" value="0" leadInLength="0/1"  />
             </VectorParam>
             <InterpolatingParam id="448" interp="linr"  time="-9999999/1" value="1" leadInLength="0/1"  name="opacity"/>
             <InterpolatingParam id="449" interp="linr"  time="0/1" value="0" leadInLength="0/1"  name="cursorOpacity"/>
             <InterpolatingParam id="450" interp="linr"  time="0/1" value="1" leadInLength="0/1"  name="recordedCursorOpacity"/>
             <InterpolatingParam id="451" interp="linr"  time="0/1" value="0" leadInLength="0/1"  name="cursorScale"/>
            </Parameters>
            <Attributes>
             <Attribute id="452" value="" name="ident"/>
            </Attributes>
            <MetaData>
             <entry key="AutoAppliedSmartFocus" val="False"/>
             <entry key="WinSubProjectDisplayName" val=""/>
            </MetaData>
            <ExtraData>
             <Entry key="ZoomPanBin">
              <ZoomPanBin id="453"  >
               <ZoomPanKeyframes>
                <ZoomPanKeyframe id="454" timeRangeEnd="-9999999/1" timeRangeDuration="0/1" interpolaterName="linr"  />
               </ZoomPanKeyframes>
              </ZoomPanBin>
             </Entry>
             <Entry key="CursorEffectBin">
              <CursorEffectBin id="455"  >
               <CursorEffectKeyframes>
               </CursorEffectKeyframes>
              </CursorEffectBin>
             </Entry>
            </ExtraData>
           </ScreenIMFile>
          </Medias>
         </GenericTrack>
        </StitchedMedia>
        <StitchedMedia id="456" start="1040" duration="387" scalar="1/1" mediaStart="28/1" mediaDuration="387/1" minMediaStart="0/1" >
         <Transformer>
          <VectorParam id="457"  name="translation">
           <InterpolatingParam id="458" interp="linr"  time="-9999999/1" value="0" leadInLength="0/1"  />
           <InterpolatingParam id="459" interp="linr"  time="-9999999/1" value="0" leadInLength="0/1"  />
           <InterpolatingParam id="460" interp="linr"  time="-9999999/1" value="0" leadInLength="0/1"  />
          </VectorParam>
          <VectorParam id="461"  name="rotation">
           <InterpolatingParam id="462" interp="linr"  time="-9999999/1" value="0" leadInLength="0/1"  />
           <InterpolatingParam id="463" interp="linr"  time="-9999999/1" value="0" leadInLength="0/1"  />
           <InterpolatingParam id="464" interp="linr"  time="-9999999/1" value="0" leadInLength="0/1"  />
          </VectorParam>
          <VectorParam id="465"  name="shear">
           <InterpolatingParam id="466" interp="linr"  time="-9999999/1" value="0" leadInLength="0/1"  />
           <InterpolatingParam id="467" interp="linr"  time="-9999999/1" value="0" leadInLength="0/1"  />
           <InterpolatingParam id="468" interp="linr"  time="-9999999/1" value="0" leadInLength="0/1"  />
          </VectorParam>
          <VectorParam id="469"  name="scale">
           <InterpolatingParam id="470" interp="linr"  time="-9999999/1" value="1" leadInLength="0/1"  />
           <InterpolatingParam id="471" interp="linr"  time="-9999999/1" value="1" leadInLength="0/1"  />
           <InterpolatingParam id="472" interp="linr"  time="-9999999/1" value="1" leadInLength="0/1"  />
          </VectorParam>
          <VectorParam id="473"  name="anchor">
           <InterpolatingParam id="474" interp="linr"  >
            <Keyframes>
            <Keyframe id="475"  time="0/1" value="0" leadInLength="0/1"  />
            <Keyframe id="476"  time="116/1" value="0" leadInLength="0/1"  />
            </Keyframes>
           </InterpolatingParam>
           <InterpolatingParam id="477" interp="linr"  >
            <Keyframes>
            <Keyframe id="478"  time="0/1" value="0" leadInLength="0/1"  />
            <Keyframe id="479"  time="116/1" value="0" leadInLength="0/1"  />
            </Keyframes>
           </InterpolatingParam>
           <InterpolatingParam id="480" interp="linr"  >
            <Keyframes>
            <Keyframe id="481"  time="0/1" value="0" leadInLength="0/1"  />
            <Keyframe id="482"  time="116/1" value="0" leadInLength="0/1"  />
            </Keyframes>
           </InterpolatingParam>
          </VectorParam>
         </Transformer>
         <Parameters>
          <VectorParam id="483"  name="sourceCrop">
           <InterpolatingParam id="484" interp="linr"  >
            <Keyframes>
            <Keyframe id="485"  time="0/1" value="0" leadInLength="0/1"  />
            <Keyframe id="486"  time="116/1" value="0" leadInLength="0/1"  />
            </Keyframes>
           </InterpolatingParam>
           <InterpolatingParam id="487" interp="linr"  >
            <Keyframes>
            <Keyframe id="488"  time="0/1" value="0" leadInLength="0/1"  />
            <Keyframe id="489"  time="116/1" value="0" leadInLength="0/1"  />
            </Keyframes>
           </InterpolatingParam>
           <InterpolatingParam id="490" interp="linr"  >
            <Keyframes>
            <Keyframe id="491"  time="0/1" value="0" leadInLength="0/1"  />
            <Keyframe id="492"  time="116/1" value="0" leadInLength="0/1"  />
            </Keyframes>
           </InterpolatingParam>
           <InterpolatingParam id="493" interp="linr"  >
            <Keyframes>
            <Keyframe id="494"  time="0/1" value="0" leadInLength="0/1"  />
            <Keyframe id="495"  time="116/1" value="0" leadInLength="0/1"  />
            </Keyframes>
           </InterpolatingParam>
          </VectorParam>
          <VectorParam id="496"  name="geometryCrop">
           <InterpolatingParam id="497" interp="linr"  time="-9999999/1" value="0" leadInLength="0/1"  />
           <InterpolatingParam id="498" interp="linr"  time="-9999999/1" value="0" leadInLength="0/1"  />
           <InterpolatingParam id="499" interp="linr"  time="-9999999/1" value="0" leadInLength="0/1"  />
           <InterpolatingParam id="500" interp="linr"  time="-9999999/1" value="0" leadInLength="0/1"  />
          </VectorParam>
          <InterpolatingParam id="501" interp="linr"  time="-9999999/1" value="1" leadInLength="0/1"  name="opacity"/>
          <InterpolatingParam id="502" interp="linr"  time="0/1" value="1" leadInLength="0/1"  name="cursorOpacity"/>
          <InterpolatingParam id="503" interp="linr"  time="0/1" value="1" leadInLength="0/1"  name="cursorScale"/>
          <Parameter id="504"  name="captions"/>
         </Parameters>
         <Effects>
          <GenericEffect id="505" name = "CursorBaseEffectName" >
           <Parameters>
           <InterpolatingParam id="506" interp="linr"  time="-9999999/1" value="1" leadInLength="0/1"   name="cursorSize"/>
           <InterpolatingParam id="507" interp="linr"  time="-9999999/1" value="0" leadInLength="0/1"   name="highlightBlurRadius"/>
           <InterpolatingParam id="508" interp="linr"  time="-9999999/1" value="0" leadInLength="0/1"   name="highlightColorBlue"/>
           <InterpolatingParam id="509" interp="linr"  time="-9999999/1" value="255" leadInLength="0/1"   name="highlightColorGreen"/>
           <InterpolatingParam id="510" interp="linr"  time="-9999999/1" value="255" leadInLength="0/1"   name="highlightColorRed"/>
           <InterpolatingParam id="511" interp="linr"  time="-9999999/1" value="5" leadInLength="0/1"   name="highlightFeatherSize"/>
           <InterpolatingParam id="512" interp="linr"  time="-9999999/1" value="2" leadInLength="0/1"   name="highlightMagnification"/>
           <InterpolatingParam id="513" interp="linr"  time="-9999999/1" value="1" leadInLength="0/1"   name="highlightOpacity"/>
           <InterpolatingParam id="514" interp="linr"  time="-9999999/1" value="45" leadInLength="0/1"   name="highlightSize"/>
           <Parameter id="515"   name="highlightType">
            <Keyframes>
            <Keyframe id="516"  time="-9999999/1" value="0" leadInLength="0/1"  />
            </Keyframes>
           </Parameter>
           <InterpolatingParam id="517" interp="linr"  time="-9999999/1" value="0" leadInLength="0/1"   name="leftClickColorBlue"/>
           <InterpolatingParam id="518" interp="linr"  time="-9999999/1" value="0" leadInLength="0/1"   name="leftClickColorGreen"/>
           <InterpolatingParam id="519" interp="linr"  time="-9999999/1" value="255" leadInLength="0/1"   name="leftClickColorRed"/>
           <InterpolatingParam id="520" interp="linr"  time="-9999999/1" value="0.80000000000000004" leadInLength="0/1"   name="leftClickDuration"/>
           <InterpolatingParam id="521" interp="linr"  time="-9999999/1" value="20" leadInLength="0/1"   name="leftClickSize"/>
           <Parameter id="522"   name="leftClickSoundFilename">
            <Keyframes>
            <Keyframe id="523"  time="-9999999/1" value="" leadInLength="0/1"  />
            </Keyframes>
           </Parameter>
           <InterpolatingParam id="524" interp="linr"  time="-9999999/1" value="1" leadInLength="0/1"   name="leftClickSoundVolume"/>
           <Parameter id="525"   name="leftClickType">
            <Keyframes>
            <Keyframe id="526"  time="-9999999/1" value="0" leadInLength="0/1"  />
            </Keyframes>
           </Parameter>
           <InterpolatingParam id="527" interp="linr"  time="-9999999/1" value="1" leadInLength="0/1"   name="opacity"/>
           <InterpolatingParam id="528" interp="linr"  time="-9999999/1" value="255" leadInLength="0/1"   name="rightClickColorBlue"/>
           <InterpolatingParam id="529" interp="linr"  time="-9999999/1" value="0" leadInLength="0/1"   name="rightClickColorGreen"/>
           <InterpolatingParam id="530" interp="linr"  time="-9999999/1" value="0" leadInLength="0/1"   name="rightClickColorRed"/>
           <InterpolatingParam id="531" interp="linr"  time="-9999999/1" value="0.80000000000000004" leadInLength="0/1"   name="rightClickDuration"/>
           <InterpolatingParam id="532" interp="linr"  time="-9999999/1" value="20" leadInLength="0/1"   name="rightClickSize"/>
           <Parameter id="533"   name="rightClickSoundFilename">
            <Keyframes>
            <Keyframe id="534"  time="-9999999/1" value="" leadInLength="0/1"  />
            </Keyframes>
           </Parameter>
           <InterpolatingParam id="535" interp="linr"  time="-9999999/1" value="1" leadInLength="0/1"   name="rightClickSoundVolume"/>
           <Parameter id="536"   name="rightClickType">
            <Keyframes>
            <Keyframe id="537"  time="-9999999/1" value="0" leadInLength="0/1"  />
            </Keyframes>
           </Parameter>
           </Parameters>
          </GenericEffect>
         </Effects>
         <Attributes>
          <Attribute id="538" value="" name="ident"/>
         </Attributes>
         <MetaData>
          <entry key="AutoAppliedSmartFocus" val="False"/>
          <entry key="WinSubProjectDisplayName" val=""/>
         </MetaData>
         <ExtraData>
          <Entry key="ZoomPanBin">
           <ZoomPanBin id="539"  >
            <ZoomPanKeyframes>
             <ZoomPanKeyframe id="540" timeRangeEnd="-9999999/1" timeRangeDuration="0/1" interpolaterName="linr"  />
            </ZoomPanKeyframes>
           </ZoomPanBin>
          </Entry>
          <Entry key="CursorEffectBin">
           <CursorEffectBin id="541"  >
            <CursorEffectKeyframes>
             <CursorEffectKeyframe id="542" timeRangeEnd="-9999999/1" timeRangeDuration="0/1" interpolaterName=""  />
            </CursorEffectKeyframes>
           </CursorEffectBin>
          </Entry>
         </ExtraData>
         <GenericTrack id="543"  >
          <Attributes>
           <Attribute id="544" value="" name="ident"/>
           <Attribute id="545" value="0" name="audioMuted"/>
           <Attribute id="546" value="0" name="videoHidden"/>
          </Attributes>
          <MetaData>
           <entry key="IsLocked" val="False"/>
           <entry key="WinTrackHeight" val="0"/>
          </MetaData>
          <Medias>
           <ScreenVMFile id="547" start="0" duration="116" scalar="1/1" mediaStart="0/1" mediaDuration="116/1" trackNumber="0" src="4" >
            <Transformer>
             <VectorParam id="548"  name="translation">
              <InterpolatingParam id="549" interp="linr"  time="-9999999/1" value="0" leadInLength="0/1"  />
              <InterpolatingParam id="550" interp="linr"  time="-9999999/1" value="0" leadInLength="0/1"  />
              <InterpolatingParam id="551" interp="linr"  time="-9999999/1" value="0" leadInLength="0/1"  />
             </VectorParam>
             <VectorParam id="552"  name="rotation">
              <InterpolatingParam id="553" interp="linr"  time="-9999999/1" value="0" leadInLength="0/1"  />
              <InterpolatingParam id="554" interp="linr"  time="-9999999/1" value="0" leadInLength="0/1"  />
              <InterpolatingParam id="555" interp="linr"  time="-9999999/1" value="0" leadInLength="0/1"  />
             </VectorParam>
             <VectorParam id="556"  name="shear">
              <InterpolatingParam id="557" interp="linr"  time="-9999999/1" value="0" leadInLength="0/1"  />
              <InterpolatingParam id="558" interp="linr"  time="-9999999/1" value="0" leadInLength="0/1"  />
              <InterpolatingParam id="559" interp="linr"  time="-9999999/1" value="0" leadInLength="0/1"  />
             </VectorParam>
             <VectorParam id="560"  name="scale">
              <InterpolatingParam id="561" interp="linr"  time="-9999999/1" value="1" leadInLength="0/1"  />
              <InterpolatingParam id="562" interp="linr"  time="-9999999/1" value="1" leadInLength="0/1"  />
              <InterpolatingParam id="563" interp="linr"  time="-9999999/1" value="1" leadInLength="0/1"  />
             </VectorParam>
             <VectorParam id="564"  name="anchor">
              <InterpolatingParam id="565" interp="linr"  time="0/1" value="0" leadInLength="0/1"  />
              <InterpolatingParam id="566" interp="linr"  time="0/1" value="0" leadInLength="0/1"  />
              <InterpolatingParam id="567" interp="linr"  time="0/1" value="0" leadInLength="0/1"  />
             </VectorParam>
            </Transformer>
            <Parameters>
             <VectorParam id="568"  name="sourceCrop">
              <InterpolatingParam id="569" interp="linr"  time="0/1" value="0" leadInLength="0/1"  />
              <InterpolatingParam id="570" interp="linr"  time="0/1" value="0" leadInLength="0/1"  />
              <InterpolatingParam id="571" interp="linr"  time="0/1" value="0" leadInLength="0/1"  />
              <InterpolatingParam id="572" interp="linr"  time="0/1" value="0" leadInLength="0/1"  />
             </VectorParam>
             <VectorParam id="573"  name="geometryCrop">
              <InterpolatingParam id="574" interp="linr"  time="-9999999/1" value="0" leadInLength="0/1"  />
              <InterpolatingParam id="575" interp="linr"  time="-9999999/1" value="0" leadInLength="0/1"  />
              <InterpolatingParam id="576" interp="linr"  time="-9999999/1" value="0" leadInLength="0/1"  />
              <InterpolatingParam id="577" interp="linr"  time="-9999999/1" value="0" leadInLength="0/1"  />
             </VectorParam>
             <InterpolatingParam id="578" interp="linr"  time="-9999999/1" value="1" leadInLength="0/1"  name="opacity"/>
             <InterpolatingParam id="579" interp="linr"  time="0/1" value="0" leadInLength="0/1"  name="cursorOpacity"/>
             <InterpolatingParam id="580" interp="linr"  time="0/1" value="0" leadInLength="0/1"  name="cursorScale"/>
            </Parameters>
            <Attributes>
             <Attribute id="581" value="" name="ident"/>
            </Attributes>
            <MetaData>
             <entry key="AutoAppliedSmartFocus" val="False"/>
             <entry key="WinSubProjectDisplayName" val=""/>
            </MetaData>
            <ExtraData>
             <Entry key="ZoomPanBin">
              <ZoomPanBin id="582"  >
               <ZoomPanKeyframes>
                <ZoomPanKeyframe id="583" timeRangeEnd="-9999999/1" timeRangeDuration="0/1" interpolaterName="linr"  />
               </ZoomPanKeyframes>
              </ZoomPanBin>
             </Entry>
             <Entry key="CursorEffectBin">
              <CursorEffectBin id="584"  >
               <CursorEffectKeyframes>
               </CursorEffectKeyframes>
              </CursorEffectBin>
             </Entry>
            </ExtraData>
           </ScreenVMFile>
           <ScreenIMFile id="585" start="116" duration="108030" scalar="1/1" mediaStart="115/1" mediaDuration="1/1" trackNumber="0" src="4" trimStartSum="0/1" >
            <Transformer>
             <VectorParam id="586"  name="translation">
              <InterpolatingParam id="587" interp="linr"  time="-9999999/1" value="0" leadInLength="0/1"  />
              <InterpolatingParam id="588" interp="linr"  time="-9999999/1" value="0" leadInLength="0/1"  />
              <InterpolatingParam id="589" interp="linr"  time="-9999999/1" value="0" leadInLength="0/1"  />
             </VectorParam>
             <VectorParam id="590"  name="rotation">
              <InterpolatingParam id="591" interp="linr"  time="-9999999/1" value="0" leadInLength="0/1"  />
              <InterpolatingParam id="592" interp="linr"  time="-9999999/1" value="0" leadInLength="0/1"  />
              <InterpolatingParam id="593" interp="linr"  time="-9999999/1" value="0" leadInLength="0/1"  />
             </VectorParam>
             <VectorParam id="594"  name="shear">
              <InterpolatingParam id="595" interp="linr"  time="-9999999/1" value="0" leadInLength="0/1"  />
              <InterpolatingParam id="596" interp="linr"  time="-9999999/1" value="0" leadInLength="0/1"  />
              <InterpolatingParam id="597" interp="linr"  time="-9999999/1" value="0" leadInLength="0/1"  />
             </VectorParam>
             <VectorParam id="598"  name="scale">
              <InterpolatingParam id="599" interp="linr"  time="-9999999/1" value="1" leadInLength="0/1"  />
              <InterpolatingParam id="600" interp="linr"  time="-9999999/1" value="1" leadInLength="0/1"  />
              <InterpolatingParam id="601" interp="linr"  time="-9999999/1" value="1" leadInLength="0/1"  />
             </VectorParam>
             <VectorParam id="602"  name="anchor">
              <InterpolatingParam id="603" interp="linr"  time="0/1" value="0" leadInLength="0/1"  />
              <InterpolatingParam id="604" interp="linr"  time="0/1" value="0" leadInLength="0/1"  />
              <InterpolatingParam id="605" interp="linr"  time="0/1" value="0" leadInLength="0/1"  />
             </VectorParam>
            </Transformer>
            <Parameters>
             <VectorParam id="606"  name="sourceCrop">
              <InterpolatingParam id="607" interp="linr"  time="0/1" value="0" leadInLength="0/1"  />
              <InterpolatingParam id="608" interp="linr"  time="0/1" value="0" leadInLength="0/1"  />
              <InterpolatingParam id="609" interp="linr"  time="0/1" value="0" leadInLength="0/1"  />
              <InterpolatingParam id="610" interp="linr"  time="0/1" value="0" leadInLength="0/1"  />
             </VectorParam>
             <VectorParam id="611"  name="geometryCrop">
              <InterpolatingParam id="612" interp="linr"  time="-9999999/1" value="0" leadInLength="0/1"  />
              <InterpolatingParam id="613" interp="linr"  time="-9999999/1" value="0" leadInLength="0/1"  />
              <InterpolatingParam id="614" interp="linr"  time="-9999999/1" value="0" leadInLength="0/1"  />
              <InterpolatingParam id="615" interp="linr"  time="-9999999/1" value="0" leadInLength="0/1"  />
             </VectorParam>
             <InterpolatingParam id="616" interp="linr"  time="-9999999/1" value="1" leadInLength="0/1"  name="opacity"/>
             <InterpolatingParam id="617" interp="linr"  time="0/1" value="0" leadInLength="0/1"  name="cursorOpacity"/>
             <InterpolatingParam id="618" interp="linr"  time="0/1" value="1" leadInLength="0/1"  name="recordedCursorOpacity"/>
             <InterpolatingParam id="619" interp="linr"  time="0/1" value="0" leadInLength="0/1"  name="cursorScale"/>
            </Parameters>
            <Attributes>
             <Attribute id="620" value="" name="ident"/>
            </Attributes>
            <MetaData>
             <entry key="AutoAppliedSmartFocus" val="False"/>
             <entry key="WinSubProjectDisplayName" val=""/>
            </MetaData>
            <ExtraData>
             <Entry key="ZoomPanBin">
              <ZoomPanBin id="621"  >
               <ZoomPanKeyframes>
                <ZoomPanKeyframe id="622" timeRangeEnd="-9999999/1" timeRangeDuration="0/1" interpolaterName="linr"  />
               </ZoomPanKeyframes>
              </ZoomPanBin>
             </Entry>
             <Entry key="CursorEffectBin">
              <CursorEffectBin id="623"  >
               <CursorEffectKeyframes>
               </CursorEffectKeyframes>
              </CursorEffectBin>
             </Entry>
            </ExtraData>
           </ScreenIMFile>
          </Medias>
         </GenericTrack>
        </StitchedMedia>
        <ScreenVMFile id="624" start="1427" duration="902" scalar="1/1" mediaStart="116/1" mediaDuration="902/1" trackNumber="0" src="4" >
         <Transformer>
          <VectorParam id="625"  name="translation">
           <InterpolatingParam id="626" interp="linr"  time="-9999999/1" value="0" leadInLength="0/1"  />
           <InterpolatingParam id="627" interp="linr"  time="-9999999/1" value="0" leadInLength="0/1"  />
           <InterpolatingParam id="628" interp="linr"  time="-9999999/1" value="0" leadInLength="0/1"  />
          </VectorParam>
          <VectorParam id="629"  name="rotation">
           <InterpolatingParam id="630" interp="linr"  time="-9999999/1" value="0" leadInLength="0/1"  />
           <InterpolatingParam id="631" interp="linr"  time="-9999999/1" value="0" leadInLength="0/1"  />
           <InterpolatingParam id="632" interp="linr"  time="-9999999/1" value="0" leadInLength="0/1"  />
          </VectorParam>
          <VectorParam id="633"  name="shear">
           <InterpolatingParam id="634" interp="linr"  time="-9999999/1" value="0" leadInLength="0/1"  />
           <InterpolatingParam id="635" interp="linr"  time="-9999999/1" value="0" leadInLength="0/1"  />
           <InterpolatingParam id="636" interp="linr"  time="-9999999/1" value="0" leadInLength="0/1"  />
          </VectorParam>
          <VectorParam id="637"  name="scale">
           <InterpolatingParam id="638" interp="linr"  time="-9999999/1" value="1" leadInLength="0/1"  />
           <InterpolatingParam id="639" interp="linr"  time="-9999999/1" value="1" leadInLength="0/1"  />
           <InterpolatingParam id="640" interp="linr"  time="-9999999/1" value="1" leadInLength="0/1"  />
          </VectorParam>
          <VectorParam id="641"  name="anchor">
           <InterpolatingParam id="642" interp="linr"  time="0/1" value="0" leadInLength="0/1"  />
           <InterpolatingParam id="643" interp="linr"  time="0/1" value="0" leadInLength="0/1"  />
           <InterpolatingParam id="644" interp="linr"  time="0/1" value="0" leadInLength="0/1"  />
          </VectorParam>
         </Transformer>
         <Parameters>
          <VectorParam id="645"  name="sourceCrop">
           <InterpolatingParam id="646" interp="linr"  time="0/1" value="0" leadInLength="0/1"  />
           <InterpolatingParam id="647" interp="linr"  time="0/1" value="0" leadInLength="0/1"  />
           <InterpolatingParam id="648" interp="linr"  time="0/1" value="0" leadInLength="0/1"  />
           <InterpolatingParam id="649" interp="linr"  time="0/1" value="0" leadInLength="0/1"  />
          </VectorParam>
          <VectorParam id="650"  name="geometryCrop">
           <InterpolatingParam id="651" interp="linr"  time="-9999999/1" value="0" leadInLength="0/1"  />
           <InterpolatingParam id="652" interp="linr"  time="-9999999/1" value="0" leadInLength="0/1"  />
           <InterpolatingParam id="653" interp="linr"  time="-9999999/1" value="0" leadInLength="0/1"  />
           <InterpolatingParam id="654" interp="linr"  time="-9999999/1" value="0" leadInLength="0/1"  />
          </VectorParam>
          <InterpolatingParam id="655" interp="linr"  time="-9999999/1" value="1" leadInLength="0/1"  name="opacity"/>
          <InterpolatingParam id="656" interp="linr"  time="0/1" value="1" leadInLength="0/1"  name="cursorOpacity"/>
          <InterpolatingParam id="657" interp="linr"  time="0/1" value="1" leadInLength="0/1"  name="cursorScale"/>
         </Parameters>
         <Effects>
          <GenericEffect id="658" name = "CursorBaseEffectName" >
           <Parameters>
           <InterpolatingParam id="659" interp="linr"  time="-9999999/1" value="1" leadInLength="0/1"   name="cursorSize"/>
           <InterpolatingParam id="660" interp="linr"  time="-9999999/1" value="0" leadInLength="0/1"   name="highlightBlurRadius"/>
           <InterpolatingParam id="661" interp="linr"  time="-9999999/1" value="0" leadInLength="0/1"   name="highlightColorBlue"/>
           <InterpolatingParam id="662" interp="linr"  time="-9999999/1" value="255" leadInLength="0/1"   name="highlightColorGreen"/>
           <InterpolatingParam id="663" interp="linr"  time="-9999999/1" value="255" leadInLength="0/1"   name="highlightColorRed"/>
           <InterpolatingParam id="664" interp="linr"  time="-9999999/1" value="5" leadInLength="0/1"   name="highlightFeatherSize"/>
           <InterpolatingParam id="665" interp="linr"  time="-9999999/1" value="2" leadInLength="0/1"   name="highlightMagnification"/>
           <InterpolatingParam id="666" interp="linr"  time="-9999999/1" value="1" leadInLength="0/1"   name="highlightOpacity"/>
           <InterpolatingParam id="667" interp="linr"  time="-9999999/1" value="45" leadInLength="0/1"   name="highlightSize"/>
           <Parameter id="668"   name="highlightType">
            <Keyframes>
            <Keyframe id="669"  time="-9999999/1" value="0" leadInLength="0/1"  />
            </Keyframes>
           </Parameter>
           <InterpolatingParam id="670" interp="linr"  time="-9999999/1" value="0" leadInLength="0/1"   name="leftClickColorBlue"/>
           <InterpolatingParam id="671" interp="linr"  time="-9999999/1" value="0" leadInLength="0/1"   name="leftClickColorGreen"/>
           <InterpolatingParam id="672" interp="linr"  time="-9999999/1" value="255" leadInLength="0/1"   name="leftClickColorRed"/>
           <InterpolatingParam id="673" interp="linr"  time="-9999999/1" value="0.80000000000000004" leadInLength="0/1"   name="leftClickDuration"/>
           <InterpolatingParam id="674" interp="linr"  time="-9999999/1" value="20" leadInLength="0/1"   name="leftClickSize"/>
           <Parameter id="675"   name="leftClickSoundFilename">
            <Keyframes>
            <Keyframe id="676"  time="-9999999/1" value="" leadInLength="0/1"  />
            </Keyframes>
           </Parameter>
           <InterpolatingParam id="677" interp="linr"  time="-9999999/1" value="1" leadInLength="0/1"   name="leftClickSoundVolume"/>
           <Parameter id="678"   name="leftClickType">
            <Keyframes>
            <Keyframe id="679"  time="-9999999/1" value="0" leadInLength="0/1"  />
            </Keyframes>
           </Parameter>
           <InterpolatingParam id="680" interp="linr"  time="-9999999/1" value="1" leadInLength="0/1"   name="opacity"/>
           <InterpolatingParam id="681" interp="linr"  time="-9999999/1" value="255" leadInLength="0/1"   name="rightClickColorBlue"/>
           <InterpolatingParam id="682" interp="linr"  time="-9999999/1" value="0" leadInLength="0/1"   name="rightClickColorGreen"/>
           <InterpolatingParam id="683" interp="linr"  time="-9999999/1" value="0" leadInLength="0/1"   name="rightClickColorRed"/>
           <InterpolatingParam id="684" interp="linr"  time="-9999999/1" value="0.80000000000000004" leadInLength="0/1"   name="rightClickDuration"/>
           <InterpolatingParam id="685" interp="linr"  time="-9999999/1" value="20" leadInLength="0/1"   name="rightClickSize"/>
           <Parameter id="686"   name="rightClickSoundFilename">
            <Keyframes>
            <Keyframe id="687"  time="-9999999/1" value="" leadInLength="0/1"  />
            </Keyframes>
           </Parameter>
           <InterpolatingParam id="688" interp="linr"  time="-9999999/1" value="1" leadInLength="0/1"   name="rightClickSoundVolume"/>
           <Parameter id="689"   name="rightClickType">
            <Keyframes>
            <Keyframe id="690"  time="-9999999/1" value="0" leadInLength="0/1"  />
            </Keyframes>
           </Parameter>
           </Parameters>
          </GenericEffect>
         </Effects>
         <Attributes>
          <Attribute id="691" value="" name="ident"/>
         </Attributes>
         <MetaData>
          <entry key="AutoAppliedSmartFocus" val="False"/>
          <entry key="WinSubProjectDisplayName" val=""/>
         </MetaData>
         <ExtraData>
          <Entry key="ZoomPanBin">
           <ZoomPanBin id="692"  >
            <ZoomPanKeyframes>
             <ZoomPanKeyframe id="693" timeRangeEnd="-9999999/1" timeRangeDuration="0/1" interpolaterName="linr"  />
            </ZoomPanKeyframes>
           </ZoomPanBin>
          </Entry>
          <Entry key="CursorEffectBin">
           <CursorEffectBin id="694"  >
            <CursorEffectKeyframes>
             <CursorEffectKeyframe id="695" timeRangeEnd="-9999999/1" timeRangeDuration="0/1" interpolaterName=""  />
            </CursorEffectKeyframes>
           </CursorEffectBin>
          </Entry>
         </ExtraData>
        </ScreenVMFile>
        <ScreenVMFile id="696" start="2329" duration="650" scalar="650/1139" mediaStart="1018/1" mediaDuration="1139/1" trackNumber="0" src="4" >
         <Transformer>
          <VectorParam id="697"  name="translation">
           <InterpolatingParam id="698" interp="linr"  time="-9999999/1" value="0" leadInLength="0/1"  />
           <InterpolatingParam id="699" interp="linr"  time="-9999999/1" value="0" leadInLength="0/1"  />
           <InterpolatingParam id="700" interp="linr"  time="-9999999/1" value="0" leadInLength="0/1"  />
          </VectorParam>
          <VectorParam id="701"  name="rotation">
           <InterpolatingParam id="702" interp="linr"  time="-9999999/1" value="0" leadInLength="0/1"  />
           <InterpolatingParam id="703" interp="linr"  time="-9999999/1" value="0" leadInLength="0/1"  />
           <InterpolatingParam id="704" interp="linr"  time="-9999999/1" value="0" leadInLength="0/1"  />
          </VectorParam>
          <VectorParam id="705"  name="shear">
           <InterpolatingParam id="706" interp="linr"  time="-9999999/1" value="0" leadInLength="0/1"  />
           <InterpolatingParam id="707" interp="linr"  time="-9999999/1" value="0" leadInLength="0/1"  />
           <InterpolatingParam id="708" interp="linr"  time="-9999999/1" value="0" leadInLength="0/1"  />
          </VectorParam>
          <VectorParam id="709"  name="scale">
           <InterpolatingParam id="710" interp="linr"  time="-9999999/1" value="1" leadInLength="0/1"  />
           <InterpolatingParam id="711" interp="linr"  time="-9999999/1" value="1" leadInLength="0/1"  />
           <InterpolatingParam id="712" interp="linr"  time="-9999999/1" value="1" leadInLength="0/1"  />
          </VectorParam>
          <VectorParam id="713"  name="anchor">
           <InterpolatingParam id="714" interp="linr"  time="0/1" value="0" leadInLength="0/1"  />
           <InterpolatingParam id="715" interp="linr"  time="0/1" value="0" leadInLength="0/1"  />
           <InterpolatingParam id="716" interp="linr"  time="0/1" value="0" leadInLength="0/1"  />
          </VectorParam>
         </Transformer>
         <Parameters>
          <VectorParam id="717"  name="sourceCrop">
           <InterpolatingParam id="718" interp="linr"  time="0/1" value="0" leadInLength="0/1"  />
           <InterpolatingParam id="719" interp="linr"  time="0/1" value="0" leadInLength="0/1"  />
           <InterpolatingParam id="720" interp="linr"  time="0/1" value="0" leadInLength="0/1"  />
           <InterpolatingParam id="721" interp="linr"  time="0/1" value="0" leadInLength="0/1"  />
          </VectorParam>
          <VectorParam id="722"  name="geometryCrop">
           <InterpolatingParam id="723" interp="linr"  time="-9999999/1" value="0" leadInLength="0/1"  />
           <InterpolatingParam id="724" interp="linr"  time="-9999999/1" value="0" leadInLength="0/1"  />
           <InterpolatingParam id="725" interp="linr"  time="-9999999/1" value="0" leadInLength="0/1"  />
           <InterpolatingParam id="726" interp="linr"  time="-9999999/1" value="0" leadInLength="0/1"  />
          </VectorParam>
          <InterpolatingParam id="727" interp="linr"  time="-9999999/1" value="1" leadInLength="0/1"  name="opacity"/>
          <InterpolatingParam id="728" interp="linr"  time="0/1" value="1" leadInLength="0/1"  name="cursorOpacity"/>
          <InterpolatingParam id="729" interp="linr"  time="0/1" value="1" leadInLength="0/1"  name="cursorScale"/>
         </Parameters>
         <Effects>
          <GenericEffect id="730" name = "CursorBaseEffectName" >
           <Parameters>
           <InterpolatingParam id="731" interp="linr"  time="-9999999/1" value="1" leadInLength="0/1"   name="cursorSize"/>
           <InterpolatingParam id="732" interp="linr"  time="-9999999/1" value="0" leadInLength="0/1"   name="highlightBlurRadius"/>
           <InterpolatingParam id="733" interp="linr"  time="-9999999/1" value="0" leadInLength="0/1"   name="highlightColorBlue"/>
           <InterpolatingParam id="734" interp="linr"  time="-9999999/1" value="255" leadInLength="0/1"   name="highlightColorGreen"/>
           <InterpolatingParam id="735" interp="linr"  time="-9999999/1" value="255" leadInLength="0/1"   name="highlightColorRed"/>
           <InterpolatingParam id="736" interp="linr"  time="-9999999/1" value="5" leadInLength="0/1"   name="highlightFeatherSize"/>
           <InterpolatingParam id="737" interp="linr"  time="-9999999/1" value="2" leadInLength="0/1"   name="highlightMagnification"/>
           <InterpolatingParam id="738" interp="linr"  time="-9999999/1" value="1" leadInLength="0/1"   name="highlightOpacity"/>
           <InterpolatingParam id="739" interp="linr"  time="-9999999/1" value="45" leadInLength="0/1"   name="highlightSize"/>
           <Parameter id="740"   name="highlightType">
            <Keyframes>
            <Keyframe id="741"  time="-9999999/1" value="0" leadInLength="0/1"  />
            </Keyframes>
           </Parameter>
           <InterpolatingParam id="742" interp="linr"  time="-9999999/1" value="0" leadInLength="0/1"   name="leftClickColorBlue"/>
           <InterpolatingParam id="743" interp="linr"  time="-9999999/1" value="0" leadInLength="0/1"   name="leftClickColorGreen"/>
           <InterpolatingParam id="744" interp="linr"  time="-9999999/1" value="255" leadInLength="0/1"   name="leftClickColorRed"/>
           <InterpolatingParam id="745" interp="linr"  time="-9999999/1" value="0.80000000000000004" leadInLength="0/1"   name="leftClickDuration"/>
           <InterpolatingParam id="746" interp="linr"  time="-9999999/1" value="20" leadInLength="0/1"   name="leftClickSize"/>
           <Parameter id="747"   name="leftClickSoundFilename">
            <Keyframes>
            <Keyframe id="748"  time="-9999999/1" value="" leadInLength="0/1"  />
            </Keyframes>
           </Parameter>
           <InterpolatingParam id="749" interp="linr"  time="-9999999/1" value="1" leadInLength="0/1"   name="leftClickSoundVolume"/>
           <Parameter id="750"   name="leftClickType">
            <Keyframes>
            <Keyframe id="751"  time="-9999999/1" value="0" leadInLength="0/1"  />
            </Keyframes>
           </Parameter>
           <InterpolatingParam id="752" interp="linr"  time="-9999999/1" value="1" leadInLength="0/1"   name="opacity"/>
           <InterpolatingParam id="753" interp="linr"  time="-9999999/1" value="255" leadInLength="0/1"   name="rightClickColorBlue"/>
           <InterpolatingParam id="754" interp="linr"  time="-9999999/1" value="0" leadInLength="0/1"   name="rightClickColorGreen"/>
           <InterpolatingParam id="755" interp="linr"  time="-9999999/1" value="0" leadInLength="0/1"   name="rightClickColorRed"/>
           <InterpolatingParam id="756" interp="linr"  time="-9999999/1" value="0.80000000000000004" leadInLength="0/1"   name="rightClickDuration"/>
           <InterpolatingParam id="757" interp="linr"  time="-9999999/1" value="20" leadInLength="0/1"   name="rightClickSize"/>
           <Parameter id="758"   name="rightClickSoundFilename">
            <Keyframes>
            <Keyframe id="759"  time="-9999999/1" value="" leadInLength="0/1"  />
            </Keyframes>
           </Parameter>
           <InterpolatingParam id="760" interp="linr"  time="-9999999/1" value="1" leadInLength="0/1"   name="rightClickSoundVolume"/>
           <Parameter id="761"   name="rightClickType">
            <Keyframes>
            <Keyframe id="762"  time="-9999999/1" value="0" leadInLength="0/1"  />
            </Keyframes>
           </Parameter>
           </Parameters>
          </GenericEffect>
         </Effects>
         <Attributes>
          <Attribute id="763" value="" name="ident"/>
         </Attributes>
         <MetaData>
          <entry key="AutoAppliedSmartFocus" val="False"/>
          <entry key="WinSubProjectDisplayName" val=""/>
         </MetaData>
         <ExtraData>
          <Entry key="ZoomPanBin">
           <ZoomPanBin id="764"  >
            <ZoomPanKeyframes>
             <ZoomPanKeyframe id="765" timeRangeEnd="-9999999/1" timeRangeDuration="0/1" interpolaterName="linr"  />
            </ZoomPanKeyframes>
           </ZoomPanBin>
          </Entry>
          <Entry key="CursorEffectBin">
           <CursorEffectBin id="766"  >
            <CursorEffectKeyframes>
             <CursorEffectKeyframe id="767" timeRangeEnd="-9999999/1" timeRangeDuration="0/1" interpolaterName=""  />
            </CursorEffectKeyframes>
           </CursorEffectBin>
          </Entry>
         </ExtraData>
        </ScreenVMFile>
        <StitchedMedia id="768" start="2979" duration="786" scalar="1/1" mediaStart="0/1" mediaDuration="786/1" minMediaStart="0/1" >
         <Transformer>
          <VectorParam id="769"  name="translation">
           <InterpolatingParam id="770" interp="linr"  time="-9999999/1" value="0" leadInLength="0/1"  />
           <InterpolatingParam id="771" interp="linr"  time="-9999999/1" value="0" leadInLength="0/1"  />
           <InterpolatingParam id="772" interp="linr"  time="-9999999/1" value="0" leadInLength="0/1"  />
          </VectorParam>
          <VectorParam id="773"  name="rotation">
           <InterpolatingParam id="774" interp="linr"  time="-9999999/1" value="0" leadInLength="0/1"  />
           <InterpolatingParam id="775" interp="linr"  time="-9999999/1" value="0" leadInLength="0/1"  />
           <InterpolatingParam id="776" interp="linr"  time="-9999999/1" value="0" leadInLength="0/1"  />
          </VectorParam>
          <VectorParam id="777"  name="shear">
           <InterpolatingParam id="778" interp="linr"  time="-9999999/1" value="0" leadInLength="0/1"  />
           <InterpolatingParam id="779" interp="linr"  time="-9999999/1" value="0" leadInLength="0/1"  />
           <InterpolatingParam id="780" interp="linr"  time="-9999999/1" value="0" leadInLength="0/1"  />
          </VectorParam>
          <VectorParam id="781"  name="scale">
           <InterpolatingParam id="782" interp="linr"  time="-9999999/1" value="1" leadInLength="0/1"  />
           <InterpolatingParam id="783" interp="linr"  time="-9999999/1" value="1" leadInLength="0/1"  />
           <InterpolatingParam id="784" interp="linr"  time="-9999999/1" value="1" leadInLength="0/1"  />
          </VectorParam>
          <VectorParam id="785"  name="anchor">
           <InterpolatingParam id="786" interp="linr"  >
            <Keyframes>
            <Keyframe id="787"  time="0/1" value="0" leadInLength="0/1"  />
            <Keyframe id="788"  time="81/1" value="0" leadInLength="0/1"  />
            </Keyframes>
           </InterpolatingParam>
           <InterpolatingParam id="789" interp="linr"  >
            <Keyframes>
            <Keyframe id="790"  time="0/1" value="0" leadInLength="0/1"  />
            <Keyframe id="791"  time="81/1" value="0" leadInLength="0/1"  />
            </Keyframes>
           </InterpolatingParam>
           <InterpolatingParam id="792" interp="linr"  >
            <Keyframes>
            <Keyframe id="793"  time="0/1" value="0" leadInLength="0/1"  />
            <Keyframe id="794"  time="81/1" value="0" leadInLength="0/1"  />
            </Keyframes>
           </InterpolatingParam>
          </VectorParam>
         </Transformer>
         <Parameters>
          <VectorParam id="795"  name="sourceCrop">
           <InterpolatingParam id="796" interp="linr"  >
            <Keyframes>
            <Keyframe id="797"  time="0/1" value="0" leadInLength="0/1"  />
            <Keyframe id="798"  time="81/1" value="0" leadInLength="0/1"  />
            </Keyframes>
           </InterpolatingParam>
           <InterpolatingParam id="799" interp="linr"  >
            <Keyframes>
            <Keyframe id="800"  time="0/1" value="0" leadInLength="0/1"  />
            <Keyframe id="801"  time="81/1" value="0" leadInLength="0/1"  />
            </Keyframes>
           </InterpolatingParam>
           <InterpolatingParam id="802" interp="linr"  >
            <Keyframes>
            <Keyframe id="803"  time="0/1" value="0" leadInLength="0/1"  />
            <Keyframe id="804"  time="81/1" value="0" leadInLength="0/1"  />
            </Keyframes>
           </InterpolatingParam>
           <InterpolatingParam id="805" interp="linr"  >
            <Keyframes>
            <Keyframe id="806"  time="0/1" value="0" leadInLength="0/1"  />
            <Keyframe id="807"  time="81/1" value="0" leadInLength="0/1"  />
            </Keyframes>
           </InterpolatingParam>
          </VectorParam>
          <VectorParam id="808"  name="geometryCrop">
           <InterpolatingParam id="809" interp="linr"  time="-9999999/1" value="0" leadInLength="0/1"  />
           <InterpolatingParam id="810" interp="linr"  time="-9999999/1" value="0" leadInLength="0/1"  />
           <InterpolatingParam id="811" interp="linr"  time="-9999999/1" value="0" leadInLength="0/1"  />
           <InterpolatingParam id="812" interp="linr"  time="-9999999/1" value="0" leadInLength="0/1"  />
          </VectorParam>
          <InterpolatingParam id="813" interp="linr"  time="-9999999/1" value="1" leadInLength="0/1"  name="opacity"/>
          <InterpolatingParam id="814" interp="linr"  time="0/1" value="1" leadInLength="0/1"  name="cursorOpacity"/>
          <InterpolatingParam id="815" interp="linr"  time="0/1" value="1" leadInLength="0/1"  name="cursorScale"/>
          <Parameter id="816"  name="captions"/>
         </Parameters>
         <Effects>
          <GenericEffect id="817" name = "CursorBaseEffectName" >
           <Parameters>
           <InterpolatingParam id="818" interp="linr"  time="-9999999/1" value="1" leadInLength="0/1"   name="cursorSize"/>
           <InterpolatingParam id="819" interp="linr"  time="-9999999/1" value="0" leadInLength="0/1"   name="highlightBlurRadius"/>
           <InterpolatingParam id="820" interp="linr"  time="-9999999/1" value="0" leadInLength="0/1"   name="highlightColorBlue"/>
           <InterpolatingParam id="821" interp="linr"  time="-9999999/1" value="255" leadInLength="0/1"   name="highlightColorGreen"/>
           <InterpolatingParam id="822" interp="linr"  time="-9999999/1" value="255" leadInLength="0/1"   name="highlightColorRed"/>
           <InterpolatingParam id="823" interp="linr"  time="-9999999/1" value="5" leadInLength="0/1"   name="highlightFeatherSize"/>
           <InterpolatingParam id="824" interp="linr"  time="-9999999/1" value="2" leadInLength="0/1"   name="highlightMagnification"/>
           <InterpolatingParam id="825" interp="linr"  time="-9999999/1" value="1" leadInLength="0/1"   name="highlightOpacity"/>
           <InterpolatingParam id="826" interp="linr"  time="-9999999/1" value="45" leadInLength="0/1"   name="highlightSize"/>
           <Parameter id="827"   name="highlightType">
            <Keyframes>
            <Keyframe id="828"  time="-9999999/1" value="0" leadInLength="0/1"  />
            </Keyframes>
           </Parameter>
           <InterpolatingParam id="829" interp="linr"  time="-9999999/1" value="0" leadInLength="0/1"   name="leftClickColorBlue"/>
           <InterpolatingParam id="830" interp="linr"  time="-9999999/1" value="0" leadInLength="0/1"   name="leftClickColorGreen"/>
           <InterpolatingParam id="831" interp="linr"  time="-9999999/1" value="255" leadInLength="0/1"   name="leftClickColorRed"/>
           <InterpolatingParam id="832" interp="linr"  time="-9999999/1" value="0.80000000000000004" leadInLength="0/1"   name="leftClickDuration"/>
           <InterpolatingParam id="833" interp="linr"  time="-9999999/1" value="20" leadInLength="0/1"   name="leftClickSize"/>
           <Parameter id="834"   name="leftClickSoundFilename">
            <Keyframes>
            <Keyframe id="835"  time="-9999999/1" value="" leadInLength="0/1"  />
            </Keyframes>
           </Parameter>
           <InterpolatingParam id="836" interp="linr"  time="-9999999/1" value="1" leadInLength="0/1"   name="leftClickSoundVolume"/>
           <Parameter id="837"   name="leftClickType">
            <Keyframes>
            <Keyframe id="838"  time="-9999999/1" value="0" leadInLength="0/1"  />
            </Keyframes>
           </Parameter>
           <InterpolatingParam id="839" interp="linr"  time="-9999999/1" value="1" leadInLength="0/1"   name="opacity"/>
           <InterpolatingParam id="840" interp="linr"  time="-9999999/1" value="255" leadInLength="0/1"   name="rightClickColorBlue"/>
           <InterpolatingParam id="841" interp="linr"  time="-9999999/1" value="0" leadInLength="0/1"   name="rightClickColorGreen"/>
           <InterpolatingParam id="842" interp="linr"  time="-9999999/1" value="0" leadInLength="0/1"   name="rightClickColorRed"/>
           <InterpolatingParam id="843" interp="linr"  time="-9999999/1" value="0.80000000000000004" leadInLength="0/1"   name="rightClickDuration"/>
           <InterpolatingParam id="844" interp="linr"  time="-9999999/1" value="20" leadInLength="0/1"   name="rightClickSize"/>
           <Parameter id="845"   name="rightClickSoundFilename">
            <Keyframes>
            <Keyframe id="846"  time="-9999999/1" value="" leadInLength="0/1"  />
            </Keyframes>
           </Parameter>
           <InterpolatingParam id="847" interp="linr"  time="-9999999/1" value="1" leadInLength="0/1"   name="rightClickSoundVolume"/>
           <Parameter id="848"   name="rightClickType">
            <Keyframes>
            <Keyframe id="849"  time="-9999999/1" value="0" leadInLength="0/1"  />
            </Keyframes>
           </Parameter>
           </Parameters>
          </GenericEffect>
         </Effects>
         <Attributes>
          <Attribute id="850" value="" name="ident"/>
         </Attributes>
         <MetaData>
          <entry key="AutoAppliedSmartFocus" val="False"/>
          <entry key="WinSubProjectDisplayName" val=""/>
         </MetaData>
         <ExtraData>
          <Entry key="ZoomPanBin">
           <ZoomPanBin id="851"  >
            <ZoomPanKeyframes>
             <ZoomPanKeyframe id="852" timeRangeEnd="-9999999/1" timeRangeDuration="0/1" interpolaterName="linr"  />
            </ZoomPanKeyframes>
           </ZoomPanBin>
          </Entry>
          <Entry key="CursorEffectBin">
           <CursorEffectBin id="853"  >
            <CursorEffectKeyframes>
             <CursorEffectKeyframe id="854" timeRangeEnd="-9999999/1" timeRangeDuration="0/1" interpolaterName=""  />
            </CursorEffectKeyframes>
           </CursorEffectBin>
          </Entry>
         </ExtraData>
         <GenericTrack id="855"  >
          <Attributes>
           <Attribute id="856" value="" name="ident"/>
           <Attribute id="857" value="0" name="audioMuted"/>
           <Attribute id="858" value="0" name="videoHidden"/>
          </Attributes>
          <MetaData>
           <entry key="IsLocked" val="False"/>
           <entry key="WinTrackHeight" val="0"/>
          </MetaData>
          <Medias>
           <ScreenVMFile id="859" start="0" duration="81" scalar="1/1" mediaStart="0/1" mediaDuration="81/1" trackNumber="0" src="7" >
            <Transformer>
             <VectorParam id="860"  name="translation">
              <InterpolatingParam id="861" interp="linr"  time="-9999999/1" value="0" leadInLength="0/1"  />
              <InterpolatingParam id="862" interp="linr"  time="-9999999/1" value="0" leadInLength="0/1"  />
              <InterpolatingParam id="863" interp="linr"  time="-9999999/1" value="0" leadInLength="0/1"  />
             </VectorParam>
             <VectorParam id="864"  name="rotation">
              <InterpolatingParam id="865" interp="linr"  time="-9999999/1" value="0" leadInLength="0/1"  />
              <InterpolatingParam id="866" interp="linr"  time="-9999999/1" value="0" leadInLength="0/1"  />
              <InterpolatingParam id="867" interp="linr"  time="-9999999/1" value="0" leadInLength="0/1"  />
             </VectorParam>
             <VectorParam id="868"  name="shear">
              <InterpolatingParam id="869" interp="linr"  time="-9999999/1" value="0" leadInLength="0/1"  />
              <InterpolatingParam id="870" interp="linr"  time="-9999999/1" value="0" leadInLength="0/1"  />
              <InterpolatingParam id="871" interp="linr"  time="-9999999/1" value="0" leadInLength="0/1"  />
             </VectorParam>
             <VectorParam id="872"  name="scale">
              <InterpolatingParam id="873" interp="linr"  time="-9999999/1" value="1" leadInLength="0/1"  />
              <InterpolatingParam id="874" interp="linr"  time="-9999999/1" value="1" leadInLength="0/1"  />
              <InterpolatingParam id="875" interp="linr"  time="-9999999/1" value="1" leadInLength="0/1"  />
             </VectorParam>
             <VectorParam id="876"  name="anchor">
              <InterpolatingParam id="877" interp="linr"  time="0/1" value="0" leadInLength="0/1"  />
              <InterpolatingParam id="878" interp="linr"  time="0/1" value="0" leadInLength="0/1"  />
              <InterpolatingParam id="879" interp="linr"  time="0/1" value="0" leadInLength="0/1"  />
             </VectorParam>
            </Transformer>
            <Parameters>
             <VectorParam id="880"  name="sourceCrop">
              <InterpolatingParam id="881" interp="linr"  time="0/1" value="0" leadInLength="0/1"  />
              <InterpolatingParam id="882" interp="linr"  time="0/1" value="0" leadInLength="0/1"  />
              <InterpolatingParam id="883" interp="linr"  time="0/1" value="0" leadInLength="0/1"  />
              <InterpolatingParam id="884" interp="linr"  time="0/1" value="0" leadInLength="0/1"  />
             </VectorParam>
             <VectorParam id="885"  name="geometryCrop">
              <InterpolatingParam id="886" interp="linr"  time="-9999999/1" value="0" leadInLength="0/1"  />
              <InterpolatingParam id="887" interp="linr"  time="-9999999/1" value="0" leadInLength="0/1"  />
              <InterpolatingParam id="888" interp="linr"  time="-9999999/1" value="0" leadInLength="0/1"  />
              <InterpolatingParam id="889" interp="linr"  time="-9999999/1" value="0" leadInLength="0/1"  />
             </VectorParam>
             <InterpolatingParam id="890" interp="linr"  time="-9999999/1" value="1" leadInLength="0/1"  name="opacity"/>
             <InterpolatingParam id="891" interp="linr"  time="0/1" value="0" leadInLength="0/1"  name="cursorOpacity"/>
             <InterpolatingParam id="892" interp="linr"  time="0/1" value="0" leadInLength="0/1"  name="cursorScale"/>
            </Parameters>
            <Attributes>
             <Attribute id="893" value="" name="ident"/>
            </Attributes>
            <MetaData>
             <entry key="AutoAppliedSmartFocus" val="False"/>
             <entry key="WinSubProjectDisplayName" val=""/>
            </MetaData>
            <ExtraData>
             <Entry key="ZoomPanBin">
              <ZoomPanBin id="894"  >
               <ZoomPanKeyframes>
                <ZoomPanKeyframe id="895" timeRangeEnd="-9999999/1" timeRangeDuration="0/1" interpolaterName="linr"  />
               </ZoomPanKeyframes>
              </ZoomPanBin>
             </Entry>
             <Entry key="CursorEffectBin">
              <CursorEffectBin id="896"  >
               <CursorEffectKeyframes>
               </CursorEffectKeyframes>
              </CursorEffectBin>
             </Entry>
            </ExtraData>
           </ScreenVMFile>
           <ScreenIMFile id="897" start="81" duration="108030" scalar="1/1" mediaStart="80/1" mediaDuration="1/1" trackNumber="0" src="7" trimStartSum="0/1" >
            <Transformer>
             <VectorParam id="898"  name="translation">
              <InterpolatingParam id="899" interp="linr"  time="-9999999/1" value="0" leadInLength="0/1"  />
              <InterpolatingParam id="900" interp="linr"  time="-9999999/1" value="0" leadInLength="0/1"  />
              <InterpolatingParam id="901" interp="linr"  time="-9999999/1" value="0" leadInLength="0/1"  />
             </VectorParam>
             <VectorParam id="902"  name="rotation">
              <InterpolatingParam id="903" interp="linr"  time="-9999999/1" value="0" leadInLength="0/1"  />
              <InterpolatingParam id="904" interp="linr"  time="-9999999/1" value="0" leadInLength="0/1"  />
              <InterpolatingParam id="905" interp="linr"  time="-9999999/1" value="0" leadInLength="0/1"  />
             </VectorParam>
             <VectorParam id="906"  name="shear">
              <InterpolatingParam id="907" interp="linr"  time="-9999999/1" value="0" leadInLength="0/1"  />
              <InterpolatingParam id="908" interp="linr"  time="-9999999/1" value="0" leadInLength="0/1"  />
              <InterpolatingParam id="909" interp="linr"  time="-9999999/1" value="0" leadInLength="0/1"  />
             </VectorParam>
             <VectorParam id="910"  name="scale">
              <InterpolatingParam id="911" interp="linr"  time="-9999999/1" value="1" leadInLength="0/1"  />
              <InterpolatingParam id="912" interp="linr"  time="-9999999/1" value="1" leadInLength="0/1"  />
              <InterpolatingParam id="913" interp="linr"  time="-9999999/1" value="1" leadInLength="0/1"  />
             </VectorParam>
             <VectorParam id="914"  name="anchor">
              <InterpolatingParam id="915" interp="linr"  time="0/1" value="0" leadInLength="0/1"  />
              <InterpolatingParam id="916" interp="linr"  time="0/1" value="0" leadInLength="0/1"  />
              <InterpolatingParam id="917" interp="linr"  time="0/1" value="0" leadInLength="0/1"  />
             </VectorParam>
            </Transformer>
            <Parameters>
             <VectorParam id="918"  name="sourceCrop">
              <InterpolatingParam id="919" interp="linr"  time="0/1" value="0" leadInLength="0/1"  />
              <InterpolatingParam id="920" interp="linr"  time="0/1" value="0" leadInLength="0/1"  />
              <InterpolatingParam id="921" interp="linr"  time="0/1" value="0" leadInLength="0/1"  />
              <InterpolatingParam id="922" interp="linr"  time="0/1" value="0" leadInLength="0/1"  />
             </VectorParam>
             <VectorParam id="923"  name="geometryCrop">
              <InterpolatingParam id="924" interp="linr"  time="-9999999/1" value="0" leadInLength="0/1"  />
              <InterpolatingParam id="925" interp="linr"  time="-9999999/1" value="0" leadInLength="0/1"  />
              <InterpolatingParam id="926" interp="linr"  time="-9999999/1" value="0" leadInLength="0/1"  />
              <InterpolatingParam id="927" interp="linr"  time="-9999999/1" value="0" leadInLength="0/1"  />
             </VectorParam>
             <InterpolatingParam id="928" interp="linr"  time="-9999999/1" value="1" leadInLength="0/1"  name="opacity"/>
             <InterpolatingParam id="929" interp="linr"  time="0/1" value="0" leadInLength="0/1"  name="cursorOpacity"/>
             <InterpolatingParam id="930" interp="linr"  time="0/1" value="1" leadInLength="0/1"  name="recordedCursorOpacity"/>
             <InterpolatingParam id="931" interp="linr"  time="0/1" value="0" leadInLength="0/1"  name="cursorScale"/>
            </Parameters>
            <Attributes>
             <Attribute id="932" value="" name="ident"/>
            </Attributes>
            <MetaData>
             <entry key="AutoAppliedSmartFocus" val="False"/>
             <entry key="WinSubProjectDisplayName" val=""/>
            </MetaData>
            <ExtraData>
             <Entry key="ZoomPanBin">
              <ZoomPanBin id="933"  >
               <ZoomPanKeyframes>
                <ZoomPanKeyframe id="934" timeRangeEnd="-9999999/1" timeRangeDuration="0/1" interpolaterName="linr"  />
               </ZoomPanKeyframes>
              </ZoomPanBin>
             </Entry>
             <Entry key="CursorEffectBin">
              <CursorEffectBin id="935"  >
               <CursorEffectKeyframes>
               </CursorEffectKeyframes>
              </CursorEffectBin>
             </Entry>
            </ExtraData>
           </ScreenIMFile>
          </Medias>
         </GenericTrack>
        </StitchedMedia>
        <StitchedMedia id="936" start="3765" duration="1020" scalar="1/1" mediaStart="81/1" mediaDuration="1020/1" minMediaStart="0/1" >
         <Transformer>
          <VectorParam id="937"  name="translation">
           <InterpolatingParam id="938" interp="linr"  time="-9999999/1" value="0" leadInLength="0/1"  />
           <InterpolatingParam id="939" interp="linr"  time="-9999999/1" value="0" leadInLength="0/1"  />
           <InterpolatingParam id="940" interp="linr"  time="-9999999/1" value="0" leadInLength="0/1"  />
          </VectorParam>
          <VectorParam id="941"  name="rotation">
           <InterpolatingParam id="942" interp="linr"  time="-9999999/1" value="0" leadInLength="0/1"  />
           <InterpolatingParam id="943" interp="linr"  time="-9999999/1" value="0" leadInLength="0/1"  />
           <InterpolatingParam id="944" interp="linr"  time="-9999999/1" value="0" leadInLength="0/1"  />
          </VectorParam>
          <VectorParam id="945"  name="shear">
           <InterpolatingParam id="946" interp="linr"  time="-9999999/1" value="0" leadInLength="0/1"  />
           <InterpolatingParam id="947" interp="linr"  time="-9999999/1" value="0" leadInLength="0/1"  />
           <InterpolatingParam id="948" interp="linr"  time="-9999999/1" value="0" leadInLength="0/1"  />
          </VectorParam>
          <VectorParam id="949"  name="scale">
           <InterpolatingParam id="950" interp="linr"  time="-9999999/1" value="1" leadInLength="0/1"  />
           <InterpolatingParam id="951" interp="linr"  time="-9999999/1" value="1" leadInLength="0/1"  />
           <InterpolatingParam id="952" interp="linr"  time="-9999999/1" value="1" leadInLength="0/1"  />
          </VectorParam>
          <VectorParam id="953"  name="anchor">
           <InterpolatingParam id="954" interp="linr"  >
            <Keyframes>
            <Keyframe id="955"  time="0/1" value="0" leadInLength="0/1"  />
            <Keyframe id="956"  time="811/1" value="0" leadInLength="0/1"  />
            </Keyframes>
           </InterpolatingParam>
           <InterpolatingParam id="957" interp="linr"  >
            <Keyframes>
            <Keyframe id="958"  time="0/1" value="0" leadInLength="0/1"  />
            <Keyframe id="959"  time="811/1" value="0" leadInLength="0/1"  />
            </Keyframes>
           </InterpolatingParam>
           <InterpolatingParam id="960" interp="linr"  >
            <Keyframes>
            <Keyframe id="961"  time="0/1" value="0" leadInLength="0/1"  />
            <Keyframe id="962"  time="811/1" value="0" leadInLength="0/1"  />
            </Keyframes>
           </InterpolatingParam>
          </VectorParam>
         </Transformer>
         <Parameters>
          <VectorParam id="963"  name="sourceCrop">
           <InterpolatingParam id="964" interp="linr"  >
            <Keyframes>
            <Keyframe id="965"  time="0/1" value="0" leadInLength="0/1"  />
            <Keyframe id="966"  time="811/1" value="0" leadInLength="0/1"  />
            </Keyframes>
           </InterpolatingParam>
           <InterpolatingParam id="967" interp="linr"  >
            <Keyframes>
            <Keyframe id="968"  time="0/1" value="0" leadInLength="0/1"  />
            <Keyframe id="969"  time="811/1" value="0" leadInLength="0/1"  />
            </Keyframes>
           </InterpolatingParam>
           <InterpolatingParam id="970" interp="linr"  >
            <Keyframes>
            <Keyframe id="971"  time="0/1" value="0" leadInLength="0/1"  />
            <Keyframe id="972"  time="811/1" value="0" leadInLength="0/1"  />
            </Keyframes>
           </InterpolatingParam>
           <InterpolatingParam id="973" interp="linr"  >
            <Keyframes>
            <Keyframe id="974"  time="0/1" value="0" leadInLength="0/1"  />
            <Keyframe id="975"  time="811/1" value="0" leadInLength="0/1"  />
            </Keyframes>
           </InterpolatingParam>
          </VectorParam>
          <VectorParam id="976"  name="geometryCrop">
           <InterpolatingParam id="977" interp="linr"  time="-9999999/1" value="0" leadInLength="0/1"  />
           <InterpolatingParam id="978" interp="linr"  time="-9999999/1" value="0" leadInLength="0/1"  />
           <InterpolatingParam id="979" interp="linr"  time="-9999999/1" value="0" leadInLength="0/1"  />
           <InterpolatingParam id="980" interp="linr"  time="-9999999/1" value="0" leadInLength="0/1"  />
          </VectorParam>
          <InterpolatingParam id="981" interp="linr"  time="-9999999/1" value="1" leadInLength="0/1"  name="opacity"/>
          <InterpolatingParam id="982" interp="linr"  time="0/1" value="1" leadInLength="0/1"  name="cursorOpacity"/>
          <InterpolatingParam id="983" interp="linr"  time="0/1" value="1" leadInLength="0/1"  name="cursorScale"/>
          <Parameter id="984"  name="captions"/>
         </Parameters>
         <Effects>
          <GenericEffect id="985" name = "CursorBaseEffectName" >
           <Parameters>
           <InterpolatingParam id="986" interp="linr"  time="-9999999/1" value="1" leadInLength="0/1"   name="cursorSize"/>
           <InterpolatingParam id="987" interp="linr"  time="-9999999/1" value="0" leadInLength="0/1"   name="highlightBlurRadius"/>
           <InterpolatingParam id="988" interp="linr"  time="-9999999/1" value="0" leadInLength="0/1"   name="highlightColorBlue"/>
           <InterpolatingParam id="989" interp="linr"  time="-9999999/1" value="255" leadInLength="0/1"   name="highlightColorGreen"/>
           <InterpolatingParam id="990" interp="linr"  time="-9999999/1" value="255" leadInLength="0/1"   name="highlightColorRed"/>
           <InterpolatingParam id="991" interp="linr"  time="-9999999/1" value="5" leadInLength="0/1"   name="highlightFeatherSize"/>
           <InterpolatingParam id="992" interp="linr"  time="-9999999/1" value="2" leadInLength="0/1"   name="highlightMagnification"/>
           <InterpolatingParam id="993" interp="linr"  time="-9999999/1" value="1" leadInLength="0/1"   name="highlightOpacity"/>
           <InterpolatingParam id="994" interp="linr"  time="-9999999/1" value="45" leadInLength="0/1"   name="highlightSize"/>
           <Parameter id="995"   name="highlightType">
            <Keyframes>
            <Keyframe id="996"  time="-9999999/1" value="0" leadInLength="0/1"  />
            </Keyframes>
           </Parameter>
           <InterpolatingParam id="997" interp="linr"  time="-9999999/1" value="0" leadInLength="0/1"   name="leftClickColorBlue"/>
           <InterpolatingParam id="998" interp="linr"  time="-9999999/1" value="0" leadInLength="0/1"   name="leftClickColorGreen"/>
           <InterpolatingParam id="999" interp="linr"  time="-9999999/1" value="255" leadInLength="0/1"   name="leftClickColorRed"/>
           <InterpolatingParam id="1000" interp="linr"  time="-9999999/1" value="0.80000000000000004" leadInLength="0/1"   name="leftClickDuration"/>
           <InterpolatingParam id="1001" interp="linr"  time="-9999999/1" value="20" leadInLength="0/1"   name="leftClickSize"/>
           <Parameter id="1002"   name="leftClickSoundFilename">
            <Keyframes>
            <Keyframe id="1003"  time="-9999999/1" value="" leadInLength="0/1"  />
            </Keyframes>
           </Parameter>
           <InterpolatingParam id="1004" interp="linr"  time="-9999999/1" value="1" leadInLength="0/1"   name="leftClickSoundVolume"/>
           <Parameter id="1005"   name="leftClickType">
            <Keyframes>
            <Keyframe id="1006"  time="-9999999/1" value="0" leadInLength="0/1"  />
            </Keyframes>
           </Parameter>
           <InterpolatingParam id="1007" interp="linr"  time="-9999999/1" value="1" leadInLength="0/1"   name="opacity"/>
           <InterpolatingParam id="1008" interp="linr"  time="-9999999/1" value="255" leadInLength="0/1"   name="rightClickColorBlue"/>
           <InterpolatingParam id="1009" interp="linr"  time="-9999999/1" value="0" leadInLength="0/1"   name="rightClickColorGreen"/>
           <InterpolatingParam id="1010" interp="linr"  time="-9999999/1" value="0" leadInLength="0/1"   name="rightClickColorRed"/>
           <InterpolatingParam id="1011" interp="linr"  time="-9999999/1" value="0.80000000000000004" leadInLength="0/1"   name="rightClickDuration"/>
           <InterpolatingParam id="1012" interp="linr"  time="-9999999/1" value="20" leadInLength="0/1"   name="rightClickSize"/>
           <Parameter id="1013"   name="rightClickSoundFilename">
            <Keyframes>
            <Keyframe id="1014"  time="-9999999/1" value="" leadInLength="0/1"  />
            </Keyframes>
           </Parameter>
           <InterpolatingParam id="1015" interp="linr"  time="-9999999/1" value="1" leadInLength="0/1"   name="rightClickSoundVolume"/>
           <Parameter id="1016"   name="rightClickType">
            <Keyframes>
            <Keyframe id="1017"  time="-9999999/1" value="0" leadInLength="0/1"  />
            </Keyframes>
           </Parameter>
           </Parameters>
          </GenericEffect>
         </Effects>
         <Attributes>
          <Attribute id="1018" value="" name="ident"/>
         </Attributes>
         <MetaData>
          <entry key="AutoAppliedSmartFocus" val="False"/>
          <entry key="WinSubProjectDisplayName" val=""/>
         </MetaData>
         <ExtraData>
          <Entry key="ZoomPanBin">
           <ZoomPanBin id="1019"  >
            <ZoomPanKeyframes>
             <ZoomPanKeyframe id="1020" timeRangeEnd="-9999999/1" timeRangeDuration="0/1" interpolaterName="linr"  />
            </ZoomPanKeyframes>
           </ZoomPanBin>
          </Entry>
          <Entry key="CursorEffectBin">
           <CursorEffectBin id="1021"  >
            <CursorEffectKeyframes>
             <CursorEffectKeyframe id="1022" timeRangeEnd="-9999999/1" timeRangeDuration="0/1" interpolaterName=""  />
            </CursorEffectKeyframes>
           </CursorEffectBin>
          </Entry>
         </ExtraData>
         <GenericTrack id="1023"  >
          <Attributes>
           <Attribute id="1024" value="" name="ident"/>
           <Attribute id="1025" value="0" name="audioMuted"/>
           <Attribute id="1026" value="0" name="videoHidden"/>
          </Attributes>
          <MetaData>
           <entry key="IsLocked" val="False"/>
           <entry key="WinTrackHeight" val="0"/>
          </MetaData>
          <Medias>
           <ScreenVMFile id="1027" start="0" duration="811" scalar="1/1" mediaStart="0/1" mediaDuration="811/1" trackNumber="0" src="7" >
            <Transformer>
             <VectorParam id="1028"  name="translation">
              <InterpolatingParam id="1029" interp="linr"  time="-9999999/1" value="0" leadInLength="0/1"  />
              <InterpolatingParam id="1030" interp="linr"  time="-9999999/1" value="0" leadInLength="0/1"  />
              <InterpolatingParam id="1031" interp="linr"  time="-9999999/1" value="0" leadInLength="0/1"  />
             </VectorParam>
             <VectorParam id="1032"  name="rotation">
              <InterpolatingParam id="1033" interp="linr"  time="-9999999/1" value="0" leadInLength="0/1"  />
              <InterpolatingParam id="1034" interp="linr"  time="-9999999/1" value="0" leadInLength="0/1"  />
              <InterpolatingParam id="1035" interp="linr"  time="-9999999/1" value="0" leadInLength="0/1"  />
             </VectorParam>
             <VectorParam id="1036"  name="shear">
              <InterpolatingParam id="1037" interp="linr"  time="-9999999/1" value="0" leadInLength="0/1"  />
              <InterpolatingParam id="1038" interp="linr"  time="-9999999/1" value="0" leadInLength="0/1"  />
              <InterpolatingParam id="1039" interp="linr"  time="-9999999/1" value="0" leadInLength="0/1"  />
             </VectorParam>
             <VectorParam id="1040"  name="scale">
              <InterpolatingParam id="1041" interp="linr"  time="-9999999/1" value="1" leadInLength="0/1"  />
              <InterpolatingParam id="1042" interp="linr"  time="-9999999/1" value="1" leadInLength="0/1"  />
              <InterpolatingParam id="1043" interp="linr"  time="-9999999/1" value="1" leadInLength="0/1"  />
             </VectorParam>
             <VectorParam id="1044"  name="anchor">
              <InterpolatingParam id="1045" interp="linr"  time="0/1" value="0" leadInLength="0/1"  />
              <InterpolatingParam id="1046" interp="linr"  time="0/1" value="0" leadInLength="0/1"  />
              <InterpolatingParam id="1047" interp="linr"  time="0/1" value="0" leadInLength="0/1"  />
             </VectorParam>
            </Transformer>
            <Parameters>
             <VectorParam id="1048"  name="sourceCrop">
              <InterpolatingParam id="1049" interp="linr"  time="0/1" value="0" leadInLength="0/1"  />
              <InterpolatingParam id="1050" interp="linr"  time="0/1" value="0" leadInLength="0/1"  />
              <InterpolatingParam id="1051" interp="linr"  time="0/1" value="0" leadInLength="0/1"  />
              <InterpolatingParam id="1052" interp="linr"  time="0/1" value="0" leadInLength="0/1"  />
             </VectorParam>
             <VectorParam id="1053"  name="geometryCrop">
              <InterpolatingParam id="1054" interp="linr"  time="-9999999/1" value="0" leadInLength="0/1"  />
              <InterpolatingParam id="1055" interp="linr"  time="-9999999/1" value="0" leadInLength="0/1"  />
              <InterpolatingParam id="1056" interp="linr"  time="-9999999/1" value="0" leadInLength="0/1"  />
              <InterpolatingParam id="1057" interp="linr"  time="-9999999/1" value="0" leadInLength="0/1"  />
             </VectorParam>
             <InterpolatingParam id="1058" interp="linr"  time="-9999999/1" value="1" leadInLength="0/1"  name="opacity"/>
             <InterpolatingParam id="1059" interp="linr"  time="0/1" value="0" leadInLength="0/1"  name="cursorOpacity"/>
             <InterpolatingParam id="1060" interp="linr"  time="0/1" value="0" leadInLength="0/1"  name="cursorScale"/>
            </Parameters>
            <Attributes>
             <Attribute id="1061" value="" name="ident"/>
            </Attributes>
            <MetaData>
             <entry key="AutoAppliedSmartFocus" val="False"/>
             <entry key="WinSubProjectDisplayName" val=""/>
            </MetaData>
            <ExtraData>
             <Entry key="ZoomPanBin">
              <ZoomPanBin id="1062"  >
               <ZoomPanKeyframes>
                <ZoomPanKeyframe id="1063" timeRangeEnd="-9999999/1" timeRangeDuration="0/1" interpolaterName="linr"  />
               </ZoomPanKeyframes>
              </ZoomPanBin>
             </Entry>
             <Entry key="CursorEffectBin">
              <CursorEffectBin id="1064"  >
               <CursorEffectKeyframes>
               </CursorEffectKeyframes>
              </CursorEffectBin>
             </Entry>
            </ExtraData>
           </ScreenVMFile>
           <ScreenIMFile id="1065" start="811" duration="300" scalar="1/1" mediaStart="811/1" mediaDuration="1/1" trackNumber="0" src="7" trimStartSum="0/1" >
            <Transformer>
             <VectorParam id="1066"  name="translation">
              <InterpolatingParam id="1067" interp="linr"  time="-9999999/1" value="0" leadInLength="0/1"  />
              <InterpolatingParam id="1068" interp="linr"  time="-9999999/1" value="0" leadInLength="0/1"  />
              <InterpolatingParam id="1069" interp="linr"  time="-9999999/1" value="0" leadInLength="0/1"  />
             </VectorParam>
             <VectorParam id="1070"  name="rotation">
              <InterpolatingParam id="1071" interp="linr"  time="-9999999/1" value="0" leadInLength="0/1"  />
              <InterpolatingParam id="1072" interp="linr"  time="-9999999/1" value="0" leadInLength="0/1"  />
              <InterpolatingParam id="1073" interp="linr"  time="-9999999/1" value="0" leadInLength="0/1"  />
             </VectorParam>
             <VectorParam id="1074"  name="shear">
              <InterpolatingParam id="1075" interp="linr"  time="-9999999/1" value="0" leadInLength="0/1"  />
              <InterpolatingParam id="1076" interp="linr"  time="-9999999/1" value="0" leadInLength="0/1"  />
              <InterpolatingParam id="1077" interp="linr"  time="-9999999/1" value="0" leadInLength="0/1"  />
             </VectorParam>
             <VectorParam id="1078"  name="scale">
              <InterpolatingParam id="1079" interp="linr"  time="-9999999/1" value="1" leadInLength="0/1"  />
              <InterpolatingParam id="1080" interp="linr"  time="-9999999/1" value="1" leadInLength="0/1"  />
              <InterpolatingParam id="1081" interp="linr"  time="-9999999/1" value="1" leadInLength="0/1"  />
             </VectorParam>
             <VectorParam id="1082"  name="anchor">
              <InterpolatingParam id="1083" interp="linr"  time="0/1" value="0" leadInLength="0/1"  />
              <InterpolatingParam id="1084" interp="linr"  time="0/1" value="0" leadInLength="0/1"  />
              <InterpolatingParam id="1085" interp="linr"  time="0/1" value="0" leadInLength="0/1"  />
             </VectorParam>
            </Transformer>
            <Parameters>
             <VectorParam id="1086"  name="sourceCrop">
              <InterpolatingParam id="1087" interp="linr"  time="0/1" value="0" leadInLength="0/1"  />
              <InterpolatingParam id="1088" interp="linr"  time="0/1" value="0" leadInLength="0/1"  />
              <InterpolatingParam id="1089" interp="linr"  time="0/1" value="0" leadInLength="0/1"  />
              <InterpolatingParam id="1090" interp="linr"  time="0/1" value="0" leadInLength="0/1"  />
             </VectorParam>
             <VectorParam id="1091"  name="geometryCrop">
              <InterpolatingParam id="1092" interp="linr"  time="-9999999/1" value="0" leadInLength="0/1"  />
              <InterpolatingParam id="1093" interp="linr"  time="-9999999/1" value="0" leadInLength="0/1"  />
              <InterpolatingParam id="1094" interp="linr"  time="-9999999/1" value="0" leadInLength="0/1"  />
              <InterpolatingParam id="1095" interp="linr"  time="-9999999/1" value="0" leadInLength="0/1"  />
             </VectorParam>
             <InterpolatingParam id="1096" interp="linr"  time="-9999999/1" value="1" leadInLength="0/1"  name="opacity"/>
             <InterpolatingParam id="1097" interp="linr"  time="0/1" value="0" leadInLength="0/1"  name="cursorOpacity"/>
             <InterpolatingParam id="1098" interp="linr"  time="0/1" value="1" leadInLength="0/1"  name="recordedCursorOpacity"/>
             <InterpolatingParam id="1099" interp="linr"  time="0/1" value="0" leadInLength="0/1"  name="cursorScale"/>
            </Parameters>
            <Attributes>
             <Attribute id="1100" value="" name="ident"/>
            </Attributes>
            <MetaData>
             <entry key="AutoAppliedSmartFocus" val="False"/>
             <entry key="WinSubProjectDisplayName" val=""/>
            </MetaData>
            <ExtraData>
             <Entry key="ZoomPanBin">
              <ZoomPanBin id="1101"  >
               <ZoomPanKeyframes>
                <ZoomPanKeyframe id="1102" timeRangeEnd="-9999999/1" timeRangeDuration="0/1" interpolaterName="linr"  />
               </ZoomPanKeyframes>
              </ZoomPanBin>
             </Entry>
             <Entry key="CursorEffectBin">
              <CursorEffectBin id="1103"  >
               <CursorEffectKeyframes>
               </CursorEffectKeyframes>
              </CursorEffectBin>
             </Entry>
            </ExtraData>
           </ScreenIMFile>
           <ScreenVMFile id="1104" start="1111" duration="2" scalar="1/1" mediaStart="811/1" mediaDuration="2/1" trackNumber="0" src="7" >
            <Transformer>
             <VectorParam id="1105"  name="translation">
              <InterpolatingParam id="1106" interp="linr"  time="-9999999/1" value="0" leadInLength="0/1"  />
              <InterpolatingParam id="1107" interp="linr"  time="-9999999/1" value="0" leadInLength="0/1"  />
              <InterpolatingParam id="1108" interp="linr"  time="-9999999/1" value="0" leadInLength="0/1"  />
             </VectorParam>
             <VectorParam id="1109"  name="rotation">
              <InterpolatingParam id="1110" interp="linr"  time="-9999999/1" value="0" leadInLength="0/1"  />
              <InterpolatingParam id="1111" interp="linr"  time="-9999999/1" value="0" leadInLength="0/1"  />
              <InterpolatingParam id="1112" interp="linr"  time="-9999999/1" value="0" leadInLength="0/1"  />
             </VectorParam>
             <VectorParam id="1113"  name="shear">
              <InterpolatingParam id="1114" interp="linr"  time="-9999999/1" value="0" leadInLength="0/1"  />
              <InterpolatingParam id="1115" interp="linr"  time="-9999999/1" value="0" leadInLength="0/1"  />
              <InterpolatingParam id="1116" interp="linr"  time="-9999999/1" value="0" leadInLength="0/1"  />
             </VectorParam>
             <VectorParam id="1117"  name="scale">
              <InterpolatingParam id="1118" interp="linr"  time="-9999999/1" value="1" leadInLength="0/1"  />
              <InterpolatingParam id="1119" interp="linr"  time="-9999999/1" value="1" leadInLength="0/1"  />
              <InterpolatingParam id="1120" interp="linr"  time="-9999999/1" value="1" leadInLength="0/1"  />
             </VectorParam>
             <VectorParam id="1121"  name="anchor">
              <InterpolatingParam id="1122" interp="linr"  time="0/1" value="0" leadInLength="0/1"  />
              <InterpolatingParam id="1123" interp="linr"  time="0/1" value="0" leadInLength="0/1"  />
              <InterpolatingParam id="1124" interp="linr"  time="0/1" value="0" leadInLength="0/1"  />
             </VectorParam>
            </Transformer>
            <Parameters>
             <VectorParam id="1125"  name="sourceCrop">
              <InterpolatingParam id="1126" interp="linr"  time="0/1" value="0" leadInLength="0/1"  />
              <InterpolatingParam id="1127" interp="linr"  time="0/1" value="0" leadInLength="0/1"  />
              <InterpolatingParam id="1128" interp="linr"  time="0/1" value="0" leadInLength="0/1"  />
              <InterpolatingParam id="1129" interp="linr"  time="0/1" value="0" leadInLength="0/1"  />
             </VectorParam>
             <VectorParam id="1130"  name="geometryCrop">
              <InterpolatingParam id="1131" interp="linr"  time="-9999999/1" value="0" leadInLength="0/1"  />
              <InterpolatingParam id="1132" interp="linr"  time="-9999999/1" value="0" leadInLength="0/1"  />
              <InterpolatingParam id="1133" interp="linr"  time="-9999999/1" value="0" leadInLength="0/1"  />
              <InterpolatingParam id="1134" interp="linr"  time="-9999999/1" value="0" leadInLength="0/1"  />
             </VectorParam>
             <InterpolatingParam id="1135" interp="linr"  time="-9999999/1" value="1" leadInLength="0/1"  name="opacity"/>
             <InterpolatingParam id="1136" interp="linr"  time="0/1" value="0" leadInLength="0/1"  name="cursorOpacity"/>
             <InterpolatingParam id="1137" interp="linr"  time="0/1" value="0" leadInLength="0/1"  name="cursorScale"/>
            </Parameters>
            <Attributes>
             <Attribute id="1138" value="" name="ident"/>
            </Attributes>
            <MetaData>
             <entry key="AutoAppliedSmartFocus" val="False"/>
             <entry key="WinSubProjectDisplayName" val=""/>
            </MetaData>
            <ExtraData>
             <Entry key="ZoomPanBin">
              <ZoomPanBin id="1139"  >
               <ZoomPanKeyframes>
                <ZoomPanKeyframe id="1140" timeRangeEnd="-9999999/1" timeRangeDuration="0/1" interpolaterName="linr"  />
               </ZoomPanKeyframes>
              </ZoomPanBin>
             </Entry>
             <Entry key="CursorEffectBin">
              <CursorEffectBin id="1141"  >
               <CursorEffectKeyframes>
               </CursorEffectKeyframes>
              </CursorEffectBin>
             </Entry>
            </ExtraData>
           </ScreenVMFile>
          </Medias>
         </GenericTrack>
        </StitchedMedia>
       </Medias>
      </GenericTrack>
      <GenericTrack id="1142"  >
       <Attributes>
        <Attribute id="1143" value="" name="ident"/>
        <Attribute id="1144" value="0" name="audioMuted"/>
        <Attribute id="1145" value="0" name="videoHidden"/>
       </Attributes>
       <MetaData>
        <entry key="IsLocked" val="False"/>
        <entry key="WinTrackHeight" val="62"/>
       </MetaData>
       <Medias>
       </Medias>
      </GenericTrack>
      <GenericTrack id="1146"  >
       <Attributes>
        <Attribute id="1147" value="" name="ident"/>
        <Attribute id="1148" value="0" name="audioMuted"/>
        <Attribute id="1149" value="0" name="videoHidden"/>
       </Attributes>
       <MetaData>
        <entry key="IsLocked" val="False"/>
        <entry key="WinTrackHeight" val="62"/>
       </MetaData>
       <Medias>
       </Medias>
      </GenericTrack>
     </Tracks>
    </GenericMixer>
   <CaptionAttributes id="1150"  >
    <Attribute id="1151" value="1" name="captionsEnabled"/>
    <Attribute id="1152" value="Arial" name="captionsFontName"/>
    <Attribute id="1153" value="28" name="captionsFontSize"/>
    <Attribute id="1154" value="(0,0,0,255)" name="captionsBackgroundColor"/>
    <Attribute id="1155" value="(255,255,255,255)" name="captionsForegroundColor"/>
    <Attribute id="1156" value="en" name="lang"/>
    <Attribute id="1157" value="0" name="captionsAlignment"/>
    <Attribute id="1158" value="1" name="captionsDefaultFontSize"/>
    <Attribute id="1159" value="0.5" name="captionsOpacity"/>
    <Attribute id="1160" value="1" name="captionsBackgroundEnabled"/>
    <Attribute id="1161" value="1" name="captionsBackgroundOnlyAroundText"/>
   </CaptionAttributes>
   <Parameters>
    <VectorParam id="1162"  name="eyePosition">
     <InterpolatingParam id="1163" interp="linr"  time="0/1" value="0" leadInLength="0/1"  />
     <InterpolatingParam id="1164" interp="linr"  time="0/1" value="0" leadInLength="0/1"  />
     <InterpolatingParam id="1165" interp="linr"  time="0/1" value="3000" leadInLength="0/1"  />
    </VectorParam>
    <VectorParam id="1166"  name="eyeLookAtPosition">
     <InterpolatingParam id="1167" interp="linr"  time="0/1" value="0" leadInLength="0/1"  />
     <InterpolatingParam id="1168" interp="linr"  time="0/1" value="0" leadInLength="0/1"  />
     <InterpolatingParam id="1169" interp="linr"  time="0/1" value="0" leadInLength="0/1"  />
    </VectorParam>
    <VectorParam id="1170"  name="eyeUpVector">
     <InterpolatingParam id="1171" interp="linr"  time="0/1" value="0" leadInLength="0/1"  />
     <InterpolatingParam id="1172" interp="linr"  time="0/1" value="1" leadInLength="0/1"  />
     <InterpolatingParam id="1173" interp="linr"  time="0/1" value="0" leadInLength="0/1"  />
    </VectorParam>
    <InterpolatingParam id="1174" interp="linr"  time="0/1" value="0.23885785" leadInLength="0/1"  name="fov"/>
    <InterpolatingParam id="1175" interp="linr"  time="0/1" value="1.5" leadInLength="0/1"  name="nearClipDistance"/>
    <InterpolatingParam id="1176" interp="linr"  time="0/1" value="6000" leadInLength="0/1"  name="farClipDistance"/>
   </Parameters>
  </Timeline>
 </Project>
</GoProject>
</CSMLData>

</Project_Data>
