<?xml version="1.0"?>
<Project_Data Version="8.00">
<Project_Settings>
<ProfileName>MP4 only (up to 720p)</ProfileName>
<ProjectWidth>1280</ProjectWidth>
<ProjectHeight>720</ProjectHeight>
<IsCustomProject>1</IsCustomProject>
<SavedProjectSettings>1</SavedProjectSettings>
<LastFlashTemplate>-1</LastFlashTemplate>
</Project_Settings>


<AutoSaveFile>C:\Users\ewittman\AppData\Local\TechSmith\Camtasia Studio\8.0\Auto-Saves\apiman-concepts1c045a02.autosave.camproj</AutoSaveFile>

<ProjectID>D268717E-ADFB-4799-B129-8EF3492889BA</ProjectID>

<PowerPointProject>0</PowerPointProject>

<PowerPointFilename></PowerPointFilename>


<Project_Notes>
</Project_Notes>

<Project_MetaData>
<Project_MetaData_Object>
<FieldArrayKey>8</FieldArrayKey>
<Value>apiman-concepts</Value>
</Project_MetaData_Object>
<Project_MetaData_Object>
<FieldArrayKey>13</FieldArrayKey>
<Value>2014-11-20 12:32:55 PM</Value>
</Project_MetaData_Object>
<Project_MetaData_Object>
<FieldArrayKey>16</FieldArrayKey>
<Value>ENU</Value>
</Project_MetaData_Object>
</Project_MetaData>

<CSMLData>
<GoProject id="1" version="3.0" >
 <Project id="2" editRate="30/1" version="3.0" >
  <Author></Author>
  <Comment></Comment>
  <System></System>
  <SourceBin id="3"  >
    <Source id="4" src="C:\Users\ewittman\git\apiman-videos\apiman-concepts\audio\manager-application.mp3" lastMod="20141120T175139" rect="(0,0,0,0)" >
      <SourceTrack range="(0,208333333)" type="2" editRate="10000000/1" trackRect="(0,0,0,0)" sampleRate="44100/1" bitDepth="0" numChannels="2" filename="" metaData="" />
    </Source>
    <Source id="5" src="C:\Users\ewittman\git\apiman-videos\apiman-concepts\audio\manager-contract.mp3" lastMod="20141120T175212" rect="(0,0,0,0)" >
      <SourceTrack range="(0,146666667)" type="2" editRate="10000000/1" trackRect="(0,0,0,0)" sampleRate="44100/1" bitDepth="0" numChannels="2" filename="" metaData="" />
    </Source>
    <Source id="6" src="C:\Users\ewittman\git\apiman-videos\apiman-concepts\audio\manager-intro.mp3" lastMod="20141120T174733" rect="(0,0,0,0)" >
      <SourceTrack range="(0,119333333)" type="2" editRate="10000000/1" trackRect="(0,0,0,0)" sampleRate="44100/1" bitDepth="0" numChannels="2" filename="" metaData="" />
    </Source>
    <Source id="7" src="C:\Users\ewittman\git\apiman-videos\apiman-concepts\audio\manager-organization.mp3" lastMod="20141120T174818" rect="(0,0,0,0)" >
      <SourceTrack range="(0,188666667)" type="2" editRate="10000000/1" trackRect="(0,0,0,0)" sampleRate="44100/1" bitDepth="0" numChannels="2" filename="" metaData="" />
    </Source>
    <Source id="8" src="C:\Users\ewittman\git\apiman-videos\apiman-concepts\audio\manager-plan.mp3" lastMod="20141120T174956" rect="(0,0,0,0)" >
      <SourceTrack range="(0,239666667)" type="2" editRate="10000000/1" trackRect="(0,0,0,0)" sampleRate="44100/1" bitDepth="0" numChannels="2" filename="" metaData="" />
    </Source>
    <Source id="9" src="C:\Users\ewittman\git\apiman-videos\apiman-concepts\audio\manager-policy.mp3" lastMod="20141120T175314" rect="(0,0,0,0)" >
      <SourceTrack range="(0,300000000)" type="2" editRate="10000000/1" trackRect="(0,0,0,0)" sampleRate="44100/1" bitDepth="0" numChannels="2" filename="" metaData="" />
    </Source>
    <Source id="10" src="C:\Users\ewittman\git\apiman-videos\apiman-concepts\audio\manager-service.mp3" lastMod="20141120T174902" rect="(0,0,0,0)" >
      <SourceTrack range="(0,215666667)" type="2" editRate="10000000/1" trackRect="(0,0,0,0)" sampleRate="44100/1" bitDepth="0" numChannels="2" filename="" metaData="" />
    </Source>
    <Source id="11" src="C:\Users\ewittman\git\apiman-videos\apiman-concepts\audio\wrapup.mp3" lastMod="20141120T175637" rect="(0,0,0,0)" >
      <SourceTrack range="(0,150666667)" type="2" editRate="10000000/1" trackRect="(0,0,0,0)" sampleRate="44100/1" bitDepth="0" numChannels="2" filename="" metaData="" />
    </Source>
    <Source id="12" src="C:\Users\ewittman\git\apiman-videos\apiman-concepts\audio\gateway-chain.mp3" lastMod="20141120T175506" rect="(0,0,0,0)" >
      <SourceTrack range="(0,462333333)" type="2" editRate="10000000/1" trackRect="(0,0,0,0)" sampleRate="44100/1" bitDepth="0" numChannels="2" filename="" metaData="" />
    </Source>
    <Source id="13" src="C:\Users\ewittman\git\apiman-videos\apiman-concepts\audio\gateway-intro.mp3" lastMod="20141120T175358" rect="(0,0,0,0)" >
      <SourceTrack range="(0,146000000)" type="2" editRate="10000000/1" trackRect="(0,0,0,0)" sampleRate="44100/1" bitDepth="0" numChannels="2" filename="" metaData="" />
    </Source>
    <Source id="14" src="C:\Users\ewittman\git\apiman-videos\apiman-concepts\audio\intro+architecture.mp3" lastMod="20141120T174633" rect="(0,0,0,0)" >
      <SourceTrack range="(0,410000000)" type="2" editRate="10000000/1" trackRect="(0,0,0,0)" sampleRate="44100/1" bitDepth="0" numChannels="2" filename="" metaData="" />
    </Source>
    <Source id="15" src="C:\Users\ewittman\git\apiman-videos\music_beat.wav" lastMod="20141115T163242" rect="(0,0,0,0)" >
      <SourceTrack range="(0,160000000)" type="2" editRate="10000000/1" trackRect="(0,0,0,0)" sampleRate="44100/1" bitDepth="16" numChannels="2" filename="" metaData="" />
    </Source>
    <Source id="16" src="C:\Users\ewittman\git\apiman-videos\apiman-concepts\video\capture-1.trec" lastMod="20141120T163505" rect="(0,0,1280,720)" >
      <SourceTrack range="(0,736)" type="0" editRate="30/1" trackRect="(0,0,1280,720)" sampleRate="0/1" bitDepth="0" numChannels="0" filename="capture-1.trec!Strack0.tsc2" metaData="capture-1.trec;" />
    </Source>
    <Source id="17" src="C:\Users\ewittman\git\apiman-videos\apiman-concepts\screenshots\title.png" lastMod="20141120T204330" rect="(0,0,1280,720)" >
      <SourceTrack range="(0,1)" type="1" editRate="10000000/1" trackRect="(0,0,1280,720)" sampleRate="0/1" bitDepth="32" numChannels="0" filename="" metaData="" />
    </Source>
  </SourceBin>
  <Timeline id="18"  >
   <Attributes>
    <Attribute id="19" value="1280" name="width"/>
    <Attribute id="20" value="720" name="height"/>
    <Attribute id="21" value="(0,0,0,255)" name="backgroundColor"/>
   </Attributes>
    <GenericMixer id="22"  name="Unified Mixer">
     <MetaData>
      <entry key="MixerType" val="TimelineMixer"/>
     </MetaData>
     <Tracks>
      <GenericTrack id="23"  >
       <Attributes>
        <Attribute id="24" value="Music" name="ident"/>
        <Attribute id="25" value="0" name="audioMuted"/>
        <Attribute id="26" value="0" name="videoHidden"/>
       </Attributes>
       <MetaData>
        <entry key="IsLocked" val="False"/>
        <entry key="WinTrackHeight" val="62"/>
       </MetaData>
       <Medias>
        <AMFile id="27" start="0" duration="480" scalar="1/1" mediaStart="0/1" mediaDuration="480/1" trackNumber="0" src="15" channelNumber="0,1" >
         <Parameters>
          <InterpolatingParam id="28" interp="linr"  time="0/1" value="0.014411518807585602" leadInLength="0/1"  name="volume"/>
          <Parameter id="29"  name="captions"/>
         </Parameters>
         <Attributes>
          <Attribute id="30" value="" name="ident"/>
          <Attribute id="31" value="44100" name="sampleRate"/>
          <Attribute id="32" value="16" name="bitDepth"/>
          <Attribute id="33" value="1" name="gain"/>
          <Attribute id="34" value="0" name="mixToMono"/>
         </Attributes>
         <MetaData>
          <entry key="WinSubProjectDisplayName" val=""/>
         </MetaData>
        </AMFile>
        <AMFile id="35" start="480" duration="480" scalar="1/1" mediaStart="0/1" mediaDuration="480/1" trackNumber="0" src="15" channelNumber="0,1" >
         <Parameters>
          <InterpolatingParam id="36" interp="linr"  time="0/1" value="0.014411518807585602" leadInLength="0/1"  name="volume"/>
          <Parameter id="37"  name="captions"/>
         </Parameters>
         <Attributes>
          <Attribute id="38" value="" name="ident"/>
          <Attribute id="39" value="44100" name="sampleRate"/>
          <Attribute id="40" value="16" name="bitDepth"/>
          <Attribute id="41" value="1" name="gain"/>
          <Attribute id="42" value="0" name="mixToMono"/>
         </Attributes>
         <MetaData>
          <entry key="WinSubProjectDisplayName" val=""/>
         </MetaData>
        </AMFile>
        <AMFile id="43" start="960" duration="480" scalar="1/1" mediaStart="0/1" mediaDuration="480/1" trackNumber="0" src="15" channelNumber="0,1" >
         <Parameters>
          <InterpolatingParam id="44" interp="linr"  time="0/1" value="0.014411518807585602" leadInLength="0/1"  name="volume"/>
          <Parameter id="45"  name="captions"/>
         </Parameters>
         <Attributes>
          <Attribute id="46" value="" name="ident"/>
          <Attribute id="47" value="44100" name="sampleRate"/>
          <Attribute id="48" value="16" name="bitDepth"/>
          <Attribute id="49" value="1" name="gain"/>
          <Attribute id="50" value="0" name="mixToMono"/>
         </Attributes>
         <MetaData>
          <entry key="WinSubProjectDisplayName" val=""/>
         </MetaData>
        </AMFile>
        <AMFile id="51" start="1440" duration="480" scalar="1/1" mediaStart="0/1" mediaDuration="480/1" trackNumber="0" src="15" channelNumber="0,1" >
         <Parameters>
          <InterpolatingParam id="52" interp="linr"  time="0/1" value="0.014411518807585602" leadInLength="0/1"  name="volume"/>
          <Parameter id="53"  name="captions"/>
         </Parameters>
         <Attributes>
          <Attribute id="54" value="" name="ident"/>
          <Attribute id="55" value="44100" name="sampleRate"/>
          <Attribute id="56" value="16" name="bitDepth"/>
          <Attribute id="57" value="1" name="gain"/>
          <Attribute id="58" value="0" name="mixToMono"/>
         </Attributes>
         <MetaData>
          <entry key="WinSubProjectDisplayName" val=""/>
         </MetaData>
        </AMFile>
        <AMFile id="59" start="1920" duration="480" scalar="1/1" mediaStart="0/1" mediaDuration="480/1" trackNumber="0" src="15" channelNumber="0,1" >
         <Parameters>
          <InterpolatingParam id="60" interp="linr"  time="0/1" value="0.014411518807585602" leadInLength="0/1"  name="volume"/>
          <Parameter id="61"  name="captions"/>
         </Parameters>
         <Attributes>
          <Attribute id="62" value="" name="ident"/>
          <Attribute id="63" value="44100" name="sampleRate"/>
          <Attribute id="64" value="16" name="bitDepth"/>
          <Attribute id="65" value="1" name="gain"/>
          <Attribute id="66" value="0" name="mixToMono"/>
         </Attributes>
         <MetaData>
          <entry key="WinSubProjectDisplayName" val=""/>
         </MetaData>
        </AMFile>
        <AMFile id="67" start="2400" duration="480" scalar="1/1" mediaStart="0/1" mediaDuration="480/1" trackNumber="0" src="15" channelNumber="0,1" >
         <Parameters>
          <InterpolatingParam id="68" interp="linr"  time="0/1" value="0.014411518807585602" leadInLength="0/1"  name="volume"/>
          <Parameter id="69"  name="captions"/>
         </Parameters>
         <Attributes>
          <Attribute id="70" value="" name="ident"/>
          <Attribute id="71" value="44100" name="sampleRate"/>
          <Attribute id="72" value="16" name="bitDepth"/>
          <Attribute id="73" value="1" name="gain"/>
          <Attribute id="74" value="0" name="mixToMono"/>
         </Attributes>
         <MetaData>
          <entry key="WinSubProjectDisplayName" val=""/>
         </MetaData>
        </AMFile>
        <AMFile id="75" start="2880" duration="480" scalar="1/1" mediaStart="0/1" mediaDuration="480/1" trackNumber="0" src="15" channelNumber="0,1" >
         <Parameters>
          <InterpolatingParam id="76" interp="linr"  time="0/1" value="0.014411518807585602" leadInLength="0/1"  name="volume"/>
          <Parameter id="77"  name="captions"/>
         </Parameters>
         <Attributes>
          <Attribute id="78" value="" name="ident"/>
          <Attribute id="79" value="44100" name="sampleRate"/>
          <Attribute id="80" value="16" name="bitDepth"/>
          <Attribute id="81" value="1" name="gain"/>
          <Attribute id="82" value="0" name="mixToMono"/>
         </Attributes>
         <MetaData>
          <entry key="WinSubProjectDisplayName" val=""/>
         </MetaData>
        </AMFile>
        <AMFile id="83" start="3360" duration="480" scalar="1/1" mediaStart="0/1" mediaDuration="480/1" trackNumber="0" src="15" channelNumber="0,1" >
         <Parameters>
          <InterpolatingParam id="84" interp="linr"  time="0/1" value="0.014411518807585602" leadInLength="0/1"  name="volume"/>
          <Parameter id="85"  name="captions"/>
         </Parameters>
         <Attributes>
          <Attribute id="86" value="" name="ident"/>
          <Attribute id="87" value="44100" name="sampleRate"/>
          <Attribute id="88" value="16" name="bitDepth"/>
          <Attribute id="89" value="1" name="gain"/>
          <Attribute id="90" value="0" name="mixToMono"/>
         </Attributes>
         <MetaData>
          <entry key="WinSubProjectDisplayName" val=""/>
         </MetaData>
        </AMFile>
        <AMFile id="91" start="3840" duration="480" scalar="1/1" mediaStart="0/1" mediaDuration="480/1" trackNumber="0" src="15" channelNumber="0,1" >
         <Parameters>
          <InterpolatingParam id="92" interp="linr"  time="0/1" value="0.014411518807585602" leadInLength="0/1"  name="volume"/>
          <Parameter id="93"  name="captions"/>
         </Parameters>
         <Attributes>
          <Attribute id="94" value="" name="ident"/>
          <Attribute id="95" value="44100" name="sampleRate"/>
          <Attribute id="96" value="16" name="bitDepth"/>
          <Attribute id="97" value="1" name="gain"/>
          <Attribute id="98" value="0" name="mixToMono"/>
         </Attributes>
         <MetaData>
          <entry key="WinSubProjectDisplayName" val=""/>
         </MetaData>
        </AMFile>
        <AMFile id="99" start="4320" duration="480" scalar="1/1" mediaStart="0/1" mediaDuration="480/1" trackNumber="0" src="15" channelNumber="0,1" >
         <Parameters>
          <InterpolatingParam id="100" interp="linr"  time="0/1" value="0.014411518807585602" leadInLength="0/1"  name="volume"/>
          <Parameter id="101"  name="captions"/>
         </Parameters>
         <Attributes>
          <Attribute id="102" value="" name="ident"/>
          <Attribute id="103" value="44100" name="sampleRate"/>
          <Attribute id="104" value="16" name="bitDepth"/>
          <Attribute id="105" value="1" name="gain"/>
          <Attribute id="106" value="0" name="mixToMono"/>
         </Attributes>
         <MetaData>
          <entry key="WinSubProjectDisplayName" val=""/>
         </MetaData>
        </AMFile>
        <AMFile id="107" start="4800" duration="480" scalar="1/1" mediaStart="0/1" mediaDuration="480/1" trackNumber="0" src="15" channelNumber="0,1" >
         <Parameters>
          <InterpolatingParam id="108" interp="linr"  time="0/1" value="0.014411518807585602" leadInLength="0/1"  name="volume"/>
          <Parameter id="109"  name="captions"/>
         </Parameters>
         <Attributes>
          <Attribute id="110" value="" name="ident"/>
          <Attribute id="111" value="44100" name="sampleRate"/>
          <Attribute id="112" value="16" name="bitDepth"/>
          <Attribute id="113" value="1" name="gain"/>
          <Attribute id="114" value="0" name="mixToMono"/>
         </Attributes>
         <MetaData>
          <entry key="WinSubProjectDisplayName" val=""/>
         </MetaData>
        </AMFile>
        <AMFile id="115" start="5280" duration="480" scalar="1/1" mediaStart="0/1" mediaDuration="480/1" trackNumber="0" src="15" channelNumber="0,1" >
         <Parameters>
          <InterpolatingParam id="116" interp="linr"  time="0/1" value="0.014411518807585602" leadInLength="0/1"  name="volume"/>
          <Parameter id="117"  name="captions"/>
         </Parameters>
         <Attributes>
          <Attribute id="118" value="" name="ident"/>
          <Attribute id="119" value="44100" name="sampleRate"/>
          <Attribute id="120" value="16" name="bitDepth"/>
          <Attribute id="121" value="1" name="gain"/>
          <Attribute id="122" value="0" name="mixToMono"/>
         </Attributes>
         <MetaData>
          <entry key="WinSubProjectDisplayName" val=""/>
         </MetaData>
        </AMFile>
        <AMFile id="123" start="5760" duration="480" scalar="1/1" mediaStart="0/1" mediaDuration="480/1" trackNumber="0" src="15" channelNumber="0,1" >
         <Parameters>
          <InterpolatingParam id="124" interp="linr"  time="0/1" value="0.014411518807585602" leadInLength="0/1"  name="volume"/>
          <Parameter id="125"  name="captions"/>
         </Parameters>
         <Attributes>
          <Attribute id="126" value="" name="ident"/>
          <Attribute id="127" value="44100" name="sampleRate"/>
          <Attribute id="128" value="16" name="bitDepth"/>
          <Attribute id="129" value="1" name="gain"/>
          <Attribute id="130" value="0" name="mixToMono"/>
         </Attributes>
         <MetaData>
          <entry key="WinSubProjectDisplayName" val=""/>
         </MetaData>
        </AMFile>
        <AMFile id="131" start="6240" duration="480" scalar="1/1" mediaStart="0/1" mediaDuration="480/1" trackNumber="0" src="15" channelNumber="0,1" >
         <Parameters>
          <InterpolatingParam id="132" interp="linr"  time="0/1" value="0.014411518807585602" leadInLength="0/1"  name="volume"/>
          <Parameter id="133"  name="captions"/>
         </Parameters>
         <Attributes>
          <Attribute id="134" value="" name="ident"/>
          <Attribute id="135" value="44100" name="sampleRate"/>
          <Attribute id="136" value="16" name="bitDepth"/>
          <Attribute id="137" value="1" name="gain"/>
          <Attribute id="138" value="0" name="mixToMono"/>
         </Attributes>
         <MetaData>
          <entry key="WinSubProjectDisplayName" val=""/>
         </MetaData>
        </AMFile>
        <AMFile id="139" start="6720" duration="480" scalar="1/1" mediaStart="0/1" mediaDuration="480/1" trackNumber="0" src="15" channelNumber="0,1" >
         <Parameters>
          <InterpolatingParam id="140" interp="linr"  time="0/1" value="0.014411518807585602" leadInLength="0/1"  name="volume"/>
          <Parameter id="141"  name="captions"/>
         </Parameters>
         <Attributes>
          <Attribute id="142" value="" name="ident"/>
          <Attribute id="143" value="44100" name="sampleRate"/>
          <Attribute id="144" value="16" name="bitDepth"/>
          <Attribute id="145" value="1" name="gain"/>
          <Attribute id="146" value="0" name="mixToMono"/>
         </Attributes>
         <MetaData>
          <entry key="WinSubProjectDisplayName" val=""/>
         </MetaData>
        </AMFile>
        <AMFile id="147" start="7200" duration="480" scalar="1/1" mediaStart="0/1" mediaDuration="480/1" trackNumber="0" src="15" channelNumber="0,1" >
         <Parameters>
          <InterpolatingParam id="148" interp="linr"  time="0/1" value="0.014411518807585602" leadInLength="0/1"  name="volume"/>
          <Parameter id="149"  name="captions"/>
         </Parameters>
         <Attributes>
          <Attribute id="150" value="" name="ident"/>
          <Attribute id="151" value="44100" name="sampleRate"/>
          <Attribute id="152" value="16" name="bitDepth"/>
          <Attribute id="153" value="1" name="gain"/>
          <Attribute id="154" value="0" name="mixToMono"/>
         </Attributes>
         <MetaData>
          <entry key="WinSubProjectDisplayName" val=""/>
         </MetaData>
        </AMFile>
        <AMFile id="155" start="7680" duration="71" scalar="1/1" mediaStart="0/1" mediaDuration="71/1" trackNumber="0" src="15" channelNumber="0,1" >
         <Parameters>
          <InterpolatingParam id="156" interp="linr"  time="0/1" value="0.014411518807585602" leadInLength="0/1"  name="volume"/>
          <Parameter id="157"  name="captions"/>
         </Parameters>
         <Attributes>
          <Attribute id="158" value="" name="ident"/>
          <Attribute id="159" value="44100" name="sampleRate"/>
          <Attribute id="160" value="16" name="bitDepth"/>
          <Attribute id="161" value="1" name="gain"/>
          <Attribute id="162" value="0" name="mixToMono"/>
         </Attributes>
         <MetaData>
          <entry key="WinSubProjectDisplayName" val=""/>
         </MetaData>
        </AMFile>
       </Medias>
      </GenericTrack>
      <GenericTrack id="163"  >
       <Attributes>
        <Attribute id="164" value="Audio" name="ident"/>
        <Attribute id="165" value="0" name="audioMuted"/>
        <Attribute id="166" value="0" name="videoHidden"/>
       </Attributes>
       <MetaData>
        <entry key="IsLocked" val="False"/>
        <entry key="WinTrackHeight" val="62"/>
       </MetaData>
       <Medias>
        <AMFile id="167" start="15" duration="357" scalar="1/1" mediaStart="55/1" mediaDuration="357/1" trackNumber="0" src="14" channelNumber="0,1" >
         <Parameters>
          <InterpolatingParam id="168" interp="linr"  time="0/1" value="1" leadInLength="0/1"  name="volume"/>
          <Parameter id="169"  name="captions"/>
         </Parameters>
         <Attributes>
          <Attribute id="170" value="" name="ident"/>
          <Attribute id="171" value="44100" name="sampleRate"/>
          <Attribute id="172" value="0" name="bitDepth"/>
          <Attribute id="173" value="1" name="gain"/>
          <Attribute id="174" value="0" name="mixToMono"/>
         </Attributes>
         <MetaData>
          <entry key="WinSubProjectDisplayName" val=""/>
         </MetaData>
        </AMFile>
        <AMFile id="175" start="372" duration="788" scalar="1/1" mediaStart="442/1" mediaDuration="788/1" trackNumber="0" src="14" channelNumber="0,1" >
         <Parameters>
          <InterpolatingParam id="176" interp="linr"  time="0/1" value="1" leadInLength="0/1"  name="volume"/>
          <Parameter id="177"  name="captions"/>
         </Parameters>
         <Attributes>
          <Attribute id="178" value="" name="ident"/>
          <Attribute id="179" value="44100" name="sampleRate"/>
          <Attribute id="180" value="0" name="bitDepth"/>
          <Attribute id="181" value="1" name="gain"/>
          <Attribute id="182" value="0" name="mixToMono"/>
         </Attributes>
         <MetaData>
          <entry key="WinSubProjectDisplayName" val=""/>
         </MetaData>
        </AMFile>
        <AMFile id="183" start="1160" duration="357" scalar="1/1" mediaStart="0/1" mediaDuration="357/1" trackNumber="0" src="6" channelNumber="0,1" >
         <Parameters>
          <InterpolatingParam id="184" interp="linr"  time="0/1" value="1" leadInLength="0/1"  name="volume"/>
          <Parameter id="185"  name="captions"/>
         </Parameters>
         <Attributes>
          <Attribute id="186" value="" name="ident"/>
          <Attribute id="187" value="44100" name="sampleRate"/>
          <Attribute id="188" value="0" name="bitDepth"/>
          <Attribute id="189" value="1" name="gain"/>
          <Attribute id="190" value="0" name="mixToMono"/>
         </Attributes>
         <MetaData>
          <entry key="WinSubProjectDisplayName" val=""/>
         </MetaData>
        </AMFile>
        <AMFile id="191" start="1517" duration="566" scalar="1/1" mediaStart="0/1" mediaDuration="566/1" trackNumber="0" src="7" channelNumber="0,1" >
         <Parameters>
          <InterpolatingParam id="192" interp="linr"  time="0/1" value="1" leadInLength="0/1"  name="volume"/>
          <Parameter id="193"  name="captions"/>
         </Parameters>
         <Attributes>
          <Attribute id="194" value="" name="ident"/>
          <Attribute id="195" value="44100" name="sampleRate"/>
          <Attribute id="196" value="0" name="bitDepth"/>
          <Attribute id="197" value="1" name="gain"/>
          <Attribute id="198" value="0" name="mixToMono"/>
         </Attributes>
         <MetaData>
          <entry key="WinSubProjectDisplayName" val=""/>
         </MetaData>
        </AMFile>
        <AMFile id="199" start="2083" duration="647" scalar="1/1" mediaStart="0/1" mediaDuration="647/1" trackNumber="0" src="10" channelNumber="0,1" >
         <Parameters>
          <InterpolatingParam id="200" interp="linr"  time="0/1" value="1" leadInLength="0/1"  name="volume"/>
          <Parameter id="201"  name="captions"/>
         </Parameters>
         <Attributes>
          <Attribute id="202" value="" name="ident"/>
          <Attribute id="203" value="44100" name="sampleRate"/>
          <Attribute id="204" value="0" name="bitDepth"/>
          <Attribute id="205" value="1" name="gain"/>
          <Attribute id="206" value="0" name="mixToMono"/>
         </Attributes>
         <MetaData>
          <entry key="WinSubProjectDisplayName" val=""/>
         </MetaData>
        </AMFile>
        <AMFile id="207" start="2730" duration="719" scalar="1/1" mediaStart="0/1" mediaDuration="719/1" trackNumber="0" src="8" channelNumber="0,1" >
         <Parameters>
          <InterpolatingParam id="208" interp="linr"  time="0/1" value="1" leadInLength="0/1"  name="volume"/>
          <Parameter id="209"  name="captions"/>
         </Parameters>
         <Attributes>
          <Attribute id="210" value="" name="ident"/>
          <Attribute id="211" value="44100" name="sampleRate"/>
          <Attribute id="212" value="0" name="bitDepth"/>
          <Attribute id="213" value="1" name="gain"/>
          <Attribute id="214" value="0" name="mixToMono"/>
         </Attributes>
         <MetaData>
          <entry key="WinSubProjectDisplayName" val=""/>
         </MetaData>
        </AMFile>
        <AMFile id="215" start="3449" duration="624" scalar="1/1" mediaStart="0/1" mediaDuration="624/1" trackNumber="0" src="4" channelNumber="0,1" >
         <Parameters>
          <InterpolatingParam id="216" interp="linr"  time="0/1" value="1" leadInLength="0/1"  name="volume"/>
          <Parameter id="217"  name="captions"/>
         </Parameters>
         <Attributes>
          <Attribute id="218" value="" name="ident"/>
          <Attribute id="219" value="44100" name="sampleRate"/>
          <Attribute id="220" value="0" name="bitDepth"/>
          <Attribute id="221" value="1" name="gain"/>
          <Attribute id="222" value="0" name="mixToMono"/>
         </Attributes>
         <MetaData>
          <entry key="WinSubProjectDisplayName" val=""/>
         </MetaData>
        </AMFile>
        <AMFile id="223" start="4073" duration="440" scalar="1/1" mediaStart="0/1" mediaDuration="440/1" trackNumber="0" src="5" channelNumber="0,1" >
         <Parameters>
          <InterpolatingParam id="224" interp="linr"  time="0/1" value="1" leadInLength="0/1"  name="volume"/>
          <Parameter id="225"  name="captions"/>
         </Parameters>
         <Attributes>
          <Attribute id="226" value="" name="ident"/>
          <Attribute id="227" value="44100" name="sampleRate"/>
          <Attribute id="228" value="0" name="bitDepth"/>
          <Attribute id="229" value="1" name="gain"/>
          <Attribute id="230" value="0" name="mixToMono"/>
         </Attributes>
         <MetaData>
          <entry key="WinSubProjectDisplayName" val=""/>
         </MetaData>
        </AMFile>
        <AMFile id="231" start="4513" duration="900" scalar="1/1" mediaStart="0/1" mediaDuration="900/1" trackNumber="0" src="9" channelNumber="0,1" >
         <Parameters>
          <InterpolatingParam id="232" interp="linr"  time="0/1" value="1" leadInLength="0/1"  name="volume"/>
          <Parameter id="233"  name="captions"/>
         </Parameters>
         <Attributes>
          <Attribute id="234" value="" name="ident"/>
          <Attribute id="235" value="44100" name="sampleRate"/>
          <Attribute id="236" value="0" name="bitDepth"/>
          <Attribute id="237" value="1" name="gain"/>
          <Attribute id="238" value="0" name="mixToMono"/>
         </Attributes>
         <MetaData>
          <entry key="WinSubProjectDisplayName" val=""/>
         </MetaData>
        </AMFile>
        <AMFile id="239" start="5447" duration="438" scalar="1/1" mediaStart="0/1" mediaDuration="438/1" trackNumber="0" src="13" channelNumber="0,1" >
         <Parameters>
          <InterpolatingParam id="240" interp="linr"  time="0/1" value="1" leadInLength="0/1"  name="volume"/>
          <Parameter id="241"  name="captions"/>
         </Parameters>
         <Attributes>
          <Attribute id="242" value="" name="ident"/>
          <Attribute id="243" value="44100" name="sampleRate"/>
          <Attribute id="244" value="0" name="bitDepth"/>
          <Attribute id="245" value="1" name="gain"/>
          <Attribute id="246" value="0" name="mixToMono"/>
         </Attributes>
         <MetaData>
          <entry key="WinSubProjectDisplayName" val=""/>
         </MetaData>
        </AMFile>
        <AMFile id="247" start="5885" duration="1386" scalar="1/1" mediaStart="0/1" mediaDuration="1386/1" trackNumber="0" src="12" channelNumber="0,1" >
         <Parameters>
          <InterpolatingParam id="248" interp="linr"  time="0/1" value="1" leadInLength="0/1"  name="volume"/>
          <Parameter id="249"  name="captions"/>
         </Parameters>
         <Attributes>
          <Attribute id="250" value="" name="ident"/>
          <Attribute id="251" value="44100" name="sampleRate"/>
          <Attribute id="252" value="0" name="bitDepth"/>
          <Attribute id="253" value="1" name="gain"/>
          <Attribute id="254" value="0" name="mixToMono"/>
         </Attributes>
         <MetaData>
          <entry key="WinSubProjectDisplayName" val=""/>
         </MetaData>
        </AMFile>
        <AMFile id="255" start="7299" duration="452" scalar="1/1" mediaStart="0/1" mediaDuration="452/1" trackNumber="0" src="11" channelNumber="0,1" >
         <Parameters>
          <InterpolatingParam id="256" interp="linr"  time="0/1" value="1" leadInLength="0/1"  name="volume"/>
          <Parameter id="257"  name="captions"/>
         </Parameters>
         <Attributes>
          <Attribute id="258" value="" name="ident"/>
          <Attribute id="259" value="44100" name="sampleRate"/>
          <Attribute id="260" value="0" name="bitDepth"/>
          <Attribute id="261" value="1" name="gain"/>
          <Attribute id="262" value="0" name="mixToMono"/>
         </Attributes>
         <MetaData>
          <entry key="WinSubProjectDisplayName" val=""/>
         </MetaData>
        </AMFile>
       </Medias>
      </GenericTrack>
      <GenericTrack id="263"  >
       <Attributes>
        <Attribute id="264" value="Video" name="ident"/>
        <Attribute id="265" value="0" name="audioMuted"/>
        <Attribute id="266" value="0" name="videoHidden"/>
       </Attributes>
       <MetaData>
        <entry key="IsLocked" val="False"/>
        <entry key="WinTrackHeight" val="62"/>
       </MetaData>
       <Medias>
        <IMFile id="267" start="0" duration="357" scalar="1/1" mediaStart="0/1" mediaDuration="1/1" trackNumber="0" src="17" trimStartSum="0/1" >
         <Transformer>
          <VectorParam id="268"  name="translation">
           <InterpolatingParam id="269" interp="linr"  time="-9999999/1" value="0" leadInLength="0/1"  />
           <InterpolatingParam id="270" interp="linr"  time="-9999999/1" value="0" leadInLength="0/1"  />
           <InterpolatingParam id="271" interp="linr"  time="-9999999/1" value="0" leadInLength="0/1"  />
          </VectorParam>
          <VectorParam id="272"  name="rotation">
           <InterpolatingParam id="273" interp="linr"  time="-9999999/1" value="0" leadInLength="0/1"  />
           <InterpolatingParam id="274" interp="linr"  time="-9999999/1" value="0" leadInLength="0/1"  />
           <InterpolatingParam id="275" interp="linr"  time="-9999999/1" value="0" leadInLength="0/1"  />
          </VectorParam>
          <VectorParam id="276"  name="shear">
           <InterpolatingParam id="277" interp="linr"  time="-9999999/1" value="0" leadInLength="0/1"  />
           <InterpolatingParam id="278" interp="linr"  time="-9999999/1" value="0" leadInLength="0/1"  />
           <InterpolatingParam id="279" interp="linr"  time="-9999999/1" value="0" leadInLength="0/1"  />
          </VectorParam>
          <VectorParam id="280"  name="scale">
           <InterpolatingParam id="281" interp="linr"  time="-9999999/1" value="1" leadInLength="0/1"  />
           <InterpolatingParam id="282" interp="linr"  time="-9999999/1" value="1" leadInLength="0/1"  />
           <InterpolatingParam id="283" interp="linr"  time="-9999999/1" value="1" leadInLength="0/1"  />
          </VectorParam>
          <VectorParam id="284"  name="anchor">
           <InterpolatingParam id="285" interp="linr"  time="0/1" value="0" leadInLength="0/1"  />
           <InterpolatingParam id="286" interp="linr"  time="0/1" value="0" leadInLength="0/1"  />
           <InterpolatingParam id="287" interp="linr"  time="0/1" value="0" leadInLength="0/1"  />
          </VectorParam>
         </Transformer>
         <Parameters>
          <VectorParam id="288"  name="sourceCrop">
           <InterpolatingParam id="289" interp="linr"  time="0/1" value="0" leadInLength="0/1"  />
           <InterpolatingParam id="290" interp="linr"  time="0/1" value="0" leadInLength="0/1"  />
           <InterpolatingParam id="291" interp="linr"  time="0/1" value="0" leadInLength="0/1"  />
           <InterpolatingParam id="292" interp="linr"  time="0/1" value="0" leadInLength="0/1"  />
          </VectorParam>
          <VectorParam id="293"  name="geometryCrop">
           <InterpolatingParam id="294" interp="linr"  time="-9999999/1" value="0" leadInLength="0/1"  />
           <InterpolatingParam id="295" interp="linr"  time="-9999999/1" value="0" leadInLength="0/1"  />
           <InterpolatingParam id="296" interp="linr"  time="-9999999/1" value="0" leadInLength="0/1"  />
           <InterpolatingParam id="297" interp="linr"  time="-9999999/1" value="0" leadInLength="0/1"  />
          </VectorParam>
          <InterpolatingParam id="298" interp="linr"  time="-9999999/1" value="1" leadInLength="0/1"  name="opacity"/>
         </Parameters>
         <Effects>
          <GenericEffect id="299" name = "Colorize" >
           <Parameters>
           <InterpolatingParam id="300" interp="linr"  time="0/1" value="1" leadInLength="0/1"   name="amount"/>
           <InterpolatingParam id="301" interp="linr"  time="0/1" value="255" leadInLength="0/1"   name="color-alpha"/>
           <InterpolatingParam id="302" interp="linr"  time="0/1" value="0" leadInLength="0/1"   name="color-blue"/>
           <InterpolatingParam id="303" interp="linr"  time="0/1" value="115" leadInLength="0/1"   name="color-green"/>
           <InterpolatingParam id="304" interp="linr"  time="0/1" value="255" leadInLength="0/1"   name="color-red"/>
           <Parameter id="305"   name="enabled">
            <Keyframes>
            <Keyframe id="306"  time="0/1" value="1" leadInLength="0/1"  />
            </Keyframes>
           </Parameter>
           <Parameter id="307"   name="mode">
            <Keyframes>
            <Keyframe id="308"  time="0/1" value="0" leadInLength="0/1"  />
            </Keyframes>
           </Parameter>
           </Parameters>
          </GenericEffect>
         </Effects>
         <Attributes>
          <Attribute id="309" value="" name="ident"/>
         </Attributes>
         <MetaData>
          <entry key="WinSubProjectDisplayName" val=""/>
         </MetaData>
         <ExtraData>
          <Entry key="ZoomPanBin">
           <ZoomPanBin id="310"  >
            <ZoomPanKeyframes>
             <ZoomPanKeyframe id="311" timeRangeEnd="-9999999/1" timeRangeDuration="0/1" interpolaterName="linr"  />
            </ZoomPanKeyframes>
           </ZoomPanBin>
          </Entry>
         </ExtraData>
        </IMFile>
        <UnifiedMedia id="312"  >
         <AudioTransition id="313" start="357" duration="30" >
          <Parameters>
           <InterpolatingParam id="314" interp="linr"  time="0/1" value="1" leadInLength="0/1"  name="volume"/>
           <Parameter id="315"  name="captions"/>
          </Parameters>
          <Effects>
           <GenericEffect id="316" name = "AudioTransition" >
            <Parameters>
            <Parameter id="317"   name="audioEdgeModType">
             <Keyframes>
             <Keyframe id="318"  time="0/1" value="0" leadInLength="0/1"  />
             </Keyframes>
            </Parameter>
            <Parameter id="319"   name="audioTransitionType">
             <Keyframes>
             <Keyframe id="320"  time="0/1" value="" leadInLength="0/1"  />
             </Keyframes>
            </Parameter>
            </Parameters>
            <MetaData>
            </MetaData>
           </GenericEffect>
          </Effects>
          <Attributes>
           <Attribute id="321" value="" name="ident"/>
           <Attribute id="322" value="0" name="sampleRate"/>
           <Attribute id="323" value="0" name="bitDepth"/>
           <Attribute id="324" value="1" name="gain"/>
           <Attribute id="325" value="0" name="mixToMono"/>
          </Attributes>
         </AudioTransition>
         <ImageTransition id="326" start="357" duration="30" >
          <Transformer>
           <VectorParam id="327"  name="translation">
            <InterpolatingParam id="328" interp="linr"  time="0/1" value="0" leadInLength="0/1"  />
            <InterpolatingParam id="329" interp="linr"  time="0/1" value="0" leadInLength="0/1"  />
            <InterpolatingParam id="330" interp="linr"  time="0/1" value="0" leadInLength="0/1"  />
           </VectorParam>
           <VectorParam id="331"  name="rotation">
            <InterpolatingParam id="332" interp="linr"  time="0/1" value="0" leadInLength="0/1"  />
            <InterpolatingParam id="333" interp="linr"  time="0/1" value="0" leadInLength="0/1"  />
            <InterpolatingParam id="334" interp="linr"  time="0/1" value="0" leadInLength="0/1"  />
           </VectorParam>
           <VectorParam id="335"  name="shear">
            <InterpolatingParam id="336" interp="linr"  time="0/1" value="0" leadInLength="0/1"  />
            <InterpolatingParam id="337" interp="linr"  time="0/1" value="0" leadInLength="0/1"  />
            <InterpolatingParam id="338" interp="linr"  time="0/1" value="0" leadInLength="0/1"  />
           </VectorParam>
           <VectorParam id="339"  name="scale">
            <InterpolatingParam id="340" interp="linr"  time="0/1" value="1" leadInLength="0/1"  />
            <InterpolatingParam id="341" interp="linr"  time="0/1" value="1" leadInLength="0/1"  />
            <InterpolatingParam id="342" interp="linr"  time="0/1" value="1" leadInLength="0/1"  />
           </VectorParam>
           <VectorParam id="343"  name="anchor">
            <InterpolatingParam id="344" interp="linr"  time="0/1" value="0" leadInLength="0/1"  />
            <InterpolatingParam id="345" interp="linr"  time="0/1" value="0" leadInLength="0/1"  />
            <InterpolatingParam id="346" interp="linr"  time="0/1" value="0" leadInLength="0/1"  />
           </VectorParam>
          </Transformer>
          <Parameters>
           <VectorParam id="347"  name="sourceCrop">
            <InterpolatingParam id="348" interp="linr"  time="0/1" value="0" leadInLength="0/1"  />
            <InterpolatingParam id="349" interp="linr"  time="0/1" value="0" leadInLength="0/1"  />
            <InterpolatingParam id="350" interp="linr"  time="0/1" value="0" leadInLength="0/1"  />
            <InterpolatingParam id="351" interp="linr"  time="0/1" value="0" leadInLength="0/1"  />
           </VectorParam>
           <VectorParam id="352"  name="geometryCrop">
            <InterpolatingParam id="353" interp="linr"  time="0/1" value="0" leadInLength="0/1"  />
            <InterpolatingParam id="354" interp="linr"  time="0/1" value="0" leadInLength="0/1"  />
            <InterpolatingParam id="355" interp="linr"  time="0/1" value="0" leadInLength="0/1"  />
            <InterpolatingParam id="356" interp="linr"  time="0/1" value="0" leadInLength="0/1"  />
           </VectorParam>
           <InterpolatingParam id="357" interp="linr"  time="0/1" value="1" leadInLength="0/1"  name="opacity"/>
          </Parameters>
          <Effects>
           <GenericEffect id="358" name = "VisualTransition" >
            <Parameters>
            <InterpolatingParam id="359" interp="linr"  time="0/1" value="1" leadInLength="0/1"   name="leftFramePercentage"/>
            <InterpolatingParam id="360" interp="linr"  time="0/1" value="1" leadInLength="0/1"   name="rightFramePercentage"/>
            <Parameter id="361"   name="visualEdgeModType">
             <Keyframes>
             <Keyframe id="362"  time="0/1" value="0" leadInLength="0/1"  />
             </Keyframes>
            </Parameter>
            <Parameter id="363"   name="visualTransitionType">
             <Keyframes>
             <Keyframe id="364"  time="0/1" value="CubeRotate" leadInLength="0/1"  />
             </Keyframes>
            </Parameter>
            </Parameters>
            <MetaData>
            </MetaData>
           </GenericEffect>
          </Effects>
          <Attributes>
           <Attribute id="365" value="" name="ident"/>
          </Attributes>
          <ExtraData>
           <Entry key="ZoomPanBin">
            <ZoomPanBin id="366"  >
             <ZoomPanKeyframes>
             </ZoomPanKeyframes>
            </ZoomPanBin>
           </Entry>
          </ExtraData>
         </ImageTransition>
         <MetaData>
          <entry key="WinSubProjectDisplayName" val=""/>
         </MetaData>
        </UnifiedMedia>
        <ScreenIMFile id="367" start="387" duration="746" scalar="1/1" mediaStart="121/1" mediaDuration="1/1" trackNumber="0" src="16" trimStartSum="0/1" >
         <Transformer>
          <VectorParam id="368"  name="translation">
           <InterpolatingParam id="369" interp="linr"  time="-9999999/1" value="0" leadInLength="0/1"  />
           <InterpolatingParam id="370" interp="linr"  time="-9999999/1" value="0" leadInLength="0/1"  />
           <InterpolatingParam id="371" interp="linr"  time="-9999999/1" value="0" leadInLength="0/1"  />
          </VectorParam>
          <VectorParam id="372"  name="rotation">
           <InterpolatingParam id="373" interp="linr"  time="-9999999/1" value="0" leadInLength="0/1"  />
           <InterpolatingParam id="374" interp="linr"  time="-9999999/1" value="0" leadInLength="0/1"  />
           <InterpolatingParam id="375" interp="linr"  time="-9999999/1" value="0" leadInLength="0/1"  />
          </VectorParam>
          <VectorParam id="376"  name="shear">
           <InterpolatingParam id="377" interp="linr"  time="-9999999/1" value="0" leadInLength="0/1"  />
           <InterpolatingParam id="378" interp="linr"  time="-9999999/1" value="0" leadInLength="0/1"  />
           <InterpolatingParam id="379" interp="linr"  time="-9999999/1" value="0" leadInLength="0/1"  />
          </VectorParam>
          <VectorParam id="380"  name="scale">
           <InterpolatingParam id="381" interp="linr"  time="-9999999/1" value="1" leadInLength="0/1"  />
           <InterpolatingParam id="382" interp="linr"  time="-9999999/1" value="1" leadInLength="0/1"  />
           <InterpolatingParam id="383" interp="linr"  time="-9999999/1" value="1" leadInLength="0/1"  />
          </VectorParam>
          <VectorParam id="384"  name="anchor">
           <InterpolatingParam id="385" interp="linr"  time="0/1" value="0" leadInLength="0/1"  />
           <InterpolatingParam id="386" interp="linr"  time="0/1" value="0" leadInLength="0/1"  />
           <InterpolatingParam id="387" interp="linr"  time="0/1" value="0" leadInLength="0/1"  />
          </VectorParam>
         </Transformer>
         <Parameters>
          <VectorParam id="388"  name="sourceCrop">
           <InterpolatingParam id="389" interp="linr"  time="0/1" value="0" leadInLength="0/1"  />
           <InterpolatingParam id="390" interp="linr"  time="0/1" value="0" leadInLength="0/1"  />
           <InterpolatingParam id="391" interp="linr"  time="0/1" value="0" leadInLength="0/1"  />
           <InterpolatingParam id="392" interp="linr"  time="0/1" value="0" leadInLength="0/1"  />
          </VectorParam>
          <VectorParam id="393"  name="geometryCrop">
           <InterpolatingParam id="394" interp="linr"  time="-9999999/1" value="0" leadInLength="0/1"  />
           <InterpolatingParam id="395" interp="linr"  time="-9999999/1" value="0" leadInLength="0/1"  />
           <InterpolatingParam id="396" interp="linr"  time="-9999999/1" value="0" leadInLength="0/1"  />
           <InterpolatingParam id="397" interp="linr"  time="-9999999/1" value="0" leadInLength="0/1"  />
          </VectorParam>
          <InterpolatingParam id="398" interp="linr"  time="-9999999/1" value="1" leadInLength="0/1"  name="opacity"/>
          <InterpolatingParam id="399" interp="linr"  name="cursorLocation">
           <Keyframes>
           <Keyframe id="400"  time="-276/1" value="(1310,106,0)" leadInLength="0/1"  />
           <Keyframe id="401"  time="-272/1" value="(1220,122,0)" leadInLength="0/1"  />
           <Keyframe id="402"  time="-271/1" value="(1112,122,0)" leadInLength="0/1"  />
           <Keyframe id="403"  time="-270/1" value="(1050,114,0)" leadInLength="0/1"  />
           <Keyframe id="404"  time="-269/1" value="(1014,109,0)" leadInLength="0/1"  />
           <Keyframe id="405"  time="-268/1" value="(980,100,0)" leadInLength="0/1"  />
           <Keyframe id="406"  time="-267/1" value="(945,92,0)" leadInLength="0/1"  />
           <Keyframe id="407"  time="-266/1" value="(924,88,0)" leadInLength="0/1"  />
           <Keyframe id="408"  time="-265/1" value="(899,82,0)" leadInLength="0/1"  />
           <Keyframe id="409"  time="-264/1" value="(861,72,0)" leadInLength="0/1"  />
           <Keyframe id="410"  time="-263/1" value="(845,67,0)" leadInLength="0/1"  />
           <Keyframe id="411"  time="-262/1" value="(827,62,0)" leadInLength="0/1"  />
           <Keyframe id="412"  time="-261/1" value="(821,59,0)" leadInLength="0/1"  />
           <Keyframe id="413"  time="-260/1" value="(820,59,0)" leadInLength="0/1"  />
           <Keyframe id="414"  time="-251/1" value="(820,59,0)" leadInLength="0/1"  />
           <Keyframe id="415"  time="-250/1" value="(820,63,0)" leadInLength="0/1"  />
           <Keyframe id="416"  time="-249/1" value="(821,68,0)" leadInLength="0/1"  />
           <Keyframe id="417"  time="-248/1" value="(821,69,0)" leadInLength="0/1"  />
           <Keyframe id="418"  time="-245/1" value="(821,69,0)" leadInLength="0/1"  />
           <Keyframe id="419"  time="-242/1" value="(821,69,0)" leadInLength="0/1"  />
           <Keyframe id="420"  time="0/1" value="(821,69,0)" leadInLength="0/1"  />
           </Keyframes>
          </InterpolatingParam>
          <InterpolatingParam id="421" interp="linr"  time="0/1" value="(87,53,1300,929)" leadInLength="0/1"  name="topmostWindowCoordinates"/>
          <InterpolatingParam id="422" interp="linr"  name="cursorAction">
           <Keyframes>
           <Keyframe id="423"  time="-245/1" value="1" leadInLength="0/1"  />
           <Keyframe id="424"  time="-242/1" value="2" leadInLength="0/1"  />
           </Keyframes>
          </InterpolatingParam>
          <Parameter id="425"  name="cursorImagePath">
           <Keyframes>
           <Keyframe id="426"  time="0/1" value="2b7b6af1-7a1f-11e2-83d0-0017f200be7f/0" leadInLength="0/1"  />
           </Keyframes>
          </Parameter>
          <InterpolatingParam id="427" interp="linr"  time="0/1" value="(98,181,1280,720)" leadInLength="0/1"  name="recordingRegion"/>
          <InterpolatingParam id="428" interp="linr"  time="0/1" value="1" leadInLength="0/1"  name="recordedCursorOpacity"/>
          <InterpolatingParam id="429" interp="linr"  time="0/1" value="1" leadInLength="0/1"  name="cursorScale"/>
         </Parameters>
         <Effects>
          <GenericEffect id="430" name = "CursorBaseEffectName" >
           <Parameters>
           <InterpolatingParam id="431" interp="linr"  time="-9999999/1" value="1" leadInLength="0/1"   name="cursorSize"/>
           <InterpolatingParam id="432" interp="linr"  time="-9999999/1" value="0" leadInLength="0/1"   name="highlightBlurRadius"/>
           <InterpolatingParam id="433" interp="linr"  time="-9999999/1" value="0" leadInLength="0/1"   name="highlightColorBlue"/>
           <InterpolatingParam id="434" interp="linr"  time="-9999999/1" value="255" leadInLength="0/1"   name="highlightColorGreen"/>
           <InterpolatingParam id="435" interp="linr"  time="-9999999/1" value="255" leadInLength="0/1"   name="highlightColorRed"/>
           <InterpolatingParam id="436" interp="linr"  time="-9999999/1" value="5" leadInLength="0/1"   name="highlightFeatherSize"/>
           <InterpolatingParam id="437" interp="linr"  time="-9999999/1" value="2" leadInLength="0/1"   name="highlightMagnification"/>
           <InterpolatingParam id="438" interp="linr"  time="-9999999/1" value="1" leadInLength="0/1"   name="highlightOpacity"/>
           <InterpolatingParam id="439" interp="linr"  time="-9999999/1" value="45" leadInLength="0/1"   name="highlightSize"/>
           <Parameter id="440"   name="highlightType">
            <Keyframes>
            <Keyframe id="441"  time="-9999999/1" value="0" leadInLength="0/1"  />
            </Keyframes>
           </Parameter>
           <InterpolatingParam id="442" interp="linr"  time="-9999999/1" value="0" leadInLength="0/1"   name="leftClickColorBlue"/>
           <InterpolatingParam id="443" interp="linr"  time="-9999999/1" value="0" leadInLength="0/1"   name="leftClickColorGreen"/>
           <InterpolatingParam id="444" interp="linr"  time="-9999999/1" value="255" leadInLength="0/1"   name="leftClickColorRed"/>
           <InterpolatingParam id="445" interp="linr"  time="-9999999/1" value="0.80000000000000004" leadInLength="0/1"   name="leftClickDuration"/>
           <InterpolatingParam id="446" interp="linr"  time="-9999999/1" value="20" leadInLength="0/1"   name="leftClickSize"/>
           <Parameter id="447"   name="leftClickSoundFilename">
            <Keyframes>
            <Keyframe id="448"  time="-9999999/1" value="" leadInLength="0/1"  />
            </Keyframes>
           </Parameter>
           <InterpolatingParam id="449" interp="linr"  time="-9999999/1" value="1" leadInLength="0/1"   name="leftClickSoundVolume"/>
           <Parameter id="450"   name="leftClickType">
            <Keyframes>
            <Keyframe id="451"  time="-9999999/1" value="0" leadInLength="0/1"  />
            </Keyframes>
           </Parameter>
           <InterpolatingParam id="452" interp="linr"  time="-9999999/1" value="1" leadInLength="0/1"   name="opacity"/>
           <InterpolatingParam id="453" interp="linr"  time="-9999999/1" value="255" leadInLength="0/1"   name="rightClickColorBlue"/>
           <InterpolatingParam id="454" interp="linr"  time="-9999999/1" value="0" leadInLength="0/1"   name="rightClickColorGreen"/>
           <InterpolatingParam id="455" interp="linr"  time="-9999999/1" value="0" leadInLength="0/1"   name="rightClickColorRed"/>
           <InterpolatingParam id="456" interp="linr"  time="-9999999/1" value="0.80000000000000004" leadInLength="0/1"   name="rightClickDuration"/>
           <InterpolatingParam id="457" interp="linr"  time="-9999999/1" value="20" leadInLength="0/1"   name="rightClickSize"/>
           <Parameter id="458"   name="rightClickSoundFilename">
            <Keyframes>
            <Keyframe id="459"  time="-9999999/1" value="" leadInLength="0/1"  />
            </Keyframes>
           </Parameter>
           <InterpolatingParam id="460" interp="linr"  time="-9999999/1" value="1" leadInLength="0/1"   name="rightClickSoundVolume"/>
           <Parameter id="461"   name="rightClickType">
            <Keyframes>
            <Keyframe id="462"  time="-9999999/1" value="0" leadInLength="0/1"  />
            </Keyframes>
           </Parameter>
           </Parameters>
          </GenericEffect>
          <GenericEffect id="463" name = "Colorize" >
           <Parameters>
           <InterpolatingParam id="464" interp="linr"  time="0/1" value="1" leadInLength="0/1"   name="amount"/>
           <InterpolatingParam id="465" interp="linr"  time="0/1" value="255" leadInLength="0/1"   name="color-alpha"/>
           <InterpolatingParam id="466" interp="linr"  time="0/1" value="23" leadInLength="0/1"   name="color-blue"/>
           <InterpolatingParam id="467" interp="linr"  time="0/1" value="120" leadInLength="0/1"   name="color-green"/>
           <InterpolatingParam id="468" interp="linr"  time="0/1" value="255" leadInLength="0/1"   name="color-red"/>
           <Parameter id="469"   name="enabled">
            <Keyframes>
            <Keyframe id="470"  time="0/1" value="1" leadInLength="0/1"  />
            </Keyframes>
           </Parameter>
           <Parameter id="471"   name="mode">
            <Keyframes>
            <Keyframe id="472"  time="0/1" value="0" leadInLength="0/1"  />
            </Keyframes>
           </Parameter>
           </Parameters>
          </GenericEffect>
          <GenericEffect id="473" name = "ChromaKey" >
           <Parameters>
           <InterpolatingParam id="474" interp="linr"  time="0/1" value="0" leadInLength="0/1"   name="clrCompensation"/>
           <InterpolatingParam id="475" interp="linr"  time="0/1" value="255" leadInLength="0/1"   name="color-alpha"/>
           <InterpolatingParam id="476" interp="linr"  time="0/1" value="70" leadInLength="0/1"   name="color-blue"/>
           <InterpolatingParam id="477" interp="linr"  time="0/1" value="150" leadInLength="0/1"   name="color-green"/>
           <InterpolatingParam id="478" interp="linr"  time="0/1" value="247" leadInLength="0/1"   name="color-red"/>
           <InterpolatingParam id="479" interp="linr"  time="0/1" value="0" leadInLength="0/1"   name="defringe"/>
           <Parameter id="480"   name="enabled">
            <Keyframes>
            <Keyframe id="481"  time="0/1" value="0" leadInLength="0/1"  />
            </Keyframes>
           </Parameter>
           <InterpolatingParam id="482" interp="linr"  time="0/1" value="0" leadInLength="0/1"   name="invertEffect"/>
           <InterpolatingParam id="483" interp="linr"  time="0/1" value="0.10000000000000001" leadInLength="0/1"   name="softness"/>
           <InterpolatingParam id="484" interp="linr"  time="0/1" value="0.10000000000000001" leadInLength="0/1"   name="tolerance"/>
           </Parameters>
          </GenericEffect>
         </Effects>
         <Attributes>
          <Attribute id="485" value="" name="ident"/>
         </Attributes>
         <MetaData>
          <entry key="AutoAppliedSmartFocus" val="False"/>
          <entry key="WinSubProjectDisplayName" val=""/>
         </MetaData>
         <ExtraData>
          <Entry key="ZoomPanBin">
           <ZoomPanBin id="486"  >
            <ZoomPanKeyframes>
             <ZoomPanKeyframe id="487" timeRangeEnd="-9999999/1" timeRangeDuration="0/1" interpolaterName="linr"  />
            </ZoomPanKeyframes>
           </ZoomPanBin>
          </Entry>
          <Entry key="CursorEffectBin">
           <CursorEffectBin id="488"  >
            <CursorEffectKeyframes>
             <CursorEffectKeyframe id="489" timeRangeEnd="-9999999/1" timeRangeDuration="0/1" interpolaterName=""  />
            </CursorEffectKeyframes>
           </CursorEffectBin>
          </Entry>
         </ExtraData>
        </ScreenIMFile>
        <UnifiedMedia id="490"  >
         <AudioTransition id="491" start="1133" duration="54" >
          <Parameters>
           <InterpolatingParam id="492" interp="linr"  time="0/1" value="1" leadInLength="0/1"  name="volume"/>
           <Parameter id="493"  name="captions"/>
          </Parameters>
          <Effects>
           <GenericEffect id="494" name = "AudioTransition" >
            <Parameters>
            <Parameter id="495"   name="audioEdgeModType">
             <Keyframes>
             <Keyframe id="496"  time="0/1" value="0" leadInLength="0/1"  />
             </Keyframes>
            </Parameter>
            <Parameter id="497"   name="audioTransitionType">
             <Keyframes>
             <Keyframe id="498"  time="0/1" value="" leadInLength="0/1"  />
             </Keyframes>
            </Parameter>
            </Parameters>
            <MetaData>
            </MetaData>
           </GenericEffect>
          </Effects>
          <Attributes>
           <Attribute id="499" value="" name="ident"/>
           <Attribute id="500" value="0" name="sampleRate"/>
           <Attribute id="501" value="0" name="bitDepth"/>
           <Attribute id="502" value="1" name="gain"/>
           <Attribute id="503" value="0" name="mixToMono"/>
          </Attributes>
         </AudioTransition>
         <ImageTransition id="504" start="1133" duration="54" >
          <Transformer>
           <VectorParam id="505"  name="translation">
            <InterpolatingParam id="506" interp="linr"  time="0/1" value="0" leadInLength="0/1"  />
            <InterpolatingParam id="507" interp="linr"  time="0/1" value="0" leadInLength="0/1"  />
            <InterpolatingParam id="508" interp="linr"  time="0/1" value="0" leadInLength="0/1"  />
           </VectorParam>
           <VectorParam id="509"  name="rotation">
            <InterpolatingParam id="510" interp="linr"  time="0/1" value="0" leadInLength="0/1"  />
            <InterpolatingParam id="511" interp="linr"  time="0/1" value="0" leadInLength="0/1"  />
            <InterpolatingParam id="512" interp="linr"  time="0/1" value="0" leadInLength="0/1"  />
           </VectorParam>
           <VectorParam id="513"  name="shear">
            <InterpolatingParam id="514" interp="linr"  time="0/1" value="0" leadInLength="0/1"  />
            <InterpolatingParam id="515" interp="linr"  time="0/1" value="0" leadInLength="0/1"  />
            <InterpolatingParam id="516" interp="linr"  time="0/1" value="0" leadInLength="0/1"  />
           </VectorParam>
           <VectorParam id="517"  name="scale">
            <InterpolatingParam id="518" interp="linr"  time="0/1" value="1" leadInLength="0/1"  />
            <InterpolatingParam id="519" interp="linr"  time="0/1" value="1" leadInLength="0/1"  />
            <InterpolatingParam id="520" interp="linr"  time="0/1" value="1" leadInLength="0/1"  />
           </VectorParam>
           <VectorParam id="521"  name="anchor">
            <InterpolatingParam id="522" interp="linr"  time="0/1" value="0" leadInLength="0/1"  />
            <InterpolatingParam id="523" interp="linr"  time="0/1" value="0" leadInLength="0/1"  />
            <InterpolatingParam id="524" interp="linr"  time="0/1" value="0" leadInLength="0/1"  />
           </VectorParam>
          </Transformer>
          <Parameters>
           <VectorParam id="525"  name="sourceCrop">
            <InterpolatingParam id="526" interp="linr"  time="0/1" value="0" leadInLength="0/1"  />
            <InterpolatingParam id="527" interp="linr"  time="0/1" value="0" leadInLength="0/1"  />
            <InterpolatingParam id="528" interp="linr"  time="0/1" value="0" leadInLength="0/1"  />
            <InterpolatingParam id="529" interp="linr"  time="0/1" value="0" leadInLength="0/1"  />
           </VectorParam>
           <VectorParam id="530"  name="geometryCrop">
            <InterpolatingParam id="531" interp="linr"  time="0/1" value="0" leadInLength="0/1"  />
            <InterpolatingParam id="532" interp="linr"  time="0/1" value="0" leadInLength="0/1"  />
            <InterpolatingParam id="533" interp="linr"  time="0/1" value="0" leadInLength="0/1"  />
            <InterpolatingParam id="534" interp="linr"  time="0/1" value="0" leadInLength="0/1"  />
           </VectorParam>
           <InterpolatingParam id="535" interp="linr"  time="0/1" value="1" leadInLength="0/1"  name="opacity"/>
          </Parameters>
          <Effects>
           <GenericEffect id="536" name = "VisualTransition" >
            <Parameters>
            <InterpolatingParam id="537" interp="linr"  time="0/1" value="1" leadInLength="0/1"   name="leftFramePercentage"/>
            <InterpolatingParam id="538" interp="linr"  time="0/1" value="1" leadInLength="0/1"   name="rightFramePercentage"/>
            <Parameter id="539"   name="visualEdgeModType">
             <Keyframes>
             <Keyframe id="540"  time="0/1" value="0" leadInLength="0/1"  />
             </Keyframes>
            </Parameter>
            <Parameter id="541"   name="visualTransitionType">
             <Keyframes>
             <Keyframe id="542"  time="0/1" value="Pixelate" leadInLength="0/1"  />
             </Keyframes>
            </Parameter>
            </Parameters>
            <MetaData>
            </MetaData>
           </GenericEffect>
          </Effects>
          <Attributes>
           <Attribute id="543" value="" name="ident"/>
          </Attributes>
          <ExtraData>
           <Entry key="ZoomPanBin">
            <ZoomPanBin id="544"  >
             <ZoomPanKeyframes>
             </ZoomPanKeyframes>
            </ZoomPanBin>
           </Entry>
          </ExtraData>
         </ImageTransition>
         <MetaData>
          <entry key="WinSubProjectDisplayName" val=""/>
         </MetaData>
        </UnifiedMedia>
        <StitchedMedia id="545" start="1187" duration="310" scalar="1/1" mediaStart="149/1" mediaDuration="310/1" minMediaStart="0/1" >
         <Transformer>
          <VectorParam id="546"  name="translation">
           <InterpolatingParam id="547" interp="linr"  time="-9999999/1" value="0" leadInLength="0/1"  />
           <InterpolatingParam id="548" interp="linr"  time="-9999999/1" value="0" leadInLength="0/1"  />
           <InterpolatingParam id="549" interp="linr"  time="-9999999/1" value="0" leadInLength="0/1"  />
          </VectorParam>
          <VectorParam id="550"  name="rotation">
           <InterpolatingParam id="551" interp="linr"  time="-9999999/1" value="0" leadInLength="0/1"  />
           <InterpolatingParam id="552" interp="linr"  time="-9999999/1" value="0" leadInLength="0/1"  />
           <InterpolatingParam id="553" interp="linr"  time="-9999999/1" value="0" leadInLength="0/1"  />
          </VectorParam>
          <VectorParam id="554"  name="shear">
           <InterpolatingParam id="555" interp="linr"  time="-9999999/1" value="0" leadInLength="0/1"  />
           <InterpolatingParam id="556" interp="linr"  time="-9999999/1" value="0" leadInLength="0/1"  />
           <InterpolatingParam id="557" interp="linr"  time="-9999999/1" value="0" leadInLength="0/1"  />
          </VectorParam>
          <VectorParam id="558"  name="scale">
           <InterpolatingParam id="559" interp="linr"  time="-9999999/1" value="1" leadInLength="0/1"  />
           <InterpolatingParam id="560" interp="linr"  time="-9999999/1" value="1" leadInLength="0/1"  />
           <InterpolatingParam id="561" interp="linr"  time="-9999999/1" value="1" leadInLength="0/1"  />
          </VectorParam>
          <VectorParam id="562"  name="anchor">
           <InterpolatingParam id="563" interp="linr"  >
            <Keyframes>
            <Keyframe id="564"  time="0/1" value="0" leadInLength="0/1"  />
            <Keyframe id="565"  time="144/1" value="0" leadInLength="0/1"  />
            </Keyframes>
           </InterpolatingParam>
           <InterpolatingParam id="566" interp="linr"  >
            <Keyframes>
            <Keyframe id="567"  time="0/1" value="0" leadInLength="0/1"  />
            <Keyframe id="568"  time="144/1" value="0" leadInLength="0/1"  />
            </Keyframes>
           </InterpolatingParam>
           <InterpolatingParam id="569" interp="linr"  >
            <Keyframes>
            <Keyframe id="570"  time="0/1" value="0" leadInLength="0/1"  />
            <Keyframe id="571"  time="144/1" value="0" leadInLength="0/1"  />
            </Keyframes>
           </InterpolatingParam>
          </VectorParam>
         </Transformer>
         <Parameters>
          <VectorParam id="572"  name="sourceCrop">
           <InterpolatingParam id="573" interp="linr"  >
            <Keyframes>
            <Keyframe id="574"  time="0/1" value="0" leadInLength="0/1"  />
            <Keyframe id="575"  time="144/1" value="0" leadInLength="0/1"  />
            </Keyframes>
           </InterpolatingParam>
           <InterpolatingParam id="576" interp="linr"  >
            <Keyframes>
            <Keyframe id="577"  time="0/1" value="0" leadInLength="0/1"  />
            <Keyframe id="578"  time="144/1" value="0" leadInLength="0/1"  />
            </Keyframes>
           </InterpolatingParam>
           <InterpolatingParam id="579" interp="linr"  >
            <Keyframes>
            <Keyframe id="580"  time="0/1" value="0" leadInLength="0/1"  />
            <Keyframe id="581"  time="144/1" value="0" leadInLength="0/1"  />
            </Keyframes>
           </InterpolatingParam>
           <InterpolatingParam id="582" interp="linr"  >
            <Keyframes>
            <Keyframe id="583"  time="0/1" value="0" leadInLength="0/1"  />
            <Keyframe id="584"  time="144/1" value="0" leadInLength="0/1"  />
            </Keyframes>
           </InterpolatingParam>
          </VectorParam>
          <VectorParam id="585"  name="geometryCrop">
           <InterpolatingParam id="586" interp="linr"  time="-9999999/1" value="0" leadInLength="0/1"  />
           <InterpolatingParam id="587" interp="linr"  time="-9999999/1" value="0" leadInLength="0/1"  />
           <InterpolatingParam id="588" interp="linr"  time="-9999999/1" value="0" leadInLength="0/1"  />
           <InterpolatingParam id="589" interp="linr"  time="-9999999/1" value="0" leadInLength="0/1"  />
          </VectorParam>
          <InterpolatingParam id="590" interp="linr"  time="-9999999/1" value="1" leadInLength="0/1"  name="opacity"/>
          <InterpolatingParam id="591" interp="linr"  time="0/1" value="1" leadInLength="0/1"  name="cursorOpacity"/>
          <InterpolatingParam id="592" interp="linr"  name="cursorScale">
           <Keyframes>
           <Keyframe id="593"  time="0/1" value="1" leadInLength="0/1"  />
           <Keyframe id="594"  time="144/1" value="1" leadInLength="0/1"  />
           </Keyframes>
          </InterpolatingParam>
          <Parameter id="595"  name="captions"/>
         </Parameters>
         <Effects>
          <GenericEffect id="596" name = "CursorBaseEffectName" >
           <Parameters>
           <InterpolatingParam id="597" interp="linr"  time="-9999999/1" value="1" leadInLength="0/1"   name="cursorSize"/>
           <InterpolatingParam id="598" interp="linr"  time="-9999999/1" value="0" leadInLength="0/1"   name="highlightBlurRadius"/>
           <InterpolatingParam id="599" interp="linr"  time="-9999999/1" value="0" leadInLength="0/1"   name="highlightColorBlue"/>
           <InterpolatingParam id="600" interp="linr"  time="-9999999/1" value="255" leadInLength="0/1"   name="highlightColorGreen"/>
           <InterpolatingParam id="601" interp="linr"  time="-9999999/1" value="255" leadInLength="0/1"   name="highlightColorRed"/>
           <InterpolatingParam id="602" interp="linr"  time="-9999999/1" value="5" leadInLength="0/1"   name="highlightFeatherSize"/>
           <InterpolatingParam id="603" interp="linr"  time="-9999999/1" value="2" leadInLength="0/1"   name="highlightMagnification"/>
           <InterpolatingParam id="604" interp="linr"  time="-9999999/1" value="1" leadInLength="0/1"   name="highlightOpacity"/>
           <InterpolatingParam id="605" interp="linr"  time="-9999999/1" value="45" leadInLength="0/1"   name="highlightSize"/>
           <Parameter id="606"   name="highlightType">
            <Keyframes>
            <Keyframe id="607"  time="-9999999/1" value="0" leadInLength="0/1"  />
            </Keyframes>
           </Parameter>
           <InterpolatingParam id="608" interp="linr"  time="-9999999/1" value="0" leadInLength="0/1"   name="leftClickColorBlue"/>
           <InterpolatingParam id="609" interp="linr"  time="-9999999/1" value="0" leadInLength="0/1"   name="leftClickColorGreen"/>
           <InterpolatingParam id="610" interp="linr"  time="-9999999/1" value="255" leadInLength="0/1"   name="leftClickColorRed"/>
           <InterpolatingParam id="611" interp="linr"  time="-9999999/1" value="0.80000000000000004" leadInLength="0/1"   name="leftClickDuration"/>
           <InterpolatingParam id="612" interp="linr"  time="-9999999/1" value="20" leadInLength="0/1"   name="leftClickSize"/>
           <Parameter id="613"   name="leftClickSoundFilename">
            <Keyframes>
            <Keyframe id="614"  time="-9999999/1" value="" leadInLength="0/1"  />
            </Keyframes>
           </Parameter>
           <InterpolatingParam id="615" interp="linr"  time="-9999999/1" value="1" leadInLength="0/1"   name="leftClickSoundVolume"/>
           <Parameter id="616"   name="leftClickType">
            <Keyframes>
            <Keyframe id="617"  time="-9999999/1" value="0" leadInLength="0/1"  />
            </Keyframes>
           </Parameter>
           <InterpolatingParam id="618" interp="linr"  time="-9999999/1" value="1" leadInLength="0/1"   name="opacity"/>
           <InterpolatingParam id="619" interp="linr"  time="-9999999/1" value="255" leadInLength="0/1"   name="rightClickColorBlue"/>
           <InterpolatingParam id="620" interp="linr"  time="-9999999/1" value="0" leadInLength="0/1"   name="rightClickColorGreen"/>
           <InterpolatingParam id="621" interp="linr"  time="-9999999/1" value="0" leadInLength="0/1"   name="rightClickColorRed"/>
           <InterpolatingParam id="622" interp="linr"  time="-9999999/1" value="0.80000000000000004" leadInLength="0/1"   name="rightClickDuration"/>
           <InterpolatingParam id="623" interp="linr"  time="-9999999/1" value="20" leadInLength="0/1"   name="rightClickSize"/>
           <Parameter id="624"   name="rightClickSoundFilename">
            <Keyframes>
            <Keyframe id="625"  time="-9999999/1" value="" leadInLength="0/1"  />
            </Keyframes>
           </Parameter>
           <InterpolatingParam id="626" interp="linr"  time="-9999999/1" value="1" leadInLength="0/1"   name="rightClickSoundVolume"/>
           <Parameter id="627"   name="rightClickType">
            <Keyframes>
            <Keyframe id="628"  time="-9999999/1" value="0" leadInLength="0/1"  />
            </Keyframes>
           </Parameter>
           </Parameters>
          </GenericEffect>
          <GenericEffect id="629" name = "Colorize" >
           <Parameters>
           <InterpolatingParam id="630" interp="linr"  time="0/1" value="1" leadInLength="0/1"   name="amount"/>
           <InterpolatingParam id="631" interp="linr"  time="0/1" value="255" leadInLength="0/1"   name="color-alpha"/>
           <InterpolatingParam id="632" interp="linr"  time="0/1" value="23" leadInLength="0/1"   name="color-blue"/>
           <InterpolatingParam id="633" interp="linr"  time="0/1" value="120" leadInLength="0/1"   name="color-green"/>
           <InterpolatingParam id="634" interp="linr"  time="0/1" value="255" leadInLength="0/1"   name="color-red"/>
           <Parameter id="635"   name="enabled">
            <Keyframes>
            <Keyframe id="636"  time="0/1" value="1" leadInLength="0/1"  />
            </Keyframes>
           </Parameter>
           <Parameter id="637"   name="mode">
            <Keyframes>
            <Keyframe id="638"  time="0/1" value="0" leadInLength="0/1"  />
            </Keyframes>
           </Parameter>
           </Parameters>
          </GenericEffect>
          <GenericEffect id="639" name = "ChromaKey" >
           <Parameters>
           <InterpolatingParam id="640" interp="linr"  time="0/1" value="0" leadInLength="0/1"   name="clrCompensation"/>
           <InterpolatingParam id="641" interp="linr"  time="0/1" value="255" leadInLength="0/1"   name="color-alpha"/>
           <InterpolatingParam id="642" interp="linr"  time="0/1" value="70" leadInLength="0/1"   name="color-blue"/>
           <InterpolatingParam id="643" interp="linr"  time="0/1" value="150" leadInLength="0/1"   name="color-green"/>
           <InterpolatingParam id="644" interp="linr"  time="0/1" value="247" leadInLength="0/1"   name="color-red"/>
           <InterpolatingParam id="645" interp="linr"  time="0/1" value="0" leadInLength="0/1"   name="defringe"/>
           <Parameter id="646"   name="enabled">
            <Keyframes>
            <Keyframe id="647"  time="0/1" value="0" leadInLength="0/1"  />
            </Keyframes>
           </Parameter>
           <InterpolatingParam id="648" interp="linr"  time="0/1" value="0" leadInLength="0/1"   name="invertEffect"/>
           <InterpolatingParam id="649" interp="linr"  time="0/1" value="0.10000000000000001" leadInLength="0/1"   name="softness"/>
           <InterpolatingParam id="650" interp="linr"  time="0/1" value="0.10000000000000001" leadInLength="0/1"   name="tolerance"/>
           </Parameters>
          </GenericEffect>
         </Effects>
         <Attributes>
          <Attribute id="651" value="" name="ident"/>
         </Attributes>
         <MetaData>
          <entry key="AutoAppliedSmartFocus" val="False"/>
          <entry key="WinSubProjectDisplayName" val=""/>
         </MetaData>
         <ExtraData>
          <Entry key="ZoomPanBin">
           <ZoomPanBin id="652"  >
            <ZoomPanKeyframes>
             <ZoomPanKeyframe id="653" timeRangeEnd="-9999999/1" timeRangeDuration="0/1" interpolaterName="linr"  />
            </ZoomPanKeyframes>
           </ZoomPanBin>
          </Entry>
          <Entry key="CursorEffectBin">
           <CursorEffectBin id="654"  >
            <CursorEffectKeyframes>
             <CursorEffectKeyframe id="655" timeRangeEnd="-9999999/1" timeRangeDuration="0/1" interpolaterName=""  />
            </CursorEffectKeyframes>
           </CursorEffectBin>
          </Entry>
         </ExtraData>
         <GenericTrack id="656"  >
          <Attributes>
           <Attribute id="657" value="" name="ident"/>
           <Attribute id="658" value="0" name="audioMuted"/>
           <Attribute id="659" value="0" name="videoHidden"/>
          </Attributes>
          <MetaData>
           <entry key="IsLocked" val="False"/>
           <entry key="WinTrackHeight" val="0"/>
          </MetaData>
          <Medias>
           <ScreenVMFile id="660" start="0" duration="144" scalar="1/1" mediaStart="0/1" mediaDuration="144/1" trackNumber="0" src="16" >
            <Transformer>
             <VectorParam id="661"  name="translation">
              <InterpolatingParam id="662" interp="linr"  time="-9999999/1" value="0" leadInLength="0/1"  />
              <InterpolatingParam id="663" interp="linr"  time="-9999999/1" value="0" leadInLength="0/1"  />
              <InterpolatingParam id="664" interp="linr"  time="-9999999/1" value="0" leadInLength="0/1"  />
             </VectorParam>
             <VectorParam id="665"  name="rotation">
              <InterpolatingParam id="666" interp="linr"  time="-9999999/1" value="0" leadInLength="0/1"  />
              <InterpolatingParam id="667" interp="linr"  time="-9999999/1" value="0" leadInLength="0/1"  />
              <InterpolatingParam id="668" interp="linr"  time="-9999999/1" value="0" leadInLength="0/1"  />
             </VectorParam>
             <VectorParam id="669"  name="shear">
              <InterpolatingParam id="670" interp="linr"  time="-9999999/1" value="0" leadInLength="0/1"  />
              <InterpolatingParam id="671" interp="linr"  time="-9999999/1" value="0" leadInLength="0/1"  />
              <InterpolatingParam id="672" interp="linr"  time="-9999999/1" value="0" leadInLength="0/1"  />
             </VectorParam>
             <VectorParam id="673"  name="scale">
              <InterpolatingParam id="674" interp="linr"  time="-9999999/1" value="1" leadInLength="0/1"  />
              <InterpolatingParam id="675" interp="linr"  time="-9999999/1" value="1" leadInLength="0/1"  />
              <InterpolatingParam id="676" interp="linr"  time="-9999999/1" value="1" leadInLength="0/1"  />
             </VectorParam>
             <VectorParam id="677"  name="anchor">
              <InterpolatingParam id="678" interp="linr"  time="0/1" value="0" leadInLength="0/1"  />
              <InterpolatingParam id="679" interp="linr"  time="0/1" value="0" leadInLength="0/1"  />
              <InterpolatingParam id="680" interp="linr"  time="0/1" value="0" leadInLength="0/1"  />
             </VectorParam>
            </Transformer>
            <Parameters>
             <VectorParam id="681"  name="sourceCrop">
              <InterpolatingParam id="682" interp="linr"  time="0/1" value="0" leadInLength="0/1"  />
              <InterpolatingParam id="683" interp="linr"  time="0/1" value="0" leadInLength="0/1"  />
              <InterpolatingParam id="684" interp="linr"  time="0/1" value="0" leadInLength="0/1"  />
              <InterpolatingParam id="685" interp="linr"  time="0/1" value="0" leadInLength="0/1"  />
             </VectorParam>
             <VectorParam id="686"  name="geometryCrop">
              <InterpolatingParam id="687" interp="linr"  time="-9999999/1" value="0" leadInLength="0/1"  />
              <InterpolatingParam id="688" interp="linr"  time="-9999999/1" value="0" leadInLength="0/1"  />
              <InterpolatingParam id="689" interp="linr"  time="-9999999/1" value="0" leadInLength="0/1"  />
              <InterpolatingParam id="690" interp="linr"  time="-9999999/1" value="0" leadInLength="0/1"  />
             </VectorParam>
             <InterpolatingParam id="691" interp="linr"  time="-9999999/1" value="1" leadInLength="0/1"  name="opacity"/>
             <InterpolatingParam id="692" interp="linr"  time="0/1" value="0" leadInLength="0/1"  name="cursorOpacity"/>
             <InterpolatingParam id="693" interp="linr"  time="0/1" value="0" leadInLength="0/1"  name="cursorScale"/>
            </Parameters>
            <Attributes>
             <Attribute id="694" value="" name="ident"/>
            </Attributes>
            <MetaData>
             <entry key="AutoAppliedSmartFocus" val="False"/>
             <entry key="WinSubProjectDisplayName" val=""/>
            </MetaData>
            <ExtraData>
             <Entry key="ZoomPanBin">
              <ZoomPanBin id="695"  >
               <ZoomPanKeyframes>
                <ZoomPanKeyframe id="696" timeRangeEnd="-9999999/1" timeRangeDuration="0/1" interpolaterName="linr"  />
               </ZoomPanKeyframes>
              </ZoomPanBin>
             </Entry>
             <Entry key="CursorEffectBin">
              <CursorEffectBin id="697"  >
               <CursorEffectKeyframes>
               </CursorEffectKeyframes>
              </CursorEffectBin>
             </Entry>
            </ExtraData>
           </ScreenVMFile>
           <ScreenIMFile id="698" start="144" duration="108030" scalar="1/1" mediaStart="143/1" mediaDuration="1/1" trackNumber="0" src="16" trimStartSum="0/1" >
            <Transformer>
             <VectorParam id="699"  name="translation">
              <InterpolatingParam id="700" interp="linr"  time="-9999999/1" value="0" leadInLength="0/1"  />
              <InterpolatingParam id="701" interp="linr"  time="-9999999/1" value="0" leadInLength="0/1"  />
              <InterpolatingParam id="702" interp="linr"  time="-9999999/1" value="0" leadInLength="0/1"  />
             </VectorParam>
             <VectorParam id="703"  name="rotation">
              <InterpolatingParam id="704" interp="linr"  time="-9999999/1" value="0" leadInLength="0/1"  />
              <InterpolatingParam id="705" interp="linr"  time="-9999999/1" value="0" leadInLength="0/1"  />
              <InterpolatingParam id="706" interp="linr"  time="-9999999/1" value="0" leadInLength="0/1"  />
             </VectorParam>
             <VectorParam id="707"  name="shear">
              <InterpolatingParam id="708" interp="linr"  time="-9999999/1" value="0" leadInLength="0/1"  />
              <InterpolatingParam id="709" interp="linr"  time="-9999999/1" value="0" leadInLength="0/1"  />
              <InterpolatingParam id="710" interp="linr"  time="-9999999/1" value="0" leadInLength="0/1"  />
             </VectorParam>
             <VectorParam id="711"  name="scale">
              <InterpolatingParam id="712" interp="linr"  time="-9999999/1" value="1" leadInLength="0/1"  />
              <InterpolatingParam id="713" interp="linr"  time="-9999999/1" value="1" leadInLength="0/1"  />
              <InterpolatingParam id="714" interp="linr"  time="-9999999/1" value="1" leadInLength="0/1"  />
             </VectorParam>
             <VectorParam id="715"  name="anchor">
              <InterpolatingParam id="716" interp="linr"  time="0/1" value="0" leadInLength="0/1"  />
              <InterpolatingParam id="717" interp="linr"  time="0/1" value="0" leadInLength="0/1"  />
              <InterpolatingParam id="718" interp="linr"  time="0/1" value="0" leadInLength="0/1"  />
             </VectorParam>
            </Transformer>
            <Parameters>
             <VectorParam id="719"  name="sourceCrop">
              <InterpolatingParam id="720" interp="linr"  time="0/1" value="0" leadInLength="0/1"  />
              <InterpolatingParam id="721" interp="linr"  time="0/1" value="0" leadInLength="0/1"  />
              <InterpolatingParam id="722" interp="linr"  time="0/1" value="0" leadInLength="0/1"  />
              <InterpolatingParam id="723" interp="linr"  time="0/1" value="0" leadInLength="0/1"  />
             </VectorParam>
             <VectorParam id="724"  name="geometryCrop">
              <InterpolatingParam id="725" interp="linr"  time="-9999999/1" value="0" leadInLength="0/1"  />
              <InterpolatingParam id="726" interp="linr"  time="-9999999/1" value="0" leadInLength="0/1"  />
              <InterpolatingParam id="727" interp="linr"  time="-9999999/1" value="0" leadInLength="0/1"  />
              <InterpolatingParam id="728" interp="linr"  time="-9999999/1" value="0" leadInLength="0/1"  />
             </VectorParam>
             <InterpolatingParam id="729" interp="linr"  time="-9999999/1" value="1" leadInLength="0/1"  name="opacity"/>
             <InterpolatingParam id="730" interp="linr"  name="cursorLocation">
              <Keyframes>
              <Keyframe id="731"  time="-298/1" value="(1310,106,0)" leadInLength="0/1"  />
              <Keyframe id="732"  time="-294/1" value="(1220,122,0)" leadInLength="0/1"  />
              <Keyframe id="733"  time="-293/1" value="(1112,122,0)" leadInLength="0/1"  />
              <Keyframe id="734"  time="-292/1" value="(1050,114,0)" leadInLength="0/1"  />
              <Keyframe id="735"  time="-291/1" value="(1014,109,0)" leadInLength="0/1"  />
              <Keyframe id="736"  time="-290/1" value="(980,100,0)" leadInLength="0/1"  />
              <Keyframe id="737"  time="-289/1" value="(945,92,0)" leadInLength="0/1"  />
              <Keyframe id="738"  time="-288/1" value="(924,88,0)" leadInLength="0/1"  />
              <Keyframe id="739"  time="-287/1" value="(899,82,0)" leadInLength="0/1"  />
              <Keyframe id="740"  time="-286/1" value="(861,72,0)" leadInLength="0/1"  />
              <Keyframe id="741"  time="-285/1" value="(845,67,0)" leadInLength="0/1"  />
              <Keyframe id="742"  time="-284/1" value="(827,62,0)" leadInLength="0/1"  />
              <Keyframe id="743"  time="-283/1" value="(821,59,0)" leadInLength="0/1"  />
              <Keyframe id="744"  time="-282/1" value="(820,59,0)" leadInLength="0/1"  />
              <Keyframe id="745"  time="-273/1" value="(820,59,0)" leadInLength="0/1"  />
              <Keyframe id="746"  time="-272/1" value="(820,63,0)" leadInLength="0/1"  />
              <Keyframe id="747"  time="-271/1" value="(821,68,0)" leadInLength="0/1"  />
              <Keyframe id="748"  time="-270/1" value="(821,69,0)" leadInLength="0/1"  />
              <Keyframe id="749"  time="-267/1" value="(821,69,0)" leadInLength="0/1"  />
              <Keyframe id="750"  time="-264/1" value="(821,69,0)" leadInLength="0/1"  />
              <Keyframe id="751"  time="0/1" value="(821,69,0)" leadInLength="0/1"  />
              </Keyframes>
             </InterpolatingParam>
             <InterpolatingParam id="752" interp="linr"  time="0/1" value="(87,53,1300,929)" leadInLength="0/1"  name="topmostWindowCoordinates"/>
             <InterpolatingParam id="753" interp="linr"  name="cursorAction">
              <Keyframes>
              <Keyframe id="754"  time="-267/1" value="1" leadInLength="0/1"  />
              <Keyframe id="755"  time="-264/1" value="2" leadInLength="0/1"  />
              </Keyframes>
             </InterpolatingParam>
             <Parameter id="756"  name="cursorImagePath">
              <Keyframes>
              <Keyframe id="757"  time="0/1" value="2b7b6af1-7a1f-11e2-83d0-0017f200be7f/0" leadInLength="0/1"  />
              </Keyframes>
             </Parameter>
             <InterpolatingParam id="758" interp="linr"  time="0/1" value="(98,181,1280,720)" leadInLength="0/1"  name="recordingRegion"/>
             <InterpolatingParam id="759" interp="linr"  time="0/1" value="0" leadInLength="0/1"  name="cursorOpacity"/>
             <InterpolatingParam id="760" interp="linr"  time="0/1" value="1" leadInLength="0/1"  name="recordedCursorOpacity"/>
             <InterpolatingParam id="761" interp="linr"  time="0/1" value="0" leadInLength="0/1"  name="cursorScale"/>
            </Parameters>
            <Attributes>
             <Attribute id="762" value="" name="ident"/>
            </Attributes>
            <MetaData>
             <entry key="AutoAppliedSmartFocus" val="False"/>
             <entry key="WinSubProjectDisplayName" val=""/>
            </MetaData>
            <ExtraData>
             <Entry key="ZoomPanBin">
              <ZoomPanBin id="763"  >
               <ZoomPanKeyframes>
                <ZoomPanKeyframe id="764" timeRangeEnd="-9999999/1" timeRangeDuration="0/1" interpolaterName="linr"  />
               </ZoomPanKeyframes>
              </ZoomPanBin>
             </Entry>
             <Entry key="CursorEffectBin">
              <CursorEffectBin id="765"  >
               <CursorEffectKeyframes>
               </CursorEffectKeyframes>
              </CursorEffectBin>
             </Entry>
            </ExtraData>
           </ScreenIMFile>
          </Medias>
         </GenericTrack>
        </StitchedMedia>
        <UnifiedMedia id="766"  >
         <AudioTransition id="767" start="1497" duration="40" >
          <Parameters>
           <InterpolatingParam id="768" interp="linr"  time="0/1" value="1" leadInLength="0/1"  name="volume"/>
           <Parameter id="769"  name="captions"/>
          </Parameters>
          <Effects>
           <GenericEffect id="770" name = "AudioTransition" >
            <Parameters>
            <Parameter id="771"   name="audioEdgeModType">
             <Keyframes>
             <Keyframe id="772"  time="0/1" value="0" leadInLength="0/1"  />
             </Keyframes>
            </Parameter>
            <Parameter id="773"   name="audioTransitionType">
             <Keyframes>
             <Keyframe id="774"  time="0/1" value="" leadInLength="0/1"  />
             </Keyframes>
            </Parameter>
            </Parameters>
            <MetaData>
            </MetaData>
           </GenericEffect>
          </Effects>
          <Attributes>
           <Attribute id="775" value="" name="ident"/>
           <Attribute id="776" value="0" name="sampleRate"/>
           <Attribute id="777" value="0" name="bitDepth"/>
           <Attribute id="778" value="1" name="gain"/>
           <Attribute id="779" value="0" name="mixToMono"/>
          </Attributes>
         </AudioTransition>
         <ImageTransition id="780" start="1497" duration="40" >
          <Transformer>
           <VectorParam id="781"  name="translation">
            <InterpolatingParam id="782" interp="linr"  time="0/1" value="0" leadInLength="0/1"  />
            <InterpolatingParam id="783" interp="linr"  time="0/1" value="0" leadInLength="0/1"  />
            <InterpolatingParam id="784" interp="linr"  time="0/1" value="0" leadInLength="0/1"  />
           </VectorParam>
           <VectorParam id="785"  name="rotation">
            <InterpolatingParam id="786" interp="linr"  time="0/1" value="0" leadInLength="0/1"  />
            <InterpolatingParam id="787" interp="linr"  time="0/1" value="0" leadInLength="0/1"  />
            <InterpolatingParam id="788" interp="linr"  time="0/1" value="0" leadInLength="0/1"  />
           </VectorParam>
           <VectorParam id="789"  name="shear">
            <InterpolatingParam id="790" interp="linr"  time="0/1" value="0" leadInLength="0/1"  />
            <InterpolatingParam id="791" interp="linr"  time="0/1" value="0" leadInLength="0/1"  />
            <InterpolatingParam id="792" interp="linr"  time="0/1" value="0" leadInLength="0/1"  />
           </VectorParam>
           <VectorParam id="793"  name="scale">
            <InterpolatingParam id="794" interp="linr"  time="0/1" value="1" leadInLength="0/1"  />
            <InterpolatingParam id="795" interp="linr"  time="0/1" value="1" leadInLength="0/1"  />
            <InterpolatingParam id="796" interp="linr"  time="0/1" value="1" leadInLength="0/1"  />
           </VectorParam>
           <VectorParam id="797"  name="anchor">
            <InterpolatingParam id="798" interp="linr"  time="0/1" value="0" leadInLength="0/1"  />
            <InterpolatingParam id="799" interp="linr"  time="0/1" value="0" leadInLength="0/1"  />
            <InterpolatingParam id="800" interp="linr"  time="0/1" value="0" leadInLength="0/1"  />
           </VectorParam>
          </Transformer>
          <Parameters>
           <VectorParam id="801"  name="sourceCrop">
            <InterpolatingParam id="802" interp="linr"  time="0/1" value="0" leadInLength="0/1"  />
            <InterpolatingParam id="803" interp="linr"  time="0/1" value="0" leadInLength="0/1"  />
            <InterpolatingParam id="804" interp="linr"  time="0/1" value="0" leadInLength="0/1"  />
            <InterpolatingParam id="805" interp="linr"  time="0/1" value="0" leadInLength="0/1"  />
           </VectorParam>
           <VectorParam id="806"  name="geometryCrop">
            <InterpolatingParam id="807" interp="linr"  time="0/1" value="0" leadInLength="0/1"  />
            <InterpolatingParam id="808" interp="linr"  time="0/1" value="0" leadInLength="0/1"  />
            <InterpolatingParam id="809" interp="linr"  time="0/1" value="0" leadInLength="0/1"  />
            <InterpolatingParam id="810" interp="linr"  time="0/1" value="0" leadInLength="0/1"  />
           </VectorParam>
           <InterpolatingParam id="811" interp="linr"  time="0/1" value="1" leadInLength="0/1"  name="opacity"/>
          </Parameters>
          <Effects>
           <GenericEffect id="812" name = "VisualTransition" >
            <Parameters>
            <InterpolatingParam id="813" interp="linr"  time="0/1" value="1" leadInLength="0/1"   name="leftFramePercentage"/>
            <InterpolatingParam id="814" interp="linr"  time="0/1" value="1" leadInLength="0/1"   name="rightFramePercentage"/>
            <Parameter id="815"   name="visualEdgeModType">
             <Keyframes>
             <Keyframe id="816"  time="0/1" value="0" leadInLength="0/1"  />
             </Keyframes>
            </Parameter>
            <Parameter id="817"   name="visualTransitionType">
             <Keyframes>
             <Keyframe id="818"  time="0/1" value="Pixelate" leadInLength="0/1"  />
             </Keyframes>
            </Parameter>
            </Parameters>
            <MetaData>
            </MetaData>
           </GenericEffect>
          </Effects>
          <Attributes>
           <Attribute id="819" value="" name="ident"/>
          </Attributes>
          <ExtraData>
           <Entry key="ZoomPanBin">
            <ZoomPanBin id="820"  >
             <ZoomPanKeyframes>
             </ZoomPanKeyframes>
            </ZoomPanBin>
           </Entry>
          </ExtraData>
         </ImageTransition>
         <MetaData>
          <entry key="WinSubProjectDisplayName" val=""/>
         </MetaData>
        </UnifiedMedia>
        <StitchedMedia id="821" start="1537" duration="526" scalar="1/1" mediaStart="229/1" mediaDuration="526/1" minMediaStart="0/1" >
         <Transformer>
          <VectorParam id="822"  name="translation">
           <InterpolatingParam id="823" interp="linr"  time="-9999999/1" value="0" leadInLength="0/1"  />
           <InterpolatingParam id="824" interp="linr"  time="-9999999/1" value="0" leadInLength="0/1"  />
           <InterpolatingParam id="825" interp="linr"  time="-9999999/1" value="0" leadInLength="0/1"  />
          </VectorParam>
          <VectorParam id="826"  name="rotation">
           <InterpolatingParam id="827" interp="linr"  time="-9999999/1" value="0" leadInLength="0/1"  />
           <InterpolatingParam id="828" interp="linr"  time="-9999999/1" value="0" leadInLength="0/1"  />
           <InterpolatingParam id="829" interp="linr"  time="-9999999/1" value="0" leadInLength="0/1"  />
          </VectorParam>
          <VectorParam id="830"  name="shear">
           <InterpolatingParam id="831" interp="linr"  time="-9999999/1" value="0" leadInLength="0/1"  />
           <InterpolatingParam id="832" interp="linr"  time="-9999999/1" value="0" leadInLength="0/1"  />
           <InterpolatingParam id="833" interp="linr"  time="-9999999/1" value="0" leadInLength="0/1"  />
          </VectorParam>
          <VectorParam id="834"  name="scale">
           <InterpolatingParam id="835" interp="linr"  time="-9999999/1" value="1" leadInLength="0/1"  />
           <InterpolatingParam id="836" interp="linr"  time="-9999999/1" value="1" leadInLength="0/1"  />
           <InterpolatingParam id="837" interp="linr"  time="-9999999/1" value="1" leadInLength="0/1"  />
          </VectorParam>
          <VectorParam id="838"  name="anchor">
           <InterpolatingParam id="839" interp="linr"  >
            <Keyframes>
            <Keyframe id="840"  time="0/1" value="0" leadInLength="0/1"  />
            <Keyframe id="841"  time="245/1" value="0" leadInLength="0/1"  />
            </Keyframes>
           </InterpolatingParam>
           <InterpolatingParam id="842" interp="linr"  >
            <Keyframes>
            <Keyframe id="843"  time="0/1" value="0" leadInLength="0/1"  />
            <Keyframe id="844"  time="245/1" value="0" leadInLength="0/1"  />
            </Keyframes>
           </InterpolatingParam>
           <InterpolatingParam id="845" interp="linr"  >
            <Keyframes>
            <Keyframe id="846"  time="0/1" value="0" leadInLength="0/1"  />
            <Keyframe id="847"  time="245/1" value="0" leadInLength="0/1"  />
            </Keyframes>
           </InterpolatingParam>
          </VectorParam>
         </Transformer>
         <Parameters>
          <VectorParam id="848"  name="sourceCrop">
           <InterpolatingParam id="849" interp="linr"  >
            <Keyframes>
            <Keyframe id="850"  time="0/1" value="0" leadInLength="0/1"  />
            <Keyframe id="851"  time="245/1" value="0" leadInLength="0/1"  />
            </Keyframes>
           </InterpolatingParam>
           <InterpolatingParam id="852" interp="linr"  >
            <Keyframes>
            <Keyframe id="853"  time="0/1" value="0" leadInLength="0/1"  />
            <Keyframe id="854"  time="245/1" value="0" leadInLength="0/1"  />
            </Keyframes>
           </InterpolatingParam>
           <InterpolatingParam id="855" interp="linr"  >
            <Keyframes>
            <Keyframe id="856"  time="0/1" value="0" leadInLength="0/1"  />
            <Keyframe id="857"  time="245/1" value="0" leadInLength="0/1"  />
            </Keyframes>
           </InterpolatingParam>
           <InterpolatingParam id="858" interp="linr"  >
            <Keyframes>
            <Keyframe id="859"  time="0/1" value="0" leadInLength="0/1"  />
            <Keyframe id="860"  time="245/1" value="0" leadInLength="0/1"  />
            </Keyframes>
           </InterpolatingParam>
          </VectorParam>
          <VectorParam id="861"  name="geometryCrop">
           <InterpolatingParam id="862" interp="linr"  time="-9999999/1" value="0" leadInLength="0/1"  />
           <InterpolatingParam id="863" interp="linr"  time="-9999999/1" value="0" leadInLength="0/1"  />
           <InterpolatingParam id="864" interp="linr"  time="-9999999/1" value="0" leadInLength="0/1"  />
           <InterpolatingParam id="865" interp="linr"  time="-9999999/1" value="0" leadInLength="0/1"  />
          </VectorParam>
          <InterpolatingParam id="866" interp="linr"  time="-9999999/1" value="1" leadInLength="0/1"  name="opacity"/>
          <InterpolatingParam id="867" interp="linr"  time="0/1" value="1" leadInLength="0/1"  name="cursorOpacity"/>
          <InterpolatingParam id="868" interp="linr"  name="cursorScale">
           <Keyframes>
           <Keyframe id="869"  time="0/1" value="1" leadInLength="0/1"  />
           <Keyframe id="870"  time="245/1" value="1" leadInLength="0/1"  />
           </Keyframes>
          </InterpolatingParam>
          <Parameter id="871"  name="captions"/>
         </Parameters>
         <Effects>
          <GenericEffect id="872" name = "CursorBaseEffectName" >
           <Parameters>
           <InterpolatingParam id="873" interp="linr"  time="-9999999/1" value="1" leadInLength="0/1"   name="cursorSize"/>
           <InterpolatingParam id="874" interp="linr"  time="-9999999/1" value="0" leadInLength="0/1"   name="highlightBlurRadius"/>
           <InterpolatingParam id="875" interp="linr"  time="-9999999/1" value="0" leadInLength="0/1"   name="highlightColorBlue"/>
           <InterpolatingParam id="876" interp="linr"  time="-9999999/1" value="255" leadInLength="0/1"   name="highlightColorGreen"/>
           <InterpolatingParam id="877" interp="linr"  time="-9999999/1" value="255" leadInLength="0/1"   name="highlightColorRed"/>
           <InterpolatingParam id="878" interp="linr"  time="-9999999/1" value="5" leadInLength="0/1"   name="highlightFeatherSize"/>
           <InterpolatingParam id="879" interp="linr"  time="-9999999/1" value="2" leadInLength="0/1"   name="highlightMagnification"/>
           <InterpolatingParam id="880" interp="linr"  time="-9999999/1" value="1" leadInLength="0/1"   name="highlightOpacity"/>
           <InterpolatingParam id="881" interp="linr"  time="-9999999/1" value="45" leadInLength="0/1"   name="highlightSize"/>
           <Parameter id="882"   name="highlightType">
            <Keyframes>
            <Keyframe id="883"  time="-9999999/1" value="0" leadInLength="0/1"  />
            </Keyframes>
           </Parameter>
           <InterpolatingParam id="884" interp="linr"  time="-9999999/1" value="0" leadInLength="0/1"   name="leftClickColorBlue"/>
           <InterpolatingParam id="885" interp="linr"  time="-9999999/1" value="0" leadInLength="0/1"   name="leftClickColorGreen"/>
           <InterpolatingParam id="886" interp="linr"  time="-9999999/1" value="255" leadInLength="0/1"   name="leftClickColorRed"/>
           <InterpolatingParam id="887" interp="linr"  time="-9999999/1" value="0.80000000000000004" leadInLength="0/1"   name="leftClickDuration"/>
           <InterpolatingParam id="888" interp="linr"  time="-9999999/1" value="20" leadInLength="0/1"   name="leftClickSize"/>
           <Parameter id="889"   name="leftClickSoundFilename">
            <Keyframes>
            <Keyframe id="890"  time="-9999999/1" value="" leadInLength="0/1"  />
            </Keyframes>
           </Parameter>
           <InterpolatingParam id="891" interp="linr"  time="-9999999/1" value="1" leadInLength="0/1"   name="leftClickSoundVolume"/>
           <Parameter id="892"   name="leftClickType">
            <Keyframes>
            <Keyframe id="893"  time="-9999999/1" value="0" leadInLength="0/1"  />
            </Keyframes>
           </Parameter>
           <InterpolatingParam id="894" interp="linr"  time="-9999999/1" value="1" leadInLength="0/1"   name="opacity"/>
           <InterpolatingParam id="895" interp="linr"  time="-9999999/1" value="255" leadInLength="0/1"   name="rightClickColorBlue"/>
           <InterpolatingParam id="896" interp="linr"  time="-9999999/1" value="0" leadInLength="0/1"   name="rightClickColorGreen"/>
           <InterpolatingParam id="897" interp="linr"  time="-9999999/1" value="0" leadInLength="0/1"   name="rightClickColorRed"/>
           <InterpolatingParam id="898" interp="linr"  time="-9999999/1" value="0.80000000000000004" leadInLength="0/1"   name="rightClickDuration"/>
           <InterpolatingParam id="899" interp="linr"  time="-9999999/1" value="20" leadInLength="0/1"   name="rightClickSize"/>
           <Parameter id="900"   name="rightClickSoundFilename">
            <Keyframes>
            <Keyframe id="901"  time="-9999999/1" value="" leadInLength="0/1"  />
            </Keyframes>
           </Parameter>
           <InterpolatingParam id="902" interp="linr"  time="-9999999/1" value="1" leadInLength="0/1"   name="rightClickSoundVolume"/>
           <Parameter id="903"   name="rightClickType">
            <Keyframes>
            <Keyframe id="904"  time="-9999999/1" value="0" leadInLength="0/1"  />
            </Keyframes>
           </Parameter>
           </Parameters>
          </GenericEffect>
          <GenericEffect id="905" name = "Colorize" >
           <Parameters>
           <InterpolatingParam id="906" interp="linr"  time="0/1" value="1" leadInLength="0/1"   name="amount"/>
           <InterpolatingParam id="907" interp="linr"  time="0/1" value="255" leadInLength="0/1"   name="color-alpha"/>
           <InterpolatingParam id="908" interp="linr"  time="0/1" value="23" leadInLength="0/1"   name="color-blue"/>
           <InterpolatingParam id="909" interp="linr"  time="0/1" value="120" leadInLength="0/1"   name="color-green"/>
           <InterpolatingParam id="910" interp="linr"  time="0/1" value="255" leadInLength="0/1"   name="color-red"/>
           <Parameter id="911"   name="enabled">
            <Keyframes>
            <Keyframe id="912"  time="0/1" value="1" leadInLength="0/1"  />
            </Keyframes>
           </Parameter>
           <Parameter id="913"   name="mode">
            <Keyframes>
            <Keyframe id="914"  time="0/1" value="0" leadInLength="0/1"  />
            </Keyframes>
           </Parameter>
           </Parameters>
          </GenericEffect>
          <GenericEffect id="915" name = "ChromaKey" >
           <Parameters>
           <InterpolatingParam id="916" interp="linr"  time="0/1" value="0" leadInLength="0/1"   name="clrCompensation"/>
           <InterpolatingParam id="917" interp="linr"  time="0/1" value="255" leadInLength="0/1"   name="color-alpha"/>
           <InterpolatingParam id="918" interp="linr"  time="0/1" value="70" leadInLength="0/1"   name="color-blue"/>
           <InterpolatingParam id="919" interp="linr"  time="0/1" value="150" leadInLength="0/1"   name="color-green"/>
           <InterpolatingParam id="920" interp="linr"  time="0/1" value="247" leadInLength="0/1"   name="color-red"/>
           <InterpolatingParam id="921" interp="linr"  time="0/1" value="0" leadInLength="0/1"   name="defringe"/>
           <Parameter id="922"   name="enabled">
            <Keyframes>
            <Keyframe id="923"  time="0/1" value="0" leadInLength="0/1"  />
            </Keyframes>
           </Parameter>
           <InterpolatingParam id="924" interp="linr"  time="0/1" value="0" leadInLength="0/1"   name="invertEffect"/>
           <InterpolatingParam id="925" interp="linr"  time="0/1" value="0.10000000000000001" leadInLength="0/1"   name="softness"/>
           <InterpolatingParam id="926" interp="linr"  time="0/1" value="0.10000000000000001" leadInLength="0/1"   name="tolerance"/>
           </Parameters>
          </GenericEffect>
         </Effects>
         <Attributes>
          <Attribute id="927" value="" name="ident"/>
         </Attributes>
         <MetaData>
          <entry key="AutoAppliedSmartFocus" val="False"/>
          <entry key="WinSubProjectDisplayName" val=""/>
         </MetaData>
         <ExtraData>
          <Entry key="ZoomPanBin">
           <ZoomPanBin id="928"  >
            <ZoomPanKeyframes>
             <ZoomPanKeyframe id="929" timeRangeEnd="-9999999/1" timeRangeDuration="0/1" interpolaterName="linr"  />
            </ZoomPanKeyframes>
           </ZoomPanBin>
          </Entry>
          <Entry key="CursorEffectBin">
           <CursorEffectBin id="930"  >
            <CursorEffectKeyframes>
             <CursorEffectKeyframe id="931" timeRangeEnd="-9999999/1" timeRangeDuration="0/1" interpolaterName=""  />
            </CursorEffectKeyframes>
           </CursorEffectBin>
          </Entry>
         </ExtraData>
         <GenericTrack id="932"  >
          <Attributes>
           <Attribute id="933" value="" name="ident"/>
           <Attribute id="934" value="0" name="audioMuted"/>
           <Attribute id="935" value="0" name="videoHidden"/>
          </Attributes>
          <MetaData>
           <entry key="IsLocked" val="False"/>
           <entry key="WinTrackHeight" val="0"/>
          </MetaData>
          <Medias>
           <ScreenVMFile id="936" start="0" duration="245" scalar="1/1" mediaStart="0/1" mediaDuration="245/1" trackNumber="0" src="16" >
            <Transformer>
             <VectorParam id="937"  name="translation">
              <InterpolatingParam id="938" interp="linr"  time="-9999999/1" value="0" leadInLength="0/1"  />
              <InterpolatingParam id="939" interp="linr"  time="-9999999/1" value="0" leadInLength="0/1"  />
              <InterpolatingParam id="940" interp="linr"  time="-9999999/1" value="0" leadInLength="0/1"  />
             </VectorParam>
             <VectorParam id="941"  name="rotation">
              <InterpolatingParam id="942" interp="linr"  time="-9999999/1" value="0" leadInLength="0/1"  />
              <InterpolatingParam id="943" interp="linr"  time="-9999999/1" value="0" leadInLength="0/1"  />
              <InterpolatingParam id="944" interp="linr"  time="-9999999/1" value="0" leadInLength="0/1"  />
             </VectorParam>
             <VectorParam id="945"  name="shear">
              <InterpolatingParam id="946" interp="linr"  time="-9999999/1" value="0" leadInLength="0/1"  />
              <InterpolatingParam id="947" interp="linr"  time="-9999999/1" value="0" leadInLength="0/1"  />
              <InterpolatingParam id="948" interp="linr"  time="-9999999/1" value="0" leadInLength="0/1"  />
             </VectorParam>
             <VectorParam id="949"  name="scale">
              <InterpolatingParam id="950" interp="linr"  time="-9999999/1" value="1" leadInLength="0/1"  />
              <InterpolatingParam id="951" interp="linr"  time="-9999999/1" value="1" leadInLength="0/1"  />
              <InterpolatingParam id="952" interp="linr"  time="-9999999/1" value="1" leadInLength="0/1"  />
             </VectorParam>
             <VectorParam id="953"  name="anchor">
              <InterpolatingParam id="954" interp="linr"  time="0/1" value="0" leadInLength="0/1"  />
              <InterpolatingParam id="955" interp="linr"  time="0/1" value="0" leadInLength="0/1"  />
              <InterpolatingParam id="956" interp="linr"  time="0/1" value="0" leadInLength="0/1"  />
             </VectorParam>
            </Transformer>
            <Parameters>
             <VectorParam id="957"  name="sourceCrop">
              <InterpolatingParam id="958" interp="linr"  time="0/1" value="0" leadInLength="0/1"  />
              <InterpolatingParam id="959" interp="linr"  time="0/1" value="0" leadInLength="0/1"  />
              <InterpolatingParam id="960" interp="linr"  time="0/1" value="0" leadInLength="0/1"  />
              <InterpolatingParam id="961" interp="linr"  time="0/1" value="0" leadInLength="0/1"  />
             </VectorParam>
             <VectorParam id="962"  name="geometryCrop">
              <InterpolatingParam id="963" interp="linr"  time="-9999999/1" value="0" leadInLength="0/1"  />
              <InterpolatingParam id="964" interp="linr"  time="-9999999/1" value="0" leadInLength="0/1"  />
              <InterpolatingParam id="965" interp="linr"  time="-9999999/1" value="0" leadInLength="0/1"  />
              <InterpolatingParam id="966" interp="linr"  time="-9999999/1" value="0" leadInLength="0/1"  />
             </VectorParam>
             <InterpolatingParam id="967" interp="linr"  time="-9999999/1" value="1" leadInLength="0/1"  name="opacity"/>
             <InterpolatingParam id="968" interp="linr"  time="0/1" value="0" leadInLength="0/1"  name="cursorOpacity"/>
             <InterpolatingParam id="969" interp="linr"  time="0/1" value="0" leadInLength="0/1"  name="cursorScale"/>
            </Parameters>
            <Attributes>
             <Attribute id="970" value="" name="ident"/>
            </Attributes>
            <MetaData>
             <entry key="AutoAppliedSmartFocus" val="False"/>
             <entry key="WinSubProjectDisplayName" val=""/>
            </MetaData>
            <ExtraData>
             <Entry key="ZoomPanBin">
              <ZoomPanBin id="971"  >
               <ZoomPanKeyframes>
                <ZoomPanKeyframe id="972" timeRangeEnd="-9999999/1" timeRangeDuration="0/1" interpolaterName="linr"  />
               </ZoomPanKeyframes>
              </ZoomPanBin>
             </Entry>
             <Entry key="CursorEffectBin">
              <CursorEffectBin id="973"  >
               <CursorEffectKeyframes>
               </CursorEffectKeyframes>
              </CursorEffectBin>
             </Entry>
            </ExtraData>
           </ScreenVMFile>
           <ScreenIMFile id="974" start="245" duration="108030" scalar="1/1" mediaStart="244/1" mediaDuration="1/1" trackNumber="0" src="16" trimStartSum="0/1" >
            <Transformer>
             <VectorParam id="975"  name="translation">
              <InterpolatingParam id="976" interp="linr"  time="-9999999/1" value="0" leadInLength="0/1"  />
              <InterpolatingParam id="977" interp="linr"  time="-9999999/1" value="0" leadInLength="0/1"  />
              <InterpolatingParam id="978" interp="linr"  time="-9999999/1" value="0" leadInLength="0/1"  />
             </VectorParam>
             <VectorParam id="979"  name="rotation">
              <InterpolatingParam id="980" interp="linr"  time="-9999999/1" value="0" leadInLength="0/1"  />
              <InterpolatingParam id="981" interp="linr"  time="-9999999/1" value="0" leadInLength="0/1"  />
              <InterpolatingParam id="982" interp="linr"  time="-9999999/1" value="0" leadInLength="0/1"  />
             </VectorParam>
             <VectorParam id="983"  name="shear">
              <InterpolatingParam id="984" interp="linr"  time="-9999999/1" value="0" leadInLength="0/1"  />
              <InterpolatingParam id="985" interp="linr"  time="-9999999/1" value="0" leadInLength="0/1"  />
              <InterpolatingParam id="986" interp="linr"  time="-9999999/1" value="0" leadInLength="0/1"  />
             </VectorParam>
             <VectorParam id="987"  name="scale">
              <InterpolatingParam id="988" interp="linr"  time="-9999999/1" value="1" leadInLength="0/1"  />
              <InterpolatingParam id="989" interp="linr"  time="-9999999/1" value="1" leadInLength="0/1"  />
              <InterpolatingParam id="990" interp="linr"  time="-9999999/1" value="1" leadInLength="0/1"  />
             </VectorParam>
             <VectorParam id="991"  name="anchor">
              <InterpolatingParam id="992" interp="linr"  time="0/1" value="0" leadInLength="0/1"  />
              <InterpolatingParam id="993" interp="linr"  time="0/1" value="0" leadInLength="0/1"  />
              <InterpolatingParam id="994" interp="linr"  time="0/1" value="0" leadInLength="0/1"  />
             </VectorParam>
            </Transformer>
            <Parameters>
             <VectorParam id="995"  name="sourceCrop">
              <InterpolatingParam id="996" interp="linr"  time="0/1" value="0" leadInLength="0/1"  />
              <InterpolatingParam id="997" interp="linr"  time="0/1" value="0" leadInLength="0/1"  />
              <InterpolatingParam id="998" interp="linr"  time="0/1" value="0" leadInLength="0/1"  />
              <InterpolatingParam id="999" interp="linr"  time="0/1" value="0" leadInLength="0/1"  />
             </VectorParam>
             <VectorParam id="1000"  name="geometryCrop">
              <InterpolatingParam id="1001" interp="linr"  time="-9999999/1" value="0" leadInLength="0/1"  />
              <InterpolatingParam id="1002" interp="linr"  time="-9999999/1" value="0" leadInLength="0/1"  />
              <InterpolatingParam id="1003" interp="linr"  time="-9999999/1" value="0" leadInLength="0/1"  />
              <InterpolatingParam id="1004" interp="linr"  time="-9999999/1" value="0" leadInLength="0/1"  />
             </VectorParam>
             <InterpolatingParam id="1005" interp="linr"  time="-9999999/1" value="1" leadInLength="0/1"  name="opacity"/>
             <InterpolatingParam id="1006" interp="linr"  time="0/1" value="(821,69,0)" leadInLength="0/1"  name="cursorLocation"/>
             <InterpolatingParam id="1007" interp="linr"  time="0/1" value="(87,53,1300,929)" leadInLength="0/1"  name="topmostWindowCoordinates"/>
             <Parameter id="1008"  name="cursorImagePath">
              <Keyframes>
              <Keyframe id="1009"  time="0/1" value="2b7b6af1-7a1f-11e2-83d0-0017f200be7f/0" leadInLength="0/1"  />
              </Keyframes>
             </Parameter>
             <InterpolatingParam id="1010" interp="linr"  time="0/1" value="(98,181,1280,720)" leadInLength="0/1"  name="recordingRegion"/>
             <InterpolatingParam id="1011" interp="linr"  time="0/1" value="0" leadInLength="0/1"  name="cursorOpacity"/>
             <InterpolatingParam id="1012" interp="linr"  time="0/1" value="1" leadInLength="0/1"  name="recordedCursorOpacity"/>
             <InterpolatingParam id="1013" interp="linr"  time="0/1" value="0" leadInLength="0/1"  name="cursorScale"/>
            </Parameters>
            <Attributes>
             <Attribute id="1014" value="" name="ident"/>
            </Attributes>
            <MetaData>
             <entry key="AutoAppliedSmartFocus" val="False"/>
             <entry key="WinSubProjectDisplayName" val=""/>
            </MetaData>
            <ExtraData>
             <Entry key="ZoomPanBin">
              <ZoomPanBin id="1015"  >
               <ZoomPanKeyframes>
                <ZoomPanKeyframe id="1016" timeRangeEnd="-9999999/1" timeRangeDuration="0/1" interpolaterName="linr"  />
               </ZoomPanKeyframes>
              </ZoomPanBin>
             </Entry>
             <Entry key="CursorEffectBin">
              <CursorEffectBin id="1017"  >
               <CursorEffectKeyframes>
               </CursorEffectKeyframes>
              </CursorEffectBin>
             </Entry>
            </ExtraData>
           </ScreenIMFile>
          </Medias>
         </GenericTrack>
        </StitchedMedia>
        <UnifiedMedia id="1018"  >
         <AudioTransition id="1019" start="2063" duration="40" >
          <Parameters>
           <InterpolatingParam id="1020" interp="linr"  time="0/1" value="1" leadInLength="0/1"  name="volume"/>
           <Parameter id="1021"  name="captions"/>
          </Parameters>
          <Effects>
           <GenericEffect id="1022" name = "AudioTransition" >
            <Parameters>
            <Parameter id="1023"   name="audioEdgeModType">
             <Keyframes>
             <Keyframe id="1024"  time="0/1" value="0" leadInLength="0/1"  />
             </Keyframes>
            </Parameter>
            <Parameter id="1025"   name="audioTransitionType">
             <Keyframes>
             <Keyframe id="1026"  time="0/1" value="" leadInLength="0/1"  />
             </Keyframes>
            </Parameter>
            </Parameters>
            <MetaData>
            </MetaData>
           </GenericEffect>
          </Effects>
          <Attributes>
           <Attribute id="1027" value="" name="ident"/>
           <Attribute id="1028" value="0" name="sampleRate"/>
           <Attribute id="1029" value="0" name="bitDepth"/>
           <Attribute id="1030" value="1" name="gain"/>
           <Attribute id="1031" value="0" name="mixToMono"/>
          </Attributes>
         </AudioTransition>
         <ImageTransition id="1032" start="2063" duration="40" >
          <Transformer>
           <VectorParam id="1033"  name="translation">
            <InterpolatingParam id="1034" interp="linr"  time="0/1" value="0" leadInLength="0/1"  />
            <InterpolatingParam id="1035" interp="linr"  time="0/1" value="0" leadInLength="0/1"  />
            <InterpolatingParam id="1036" interp="linr"  time="0/1" value="0" leadInLength="0/1"  />
           </VectorParam>
           <VectorParam id="1037"  name="rotation">
            <InterpolatingParam id="1038" interp="linr"  time="0/1" value="0" leadInLength="0/1"  />
            <InterpolatingParam id="1039" interp="linr"  time="0/1" value="0" leadInLength="0/1"  />
            <InterpolatingParam id="1040" interp="linr"  time="0/1" value="0" leadInLength="0/1"  />
           </VectorParam>
           <VectorParam id="1041"  name="shear">
            <InterpolatingParam id="1042" interp="linr"  time="0/1" value="0" leadInLength="0/1"  />
            <InterpolatingParam id="1043" interp="linr"  time="0/1" value="0" leadInLength="0/1"  />
            <InterpolatingParam id="1044" interp="linr"  time="0/1" value="0" leadInLength="0/1"  />
           </VectorParam>
           <VectorParam id="1045"  name="scale">
            <InterpolatingParam id="1046" interp="linr"  time="0/1" value="1" leadInLength="0/1"  />
            <InterpolatingParam id="1047" interp="linr"  time="0/1" value="1" leadInLength="0/1"  />
            <InterpolatingParam id="1048" interp="linr"  time="0/1" value="1" leadInLength="0/1"  />
           </VectorParam>
           <VectorParam id="1049"  name="anchor">
            <InterpolatingParam id="1050" interp="linr"  time="0/1" value="0" leadInLength="0/1"  />
            <InterpolatingParam id="1051" interp="linr"  time="0/1" value="0" leadInLength="0/1"  />
            <InterpolatingParam id="1052" interp="linr"  time="0/1" value="0" leadInLength="0/1"  />
           </VectorParam>
          </Transformer>
          <Parameters>
           <VectorParam id="1053"  name="sourceCrop">
            <InterpolatingParam id="1054" interp="linr"  time="0/1" value="0" leadInLength="0/1"  />
            <InterpolatingParam id="1055" interp="linr"  time="0/1" value="0" leadInLength="0/1"  />
            <InterpolatingParam id="1056" interp="linr"  time="0/1" value="0" leadInLength="0/1"  />
            <InterpolatingParam id="1057" interp="linr"  time="0/1" value="0" leadInLength="0/1"  />
           </VectorParam>
           <VectorParam id="1058"  name="geometryCrop">
            <InterpolatingParam id="1059" interp="linr"  time="0/1" value="0" leadInLength="0/1"  />
            <InterpolatingParam id="1060" interp="linr"  time="0/1" value="0" leadInLength="0/1"  />
            <InterpolatingParam id="1061" interp="linr"  time="0/1" value="0" leadInLength="0/1"  />
            <InterpolatingParam id="1062" interp="linr"  time="0/1" value="0" leadInLength="0/1"  />
           </VectorParam>
           <InterpolatingParam id="1063" interp="linr"  time="0/1" value="1" leadInLength="0/1"  name="opacity"/>
          </Parameters>
          <Effects>
           <GenericEffect id="1064" name = "VisualTransition" >
            <Parameters>
            <InterpolatingParam id="1065" interp="linr"  time="0/1" value="1" leadInLength="0/1"   name="leftFramePercentage"/>
            <InterpolatingParam id="1066" interp="linr"  time="0/1" value="1" leadInLength="0/1"   name="rightFramePercentage"/>
            <Parameter id="1067"   name="visualEdgeModType">
             <Keyframes>
             <Keyframe id="1068"  time="0/1" value="0" leadInLength="0/1"  />
             </Keyframes>
            </Parameter>
            <Parameter id="1069"   name="visualTransitionType">
             <Keyframes>
             <Keyframe id="1070"  time="0/1" value="Pixelate" leadInLength="0/1"  />
             </Keyframes>
            </Parameter>
            </Parameters>
            <MetaData>
            </MetaData>
           </GenericEffect>
          </Effects>
          <Attributes>
           <Attribute id="1071" value="" name="ident"/>
          </Attributes>
          <ExtraData>
           <Entry key="ZoomPanBin">
            <ZoomPanBin id="1072"  >
             <ZoomPanKeyframes>
             </ZoomPanKeyframes>
            </ZoomPanBin>
           </Entry>
          </ExtraData>
         </ImageTransition>
         <MetaData>
          <entry key="WinSubProjectDisplayName" val=""/>
         </MetaData>
        </UnifiedMedia>
        <StitchedMedia id="1073" start="2103" duration="607" scalar="1/1" mediaStart="285/1" mediaDuration="607/1" minMediaStart="0/1" >
         <Transformer>
          <VectorParam id="1074"  name="translation">
           <InterpolatingParam id="1075" interp="linr"  time="-9999999/1" value="0" leadInLength="0/1"  />
           <InterpolatingParam id="1076" interp="linr"  time="-9999999/1" value="0" leadInLength="0/1"  />
           <InterpolatingParam id="1077" interp="linr"  time="-9999999/1" value="0" leadInLength="0/1"  />
          </VectorParam>
          <VectorParam id="1078"  name="rotation">
           <InterpolatingParam id="1079" interp="linr"  time="-9999999/1" value="0" leadInLength="0/1"  />
           <InterpolatingParam id="1080" interp="linr"  time="-9999999/1" value="0" leadInLength="0/1"  />
           <InterpolatingParam id="1081" interp="linr"  time="-9999999/1" value="0" leadInLength="0/1"  />
          </VectorParam>
          <VectorParam id="1082"  name="shear">
           <InterpolatingParam id="1083" interp="linr"  time="-9999999/1" value="0" leadInLength="0/1"  />
           <InterpolatingParam id="1084" interp="linr"  time="-9999999/1" value="0" leadInLength="0/1"  />
           <InterpolatingParam id="1085" interp="linr"  time="-9999999/1" value="0" leadInLength="0/1"  />
          </VectorParam>
          <VectorParam id="1086"  name="scale">
           <InterpolatingParam id="1087" interp="linr"  time="-9999999/1" value="1" leadInLength="0/1"  />
           <InterpolatingParam id="1088" interp="linr"  time="-9999999/1" value="1" leadInLength="0/1"  />
           <InterpolatingParam id="1089" interp="linr"  time="-9999999/1" value="1" leadInLength="0/1"  />
          </VectorParam>
          <VectorParam id="1090"  name="anchor">
           <InterpolatingParam id="1091" interp="linr"  >
            <Keyframes>
            <Keyframe id="1092"  time="0/1" value="0" leadInLength="0/1"  />
            <Keyframe id="1093"  time="293/1" value="0" leadInLength="0/1"  />
            </Keyframes>
           </InterpolatingParam>
           <InterpolatingParam id="1094" interp="linr"  >
            <Keyframes>
            <Keyframe id="1095"  time="0/1" value="0" leadInLength="0/1"  />
            <Keyframe id="1096"  time="293/1" value="0" leadInLength="0/1"  />
            </Keyframes>
           </InterpolatingParam>
           <InterpolatingParam id="1097" interp="linr"  >
            <Keyframes>
            <Keyframe id="1098"  time="0/1" value="0" leadInLength="0/1"  />
            <Keyframe id="1099"  time="293/1" value="0" leadInLength="0/1"  />
            </Keyframes>
           </InterpolatingParam>
          </VectorParam>
         </Transformer>
         <Parameters>
          <VectorParam id="1100"  name="sourceCrop">
           <InterpolatingParam id="1101" interp="linr"  >
            <Keyframes>
            <Keyframe id="1102"  time="0/1" value="0" leadInLength="0/1"  />
            <Keyframe id="1103"  time="293/1" value="0" leadInLength="0/1"  />
            </Keyframes>
           </InterpolatingParam>
           <InterpolatingParam id="1104" interp="linr"  >
            <Keyframes>
            <Keyframe id="1105"  time="0/1" value="0" leadInLength="0/1"  />
            <Keyframe id="1106"  time="293/1" value="0" leadInLength="0/1"  />
            </Keyframes>
           </InterpolatingParam>
           <InterpolatingParam id="1107" interp="linr"  >
            <Keyframes>
            <Keyframe id="1108"  time="0/1" value="0" leadInLength="0/1"  />
            <Keyframe id="1109"  time="293/1" value="0" leadInLength="0/1"  />
            </Keyframes>
           </InterpolatingParam>
           <InterpolatingParam id="1110" interp="linr"  >
            <Keyframes>
            <Keyframe id="1111"  time="0/1" value="0" leadInLength="0/1"  />
            <Keyframe id="1112"  time="293/1" value="0" leadInLength="0/1"  />
            </Keyframes>
           </InterpolatingParam>
          </VectorParam>
          <VectorParam id="1113"  name="geometryCrop">
           <InterpolatingParam id="1114" interp="linr"  time="-9999999/1" value="0" leadInLength="0/1"  />
           <InterpolatingParam id="1115" interp="linr"  time="-9999999/1" value="0" leadInLength="0/1"  />
           <InterpolatingParam id="1116" interp="linr"  time="-9999999/1" value="0" leadInLength="0/1"  />
           <InterpolatingParam id="1117" interp="linr"  time="-9999999/1" value="0" leadInLength="0/1"  />
          </VectorParam>
          <InterpolatingParam id="1118" interp="linr"  time="-9999999/1" value="1" leadInLength="0/1"  name="opacity"/>
          <InterpolatingParam id="1119" interp="linr"  time="0/1" value="1" leadInLength="0/1"  name="cursorOpacity"/>
          <InterpolatingParam id="1120" interp="linr"  name="cursorScale">
           <Keyframes>
           <Keyframe id="1121"  time="0/1" value="1" leadInLength="0/1"  />
           <Keyframe id="1122"  time="293/1" value="1" leadInLength="0/1"  />
           </Keyframes>
          </InterpolatingParam>
          <Parameter id="1123"  name="captions"/>
         </Parameters>
         <Effects>
          <GenericEffect id="1124" name = "CursorBaseEffectName" >
           <Parameters>
           <InterpolatingParam id="1125" interp="linr"  time="-9999999/1" value="1" leadInLength="0/1"   name="cursorSize"/>
           <InterpolatingParam id="1126" interp="linr"  time="-9999999/1" value="0" leadInLength="0/1"   name="highlightBlurRadius"/>
           <InterpolatingParam id="1127" interp="linr"  time="-9999999/1" value="0" leadInLength="0/1"   name="highlightColorBlue"/>
           <InterpolatingParam id="1128" interp="linr"  time="-9999999/1" value="255" leadInLength="0/1"   name="highlightColorGreen"/>
           <InterpolatingParam id="1129" interp="linr"  time="-9999999/1" value="255" leadInLength="0/1"   name="highlightColorRed"/>
           <InterpolatingParam id="1130" interp="linr"  time="-9999999/1" value="5" leadInLength="0/1"   name="highlightFeatherSize"/>
           <InterpolatingParam id="1131" interp="linr"  time="-9999999/1" value="2" leadInLength="0/1"   name="highlightMagnification"/>
           <InterpolatingParam id="1132" interp="linr"  time="-9999999/1" value="1" leadInLength="0/1"   name="highlightOpacity"/>
           <InterpolatingParam id="1133" interp="linr"  time="-9999999/1" value="45" leadInLength="0/1"   name="highlightSize"/>
           <Parameter id="1134"   name="highlightType">
            <Keyframes>
            <Keyframe id="1135"  time="-9999999/1" value="0" leadInLength="0/1"  />
            </Keyframes>
           </Parameter>
           <InterpolatingParam id="1136" interp="linr"  time="-9999999/1" value="0" leadInLength="0/1"   name="leftClickColorBlue"/>
           <InterpolatingParam id="1137" interp="linr"  time="-9999999/1" value="0" leadInLength="0/1"   name="leftClickColorGreen"/>
           <InterpolatingParam id="1138" interp="linr"  time="-9999999/1" value="255" leadInLength="0/1"   name="leftClickColorRed"/>
           <InterpolatingParam id="1139" interp="linr"  time="-9999999/1" value="0.80000000000000004" leadInLength="0/1"   name="leftClickDuration"/>
           <InterpolatingParam id="1140" interp="linr"  time="-9999999/1" value="20" leadInLength="0/1"   name="leftClickSize"/>
           <Parameter id="1141"   name="leftClickSoundFilename">
            <Keyframes>
            <Keyframe id="1142"  time="-9999999/1" value="" leadInLength="0/1"  />
            </Keyframes>
           </Parameter>
           <InterpolatingParam id="1143" interp="linr"  time="-9999999/1" value="1" leadInLength="0/1"   name="leftClickSoundVolume"/>
           <Parameter id="1144"   name="leftClickType">
            <Keyframes>
            <Keyframe id="1145"  time="-9999999/1" value="0" leadInLength="0/1"  />
            </Keyframes>
           </Parameter>
           <InterpolatingParam id="1146" interp="linr"  time="-9999999/1" value="1" leadInLength="0/1"   name="opacity"/>
           <InterpolatingParam id="1147" interp="linr"  time="-9999999/1" value="255" leadInLength="0/1"   name="rightClickColorBlue"/>
           <InterpolatingParam id="1148" interp="linr"  time="-9999999/1" value="0" leadInLength="0/1"   name="rightClickColorGreen"/>
           <InterpolatingParam id="1149" interp="linr"  time="-9999999/1" value="0" leadInLength="0/1"   name="rightClickColorRed"/>
           <InterpolatingParam id="1150" interp="linr"  time="-9999999/1" value="0.80000000000000004" leadInLength="0/1"   name="rightClickDuration"/>
           <InterpolatingParam id="1151" interp="linr"  time="-9999999/1" value="20" leadInLength="0/1"   name="rightClickSize"/>
           <Parameter id="1152"   name="rightClickSoundFilename">
            <Keyframes>
            <Keyframe id="1153"  time="-9999999/1" value="" leadInLength="0/1"  />
            </Keyframes>
           </Parameter>
           <InterpolatingParam id="1154" interp="linr"  time="-9999999/1" value="1" leadInLength="0/1"   name="rightClickSoundVolume"/>
           <Parameter id="1155"   name="rightClickType">
            <Keyframes>
            <Keyframe id="1156"  time="-9999999/1" value="0" leadInLength="0/1"  />
            </Keyframes>
           </Parameter>
           </Parameters>
          </GenericEffect>
          <GenericEffect id="1157" name = "Colorize" >
           <Parameters>
           <InterpolatingParam id="1158" interp="linr"  time="0/1" value="1" leadInLength="0/1"   name="amount"/>
           <InterpolatingParam id="1159" interp="linr"  time="0/1" value="255" leadInLength="0/1"   name="color-alpha"/>
           <InterpolatingParam id="1160" interp="linr"  time="0/1" value="23" leadInLength="0/1"   name="color-blue"/>
           <InterpolatingParam id="1161" interp="linr"  time="0/1" value="120" leadInLength="0/1"   name="color-green"/>
           <InterpolatingParam id="1162" interp="linr"  time="0/1" value="255" leadInLength="0/1"   name="color-red"/>
           <Parameter id="1163"   name="enabled">
            <Keyframes>
            <Keyframe id="1164"  time="0/1" value="1" leadInLength="0/1"  />
            </Keyframes>
           </Parameter>
           <Parameter id="1165"   name="mode">
            <Keyframes>
            <Keyframe id="1166"  time="0/1" value="0" leadInLength="0/1"  />
            </Keyframes>
           </Parameter>
           </Parameters>
          </GenericEffect>
          <GenericEffect id="1167" name = "ChromaKey" >
           <Parameters>
           <InterpolatingParam id="1168" interp="linr"  time="0/1" value="0" leadInLength="0/1"   name="clrCompensation"/>
           <InterpolatingParam id="1169" interp="linr"  time="0/1" value="255" leadInLength="0/1"   name="color-alpha"/>
           <InterpolatingParam id="1170" interp="linr"  time="0/1" value="70" leadInLength="0/1"   name="color-blue"/>
           <InterpolatingParam id="1171" interp="linr"  time="0/1" value="150" leadInLength="0/1"   name="color-green"/>
           <InterpolatingParam id="1172" interp="linr"  time="0/1" value="247" leadInLength="0/1"   name="color-red"/>
           <InterpolatingParam id="1173" interp="linr"  time="0/1" value="0" leadInLength="0/1"   name="defringe"/>
           <Parameter id="1174"   name="enabled">
            <Keyframes>
            <Keyframe id="1175"  time="0/1" value="0" leadInLength="0/1"  />
            </Keyframes>
           </Parameter>
           <InterpolatingParam id="1176" interp="linr"  time="0/1" value="0" leadInLength="0/1"   name="invertEffect"/>
           <InterpolatingParam id="1177" interp="linr"  time="0/1" value="0.10000000000000001" leadInLength="0/1"   name="softness"/>
           <InterpolatingParam id="1178" interp="linr"  time="0/1" value="0.10000000000000001" leadInLength="0/1"   name="tolerance"/>
           </Parameters>
          </GenericEffect>
         </Effects>
         <Attributes>
          <Attribute id="1179" value="" name="ident"/>
         </Attributes>
         <MetaData>
          <entry key="AutoAppliedSmartFocus" val="False"/>
          <entry key="WinSubProjectDisplayName" val=""/>
         </MetaData>
         <ExtraData>
          <Entry key="ZoomPanBin">
           <ZoomPanBin id="1180"  >
            <ZoomPanKeyframes>
             <ZoomPanKeyframe id="1181" timeRangeEnd="-9999999/1" timeRangeDuration="0/1" interpolaterName="linr"  />
            </ZoomPanKeyframes>
           </ZoomPanBin>
          </Entry>
          <Entry key="CursorEffectBin">
           <CursorEffectBin id="1182"  >
            <CursorEffectKeyframes>
             <CursorEffectKeyframe id="1183" timeRangeEnd="-9999999/1" timeRangeDuration="0/1" interpolaterName=""  />
            </CursorEffectKeyframes>
           </CursorEffectBin>
          </Entry>
         </ExtraData>
         <GenericTrack id="1184"  >
          <Attributes>
           <Attribute id="1185" value="" name="ident"/>
           <Attribute id="1186" value="0" name="audioMuted"/>
           <Attribute id="1187" value="0" name="videoHidden"/>
          </Attributes>
          <MetaData>
           <entry key="IsLocked" val="False"/>
           <entry key="WinTrackHeight" val="0"/>
          </MetaData>
          <Medias>
           <ScreenVMFile id="1188" start="0" duration="293" scalar="1/1" mediaStart="0/1" mediaDuration="293/1" trackNumber="0" src="16" >
            <Transformer>
             <VectorParam id="1189"  name="translation">
              <InterpolatingParam id="1190" interp="linr"  time="-9999999/1" value="0" leadInLength="0/1"  />
              <InterpolatingParam id="1191" interp="linr"  time="-9999999/1" value="0" leadInLength="0/1"  />
              <InterpolatingParam id="1192" interp="linr"  time="-9999999/1" value="0" leadInLength="0/1"  />
             </VectorParam>
             <VectorParam id="1193"  name="rotation">
              <InterpolatingParam id="1194" interp="linr"  time="-9999999/1" value="0" leadInLength="0/1"  />
              <InterpolatingParam id="1195" interp="linr"  time="-9999999/1" value="0" leadInLength="0/1"  />
              <InterpolatingParam id="1196" interp="linr"  time="-9999999/1" value="0" leadInLength="0/1"  />
             </VectorParam>
             <VectorParam id="1197"  name="shear">
              <InterpolatingParam id="1198" interp="linr"  time="-9999999/1" value="0" leadInLength="0/1"  />
              <InterpolatingParam id="1199" interp="linr"  time="-9999999/1" value="0" leadInLength="0/1"  />
              <InterpolatingParam id="1200" interp="linr"  time="-9999999/1" value="0" leadInLength="0/1"  />
             </VectorParam>
             <VectorParam id="1201"  name="scale">
              <InterpolatingParam id="1202" interp="linr"  time="-9999999/1" value="1" leadInLength="0/1"  />
              <InterpolatingParam id="1203" interp="linr"  time="-9999999/1" value="1" leadInLength="0/1"  />
              <InterpolatingParam id="1204" interp="linr"  time="-9999999/1" value="1" leadInLength="0/1"  />
             </VectorParam>
             <VectorParam id="1205"  name="anchor">
              <InterpolatingParam id="1206" interp="linr"  time="0/1" value="0" leadInLength="0/1"  />
              <InterpolatingParam id="1207" interp="linr"  time="0/1" value="0" leadInLength="0/1"  />
              <InterpolatingParam id="1208" interp="linr"  time="0/1" value="0" leadInLength="0/1"  />
             </VectorParam>
            </Transformer>
            <Parameters>
             <VectorParam id="1209"  name="sourceCrop">
              <InterpolatingParam id="1210" interp="linr"  time="0/1" value="0" leadInLength="0/1"  />
              <InterpolatingParam id="1211" interp="linr"  time="0/1" value="0" leadInLength="0/1"  />
              <InterpolatingParam id="1212" interp="linr"  time="0/1" value="0" leadInLength="0/1"  />
              <InterpolatingParam id="1213" interp="linr"  time="0/1" value="0" leadInLength="0/1"  />
             </VectorParam>
             <VectorParam id="1214"  name="geometryCrop">
              <InterpolatingParam id="1215" interp="linr"  time="-9999999/1" value="0" leadInLength="0/1"  />
              <InterpolatingParam id="1216" interp="linr"  time="-9999999/1" value="0" leadInLength="0/1"  />
              <InterpolatingParam id="1217" interp="linr"  time="-9999999/1" value="0" leadInLength="0/1"  />
              <InterpolatingParam id="1218" interp="linr"  time="-9999999/1" value="0" leadInLength="0/1"  />
             </VectorParam>
             <InterpolatingParam id="1219" interp="linr"  time="-9999999/1" value="1" leadInLength="0/1"  name="opacity"/>
             <InterpolatingParam id="1220" interp="linr"  time="0/1" value="0" leadInLength="0/1"  name="cursorOpacity"/>
             <InterpolatingParam id="1221" interp="linr"  time="0/1" value="0" leadInLength="0/1"  name="cursorScale"/>
            </Parameters>
            <Attributes>
             <Attribute id="1222" value="" name="ident"/>
            </Attributes>
            <MetaData>
             <entry key="AutoAppliedSmartFocus" val="False"/>
             <entry key="WinSubProjectDisplayName" val=""/>
            </MetaData>
            <ExtraData>
             <Entry key="ZoomPanBin">
              <ZoomPanBin id="1223"  >
               <ZoomPanKeyframes>
                <ZoomPanKeyframe id="1224" timeRangeEnd="-9999999/1" timeRangeDuration="0/1" interpolaterName="linr"  />
               </ZoomPanKeyframes>
              </ZoomPanBin>
             </Entry>
             <Entry key="CursorEffectBin">
              <CursorEffectBin id="1225"  >
               <CursorEffectKeyframes>
               </CursorEffectKeyframes>
              </CursorEffectBin>
             </Entry>
            </ExtraData>
           </ScreenVMFile>
           <ScreenIMFile id="1226" start="293" duration="108030" scalar="1/1" mediaStart="292/1" mediaDuration="1/1" trackNumber="0" src="16" trimStartSum="0/1" >
            <Transformer>
             <VectorParam id="1227"  name="translation">
              <InterpolatingParam id="1228" interp="linr"  time="-9999999/1" value="0" leadInLength="0/1"  />
              <InterpolatingParam id="1229" interp="linr"  time="-9999999/1" value="0" leadInLength="0/1"  />
              <InterpolatingParam id="1230" interp="linr"  time="-9999999/1" value="0" leadInLength="0/1"  />
             </VectorParam>
             <VectorParam id="1231"  name="rotation">
              <InterpolatingParam id="1232" interp="linr"  time="-9999999/1" value="0" leadInLength="0/1"  />
              <InterpolatingParam id="1233" interp="linr"  time="-9999999/1" value="0" leadInLength="0/1"  />
              <InterpolatingParam id="1234" interp="linr"  time="-9999999/1" value="0" leadInLength="0/1"  />
             </VectorParam>
             <VectorParam id="1235"  name="shear">
              <InterpolatingParam id="1236" interp="linr"  time="-9999999/1" value="0" leadInLength="0/1"  />
              <InterpolatingParam id="1237" interp="linr"  time="-9999999/1" value="0" leadInLength="0/1"  />
              <InterpolatingParam id="1238" interp="linr"  time="-9999999/1" value="0" leadInLength="0/1"  />
             </VectorParam>
             <VectorParam id="1239"  name="scale">
              <InterpolatingParam id="1240" interp="linr"  time="-9999999/1" value="1" leadInLength="0/1"  />
              <InterpolatingParam id="1241" interp="linr"  time="-9999999/1" value="1" leadInLength="0/1"  />
              <InterpolatingParam id="1242" interp="linr"  time="-9999999/1" value="1" leadInLength="0/1"  />
             </VectorParam>
             <VectorParam id="1243"  name="anchor">
              <InterpolatingParam id="1244" interp="linr"  time="0/1" value="0" leadInLength="0/1"  />
              <InterpolatingParam id="1245" interp="linr"  time="0/1" value="0" leadInLength="0/1"  />
              <InterpolatingParam id="1246" interp="linr"  time="0/1" value="0" leadInLength="0/1"  />
             </VectorParam>
            </Transformer>
            <Parameters>
             <VectorParam id="1247"  name="sourceCrop">
              <InterpolatingParam id="1248" interp="linr"  time="0/1" value="0" leadInLength="0/1"  />
              <InterpolatingParam id="1249" interp="linr"  time="0/1" value="0" leadInLength="0/1"  />
              <InterpolatingParam id="1250" interp="linr"  time="0/1" value="0" leadInLength="0/1"  />
              <InterpolatingParam id="1251" interp="linr"  time="0/1" value="0" leadInLength="0/1"  />
             </VectorParam>
             <VectorParam id="1252"  name="geometryCrop">
              <InterpolatingParam id="1253" interp="linr"  time="-9999999/1" value="0" leadInLength="0/1"  />
              <InterpolatingParam id="1254" interp="linr"  time="-9999999/1" value="0" leadInLength="0/1"  />
              <InterpolatingParam id="1255" interp="linr"  time="-9999999/1" value="0" leadInLength="0/1"  />
              <InterpolatingParam id="1256" interp="linr"  time="-9999999/1" value="0" leadInLength="0/1"  />
             </VectorParam>
             <InterpolatingParam id="1257" interp="linr"  time="-9999999/1" value="1" leadInLength="0/1"  name="opacity"/>
             <InterpolatingParam id="1258" interp="linr"  time="0/1" value="(821,69,0)" leadInLength="0/1"  name="cursorLocation"/>
             <InterpolatingParam id="1259" interp="linr"  time="0/1" value="(87,53,1300,929)" leadInLength="0/1"  name="topmostWindowCoordinates"/>
             <Parameter id="1260"  name="cursorImagePath">
              <Keyframes>
              <Keyframe id="1261"  time="0/1" value="2b7b6af1-7a1f-11e2-83d0-0017f200be7f/0" leadInLength="0/1"  />
              </Keyframes>
             </Parameter>
             <InterpolatingParam id="1262" interp="linr"  time="0/1" value="(98,181,1280,720)" leadInLength="0/1"  name="recordingRegion"/>
             <InterpolatingParam id="1263" interp="linr"  time="0/1" value="0" leadInLength="0/1"  name="cursorOpacity"/>
             <InterpolatingParam id="1264" interp="linr"  time="0/1" value="1" leadInLength="0/1"  name="recordedCursorOpacity"/>
             <InterpolatingParam id="1265" interp="linr"  time="0/1" value="0" leadInLength="0/1"  name="cursorScale"/>
            </Parameters>
            <Attributes>
             <Attribute id="1266" value="" name="ident"/>
            </Attributes>
            <MetaData>
             <entry key="AutoAppliedSmartFocus" val="False"/>
             <entry key="WinSubProjectDisplayName" val=""/>
            </MetaData>
            <ExtraData>
             <Entry key="ZoomPanBin">
              <ZoomPanBin id="1267"  >
               <ZoomPanKeyframes>
                <ZoomPanKeyframe id="1268" timeRangeEnd="-9999999/1" timeRangeDuration="0/1" interpolaterName="linr"  />
               </ZoomPanKeyframes>
              </ZoomPanBin>
             </Entry>
             <Entry key="CursorEffectBin">
              <CursorEffectBin id="1269"  >
               <CursorEffectKeyframes>
               </CursorEffectKeyframes>
              </CursorEffectBin>
             </Entry>
            </ExtraData>
           </ScreenIMFile>
          </Medias>
         </GenericTrack>
        </StitchedMedia>
        <UnifiedMedia id="1270"  >
         <AudioTransition id="1271" start="2710" duration="40" >
          <Parameters>
           <InterpolatingParam id="1272" interp="linr"  time="0/1" value="1" leadInLength="0/1"  name="volume"/>
           <Parameter id="1273"  name="captions"/>
          </Parameters>
          <Effects>
           <GenericEffect id="1274" name = "AudioTransition" >
            <Parameters>
            <Parameter id="1275"   name="audioEdgeModType">
             <Keyframes>
             <Keyframe id="1276"  time="0/1" value="0" leadInLength="0/1"  />
             </Keyframes>
            </Parameter>
            <Parameter id="1277"   name="audioTransitionType">
             <Keyframes>
             <Keyframe id="1278"  time="0/1" value="" leadInLength="0/1"  />
             </Keyframes>
            </Parameter>
            </Parameters>
            <MetaData>
            </MetaData>
           </GenericEffect>
          </Effects>
          <Attributes>
           <Attribute id="1279" value="" name="ident"/>
           <Attribute id="1280" value="0" name="sampleRate"/>
           <Attribute id="1281" value="0" name="bitDepth"/>
           <Attribute id="1282" value="1" name="gain"/>
           <Attribute id="1283" value="0" name="mixToMono"/>
          </Attributes>
         </AudioTransition>
         <ImageTransition id="1284" start="2710" duration="40" >
          <Transformer>
           <VectorParam id="1285"  name="translation">
            <InterpolatingParam id="1286" interp="linr"  time="0/1" value="0" leadInLength="0/1"  />
            <InterpolatingParam id="1287" interp="linr"  time="0/1" value="0" leadInLength="0/1"  />
            <InterpolatingParam id="1288" interp="linr"  time="0/1" value="0" leadInLength="0/1"  />
           </VectorParam>
           <VectorParam id="1289"  name="rotation">
            <InterpolatingParam id="1290" interp="linr"  time="0/1" value="0" leadInLength="0/1"  />
            <InterpolatingParam id="1291" interp="linr"  time="0/1" value="0" leadInLength="0/1"  />
            <InterpolatingParam id="1292" interp="linr"  time="0/1" value="0" leadInLength="0/1"  />
           </VectorParam>
           <VectorParam id="1293"  name="shear">
            <InterpolatingParam id="1294" interp="linr"  time="0/1" value="0" leadInLength="0/1"  />
            <InterpolatingParam id="1295" interp="linr"  time="0/1" value="0" leadInLength="0/1"  />
            <InterpolatingParam id="1296" interp="linr"  time="0/1" value="0" leadInLength="0/1"  />
           </VectorParam>
           <VectorParam id="1297"  name="scale">
            <InterpolatingParam id="1298" interp="linr"  time="0/1" value="1" leadInLength="0/1"  />
            <InterpolatingParam id="1299" interp="linr"  time="0/1" value="1" leadInLength="0/1"  />
            <InterpolatingParam id="1300" interp="linr"  time="0/1" value="1" leadInLength="0/1"  />
           </VectorParam>
           <VectorParam id="1301"  name="anchor">
            <InterpolatingParam id="1302" interp="linr"  time="0/1" value="0" leadInLength="0/1"  />
            <InterpolatingParam id="1303" interp="linr"  time="0/1" value="0" leadInLength="0/1"  />
            <InterpolatingParam id="1304" interp="linr"  time="0/1" value="0" leadInLength="0/1"  />
           </VectorParam>
          </Transformer>
          <Parameters>
           <VectorParam id="1305"  name="sourceCrop">
            <InterpolatingParam id="1306" interp="linr"  time="0/1" value="0" leadInLength="0/1"  />
            <InterpolatingParam id="1307" interp="linr"  time="0/1" value="0" leadInLength="0/1"  />
            <InterpolatingParam id="1308" interp="linr"  time="0/1" value="0" leadInLength="0/1"  />
            <InterpolatingParam id="1309" interp="linr"  time="0/1" value="0" leadInLength="0/1"  />
           </VectorParam>
           <VectorParam id="1310"  name="geometryCrop">
            <InterpolatingParam id="1311" interp="linr"  time="0/1" value="0" leadInLength="0/1"  />
            <InterpolatingParam id="1312" interp="linr"  time="0/1" value="0" leadInLength="0/1"  />
            <InterpolatingParam id="1313" interp="linr"  time="0/1" value="0" leadInLength="0/1"  />
            <InterpolatingParam id="1314" interp="linr"  time="0/1" value="0" leadInLength="0/1"  />
           </VectorParam>
           <InterpolatingParam id="1315" interp="linr"  time="0/1" value="1" leadInLength="0/1"  name="opacity"/>
          </Parameters>
          <Effects>
           <GenericEffect id="1316" name = "VisualTransition" >
            <Parameters>
            <InterpolatingParam id="1317" interp="linr"  time="0/1" value="1" leadInLength="0/1"   name="leftFramePercentage"/>
            <InterpolatingParam id="1318" interp="linr"  time="0/1" value="1" leadInLength="0/1"   name="rightFramePercentage"/>
            <Parameter id="1319"   name="visualEdgeModType">
             <Keyframes>
             <Keyframe id="1320"  time="0/1" value="0" leadInLength="0/1"  />
             </Keyframes>
            </Parameter>
            <Parameter id="1321"   name="visualTransitionType">
             <Keyframes>
             <Keyframe id="1322"  time="0/1" value="Pixelate" leadInLength="0/1"  />
             </Keyframes>
            </Parameter>
            </Parameters>
            <MetaData>
            </MetaData>
           </GenericEffect>
          </Effects>
          <Attributes>
           <Attribute id="1323" value="" name="ident"/>
          </Attributes>
          <ExtraData>
           <Entry key="ZoomPanBin">
            <ZoomPanBin id="1324"  >
             <ZoomPanKeyframes>
             </ZoomPanKeyframes>
            </ZoomPanBin>
           </Entry>
          </ExtraData>
         </ImageTransition>
         <MetaData>
          <entry key="WinSubProjectDisplayName" val=""/>
         </MetaData>
        </UnifiedMedia>
        <StitchedMedia id="1325" start="2750" duration="679" scalar="1/1" mediaStart="341/1" mediaDuration="679/1" minMediaStart="0/1" >
         <Transformer>
          <VectorParam id="1326"  name="translation">
           <InterpolatingParam id="1327" interp="linr"  time="-9999999/1" value="0" leadInLength="0/1"  />
           <InterpolatingParam id="1328" interp="linr"  time="-9999999/1" value="0" leadInLength="0/1"  />
           <InterpolatingParam id="1329" interp="linr"  time="-9999999/1" value="0" leadInLength="0/1"  />
          </VectorParam>
          <VectorParam id="1330"  name="rotation">
           <InterpolatingParam id="1331" interp="linr"  time="-9999999/1" value="0" leadInLength="0/1"  />
           <InterpolatingParam id="1332" interp="linr"  time="-9999999/1" value="0" leadInLength="0/1"  />
           <InterpolatingParam id="1333" interp="linr"  time="-9999999/1" value="0" leadInLength="0/1"  />
          </VectorParam>
          <VectorParam id="1334"  name="shear">
           <InterpolatingParam id="1335" interp="linr"  time="-9999999/1" value="0" leadInLength="0/1"  />
           <InterpolatingParam id="1336" interp="linr"  time="-9999999/1" value="0" leadInLength="0/1"  />
           <InterpolatingParam id="1337" interp="linr"  time="-9999999/1" value="0" leadInLength="0/1"  />
          </VectorParam>
          <VectorParam id="1338"  name="scale">
           <InterpolatingParam id="1339" interp="linr"  time="-9999999/1" value="1" leadInLength="0/1"  />
           <InterpolatingParam id="1340" interp="linr"  time="-9999999/1" value="1" leadInLength="0/1"  />
           <InterpolatingParam id="1341" interp="linr"  time="-9999999/1" value="1" leadInLength="0/1"  />
          </VectorParam>
          <VectorParam id="1342"  name="anchor">
           <InterpolatingParam id="1343" interp="linr"  >
            <Keyframes>
            <Keyframe id="1344"  time="0/1" value="0" leadInLength="0/1"  />
            <Keyframe id="1345"  time="350/1" value="0" leadInLength="0/1"  />
            </Keyframes>
           </InterpolatingParam>
           <InterpolatingParam id="1346" interp="linr"  >
            <Keyframes>
            <Keyframe id="1347"  time="0/1" value="0" leadInLength="0/1"  />
            <Keyframe id="1348"  time="350/1" value="0" leadInLength="0/1"  />
            </Keyframes>
           </InterpolatingParam>
           <InterpolatingParam id="1349" interp="linr"  >
            <Keyframes>
            <Keyframe id="1350"  time="0/1" value="0" leadInLength="0/1"  />
            <Keyframe id="1351"  time="350/1" value="0" leadInLength="0/1"  />
            </Keyframes>
           </InterpolatingParam>
          </VectorParam>
         </Transformer>
         <Parameters>
          <VectorParam id="1352"  name="sourceCrop">
           <InterpolatingParam id="1353" interp="linr"  >
            <Keyframes>
            <Keyframe id="1354"  time="0/1" value="0" leadInLength="0/1"  />
            <Keyframe id="1355"  time="350/1" value="0" leadInLength="0/1"  />
            </Keyframes>
           </InterpolatingParam>
           <InterpolatingParam id="1356" interp="linr"  >
            <Keyframes>
            <Keyframe id="1357"  time="0/1" value="0" leadInLength="0/1"  />
            <Keyframe id="1358"  time="350/1" value="0" leadInLength="0/1"  />
            </Keyframes>
           </InterpolatingParam>
           <InterpolatingParam id="1359" interp="linr"  >
            <Keyframes>
            <Keyframe id="1360"  time="0/1" value="0" leadInLength="0/1"  />
            <Keyframe id="1361"  time="350/1" value="0" leadInLength="0/1"  />
            </Keyframes>
           </InterpolatingParam>
           <InterpolatingParam id="1362" interp="linr"  >
            <Keyframes>
            <Keyframe id="1363"  time="0/1" value="0" leadInLength="0/1"  />
            <Keyframe id="1364"  time="350/1" value="0" leadInLength="0/1"  />
            </Keyframes>
           </InterpolatingParam>
          </VectorParam>
          <VectorParam id="1365"  name="geometryCrop">
           <InterpolatingParam id="1366" interp="linr"  time="-9999999/1" value="0" leadInLength="0/1"  />
           <InterpolatingParam id="1367" interp="linr"  time="-9999999/1" value="0" leadInLength="0/1"  />
           <InterpolatingParam id="1368" interp="linr"  time="-9999999/1" value="0" leadInLength="0/1"  />
           <InterpolatingParam id="1369" interp="linr"  time="-9999999/1" value="0" leadInLength="0/1"  />
          </VectorParam>
          <InterpolatingParam id="1370" interp="linr"  time="-9999999/1" value="1" leadInLength="0/1"  name="opacity"/>
          <InterpolatingParam id="1371" interp="linr"  time="0/1" value="1" leadInLength="0/1"  name="cursorOpacity"/>
          <InterpolatingParam id="1372" interp="linr"  name="cursorScale">
           <Keyframes>
           <Keyframe id="1373"  time="0/1" value="1" leadInLength="0/1"  />
           <Keyframe id="1374"  time="350/1" value="1" leadInLength="0/1"  />
           </Keyframes>
          </InterpolatingParam>
          <Parameter id="1375"  name="captions"/>
         </Parameters>
         <Effects>
          <GenericEffect id="1376" name = "CursorBaseEffectName" >
           <Parameters>
           <InterpolatingParam id="1377" interp="linr"  time="-9999999/1" value="1" leadInLength="0/1"   name="cursorSize"/>
           <InterpolatingParam id="1378" interp="linr"  time="-9999999/1" value="0" leadInLength="0/1"   name="highlightBlurRadius"/>
           <InterpolatingParam id="1379" interp="linr"  time="-9999999/1" value="0" leadInLength="0/1"   name="highlightColorBlue"/>
           <InterpolatingParam id="1380" interp="linr"  time="-9999999/1" value="255" leadInLength="0/1"   name="highlightColorGreen"/>
           <InterpolatingParam id="1381" interp="linr"  time="-9999999/1" value="255" leadInLength="0/1"   name="highlightColorRed"/>
           <InterpolatingParam id="1382" interp="linr"  time="-9999999/1" value="5" leadInLength="0/1"   name="highlightFeatherSize"/>
           <InterpolatingParam id="1383" interp="linr"  time="-9999999/1" value="2" leadInLength="0/1"   name="highlightMagnification"/>
           <InterpolatingParam id="1384" interp="linr"  time="-9999999/1" value="1" leadInLength="0/1"   name="highlightOpacity"/>
           <InterpolatingParam id="1385" interp="linr"  time="-9999999/1" value="45" leadInLength="0/1"   name="highlightSize"/>
           <Parameter id="1386"   name="highlightType">
            <Keyframes>
            <Keyframe id="1387"  time="-9999999/1" value="0" leadInLength="0/1"  />
            </Keyframes>
           </Parameter>
           <InterpolatingParam id="1388" interp="linr"  time="-9999999/1" value="0" leadInLength="0/1"   name="leftClickColorBlue"/>
           <InterpolatingParam id="1389" interp="linr"  time="-9999999/1" value="0" leadInLength="0/1"   name="leftClickColorGreen"/>
           <InterpolatingParam id="1390" interp="linr"  time="-9999999/1" value="255" leadInLength="0/1"   name="leftClickColorRed"/>
           <InterpolatingParam id="1391" interp="linr"  time="-9999999/1" value="0.80000000000000004" leadInLength="0/1"   name="leftClickDuration"/>
           <InterpolatingParam id="1392" interp="linr"  time="-9999999/1" value="20" leadInLength="0/1"   name="leftClickSize"/>
           <Parameter id="1393"   name="leftClickSoundFilename">
            <Keyframes>
            <Keyframe id="1394"  time="-9999999/1" value="" leadInLength="0/1"  />
            </Keyframes>
           </Parameter>
           <InterpolatingParam id="1395" interp="linr"  time="-9999999/1" value="1" leadInLength="0/1"   name="leftClickSoundVolume"/>
           <Parameter id="1396"   name="leftClickType">
            <Keyframes>
            <Keyframe id="1397"  time="-9999999/1" value="0" leadInLength="0/1"  />
            </Keyframes>
           </Parameter>
           <InterpolatingParam id="1398" interp="linr"  time="-9999999/1" value="1" leadInLength="0/1"   name="opacity"/>
           <InterpolatingParam id="1399" interp="linr"  time="-9999999/1" value="255" leadInLength="0/1"   name="rightClickColorBlue"/>
           <InterpolatingParam id="1400" interp="linr"  time="-9999999/1" value="0" leadInLength="0/1"   name="rightClickColorGreen"/>
           <InterpolatingParam id="1401" interp="linr"  time="-9999999/1" value="0" leadInLength="0/1"   name="rightClickColorRed"/>
           <InterpolatingParam id="1402" interp="linr"  time="-9999999/1" value="0.80000000000000004" leadInLength="0/1"   name="rightClickDuration"/>
           <InterpolatingParam id="1403" interp="linr"  time="-9999999/1" value="20" leadInLength="0/1"   name="rightClickSize"/>
           <Parameter id="1404"   name="rightClickSoundFilename">
            <Keyframes>
            <Keyframe id="1405"  time="-9999999/1" value="" leadInLength="0/1"  />
            </Keyframes>
           </Parameter>
           <InterpolatingParam id="1406" interp="linr"  time="-9999999/1" value="1" leadInLength="0/1"   name="rightClickSoundVolume"/>
           <Parameter id="1407"   name="rightClickType">
            <Keyframes>
            <Keyframe id="1408"  time="-9999999/1" value="0" leadInLength="0/1"  />
            </Keyframes>
           </Parameter>
           </Parameters>
          </GenericEffect>
          <GenericEffect id="1409" name = "Colorize" >
           <Parameters>
           <InterpolatingParam id="1410" interp="linr"  time="0/1" value="1" leadInLength="0/1"   name="amount"/>
           <InterpolatingParam id="1411" interp="linr"  time="0/1" value="255" leadInLength="0/1"   name="color-alpha"/>
           <InterpolatingParam id="1412" interp="linr"  time="0/1" value="23" leadInLength="0/1"   name="color-blue"/>
           <InterpolatingParam id="1413" interp="linr"  time="0/1" value="120" leadInLength="0/1"   name="color-green"/>
           <InterpolatingParam id="1414" interp="linr"  time="0/1" value="255" leadInLength="0/1"   name="color-red"/>
           <Parameter id="1415"   name="enabled">
            <Keyframes>
            <Keyframe id="1416"  time="0/1" value="1" leadInLength="0/1"  />
            </Keyframes>
           </Parameter>
           <Parameter id="1417"   name="mode">
            <Keyframes>
            <Keyframe id="1418"  time="0/1" value="0" leadInLength="0/1"  />
            </Keyframes>
           </Parameter>
           </Parameters>
          </GenericEffect>
          <GenericEffect id="1419" name = "ChromaKey" >
           <Parameters>
           <InterpolatingParam id="1420" interp="linr"  time="0/1" value="0" leadInLength="0/1"   name="clrCompensation"/>
           <InterpolatingParam id="1421" interp="linr"  time="0/1" value="255" leadInLength="0/1"   name="color-alpha"/>
           <InterpolatingParam id="1422" interp="linr"  time="0/1" value="70" leadInLength="0/1"   name="color-blue"/>
           <InterpolatingParam id="1423" interp="linr"  time="0/1" value="150" leadInLength="0/1"   name="color-green"/>
           <InterpolatingParam id="1424" interp="linr"  time="0/1" value="247" leadInLength="0/1"   name="color-red"/>
           <InterpolatingParam id="1425" interp="linr"  time="0/1" value="0" leadInLength="0/1"   name="defringe"/>
           <Parameter id="1426"   name="enabled">
            <Keyframes>
            <Keyframe id="1427"  time="0/1" value="0" leadInLength="0/1"  />
            </Keyframes>
           </Parameter>
           <InterpolatingParam id="1428" interp="linr"  time="0/1" value="0" leadInLength="0/1"   name="invertEffect"/>
           <InterpolatingParam id="1429" interp="linr"  time="0/1" value="0.10000000000000001" leadInLength="0/1"   name="softness"/>
           <InterpolatingParam id="1430" interp="linr"  time="0/1" value="0.10000000000000001" leadInLength="0/1"   name="tolerance"/>
           </Parameters>
          </GenericEffect>
         </Effects>
         <Attributes>
          <Attribute id="1431" value="" name="ident"/>
         </Attributes>
         <MetaData>
          <entry key="AutoAppliedSmartFocus" val="False"/>
          <entry key="WinSubProjectDisplayName" val=""/>
         </MetaData>
         <ExtraData>
          <Entry key="ZoomPanBin">
           <ZoomPanBin id="1432"  >
            <ZoomPanKeyframes>
             <ZoomPanKeyframe id="1433" timeRangeEnd="-9999999/1" timeRangeDuration="0/1" interpolaterName="linr"  />
            </ZoomPanKeyframes>
           </ZoomPanBin>
          </Entry>
          <Entry key="CursorEffectBin">
           <CursorEffectBin id="1434"  >
            <CursorEffectKeyframes>
             <CursorEffectKeyframe id="1435" timeRangeEnd="-9999999/1" timeRangeDuration="0/1" interpolaterName=""  />
            </CursorEffectKeyframes>
           </CursorEffectBin>
          </Entry>
         </ExtraData>
         <GenericTrack id="1436"  >
          <Attributes>
           <Attribute id="1437" value="" name="ident"/>
           <Attribute id="1438" value="0" name="audioMuted"/>
           <Attribute id="1439" value="0" name="videoHidden"/>
          </Attributes>
          <MetaData>
           <entry key="IsLocked" val="False"/>
           <entry key="WinTrackHeight" val="0"/>
          </MetaData>
          <Medias>
           <ScreenVMFile id="1440" start="0" duration="350" scalar="1/1" mediaStart="0/1" mediaDuration="350/1" trackNumber="0" src="16" >
            <Transformer>
             <VectorParam id="1441"  name="translation">
              <InterpolatingParam id="1442" interp="linr"  time="-9999999/1" value="0" leadInLength="0/1"  />
              <InterpolatingParam id="1443" interp="linr"  time="-9999999/1" value="0" leadInLength="0/1"  />
              <InterpolatingParam id="1444" interp="linr"  time="-9999999/1" value="0" leadInLength="0/1"  />
             </VectorParam>
             <VectorParam id="1445"  name="rotation">
              <InterpolatingParam id="1446" interp="linr"  time="-9999999/1" value="0" leadInLength="0/1"  />
              <InterpolatingParam id="1447" interp="linr"  time="-9999999/1" value="0" leadInLength="0/1"  />
              <InterpolatingParam id="1448" interp="linr"  time="-9999999/1" value="0" leadInLength="0/1"  />
             </VectorParam>
             <VectorParam id="1449"  name="shear">
              <InterpolatingParam id="1450" interp="linr"  time="-9999999/1" value="0" leadInLength="0/1"  />
              <InterpolatingParam id="1451" interp="linr"  time="-9999999/1" value="0" leadInLength="0/1"  />
              <InterpolatingParam id="1452" interp="linr"  time="-9999999/1" value="0" leadInLength="0/1"  />
             </VectorParam>
             <VectorParam id="1453"  name="scale">
              <InterpolatingParam id="1454" interp="linr"  time="-9999999/1" value="1" leadInLength="0/1"  />
              <InterpolatingParam id="1455" interp="linr"  time="-9999999/1" value="1" leadInLength="0/1"  />
              <InterpolatingParam id="1456" interp="linr"  time="-9999999/1" value="1" leadInLength="0/1"  />
             </VectorParam>
             <VectorParam id="1457"  name="anchor">
              <InterpolatingParam id="1458" interp="linr"  time="0/1" value="0" leadInLength="0/1"  />
              <InterpolatingParam id="1459" interp="linr"  time="0/1" value="0" leadInLength="0/1"  />
              <InterpolatingParam id="1460" interp="linr"  time="0/1" value="0" leadInLength="0/1"  />
             </VectorParam>
            </Transformer>
            <Parameters>
             <VectorParam id="1461"  name="sourceCrop">
              <InterpolatingParam id="1462" interp="linr"  time="0/1" value="0" leadInLength="0/1"  />
              <InterpolatingParam id="1463" interp="linr"  time="0/1" value="0" leadInLength="0/1"  />
              <InterpolatingParam id="1464" interp="linr"  time="0/1" value="0" leadInLength="0/1"  />
              <InterpolatingParam id="1465" interp="linr"  time="0/1" value="0" leadInLength="0/1"  />
             </VectorParam>
             <VectorParam id="1466"  name="geometryCrop">
              <InterpolatingParam id="1467" interp="linr"  time="-9999999/1" value="0" leadInLength="0/1"  />
              <InterpolatingParam id="1468" interp="linr"  time="-9999999/1" value="0" leadInLength="0/1"  />
              <InterpolatingParam id="1469" interp="linr"  time="-9999999/1" value="0" leadInLength="0/1"  />
              <InterpolatingParam id="1470" interp="linr"  time="-9999999/1" value="0" leadInLength="0/1"  />
             </VectorParam>
             <InterpolatingParam id="1471" interp="linr"  time="-9999999/1" value="1" leadInLength="0/1"  name="opacity"/>
             <InterpolatingParam id="1472" interp="linr"  time="0/1" value="0" leadInLength="0/1"  name="cursorOpacity"/>
             <InterpolatingParam id="1473" interp="linr"  time="0/1" value="0" leadInLength="0/1"  name="cursorScale"/>
            </Parameters>
            <Attributes>
             <Attribute id="1474" value="" name="ident"/>
            </Attributes>
            <MetaData>
             <entry key="AutoAppliedSmartFocus" val="False"/>
             <entry key="WinSubProjectDisplayName" val=""/>
            </MetaData>
            <ExtraData>
             <Entry key="ZoomPanBin">
              <ZoomPanBin id="1475"  >
               <ZoomPanKeyframes>
                <ZoomPanKeyframe id="1476" timeRangeEnd="-9999999/1" timeRangeDuration="0/1" interpolaterName="linr"  />
               </ZoomPanKeyframes>
              </ZoomPanBin>
             </Entry>
             <Entry key="CursorEffectBin">
              <CursorEffectBin id="1477"  >
               <CursorEffectKeyframes>
               </CursorEffectKeyframes>
              </CursorEffectBin>
             </Entry>
            </ExtraData>
           </ScreenVMFile>
           <ScreenIMFile id="1478" start="350" duration="108030" scalar="1/1" mediaStart="349/1" mediaDuration="1/1" trackNumber="0" src="16" trimStartSum="0/1" >
            <Transformer>
             <VectorParam id="1479"  name="translation">
              <InterpolatingParam id="1480" interp="linr"  time="-9999999/1" value="0" leadInLength="0/1"  />
              <InterpolatingParam id="1481" interp="linr"  time="-9999999/1" value="0" leadInLength="0/1"  />
              <InterpolatingParam id="1482" interp="linr"  time="-9999999/1" value="0" leadInLength="0/1"  />
             </VectorParam>
             <VectorParam id="1483"  name="rotation">
              <InterpolatingParam id="1484" interp="linr"  time="-9999999/1" value="0" leadInLength="0/1"  />
              <InterpolatingParam id="1485" interp="linr"  time="-9999999/1" value="0" leadInLength="0/1"  />
              <InterpolatingParam id="1486" interp="linr"  time="-9999999/1" value="0" leadInLength="0/1"  />
             </VectorParam>
             <VectorParam id="1487"  name="shear">
              <InterpolatingParam id="1488" interp="linr"  time="-9999999/1" value="0" leadInLength="0/1"  />
              <InterpolatingParam id="1489" interp="linr"  time="-9999999/1" value="0" leadInLength="0/1"  />
              <InterpolatingParam id="1490" interp="linr"  time="-9999999/1" value="0" leadInLength="0/1"  />
             </VectorParam>
             <VectorParam id="1491"  name="scale">
              <InterpolatingParam id="1492" interp="linr"  time="-9999999/1" value="1" leadInLength="0/1"  />
              <InterpolatingParam id="1493" interp="linr"  time="-9999999/1" value="1" leadInLength="0/1"  />
              <InterpolatingParam id="1494" interp="linr"  time="-9999999/1" value="1" leadInLength="0/1"  />
             </VectorParam>
             <VectorParam id="1495"  name="anchor">
              <InterpolatingParam id="1496" interp="linr"  time="0/1" value="0" leadInLength="0/1"  />
              <InterpolatingParam id="1497" interp="linr"  time="0/1" value="0" leadInLength="0/1"  />
              <InterpolatingParam id="1498" interp="linr"  time="0/1" value="0" leadInLength="0/1"  />
             </VectorParam>
            </Transformer>
            <Parameters>
             <VectorParam id="1499"  name="sourceCrop">
              <InterpolatingParam id="1500" interp="linr"  time="0/1" value="0" leadInLength="0/1"  />
              <InterpolatingParam id="1501" interp="linr"  time="0/1" value="0" leadInLength="0/1"  />
              <InterpolatingParam id="1502" interp="linr"  time="0/1" value="0" leadInLength="0/1"  />
              <InterpolatingParam id="1503" interp="linr"  time="0/1" value="0" leadInLength="0/1"  />
             </VectorParam>
             <VectorParam id="1504"  name="geometryCrop">
              <InterpolatingParam id="1505" interp="linr"  time="-9999999/1" value="0" leadInLength="0/1"  />
              <InterpolatingParam id="1506" interp="linr"  time="-9999999/1" value="0" leadInLength="0/1"  />
              <InterpolatingParam id="1507" interp="linr"  time="-9999999/1" value="0" leadInLength="0/1"  />
              <InterpolatingParam id="1508" interp="linr"  time="-9999999/1" value="0" leadInLength="0/1"  />
             </VectorParam>
             <InterpolatingParam id="1509" interp="linr"  time="-9999999/1" value="1" leadInLength="0/1"  name="opacity"/>
             <InterpolatingParam id="1510" interp="linr"  time="0/1" value="(821,69,0)" leadInLength="0/1"  name="cursorLocation"/>
             <InterpolatingParam id="1511" interp="linr"  time="0/1" value="(87,53,1300,929)" leadInLength="0/1"  name="topmostWindowCoordinates"/>
             <Parameter id="1512"  name="cursorImagePath">
              <Keyframes>
              <Keyframe id="1513"  time="0/1" value="2b7b6af1-7a1f-11e2-83d0-0017f200be7f/0" leadInLength="0/1"  />
              </Keyframes>
             </Parameter>
             <InterpolatingParam id="1514" interp="linr"  time="0/1" value="(98,181,1280,720)" leadInLength="0/1"  name="recordingRegion"/>
             <InterpolatingParam id="1515" interp="linr"  time="0/1" value="0" leadInLength="0/1"  name="cursorOpacity"/>
             <InterpolatingParam id="1516" interp="linr"  time="0/1" value="1" leadInLength="0/1"  name="recordedCursorOpacity"/>
             <InterpolatingParam id="1517" interp="linr"  time="0/1" value="0" leadInLength="0/1"  name="cursorScale"/>
            </Parameters>
            <Attributes>
             <Attribute id="1518" value="" name="ident"/>
            </Attributes>
            <MetaData>
             <entry key="AutoAppliedSmartFocus" val="False"/>
             <entry key="WinSubProjectDisplayName" val=""/>
            </MetaData>
            <ExtraData>
             <Entry key="ZoomPanBin">
              <ZoomPanBin id="1519"  >
               <ZoomPanKeyframes>
                <ZoomPanKeyframe id="1520" timeRangeEnd="-9999999/1" timeRangeDuration="0/1" interpolaterName="linr"  />
               </ZoomPanKeyframes>
              </ZoomPanBin>
             </Entry>
             <Entry key="CursorEffectBin">
              <CursorEffectBin id="1521"  >
               <CursorEffectKeyframes>
               </CursorEffectKeyframes>
              </CursorEffectBin>
             </Entry>
            </ExtraData>
           </ScreenIMFile>
          </Medias>
         </GenericTrack>
        </StitchedMedia>
        <UnifiedMedia id="1522"  >
         <AudioTransition id="1523" start="3429" duration="40" >
          <Parameters>
           <InterpolatingParam id="1524" interp="linr"  time="0/1" value="1" leadInLength="0/1"  name="volume"/>
           <Parameter id="1525"  name="captions"/>
          </Parameters>
          <Effects>
           <GenericEffect id="1526" name = "AudioTransition" >
            <Parameters>
            <Parameter id="1527"   name="audioEdgeModType">
             <Keyframes>
             <Keyframe id="1528"  time="0/1" value="0" leadInLength="0/1"  />
             </Keyframes>
            </Parameter>
            <Parameter id="1529"   name="audioTransitionType">
             <Keyframes>
             <Keyframe id="1530"  time="0/1" value="" leadInLength="0/1"  />
             </Keyframes>
            </Parameter>
            </Parameters>
            <MetaData>
            </MetaData>
           </GenericEffect>
          </Effects>
          <Attributes>
           <Attribute id="1531" value="" name="ident"/>
           <Attribute id="1532" value="0" name="sampleRate"/>
           <Attribute id="1533" value="0" name="bitDepth"/>
           <Attribute id="1534" value="1" name="gain"/>
           <Attribute id="1535" value="0" name="mixToMono"/>
          </Attributes>
         </AudioTransition>
         <ImageTransition id="1536" start="3429" duration="40" >
          <Transformer>
           <VectorParam id="1537"  name="translation">
            <InterpolatingParam id="1538" interp="linr"  time="0/1" value="0" leadInLength="0/1"  />
            <InterpolatingParam id="1539" interp="linr"  time="0/1" value="0" leadInLength="0/1"  />
            <InterpolatingParam id="1540" interp="linr"  time="0/1" value="0" leadInLength="0/1"  />
           </VectorParam>
           <VectorParam id="1541"  name="rotation">
            <InterpolatingParam id="1542" interp="linr"  time="0/1" value="0" leadInLength="0/1"  />
            <InterpolatingParam id="1543" interp="linr"  time="0/1" value="0" leadInLength="0/1"  />
            <InterpolatingParam id="1544" interp="linr"  time="0/1" value="0" leadInLength="0/1"  />
           </VectorParam>
           <VectorParam id="1545"  name="shear">
            <InterpolatingParam id="1546" interp="linr"  time="0/1" value="0" leadInLength="0/1"  />
            <InterpolatingParam id="1547" interp="linr"  time="0/1" value="0" leadInLength="0/1"  />
            <InterpolatingParam id="1548" interp="linr"  time="0/1" value="0" leadInLength="0/1"  />
           </VectorParam>
           <VectorParam id="1549"  name="scale">
            <InterpolatingParam id="1550" interp="linr"  time="0/1" value="1" leadInLength="0/1"  />
            <InterpolatingParam id="1551" interp="linr"  time="0/1" value="1" leadInLength="0/1"  />
            <InterpolatingParam id="1552" interp="linr"  time="0/1" value="1" leadInLength="0/1"  />
           </VectorParam>
           <VectorParam id="1553"  name="anchor">
            <InterpolatingParam id="1554" interp="linr"  time="0/1" value="0" leadInLength="0/1"  />
            <InterpolatingParam id="1555" interp="linr"  time="0/1" value="0" leadInLength="0/1"  />
            <InterpolatingParam id="1556" interp="linr"  time="0/1" value="0" leadInLength="0/1"  />
           </VectorParam>
          </Transformer>
          <Parameters>
           <VectorParam id="1557"  name="sourceCrop">
            <InterpolatingParam id="1558" interp="linr"  time="0/1" value="0" leadInLength="0/1"  />
            <InterpolatingParam id="1559" interp="linr"  time="0/1" value="0" leadInLength="0/1"  />
            <InterpolatingParam id="1560" interp="linr"  time="0/1" value="0" leadInLength="0/1"  />
            <InterpolatingParam id="1561" interp="linr"  time="0/1" value="0" leadInLength="0/1"  />
           </VectorParam>
           <VectorParam id="1562"  name="geometryCrop">
            <InterpolatingParam id="1563" interp="linr"  time="0/1" value="0" leadInLength="0/1"  />
            <InterpolatingParam id="1564" interp="linr"  time="0/1" value="0" leadInLength="0/1"  />
            <InterpolatingParam id="1565" interp="linr"  time="0/1" value="0" leadInLength="0/1"  />
            <InterpolatingParam id="1566" interp="linr"  time="0/1" value="0" leadInLength="0/1"  />
           </VectorParam>
           <InterpolatingParam id="1567" interp="linr"  time="0/1" value="1" leadInLength="0/1"  name="opacity"/>
          </Parameters>
          <Effects>
           <GenericEffect id="1568" name = "VisualTransition" >
            <Parameters>
            <InterpolatingParam id="1569" interp="linr"  time="0/1" value="1" leadInLength="0/1"   name="leftFramePercentage"/>
            <InterpolatingParam id="1570" interp="linr"  time="0/1" value="1" leadInLength="0/1"   name="rightFramePercentage"/>
            <Parameter id="1571"   name="visualEdgeModType">
             <Keyframes>
             <Keyframe id="1572"  time="0/1" value="0" leadInLength="0/1"  />
             </Keyframes>
            </Parameter>
            <Parameter id="1573"   name="visualTransitionType">
             <Keyframes>
             <Keyframe id="1574"  time="0/1" value="Pixelate" leadInLength="0/1"  />
             </Keyframes>
            </Parameter>
            </Parameters>
            <MetaData>
            </MetaData>
           </GenericEffect>
          </Effects>
          <Attributes>
           <Attribute id="1575" value="" name="ident"/>
          </Attributes>
          <ExtraData>
           <Entry key="ZoomPanBin">
            <ZoomPanBin id="1576"  >
             <ZoomPanKeyframes>
             </ZoomPanKeyframes>
            </ZoomPanBin>
           </Entry>
          </ExtraData>
         </ImageTransition>
         <MetaData>
          <entry key="WinSubProjectDisplayName" val=""/>
         </MetaData>
        </UnifiedMedia>
        <StitchedMedia id="1577" start="3469" duration="584" scalar="1/1" mediaStart="415/1" mediaDuration="584/1" minMediaStart="0/1" >
         <Transformer>
          <VectorParam id="1578"  name="translation">
           <InterpolatingParam id="1579" interp="linr"  time="-9999999/1" value="0" leadInLength="0/1"  />
           <InterpolatingParam id="1580" interp="linr"  time="-9999999/1" value="0" leadInLength="0/1"  />
           <InterpolatingParam id="1581" interp="linr"  time="-9999999/1" value="0" leadInLength="0/1"  />
          </VectorParam>
          <VectorParam id="1582"  name="rotation">
           <InterpolatingParam id="1583" interp="linr"  time="-9999999/1" value="0" leadInLength="0/1"  />
           <InterpolatingParam id="1584" interp="linr"  time="-9999999/1" value="0" leadInLength="0/1"  />
           <InterpolatingParam id="1585" interp="linr"  time="-9999999/1" value="0" leadInLength="0/1"  />
          </VectorParam>
          <VectorParam id="1586"  name="shear">
           <InterpolatingParam id="1587" interp="linr"  time="-9999999/1" value="0" leadInLength="0/1"  />
           <InterpolatingParam id="1588" interp="linr"  time="-9999999/1" value="0" leadInLength="0/1"  />
           <InterpolatingParam id="1589" interp="linr"  time="-9999999/1" value="0" leadInLength="0/1"  />
          </VectorParam>
          <VectorParam id="1590"  name="scale">
           <InterpolatingParam id="1591" interp="linr"  time="-9999999/1" value="1" leadInLength="0/1"  />
           <InterpolatingParam id="1592" interp="linr"  time="-9999999/1" value="1" leadInLength="0/1"  />
           <InterpolatingParam id="1593" interp="linr"  time="-9999999/1" value="1" leadInLength="0/1"  />
          </VectorParam>
          <VectorParam id="1594"  name="anchor">
           <InterpolatingParam id="1595" interp="linr"  >
            <Keyframes>
            <Keyframe id="1596"  time="0/1" value="0" leadInLength="0/1"  />
            <Keyframe id="1597"  time="428/1" value="0" leadInLength="0/1"  />
            </Keyframes>
           </InterpolatingParam>
           <InterpolatingParam id="1598" interp="linr"  >
            <Keyframes>
            <Keyframe id="1599"  time="0/1" value="0" leadInLength="0/1"  />
            <Keyframe id="1600"  time="428/1" value="0" leadInLength="0/1"  />
            </Keyframes>
           </InterpolatingParam>
           <InterpolatingParam id="1601" interp="linr"  >
            <Keyframes>
            <Keyframe id="1602"  time="0/1" value="0" leadInLength="0/1"  />
            <Keyframe id="1603"  time="428/1" value="0" leadInLength="0/1"  />
            </Keyframes>
           </InterpolatingParam>
          </VectorParam>
         </Transformer>
         <Parameters>
          <VectorParam id="1604"  name="sourceCrop">
           <InterpolatingParam id="1605" interp="linr"  >
            <Keyframes>
            <Keyframe id="1606"  time="0/1" value="0" leadInLength="0/1"  />
            <Keyframe id="1607"  time="428/1" value="0" leadInLength="0/1"  />
            </Keyframes>
           </InterpolatingParam>
           <InterpolatingParam id="1608" interp="linr"  >
            <Keyframes>
            <Keyframe id="1609"  time="0/1" value="0" leadInLength="0/1"  />
            <Keyframe id="1610"  time="428/1" value="0" leadInLength="0/1"  />
            </Keyframes>
           </InterpolatingParam>
           <InterpolatingParam id="1611" interp="linr"  >
            <Keyframes>
            <Keyframe id="1612"  time="0/1" value="0" leadInLength="0/1"  />
            <Keyframe id="1613"  time="428/1" value="0" leadInLength="0/1"  />
            </Keyframes>
           </InterpolatingParam>
           <InterpolatingParam id="1614" interp="linr"  >
            <Keyframes>
            <Keyframe id="1615"  time="0/1" value="0" leadInLength="0/1"  />
            <Keyframe id="1616"  time="428/1" value="0" leadInLength="0/1"  />
            </Keyframes>
           </InterpolatingParam>
          </VectorParam>
          <VectorParam id="1617"  name="geometryCrop">
           <InterpolatingParam id="1618" interp="linr"  time="-9999999/1" value="0" leadInLength="0/1"  />
           <InterpolatingParam id="1619" interp="linr"  time="-9999999/1" value="0" leadInLength="0/1"  />
           <InterpolatingParam id="1620" interp="linr"  time="-9999999/1" value="0" leadInLength="0/1"  />
           <InterpolatingParam id="1621" interp="linr"  time="-9999999/1" value="0" leadInLength="0/1"  />
          </VectorParam>
          <InterpolatingParam id="1622" interp="linr"  time="-9999999/1" value="1" leadInLength="0/1"  name="opacity"/>
          <InterpolatingParam id="1623" interp="linr"  time="0/1" value="1" leadInLength="0/1"  name="cursorOpacity"/>
          <InterpolatingParam id="1624" interp="linr"  name="cursorScale">
           <Keyframes>
           <Keyframe id="1625"  time="0/1" value="1" leadInLength="0/1"  />
           <Keyframe id="1626"  time="428/1" value="1" leadInLength="0/1"  />
           </Keyframes>
          </InterpolatingParam>
          <Parameter id="1627"  name="captions"/>
         </Parameters>
         <Effects>
          <GenericEffect id="1628" name = "CursorBaseEffectName" >
           <Parameters>
           <InterpolatingParam id="1629" interp="linr"  time="-9999999/1" value="1" leadInLength="0/1"   name="cursorSize"/>
           <InterpolatingParam id="1630" interp="linr"  time="-9999999/1" value="0" leadInLength="0/1"   name="highlightBlurRadius"/>
           <InterpolatingParam id="1631" interp="linr"  time="-9999999/1" value="0" leadInLength="0/1"   name="highlightColorBlue"/>
           <InterpolatingParam id="1632" interp="linr"  time="-9999999/1" value="255" leadInLength="0/1"   name="highlightColorGreen"/>
           <InterpolatingParam id="1633" interp="linr"  time="-9999999/1" value="255" leadInLength="0/1"   name="highlightColorRed"/>
           <InterpolatingParam id="1634" interp="linr"  time="-9999999/1" value="5" leadInLength="0/1"   name="highlightFeatherSize"/>
           <InterpolatingParam id="1635" interp="linr"  time="-9999999/1" value="2" leadInLength="0/1"   name="highlightMagnification"/>
           <InterpolatingParam id="1636" interp="linr"  time="-9999999/1" value="1" leadInLength="0/1"   name="highlightOpacity"/>
           <InterpolatingParam id="1637" interp="linr"  time="-9999999/1" value="45" leadInLength="0/1"   name="highlightSize"/>
           <Parameter id="1638"   name="highlightType">
            <Keyframes>
            <Keyframe id="1639"  time="-9999999/1" value="0" leadInLength="0/1"  />
            </Keyframes>
           </Parameter>
           <InterpolatingParam id="1640" interp="linr"  time="-9999999/1" value="0" leadInLength="0/1"   name="leftClickColorBlue"/>
           <InterpolatingParam id="1641" interp="linr"  time="-9999999/1" value="0" leadInLength="0/1"   name="leftClickColorGreen"/>
           <InterpolatingParam id="1642" interp="linr"  time="-9999999/1" value="255" leadInLength="0/1"   name="leftClickColorRed"/>
           <InterpolatingParam id="1643" interp="linr"  time="-9999999/1" value="0.80000000000000004" leadInLength="0/1"   name="leftClickDuration"/>
           <InterpolatingParam id="1644" interp="linr"  time="-9999999/1" value="20" leadInLength="0/1"   name="leftClickSize"/>
           <Parameter id="1645"   name="leftClickSoundFilename">
            <Keyframes>
            <Keyframe id="1646"  time="-9999999/1" value="" leadInLength="0/1"  />
            </Keyframes>
           </Parameter>
           <InterpolatingParam id="1647" interp="linr"  time="-9999999/1" value="1" leadInLength="0/1"   name="leftClickSoundVolume"/>
           <Parameter id="1648"   name="leftClickType">
            <Keyframes>
            <Keyframe id="1649"  time="-9999999/1" value="0" leadInLength="0/1"  />
            </Keyframes>
           </Parameter>
           <InterpolatingParam id="1650" interp="linr"  time="-9999999/1" value="1" leadInLength="0/1"   name="opacity"/>
           <InterpolatingParam id="1651" interp="linr"  time="-9999999/1" value="255" leadInLength="0/1"   name="rightClickColorBlue"/>
           <InterpolatingParam id="1652" interp="linr"  time="-9999999/1" value="0" leadInLength="0/1"   name="rightClickColorGreen"/>
           <InterpolatingParam id="1653" interp="linr"  time="-9999999/1" value="0" leadInLength="0/1"   name="rightClickColorRed"/>
           <InterpolatingParam id="1654" interp="linr"  time="-9999999/1" value="0.80000000000000004" leadInLength="0/1"   name="rightClickDuration"/>
           <InterpolatingParam id="1655" interp="linr"  time="-9999999/1" value="20" leadInLength="0/1"   name="rightClickSize"/>
           <Parameter id="1656"   name="rightClickSoundFilename">
            <Keyframes>
            <Keyframe id="1657"  time="-9999999/1" value="" leadInLength="0/1"  />
            </Keyframes>
           </Parameter>
           <InterpolatingParam id="1658" interp="linr"  time="-9999999/1" value="1" leadInLength="0/1"   name="rightClickSoundVolume"/>
           <Parameter id="1659"   name="rightClickType">
            <Keyframes>
            <Keyframe id="1660"  time="-9999999/1" value="0" leadInLength="0/1"  />
            </Keyframes>
           </Parameter>
           </Parameters>
          </GenericEffect>
          <GenericEffect id="1661" name = "Colorize" >
           <Parameters>
           <InterpolatingParam id="1662" interp="linr"  time="0/1" value="1" leadInLength="0/1"   name="amount"/>
           <InterpolatingParam id="1663" interp="linr"  time="0/1" value="255" leadInLength="0/1"   name="color-alpha"/>
           <InterpolatingParam id="1664" interp="linr"  time="0/1" value="23" leadInLength="0/1"   name="color-blue"/>
           <InterpolatingParam id="1665" interp="linr"  time="0/1" value="120" leadInLength="0/1"   name="color-green"/>
           <InterpolatingParam id="1666" interp="linr"  time="0/1" value="255" leadInLength="0/1"   name="color-red"/>
           <Parameter id="1667"   name="enabled">
            <Keyframes>
            <Keyframe id="1668"  time="0/1" value="1" leadInLength="0/1"  />
            </Keyframes>
           </Parameter>
           <Parameter id="1669"   name="mode">
            <Keyframes>
            <Keyframe id="1670"  time="0/1" value="0" leadInLength="0/1"  />
            </Keyframes>
           </Parameter>
           </Parameters>
          </GenericEffect>
          <GenericEffect id="1671" name = "ChromaKey" >
           <Parameters>
           <InterpolatingParam id="1672" interp="linr"  time="0/1" value="0" leadInLength="0/1"   name="clrCompensation"/>
           <InterpolatingParam id="1673" interp="linr"  time="0/1" value="255" leadInLength="0/1"   name="color-alpha"/>
           <InterpolatingParam id="1674" interp="linr"  time="0/1" value="70" leadInLength="0/1"   name="color-blue"/>
           <InterpolatingParam id="1675" interp="linr"  time="0/1" value="150" leadInLength="0/1"   name="color-green"/>
           <InterpolatingParam id="1676" interp="linr"  time="0/1" value="247" leadInLength="0/1"   name="color-red"/>
           <InterpolatingParam id="1677" interp="linr"  time="0/1" value="0" leadInLength="0/1"   name="defringe"/>
           <Parameter id="1678"   name="enabled">
            <Keyframes>
            <Keyframe id="1679"  time="0/1" value="0" leadInLength="0/1"  />
            </Keyframes>
           </Parameter>
           <InterpolatingParam id="1680" interp="linr"  time="0/1" value="0" leadInLength="0/1"   name="invertEffect"/>
           <InterpolatingParam id="1681" interp="linr"  time="0/1" value="0.10000000000000001" leadInLength="0/1"   name="softness"/>
           <InterpolatingParam id="1682" interp="linr"  time="0/1" value="0.10000000000000001" leadInLength="0/1"   name="tolerance"/>
           </Parameters>
          </GenericEffect>
         </Effects>
         <Attributes>
          <Attribute id="1683" value="" name="ident"/>
         </Attributes>
         <MetaData>
          <entry key="AutoAppliedSmartFocus" val="False"/>
          <entry key="WinSubProjectDisplayName" val=""/>
         </MetaData>
         <ExtraData>
          <Entry key="ZoomPanBin">
           <ZoomPanBin id="1684"  >
            <ZoomPanKeyframes>
             <ZoomPanKeyframe id="1685" timeRangeEnd="-9999999/1" timeRangeDuration="0/1" interpolaterName="linr"  />
            </ZoomPanKeyframes>
           </ZoomPanBin>
          </Entry>
          <Entry key="CursorEffectBin">
           <CursorEffectBin id="1686"  >
            <CursorEffectKeyframes>
             <CursorEffectKeyframe id="1687" timeRangeEnd="-9999999/1" timeRangeDuration="0/1" interpolaterName=""  />
            </CursorEffectKeyframes>
           </CursorEffectBin>
          </Entry>
         </ExtraData>
         <GenericTrack id="1688"  >
          <Attributes>
           <Attribute id="1689" value="" name="ident"/>
           <Attribute id="1690" value="0" name="audioMuted"/>
           <Attribute id="1691" value="0" name="videoHidden"/>
          </Attributes>
          <MetaData>
           <entry key="IsLocked" val="False"/>
           <entry key="WinTrackHeight" val="0"/>
          </MetaData>
          <Medias>
           <ScreenVMFile id="1692" start="0" duration="428" scalar="1/1" mediaStart="0/1" mediaDuration="428/1" trackNumber="0" src="16" >
            <Transformer>
             <VectorParam id="1693"  name="translation">
              <InterpolatingParam id="1694" interp="linr"  time="-9999999/1" value="0" leadInLength="0/1"  />
              <InterpolatingParam id="1695" interp="linr"  time="-9999999/1" value="0" leadInLength="0/1"  />
              <InterpolatingParam id="1696" interp="linr"  time="-9999999/1" value="0" leadInLength="0/1"  />
             </VectorParam>
             <VectorParam id="1697"  name="rotation">
              <InterpolatingParam id="1698" interp="linr"  time="-9999999/1" value="0" leadInLength="0/1"  />
              <InterpolatingParam id="1699" interp="linr"  time="-9999999/1" value="0" leadInLength="0/1"  />
              <InterpolatingParam id="1700" interp="linr"  time="-9999999/1" value="0" leadInLength="0/1"  />
             </VectorParam>
             <VectorParam id="1701"  name="shear">
              <InterpolatingParam id="1702" interp="linr"  time="-9999999/1" value="0" leadInLength="0/1"  />
              <InterpolatingParam id="1703" interp="linr"  time="-9999999/1" value="0" leadInLength="0/1"  />
              <InterpolatingParam id="1704" interp="linr"  time="-9999999/1" value="0" leadInLength="0/1"  />
             </VectorParam>
             <VectorParam id="1705"  name="scale">
              <InterpolatingParam id="1706" interp="linr"  time="-9999999/1" value="1" leadInLength="0/1"  />
              <InterpolatingParam id="1707" interp="linr"  time="-9999999/1" value="1" leadInLength="0/1"  />
              <InterpolatingParam id="1708" interp="linr"  time="-9999999/1" value="1" leadInLength="0/1"  />
             </VectorParam>
             <VectorParam id="1709"  name="anchor">
              <InterpolatingParam id="1710" interp="linr"  time="0/1" value="0" leadInLength="0/1"  />
              <InterpolatingParam id="1711" interp="linr"  time="0/1" value="0" leadInLength="0/1"  />
              <InterpolatingParam id="1712" interp="linr"  time="0/1" value="0" leadInLength="0/1"  />
             </VectorParam>
            </Transformer>
            <Parameters>
             <VectorParam id="1713"  name="sourceCrop">
              <InterpolatingParam id="1714" interp="linr"  time="0/1" value="0" leadInLength="0/1"  />
              <InterpolatingParam id="1715" interp="linr"  time="0/1" value="0" leadInLength="0/1"  />
              <InterpolatingParam id="1716" interp="linr"  time="0/1" value="0" leadInLength="0/1"  />
              <InterpolatingParam id="1717" interp="linr"  time="0/1" value="0" leadInLength="0/1"  />
             </VectorParam>
             <VectorParam id="1718"  name="geometryCrop">
              <InterpolatingParam id="1719" interp="linr"  time="-9999999/1" value="0" leadInLength="0/1"  />
              <InterpolatingParam id="1720" interp="linr"  time="-9999999/1" value="0" leadInLength="0/1"  />
              <InterpolatingParam id="1721" interp="linr"  time="-9999999/1" value="0" leadInLength="0/1"  />
              <InterpolatingParam id="1722" interp="linr"  time="-9999999/1" value="0" leadInLength="0/1"  />
             </VectorParam>
             <InterpolatingParam id="1723" interp="linr"  time="-9999999/1" value="1" leadInLength="0/1"  name="opacity"/>
             <InterpolatingParam id="1724" interp="linr"  time="0/1" value="0" leadInLength="0/1"  name="cursorOpacity"/>
             <InterpolatingParam id="1725" interp="linr"  time="0/1" value="0" leadInLength="0/1"  name="cursorScale"/>
            </Parameters>
            <Attributes>
             <Attribute id="1726" value="" name="ident"/>
            </Attributes>
            <MetaData>
             <entry key="AutoAppliedSmartFocus" val="False"/>
             <entry key="WinSubProjectDisplayName" val=""/>
            </MetaData>
            <ExtraData>
             <Entry key="ZoomPanBin">
              <ZoomPanBin id="1727"  >
               <ZoomPanKeyframes>
                <ZoomPanKeyframe id="1728" timeRangeEnd="-9999999/1" timeRangeDuration="0/1" interpolaterName="linr"  />
               </ZoomPanKeyframes>
              </ZoomPanBin>
             </Entry>
             <Entry key="CursorEffectBin">
              <CursorEffectBin id="1729"  >
               <CursorEffectKeyframes>
               </CursorEffectKeyframes>
              </CursorEffectBin>
             </Entry>
            </ExtraData>
           </ScreenVMFile>
           <ScreenIMFile id="1730" start="428" duration="108030" scalar="1/1" mediaStart="427/1" mediaDuration="1/1" trackNumber="0" src="16" trimStartSum="0/1" >
            <Transformer>
             <VectorParam id="1731"  name="translation">
              <InterpolatingParam id="1732" interp="linr"  time="-9999999/1" value="0" leadInLength="0/1"  />
              <InterpolatingParam id="1733" interp="linr"  time="-9999999/1" value="0" leadInLength="0/1"  />
              <InterpolatingParam id="1734" interp="linr"  time="-9999999/1" value="0" leadInLength="0/1"  />
             </VectorParam>
             <VectorParam id="1735"  name="rotation">
              <InterpolatingParam id="1736" interp="linr"  time="-9999999/1" value="0" leadInLength="0/1"  />
              <InterpolatingParam id="1737" interp="linr"  time="-9999999/1" value="0" leadInLength="0/1"  />
              <InterpolatingParam id="1738" interp="linr"  time="-9999999/1" value="0" leadInLength="0/1"  />
             </VectorParam>
             <VectorParam id="1739"  name="shear">
              <InterpolatingParam id="1740" interp="linr"  time="-9999999/1" value="0" leadInLength="0/1"  />
              <InterpolatingParam id="1741" interp="linr"  time="-9999999/1" value="0" leadInLength="0/1"  />
              <InterpolatingParam id="1742" interp="linr"  time="-9999999/1" value="0" leadInLength="0/1"  />
             </VectorParam>
             <VectorParam id="1743"  name="scale">
              <InterpolatingParam id="1744" interp="linr"  time="-9999999/1" value="1" leadInLength="0/1"  />
              <InterpolatingParam id="1745" interp="linr"  time="-9999999/1" value="1" leadInLength="0/1"  />
              <InterpolatingParam id="1746" interp="linr"  time="-9999999/1" value="1" leadInLength="0/1"  />
             </VectorParam>
             <VectorParam id="1747"  name="anchor">
              <InterpolatingParam id="1748" interp="linr"  time="0/1" value="0" leadInLength="0/1"  />
              <InterpolatingParam id="1749" interp="linr"  time="0/1" value="0" leadInLength="0/1"  />
              <InterpolatingParam id="1750" interp="linr"  time="0/1" value="0" leadInLength="0/1"  />
             </VectorParam>
            </Transformer>
            <Parameters>
             <VectorParam id="1751"  name="sourceCrop">
              <InterpolatingParam id="1752" interp="linr"  time="0/1" value="0" leadInLength="0/1"  />
              <InterpolatingParam id="1753" interp="linr"  time="0/1" value="0" leadInLength="0/1"  />
              <InterpolatingParam id="1754" interp="linr"  time="0/1" value="0" leadInLength="0/1"  />
              <InterpolatingParam id="1755" interp="linr"  time="0/1" value="0" leadInLength="0/1"  />
             </VectorParam>
             <VectorParam id="1756"  name="geometryCrop">
              <InterpolatingParam id="1757" interp="linr"  time="-9999999/1" value="0" leadInLength="0/1"  />
              <InterpolatingParam id="1758" interp="linr"  time="-9999999/1" value="0" leadInLength="0/1"  />
              <InterpolatingParam id="1759" interp="linr"  time="-9999999/1" value="0" leadInLength="0/1"  />
              <InterpolatingParam id="1760" interp="linr"  time="-9999999/1" value="0" leadInLength="0/1"  />
             </VectorParam>
             <InterpolatingParam id="1761" interp="linr"  time="-9999999/1" value="1" leadInLength="0/1"  name="opacity"/>
             <InterpolatingParam id="1762" interp="linr"  name="cursorLocation">
              <Keyframes>
              <Keyframe id="1763"  time="0/1" value="(821,69,0)" leadInLength="0/1"  />
              <Keyframe id="1764"  time="288/1" value="(837,62,0)" leadInLength="0/1"  />
              <Keyframe id="1765"  time="289/1" value="(893,60,0)" leadInLength="0/1"  />
              <Keyframe id="1766"  time="290/1" value="(938,71,0)" leadInLength="0/1"  />
              <Keyframe id="1767"  time="291/1" value="(1003,78,0)" leadInLength="0/1"  />
              <Keyframe id="1768"  time="292/1" value="(1025,82,0)" leadInLength="0/1"  />
              <Keyframe id="1769"  time="293/1" value="(1144,112,0)" leadInLength="0/1"  />
              <Keyframe id="1770"  time="294/1" value="(1170,122,0)" leadInLength="0/1"  />
              <Keyframe id="1771"  time="295/1" value="(1206,141,0)" leadInLength="0/1"  />
              <Keyframe id="1772"  time="296/1" value="(1237,149,0)" leadInLength="0/1"  />
              <Keyframe id="1773"  time="297/1" value="(1268,150,0)" leadInLength="0/1"  />
              <Keyframe id="1774"  time="298/1" value="(1290,150,0)" leadInLength="0/1"  />
              <Keyframe id="1775"  time="299/1" value="(1304,150,0)" leadInLength="0/1"  />
              <Keyframe id="1776"  time="300/1" value="(1336,149,0)" leadInLength="0/1"  />
              </Keyframes>
             </InterpolatingParam>
             <InterpolatingParam id="1777" interp="linr"  time="0/1" value="(87,53,1300,929)" leadInLength="0/1"  name="topmostWindowCoordinates"/>
             <Parameter id="1778"  name="cursorImagePath">
              <Keyframes>
              <Keyframe id="1779"  time="0/1" value="2b7b6af1-7a1f-11e2-83d0-0017f200be7f/0" leadInLength="0/1"  />
              </Keyframes>
             </Parameter>
             <InterpolatingParam id="1780" interp="linr"  time="0/1" value="(98,181,1280,720)" leadInLength="0/1"  name="recordingRegion"/>
             <InterpolatingParam id="1781" interp="linr"  time="0/1" value="0" leadInLength="0/1"  name="cursorOpacity"/>
             <InterpolatingParam id="1782" interp="linr"  time="0/1" value="1" leadInLength="0/1"  name="recordedCursorOpacity"/>
             <InterpolatingParam id="1783" interp="linr"  time="0/1" value="0" leadInLength="0/1"  name="cursorScale"/>
            </Parameters>
            <Attributes>
             <Attribute id="1784" value="" name="ident"/>
            </Attributes>
            <MetaData>
             <entry key="AutoAppliedSmartFocus" val="False"/>
             <entry key="WinSubProjectDisplayName" val=""/>
            </MetaData>
            <ExtraData>
             <Entry key="ZoomPanBin">
              <ZoomPanBin id="1785"  >
               <ZoomPanKeyframes>
                <ZoomPanKeyframe id="1786" timeRangeEnd="-9999999/1" timeRangeDuration="0/1" interpolaterName="linr"  />
               </ZoomPanKeyframes>
              </ZoomPanBin>
             </Entry>
             <Entry key="CursorEffectBin">
              <CursorEffectBin id="1787"  >
               <CursorEffectKeyframes>
               </CursorEffectKeyframes>
              </CursorEffectBin>
             </Entry>
            </ExtraData>
           </ScreenIMFile>
          </Medias>
         </GenericTrack>
        </StitchedMedia>
        <UnifiedMedia id="1788"  >
         <AudioTransition id="1789" start="4053" duration="40" >
          <Parameters>
           <InterpolatingParam id="1790" interp="linr"  time="0/1" value="1" leadInLength="0/1"  name="volume"/>
           <Parameter id="1791"  name="captions"/>
          </Parameters>
          <Effects>
           <GenericEffect id="1792" name = "AudioTransition" >
            <Parameters>
            <Parameter id="1793"   name="audioEdgeModType">
             <Keyframes>
             <Keyframe id="1794"  time="0/1" value="0" leadInLength="0/1"  />
             </Keyframes>
            </Parameter>
            <Parameter id="1795"   name="audioTransitionType">
             <Keyframes>
             <Keyframe id="1796"  time="0/1" value="" leadInLength="0/1"  />
             </Keyframes>
            </Parameter>
            </Parameters>
            <MetaData>
            </MetaData>
           </GenericEffect>
          </Effects>
          <Attributes>
           <Attribute id="1797" value="" name="ident"/>
           <Attribute id="1798" value="0" name="sampleRate"/>
           <Attribute id="1799" value="0" name="bitDepth"/>
           <Attribute id="1800" value="1" name="gain"/>
           <Attribute id="1801" value="0" name="mixToMono"/>
          </Attributes>
         </AudioTransition>
         <ImageTransition id="1802" start="4053" duration="40" >
          <Transformer>
           <VectorParam id="1803"  name="translation">
            <InterpolatingParam id="1804" interp="linr"  time="0/1" value="0" leadInLength="0/1"  />
            <InterpolatingParam id="1805" interp="linr"  time="0/1" value="0" leadInLength="0/1"  />
            <InterpolatingParam id="1806" interp="linr"  time="0/1" value="0" leadInLength="0/1"  />
           </VectorParam>
           <VectorParam id="1807"  name="rotation">
            <InterpolatingParam id="1808" interp="linr"  time="0/1" value="0" leadInLength="0/1"  />
            <InterpolatingParam id="1809" interp="linr"  time="0/1" value="0" leadInLength="0/1"  />
            <InterpolatingParam id="1810" interp="linr"  time="0/1" value="0" leadInLength="0/1"  />
           </VectorParam>
           <VectorParam id="1811"  name="shear">
            <InterpolatingParam id="1812" interp="linr"  time="0/1" value="0" leadInLength="0/1"  />
            <InterpolatingParam id="1813" interp="linr"  time="0/1" value="0" leadInLength="0/1"  />
            <InterpolatingParam id="1814" interp="linr"  time="0/1" value="0" leadInLength="0/1"  />
           </VectorParam>
           <VectorParam id="1815"  name="scale">
            <InterpolatingParam id="1816" interp="linr"  time="0/1" value="1" leadInLength="0/1"  />
            <InterpolatingParam id="1817" interp="linr"  time="0/1" value="1" leadInLength="0/1"  />
            <InterpolatingParam id="1818" interp="linr"  time="0/1" value="1" leadInLength="0/1"  />
           </VectorParam>
           <VectorParam id="1819"  name="anchor">
            <InterpolatingParam id="1820" interp="linr"  time="0/1" value="0" leadInLength="0/1"  />
            <InterpolatingParam id="1821" interp="linr"  time="0/1" value="0" leadInLength="0/1"  />
            <InterpolatingParam id="1822" interp="linr"  time="0/1" value="0" leadInLength="0/1"  />
           </VectorParam>
          </Transformer>
          <Parameters>
           <VectorParam id="1823"  name="sourceCrop">
            <InterpolatingParam id="1824" interp="linr"  time="0/1" value="0" leadInLength="0/1"  />
            <InterpolatingParam id="1825" interp="linr"  time="0/1" value="0" leadInLength="0/1"  />
            <InterpolatingParam id="1826" interp="linr"  time="0/1" value="0" leadInLength="0/1"  />
            <InterpolatingParam id="1827" interp="linr"  time="0/1" value="0" leadInLength="0/1"  />
           </VectorParam>
           <VectorParam id="1828"  name="geometryCrop">
            <InterpolatingParam id="1829" interp="linr"  time="0/1" value="0" leadInLength="0/1"  />
            <InterpolatingParam id="1830" interp="linr"  time="0/1" value="0" leadInLength="0/1"  />
            <InterpolatingParam id="1831" interp="linr"  time="0/1" value="0" leadInLength="0/1"  />
            <InterpolatingParam id="1832" interp="linr"  time="0/1" value="0" leadInLength="0/1"  />
           </VectorParam>
           <InterpolatingParam id="1833" interp="linr"  time="0/1" value="1" leadInLength="0/1"  name="opacity"/>
          </Parameters>
          <Effects>
           <GenericEffect id="1834" name = "VisualTransition" >
            <Parameters>
            <InterpolatingParam id="1835" interp="linr"  time="0/1" value="1" leadInLength="0/1"   name="leftFramePercentage"/>
            <InterpolatingParam id="1836" interp="linr"  time="0/1" value="1" leadInLength="0/1"   name="rightFramePercentage"/>
            <Parameter id="1837"   name="visualEdgeModType">
             <Keyframes>
             <Keyframe id="1838"  time="0/1" value="0" leadInLength="0/1"  />
             </Keyframes>
            </Parameter>
            <Parameter id="1839"   name="visualTransitionType">
             <Keyframes>
             <Keyframe id="1840"  time="0/1" value="Pixelate" leadInLength="0/1"  />
             </Keyframes>
            </Parameter>
            </Parameters>
            <MetaData>
            </MetaData>
           </GenericEffect>
          </Effects>
          <Attributes>
           <Attribute id="1841" value="" name="ident"/>
          </Attributes>
          <ExtraData>
           <Entry key="ZoomPanBin">
            <ZoomPanBin id="1842"  >
             <ZoomPanKeyframes>
             </ZoomPanKeyframes>
            </ZoomPanBin>
           </Entry>
          </ExtraData>
         </ImageTransition>
         <MetaData>
          <entry key="WinSubProjectDisplayName" val=""/>
         </MetaData>
        </UnifiedMedia>
        <StitchedMedia id="1843" start="4093" duration="400" scalar="1/1" mediaStart="475/1" mediaDuration="400/1" minMediaStart="0/1" >
         <Transformer>
          <VectorParam id="1844"  name="translation">
           <InterpolatingParam id="1845" interp="linr"  time="-9999999/1" value="0" leadInLength="0/1"  />
           <InterpolatingParam id="1846" interp="linr"  time="-9999999/1" value="0" leadInLength="0/1"  />
           <InterpolatingParam id="1847" interp="linr"  time="-9999999/1" value="0" leadInLength="0/1"  />
          </VectorParam>
          <VectorParam id="1848"  name="rotation">
           <InterpolatingParam id="1849" interp="linr"  time="-9999999/1" value="0" leadInLength="0/1"  />
           <InterpolatingParam id="1850" interp="linr"  time="-9999999/1" value="0" leadInLength="0/1"  />
           <InterpolatingParam id="1851" interp="linr"  time="-9999999/1" value="0" leadInLength="0/1"  />
          </VectorParam>
          <VectorParam id="1852"  name="shear">
           <InterpolatingParam id="1853" interp="linr"  time="-9999999/1" value="0" leadInLength="0/1"  />
           <InterpolatingParam id="1854" interp="linr"  time="-9999999/1" value="0" leadInLength="0/1"  />
           <InterpolatingParam id="1855" interp="linr"  time="-9999999/1" value="0" leadInLength="0/1"  />
          </VectorParam>
          <VectorParam id="1856"  name="scale">
           <InterpolatingParam id="1857" interp="linr"  time="-9999999/1" value="1" leadInLength="0/1"  />
           <InterpolatingParam id="1858" interp="linr"  time="-9999999/1" value="1" leadInLength="0/1"  />
           <InterpolatingParam id="1859" interp="linr"  time="-9999999/1" value="1" leadInLength="0/1"  />
          </VectorParam>
          <VectorParam id="1860"  name="anchor">
           <InterpolatingParam id="1861" interp="linr"  >
            <Keyframes>
            <Keyframe id="1862"  time="0/1" value="0" leadInLength="0/1"  />
            <Keyframe id="1863"  time="494/1" value="0" leadInLength="0/1"  />
            </Keyframes>
           </InterpolatingParam>
           <InterpolatingParam id="1864" interp="linr"  >
            <Keyframes>
            <Keyframe id="1865"  time="0/1" value="0" leadInLength="0/1"  />
            <Keyframe id="1866"  time="494/1" value="0" leadInLength="0/1"  />
            </Keyframes>
           </InterpolatingParam>
           <InterpolatingParam id="1867" interp="linr"  >
            <Keyframes>
            <Keyframe id="1868"  time="0/1" value="0" leadInLength="0/1"  />
            <Keyframe id="1869"  time="494/1" value="0" leadInLength="0/1"  />
            </Keyframes>
           </InterpolatingParam>
          </VectorParam>
         </Transformer>
         <Parameters>
          <VectorParam id="1870"  name="sourceCrop">
           <InterpolatingParam id="1871" interp="linr"  >
            <Keyframes>
            <Keyframe id="1872"  time="0/1" value="0" leadInLength="0/1"  />
            <Keyframe id="1873"  time="494/1" value="0" leadInLength="0/1"  />
            </Keyframes>
           </InterpolatingParam>
           <InterpolatingParam id="1874" interp="linr"  >
            <Keyframes>
            <Keyframe id="1875"  time="0/1" value="0" leadInLength="0/1"  />
            <Keyframe id="1876"  time="494/1" value="0" leadInLength="0/1"  />
            </Keyframes>
           </InterpolatingParam>
           <InterpolatingParam id="1877" interp="linr"  >
            <Keyframes>
            <Keyframe id="1878"  time="0/1" value="0" leadInLength="0/1"  />
            <Keyframe id="1879"  time="494/1" value="0" leadInLength="0/1"  />
            </Keyframes>
           </InterpolatingParam>
           <InterpolatingParam id="1880" interp="linr"  >
            <Keyframes>
            <Keyframe id="1881"  time="0/1" value="0" leadInLength="0/1"  />
            <Keyframe id="1882"  time="494/1" value="0" leadInLength="0/1"  />
            </Keyframes>
           </InterpolatingParam>
          </VectorParam>
          <VectorParam id="1883"  name="geometryCrop">
           <InterpolatingParam id="1884" interp="linr"  time="-9999999/1" value="0" leadInLength="0/1"  />
           <InterpolatingParam id="1885" interp="linr"  time="-9999999/1" value="0" leadInLength="0/1"  />
           <InterpolatingParam id="1886" interp="linr"  time="-9999999/1" value="0" leadInLength="0/1"  />
           <InterpolatingParam id="1887" interp="linr"  time="-9999999/1" value="0" leadInLength="0/1"  />
          </VectorParam>
          <InterpolatingParam id="1888" interp="linr"  time="-9999999/1" value="1" leadInLength="0/1"  name="opacity"/>
          <InterpolatingParam id="1889" interp="linr"  time="0/1" value="1" leadInLength="0/1"  name="cursorOpacity"/>
          <InterpolatingParam id="1890" interp="linr"  name="cursorScale">
           <Keyframes>
           <Keyframe id="1891"  time="0/1" value="1" leadInLength="0/1"  />
           <Keyframe id="1892"  time="494/1" value="1" leadInLength="0/1"  />
           </Keyframes>
          </InterpolatingParam>
          <Parameter id="1893"  name="captions"/>
         </Parameters>
         <Effects>
          <GenericEffect id="1894" name = "CursorBaseEffectName" >
           <Parameters>
           <InterpolatingParam id="1895" interp="linr"  time="-9999999/1" value="1" leadInLength="0/1"   name="cursorSize"/>
           <InterpolatingParam id="1896" interp="linr"  time="-9999999/1" value="0" leadInLength="0/1"   name="highlightBlurRadius"/>
           <InterpolatingParam id="1897" interp="linr"  time="-9999999/1" value="0" leadInLength="0/1"   name="highlightColorBlue"/>
           <InterpolatingParam id="1898" interp="linr"  time="-9999999/1" value="255" leadInLength="0/1"   name="highlightColorGreen"/>
           <InterpolatingParam id="1899" interp="linr"  time="-9999999/1" value="255" leadInLength="0/1"   name="highlightColorRed"/>
           <InterpolatingParam id="1900" interp="linr"  time="-9999999/1" value="5" leadInLength="0/1"   name="highlightFeatherSize"/>
           <InterpolatingParam id="1901" interp="linr"  time="-9999999/1" value="2" leadInLength="0/1"   name="highlightMagnification"/>
           <InterpolatingParam id="1902" interp="linr"  time="-9999999/1" value="1" leadInLength="0/1"   name="highlightOpacity"/>
           <InterpolatingParam id="1903" interp="linr"  time="-9999999/1" value="45" leadInLength="0/1"   name="highlightSize"/>
           <Parameter id="1904"   name="highlightType">
            <Keyframes>
            <Keyframe id="1905"  time="-9999999/1" value="0" leadInLength="0/1"  />
            </Keyframes>
           </Parameter>
           <InterpolatingParam id="1906" interp="linr"  time="-9999999/1" value="0" leadInLength="0/1"   name="leftClickColorBlue"/>
           <InterpolatingParam id="1907" interp="linr"  time="-9999999/1" value="0" leadInLength="0/1"   name="leftClickColorGreen"/>
           <InterpolatingParam id="1908" interp="linr"  time="-9999999/1" value="255" leadInLength="0/1"   name="leftClickColorRed"/>
           <InterpolatingParam id="1909" interp="linr"  time="-9999999/1" value="0.80000000000000004" leadInLength="0/1"   name="leftClickDuration"/>
           <InterpolatingParam id="1910" interp="linr"  time="-9999999/1" value="20" leadInLength="0/1"   name="leftClickSize"/>
           <Parameter id="1911"   name="leftClickSoundFilename">
            <Keyframes>
            <Keyframe id="1912"  time="-9999999/1" value="" leadInLength="0/1"  />
            </Keyframes>
           </Parameter>
           <InterpolatingParam id="1913" interp="linr"  time="-9999999/1" value="1" leadInLength="0/1"   name="leftClickSoundVolume"/>
           <Parameter id="1914"   name="leftClickType">
            <Keyframes>
            <Keyframe id="1915"  time="-9999999/1" value="0" leadInLength="0/1"  />
            </Keyframes>
           </Parameter>
           <InterpolatingParam id="1916" interp="linr"  time="-9999999/1" value="1" leadInLength="0/1"   name="opacity"/>
           <InterpolatingParam id="1917" interp="linr"  time="-9999999/1" value="255" leadInLength="0/1"   name="rightClickColorBlue"/>
           <InterpolatingParam id="1918" interp="linr"  time="-9999999/1" value="0" leadInLength="0/1"   name="rightClickColorGreen"/>
           <InterpolatingParam id="1919" interp="linr"  time="-9999999/1" value="0" leadInLength="0/1"   name="rightClickColorRed"/>
           <InterpolatingParam id="1920" interp="linr"  time="-9999999/1" value="0.80000000000000004" leadInLength="0/1"   name="rightClickDuration"/>
           <InterpolatingParam id="1921" interp="linr"  time="-9999999/1" value="20" leadInLength="0/1"   name="rightClickSize"/>
           <Parameter id="1922"   name="rightClickSoundFilename">
            <Keyframes>
            <Keyframe id="1923"  time="-9999999/1" value="" leadInLength="0/1"  />
            </Keyframes>
           </Parameter>
           <InterpolatingParam id="1924" interp="linr"  time="-9999999/1" value="1" leadInLength="0/1"   name="rightClickSoundVolume"/>
           <Parameter id="1925"   name="rightClickType">
            <Keyframes>
            <Keyframe id="1926"  time="-9999999/1" value="0" leadInLength="0/1"  />
            </Keyframes>
           </Parameter>
           </Parameters>
          </GenericEffect>
          <GenericEffect id="1927" name = "Colorize" >
           <Parameters>
           <InterpolatingParam id="1928" interp="linr"  time="0/1" value="1" leadInLength="0/1"   name="amount"/>
           <InterpolatingParam id="1929" interp="linr"  time="0/1" value="255" leadInLength="0/1"   name="color-alpha"/>
           <InterpolatingParam id="1930" interp="linr"  time="0/1" value="23" leadInLength="0/1"   name="color-blue"/>
           <InterpolatingParam id="1931" interp="linr"  time="0/1" value="120" leadInLength="0/1"   name="color-green"/>
           <InterpolatingParam id="1932" interp="linr"  time="0/1" value="255" leadInLength="0/1"   name="color-red"/>
           <Parameter id="1933"   name="enabled">
            <Keyframes>
            <Keyframe id="1934"  time="0/1" value="1" leadInLength="0/1"  />
            </Keyframes>
           </Parameter>
           <Parameter id="1935"   name="mode">
            <Keyframes>
            <Keyframe id="1936"  time="0/1" value="0" leadInLength="0/1"  />
            </Keyframes>
           </Parameter>
           </Parameters>
          </GenericEffect>
          <GenericEffect id="1937" name = "ChromaKey" >
           <Parameters>
           <InterpolatingParam id="1938" interp="linr"  time="0/1" value="0" leadInLength="0/1"   name="clrCompensation"/>
           <InterpolatingParam id="1939" interp="linr"  time="0/1" value="255" leadInLength="0/1"   name="color-alpha"/>
           <InterpolatingParam id="1940" interp="linr"  time="0/1" value="70" leadInLength="0/1"   name="color-blue"/>
           <InterpolatingParam id="1941" interp="linr"  time="0/1" value="150" leadInLength="0/1"   name="color-green"/>
           <InterpolatingParam id="1942" interp="linr"  time="0/1" value="247" leadInLength="0/1"   name="color-red"/>
           <InterpolatingParam id="1943" interp="linr"  time="0/1" value="0" leadInLength="0/1"   name="defringe"/>
           <Parameter id="1944"   name="enabled">
            <Keyframes>
            <Keyframe id="1945"  time="0/1" value="0" leadInLength="0/1"  />
            </Keyframes>
           </Parameter>
           <InterpolatingParam id="1946" interp="linr"  time="0/1" value="0" leadInLength="0/1"   name="invertEffect"/>
           <InterpolatingParam id="1947" interp="linr"  time="0/1" value="0.10000000000000001" leadInLength="0/1"   name="softness"/>
           <InterpolatingParam id="1948" interp="linr"  time="0/1" value="0.10000000000000001" leadInLength="0/1"   name="tolerance"/>
           </Parameters>
          </GenericEffect>
         </Effects>
         <Attributes>
          <Attribute id="1949" value="" name="ident"/>
         </Attributes>
         <MetaData>
          <entry key="AutoAppliedSmartFocus" val="False"/>
          <entry key="WinSubProjectDisplayName" val=""/>
         </MetaData>
         <ExtraData>
          <Entry key="ZoomPanBin">
           <ZoomPanBin id="1950"  >
            <ZoomPanKeyframes>
             <ZoomPanKeyframe id="1951" timeRangeEnd="-9999999/1" timeRangeDuration="0/1" interpolaterName="linr"  />
            </ZoomPanKeyframes>
           </ZoomPanBin>
          </Entry>
          <Entry key="CursorEffectBin">
           <CursorEffectBin id="1952"  >
            <CursorEffectKeyframes>
             <CursorEffectKeyframe id="1953" timeRangeEnd="-9999999/1" timeRangeDuration="0/1" interpolaterName=""  />
            </CursorEffectKeyframes>
           </CursorEffectBin>
          </Entry>
         </ExtraData>
         <GenericTrack id="1954"  >
          <Attributes>
           <Attribute id="1955" value="" name="ident"/>
           <Attribute id="1956" value="0" name="audioMuted"/>
           <Attribute id="1957" value="0" name="videoHidden"/>
          </Attributes>
          <MetaData>
           <entry key="IsLocked" val="False"/>
           <entry key="WinTrackHeight" val="0"/>
          </MetaData>
          <Medias>
           <ScreenVMFile id="1958" start="0" duration="494" scalar="1/1" mediaStart="0/1" mediaDuration="494/1" trackNumber="0" src="16" >
            <Transformer>
             <VectorParam id="1959"  name="translation">
              <InterpolatingParam id="1960" interp="linr"  time="-9999999/1" value="0" leadInLength="0/1"  />
              <InterpolatingParam id="1961" interp="linr"  time="-9999999/1" value="0" leadInLength="0/1"  />
              <InterpolatingParam id="1962" interp="linr"  time="-9999999/1" value="0" leadInLength="0/1"  />
             </VectorParam>
             <VectorParam id="1963"  name="rotation">
              <InterpolatingParam id="1964" interp="linr"  time="-9999999/1" value="0" leadInLength="0/1"  />
              <InterpolatingParam id="1965" interp="linr"  time="-9999999/1" value="0" leadInLength="0/1"  />
              <InterpolatingParam id="1966" interp="linr"  time="-9999999/1" value="0" leadInLength="0/1"  />
             </VectorParam>
             <VectorParam id="1967"  name="shear">
              <InterpolatingParam id="1968" interp="linr"  time="-9999999/1" value="0" leadInLength="0/1"  />
              <InterpolatingParam id="1969" interp="linr"  time="-9999999/1" value="0" leadInLength="0/1"  />
              <InterpolatingParam id="1970" interp="linr"  time="-9999999/1" value="0" leadInLength="0/1"  />
             </VectorParam>
             <VectorParam id="1971"  name="scale">
              <InterpolatingParam id="1972" interp="linr"  time="-9999999/1" value="1" leadInLength="0/1"  />
              <InterpolatingParam id="1973" interp="linr"  time="-9999999/1" value="1" leadInLength="0/1"  />
              <InterpolatingParam id="1974" interp="linr"  time="-9999999/1" value="1" leadInLength="0/1"  />
             </VectorParam>
             <VectorParam id="1975"  name="anchor">
              <InterpolatingParam id="1976" interp="linr"  time="0/1" value="0" leadInLength="0/1"  />
              <InterpolatingParam id="1977" interp="linr"  time="0/1" value="0" leadInLength="0/1"  />
              <InterpolatingParam id="1978" interp="linr"  time="0/1" value="0" leadInLength="0/1"  />
             </VectorParam>
            </Transformer>
            <Parameters>
             <VectorParam id="1979"  name="sourceCrop">
              <InterpolatingParam id="1980" interp="linr"  time="0/1" value="0" leadInLength="0/1"  />
              <InterpolatingParam id="1981" interp="linr"  time="0/1" value="0" leadInLength="0/1"  />
              <InterpolatingParam id="1982" interp="linr"  time="0/1" value="0" leadInLength="0/1"  />
              <InterpolatingParam id="1983" interp="linr"  time="0/1" value="0" leadInLength="0/1"  />
             </VectorParam>
             <VectorParam id="1984"  name="geometryCrop">
              <InterpolatingParam id="1985" interp="linr"  time="-9999999/1" value="0" leadInLength="0/1"  />
              <InterpolatingParam id="1986" interp="linr"  time="-9999999/1" value="0" leadInLength="0/1"  />
              <InterpolatingParam id="1987" interp="linr"  time="-9999999/1" value="0" leadInLength="0/1"  />
              <InterpolatingParam id="1988" interp="linr"  time="-9999999/1" value="0" leadInLength="0/1"  />
             </VectorParam>
             <InterpolatingParam id="1989" interp="linr"  time="-9999999/1" value="1" leadInLength="0/1"  name="opacity"/>
             <InterpolatingParam id="1990" interp="linr"  time="0/1" value="0" leadInLength="0/1"  name="cursorOpacity"/>
             <InterpolatingParam id="1991" interp="linr"  time="0/1" value="0" leadInLength="0/1"  name="cursorScale"/>
            </Parameters>
            <Attributes>
             <Attribute id="1992" value="" name="ident"/>
            </Attributes>
            <MetaData>
             <entry key="AutoAppliedSmartFocus" val="False"/>
             <entry key="WinSubProjectDisplayName" val=""/>
            </MetaData>
            <ExtraData>
             <Entry key="ZoomPanBin">
              <ZoomPanBin id="1993"  >
               <ZoomPanKeyframes>
                <ZoomPanKeyframe id="1994" timeRangeEnd="-9999999/1" timeRangeDuration="0/1" interpolaterName="linr"  />
               </ZoomPanKeyframes>
              </ZoomPanBin>
             </Entry>
             <Entry key="CursorEffectBin">
              <CursorEffectBin id="1995"  >
               <CursorEffectKeyframes>
               </CursorEffectKeyframes>
              </CursorEffectBin>
             </Entry>
            </ExtraData>
           </ScreenVMFile>
           <ScreenIMFile id="1996" start="494" duration="108030" scalar="1/1" mediaStart="493/1" mediaDuration="1/1" trackNumber="0" src="16" trimStartSum="0/1" >
            <Transformer>
             <VectorParam id="1997"  name="translation">
              <InterpolatingParam id="1998" interp="linr"  time="-9999999/1" value="0" leadInLength="0/1"  />
              <InterpolatingParam id="1999" interp="linr"  time="-9999999/1" value="0" leadInLength="0/1"  />
              <InterpolatingParam id="2000" interp="linr"  time="-9999999/1" value="0" leadInLength="0/1"  />
             </VectorParam>
             <VectorParam id="2001"  name="rotation">
              <InterpolatingParam id="2002" interp="linr"  time="-9999999/1" value="0" leadInLength="0/1"  />
              <InterpolatingParam id="2003" interp="linr"  time="-9999999/1" value="0" leadInLength="0/1"  />
              <InterpolatingParam id="2004" interp="linr"  time="-9999999/1" value="0" leadInLength="0/1"  />
             </VectorParam>
             <VectorParam id="2005"  name="shear">
              <InterpolatingParam id="2006" interp="linr"  time="-9999999/1" value="0" leadInLength="0/1"  />
              <InterpolatingParam id="2007" interp="linr"  time="-9999999/1" value="0" leadInLength="0/1"  />
              <InterpolatingParam id="2008" interp="linr"  time="-9999999/1" value="0" leadInLength="0/1"  />
             </VectorParam>
             <VectorParam id="2009"  name="scale">
              <InterpolatingParam id="2010" interp="linr"  time="-9999999/1" value="1" leadInLength="0/1"  />
              <InterpolatingParam id="2011" interp="linr"  time="-9999999/1" value="1" leadInLength="0/1"  />
              <InterpolatingParam id="2012" interp="linr"  time="-9999999/1" value="1" leadInLength="0/1"  />
             </VectorParam>
             <VectorParam id="2013"  name="anchor">
              <InterpolatingParam id="2014" interp="linr"  time="0/1" value="0" leadInLength="0/1"  />
              <InterpolatingParam id="2015" interp="linr"  time="0/1" value="0" leadInLength="0/1"  />
              <InterpolatingParam id="2016" interp="linr"  time="0/1" value="0" leadInLength="0/1"  />
             </VectorParam>
            </Transformer>
            <Parameters>
             <VectorParam id="2017"  name="sourceCrop">
              <InterpolatingParam id="2018" interp="linr"  time="0/1" value="0" leadInLength="0/1"  />
              <InterpolatingParam id="2019" interp="linr"  time="0/1" value="0" leadInLength="0/1"  />
              <InterpolatingParam id="2020" interp="linr"  time="0/1" value="0" leadInLength="0/1"  />
              <InterpolatingParam id="2021" interp="linr"  time="0/1" value="0" leadInLength="0/1"  />
             </VectorParam>
             <VectorParam id="2022"  name="geometryCrop">
              <InterpolatingParam id="2023" interp="linr"  time="-9999999/1" value="0" leadInLength="0/1"  />
              <InterpolatingParam id="2024" interp="linr"  time="-9999999/1" value="0" leadInLength="0/1"  />
              <InterpolatingParam id="2025" interp="linr"  time="-9999999/1" value="0" leadInLength="0/1"  />
              <InterpolatingParam id="2026" interp="linr"  time="-9999999/1" value="0" leadInLength="0/1"  />
             </VectorParam>
             <InterpolatingParam id="2027" interp="linr"  time="-9999999/1" value="1" leadInLength="0/1"  name="opacity"/>
             <InterpolatingParam id="2028" interp="linr"  name="cursorLocation">
              <Keyframes>
              <Keyframe id="2029"  time="0/1" value="(821,69,0)" leadInLength="0/1"  />
              <Keyframe id="2030"  time="222/1" value="(837,62,0)" leadInLength="0/1"  />
              <Keyframe id="2031"  time="223/1" value="(893,60,0)" leadInLength="0/1"  />
              <Keyframe id="2032"  time="224/1" value="(938,71,0)" leadInLength="0/1"  />
              <Keyframe id="2033"  time="225/1" value="(1003,78,0)" leadInLength="0/1"  />
              <Keyframe id="2034"  time="226/1" value="(1025,82,0)" leadInLength="0/1"  />
              <Keyframe id="2035"  time="227/1" value="(1144,112,0)" leadInLength="0/1"  />
              <Keyframe id="2036"  time="228/1" value="(1170,122,0)" leadInLength="0/1"  />
              <Keyframe id="2037"  time="229/1" value="(1206,141,0)" leadInLength="0/1"  />
              <Keyframe id="2038"  time="230/1" value="(1237,149,0)" leadInLength="0/1"  />
              <Keyframe id="2039"  time="231/1" value="(1268,150,0)" leadInLength="0/1"  />
              <Keyframe id="2040"  time="232/1" value="(1290,150,0)" leadInLength="0/1"  />
              <Keyframe id="2041"  time="233/1" value="(1304,150,0)" leadInLength="0/1"  />
              <Keyframe id="2042"  time="234/1" value="(1336,149,0)" leadInLength="0/1"  />
              <Keyframe id="2043"  time="235/1" value="(1341,147,0)" leadInLength="0/1"  />
              <Keyframe id="2044"  time="236/1" value="(1341,145,0)" leadInLength="0/1"  />
              <Keyframe id="2045"  time="237/1" value="(1343,142,0)" leadInLength="0/1"  />
              <Keyframe id="2046"  time="238/1" value="(1346,136,0)" leadInLength="0/1"  />
              <Keyframe id="2047"  time="239/1" value="(1348,128,0)" leadInLength="0/1"  />
              <Keyframe id="2048"  time="240/1" value="(1348,120,0)" leadInLength="0/1"  />
              <Keyframe id="2049"  time="241/1" value="(1348,119,0)" leadInLength="0/1"  />
              <Keyframe id="2050"  time="243/1" value="(1348,119,0)" leadInLength="0/1"  />
              </Keyframes>
             </InterpolatingParam>
             <InterpolatingParam id="2051" interp="linr"  time="0/1" value="(87,53,1300,929)" leadInLength="0/1"  name="topmostWindowCoordinates"/>
             <InterpolatingParam id="2052" interp="linr"  name="cursorAction">
              <Keyframes>
              <Keyframe id="2053"  time="241/1" value="1" leadInLength="0/1"  />
              <Keyframe id="2054"  time="243/1" value="2" leadInLength="0/1"  />
              </Keyframes>
             </InterpolatingParam>
             <Parameter id="2055"  name="cursorImagePath">
              <Keyframes>
              <Keyframe id="2056"  time="0/1" value="2b7b6af1-7a1f-11e2-83d0-0017f200be7f/0" leadInLength="0/1"  />
              </Keyframes>
             </Parameter>
             <InterpolatingParam id="2057" interp="linr"  time="0/1" value="(98,181,1280,720)" leadInLength="0/1"  name="recordingRegion"/>
             <InterpolatingParam id="2058" interp="linr"  time="0/1" value="0" leadInLength="0/1"  name="cursorOpacity"/>
             <InterpolatingParam id="2059" interp="linr"  time="0/1" value="1" leadInLength="0/1"  name="recordedCursorOpacity"/>
             <InterpolatingParam id="2060" interp="linr"  time="0/1" value="0" leadInLength="0/1"  name="cursorScale"/>
            </Parameters>
            <Attributes>
             <Attribute id="2061" value="" name="ident"/>
            </Attributes>
            <MetaData>
             <entry key="AutoAppliedSmartFocus" val="False"/>
             <entry key="WinSubProjectDisplayName" val=""/>
            </MetaData>
            <ExtraData>
             <Entry key="ZoomPanBin">
              <ZoomPanBin id="2062"  >
               <ZoomPanKeyframes>
                <ZoomPanKeyframe id="2063" timeRangeEnd="-9999999/1" timeRangeDuration="0/1" interpolaterName="linr"  />
               </ZoomPanKeyframes>
              </ZoomPanBin>
             </Entry>
             <Entry key="CursorEffectBin">
              <CursorEffectBin id="2064"  >
               <CursorEffectKeyframes>
               </CursorEffectKeyframes>
              </CursorEffectBin>
             </Entry>
            </ExtraData>
           </ScreenIMFile>
          </Medias>
         </GenericTrack>
        </StitchedMedia>
        <UnifiedMedia id="2065"  >
         <AudioTransition id="2066" start="4493" duration="40" >
          <Parameters>
           <InterpolatingParam id="2067" interp="linr"  time="0/1" value="1" leadInLength="0/1"  name="volume"/>
           <Parameter id="2068"  name="captions"/>
          </Parameters>
          <Effects>
           <GenericEffect id="2069" name = "AudioTransition" >
            <Parameters>
            <Parameter id="2070"   name="audioEdgeModType">
             <Keyframes>
             <Keyframe id="2071"  time="0/1" value="0" leadInLength="0/1"  />
             </Keyframes>
            </Parameter>
            <Parameter id="2072"   name="audioTransitionType">
             <Keyframes>
             <Keyframe id="2073"  time="0/1" value="" leadInLength="0/1"  />
             </Keyframes>
            </Parameter>
            </Parameters>
            <MetaData>
            </MetaData>
           </GenericEffect>
          </Effects>
          <Attributes>
           <Attribute id="2074" value="" name="ident"/>
           <Attribute id="2075" value="0" name="sampleRate"/>
           <Attribute id="2076" value="0" name="bitDepth"/>
           <Attribute id="2077" value="1" name="gain"/>
           <Attribute id="2078" value="0" name="mixToMono"/>
          </Attributes>
         </AudioTransition>
         <ImageTransition id="2079" start="4493" duration="40" >
          <Transformer>
           <VectorParam id="2080"  name="translation">
            <InterpolatingParam id="2081" interp="linr"  time="0/1" value="0" leadInLength="0/1"  />
            <InterpolatingParam id="2082" interp="linr"  time="0/1" value="0" leadInLength="0/1"  />
            <InterpolatingParam id="2083" interp="linr"  time="0/1" value="0" leadInLength="0/1"  />
           </VectorParam>
           <VectorParam id="2084"  name="rotation">
            <InterpolatingParam id="2085" interp="linr"  time="0/1" value="0" leadInLength="0/1"  />
            <InterpolatingParam id="2086" interp="linr"  time="0/1" value="0" leadInLength="0/1"  />
            <InterpolatingParam id="2087" interp="linr"  time="0/1" value="0" leadInLength="0/1"  />
           </VectorParam>
           <VectorParam id="2088"  name="shear">
            <InterpolatingParam id="2089" interp="linr"  time="0/1" value="0" leadInLength="0/1"  />
            <InterpolatingParam id="2090" interp="linr"  time="0/1" value="0" leadInLength="0/1"  />
            <InterpolatingParam id="2091" interp="linr"  time="0/1" value="0" leadInLength="0/1"  />
           </VectorParam>
           <VectorParam id="2092"  name="scale">
            <InterpolatingParam id="2093" interp="linr"  time="0/1" value="1" leadInLength="0/1"  />
            <InterpolatingParam id="2094" interp="linr"  time="0/1" value="1" leadInLength="0/1"  />
            <InterpolatingParam id="2095" interp="linr"  time="0/1" value="1" leadInLength="0/1"  />
           </VectorParam>
           <VectorParam id="2096"  name="anchor">
            <InterpolatingParam id="2097" interp="linr"  time="0/1" value="0" leadInLength="0/1"  />
            <InterpolatingParam id="2098" interp="linr"  time="0/1" value="0" leadInLength="0/1"  />
            <InterpolatingParam id="2099" interp="linr"  time="0/1" value="0" leadInLength="0/1"  />
           </VectorParam>
          </Transformer>
          <Parameters>
           <VectorParam id="2100"  name="sourceCrop">
            <InterpolatingParam id="2101" interp="linr"  time="0/1" value="0" leadInLength="0/1"  />
            <InterpolatingParam id="2102" interp="linr"  time="0/1" value="0" leadInLength="0/1"  />
            <InterpolatingParam id="2103" interp="linr"  time="0/1" value="0" leadInLength="0/1"  />
            <InterpolatingParam id="2104" interp="linr"  time="0/1" value="0" leadInLength="0/1"  />
           </VectorParam>
           <VectorParam id="2105"  name="geometryCrop">
            <InterpolatingParam id="2106" interp="linr"  time="0/1" value="0" leadInLength="0/1"  />
            <InterpolatingParam id="2107" interp="linr"  time="0/1" value="0" leadInLength="0/1"  />
            <InterpolatingParam id="2108" interp="linr"  time="0/1" value="0" leadInLength="0/1"  />
            <InterpolatingParam id="2109" interp="linr"  time="0/1" value="0" leadInLength="0/1"  />
           </VectorParam>
           <InterpolatingParam id="2110" interp="linr"  time="0/1" value="1" leadInLength="0/1"  name="opacity"/>
          </Parameters>
          <Effects>
           <GenericEffect id="2111" name = "VisualTransition" >
            <Parameters>
            <InterpolatingParam id="2112" interp="linr"  time="0/1" value="1" leadInLength="0/1"   name="leftFramePercentage"/>
            <InterpolatingParam id="2113" interp="linr"  time="0/1" value="1" leadInLength="0/1"   name="rightFramePercentage"/>
            <Parameter id="2114"   name="visualEdgeModType">
             <Keyframes>
             <Keyframe id="2115"  time="0/1" value="0" leadInLength="0/1"  />
             </Keyframes>
            </Parameter>
            <Parameter id="2116"   name="visualTransitionType">
             <Keyframes>
             <Keyframe id="2117"  time="0/1" value="Pixelate" leadInLength="0/1"  />
             </Keyframes>
            </Parameter>
            </Parameters>
            <MetaData>
            </MetaData>
           </GenericEffect>
          </Effects>
          <Attributes>
           <Attribute id="2118" value="" name="ident"/>
          </Attributes>
          <ExtraData>
           <Entry key="ZoomPanBin">
            <ZoomPanBin id="2119"  >
             <ZoomPanKeyframes>
             </ZoomPanKeyframes>
            </ZoomPanBin>
           </Entry>
          </ExtraData>
         </ImageTransition>
         <MetaData>
          <entry key="WinSubProjectDisplayName" val=""/>
         </MetaData>
        </UnifiedMedia>
        <StitchedMedia id="2120" start="4533" duration="860" scalar="1/1" mediaStart="549/1" mediaDuration="860/1" minMediaStart="0/1" >
         <Transformer>
          <VectorParam id="2121"  name="translation">
           <InterpolatingParam id="2122" interp="linr"  time="-9999999/1" value="0" leadInLength="0/1"  />
           <InterpolatingParam id="2123" interp="linr"  time="-9999999/1" value="0" leadInLength="0/1"  />
           <InterpolatingParam id="2124" interp="linr"  time="-9999999/1" value="0" leadInLength="0/1"  />
          </VectorParam>
          <VectorParam id="2125"  name="rotation">
           <InterpolatingParam id="2126" interp="linr"  time="-9999999/1" value="0" leadInLength="0/1"  />
           <InterpolatingParam id="2127" interp="linr"  time="-9999999/1" value="0" leadInLength="0/1"  />
           <InterpolatingParam id="2128" interp="linr"  time="-9999999/1" value="0" leadInLength="0/1"  />
          </VectorParam>
          <VectorParam id="2129"  name="shear">
           <InterpolatingParam id="2130" interp="linr"  time="-9999999/1" value="0" leadInLength="0/1"  />
           <InterpolatingParam id="2131" interp="linr"  time="-9999999/1" value="0" leadInLength="0/1"  />
           <InterpolatingParam id="2132" interp="linr"  time="-9999999/1" value="0" leadInLength="0/1"  />
          </VectorParam>
          <VectorParam id="2133"  name="scale">
           <InterpolatingParam id="2134" interp="linr"  time="-9999999/1" value="1" leadInLength="0/1"  />
           <InterpolatingParam id="2135" interp="linr"  time="-9999999/1" value="1" leadInLength="0/1"  />
           <InterpolatingParam id="2136" interp="linr"  time="-9999999/1" value="1" leadInLength="0/1"  />
          </VectorParam>
          <VectorParam id="2137"  name="anchor">
           <InterpolatingParam id="2138" interp="linr"  >
            <Keyframes>
            <Keyframe id="2139"  time="0/1" value="0" leadInLength="0/1"  />
            <Keyframe id="2140"  time="554/1" value="0" leadInLength="0/1"  />
            </Keyframes>
           </InterpolatingParam>
           <InterpolatingParam id="2141" interp="linr"  >
            <Keyframes>
            <Keyframe id="2142"  time="0/1" value="0" leadInLength="0/1"  />
            <Keyframe id="2143"  time="554/1" value="0" leadInLength="0/1"  />
            </Keyframes>
           </InterpolatingParam>
           <InterpolatingParam id="2144" interp="linr"  >
            <Keyframes>
            <Keyframe id="2145"  time="0/1" value="0" leadInLength="0/1"  />
            <Keyframe id="2146"  time="554/1" value="0" leadInLength="0/1"  />
            </Keyframes>
           </InterpolatingParam>
          </VectorParam>
         </Transformer>
         <Parameters>
          <VectorParam id="2147"  name="sourceCrop">
           <InterpolatingParam id="2148" interp="linr"  >
            <Keyframes>
            <Keyframe id="2149"  time="0/1" value="0" leadInLength="0/1"  />
            <Keyframe id="2150"  time="554/1" value="0" leadInLength="0/1"  />
            </Keyframes>
           </InterpolatingParam>
           <InterpolatingParam id="2151" interp="linr"  >
            <Keyframes>
            <Keyframe id="2152"  time="0/1" value="0" leadInLength="0/1"  />
            <Keyframe id="2153"  time="554/1" value="0" leadInLength="0/1"  />
            </Keyframes>
           </InterpolatingParam>
           <InterpolatingParam id="2154" interp="linr"  >
            <Keyframes>
            <Keyframe id="2155"  time="0/1" value="0" leadInLength="0/1"  />
            <Keyframe id="2156"  time="554/1" value="0" leadInLength="0/1"  />
            </Keyframes>
           </InterpolatingParam>
           <InterpolatingParam id="2157" interp="linr"  >
            <Keyframes>
            <Keyframe id="2158"  time="0/1" value="0" leadInLength="0/1"  />
            <Keyframe id="2159"  time="554/1" value="0" leadInLength="0/1"  />
            </Keyframes>
           </InterpolatingParam>
          </VectorParam>
          <VectorParam id="2160"  name="geometryCrop">
           <InterpolatingParam id="2161" interp="linr"  time="-9999999/1" value="0" leadInLength="0/1"  />
           <InterpolatingParam id="2162" interp="linr"  time="-9999999/1" value="0" leadInLength="0/1"  />
           <InterpolatingParam id="2163" interp="linr"  time="-9999999/1" value="0" leadInLength="0/1"  />
           <InterpolatingParam id="2164" interp="linr"  time="-9999999/1" value="0" leadInLength="0/1"  />
          </VectorParam>
          <InterpolatingParam id="2165" interp="linr"  time="-9999999/1" value="1" leadInLength="0/1"  name="opacity"/>
          <InterpolatingParam id="2166" interp="linr"  time="0/1" value="1" leadInLength="0/1"  name="cursorOpacity"/>
          <InterpolatingParam id="2167" interp="linr"  name="cursorScale">
           <Keyframes>
           <Keyframe id="2168"  time="0/1" value="1" leadInLength="0/1"  />
           <Keyframe id="2169"  time="554/1" value="1" leadInLength="0/1"  />
           </Keyframes>
          </InterpolatingParam>
          <Parameter id="2170"  name="captions"/>
         </Parameters>
         <Effects>
          <GenericEffect id="2171" name = "CursorBaseEffectName" >
           <Parameters>
           <InterpolatingParam id="2172" interp="linr"  time="-9999999/1" value="1" leadInLength="0/1"   name="cursorSize"/>
           <InterpolatingParam id="2173" interp="linr"  time="-9999999/1" value="0" leadInLength="0/1"   name="highlightBlurRadius"/>
           <InterpolatingParam id="2174" interp="linr"  time="-9999999/1" value="0" leadInLength="0/1"   name="highlightColorBlue"/>
           <InterpolatingParam id="2175" interp="linr"  time="-9999999/1" value="255" leadInLength="0/1"   name="highlightColorGreen"/>
           <InterpolatingParam id="2176" interp="linr"  time="-9999999/1" value="255" leadInLength="0/1"   name="highlightColorRed"/>
           <InterpolatingParam id="2177" interp="linr"  time="-9999999/1" value="5" leadInLength="0/1"   name="highlightFeatherSize"/>
           <InterpolatingParam id="2178" interp="linr"  time="-9999999/1" value="2" leadInLength="0/1"   name="highlightMagnification"/>
           <InterpolatingParam id="2179" interp="linr"  time="-9999999/1" value="1" leadInLength="0/1"   name="highlightOpacity"/>
           <InterpolatingParam id="2180" interp="linr"  time="-9999999/1" value="45" leadInLength="0/1"   name="highlightSize"/>
           <Parameter id="2181"   name="highlightType">
            <Keyframes>
            <Keyframe id="2182"  time="-9999999/1" value="0" leadInLength="0/1"  />
            </Keyframes>
           </Parameter>
           <InterpolatingParam id="2183" interp="linr"  time="-9999999/1" value="0" leadInLength="0/1"   name="leftClickColorBlue"/>
           <InterpolatingParam id="2184" interp="linr"  time="-9999999/1" value="0" leadInLength="0/1"   name="leftClickColorGreen"/>
           <InterpolatingParam id="2185" interp="linr"  time="-9999999/1" value="255" leadInLength="0/1"   name="leftClickColorRed"/>
           <InterpolatingParam id="2186" interp="linr"  time="-9999999/1" value="0.80000000000000004" leadInLength="0/1"   name="leftClickDuration"/>
           <InterpolatingParam id="2187" interp="linr"  time="-9999999/1" value="20" leadInLength="0/1"   name="leftClickSize"/>
           <Parameter id="2188"   name="leftClickSoundFilename">
            <Keyframes>
            <Keyframe id="2189"  time="-9999999/1" value="" leadInLength="0/1"  />
            </Keyframes>
           </Parameter>
           <InterpolatingParam id="2190" interp="linr"  time="-9999999/1" value="1" leadInLength="0/1"   name="leftClickSoundVolume"/>
           <Parameter id="2191"   name="leftClickType">
            <Keyframes>
            <Keyframe id="2192"  time="-9999999/1" value="0" leadInLength="0/1"  />
            </Keyframes>
           </Parameter>
           <InterpolatingParam id="2193" interp="linr"  time="-9999999/1" value="1" leadInLength="0/1"   name="opacity"/>
           <InterpolatingParam id="2194" interp="linr"  time="-9999999/1" value="255" leadInLength="0/1"   name="rightClickColorBlue"/>
           <InterpolatingParam id="2195" interp="linr"  time="-9999999/1" value="0" leadInLength="0/1"   name="rightClickColorGreen"/>
           <InterpolatingParam id="2196" interp="linr"  time="-9999999/1" value="0" leadInLength="0/1"   name="rightClickColorRed"/>
           <InterpolatingParam id="2197" interp="linr"  time="-9999999/1" value="0.80000000000000004" leadInLength="0/1"   name="rightClickDuration"/>
           <InterpolatingParam id="2198" interp="linr"  time="-9999999/1" value="20" leadInLength="0/1"   name="rightClickSize"/>
           <Parameter id="2199"   name="rightClickSoundFilename">
            <Keyframes>
            <Keyframe id="2200"  time="-9999999/1" value="" leadInLength="0/1"  />
            </Keyframes>
           </Parameter>
           <InterpolatingParam id="2201" interp="linr"  time="-9999999/1" value="1" leadInLength="0/1"   name="rightClickSoundVolume"/>
           <Parameter id="2202"   name="rightClickType">
            <Keyframes>
            <Keyframe id="2203"  time="-9999999/1" value="0" leadInLength="0/1"  />
            </Keyframes>
           </Parameter>
           </Parameters>
          </GenericEffect>
          <GenericEffect id="2204" name = "Colorize" >
           <Parameters>
           <InterpolatingParam id="2205" interp="linr"  time="0/1" value="1" leadInLength="0/1"   name="amount"/>
           <InterpolatingParam id="2206" interp="linr"  time="0/1" value="255" leadInLength="0/1"   name="color-alpha"/>
           <InterpolatingParam id="2207" interp="linr"  time="0/1" value="23" leadInLength="0/1"   name="color-blue"/>
           <InterpolatingParam id="2208" interp="linr"  time="0/1" value="120" leadInLength="0/1"   name="color-green"/>
           <InterpolatingParam id="2209" interp="linr"  time="0/1" value="255" leadInLength="0/1"   name="color-red"/>
           <Parameter id="2210"   name="enabled">
            <Keyframes>
            <Keyframe id="2211"  time="0/1" value="1" leadInLength="0/1"  />
            </Keyframes>
           </Parameter>
           <Parameter id="2212"   name="mode">
            <Keyframes>
            <Keyframe id="2213"  time="0/1" value="0" leadInLength="0/1"  />
            </Keyframes>
           </Parameter>
           </Parameters>
          </GenericEffect>
          <GenericEffect id="2214" name = "ChromaKey" >
           <Parameters>
           <InterpolatingParam id="2215" interp="linr"  time="0/1" value="0" leadInLength="0/1"   name="clrCompensation"/>
           <InterpolatingParam id="2216" interp="linr"  time="0/1" value="255" leadInLength="0/1"   name="color-alpha"/>
           <InterpolatingParam id="2217" interp="linr"  time="0/1" value="70" leadInLength="0/1"   name="color-blue"/>
           <InterpolatingParam id="2218" interp="linr"  time="0/1" value="150" leadInLength="0/1"   name="color-green"/>
           <InterpolatingParam id="2219" interp="linr"  time="0/1" value="247" leadInLength="0/1"   name="color-red"/>
           <InterpolatingParam id="2220" interp="linr"  time="0/1" value="0" leadInLength="0/1"   name="defringe"/>
           <Parameter id="2221"   name="enabled">
            <Keyframes>
            <Keyframe id="2222"  time="0/1" value="0" leadInLength="0/1"  />
            </Keyframes>
           </Parameter>
           <InterpolatingParam id="2223" interp="linr"  time="0/1" value="0" leadInLength="0/1"   name="invertEffect"/>
           <InterpolatingParam id="2224" interp="linr"  time="0/1" value="0.10000000000000001" leadInLength="0/1"   name="softness"/>
           <InterpolatingParam id="2225" interp="linr"  time="0/1" value="0.10000000000000001" leadInLength="0/1"   name="tolerance"/>
           </Parameters>
          </GenericEffect>
         </Effects>
         <Attributes>
          <Attribute id="2226" value="" name="ident"/>
         </Attributes>
         <MetaData>
          <entry key="AutoAppliedSmartFocus" val="False"/>
          <entry key="WinSubProjectDisplayName" val=""/>
         </MetaData>
         <ExtraData>
          <Entry key="ZoomPanBin">
           <ZoomPanBin id="2227"  >
            <ZoomPanKeyframes>
             <ZoomPanKeyframe id="2228" timeRangeEnd="-9999999/1" timeRangeDuration="0/1" interpolaterName="linr"  />
            </ZoomPanKeyframes>
           </ZoomPanBin>
          </Entry>
          <Entry key="CursorEffectBin">
           <CursorEffectBin id="2229"  >
            <CursorEffectKeyframes>
             <CursorEffectKeyframe id="2230" timeRangeEnd="-9999999/1" timeRangeDuration="0/1" interpolaterName=""  />
            </CursorEffectKeyframes>
           </CursorEffectBin>
          </Entry>
         </ExtraData>
         <GenericTrack id="2231"  >
          <Attributes>
           <Attribute id="2232" value="" name="ident"/>
           <Attribute id="2233" value="0" name="audioMuted"/>
           <Attribute id="2234" value="0" name="videoHidden"/>
          </Attributes>
          <MetaData>
           <entry key="IsLocked" val="False"/>
           <entry key="WinTrackHeight" val="0"/>
          </MetaData>
          <Medias>
           <ScreenVMFile id="2235" start="0" duration="554" scalar="1/1" mediaStart="0/1" mediaDuration="554/1" trackNumber="0" src="16" >
            <Transformer>
             <VectorParam id="2236"  name="translation">
              <InterpolatingParam id="2237" interp="linr"  time="-9999999/1" value="0" leadInLength="0/1"  />
              <InterpolatingParam id="2238" interp="linr"  time="-9999999/1" value="0" leadInLength="0/1"  />
              <InterpolatingParam id="2239" interp="linr"  time="-9999999/1" value="0" leadInLength="0/1"  />
             </VectorParam>
             <VectorParam id="2240"  name="rotation">
              <InterpolatingParam id="2241" interp="linr"  time="-9999999/1" value="0" leadInLength="0/1"  />
              <InterpolatingParam id="2242" interp="linr"  time="-9999999/1" value="0" leadInLength="0/1"  />
              <InterpolatingParam id="2243" interp="linr"  time="-9999999/1" value="0" leadInLength="0/1"  />
             </VectorParam>
             <VectorParam id="2244"  name="shear">
              <InterpolatingParam id="2245" interp="linr"  time="-9999999/1" value="0" leadInLength="0/1"  />
              <InterpolatingParam id="2246" interp="linr"  time="-9999999/1" value="0" leadInLength="0/1"  />
              <InterpolatingParam id="2247" interp="linr"  time="-9999999/1" value="0" leadInLength="0/1"  />
             </VectorParam>
             <VectorParam id="2248"  name="scale">
              <InterpolatingParam id="2249" interp="linr"  time="-9999999/1" value="1" leadInLength="0/1"  />
              <InterpolatingParam id="2250" interp="linr"  time="-9999999/1" value="1" leadInLength="0/1"  />
              <InterpolatingParam id="2251" interp="linr"  time="-9999999/1" value="1" leadInLength="0/1"  />
             </VectorParam>
             <VectorParam id="2252"  name="anchor">
              <InterpolatingParam id="2253" interp="linr"  time="0/1" value="0" leadInLength="0/1"  />
              <InterpolatingParam id="2254" interp="linr"  time="0/1" value="0" leadInLength="0/1"  />
              <InterpolatingParam id="2255" interp="linr"  time="0/1" value="0" leadInLength="0/1"  />
             </VectorParam>
            </Transformer>
            <Parameters>
             <VectorParam id="2256"  name="sourceCrop">
              <InterpolatingParam id="2257" interp="linr"  time="0/1" value="0" leadInLength="0/1"  />
              <InterpolatingParam id="2258" interp="linr"  time="0/1" value="0" leadInLength="0/1"  />
              <InterpolatingParam id="2259" interp="linr"  time="0/1" value="0" leadInLength="0/1"  />
              <InterpolatingParam id="2260" interp="linr"  time="0/1" value="0" leadInLength="0/1"  />
             </VectorParam>
             <VectorParam id="2261"  name="geometryCrop">
              <InterpolatingParam id="2262" interp="linr"  time="-9999999/1" value="0" leadInLength="0/1"  />
              <InterpolatingParam id="2263" interp="linr"  time="-9999999/1" value="0" leadInLength="0/1"  />
              <InterpolatingParam id="2264" interp="linr"  time="-9999999/1" value="0" leadInLength="0/1"  />
              <InterpolatingParam id="2265" interp="linr"  time="-9999999/1" value="0" leadInLength="0/1"  />
             </VectorParam>
             <InterpolatingParam id="2266" interp="linr"  time="-9999999/1" value="1" leadInLength="0/1"  name="opacity"/>
             <InterpolatingParam id="2267" interp="linr"  time="0/1" value="0" leadInLength="0/1"  name="cursorOpacity"/>
             <InterpolatingParam id="2268" interp="linr"  time="0/1" value="0" leadInLength="0/1"  name="cursorScale"/>
            </Parameters>
            <Attributes>
             <Attribute id="2269" value="" name="ident"/>
            </Attributes>
            <MetaData>
             <entry key="AutoAppliedSmartFocus" val="False"/>
             <entry key="WinSubProjectDisplayName" val=""/>
            </MetaData>
            <ExtraData>
             <Entry key="ZoomPanBin">
              <ZoomPanBin id="2270"  >
               <ZoomPanKeyframes>
                <ZoomPanKeyframe id="2271" timeRangeEnd="-9999999/1" timeRangeDuration="0/1" interpolaterName="linr"  />
               </ZoomPanKeyframes>
              </ZoomPanBin>
             </Entry>
             <Entry key="CursorEffectBin">
              <CursorEffectBin id="2272"  >
               <CursorEffectKeyframes>
               </CursorEffectKeyframes>
              </CursorEffectBin>
             </Entry>
            </ExtraData>
           </ScreenVMFile>
           <ScreenIMFile id="2273" start="554" duration="108030" scalar="1/1" mediaStart="553/1" mediaDuration="1/1" trackNumber="0" src="16" trimStartSum="0/1" >
            <Transformer>
             <VectorParam id="2274"  name="translation">
              <InterpolatingParam id="2275" interp="linr"  time="-9999999/1" value="0" leadInLength="0/1"  />
              <InterpolatingParam id="2276" interp="linr"  time="-9999999/1" value="0" leadInLength="0/1"  />
              <InterpolatingParam id="2277" interp="linr"  time="-9999999/1" value="0" leadInLength="0/1"  />
             </VectorParam>
             <VectorParam id="2278"  name="rotation">
              <InterpolatingParam id="2279" interp="linr"  time="-9999999/1" value="0" leadInLength="0/1"  />
              <InterpolatingParam id="2280" interp="linr"  time="-9999999/1" value="0" leadInLength="0/1"  />
              <InterpolatingParam id="2281" interp="linr"  time="-9999999/1" value="0" leadInLength="0/1"  />
             </VectorParam>
             <VectorParam id="2282"  name="shear">
              <InterpolatingParam id="2283" interp="linr"  time="-9999999/1" value="0" leadInLength="0/1"  />
              <InterpolatingParam id="2284" interp="linr"  time="-9999999/1" value="0" leadInLength="0/1"  />
              <InterpolatingParam id="2285" interp="linr"  time="-9999999/1" value="0" leadInLength="0/1"  />
             </VectorParam>
             <VectorParam id="2286"  name="scale">
              <InterpolatingParam id="2287" interp="linr"  time="-9999999/1" value="1" leadInLength="0/1"  />
              <InterpolatingParam id="2288" interp="linr"  time="-9999999/1" value="1" leadInLength="0/1"  />
              <InterpolatingParam id="2289" interp="linr"  time="-9999999/1" value="1" leadInLength="0/1"  />
             </VectorParam>
             <VectorParam id="2290"  name="anchor">
              <InterpolatingParam id="2291" interp="linr"  time="0/1" value="0" leadInLength="0/1"  />
              <InterpolatingParam id="2292" interp="linr"  time="0/1" value="0" leadInLength="0/1"  />
              <InterpolatingParam id="2293" interp="linr"  time="0/1" value="0" leadInLength="0/1"  />
             </VectorParam>
            </Transformer>
            <Parameters>
             <VectorParam id="2294"  name="sourceCrop">
              <InterpolatingParam id="2295" interp="linr"  time="0/1" value="0" leadInLength="0/1"  />
              <InterpolatingParam id="2296" interp="linr"  time="0/1" value="0" leadInLength="0/1"  />
              <InterpolatingParam id="2297" interp="linr"  time="0/1" value="0" leadInLength="0/1"  />
              <InterpolatingParam id="2298" interp="linr"  time="0/1" value="0" leadInLength="0/1"  />
             </VectorParam>
             <VectorParam id="2299"  name="geometryCrop">
              <InterpolatingParam id="2300" interp="linr"  time="-9999999/1" value="0" leadInLength="0/1"  />
              <InterpolatingParam id="2301" interp="linr"  time="-9999999/1" value="0" leadInLength="0/1"  />
              <InterpolatingParam id="2302" interp="linr"  time="-9999999/1" value="0" leadInLength="0/1"  />
              <InterpolatingParam id="2303" interp="linr"  time="-9999999/1" value="0" leadInLength="0/1"  />
             </VectorParam>
             <InterpolatingParam id="2304" interp="linr"  time="-9999999/1" value="1" leadInLength="0/1"  name="opacity"/>
             <InterpolatingParam id="2305" interp="linr"  name="cursorLocation">
              <Keyframes>
              <Keyframe id="2306"  time="0/1" value="(821,69,0)" leadInLength="0/1"  />
              <Keyframe id="2307"  time="162/1" value="(837,62,0)" leadInLength="0/1"  />
              <Keyframe id="2308"  time="163/1" value="(893,60,0)" leadInLength="0/1"  />
              <Keyframe id="2309"  time="164/1" value="(938,71,0)" leadInLength="0/1"  />
              <Keyframe id="2310"  time="165/1" value="(1003,78,0)" leadInLength="0/1"  />
              <Keyframe id="2311"  time="166/1" value="(1025,82,0)" leadInLength="0/1"  />
              <Keyframe id="2312"  time="167/1" value="(1144,112,0)" leadInLength="0/1"  />
              <Keyframe id="2313"  time="168/1" value="(1170,122,0)" leadInLength="0/1"  />
              <Keyframe id="2314"  time="169/1" value="(1206,141,0)" leadInLength="0/1"  />
              <Keyframe id="2315"  time="170/1" value="(1237,149,0)" leadInLength="0/1"  />
              <Keyframe id="2316"  time="171/1" value="(1268,150,0)" leadInLength="0/1"  />
              <Keyframe id="2317"  time="172/1" value="(1290,150,0)" leadInLength="0/1"  />
              <Keyframe id="2318"  time="173/1" value="(1304,150,0)" leadInLength="0/1"  />
              <Keyframe id="2319"  time="174/1" value="(1336,149,0)" leadInLength="0/1"  />
              <Keyframe id="2320"  time="175/1" value="(1341,147,0)" leadInLength="0/1"  />
              <Keyframe id="2321"  time="176/1" value="(1341,145,0)" leadInLength="0/1"  />
              <Keyframe id="2322"  time="177/1" value="(1343,142,0)" leadInLength="0/1"  />
              <Keyframe id="2323"  time="178/1" value="(1346,136,0)" leadInLength="0/1"  />
              <Keyframe id="2324"  time="179/1" value="(1348,128,0)" leadInLength="0/1"  />
              <Keyframe id="2325"  time="180/1" value="(1348,120,0)" leadInLength="0/1"  />
              <Keyframe id="2326"  time="181/1" value="(1348,119,0)" leadInLength="0/1"  />
              <Keyframe id="2327"  time="183/1" value="(1348,119,0)" leadInLength="0/1"  />
              </Keyframes>
             </InterpolatingParam>
             <InterpolatingParam id="2328" interp="linr"  time="0/1" value="(87,53,1300,929)" leadInLength="0/1"  name="topmostWindowCoordinates"/>
             <InterpolatingParam id="2329" interp="linr"  name="cursorAction">
              <Keyframes>
              <Keyframe id="2330"  time="181/1" value="1" leadInLength="0/1"  />
              <Keyframe id="2331"  time="183/1" value="2" leadInLength="0/1"  />
              </Keyframes>
             </InterpolatingParam>
             <Parameter id="2332"  name="cursorImagePath">
              <Keyframes>
              <Keyframe id="2333"  time="0/1" value="2b7b6af1-7a1f-11e2-83d0-0017f200be7f/0" leadInLength="0/1"  />
              </Keyframes>
             </Parameter>
             <InterpolatingParam id="2334" interp="linr"  time="0/1" value="(98,181,1280,720)" leadInLength="0/1"  name="recordingRegion"/>
             <InterpolatingParam id="2335" interp="linr"  time="0/1" value="0" leadInLength="0/1"  name="cursorOpacity"/>
             <InterpolatingParam id="2336" interp="linr"  time="0/1" value="1" leadInLength="0/1"  name="recordedCursorOpacity"/>
             <InterpolatingParam id="2337" interp="linr"  time="0/1" value="0" leadInLength="0/1"  name="cursorScale"/>
            </Parameters>
            <Attributes>
             <Attribute id="2338" value="" name="ident"/>
            </Attributes>
            <MetaData>
             <entry key="AutoAppliedSmartFocus" val="False"/>
             <entry key="WinSubProjectDisplayName" val=""/>
            </MetaData>
            <ExtraData>
             <Entry key="ZoomPanBin">
              <ZoomPanBin id="2339"  >
               <ZoomPanKeyframes>
                <ZoomPanKeyframe id="2340" timeRangeEnd="-9999999/1" timeRangeDuration="0/1" interpolaterName="linr"  />
               </ZoomPanKeyframes>
              </ZoomPanBin>
             </Entry>
             <Entry key="CursorEffectBin">
              <CursorEffectBin id="2341"  >
               <CursorEffectKeyframes>
               </CursorEffectKeyframes>
              </CursorEffectBin>
             </Entry>
            </ExtraData>
           </ScreenIMFile>
          </Medias>
         </GenericTrack>
        </StitchedMedia>
        <UnifiedMedia id="2342"  >
         <AudioTransition id="2343" start="5393" duration="40" >
          <Parameters>
           <InterpolatingParam id="2344" interp="linr"  time="0/1" value="1" leadInLength="0/1"  name="volume"/>
           <Parameter id="2345"  name="captions"/>
          </Parameters>
          <Effects>
           <GenericEffect id="2346" name = "AudioTransition" >
            <Parameters>
            <Parameter id="2347"   name="audioEdgeModType">
             <Keyframes>
             <Keyframe id="2348"  time="0/1" value="0" leadInLength="0/1"  />
             </Keyframes>
            </Parameter>
            <Parameter id="2349"   name="audioTransitionType">
             <Keyframes>
             <Keyframe id="2350"  time="0/1" value="" leadInLength="0/1"  />
             </Keyframes>
            </Parameter>
            </Parameters>
            <MetaData>
            </MetaData>
           </GenericEffect>
          </Effects>
          <Attributes>
           <Attribute id="2351" value="" name="ident"/>
           <Attribute id="2352" value="0" name="sampleRate"/>
           <Attribute id="2353" value="0" name="bitDepth"/>
           <Attribute id="2354" value="1" name="gain"/>
           <Attribute id="2355" value="0" name="mixToMono"/>
          </Attributes>
         </AudioTransition>
         <ImageTransition id="2356" start="5393" duration="40" >
          <Transformer>
           <VectorParam id="2357"  name="translation">
            <InterpolatingParam id="2358" interp="linr"  time="0/1" value="0" leadInLength="0/1"  />
            <InterpolatingParam id="2359" interp="linr"  time="0/1" value="0" leadInLength="0/1"  />
            <InterpolatingParam id="2360" interp="linr"  time="0/1" value="0" leadInLength="0/1"  />
           </VectorParam>
           <VectorParam id="2361"  name="rotation">
            <InterpolatingParam id="2362" interp="linr"  time="0/1" value="0" leadInLength="0/1"  />
            <InterpolatingParam id="2363" interp="linr"  time="0/1" value="0" leadInLength="0/1"  />
            <InterpolatingParam id="2364" interp="linr"  time="0/1" value="0" leadInLength="0/1"  />
           </VectorParam>
           <VectorParam id="2365"  name="shear">
            <InterpolatingParam id="2366" interp="linr"  time="0/1" value="0" leadInLength="0/1"  />
            <InterpolatingParam id="2367" interp="linr"  time="0/1" value="0" leadInLength="0/1"  />
            <InterpolatingParam id="2368" interp="linr"  time="0/1" value="0" leadInLength="0/1"  />
           </VectorParam>
           <VectorParam id="2369"  name="scale">
            <InterpolatingParam id="2370" interp="linr"  time="0/1" value="1" leadInLength="0/1"  />
            <InterpolatingParam id="2371" interp="linr"  time="0/1" value="1" leadInLength="0/1"  />
            <InterpolatingParam id="2372" interp="linr"  time="0/1" value="1" leadInLength="0/1"  />
           </VectorParam>
           <VectorParam id="2373"  name="anchor">
            <InterpolatingParam id="2374" interp="linr"  time="0/1" value="0" leadInLength="0/1"  />
            <InterpolatingParam id="2375" interp="linr"  time="0/1" value="0" leadInLength="0/1"  />
            <InterpolatingParam id="2376" interp="linr"  time="0/1" value="0" leadInLength="0/1"  />
           </VectorParam>
          </Transformer>
          <Parameters>
           <VectorParam id="2377"  name="sourceCrop">
            <InterpolatingParam id="2378" interp="linr"  time="0/1" value="0" leadInLength="0/1"  />
            <InterpolatingParam id="2379" interp="linr"  time="0/1" value="0" leadInLength="0/1"  />
            <InterpolatingParam id="2380" interp="linr"  time="0/1" value="0" leadInLength="0/1"  />
            <InterpolatingParam id="2381" interp="linr"  time="0/1" value="0" leadInLength="0/1"  />
           </VectorParam>
           <VectorParam id="2382"  name="geometryCrop">
            <InterpolatingParam id="2383" interp="linr"  time="0/1" value="0" leadInLength="0/1"  />
            <InterpolatingParam id="2384" interp="linr"  time="0/1" value="0" leadInLength="0/1"  />
            <InterpolatingParam id="2385" interp="linr"  time="0/1" value="0" leadInLength="0/1"  />
            <InterpolatingParam id="2386" interp="linr"  time="0/1" value="0" leadInLength="0/1"  />
           </VectorParam>
           <InterpolatingParam id="2387" interp="linr"  time="0/1" value="1" leadInLength="0/1"  name="opacity"/>
          </Parameters>
          <Effects>
           <GenericEffect id="2388" name = "VisualTransition" >
            <Parameters>
            <InterpolatingParam id="2389" interp="linr"  time="0/1" value="1" leadInLength="0/1"   name="leftFramePercentage"/>
            <InterpolatingParam id="2390" interp="linr"  time="0/1" value="1" leadInLength="0/1"   name="rightFramePercentage"/>
            <Parameter id="2391"   name="visualEdgeModType">
             <Keyframes>
             <Keyframe id="2392"  time="0/1" value="0" leadInLength="0/1"  />
             </Keyframes>
            </Parameter>
            <Parameter id="2393"   name="visualTransitionType">
             <Keyframes>
             <Keyframe id="2394"  time="0/1" value="Pixelate" leadInLength="0/1"  />
             </Keyframes>
            </Parameter>
            </Parameters>
            <MetaData>
            </MetaData>
           </GenericEffect>
          </Effects>
          <Attributes>
           <Attribute id="2395" value="" name="ident"/>
          </Attributes>
          <ExtraData>
           <Entry key="ZoomPanBin">
            <ZoomPanBin id="2396"  >
             <ZoomPanKeyframes>
             </ZoomPanKeyframes>
            </ZoomPanBin>
           </Entry>
          </ExtraData>
         </ImageTransition>
         <MetaData>
          <entry key="WinSubProjectDisplayName" val=""/>
         </MetaData>
        </UnifiedMedia>
        <StitchedMedia id="2397" start="5433" duration="432" scalar="1/1" mediaStart="602/1" mediaDuration="432/1" minMediaStart="0/1" >
         <Transformer>
          <VectorParam id="2398"  name="translation">
           <InterpolatingParam id="2399" interp="linr"  time="-9999999/1" value="0" leadInLength="0/1"  />
           <InterpolatingParam id="2400" interp="linr"  time="-9999999/1" value="0" leadInLength="0/1"  />
           <InterpolatingParam id="2401" interp="linr"  time="-9999999/1" value="0" leadInLength="0/1"  />
          </VectorParam>
          <VectorParam id="2402"  name="rotation">
           <InterpolatingParam id="2403" interp="linr"  time="-9999999/1" value="0" leadInLength="0/1"  />
           <InterpolatingParam id="2404" interp="linr"  time="-9999999/1" value="0" leadInLength="0/1"  />
           <InterpolatingParam id="2405" interp="linr"  time="-9999999/1" value="0" leadInLength="0/1"  />
          </VectorParam>
          <VectorParam id="2406"  name="shear">
           <InterpolatingParam id="2407" interp="linr"  time="-9999999/1" value="0" leadInLength="0/1"  />
           <InterpolatingParam id="2408" interp="linr"  time="-9999999/1" value="0" leadInLength="0/1"  />
           <InterpolatingParam id="2409" interp="linr"  time="-9999999/1" value="0" leadInLength="0/1"  />
          </VectorParam>
          <VectorParam id="2410"  name="scale">
           <InterpolatingParam id="2411" interp="linr"  time="-9999999/1" value="1" leadInLength="0/1"  />
           <InterpolatingParam id="2412" interp="linr"  time="-9999999/1" value="1" leadInLength="0/1"  />
           <InterpolatingParam id="2413" interp="linr"  time="-9999999/1" value="1" leadInLength="0/1"  />
          </VectorParam>
          <VectorParam id="2414"  name="anchor">
           <InterpolatingParam id="2415" interp="linr"  >
            <Keyframes>
            <Keyframe id="2416"  time="0/1" value="0" leadInLength="0/1"  />
            <Keyframe id="2417"  time="617/1" value="0" leadInLength="0/1"  />
            </Keyframes>
           </InterpolatingParam>
           <InterpolatingParam id="2418" interp="linr"  >
            <Keyframes>
            <Keyframe id="2419"  time="0/1" value="0" leadInLength="0/1"  />
            <Keyframe id="2420"  time="617/1" value="0" leadInLength="0/1"  />
            </Keyframes>
           </InterpolatingParam>
           <InterpolatingParam id="2421" interp="linr"  >
            <Keyframes>
            <Keyframe id="2422"  time="0/1" value="0" leadInLength="0/1"  />
            <Keyframe id="2423"  time="617/1" value="0" leadInLength="0/1"  />
            </Keyframes>
           </InterpolatingParam>
          </VectorParam>
         </Transformer>
         <Parameters>
          <VectorParam id="2424"  name="sourceCrop">
           <InterpolatingParam id="2425" interp="linr"  >
            <Keyframes>
            <Keyframe id="2426"  time="0/1" value="0" leadInLength="0/1"  />
            <Keyframe id="2427"  time="617/1" value="0" leadInLength="0/1"  />
            </Keyframes>
           </InterpolatingParam>
           <InterpolatingParam id="2428" interp="linr"  >
            <Keyframes>
            <Keyframe id="2429"  time="0/1" value="0" leadInLength="0/1"  />
            <Keyframe id="2430"  time="617/1" value="0" leadInLength="0/1"  />
            </Keyframes>
           </InterpolatingParam>
           <InterpolatingParam id="2431" interp="linr"  >
            <Keyframes>
            <Keyframe id="2432"  time="0/1" value="0" leadInLength="0/1"  />
            <Keyframe id="2433"  time="617/1" value="0" leadInLength="0/1"  />
            </Keyframes>
           </InterpolatingParam>
           <InterpolatingParam id="2434" interp="linr"  >
            <Keyframes>
            <Keyframe id="2435"  time="0/1" value="0" leadInLength="0/1"  />
            <Keyframe id="2436"  time="617/1" value="0" leadInLength="0/1"  />
            </Keyframes>
           </InterpolatingParam>
          </VectorParam>
          <VectorParam id="2437"  name="geometryCrop">
           <InterpolatingParam id="2438" interp="linr"  time="-9999999/1" value="0" leadInLength="0/1"  />
           <InterpolatingParam id="2439" interp="linr"  time="-9999999/1" value="0" leadInLength="0/1"  />
           <InterpolatingParam id="2440" interp="linr"  time="-9999999/1" value="0" leadInLength="0/1"  />
           <InterpolatingParam id="2441" interp="linr"  time="-9999999/1" value="0" leadInLength="0/1"  />
          </VectorParam>
          <InterpolatingParam id="2442" interp="linr"  time="-9999999/1" value="1" leadInLength="0/1"  name="opacity"/>
          <InterpolatingParam id="2443" interp="linr"  time="0/1" value="1" leadInLength="0/1"  name="cursorOpacity"/>
          <InterpolatingParam id="2444" interp="linr"  name="cursorScale">
           <Keyframes>
           <Keyframe id="2445"  time="0/1" value="1" leadInLength="0/1"  />
           <Keyframe id="2446"  time="617/1" value="1" leadInLength="0/1"  />
           </Keyframes>
          </InterpolatingParam>
          <Parameter id="2447"  name="captions"/>
         </Parameters>
         <Effects>
          <GenericEffect id="2448" name = "CursorBaseEffectName" >
           <Parameters>
           <InterpolatingParam id="2449" interp="linr"  time="-9999999/1" value="1" leadInLength="0/1"   name="cursorSize"/>
           <InterpolatingParam id="2450" interp="linr"  time="-9999999/1" value="0" leadInLength="0/1"   name="highlightBlurRadius"/>
           <InterpolatingParam id="2451" interp="linr"  time="-9999999/1" value="0" leadInLength="0/1"   name="highlightColorBlue"/>
           <InterpolatingParam id="2452" interp="linr"  time="-9999999/1" value="255" leadInLength="0/1"   name="highlightColorGreen"/>
           <InterpolatingParam id="2453" interp="linr"  time="-9999999/1" value="255" leadInLength="0/1"   name="highlightColorRed"/>
           <InterpolatingParam id="2454" interp="linr"  time="-9999999/1" value="5" leadInLength="0/1"   name="highlightFeatherSize"/>
           <InterpolatingParam id="2455" interp="linr"  time="-9999999/1" value="2" leadInLength="0/1"   name="highlightMagnification"/>
           <InterpolatingParam id="2456" interp="linr"  time="-9999999/1" value="1" leadInLength="0/1"   name="highlightOpacity"/>
           <InterpolatingParam id="2457" interp="linr"  time="-9999999/1" value="45" leadInLength="0/1"   name="highlightSize"/>
           <Parameter id="2458"   name="highlightType">
            <Keyframes>
            <Keyframe id="2459"  time="-9999999/1" value="0" leadInLength="0/1"  />
            </Keyframes>
           </Parameter>
           <InterpolatingParam id="2460" interp="linr"  time="-9999999/1" value="0" leadInLength="0/1"   name="leftClickColorBlue"/>
           <InterpolatingParam id="2461" interp="linr"  time="-9999999/1" value="0" leadInLength="0/1"   name="leftClickColorGreen"/>
           <InterpolatingParam id="2462" interp="linr"  time="-9999999/1" value="255" leadInLength="0/1"   name="leftClickColorRed"/>
           <InterpolatingParam id="2463" interp="linr"  time="-9999999/1" value="0.80000000000000004" leadInLength="0/1"   name="leftClickDuration"/>
           <InterpolatingParam id="2464" interp="linr"  time="-9999999/1" value="20" leadInLength="0/1"   name="leftClickSize"/>
           <Parameter id="2465"   name="leftClickSoundFilename">
            <Keyframes>
            <Keyframe id="2466"  time="-9999999/1" value="" leadInLength="0/1"  />
            </Keyframes>
           </Parameter>
           <InterpolatingParam id="2467" interp="linr"  time="-9999999/1" value="1" leadInLength="0/1"   name="leftClickSoundVolume"/>
           <Parameter id="2468"   name="leftClickType">
            <Keyframes>
            <Keyframe id="2469"  time="-9999999/1" value="0" leadInLength="0/1"  />
            </Keyframes>
           </Parameter>
           <InterpolatingParam id="2470" interp="linr"  time="-9999999/1" value="1" leadInLength="0/1"   name="opacity"/>
           <InterpolatingParam id="2471" interp="linr"  time="-9999999/1" value="255" leadInLength="0/1"   name="rightClickColorBlue"/>
           <InterpolatingParam id="2472" interp="linr"  time="-9999999/1" value="0" leadInLength="0/1"   name="rightClickColorGreen"/>
           <InterpolatingParam id="2473" interp="linr"  time="-9999999/1" value="0" leadInLength="0/1"   name="rightClickColorRed"/>
           <InterpolatingParam id="2474" interp="linr"  time="-9999999/1" value="0.80000000000000004" leadInLength="0/1"   name="rightClickDuration"/>
           <InterpolatingParam id="2475" interp="linr"  time="-9999999/1" value="20" leadInLength="0/1"   name="rightClickSize"/>
           <Parameter id="2476"   name="rightClickSoundFilename">
            <Keyframes>
            <Keyframe id="2477"  time="-9999999/1" value="" leadInLength="0/1"  />
            </Keyframes>
           </Parameter>
           <InterpolatingParam id="2478" interp="linr"  time="-9999999/1" value="1" leadInLength="0/1"   name="rightClickSoundVolume"/>
           <Parameter id="2479"   name="rightClickType">
            <Keyframes>
            <Keyframe id="2480"  time="-9999999/1" value="0" leadInLength="0/1"  />
            </Keyframes>
           </Parameter>
           </Parameters>
          </GenericEffect>
          <GenericEffect id="2481" name = "Colorize" >
           <Parameters>
           <InterpolatingParam id="2482" interp="linr"  time="0/1" value="1" leadInLength="0/1"   name="amount"/>
           <InterpolatingParam id="2483" interp="linr"  time="0/1" value="255" leadInLength="0/1"   name="color-alpha"/>
           <InterpolatingParam id="2484" interp="linr"  time="0/1" value="23" leadInLength="0/1"   name="color-blue"/>
           <InterpolatingParam id="2485" interp="linr"  time="0/1" value="120" leadInLength="0/1"   name="color-green"/>
           <InterpolatingParam id="2486" interp="linr"  time="0/1" value="255" leadInLength="0/1"   name="color-red"/>
           <Parameter id="2487"   name="enabled">
            <Keyframes>
            <Keyframe id="2488"  time="0/1" value="1" leadInLength="0/1"  />
            </Keyframes>
           </Parameter>
           <Parameter id="2489"   name="mode">
            <Keyframes>
            <Keyframe id="2490"  time="0/1" value="0" leadInLength="0/1"  />
            </Keyframes>
           </Parameter>
           </Parameters>
          </GenericEffect>
          <GenericEffect id="2491" name = "ChromaKey" >
           <Parameters>
           <InterpolatingParam id="2492" interp="linr"  time="0/1" value="0" leadInLength="0/1"   name="clrCompensation"/>
           <InterpolatingParam id="2493" interp="linr"  time="0/1" value="255" leadInLength="0/1"   name="color-alpha"/>
           <InterpolatingParam id="2494" interp="linr"  time="0/1" value="70" leadInLength="0/1"   name="color-blue"/>
           <InterpolatingParam id="2495" interp="linr"  time="0/1" value="150" leadInLength="0/1"   name="color-green"/>
           <InterpolatingParam id="2496" interp="linr"  time="0/1" value="247" leadInLength="0/1"   name="color-red"/>
           <InterpolatingParam id="2497" interp="linr"  time="0/1" value="0" leadInLength="0/1"   name="defringe"/>
           <Parameter id="2498"   name="enabled">
            <Keyframes>
            <Keyframe id="2499"  time="0/1" value="0" leadInLength="0/1"  />
            </Keyframes>
           </Parameter>
           <InterpolatingParam id="2500" interp="linr"  time="0/1" value="0" leadInLength="0/1"   name="invertEffect"/>
           <InterpolatingParam id="2501" interp="linr"  time="0/1" value="0.10000000000000001" leadInLength="0/1"   name="softness"/>
           <InterpolatingParam id="2502" interp="linr"  time="0/1" value="0.10000000000000001" leadInLength="0/1"   name="tolerance"/>
           </Parameters>
          </GenericEffect>
         </Effects>
         <Attributes>
          <Attribute id="2503" value="" name="ident"/>
         </Attributes>
         <MetaData>
          <entry key="AutoAppliedSmartFocus" val="False"/>
          <entry key="WinSubProjectDisplayName" val=""/>
         </MetaData>
         <ExtraData>
          <Entry key="ZoomPanBin">
           <ZoomPanBin id="2504"  >
            <ZoomPanKeyframes>
             <ZoomPanKeyframe id="2505" timeRangeEnd="-9999999/1" timeRangeDuration="0/1" interpolaterName="linr"  />
            </ZoomPanKeyframes>
           </ZoomPanBin>
          </Entry>
          <Entry key="CursorEffectBin">
           <CursorEffectBin id="2506"  >
            <CursorEffectKeyframes>
             <CursorEffectKeyframe id="2507" timeRangeEnd="-9999999/1" timeRangeDuration="0/1" interpolaterName=""  />
            </CursorEffectKeyframes>
           </CursorEffectBin>
          </Entry>
         </ExtraData>
         <GenericTrack id="2508"  >
          <Attributes>
           <Attribute id="2509" value="" name="ident"/>
           <Attribute id="2510" value="0" name="audioMuted"/>
           <Attribute id="2511" value="0" name="videoHidden"/>
          </Attributes>
          <MetaData>
           <entry key="IsLocked" val="False"/>
           <entry key="WinTrackHeight" val="0"/>
          </MetaData>
          <Medias>
           <ScreenVMFile id="2512" start="0" duration="617" scalar="1/1" mediaStart="0/1" mediaDuration="617/1" trackNumber="0" src="16" >
            <Transformer>
             <VectorParam id="2513"  name="translation">
              <InterpolatingParam id="2514" interp="linr"  time="-9999999/1" value="0" leadInLength="0/1"  />
              <InterpolatingParam id="2515" interp="linr"  time="-9999999/1" value="0" leadInLength="0/1"  />
              <InterpolatingParam id="2516" interp="linr"  time="-9999999/1" value="0" leadInLength="0/1"  />
             </VectorParam>
             <VectorParam id="2517"  name="rotation">
              <InterpolatingParam id="2518" interp="linr"  time="-9999999/1" value="0" leadInLength="0/1"  />
              <InterpolatingParam id="2519" interp="linr"  time="-9999999/1" value="0" leadInLength="0/1"  />
              <InterpolatingParam id="2520" interp="linr"  time="-9999999/1" value="0" leadInLength="0/1"  />
             </VectorParam>
             <VectorParam id="2521"  name="shear">
              <InterpolatingParam id="2522" interp="linr"  time="-9999999/1" value="0" leadInLength="0/1"  />
              <InterpolatingParam id="2523" interp="linr"  time="-9999999/1" value="0" leadInLength="0/1"  />
              <InterpolatingParam id="2524" interp="linr"  time="-9999999/1" value="0" leadInLength="0/1"  />
             </VectorParam>
             <VectorParam id="2525"  name="scale">
              <InterpolatingParam id="2526" interp="linr"  time="-9999999/1" value="1" leadInLength="0/1"  />
              <InterpolatingParam id="2527" interp="linr"  time="-9999999/1" value="1" leadInLength="0/1"  />
              <InterpolatingParam id="2528" interp="linr"  time="-9999999/1" value="1" leadInLength="0/1"  />
             </VectorParam>
             <VectorParam id="2529"  name="anchor">
              <InterpolatingParam id="2530" interp="linr"  time="0/1" value="0" leadInLength="0/1"  />
              <InterpolatingParam id="2531" interp="linr"  time="0/1" value="0" leadInLength="0/1"  />
              <InterpolatingParam id="2532" interp="linr"  time="0/1" value="0" leadInLength="0/1"  />
             </VectorParam>
            </Transformer>
            <Parameters>
             <VectorParam id="2533"  name="sourceCrop">
              <InterpolatingParam id="2534" interp="linr"  time="0/1" value="0" leadInLength="0/1"  />
              <InterpolatingParam id="2535" interp="linr"  time="0/1" value="0" leadInLength="0/1"  />
              <InterpolatingParam id="2536" interp="linr"  time="0/1" value="0" leadInLength="0/1"  />
              <InterpolatingParam id="2537" interp="linr"  time="0/1" value="0" leadInLength="0/1"  />
             </VectorParam>
             <VectorParam id="2538"  name="geometryCrop">
              <InterpolatingParam id="2539" interp="linr"  time="-9999999/1" value="0" leadInLength="0/1"  />
              <InterpolatingParam id="2540" interp="linr"  time="-9999999/1" value="0" leadInLength="0/1"  />
              <InterpolatingParam id="2541" interp="linr"  time="-9999999/1" value="0" leadInLength="0/1"  />
              <InterpolatingParam id="2542" interp="linr"  time="-9999999/1" value="0" leadInLength="0/1"  />
             </VectorParam>
             <InterpolatingParam id="2543" interp="linr"  time="-9999999/1" value="1" leadInLength="0/1"  name="opacity"/>
             <InterpolatingParam id="2544" interp="linr"  time="0/1" value="0" leadInLength="0/1"  name="cursorOpacity"/>
             <InterpolatingParam id="2545" interp="linr"  time="0/1" value="0" leadInLength="0/1"  name="cursorScale"/>
            </Parameters>
            <Attributes>
             <Attribute id="2546" value="" name="ident"/>
            </Attributes>
            <MetaData>
             <entry key="AutoAppliedSmartFocus" val="False"/>
             <entry key="WinSubProjectDisplayName" val=""/>
            </MetaData>
            <ExtraData>
             <Entry key="ZoomPanBin">
              <ZoomPanBin id="2547"  >
               <ZoomPanKeyframes>
                <ZoomPanKeyframe id="2548" timeRangeEnd="-9999999/1" timeRangeDuration="0/1" interpolaterName="linr"  />
               </ZoomPanKeyframes>
              </ZoomPanBin>
             </Entry>
             <Entry key="CursorEffectBin">
              <CursorEffectBin id="2549"  >
               <CursorEffectKeyframes>
               </CursorEffectKeyframes>
              </CursorEffectBin>
             </Entry>
            </ExtraData>
           </ScreenVMFile>
           <ScreenIMFile id="2550" start="617" duration="108030" scalar="1/1" mediaStart="616/1" mediaDuration="1/1" trackNumber="0" src="16" trimStartSum="0/1" >
            <Transformer>
             <VectorParam id="2551"  name="translation">
              <InterpolatingParam id="2552" interp="linr"  time="-9999999/1" value="0" leadInLength="0/1"  />
              <InterpolatingParam id="2553" interp="linr"  time="-9999999/1" value="0" leadInLength="0/1"  />
              <InterpolatingParam id="2554" interp="linr"  time="-9999999/1" value="0" leadInLength="0/1"  />
             </VectorParam>
             <VectorParam id="2555"  name="rotation">
              <InterpolatingParam id="2556" interp="linr"  time="-9999999/1" value="0" leadInLength="0/1"  />
              <InterpolatingParam id="2557" interp="linr"  time="-9999999/1" value="0" leadInLength="0/1"  />
              <InterpolatingParam id="2558" interp="linr"  time="-9999999/1" value="0" leadInLength="0/1"  />
             </VectorParam>
             <VectorParam id="2559"  name="shear">
              <InterpolatingParam id="2560" interp="linr"  time="-9999999/1" value="0" leadInLength="0/1"  />
              <InterpolatingParam id="2561" interp="linr"  time="-9999999/1" value="0" leadInLength="0/1"  />
              <InterpolatingParam id="2562" interp="linr"  time="-9999999/1" value="0" leadInLength="0/1"  />
             </VectorParam>
             <VectorParam id="2563"  name="scale">
              <InterpolatingParam id="2564" interp="linr"  time="-9999999/1" value="1" leadInLength="0/1"  />
              <InterpolatingParam id="2565" interp="linr"  time="-9999999/1" value="1" leadInLength="0/1"  />
              <InterpolatingParam id="2566" interp="linr"  time="-9999999/1" value="1" leadInLength="0/1"  />
             </VectorParam>
             <VectorParam id="2567"  name="anchor">
              <InterpolatingParam id="2568" interp="linr"  time="0/1" value="0" leadInLength="0/1"  />
              <InterpolatingParam id="2569" interp="linr"  time="0/1" value="0" leadInLength="0/1"  />
              <InterpolatingParam id="2570" interp="linr"  time="0/1" value="0" leadInLength="0/1"  />
             </VectorParam>
            </Transformer>
            <Parameters>
             <VectorParam id="2571"  name="sourceCrop">
              <InterpolatingParam id="2572" interp="linr"  time="0/1" value="0" leadInLength="0/1"  />
              <InterpolatingParam id="2573" interp="linr"  time="0/1" value="0" leadInLength="0/1"  />
              <InterpolatingParam id="2574" interp="linr"  time="0/1" value="0" leadInLength="0/1"  />
              <InterpolatingParam id="2575" interp="linr"  time="0/1" value="0" leadInLength="0/1"  />
             </VectorParam>
             <VectorParam id="2576"  name="geometryCrop">
              <InterpolatingParam id="2577" interp="linr"  time="-9999999/1" value="0" leadInLength="0/1"  />
              <InterpolatingParam id="2578" interp="linr"  time="-9999999/1" value="0" leadInLength="0/1"  />
              <InterpolatingParam id="2579" interp="linr"  time="-9999999/1" value="0" leadInLength="0/1"  />
              <InterpolatingParam id="2580" interp="linr"  time="-9999999/1" value="0" leadInLength="0/1"  />
             </VectorParam>
             <InterpolatingParam id="2581" interp="linr"  time="-9999999/1" value="1" leadInLength="0/1"  name="opacity"/>
             <InterpolatingParam id="2582" interp="linr"  name="cursorLocation">
              <Keyframes>
              <Keyframe id="2583"  time="0/1" value="(821,69,0)" leadInLength="0/1"  />
              <Keyframe id="2584"  time="99/1" value="(837,62,0)" leadInLength="0/1"  />
              <Keyframe id="2585"  time="100/1" value="(893,60,0)" leadInLength="0/1"  />
              <Keyframe id="2586"  time="101/1" value="(938,71,0)" leadInLength="0/1"  />
              <Keyframe id="2587"  time="102/1" value="(1003,78,0)" leadInLength="0/1"  />
              <Keyframe id="2588"  time="103/1" value="(1025,82,0)" leadInLength="0/1"  />
              <Keyframe id="2589"  time="104/1" value="(1144,112,0)" leadInLength="0/1"  />
              <Keyframe id="2590"  time="105/1" value="(1170,122,0)" leadInLength="0/1"  />
              <Keyframe id="2591"  time="106/1" value="(1206,141,0)" leadInLength="0/1"  />
              <Keyframe id="2592"  time="107/1" value="(1237,149,0)" leadInLength="0/1"  />
              <Keyframe id="2593"  time="108/1" value="(1268,150,0)" leadInLength="0/1"  />
              <Keyframe id="2594"  time="109/1" value="(1290,150,0)" leadInLength="0/1"  />
              <Keyframe id="2595"  time="110/1" value="(1304,150,0)" leadInLength="0/1"  />
              <Keyframe id="2596"  time="111/1" value="(1336,149,0)" leadInLength="0/1"  />
              <Keyframe id="2597"  time="112/1" value="(1341,147,0)" leadInLength="0/1"  />
              <Keyframe id="2598"  time="113/1" value="(1341,145,0)" leadInLength="0/1"  />
              <Keyframe id="2599"  time="114/1" value="(1343,142,0)" leadInLength="0/1"  />
              <Keyframe id="2600"  time="115/1" value="(1346,136,0)" leadInLength="0/1"  />
              <Keyframe id="2601"  time="116/1" value="(1348,128,0)" leadInLength="0/1"  />
              <Keyframe id="2602"  time="117/1" value="(1348,120,0)" leadInLength="0/1"  />
              <Keyframe id="2603"  time="118/1" value="(1348,119,0)" leadInLength="0/1"  />
              <Keyframe id="2604"  time="120/1" value="(1348,119,0)" leadInLength="0/1"  />
              </Keyframes>
             </InterpolatingParam>
             <InterpolatingParam id="2605" interp="linr"  time="0/1" value="(87,53,1300,929)" leadInLength="0/1"  name="topmostWindowCoordinates"/>
             <InterpolatingParam id="2606" interp="linr"  name="cursorAction">
              <Keyframes>
              <Keyframe id="2607"  time="118/1" value="1" leadInLength="0/1"  />
              <Keyframe id="2608"  time="120/1" value="2" leadInLength="0/1"  />
              </Keyframes>
             </InterpolatingParam>
             <Parameter id="2609"  name="cursorImagePath">
              <Keyframes>
              <Keyframe id="2610"  time="0/1" value="2b7b6af1-7a1f-11e2-83d0-0017f200be7f/0" leadInLength="0/1"  />
              </Keyframes>
             </Parameter>
             <InterpolatingParam id="2611" interp="linr"  time="0/1" value="(98,181,1280,720)" leadInLength="0/1"  name="recordingRegion"/>
             <InterpolatingParam id="2612" interp="linr"  time="0/1" value="0" leadInLength="0/1"  name="cursorOpacity"/>
             <InterpolatingParam id="2613" interp="linr"  time="0/1" value="1" leadInLength="0/1"  name="recordedCursorOpacity"/>
             <InterpolatingParam id="2614" interp="linr"  time="0/1" value="0" leadInLength="0/1"  name="cursorScale"/>
            </Parameters>
            <Attributes>
             <Attribute id="2615" value="" name="ident"/>
            </Attributes>
            <MetaData>
             <entry key="AutoAppliedSmartFocus" val="False"/>
             <entry key="WinSubProjectDisplayName" val=""/>
            </MetaData>
            <ExtraData>
             <Entry key="ZoomPanBin">
              <ZoomPanBin id="2616"  >
               <ZoomPanKeyframes>
                <ZoomPanKeyframe id="2617" timeRangeEnd="-9999999/1" timeRangeDuration="0/1" interpolaterName="linr"  />
               </ZoomPanKeyframes>
              </ZoomPanBin>
             </Entry>
             <Entry key="CursorEffectBin">
              <CursorEffectBin id="2618"  >
               <CursorEffectKeyframes>
               </CursorEffectKeyframes>
              </CursorEffectBin>
             </Entry>
            </ExtraData>
           </ScreenIMFile>
          </Medias>
         </GenericTrack>
        </StitchedMedia>
        <UnifiedMedia id="2619"  >
         <AudioTransition id="2620" start="5865" duration="40" >
          <Parameters>
           <InterpolatingParam id="2621" interp="linr"  time="0/1" value="1" leadInLength="0/1"  name="volume"/>
           <Parameter id="2622"  name="captions"/>
          </Parameters>
          <Effects>
           <GenericEffect id="2623" name = "AudioTransition" >
            <Parameters>
            <Parameter id="2624"   name="audioEdgeModType">
             <Keyframes>
             <Keyframe id="2625"  time="0/1" value="0" leadInLength="0/1"  />
             </Keyframes>
            </Parameter>
            <Parameter id="2626"   name="audioTransitionType">
             <Keyframes>
             <Keyframe id="2627"  time="0/1" value="" leadInLength="0/1"  />
             </Keyframes>
            </Parameter>
            </Parameters>
            <MetaData>
            </MetaData>
           </GenericEffect>
          </Effects>
          <Attributes>
           <Attribute id="2628" value="" name="ident"/>
           <Attribute id="2629" value="0" name="sampleRate"/>
           <Attribute id="2630" value="0" name="bitDepth"/>
           <Attribute id="2631" value="1" name="gain"/>
           <Attribute id="2632" value="0" name="mixToMono"/>
          </Attributes>
         </AudioTransition>
         <ImageTransition id="2633" start="5865" duration="40" >
          <Transformer>
           <VectorParam id="2634"  name="translation">
            <InterpolatingParam id="2635" interp="linr"  time="0/1" value="0" leadInLength="0/1"  />
            <InterpolatingParam id="2636" interp="linr"  time="0/1" value="0" leadInLength="0/1"  />
            <InterpolatingParam id="2637" interp="linr"  time="0/1" value="0" leadInLength="0/1"  />
           </VectorParam>
           <VectorParam id="2638"  name="rotation">
            <InterpolatingParam id="2639" interp="linr"  time="0/1" value="0" leadInLength="0/1"  />
            <InterpolatingParam id="2640" interp="linr"  time="0/1" value="0" leadInLength="0/1"  />
            <InterpolatingParam id="2641" interp="linr"  time="0/1" value="0" leadInLength="0/1"  />
           </VectorParam>
           <VectorParam id="2642"  name="shear">
            <InterpolatingParam id="2643" interp="linr"  time="0/1" value="0" leadInLength="0/1"  />
            <InterpolatingParam id="2644" interp="linr"  time="0/1" value="0" leadInLength="0/1"  />
            <InterpolatingParam id="2645" interp="linr"  time="0/1" value="0" leadInLength="0/1"  />
           </VectorParam>
           <VectorParam id="2646"  name="scale">
            <InterpolatingParam id="2647" interp="linr"  time="0/1" value="1" leadInLength="0/1"  />
            <InterpolatingParam id="2648" interp="linr"  time="0/1" value="1" leadInLength="0/1"  />
            <InterpolatingParam id="2649" interp="linr"  time="0/1" value="1" leadInLength="0/1"  />
           </VectorParam>
           <VectorParam id="2650"  name="anchor">
            <InterpolatingParam id="2651" interp="linr"  time="0/1" value="0" leadInLength="0/1"  />
            <InterpolatingParam id="2652" interp="linr"  time="0/1" value="0" leadInLength="0/1"  />
            <InterpolatingParam id="2653" interp="linr"  time="0/1" value="0" leadInLength="0/1"  />
           </VectorParam>
          </Transformer>
          <Parameters>
           <VectorParam id="2654"  name="sourceCrop">
            <InterpolatingParam id="2655" interp="linr"  time="0/1" value="0" leadInLength="0/1"  />
            <InterpolatingParam id="2656" interp="linr"  time="0/1" value="0" leadInLength="0/1"  />
            <InterpolatingParam id="2657" interp="linr"  time="0/1" value="0" leadInLength="0/1"  />
            <InterpolatingParam id="2658" interp="linr"  time="0/1" value="0" leadInLength="0/1"  />
           </VectorParam>
           <VectorParam id="2659"  name="geometryCrop">
            <InterpolatingParam id="2660" interp="linr"  time="0/1" value="0" leadInLength="0/1"  />
            <InterpolatingParam id="2661" interp="linr"  time="0/1" value="0" leadInLength="0/1"  />
            <InterpolatingParam id="2662" interp="linr"  time="0/1" value="0" leadInLength="0/1"  />
            <InterpolatingParam id="2663" interp="linr"  time="0/1" value="0" leadInLength="0/1"  />
           </VectorParam>
           <InterpolatingParam id="2664" interp="linr"  time="0/1" value="1" leadInLength="0/1"  name="opacity"/>
          </Parameters>
          <Effects>
           <GenericEffect id="2665" name = "VisualTransition" >
            <Parameters>
            <InterpolatingParam id="2666" interp="linr"  time="0/1" value="1" leadInLength="0/1"   name="leftFramePercentage"/>
            <InterpolatingParam id="2667" interp="linr"  time="0/1" value="1" leadInLength="0/1"   name="rightFramePercentage"/>
            <Parameter id="2668"   name="visualEdgeModType">
             <Keyframes>
             <Keyframe id="2669"  time="0/1" value="0" leadInLength="0/1"  />
             </Keyframes>
            </Parameter>
            <Parameter id="2670"   name="visualTransitionType">
             <Keyframes>
             <Keyframe id="2671"  time="0/1" value="Pixelate" leadInLength="0/1"  />
             </Keyframes>
            </Parameter>
            </Parameters>
            <MetaData>
            </MetaData>
           </GenericEffect>
          </Effects>
          <Attributes>
           <Attribute id="2672" value="" name="ident"/>
          </Attributes>
          <ExtraData>
           <Entry key="ZoomPanBin">
            <ZoomPanBin id="2673"  >
             <ZoomPanKeyframes>
             </ZoomPanKeyframes>
            </ZoomPanBin>
           </Entry>
          </ExtraData>
         </ImageTransition>
         <MetaData>
          <entry key="WinSubProjectDisplayName" val=""/>
         </MetaData>
        </UnifiedMedia>
        <StitchedMedia id="2674" start="5905" duration="1351" scalar="1/1" mediaStart="658/1" mediaDuration="1351/1" minMediaStart="0/1" >
         <Transformer>
          <VectorParam id="2675"  name="translation">
           <InterpolatingParam id="2676" interp="linr"  time="-9999999/1" value="0" leadInLength="0/1"  />
           <InterpolatingParam id="2677" interp="linr"  time="-9999999/1" value="0" leadInLength="0/1"  />
           <InterpolatingParam id="2678" interp="linr"  time="-9999999/1" value="0" leadInLength="0/1"  />
          </VectorParam>
          <VectorParam id="2679"  name="rotation">
           <InterpolatingParam id="2680" interp="linr"  time="-9999999/1" value="0" leadInLength="0/1"  />
           <InterpolatingParam id="2681" interp="linr"  time="-9999999/1" value="0" leadInLength="0/1"  />
           <InterpolatingParam id="2682" interp="linr"  time="-9999999/1" value="0" leadInLength="0/1"  />
          </VectorParam>
          <VectorParam id="2683"  name="shear">
           <InterpolatingParam id="2684" interp="linr"  time="-9999999/1" value="0" leadInLength="0/1"  />
           <InterpolatingParam id="2685" interp="linr"  time="-9999999/1" value="0" leadInLength="0/1"  />
           <InterpolatingParam id="2686" interp="linr"  time="-9999999/1" value="0" leadInLength="0/1"  />
          </VectorParam>
          <VectorParam id="2687"  name="scale">
           <InterpolatingParam id="2688" interp="linr"  time="-9999999/1" value="1" leadInLength="0/1"  />
           <InterpolatingParam id="2689" interp="linr"  time="-9999999/1" value="1" leadInLength="0/1"  />
           <InterpolatingParam id="2690" interp="linr"  time="-9999999/1" value="1" leadInLength="0/1"  />
          </VectorParam>
          <VectorParam id="2691"  name="anchor">
           <InterpolatingParam id="2692" interp="linr"  >
            <Keyframes>
            <Keyframe id="2693"  time="0/1" value="0" leadInLength="0/1"  />
            <Keyframe id="2694"  time="679/1" value="0" leadInLength="0/1"  />
            </Keyframes>
           </InterpolatingParam>
           <InterpolatingParam id="2695" interp="linr"  >
            <Keyframes>
            <Keyframe id="2696"  time="0/1" value="0" leadInLength="0/1"  />
            <Keyframe id="2697"  time="679/1" value="0" leadInLength="0/1"  />
            </Keyframes>
           </InterpolatingParam>
           <InterpolatingParam id="2698" interp="linr"  >
            <Keyframes>
            <Keyframe id="2699"  time="0/1" value="0" leadInLength="0/1"  />
            <Keyframe id="2700"  time="679/1" value="0" leadInLength="0/1"  />
            </Keyframes>
           </InterpolatingParam>
          </VectorParam>
         </Transformer>
         <Parameters>
          <VectorParam id="2701"  name="sourceCrop">
           <InterpolatingParam id="2702" interp="linr"  >
            <Keyframes>
            <Keyframe id="2703"  time="0/1" value="0" leadInLength="0/1"  />
            <Keyframe id="2704"  time="679/1" value="0" leadInLength="0/1"  />
            </Keyframes>
           </InterpolatingParam>
           <InterpolatingParam id="2705" interp="linr"  >
            <Keyframes>
            <Keyframe id="2706"  time="0/1" value="0" leadInLength="0/1"  />
            <Keyframe id="2707"  time="679/1" value="0" leadInLength="0/1"  />
            </Keyframes>
           </InterpolatingParam>
           <InterpolatingParam id="2708" interp="linr"  >
            <Keyframes>
            <Keyframe id="2709"  time="0/1" value="0" leadInLength="0/1"  />
            <Keyframe id="2710"  time="679/1" value="0" leadInLength="0/1"  />
            </Keyframes>
           </InterpolatingParam>
           <InterpolatingParam id="2711" interp="linr"  >
            <Keyframes>
            <Keyframe id="2712"  time="0/1" value="0" leadInLength="0/1"  />
            <Keyframe id="2713"  time="679/1" value="0" leadInLength="0/1"  />
            </Keyframes>
           </InterpolatingParam>
          </VectorParam>
          <VectorParam id="2714"  name="geometryCrop">
           <InterpolatingParam id="2715" interp="linr"  time="-9999999/1" value="0" leadInLength="0/1"  />
           <InterpolatingParam id="2716" interp="linr"  time="-9999999/1" value="0" leadInLength="0/1"  />
           <InterpolatingParam id="2717" interp="linr"  time="-9999999/1" value="0" leadInLength="0/1"  />
           <InterpolatingParam id="2718" interp="linr"  time="-9999999/1" value="0" leadInLength="0/1"  />
          </VectorParam>
          <InterpolatingParam id="2719" interp="linr"  time="-9999999/1" value="1" leadInLength="0/1"  name="opacity"/>
          <InterpolatingParam id="2720" interp="linr"  time="0/1" value="1" leadInLength="0/1"  name="cursorOpacity"/>
          <InterpolatingParam id="2721" interp="linr"  name="cursorScale">
           <Keyframes>
           <Keyframe id="2722"  time="0/1" value="1" leadInLength="0/1"  />
           <Keyframe id="2723"  time="679/1" value="1" leadInLength="0/1"  />
           </Keyframes>
          </InterpolatingParam>
          <Parameter id="2724"  name="captions"/>
         </Parameters>
         <Effects>
          <GenericEffect id="2725" name = "CursorBaseEffectName" >
           <Parameters>
           <InterpolatingParam id="2726" interp="linr"  time="-9999999/1" value="1" leadInLength="0/1"   name="cursorSize"/>
           <InterpolatingParam id="2727" interp="linr"  time="-9999999/1" value="0" leadInLength="0/1"   name="highlightBlurRadius"/>
           <InterpolatingParam id="2728" interp="linr"  time="-9999999/1" value="0" leadInLength="0/1"   name="highlightColorBlue"/>
           <InterpolatingParam id="2729" interp="linr"  time="-9999999/1" value="255" leadInLength="0/1"   name="highlightColorGreen"/>
           <InterpolatingParam id="2730" interp="linr"  time="-9999999/1" value="255" leadInLength="0/1"   name="highlightColorRed"/>
           <InterpolatingParam id="2731" interp="linr"  time="-9999999/1" value="5" leadInLength="0/1"   name="highlightFeatherSize"/>
           <InterpolatingParam id="2732" interp="linr"  time="-9999999/1" value="2" leadInLength="0/1"   name="highlightMagnification"/>
           <InterpolatingParam id="2733" interp="linr"  time="-9999999/1" value="1" leadInLength="0/1"   name="highlightOpacity"/>
           <InterpolatingParam id="2734" interp="linr"  time="-9999999/1" value="45" leadInLength="0/1"   name="highlightSize"/>
           <Parameter id="2735"   name="highlightType">
            <Keyframes>
            <Keyframe id="2736"  time="-9999999/1" value="0" leadInLength="0/1"  />
            </Keyframes>
           </Parameter>
           <InterpolatingParam id="2737" interp="linr"  time="-9999999/1" value="0" leadInLength="0/1"   name="leftClickColorBlue"/>
           <InterpolatingParam id="2738" interp="linr"  time="-9999999/1" value="0" leadInLength="0/1"   name="leftClickColorGreen"/>
           <InterpolatingParam id="2739" interp="linr"  time="-9999999/1" value="255" leadInLength="0/1"   name="leftClickColorRed"/>
           <InterpolatingParam id="2740" interp="linr"  time="-9999999/1" value="0.80000000000000004" leadInLength="0/1"   name="leftClickDuration"/>
           <InterpolatingParam id="2741" interp="linr"  time="-9999999/1" value="20" leadInLength="0/1"   name="leftClickSize"/>
           <Parameter id="2742"   name="leftClickSoundFilename">
            <Keyframes>
            <Keyframe id="2743"  time="-9999999/1" value="" leadInLength="0/1"  />
            </Keyframes>
           </Parameter>
           <InterpolatingParam id="2744" interp="linr"  time="-9999999/1" value="1" leadInLength="0/1"   name="leftClickSoundVolume"/>
           <Parameter id="2745"   name="leftClickType">
            <Keyframes>
            <Keyframe id="2746"  time="-9999999/1" value="0" leadInLength="0/1"  />
            </Keyframes>
           </Parameter>
           <InterpolatingParam id="2747" interp="linr"  time="-9999999/1" value="1" leadInLength="0/1"   name="opacity"/>
           <InterpolatingParam id="2748" interp="linr"  time="-9999999/1" value="255" leadInLength="0/1"   name="rightClickColorBlue"/>
           <InterpolatingParam id="2749" interp="linr"  time="-9999999/1" value="0" leadInLength="0/1"   name="rightClickColorGreen"/>
           <InterpolatingParam id="2750" interp="linr"  time="-9999999/1" value="0" leadInLength="0/1"   name="rightClickColorRed"/>
           <InterpolatingParam id="2751" interp="linr"  time="-9999999/1" value="0.80000000000000004" leadInLength="0/1"   name="rightClickDuration"/>
           <InterpolatingParam id="2752" interp="linr"  time="-9999999/1" value="20" leadInLength="0/1"   name="rightClickSize"/>
           <Parameter id="2753"   name="rightClickSoundFilename">
            <Keyframes>
            <Keyframe id="2754"  time="-9999999/1" value="" leadInLength="0/1"  />
            </Keyframes>
           </Parameter>
           <InterpolatingParam id="2755" interp="linr"  time="-9999999/1" value="1" leadInLength="0/1"   name="rightClickSoundVolume"/>
           <Parameter id="2756"   name="rightClickType">
            <Keyframes>
            <Keyframe id="2757"  time="-9999999/1" value="0" leadInLength="0/1"  />
            </Keyframes>
           </Parameter>
           </Parameters>
          </GenericEffect>
          <GenericEffect id="2758" name = "Colorize" >
           <Parameters>
           <InterpolatingParam id="2759" interp="linr"  time="0/1" value="1" leadInLength="0/1"   name="amount"/>
           <InterpolatingParam id="2760" interp="linr"  time="0/1" value="255" leadInLength="0/1"   name="color-alpha"/>
           <InterpolatingParam id="2761" interp="linr"  time="0/1" value="23" leadInLength="0/1"   name="color-blue"/>
           <InterpolatingParam id="2762" interp="linr"  time="0/1" value="120" leadInLength="0/1"   name="color-green"/>
           <InterpolatingParam id="2763" interp="linr"  time="0/1" value="255" leadInLength="0/1"   name="color-red"/>
           <Parameter id="2764"   name="enabled">
            <Keyframes>
            <Keyframe id="2765"  time="0/1" value="1" leadInLength="0/1"  />
            </Keyframes>
           </Parameter>
           <Parameter id="2766"   name="mode">
            <Keyframes>
            <Keyframe id="2767"  time="0/1" value="0" leadInLength="0/1"  />
            </Keyframes>
           </Parameter>
           </Parameters>
          </GenericEffect>
          <GenericEffect id="2768" name = "ChromaKey" >
           <Parameters>
           <InterpolatingParam id="2769" interp="linr"  time="0/1" value="0" leadInLength="0/1"   name="clrCompensation"/>
           <InterpolatingParam id="2770" interp="linr"  time="0/1" value="255" leadInLength="0/1"   name="color-alpha"/>
           <InterpolatingParam id="2771" interp="linr"  time="0/1" value="70" leadInLength="0/1"   name="color-blue"/>
           <InterpolatingParam id="2772" interp="linr"  time="0/1" value="150" leadInLength="0/1"   name="color-green"/>
           <InterpolatingParam id="2773" interp="linr"  time="0/1" value="247" leadInLength="0/1"   name="color-red"/>
           <InterpolatingParam id="2774" interp="linr"  time="0/1" value="0" leadInLength="0/1"   name="defringe"/>
           <Parameter id="2775"   name="enabled">
            <Keyframes>
            <Keyframe id="2776"  time="0/1" value="0" leadInLength="0/1"  />
            </Keyframes>
           </Parameter>
           <InterpolatingParam id="2777" interp="linr"  time="0/1" value="0" leadInLength="0/1"   name="invertEffect"/>
           <InterpolatingParam id="2778" interp="linr"  time="0/1" value="0.10000000000000001" leadInLength="0/1"   name="softness"/>
           <InterpolatingParam id="2779" interp="linr"  time="0/1" value="0.10000000000000001" leadInLength="0/1"   name="tolerance"/>
           </Parameters>
          </GenericEffect>
         </Effects>
         <Attributes>
          <Attribute id="2780" value="" name="ident"/>
         </Attributes>
         <MetaData>
          <entry key="AutoAppliedSmartFocus" val="False"/>
          <entry key="WinSubProjectDisplayName" val=""/>
         </MetaData>
         <ExtraData>
          <Entry key="ZoomPanBin">
           <ZoomPanBin id="2781"  >
            <ZoomPanKeyframes>
             <ZoomPanKeyframe id="2782" timeRangeEnd="-9999999/1" timeRangeDuration="0/1" interpolaterName="linr"  />
            </ZoomPanKeyframes>
           </ZoomPanBin>
          </Entry>
          <Entry key="CursorEffectBin">
           <CursorEffectBin id="2783"  >
            <CursorEffectKeyframes>
             <CursorEffectKeyframe id="2784" timeRangeEnd="-9999999/1" timeRangeDuration="0/1" interpolaterName=""  />
            </CursorEffectKeyframes>
           </CursorEffectBin>
          </Entry>
         </ExtraData>
         <GenericTrack id="2785"  >
          <Attributes>
           <Attribute id="2786" value="" name="ident"/>
           <Attribute id="2787" value="0" name="audioMuted"/>
           <Attribute id="2788" value="0" name="videoHidden"/>
          </Attributes>
          <MetaData>
           <entry key="IsLocked" val="False"/>
           <entry key="WinTrackHeight" val="0"/>
          </MetaData>
          <Medias>
           <ScreenVMFile id="2789" start="0" duration="679" scalar="1/1" mediaStart="0/1" mediaDuration="679/1" trackNumber="0" src="16" >
            <Transformer>
             <VectorParam id="2790"  name="translation">
              <InterpolatingParam id="2791" interp="linr"  time="-9999999/1" value="0" leadInLength="0/1"  />
              <InterpolatingParam id="2792" interp="linr"  time="-9999999/1" value="0" leadInLength="0/1"  />
              <InterpolatingParam id="2793" interp="linr"  time="-9999999/1" value="0" leadInLength="0/1"  />
             </VectorParam>
             <VectorParam id="2794"  name="rotation">
              <InterpolatingParam id="2795" interp="linr"  time="-9999999/1" value="0" leadInLength="0/1"  />
              <InterpolatingParam id="2796" interp="linr"  time="-9999999/1" value="0" leadInLength="0/1"  />
              <InterpolatingParam id="2797" interp="linr"  time="-9999999/1" value="0" leadInLength="0/1"  />
             </VectorParam>
             <VectorParam id="2798"  name="shear">
              <InterpolatingParam id="2799" interp="linr"  time="-9999999/1" value="0" leadInLength="0/1"  />
              <InterpolatingParam id="2800" interp="linr"  time="-9999999/1" value="0" leadInLength="0/1"  />
              <InterpolatingParam id="2801" interp="linr"  time="-9999999/1" value="0" leadInLength="0/1"  />
             </VectorParam>
             <VectorParam id="2802"  name="scale">
              <InterpolatingParam id="2803" interp="linr"  time="-9999999/1" value="1" leadInLength="0/1"  />
              <InterpolatingParam id="2804" interp="linr"  time="-9999999/1" value="1" leadInLength="0/1"  />
              <InterpolatingParam id="2805" interp="linr"  time="-9999999/1" value="1" leadInLength="0/1"  />
             </VectorParam>
             <VectorParam id="2806"  name="anchor">
              <InterpolatingParam id="2807" interp="linr"  time="0/1" value="0" leadInLength="0/1"  />
              <InterpolatingParam id="2808" interp="linr"  time="0/1" value="0" leadInLength="0/1"  />
              <InterpolatingParam id="2809" interp="linr"  time="0/1" value="0" leadInLength="0/1"  />
             </VectorParam>
            </Transformer>
            <Parameters>
             <VectorParam id="2810"  name="sourceCrop">
              <InterpolatingParam id="2811" interp="linr"  time="0/1" value="0" leadInLength="0/1"  />
              <InterpolatingParam id="2812" interp="linr"  time="0/1" value="0" leadInLength="0/1"  />
              <InterpolatingParam id="2813" interp="linr"  time="0/1" value="0" leadInLength="0/1"  />
              <InterpolatingParam id="2814" interp="linr"  time="0/1" value="0" leadInLength="0/1"  />
             </VectorParam>
             <VectorParam id="2815"  name="geometryCrop">
              <InterpolatingParam id="2816" interp="linr"  time="-9999999/1" value="0" leadInLength="0/1"  />
              <InterpolatingParam id="2817" interp="linr"  time="-9999999/1" value="0" leadInLength="0/1"  />
              <InterpolatingParam id="2818" interp="linr"  time="-9999999/1" value="0" leadInLength="0/1"  />
              <InterpolatingParam id="2819" interp="linr"  time="-9999999/1" value="0" leadInLength="0/1"  />
             </VectorParam>
             <InterpolatingParam id="2820" interp="linr"  time="-9999999/1" value="1" leadInLength="0/1"  name="opacity"/>
             <InterpolatingParam id="2821" interp="linr"  time="0/1" value="0" leadInLength="0/1"  name="cursorOpacity"/>
             <InterpolatingParam id="2822" interp="linr"  time="0/1" value="0" leadInLength="0/1"  name="cursorScale"/>
            </Parameters>
            <Attributes>
             <Attribute id="2823" value="" name="ident"/>
            </Attributes>
            <MetaData>
             <entry key="AutoAppliedSmartFocus" val="False"/>
             <entry key="WinSubProjectDisplayName" val=""/>
            </MetaData>
            <ExtraData>
             <Entry key="ZoomPanBin">
              <ZoomPanBin id="2824"  >
               <ZoomPanKeyframes>
                <ZoomPanKeyframe id="2825" timeRangeEnd="-9999999/1" timeRangeDuration="0/1" interpolaterName="linr"  />
               </ZoomPanKeyframes>
              </ZoomPanBin>
             </Entry>
             <Entry key="CursorEffectBin">
              <CursorEffectBin id="2826"  >
               <CursorEffectKeyframes>
               </CursorEffectKeyframes>
              </CursorEffectBin>
             </Entry>
            </ExtraData>
           </ScreenVMFile>
           <ScreenIMFile id="2827" start="679" duration="108030" scalar="1/1" mediaStart="678/1" mediaDuration="1/1" trackNumber="0" src="16" trimStartSum="0/1" >
            <Transformer>
             <VectorParam id="2828"  name="translation">
              <InterpolatingParam id="2829" interp="linr"  time="-9999999/1" value="0" leadInLength="0/1"  />
              <InterpolatingParam id="2830" interp="linr"  time="-9999999/1" value="0" leadInLength="0/1"  />
              <InterpolatingParam id="2831" interp="linr"  time="-9999999/1" value="0" leadInLength="0/1"  />
             </VectorParam>
             <VectorParam id="2832"  name="rotation">
              <InterpolatingParam id="2833" interp="linr"  time="-9999999/1" value="0" leadInLength="0/1"  />
              <InterpolatingParam id="2834" interp="linr"  time="-9999999/1" value="0" leadInLength="0/1"  />
              <InterpolatingParam id="2835" interp="linr"  time="-9999999/1" value="0" leadInLength="0/1"  />
             </VectorParam>
             <VectorParam id="2836"  name="shear">
              <InterpolatingParam id="2837" interp="linr"  time="-9999999/1" value="0" leadInLength="0/1"  />
              <InterpolatingParam id="2838" interp="linr"  time="-9999999/1" value="0" leadInLength="0/1"  />
              <InterpolatingParam id="2839" interp="linr"  time="-9999999/1" value="0" leadInLength="0/1"  />
             </VectorParam>
             <VectorParam id="2840"  name="scale">
              <InterpolatingParam id="2841" interp="linr"  time="-9999999/1" value="1" leadInLength="0/1"  />
              <InterpolatingParam id="2842" interp="linr"  time="-9999999/1" value="1" leadInLength="0/1"  />
              <InterpolatingParam id="2843" interp="linr"  time="-9999999/1" value="1" leadInLength="0/1"  />
             </VectorParam>
             <VectorParam id="2844"  name="anchor">
              <InterpolatingParam id="2845" interp="linr"  time="0/1" value="0" leadInLength="0/1"  />
              <InterpolatingParam id="2846" interp="linr"  time="0/1" value="0" leadInLength="0/1"  />
              <InterpolatingParam id="2847" interp="linr"  time="0/1" value="0" leadInLength="0/1"  />
             </VectorParam>
            </Transformer>
            <Parameters>
             <VectorParam id="2848"  name="sourceCrop">
              <InterpolatingParam id="2849" interp="linr"  time="0/1" value="0" leadInLength="0/1"  />
              <InterpolatingParam id="2850" interp="linr"  time="0/1" value="0" leadInLength="0/1"  />
              <InterpolatingParam id="2851" interp="linr"  time="0/1" value="0" leadInLength="0/1"  />
              <InterpolatingParam id="2852" interp="linr"  time="0/1" value="0" leadInLength="0/1"  />
             </VectorParam>
             <VectorParam id="2853"  name="geometryCrop">
              <InterpolatingParam id="2854" interp="linr"  time="-9999999/1" value="0" leadInLength="0/1"  />
              <InterpolatingParam id="2855" interp="linr"  time="-9999999/1" value="0" leadInLength="0/1"  />
              <InterpolatingParam id="2856" interp="linr"  time="-9999999/1" value="0" leadInLength="0/1"  />
              <InterpolatingParam id="2857" interp="linr"  time="-9999999/1" value="0" leadInLength="0/1"  />
             </VectorParam>
             <InterpolatingParam id="2858" interp="linr"  time="-9999999/1" value="1" leadInLength="0/1"  name="opacity"/>
             <InterpolatingParam id="2859" interp="linr"  name="cursorLocation">
              <Keyframes>
              <Keyframe id="2860"  time="0/1" value="(821,69,0)" leadInLength="0/1"  />
              <Keyframe id="2861"  time="37/1" value="(837,62,0)" leadInLength="0/1"  />
              <Keyframe id="2862"  time="38/1" value="(893,60,0)" leadInLength="0/1"  />
              <Keyframe id="2863"  time="39/1" value="(938,71,0)" leadInLength="0/1"  />
              <Keyframe id="2864"  time="40/1" value="(1003,78,0)" leadInLength="0/1"  />
              <Keyframe id="2865"  time="41/1" value="(1025,82,0)" leadInLength="0/1"  />
              <Keyframe id="2866"  time="42/1" value="(1144,112,0)" leadInLength="0/1"  />
              <Keyframe id="2867"  time="43/1" value="(1170,122,0)" leadInLength="0/1"  />
              <Keyframe id="2868"  time="44/1" value="(1206,141,0)" leadInLength="0/1"  />
              <Keyframe id="2869"  time="45/1" value="(1237,149,0)" leadInLength="0/1"  />
              <Keyframe id="2870"  time="46/1" value="(1268,150,0)" leadInLength="0/1"  />
              <Keyframe id="2871"  time="47/1" value="(1290,150,0)" leadInLength="0/1"  />
              <Keyframe id="2872"  time="48/1" value="(1304,150,0)" leadInLength="0/1"  />
              <Keyframe id="2873"  time="49/1" value="(1336,149,0)" leadInLength="0/1"  />
              <Keyframe id="2874"  time="50/1" value="(1341,147,0)" leadInLength="0/1"  />
              <Keyframe id="2875"  time="51/1" value="(1341,145,0)" leadInLength="0/1"  />
              <Keyframe id="2876"  time="52/1" value="(1343,142,0)" leadInLength="0/1"  />
              <Keyframe id="2877"  time="53/1" value="(1346,136,0)" leadInLength="0/1"  />
              <Keyframe id="2878"  time="54/1" value="(1348,128,0)" leadInLength="0/1"  />
              <Keyframe id="2879"  time="55/1" value="(1348,120,0)" leadInLength="0/1"  />
              <Keyframe id="2880"  time="56/1" value="(1348,119,0)" leadInLength="0/1"  />
              <Keyframe id="2881"  time="58/1" value="(1348,119,0)" leadInLength="0/1"  />
              </Keyframes>
             </InterpolatingParam>
             <InterpolatingParam id="2882" interp="linr"  time="0/1" value="(87,53,1300,929)" leadInLength="0/1"  name="topmostWindowCoordinates"/>
             <InterpolatingParam id="2883" interp="linr"  name="cursorAction">
              <Keyframes>
              <Keyframe id="2884"  time="56/1" value="1" leadInLength="0/1"  />
              <Keyframe id="2885"  time="58/1" value="2" leadInLength="0/1"  />
              </Keyframes>
             </InterpolatingParam>
             <Parameter id="2886"  name="cursorImagePath">
              <Keyframes>
              <Keyframe id="2887"  time="0/1" value="2b7b6af1-7a1f-11e2-83d0-0017f200be7f/0" leadInLength="0/1"  />
              </Keyframes>
             </Parameter>
             <InterpolatingParam id="2888" interp="linr"  time="0/1" value="(98,181,1280,720)" leadInLength="0/1"  name="recordingRegion"/>
             <InterpolatingParam id="2889" interp="linr"  time="0/1" value="0" leadInLength="0/1"  name="cursorOpacity"/>
             <InterpolatingParam id="2890" interp="linr"  time="0/1" value="1" leadInLength="0/1"  name="recordedCursorOpacity"/>
             <InterpolatingParam id="2891" interp="linr"  time="0/1" value="0" leadInLength="0/1"  name="cursorScale"/>
            </Parameters>
            <Attributes>
             <Attribute id="2892" value="" name="ident"/>
            </Attributes>
            <MetaData>
             <entry key="AutoAppliedSmartFocus" val="False"/>
             <entry key="WinSubProjectDisplayName" val=""/>
            </MetaData>
            <ExtraData>
             <Entry key="ZoomPanBin">
              <ZoomPanBin id="2893"  >
               <ZoomPanKeyframes>
                <ZoomPanKeyframe id="2894" timeRangeEnd="-9999999/1" timeRangeDuration="0/1" interpolaterName="linr"  />
               </ZoomPanKeyframes>
              </ZoomPanBin>
             </Entry>
             <Entry key="CursorEffectBin">
              <CursorEffectBin id="2895"  >
               <CursorEffectKeyframes>
               </CursorEffectKeyframes>
              </CursorEffectBin>
             </Entry>
            </ExtraData>
           </ScreenIMFile>
          </Medias>
         </GenericTrack>
        </StitchedMedia>
        <UnifiedMedia id="2896"  >
         <AudioTransition id="2897" start="7256" duration="30" >
          <Parameters>
           <InterpolatingParam id="2898" interp="linr"  time="0/1" value="1" leadInLength="0/1"  name="volume"/>
           <Parameter id="2899"  name="captions"/>
          </Parameters>
          <Effects>
           <GenericEffect id="2900" name = "AudioTransition" >
            <Parameters>
            <Parameter id="2901"   name="audioEdgeModType">
             <Keyframes>
             <Keyframe id="2902"  time="0/1" value="0" leadInLength="0/1"  />
             </Keyframes>
            </Parameter>
            <Parameter id="2903"   name="audioTransitionType">
             <Keyframes>
             <Keyframe id="2904"  time="0/1" value="" leadInLength="0/1"  />
             </Keyframes>
            </Parameter>
            </Parameters>
            <MetaData>
            </MetaData>
           </GenericEffect>
          </Effects>
          <Attributes>
           <Attribute id="2905" value="" name="ident"/>
           <Attribute id="2906" value="0" name="sampleRate"/>
           <Attribute id="2907" value="0" name="bitDepth"/>
           <Attribute id="2908" value="1" name="gain"/>
           <Attribute id="2909" value="0" name="mixToMono"/>
          </Attributes>
         </AudioTransition>
         <ImageTransition id="2910" start="7256" duration="30" >
          <Transformer>
           <VectorParam id="2911"  name="translation">
            <InterpolatingParam id="2912" interp="linr"  time="0/1" value="0" leadInLength="0/1"  />
            <InterpolatingParam id="2913" interp="linr"  time="0/1" value="0" leadInLength="0/1"  />
            <InterpolatingParam id="2914" interp="linr"  time="0/1" value="0" leadInLength="0/1"  />
           </VectorParam>
           <VectorParam id="2915"  name="rotation">
            <InterpolatingParam id="2916" interp="linr"  time="0/1" value="0" leadInLength="0/1"  />
            <InterpolatingParam id="2917" interp="linr"  time="0/1" value="0" leadInLength="0/1"  />
            <InterpolatingParam id="2918" interp="linr"  time="0/1" value="0" leadInLength="0/1"  />
           </VectorParam>
           <VectorParam id="2919"  name="shear">
            <InterpolatingParam id="2920" interp="linr"  time="0/1" value="0" leadInLength="0/1"  />
            <InterpolatingParam id="2921" interp="linr"  time="0/1" value="0" leadInLength="0/1"  />
            <InterpolatingParam id="2922" interp="linr"  time="0/1" value="0" leadInLength="0/1"  />
           </VectorParam>
           <VectorParam id="2923"  name="scale">
            <InterpolatingParam id="2924" interp="linr"  time="0/1" value="1" leadInLength="0/1"  />
            <InterpolatingParam id="2925" interp="linr"  time="0/1" value="1" leadInLength="0/1"  />
            <InterpolatingParam id="2926" interp="linr"  time="0/1" value="1" leadInLength="0/1"  />
           </VectorParam>
           <VectorParam id="2927"  name="anchor">
            <InterpolatingParam id="2928" interp="linr"  time="0/1" value="0" leadInLength="0/1"  />
            <InterpolatingParam id="2929" interp="linr"  time="0/1" value="0" leadInLength="0/1"  />
            <InterpolatingParam id="2930" interp="linr"  time="0/1" value="0" leadInLength="0/1"  />
           </VectorParam>
          </Transformer>
          <Parameters>
           <VectorParam id="2931"  name="sourceCrop">
            <InterpolatingParam id="2932" interp="linr"  time="0/1" value="0" leadInLength="0/1"  />
            <InterpolatingParam id="2933" interp="linr"  time="0/1" value="0" leadInLength="0/1"  />
            <InterpolatingParam id="2934" interp="linr"  time="0/1" value="0" leadInLength="0/1"  />
            <InterpolatingParam id="2935" interp="linr"  time="0/1" value="0" leadInLength="0/1"  />
           </VectorParam>
           <VectorParam id="2936"  name="geometryCrop">
            <InterpolatingParam id="2937" interp="linr"  time="0/1" value="0" leadInLength="0/1"  />
            <InterpolatingParam id="2938" interp="linr"  time="0/1" value="0" leadInLength="0/1"  />
            <InterpolatingParam id="2939" interp="linr"  time="0/1" value="0" leadInLength="0/1"  />
            <InterpolatingParam id="2940" interp="linr"  time="0/1" value="0" leadInLength="0/1"  />
           </VectorParam>
           <InterpolatingParam id="2941" interp="linr"  time="0/1" value="1" leadInLength="0/1"  name="opacity"/>
          </Parameters>
          <Effects>
           <GenericEffect id="2942" name = "VisualTransition" >
            <Parameters>
            <InterpolatingParam id="2943" interp="linr"  time="0/1" value="1" leadInLength="0/1"   name="leftFramePercentage"/>
            <InterpolatingParam id="2944" interp="linr"  time="0/1" value="1" leadInLength="0/1"   name="rightFramePercentage"/>
            <Parameter id="2945"   name="visualEdgeModType">
             <Keyframes>
             <Keyframe id="2946"  time="0/1" value="0" leadInLength="0/1"  />
             </Keyframes>
            </Parameter>
            <Parameter id="2947"   name="visualTransitionType">
             <Keyframes>
             <Keyframe id="2948"  time="0/1" value="CubeRotate" leadInLength="0/1"  />
             </Keyframes>
            </Parameter>
            </Parameters>
            <MetaData>
            </MetaData>
           </GenericEffect>
          </Effects>
          <Attributes>
           <Attribute id="2949" value="" name="ident"/>
          </Attributes>
          <ExtraData>
           <Entry key="ZoomPanBin">
            <ZoomPanBin id="2950"  >
             <ZoomPanKeyframes>
             </ZoomPanKeyframes>
            </ZoomPanBin>
           </Entry>
          </ExtraData>
         </ImageTransition>
         <MetaData>
          <entry key="WinSubProjectDisplayName" val=""/>
         </MetaData>
        </UnifiedMedia>
        <IMFile id="2951" start="7286" duration="465" scalar="1/1" mediaStart="0/1" mediaDuration="1/1" trackNumber="0" src="17" trimStartSum="15/1" >
         <Transformer>
          <VectorParam id="2952"  name="translation">
           <InterpolatingParam id="2953" interp="linr"  time="-9999999/1" value="0" leadInLength="0/1"  />
           <InterpolatingParam id="2954" interp="linr"  time="-9999999/1" value="0" leadInLength="0/1"  />
           <InterpolatingParam id="2955" interp="linr"  time="-9999999/1" value="0" leadInLength="0/1"  />
          </VectorParam>
          <VectorParam id="2956"  name="rotation">
           <InterpolatingParam id="2957" interp="linr"  time="-9999999/1" value="0" leadInLength="0/1"  />
           <InterpolatingParam id="2958" interp="linr"  time="-9999999/1" value="0" leadInLength="0/1"  />
           <InterpolatingParam id="2959" interp="linr"  time="-9999999/1" value="0" leadInLength="0/1"  />
          </VectorParam>
          <VectorParam id="2960"  name="shear">
           <InterpolatingParam id="2961" interp="linr"  time="-9999999/1" value="0" leadInLength="0/1"  />
           <InterpolatingParam id="2962" interp="linr"  time="-9999999/1" value="0" leadInLength="0/1"  />
           <InterpolatingParam id="2963" interp="linr"  time="-9999999/1" value="0" leadInLength="0/1"  />
          </VectorParam>
          <VectorParam id="2964"  name="scale">
           <InterpolatingParam id="2965" interp="linr"  time="-9999999/1" value="1" leadInLength="0/1"  />
           <InterpolatingParam id="2966" interp="linr"  time="-9999999/1" value="1" leadInLength="0/1"  />
           <InterpolatingParam id="2967" interp="linr"  time="-9999999/1" value="1" leadInLength="0/1"  />
          </VectorParam>
          <VectorParam id="2968"  name="anchor">
           <InterpolatingParam id="2969" interp="linr"  time="0/1" value="0" leadInLength="0/1"  />
           <InterpolatingParam id="2970" interp="linr"  time="0/1" value="0" leadInLength="0/1"  />
           <InterpolatingParam id="2971" interp="linr"  time="0/1" value="0" leadInLength="0/1"  />
          </VectorParam>
         </Transformer>
         <Parameters>
          <VectorParam id="2972"  name="sourceCrop">
           <InterpolatingParam id="2973" interp="linr"  time="0/1" value="0" leadInLength="0/1"  />
           <InterpolatingParam id="2974" interp="linr"  time="0/1" value="0" leadInLength="0/1"  />
           <InterpolatingParam id="2975" interp="linr"  time="0/1" value="0" leadInLength="0/1"  />
           <InterpolatingParam id="2976" interp="linr"  time="0/1" value="0" leadInLength="0/1"  />
          </VectorParam>
          <VectorParam id="2977"  name="geometryCrop">
           <InterpolatingParam id="2978" interp="linr"  time="-9999999/1" value="0" leadInLength="0/1"  />
           <InterpolatingParam id="2979" interp="linr"  time="-9999999/1" value="0" leadInLength="0/1"  />
           <InterpolatingParam id="2980" interp="linr"  time="-9999999/1" value="0" leadInLength="0/1"  />
           <InterpolatingParam id="2981" interp="linr"  time="-9999999/1" value="0" leadInLength="0/1"  />
          </VectorParam>
          <InterpolatingParam id="2982" interp="linr"  time="-9999999/1" value="1" leadInLength="0/1"  name="opacity"/>
         </Parameters>
         <Effects>
          <GenericEffect id="2983" name = "Colorize" >
           <Parameters>
           <InterpolatingParam id="2984" interp="linr"  time="0/1" value="1" leadInLength="0/1"   name="amount"/>
           <InterpolatingParam id="2985" interp="linr"  time="0/1" value="255" leadInLength="0/1"   name="color-alpha"/>
           <InterpolatingParam id="2986" interp="linr"  time="0/1" value="0" leadInLength="0/1"   name="color-blue"/>
           <InterpolatingParam id="2987" interp="linr"  time="0/1" value="115" leadInLength="0/1"   name="color-green"/>
           <InterpolatingParam id="2988" interp="linr"  time="0/1" value="255" leadInLength="0/1"   name="color-red"/>
           <Parameter id="2989"   name="enabled">
            <Keyframes>
            <Keyframe id="2990"  time="0/1" value="1" leadInLength="0/1"  />
            </Keyframes>
           </Parameter>
           <Parameter id="2991"   name="mode">
            <Keyframes>
            <Keyframe id="2992"  time="0/1" value="0" leadInLength="0/1"  />
            </Keyframes>
           </Parameter>
           </Parameters>
          </GenericEffect>
         </Effects>
         <Attributes>
          <Attribute id="2993" value="" name="ident"/>
         </Attributes>
         <MetaData>
          <entry key="WinSubProjectDisplayName" val=""/>
         </MetaData>
         <ExtraData>
          <Entry key="ZoomPanBin">
           <ZoomPanBin id="2994"  >
            <ZoomPanKeyframes>
             <ZoomPanKeyframe id="2995" timeRangeEnd="-9999999/1" timeRangeDuration="0/1" interpolaterName="linr"  />
            </ZoomPanKeyframes>
           </ZoomPanBin>
          </Entry>
         </ExtraData>
        </IMFile>
       </Medias>
      </GenericTrack>
      <GenericTrack id="2996"  >
       <Attributes>
        <Attribute id="2997" value="" name="ident"/>
        <Attribute id="2998" value="0" name="audioMuted"/>
        <Attribute id="2999" value="0" name="videoHidden"/>
       </Attributes>
       <MetaData>
        <entry key="IsLocked" val="False"/>
        <entry key="WinTrackHeight" val="62"/>
       </MetaData>
       <Medias>
       </Medias>
      </GenericTrack>
      <GenericTrack id="3000"  >
       <Attributes>
        <Attribute id="3001" value="" name="ident"/>
        <Attribute id="3002" value="0" name="audioMuted"/>
        <Attribute id="3003" value="0" name="videoHidden"/>
       </Attributes>
       <MetaData>
        <entry key="IsLocked" val="False"/>
        <entry key="WinTrackHeight" val="62"/>
       </MetaData>
       <Medias>
       </Medias>
      </GenericTrack>
     </Tracks>
    </GenericMixer>
   <CaptionAttributes id="3004"  >
    <Attribute id="3005" value="1" name="captionsEnabled"/>
    <Attribute id="3006" value="Arial" name="captionsFontName"/>
    <Attribute id="3007" value="28" name="captionsFontSize"/>
    <Attribute id="3008" value="(0,0,0,255)" name="captionsBackgroundColor"/>
    <Attribute id="3009" value="(255,255,255,255)" name="captionsForegroundColor"/>
    <Attribute id="3010" value="en" name="lang"/>
    <Attribute id="3011" value="0" name="captionsAlignment"/>
    <Attribute id="3012" value="1" name="captionsDefaultFontSize"/>
    <Attribute id="3013" value="0.5" name="captionsOpacity"/>
    <Attribute id="3014" value="1" name="captionsBackgroundEnabled"/>
    <Attribute id="3015" value="1" name="captionsBackgroundOnlyAroundText"/>
   </CaptionAttributes>
   <Parameters>
    <VectorParam id="3016"  name="eyePosition">
     <InterpolatingParam id="3017" interp="linr"  time="0/1" value="0" leadInLength="0/1"  />
     <InterpolatingParam id="3018" interp="linr"  time="0/1" value="0" leadInLength="0/1"  />
     <InterpolatingParam id="3019" interp="linr"  time="0/1" value="3000" leadInLength="0/1"  />
    </VectorParam>
    <VectorParam id="3020"  name="eyeLookAtPosition">
     <InterpolatingParam id="3021" interp="linr"  time="0/1" value="0" leadInLength="0/1"  />
     <InterpolatingParam id="3022" interp="linr"  time="0/1" value="0" leadInLength="0/1"  />
     <InterpolatingParam id="3023" interp="linr"  time="0/1" value="0" leadInLength="0/1"  />
    </VectorParam>
    <VectorParam id="3024"  name="eyeUpVector">
     <InterpolatingParam id="3025" interp="linr"  time="0/1" value="0" leadInLength="0/1"  />
     <InterpolatingParam id="3026" interp="linr"  time="0/1" value="1" leadInLength="0/1"  />
     <InterpolatingParam id="3027" interp="linr"  time="0/1" value="0" leadInLength="0/1"  />
    </VectorParam>
    <InterpolatingParam id="3028" interp="linr"  time="0/1" value="0.23885785" leadInLength="0/1"  name="fov"/>
    <InterpolatingParam id="3029" interp="linr"  time="0/1" value="1.5" leadInLength="0/1"  name="nearClipDistance"/>
    <InterpolatingParam id="3030" interp="linr"  time="0/1" value="6000" leadInLength="0/1"  name="farClipDistance"/>
   </Parameters>
  </Timeline>
 </Project>
</GoProject>
</CSMLData>

</Project_Data>
