<?xml version="1.0"?>
<Project_Data Version="8.00">
<Project_Settings>
<ProfileName>MP4 only (up to 720p)</ProfileName>
<ProjectWidth>1280</ProjectWidth>
<ProjectHeight>720</ProjectHeight>
<IsCustomProject>1</IsCustomProject>
<SavedProjectSettings>1</SavedProjectSettings>
<LastFlashTemplate>-1</LastFlashTemplate>
</Project_Settings>


<AutoSaveFile>C:\Users\ewittman\AppData\Local\TechSmith\Camtasia Studio\8.0\Auto-Saves\using-apimanbb703bd.autosave.camproj</AutoSaveFile>

<ProjectID>E18ED1BA-75D6-422A-972D-AB4C8343FE34</ProjectID>

<PowerPointProject>0</PowerPointProject>

<PowerPointFilename></PowerPointFilename>


<Project_Notes>
</Project_Notes>

<Project_MetaData>
<Project_MetaData_Object>
<FieldArrayKey>8</FieldArrayKey>
<Value>using-apiman</Value>
</Project_MetaData_Object>
<Project_MetaData_Object>
<FieldArrayKey>13</FieldArrayKey>
<Value>2014-11-17 07:43:46 AM</Value>
</Project_MetaData_Object>
<Project_MetaData_Object>
<FieldArrayKey>16</FieldArrayKey>
<Value>ENU</Value>
</Project_MetaData_Object>
</Project_MetaData>

<CSMLData>
<GoProject id="1" version="3.0" >
 <Project id="2" editRate="30/1" version="3.0" >
  <Author></Author>
  <Comment></Comment>
  <System></System>
  <SourceBin id="3"  >
    <Source id="4" src="C:\Users\ewittman\git\apiman-videos\using-apiman\audio\serviceprovider.mp3" lastMod="20141115T200650" rect="(0,0,0,0)" >
      <SourceTrack range="(0,766666667)" type="2" editRate="10000000/1" trackRect="(0,0,0,0)" sampleRate="44100/1" bitDepth="0" numChannels="2" filename="" metaData="" />
    </Source>
    <Source id="5" src="C:\Users\ewittman\git\apiman-videos\using-apiman\audio\testing.mp3" lastMod="20141115T201340" rect="(0,0,0,0)" >
      <SourceTrack range="(0,689333333)" type="2" editRate="10000000/1" trackRect="(0,0,0,0)" sampleRate="44100/1" bitDepth="0" numChannels="2" filename="" metaData="" />
    </Source>
    <Source id="6" src="C:\Users\ewittman\git\apiman-videos\using-apiman\audio\wrapup.mp3" lastMod="20141115T201409" rect="(0,0,0,0)" >
      <SourceTrack range="(0,102000000)" type="2" editRate="10000000/1" trackRect="(0,0,0,0)" sampleRate="44100/1" bitDepth="0" numChannels="2" filename="" metaData="" />
    </Source>
    <Source id="7" src="C:\Users\ewittman\git\apiman-videos\using-apiman\audio\appdeveloper.mp3" lastMod="20141115T201136" rect="(0,0,0,0)" >
      <SourceTrack range="(0,576333333)" type="2" editRate="10000000/1" trackRect="(0,0,0,0)" sampleRate="44100/1" bitDepth="0" numChannels="2" filename="" metaData="" />
    </Source>
    <Source id="8" src="C:\Users\ewittman\git\apiman-videos\using-apiman\audio\intro.mp3" lastMod="20141115T200500" rect="(0,0,0,0)" >
      <SourceTrack range="(0,736000000)" type="2" editRate="10000000/1" trackRect="(0,0,0,0)" sampleRate="44100/1" bitDepth="0" numChannels="2" filename="" metaData="" />
    </Source>
    <Source id="9" src="C:\Users\ewittman\git\apiman-videos\using-apiman\screenshots\intro-1.png" lastMod="20141120T210446" rect="(0,0,1280,720)" >
      <SourceTrack range="(0,1)" type="1" editRate="10000000/1" trackRect="(0,0,1280,720)" sampleRate="0/1" bitDepth="32" numChannels="0" filename="" metaData="" />
    </Source>
    <Source id="10" src="C:\Users\ewittman\git\apiman-videos\using-apiman\screenshots\intro-2.png" lastMod="20141115T154316" rect="(0,0,1280,720)" >
      <SourceTrack range="(0,1)" type="1" editRate="10000000/1" trackRect="(0,0,1280,720)" sampleRate="0/1" bitDepth="32" numChannels="0" filename="" metaData="" />
    </Source>
    <Source id="11" src="C:\Users\ewittman\git\apiman-videos\using-apiman\screenshots\intro-3.png" lastMod="20141115T154403" rect="(0,0,1280,720)" >
      <SourceTrack range="(0,1)" type="1" editRate="10000000/1" trackRect="(0,0,1280,720)" sampleRate="0/1" bitDepth="32" numChannels="0" filename="" metaData="" />
    </Source>
    <Source id="12" src="C:\Users\ewittman\git\apiman-videos\using-apiman\screenshots\intro-4.png" lastMod="20141115T154451" rect="(0,0,1280,720)" >
      <SourceTrack range="(0,1)" type="1" editRate="10000000/1" trackRect="(0,0,1280,720)" sampleRate="0/1" bitDepth="32" numChannels="0" filename="" metaData="" />
    </Source>
    <Source id="13" src="C:\Users\ewittman\git\apiman-videos\using-apiman\screenshots\intro-5.png" lastMod="20141115T154539" rect="(0,0,1280,720)" >
      <SourceTrack range="(0,1)" type="1" editRate="10000000/1" trackRect="(0,0,1280,720)" sampleRate="0/1" bitDepth="32" numChannels="0" filename="" metaData="" />
    </Source>
    <Source id="14" src="C:\Users\ewittman\git\apiman-videos\using-apiman\video\serviceprovider.camrec" lastMod="20141115T160547" rect="(0,0,1280,720)" >
      <SourceTrack range="(0,1201333333)" type="0" editRate="10000000/1" trackRect="(0,0,1280,720)" sampleRate="10000000/333333" bitDepth="24" numChannels="0" filename="serviceprovider.camrec!Screen_Stream.avi" metaData="serviceprovider.camrec!Events.dat;serviceprovider.camrec!manifest.camxml;" />
    </Source>
    <Source id="15" src="C:\Users\ewittman\git\apiman-videos\using-apiman\video\testing.camrec" lastMod="20141115T161808" rect="(0,0,1280,720)" >
      <SourceTrack range="(0,761666667)" type="0" editRate="10000000/1" trackRect="(0,0,1280,720)" sampleRate="10000000/333333" bitDepth="24" numChannels="0" filename="testing.camrec!Screen_Stream.avi" metaData="testing.camrec!Events.dat;testing.camrec!manifest.camxml;" />
    </Source>
    <Source id="16" src="C:\Users\ewittman\git\apiman-videos\using-apiman\video\appdeveloper.camrec" lastMod="20141115T160728" rect="(0,0,1280,720)" >
      <SourceTrack range="(0,602333333)" type="0" editRate="10000000/1" trackRect="(0,0,1280,720)" sampleRate="10000000/333333" bitDepth="24" numChannels="0" filename="appdeveloper.camrec!Screen_Stream.avi" metaData="appdeveloper.camrec!Events.dat;appdeveloper.camrec!manifest.camxml;" />
    </Source>
    <Source id="17" src="C:\Users\ewittman\git\apiman-videos\music_beat.wav" lastMod="20141115T163242" rect="(0,0,0,0)" >
      <SourceTrack range="(0,160000000)" type="2" editRate="10000000/1" trackRect="(0,0,0,0)" sampleRate="44100/1" bitDepth="16" numChannels="2" filename="" metaData="" />
    </Source>
  </SourceBin>
  <Timeline id="18"  >
   <Attributes>
    <Attribute id="19" value="1280" name="width"/>
    <Attribute id="20" value="720" name="height"/>
    <Attribute id="21" value="(0,0,0,255)" name="backgroundColor"/>
   </Attributes>
    <GenericMixer id="22"  name="Unified Mixer">
     <MetaData>
      <entry key="MixerType" val="TimelineMixer"/>
     </MetaData>
     <Tracks>
      <GenericTrack id="23"  >
       <Attributes>
        <Attribute id="24" value="Music" name="ident"/>
        <Attribute id="25" value="0" name="audioMuted"/>
        <Attribute id="26" value="0" name="videoHidden"/>
       </Attributes>
       <MetaData>
        <entry key="IsLocked" val="False"/>
        <entry key="WinTrackHeight" val="62"/>
       </MetaData>
       <Medias>
        <AMFile id="27" start="0" duration="480" scalar="1/1" mediaStart="0/1" mediaDuration="480/1" trackNumber="0" src="17" channelNumber="0,1" >
         <Parameters>
          <InterpolatingParam id="28" interp="linr"  time="0/1" value="0.014411518807585602" leadInLength="0/1"  name="volume"/>
          <Parameter id="29"  name="captions"/>
         </Parameters>
         <Attributes>
          <Attribute id="30" value="" name="ident"/>
          <Attribute id="31" value="44100" name="sampleRate"/>
          <Attribute id="32" value="16" name="bitDepth"/>
          <Attribute id="33" value="1" name="gain"/>
          <Attribute id="34" value="0" name="mixToMono"/>
         </Attributes>
         <MetaData>
          <entry key="WinSubProjectDisplayName" val=""/>
         </MetaData>
        </AMFile>
        <AMFile id="35" start="480" duration="480" scalar="1/1" mediaStart="0/1" mediaDuration="480/1" trackNumber="0" src="17" channelNumber="0,1" >
         <Parameters>
          <InterpolatingParam id="36" interp="linr"  time="0/1" value="0.014411518807585602" leadInLength="0/1"  name="volume"/>
          <Parameter id="37"  name="captions"/>
         </Parameters>
         <Attributes>
          <Attribute id="38" value="" name="ident"/>
          <Attribute id="39" value="44100" name="sampleRate"/>
          <Attribute id="40" value="16" name="bitDepth"/>
          <Attribute id="41" value="1" name="gain"/>
          <Attribute id="42" value="0" name="mixToMono"/>
         </Attributes>
         <MetaData>
          <entry key="WinSubProjectDisplayName" val=""/>
         </MetaData>
        </AMFile>
        <AMFile id="43" start="960" duration="480" scalar="1/1" mediaStart="0/1" mediaDuration="480/1" trackNumber="0" src="17" channelNumber="0,1" >
         <Parameters>
          <InterpolatingParam id="44" interp="linr"  time="0/1" value="0.014411518807585602" leadInLength="0/1"  name="volume"/>
          <Parameter id="45"  name="captions"/>
         </Parameters>
         <Attributes>
          <Attribute id="46" value="" name="ident"/>
          <Attribute id="47" value="44100" name="sampleRate"/>
          <Attribute id="48" value="16" name="bitDepth"/>
          <Attribute id="49" value="1" name="gain"/>
          <Attribute id="50" value="0" name="mixToMono"/>
         </Attributes>
         <MetaData>
          <entry key="WinSubProjectDisplayName" val=""/>
         </MetaData>
        </AMFile>
        <AMFile id="51" start="1440" duration="480" scalar="1/1" mediaStart="0/1" mediaDuration="480/1" trackNumber="0" src="17" channelNumber="0,1" >
         <Parameters>
          <InterpolatingParam id="52" interp="linr"  time="0/1" value="0.014411518807585602" leadInLength="0/1"  name="volume"/>
          <Parameter id="53"  name="captions"/>
         </Parameters>
         <Attributes>
          <Attribute id="54" value="" name="ident"/>
          <Attribute id="55" value="44100" name="sampleRate"/>
          <Attribute id="56" value="16" name="bitDepth"/>
          <Attribute id="57" value="1" name="gain"/>
          <Attribute id="58" value="0" name="mixToMono"/>
         </Attributes>
         <MetaData>
          <entry key="WinSubProjectDisplayName" val=""/>
         </MetaData>
        </AMFile>
        <AMFile id="59" start="1920" duration="480" scalar="1/1" mediaStart="0/1" mediaDuration="480/1" trackNumber="0" src="17" channelNumber="0,1" >
         <Parameters>
          <InterpolatingParam id="60" interp="linr"  time="0/1" value="0.014411518807585602" leadInLength="0/1"  name="volume"/>
          <Parameter id="61"  name="captions"/>
         </Parameters>
         <Attributes>
          <Attribute id="62" value="" name="ident"/>
          <Attribute id="63" value="44100" name="sampleRate"/>
          <Attribute id="64" value="16" name="bitDepth"/>
          <Attribute id="65" value="1" name="gain"/>
          <Attribute id="66" value="0" name="mixToMono"/>
         </Attributes>
         <MetaData>
          <entry key="WinSubProjectDisplayName" val=""/>
         </MetaData>
        </AMFile>
        <AMFile id="67" start="2400" duration="480" scalar="1/1" mediaStart="0/1" mediaDuration="480/1" trackNumber="0" src="17" channelNumber="0,1" >
         <Parameters>
          <InterpolatingParam id="68" interp="linr"  time="0/1" value="0.014411518807585602" leadInLength="0/1"  name="volume"/>
          <Parameter id="69"  name="captions"/>
         </Parameters>
         <Attributes>
          <Attribute id="70" value="" name="ident"/>
          <Attribute id="71" value="44100" name="sampleRate"/>
          <Attribute id="72" value="16" name="bitDepth"/>
          <Attribute id="73" value="1" name="gain"/>
          <Attribute id="74" value="0" name="mixToMono"/>
         </Attributes>
         <MetaData>
          <entry key="WinSubProjectDisplayName" val=""/>
         </MetaData>
        </AMFile>
        <AMFile id="75" start="2880" duration="480" scalar="1/1" mediaStart="0/1" mediaDuration="480/1" trackNumber="0" src="17" channelNumber="0,1" >
         <Parameters>
          <InterpolatingParam id="76" interp="linr"  time="0/1" value="0.014411518807585602" leadInLength="0/1"  name="volume"/>
          <Parameter id="77"  name="captions"/>
         </Parameters>
         <Attributes>
          <Attribute id="78" value="" name="ident"/>
          <Attribute id="79" value="44100" name="sampleRate"/>
          <Attribute id="80" value="16" name="bitDepth"/>
          <Attribute id="81" value="1" name="gain"/>
          <Attribute id="82" value="0" name="mixToMono"/>
         </Attributes>
         <MetaData>
          <entry key="WinSubProjectDisplayName" val=""/>
         </MetaData>
        </AMFile>
        <AMFile id="83" start="3360" duration="480" scalar="1/1" mediaStart="0/1" mediaDuration="480/1" trackNumber="0" src="17" channelNumber="0,1" >
         <Parameters>
          <InterpolatingParam id="84" interp="linr"  time="0/1" value="0.014411518807585602" leadInLength="0/1"  name="volume"/>
          <Parameter id="85"  name="captions"/>
         </Parameters>
         <Attributes>
          <Attribute id="86" value="" name="ident"/>
          <Attribute id="87" value="44100" name="sampleRate"/>
          <Attribute id="88" value="16" name="bitDepth"/>
          <Attribute id="89" value="1" name="gain"/>
          <Attribute id="90" value="0" name="mixToMono"/>
         </Attributes>
         <MetaData>
          <entry key="WinSubProjectDisplayName" val=""/>
         </MetaData>
        </AMFile>
        <AMFile id="91" start="3840" duration="480" scalar="1/1" mediaStart="0/1" mediaDuration="480/1" trackNumber="0" src="17" channelNumber="0,1" >
         <Parameters>
          <InterpolatingParam id="92" interp="linr"  time="0/1" value="0.014411518807585602" leadInLength="0/1"  name="volume"/>
          <Parameter id="93"  name="captions"/>
         </Parameters>
         <Attributes>
          <Attribute id="94" value="" name="ident"/>
          <Attribute id="95" value="44100" name="sampleRate"/>
          <Attribute id="96" value="16" name="bitDepth"/>
          <Attribute id="97" value="1" name="gain"/>
          <Attribute id="98" value="0" name="mixToMono"/>
         </Attributes>
         <MetaData>
          <entry key="WinSubProjectDisplayName" val=""/>
         </MetaData>
        </AMFile>
        <AMFile id="99" start="4320" duration="480" scalar="1/1" mediaStart="0/1" mediaDuration="480/1" trackNumber="0" src="17" channelNumber="0,1" >
         <Parameters>
          <InterpolatingParam id="100" interp="linr"  time="0/1" value="0.014411518807585602" leadInLength="0/1"  name="volume"/>
          <Parameter id="101"  name="captions"/>
         </Parameters>
         <Attributes>
          <Attribute id="102" value="" name="ident"/>
          <Attribute id="103" value="44100" name="sampleRate"/>
          <Attribute id="104" value="16" name="bitDepth"/>
          <Attribute id="105" value="1" name="gain"/>
          <Attribute id="106" value="0" name="mixToMono"/>
         </Attributes>
         <MetaData>
          <entry key="WinSubProjectDisplayName" val=""/>
         </MetaData>
        </AMFile>
        <AMFile id="107" start="4800" duration="480" scalar="1/1" mediaStart="0/1" mediaDuration="480/1" trackNumber="0" src="17" channelNumber="0,1" >
         <Parameters>
          <InterpolatingParam id="108" interp="linr"  time="0/1" value="0.014411518807585602" leadInLength="0/1"  name="volume"/>
          <Parameter id="109"  name="captions"/>
         </Parameters>
         <Attributes>
          <Attribute id="110" value="" name="ident"/>
          <Attribute id="111" value="44100" name="sampleRate"/>
          <Attribute id="112" value="16" name="bitDepth"/>
          <Attribute id="113" value="1" name="gain"/>
          <Attribute id="114" value="0" name="mixToMono"/>
         </Attributes>
         <MetaData>
          <entry key="WinSubProjectDisplayName" val=""/>
         </MetaData>
        </AMFile>
        <AMFile id="115" start="5280" duration="480" scalar="1/1" mediaStart="0/1" mediaDuration="480/1" trackNumber="0" src="17" channelNumber="0,1" >
         <Parameters>
          <InterpolatingParam id="116" interp="linr"  time="0/1" value="0.014411518807585602" leadInLength="0/1"  name="volume"/>
          <Parameter id="117"  name="captions"/>
         </Parameters>
         <Attributes>
          <Attribute id="118" value="" name="ident"/>
          <Attribute id="119" value="44100" name="sampleRate"/>
          <Attribute id="120" value="16" name="bitDepth"/>
          <Attribute id="121" value="1" name="gain"/>
          <Attribute id="122" value="0" name="mixToMono"/>
         </Attributes>
         <MetaData>
          <entry key="WinSubProjectDisplayName" val=""/>
         </MetaData>
        </AMFile>
        <AMFile id="123" start="5760" duration="480" scalar="1/1" mediaStart="0/1" mediaDuration="480/1" trackNumber="0" src="17" channelNumber="0,1" >
         <Parameters>
          <InterpolatingParam id="124" interp="linr"  time="0/1" value="0.014411518807585602" leadInLength="0/1"  name="volume"/>
          <Parameter id="125"  name="captions"/>
         </Parameters>
         <Attributes>
          <Attribute id="126" value="" name="ident"/>
          <Attribute id="127" value="44100" name="sampleRate"/>
          <Attribute id="128" value="16" name="bitDepth"/>
          <Attribute id="129" value="1" name="gain"/>
          <Attribute id="130" value="0" name="mixToMono"/>
         </Attributes>
         <MetaData>
          <entry key="WinSubProjectDisplayName" val=""/>
         </MetaData>
        </AMFile>
        <AMFile id="131" start="6240" duration="480" scalar="1/1" mediaStart="0/1" mediaDuration="480/1" trackNumber="0" src="17" channelNumber="0,1" >
         <Parameters>
          <InterpolatingParam id="132" interp="linr"  time="0/1" value="0.014411518807585602" leadInLength="0/1"  name="volume"/>
          <Parameter id="133"  name="captions"/>
         </Parameters>
         <Attributes>
          <Attribute id="134" value="" name="ident"/>
          <Attribute id="135" value="44100" name="sampleRate"/>
          <Attribute id="136" value="16" name="bitDepth"/>
          <Attribute id="137" value="1" name="gain"/>
          <Attribute id="138" value="0" name="mixToMono"/>
         </Attributes>
         <MetaData>
          <entry key="WinSubProjectDisplayName" val=""/>
         </MetaData>
        </AMFile>
        <AMFile id="139" start="6720" duration="480" scalar="1/1" mediaStart="0/1" mediaDuration="480/1" trackNumber="0" src="17" channelNumber="0,1" >
         <Parameters>
          <InterpolatingParam id="140" interp="linr"  time="0/1" value="0.014411518807585602" leadInLength="0/1"  name="volume"/>
          <Parameter id="141"  name="captions"/>
         </Parameters>
         <Attributes>
          <Attribute id="142" value="" name="ident"/>
          <Attribute id="143" value="44100" name="sampleRate"/>
          <Attribute id="144" value="16" name="bitDepth"/>
          <Attribute id="145" value="1" name="gain"/>
          <Attribute id="146" value="0" name="mixToMono"/>
         </Attributes>
         <MetaData>
          <entry key="WinSubProjectDisplayName" val=""/>
         </MetaData>
        </AMFile>
        <AMFile id="147" start="7200" duration="480" scalar="1/1" mediaStart="0/1" mediaDuration="480/1" trackNumber="0" src="17" channelNumber="0,1" >
         <Parameters>
          <InterpolatingParam id="148" interp="linr"  time="0/1" value="0.014411518807585602" leadInLength="0/1"  name="volume"/>
          <Parameter id="149"  name="captions"/>
         </Parameters>
         <Attributes>
          <Attribute id="150" value="" name="ident"/>
          <Attribute id="151" value="44100" name="sampleRate"/>
          <Attribute id="152" value="16" name="bitDepth"/>
          <Attribute id="153" value="1" name="gain"/>
          <Attribute id="154" value="0" name="mixToMono"/>
         </Attributes>
         <MetaData>
          <entry key="WinSubProjectDisplayName" val=""/>
         </MetaData>
        </AMFile>
        <AMFile id="155" start="7680" duration="480" scalar="1/1" mediaStart="0/1" mediaDuration="480/1" trackNumber="0" src="17" channelNumber="0,1" >
         <Parameters>
          <InterpolatingParam id="156" interp="linr"  time="0/1" value="0.014411518807585602" leadInLength="0/1"  name="volume"/>
          <Parameter id="157"  name="captions"/>
         </Parameters>
         <Attributes>
          <Attribute id="158" value="" name="ident"/>
          <Attribute id="159" value="44100" name="sampleRate"/>
          <Attribute id="160" value="16" name="bitDepth"/>
          <Attribute id="161" value="1" name="gain"/>
          <Attribute id="162" value="0" name="mixToMono"/>
         </Attributes>
         <MetaData>
          <entry key="WinSubProjectDisplayName" val=""/>
         </MetaData>
        </AMFile>
        <AMFile id="163" start="8160" duration="480" scalar="1/1" mediaStart="0/1" mediaDuration="480/1" trackNumber="0" src="17" channelNumber="0,1" >
         <Parameters>
          <InterpolatingParam id="164" interp="linr"  time="0/1" value="0.014411518807585602" leadInLength="0/1"  name="volume"/>
          <Parameter id="165"  name="captions"/>
         </Parameters>
         <Attributes>
          <Attribute id="166" value="" name="ident"/>
          <Attribute id="167" value="44100" name="sampleRate"/>
          <Attribute id="168" value="16" name="bitDepth"/>
          <Attribute id="169" value="1" name="gain"/>
          <Attribute id="170" value="0" name="mixToMono"/>
         </Attributes>
         <MetaData>
          <entry key="WinSubProjectDisplayName" val=""/>
         </MetaData>
        </AMFile>
        <AMFile id="171" start="8640" duration="480" scalar="1/1" mediaStart="0/1" mediaDuration="480/1" trackNumber="0" src="17" channelNumber="0,1" >
         <Parameters>
          <InterpolatingParam id="172" interp="linr"  time="0/1" value="0.014411518807585602" leadInLength="0/1"  name="volume"/>
          <Parameter id="173"  name="captions"/>
         </Parameters>
         <Attributes>
          <Attribute id="174" value="" name="ident"/>
          <Attribute id="175" value="44100" name="sampleRate"/>
          <Attribute id="176" value="16" name="bitDepth"/>
          <Attribute id="177" value="1" name="gain"/>
          <Attribute id="178" value="0" name="mixToMono"/>
         </Attributes>
         <MetaData>
          <entry key="WinSubProjectDisplayName" val=""/>
         </MetaData>
        </AMFile>
        <AMFile id="179" start="9120" duration="480" scalar="1/1" mediaStart="0/1" mediaDuration="480/1" trackNumber="0" src="17" channelNumber="0,1" >
         <Parameters>
          <InterpolatingParam id="180" interp="linr"  time="0/1" value="0.014411518807585602" leadInLength="0/1"  name="volume"/>
          <Parameter id="181"  name="captions"/>
         </Parameters>
         <Attributes>
          <Attribute id="182" value="" name="ident"/>
          <Attribute id="183" value="44100" name="sampleRate"/>
          <Attribute id="184" value="16" name="bitDepth"/>
          <Attribute id="185" value="1" name="gain"/>
          <Attribute id="186" value="0" name="mixToMono"/>
         </Attributes>
         <MetaData>
          <entry key="WinSubProjectDisplayName" val=""/>
         </MetaData>
        </AMFile>
        <AMFile id="187" start="9600" duration="480" scalar="1/1" mediaStart="0/1" mediaDuration="480/1" trackNumber="0" src="17" channelNumber="0,1" >
         <Parameters>
          <InterpolatingParam id="188" interp="linr"  time="0/1" value="0.014411518807585602" leadInLength="0/1"  name="volume"/>
          <Parameter id="189"  name="captions"/>
         </Parameters>
         <Attributes>
          <Attribute id="190" value="" name="ident"/>
          <Attribute id="191" value="44100" name="sampleRate"/>
          <Attribute id="192" value="16" name="bitDepth"/>
          <Attribute id="193" value="1" name="gain"/>
          <Attribute id="194" value="0" name="mixToMono"/>
         </Attributes>
         <MetaData>
          <entry key="WinSubProjectDisplayName" val=""/>
         </MetaData>
        </AMFile>
        <AMFile id="195" start="10080" duration="480" scalar="1/1" mediaStart="0/1" mediaDuration="480/1" trackNumber="0" src="17" channelNumber="0,1" >
         <Parameters>
          <InterpolatingParam id="196" interp="linr"  time="0/1" value="0.014411518807585602" leadInLength="0/1"  name="volume"/>
          <Parameter id="197"  name="captions"/>
         </Parameters>
         <Attributes>
          <Attribute id="198" value="" name="ident"/>
          <Attribute id="199" value="44100" name="sampleRate"/>
          <Attribute id="200" value="16" name="bitDepth"/>
          <Attribute id="201" value="1" name="gain"/>
          <Attribute id="202" value="0" name="mixToMono"/>
         </Attributes>
         <MetaData>
          <entry key="WinSubProjectDisplayName" val=""/>
         </MetaData>
        </AMFile>
        <AMFile id="203" start="10560" duration="252" scalar="1/1" mediaStart="0/1" mediaDuration="252/1" trackNumber="0" src="17" channelNumber="0,1" >
         <Parameters>
          <InterpolatingParam id="204" interp="linr"  name="volume">
           <Keyframes>
           <Keyframe id="205"  time="-1/1" value="0.03518437208883203" leadInLength="0/1"  />
           <Keyframe id="206"  time="0/1" value="0.014411518807585602" leadInLength="0/1"  />
           <Keyframe id="207"  time="162/1" value="0.014411518807585602" leadInLength="0/1"  />
           <Keyframe id="208"  time="252/1" value="0" leadInLength="0/1"  />
           <Keyframe id="209"  time="253/1" value="0.03518437208883203" leadInLength="0/1"  />
           </Keyframes>
          </InterpolatingParam>
          <Parameter id="210"  name="captions"/>
         </Parameters>
         <Attributes>
          <Attribute id="211" value="" name="ident"/>
          <Attribute id="212" value="44100" name="sampleRate"/>
          <Attribute id="213" value="16" name="bitDepth"/>
          <Attribute id="214" value="1" name="gain"/>
          <Attribute id="215" value="0" name="mixToMono"/>
         </Attributes>
         <MetaData>
          <entry key="WinSubProjectDisplayName" val=""/>
         </MetaData>
        </AMFile>
       </Medias>
      </GenericTrack>
      <GenericTrack id="216"  >
       <Attributes>
        <Attribute id="217" value="Audio" name="ident"/>
        <Attribute id="218" value="0" name="audioMuted"/>
        <Attribute id="219" value="0" name="videoHidden"/>
       </Attributes>
       <MetaData>
        <entry key="IsLocked" val="False"/>
        <entry key="WinTrackHeight" val="62"/>
       </MetaData>
       <Medias>
        <AMFile id="220" start="0" duration="2175" scalar="1/1" mediaStart="0/1" mediaDuration="2175/1" trackNumber="0" src="8" channelNumber="0,1" >
         <Parameters>
          <InterpolatingParam id="221" interp="linr"  time="0/1" value="1" leadInLength="0/1"  name="volume"/>
          <Parameter id="222"  name="captions"/>
         </Parameters>
         <Attributes>
          <Attribute id="223" value="" name="ident"/>
          <Attribute id="224" value="44100" name="sampleRate"/>
          <Attribute id="225" value="0" name="bitDepth"/>
          <Attribute id="226" value="1" name="gain"/>
          <Attribute id="227" value="0" name="mixToMono"/>
         </Attributes>
         <MetaData>
          <entry key="WinSubProjectDisplayName" val=""/>
         </MetaData>
        </AMFile>
        <AMFile id="228" start="2175" duration="284" scalar="1/1" mediaStart="35/1" mediaDuration="284/1" trackNumber="0" src="4" channelNumber="0,1" >
         <Parameters>
          <InterpolatingParam id="229" interp="linr"  time="0/1" value="1" leadInLength="0/1"  name="volume"/>
          <Parameter id="230"  name="captions"/>
         </Parameters>
         <Attributes>
          <Attribute id="231" value="" name="ident"/>
          <Attribute id="232" value="44100" name="sampleRate"/>
          <Attribute id="233" value="0" name="bitDepth"/>
          <Attribute id="234" value="1" name="gain"/>
          <Attribute id="235" value="0" name="mixToMono"/>
         </Attributes>
         <MetaData>
          <entry key="WinSubProjectDisplayName" val=""/>
         </MetaData>
        </AMFile>
        <AMFile id="236" start="2719" duration="587" scalar="1/1" mediaStart="389/1" mediaDuration="587/1" trackNumber="0" src="4" channelNumber="0,1" >
         <Parameters>
          <InterpolatingParam id="237" interp="linr"  time="0/1" value="1" leadInLength="0/1"  name="volume"/>
          <Parameter id="238"  name="captions"/>
         </Parameters>
         <Attributes>
          <Attribute id="239" value="" name="ident"/>
          <Attribute id="240" value="44100" name="sampleRate"/>
          <Attribute id="241" value="0" name="bitDepth"/>
          <Attribute id="242" value="1" name="gain"/>
          <Attribute id="243" value="0" name="mixToMono"/>
         </Attributes>
         <MetaData>
          <entry key="WinSubProjectDisplayName" val=""/>
         </MetaData>
        </AMFile>
        <AMFile id="244" start="3655" duration="195" scalar="1/1" mediaStart="1014/1" mediaDuration="195/1" trackNumber="0" src="4" channelNumber="0,1" >
         <Parameters>
          <InterpolatingParam id="245" interp="linr"  time="0/1" value="1" leadInLength="0/1"  name="volume"/>
          <Parameter id="246"  name="captions"/>
         </Parameters>
         <Attributes>
          <Attribute id="247" value="" name="ident"/>
          <Attribute id="248" value="44100" name="sampleRate"/>
          <Attribute id="249" value="0" name="bitDepth"/>
          <Attribute id="250" value="1" name="gain"/>
          <Attribute id="251" value="0" name="mixToMono"/>
         </Attributes>
         <MetaData>
          <entry key="WinSubProjectDisplayName" val=""/>
         </MetaData>
        </AMFile>
        <AMFile id="252" start="4172" duration="338" scalar="1/1" mediaStart="1209/1" mediaDuration="338/1" trackNumber="0" src="4" channelNumber="0,1" >
         <Parameters>
          <InterpolatingParam id="253" interp="linr"  time="0/1" value="1" leadInLength="0/1"  name="volume"/>
          <Parameter id="254"  name="captions"/>
         </Parameters>
         <Attributes>
          <Attribute id="255" value="" name="ident"/>
          <Attribute id="256" value="44100" name="sampleRate"/>
          <Attribute id="257" value="0" name="bitDepth"/>
          <Attribute id="258" value="1" name="gain"/>
          <Attribute id="259" value="0" name="mixToMono"/>
         </Attributes>
         <MetaData>
          <entry key="WinSubProjectDisplayName" val=""/>
         </MetaData>
        </AMFile>
        <AMFile id="260" start="4581" duration="173" scalar="1/1" mediaStart="1580/1" mediaDuration="173/1" trackNumber="0" src="4" channelNumber="0,1" >
         <Parameters>
          <InterpolatingParam id="261" interp="linr"  time="0/1" value="1" leadInLength="0/1"  name="volume"/>
          <Parameter id="262"  name="captions"/>
         </Parameters>
         <Attributes>
          <Attribute id="263" value="" name="ident"/>
          <Attribute id="264" value="44100" name="sampleRate"/>
          <Attribute id="265" value="0" name="bitDepth"/>
          <Attribute id="266" value="1" name="gain"/>
          <Attribute id="267" value="0" name="mixToMono"/>
         </Attributes>
         <MetaData>
          <entry key="WinSubProjectDisplayName" val=""/>
         </MetaData>
        </AMFile>
        <AMFile id="268" start="4754" duration="77" scalar="1/1" mediaStart="1753/1" mediaDuration="77/1" trackNumber="0" src="4" channelNumber="0,1" >
         <Parameters>
          <InterpolatingParam id="269" interp="linr"  time="0/1" value="1" leadInLength="0/1"  name="volume"/>
          <Parameter id="270"  name="captions"/>
         </Parameters>
         <Attributes>
          <Attribute id="271" value="" name="ident"/>
          <Attribute id="272" value="44100" name="sampleRate"/>
          <Attribute id="273" value="0" name="bitDepth"/>
          <Attribute id="274" value="1" name="gain"/>
          <Attribute id="275" value="0" name="mixToMono"/>
         </Attributes>
         <MetaData>
          <entry key="WinSubProjectDisplayName" val=""/>
         </MetaData>
        </AMFile>
        <AMFile id="276" start="4831" duration="216" scalar="1/1" mediaStart="1858/1" mediaDuration="216/1" trackNumber="0" src="4" channelNumber="0,1" >
         <Parameters>
          <InterpolatingParam id="277" interp="linr"  time="0/1" value="1" leadInLength="0/1"  name="volume"/>
          <Parameter id="278"  name="captions"/>
         </Parameters>
         <Attributes>
          <Attribute id="279" value="" name="ident"/>
          <Attribute id="280" value="44100" name="sampleRate"/>
          <Attribute id="281" value="0" name="bitDepth"/>
          <Attribute id="282" value="1" name="gain"/>
          <Attribute id="283" value="0" name="mixToMono"/>
         </Attributes>
         <MetaData>
          <entry key="WinSubProjectDisplayName" val=""/>
         </MetaData>
        </AMFile>
        <AMFile id="284" start="5402" duration="226" scalar="1/1" mediaStart="2074/1" mediaDuration="226/1" trackNumber="0" src="4" channelNumber="0,1" >
         <Parameters>
          <InterpolatingParam id="285" interp="linr"  time="0/1" value="1" leadInLength="0/1"  name="volume"/>
          <Parameter id="286"  name="captions"/>
         </Parameters>
         <Attributes>
          <Attribute id="287" value="" name="ident"/>
          <Attribute id="288" value="44100" name="sampleRate"/>
          <Attribute id="289" value="0" name="bitDepth"/>
          <Attribute id="290" value="1" name="gain"/>
          <Attribute id="291" value="0" name="mixToMono"/>
         </Attributes>
         <MetaData>
          <entry key="WinSubProjectDisplayName" val=""/>
         </MetaData>
        </AMFile>
        <AMFile id="292" start="5628" duration="420" scalar="1/1" mediaStart="0/1" mediaDuration="420/1" trackNumber="0" src="7" channelNumber="0,1" >
         <Parameters>
          <InterpolatingParam id="293" interp="linr"  time="0/1" value="1" leadInLength="0/1"  name="volume"/>
          <Parameter id="294"  name="captions"/>
         </Parameters>
         <Attributes>
          <Attribute id="295" value="" name="ident"/>
          <Attribute id="296" value="44100" name="sampleRate"/>
          <Attribute id="297" value="0" name="bitDepth"/>
          <Attribute id="298" value="1" name="gain"/>
          <Attribute id="299" value="0" name="mixToMono"/>
         </Attributes>
         <MetaData>
          <entry key="WinSubProjectDisplayName" val=""/>
         </MetaData>
        </AMFile>
        <AMFile id="300" start="6168" duration="251" scalar="1/1" mediaStart="420/1" mediaDuration="251/1" trackNumber="0" src="7" channelNumber="0,1" >
         <Parameters>
          <InterpolatingParam id="301" interp="linr"  time="0/1" value="1" leadInLength="0/1"  name="volume"/>
          <Parameter id="302"  name="captions"/>
         </Parameters>
         <Attributes>
          <Attribute id="303" value="" name="ident"/>
          <Attribute id="304" value="44100" name="sampleRate"/>
          <Attribute id="305" value="0" name="bitDepth"/>
          <Attribute id="306" value="1" name="gain"/>
          <Attribute id="307" value="0" name="mixToMono"/>
         </Attributes>
         <MetaData>
          <entry key="WinSubProjectDisplayName" val=""/>
         </MetaData>
        </AMFile>
        <AMFile id="308" start="6643" duration="308" scalar="1/1" mediaStart="698/1" mediaDuration="308/1" trackNumber="0" src="7" channelNumber="0,1" >
         <Parameters>
          <InterpolatingParam id="309" interp="linr"  time="0/1" value="1" leadInLength="0/1"  name="volume"/>
          <Parameter id="310"  name="captions"/>
         </Parameters>
         <Attributes>
          <Attribute id="311" value="" name="ident"/>
          <Attribute id="312" value="44100" name="sampleRate"/>
          <Attribute id="313" value="0" name="bitDepth"/>
          <Attribute id="314" value="1" name="gain"/>
          <Attribute id="315" value="0" name="mixToMono"/>
         </Attributes>
         <MetaData>
          <entry key="WinSubProjectDisplayName" val=""/>
         </MetaData>
        </AMFile>
        <AMFile id="316" start="7063" duration="206" scalar="1/1" mediaStart="1039/1" mediaDuration="206/1" trackNumber="0" src="7" channelNumber="0,1" >
         <Parameters>
          <InterpolatingParam id="317" interp="linr"  time="0/1" value="1" leadInLength="0/1"  name="volume"/>
          <Parameter id="318"  name="captions"/>
         </Parameters>
         <Attributes>
          <Attribute id="319" value="" name="ident"/>
          <Attribute id="320" value="44100" name="sampleRate"/>
          <Attribute id="321" value="0" name="bitDepth"/>
          <Attribute id="322" value="1" name="gain"/>
          <Attribute id="323" value="0" name="mixToMono"/>
         </Attributes>
         <MetaData>
          <entry key="WinSubProjectDisplayName" val=""/>
         </MetaData>
        </AMFile>
        <AMFile id="324" start="7342" duration="483" scalar="1/1" mediaStart="1245/1" mediaDuration="483/1" trackNumber="0" src="7" channelNumber="0,1" >
         <Parameters>
          <InterpolatingParam id="325" interp="linr"  time="0/1" value="1" leadInLength="0/1"  name="volume"/>
          <Parameter id="326"  name="captions"/>
         </Parameters>
         <Attributes>
          <Attribute id="327" value="" name="ident"/>
          <Attribute id="328" value="44100" name="sampleRate"/>
          <Attribute id="329" value="0" name="bitDepth"/>
          <Attribute id="330" value="1" name="gain"/>
          <Attribute id="331" value="0" name="mixToMono"/>
         </Attributes>
         <MetaData>
          <entry key="WinSubProjectDisplayName" val=""/>
         </MetaData>
        </AMFile>
        <AMFile id="332" start="7871" duration="695" scalar="1/1" mediaStart="0/1" mediaDuration="695/1" trackNumber="0" src="5" channelNumber="0,1" >
         <Parameters>
          <InterpolatingParam id="333" interp="linr"  time="0/1" value="1" leadInLength="0/1"  name="volume"/>
          <Parameter id="334"  name="captions"/>
         </Parameters>
         <Attributes>
          <Attribute id="335" value="" name="ident"/>
          <Attribute id="336" value="44100" name="sampleRate"/>
          <Attribute id="337" value="0" name="bitDepth"/>
          <Attribute id="338" value="1" name="gain"/>
          <Attribute id="339" value="0" name="mixToMono"/>
         </Attributes>
         <MetaData>
          <entry key="WinSubProjectDisplayName" val=""/>
         </MetaData>
        </AMFile>
        <AMFile id="340" start="8671" duration="535" scalar="1/1" mediaStart="743/1" mediaDuration="535/1" trackNumber="0" src="5" channelNumber="0,1" >
         <Parameters>
          <InterpolatingParam id="341" interp="linr"  time="0/1" value="1" leadInLength="0/1"  name="volume"/>
          <Parameter id="342"  name="captions"/>
         </Parameters>
         <Attributes>
          <Attribute id="343" value="" name="ident"/>
          <Attribute id="344" value="44100" name="sampleRate"/>
          <Attribute id="345" value="0" name="bitDepth"/>
          <Attribute id="346" value="1" name="gain"/>
          <Attribute id="347" value="0" name="mixToMono"/>
         </Attributes>
         <MetaData>
          <entry key="WinSubProjectDisplayName" val=""/>
         </MetaData>
        </AMFile>
        <AMFile id="348" start="9206" duration="178" scalar="1/1" mediaStart="1378/1" mediaDuration="178/1" trackNumber="0" src="5" channelNumber="0,1" >
         <Parameters>
          <InterpolatingParam id="349" interp="linr"  time="0/1" value="1" leadInLength="0/1"  name="volume"/>
          <Parameter id="350"  name="captions"/>
         </Parameters>
         <Attributes>
          <Attribute id="351" value="" name="ident"/>
          <Attribute id="352" value="44100" name="sampleRate"/>
          <Attribute id="353" value="0" name="bitDepth"/>
          <Attribute id="354" value="1" name="gain"/>
          <Attribute id="355" value="0" name="mixToMono"/>
         </Attributes>
         <MetaData>
          <entry key="WinSubProjectDisplayName" val=""/>
         </MetaData>
        </AMFile>
        <AMFile id="356" start="9508" duration="158" scalar="1/1" mediaStart="1556/1" mediaDuration="158/1" trackNumber="0" src="5" channelNumber="0,1" >
         <Parameters>
          <InterpolatingParam id="357" interp="linr"  time="0/1" value="1" leadInLength="0/1"  name="volume"/>
          <Parameter id="358"  name="captions"/>
         </Parameters>
         <Attributes>
          <Attribute id="359" value="" name="ident"/>
          <Attribute id="360" value="44100" name="sampleRate"/>
          <Attribute id="361" value="0" name="bitDepth"/>
          <Attribute id="362" value="1" name="gain"/>
          <Attribute id="363" value="0" name="mixToMono"/>
         </Attributes>
         <MetaData>
          <entry key="WinSubProjectDisplayName" val=""/>
         </MetaData>
        </AMFile>
        <AMFile id="364" start="10153" duration="353" scalar="1/1" mediaStart="1714/1" mediaDuration="353/1" trackNumber="0" src="5" channelNumber="0,1" >
         <Parameters>
          <InterpolatingParam id="365" interp="linr"  time="0/1" value="1" leadInLength="0/1"  name="volume"/>
          <Parameter id="366"  name="captions"/>
         </Parameters>
         <Attributes>
          <Attribute id="367" value="" name="ident"/>
          <Attribute id="368" value="44100" name="sampleRate"/>
          <Attribute id="369" value="0" name="bitDepth"/>
          <Attribute id="370" value="1" name="gain"/>
          <Attribute id="371" value="0" name="mixToMono"/>
         </Attributes>
         <MetaData>
          <entry key="WinSubProjectDisplayName" val=""/>
         </MetaData>
        </AMFile>
        <AMFile id="372" start="10506" duration="306" scalar="1/1" mediaStart="0/1" mediaDuration="306/1" trackNumber="0" src="6" channelNumber="0,1" >
         <Parameters>
          <InterpolatingParam id="373" interp="linr"  time="0/1" value="1" leadInLength="0/1"  name="volume"/>
          <Parameter id="374"  name="captions"/>
         </Parameters>
         <Attributes>
          <Attribute id="375" value="" name="ident"/>
          <Attribute id="376" value="44100" name="sampleRate"/>
          <Attribute id="377" value="0" name="bitDepth"/>
          <Attribute id="378" value="1" name="gain"/>
          <Attribute id="379" value="0" name="mixToMono"/>
         </Attributes>
         <MetaData>
          <entry key="WinSubProjectDisplayName" val=""/>
         </MetaData>
        </AMFile>
       </Medias>
      </GenericTrack>
      <GenericTrack id="380"  >
       <Attributes>
        <Attribute id="381" value="Video" name="ident"/>
        <Attribute id="382" value="0" name="audioMuted"/>
        <Attribute id="383" value="0" name="videoHidden"/>
       </Attributes>
       <MetaData>
        <entry key="IsLocked" val="False"/>
        <entry key="WinTrackHeight" val="62"/>
       </MetaData>
       <Medias>
        <IMFile id="384" start="0" duration="479" scalar="1/1" mediaStart="0/1" mediaDuration="1/1" trackNumber="0" src="9" trimStartSum="0/1" >
         <Transformer>
          <VectorParam id="385"  name="translation">
           <InterpolatingParam id="386" interp="linr"  time="-9999999/1" value="0" leadInLength="0/1"  interpolater="leadin-linr"  />
           <InterpolatingParam id="387" interp="linr"  time="-9999999/1" value="0" leadInLength="0/1"  interpolater="leadin-linr"  />
           <InterpolatingParam id="388" interp="linr"  time="-9999999/1" value="0" leadInLength="0/1"  interpolater="leadin-linr"  />
          </VectorParam>
          <VectorParam id="389"  name="rotation">
           <InterpolatingParam id="390" interp="linr"  time="-9999999/1" value="0" leadInLength="0/1"  interpolater="leadin-linr"  />
           <InterpolatingParam id="391" interp="linr"  time="-9999999/1" value="0" leadInLength="0/1"  interpolater="leadin-linr"  />
           <InterpolatingParam id="392" interp="linr"  time="-9999999/1" value="0" leadInLength="0/1"  interpolater="leadin-linr"  />
          </VectorParam>
          <VectorParam id="393"  name="shear">
           <InterpolatingParam id="394" interp="linr"  time="-9999999/1" value="0" leadInLength="0/1"  interpolater="leadin-linr"  />
           <InterpolatingParam id="395" interp="linr"  time="-9999999/1" value="0" leadInLength="0/1"  interpolater="leadin-linr"  />
           <InterpolatingParam id="396" interp="linr"  time="-9999999/1" value="0" leadInLength="0/1"  interpolater="leadin-linr"  />
          </VectorParam>
          <VectorParam id="397"  name="scale">
           <InterpolatingParam id="398" interp="linr"  time="-9999999/1" value="1" leadInLength="0/1"  interpolater="leadin-linr"  />
           <InterpolatingParam id="399" interp="linr"  time="-9999999/1" value="1" leadInLength="0/1"  interpolater="leadin-linr"  />
           <InterpolatingParam id="400" interp="linr"  time="-9999999/1" value="1" leadInLength="0/1"  interpolater="leadin-linr"  />
          </VectorParam>
          <VectorParam id="401"  name="anchor">
           <InterpolatingParam id="402" interp="linr"  time="0/1" value="0" leadInLength="0/1"  />
           <InterpolatingParam id="403" interp="linr"  time="0/1" value="0" leadInLength="0/1"  />
           <InterpolatingParam id="404" interp="linr"  time="0/1" value="0" leadInLength="0/1"  />
          </VectorParam>
         </Transformer>
         <Parameters>
          <VectorParam id="405"  name="sourceCrop">
           <InterpolatingParam id="406" interp="linr"  time="0/1" value="0" leadInLength="0/1"  />
           <InterpolatingParam id="407" interp="linr"  time="0/1" value="0" leadInLength="0/1"  />
           <InterpolatingParam id="408" interp="linr"  time="0/1" value="0" leadInLength="0/1"  />
           <InterpolatingParam id="409" interp="linr"  time="0/1" value="0" leadInLength="0/1"  />
          </VectorParam>
          <VectorParam id="410"  name="geometryCrop">
           <InterpolatingParam id="411" interp="linr"  time="-9999999/1" value="0" leadInLength="0/1"  interpolater="leadin-linr"  />
           <InterpolatingParam id="412" interp="linr"  time="-9999999/1" value="0" leadInLength="0/1"  interpolater="leadin-linr"  />
           <InterpolatingParam id="413" interp="linr"  time="-9999999/1" value="0" leadInLength="0/1"  interpolater="leadin-linr"  />
           <InterpolatingParam id="414" interp="linr"  time="-9999999/1" value="0" leadInLength="0/1"  interpolater="leadin-linr"  />
          </VectorParam>
          <InterpolatingParam id="415" interp="linr"  time="-9999999/1" value="1" leadInLength="0/1"  interpolater="leadin-linr"  name="opacity"/>
         </Parameters>
         <Attributes>
          <Attribute id="416" value="" name="ident"/>
         </Attributes>
         <MetaData>
          <entry key="WinSubProjectDisplayName" val=""/>
         </MetaData>
         <ExtraData>
          <Entry key="ZoomPanBin">
           <ZoomPanBin id="417"  >
            <ZoomPanKeyframes>
             <ZoomPanKeyframe id="418" timeRangeEnd="-9999999/1" timeRangeDuration="0/1" interpolaterName="leadin-linr"  />
            </ZoomPanKeyframes>
           </ZoomPanBin>
          </Entry>
         </ExtraData>
        </IMFile>
        <UnifiedMedia id="419"  >
         <AudioTransition id="420" start="479" duration="30" >
          <Parameters>
           <InterpolatingParam id="421" interp="linr"  time="0/1" value="1" leadInLength="0/1"  name="volume"/>
           <Parameter id="422"  name="captions"/>
          </Parameters>
          <Effects>
           <GenericEffect id="423" name = "AudioTransition" >
            <Parameters>
            <Parameter id="424"   name="audioEdgeModType">
             <Keyframes>
             <Keyframe id="425"  time="0/1" value="0" leadInLength="0/1"  />
             </Keyframes>
            </Parameter>
            <Parameter id="426"   name="audioTransitionType">
             <Keyframes>
             <Keyframe id="427"  time="0/1" value="" leadInLength="0/1"  />
             </Keyframes>
            </Parameter>
            </Parameters>
            <MetaData>
            </MetaData>
           </GenericEffect>
          </Effects>
          <Attributes>
           <Attribute id="428" value="" name="ident"/>
           <Attribute id="429" value="0" name="sampleRate"/>
           <Attribute id="430" value="0" name="bitDepth"/>
           <Attribute id="431" value="1" name="gain"/>
           <Attribute id="432" value="0" name="mixToMono"/>
          </Attributes>
         </AudioTransition>
         <ImageTransition id="433" start="479" duration="30" >
          <Transformer>
           <VectorParam id="434"  name="translation">
            <InterpolatingParam id="435" interp="linr"  time="0/1" value="0" leadInLength="0/1"  />
            <InterpolatingParam id="436" interp="linr"  time="0/1" value="0" leadInLength="0/1"  />
            <InterpolatingParam id="437" interp="linr"  time="0/1" value="0" leadInLength="0/1"  />
           </VectorParam>
           <VectorParam id="438"  name="rotation">
            <InterpolatingParam id="439" interp="linr"  time="0/1" value="0" leadInLength="0/1"  />
            <InterpolatingParam id="440" interp="linr"  time="0/1" value="0" leadInLength="0/1"  />
            <InterpolatingParam id="441" interp="linr"  time="0/1" value="0" leadInLength="0/1"  />
           </VectorParam>
           <VectorParam id="442"  name="shear">
            <InterpolatingParam id="443" interp="linr"  time="0/1" value="0" leadInLength="0/1"  />
            <InterpolatingParam id="444" interp="linr"  time="0/1" value="0" leadInLength="0/1"  />
            <InterpolatingParam id="445" interp="linr"  time="0/1" value="0" leadInLength="0/1"  />
           </VectorParam>
           <VectorParam id="446"  name="scale">
            <InterpolatingParam id="447" interp="linr"  time="0/1" value="1" leadInLength="0/1"  />
            <InterpolatingParam id="448" interp="linr"  time="0/1" value="1" leadInLength="0/1"  />
            <InterpolatingParam id="449" interp="linr"  time="0/1" value="1" leadInLength="0/1"  />
           </VectorParam>
           <VectorParam id="450"  name="anchor">
            <InterpolatingParam id="451" interp="linr"  time="0/1" value="0" leadInLength="0/1"  />
            <InterpolatingParam id="452" interp="linr"  time="0/1" value="0" leadInLength="0/1"  />
            <InterpolatingParam id="453" interp="linr"  time="0/1" value="0" leadInLength="0/1"  />
           </VectorParam>
          </Transformer>
          <Parameters>
           <VectorParam id="454"  name="sourceCrop">
            <InterpolatingParam id="455" interp="linr"  time="0/1" value="0" leadInLength="0/1"  />
            <InterpolatingParam id="456" interp="linr"  time="0/1" value="0" leadInLength="0/1"  />
            <InterpolatingParam id="457" interp="linr"  time="0/1" value="0" leadInLength="0/1"  />
            <InterpolatingParam id="458" interp="linr"  time="0/1" value="0" leadInLength="0/1"  />
           </VectorParam>
           <VectorParam id="459"  name="geometryCrop">
            <InterpolatingParam id="460" interp="linr"  time="0/1" value="0" leadInLength="0/1"  />
            <InterpolatingParam id="461" interp="linr"  time="0/1" value="0" leadInLength="0/1"  />
            <InterpolatingParam id="462" interp="linr"  time="0/1" value="0" leadInLength="0/1"  />
            <InterpolatingParam id="463" interp="linr"  time="0/1" value="0" leadInLength="0/1"  />
           </VectorParam>
           <InterpolatingParam id="464" interp="linr"  time="0/1" value="1" leadInLength="0/1"  name="opacity"/>
          </Parameters>
          <Effects>
           <GenericEffect id="465" name = "VisualTransition" >
            <Parameters>
            <InterpolatingParam id="466" interp="linr"  time="0/1" value="1" leadInLength="0/1"   name="leftFramePercentage"/>
            <InterpolatingParam id="467" interp="linr"  time="0/1" value="1" leadInLength="0/1"   name="rightFramePercentage"/>
            <Parameter id="468"   name="visualEdgeModType">
             <Keyframes>
             <Keyframe id="469"  time="0/1" value="0" leadInLength="0/1"  />
             </Keyframes>
            </Parameter>
            <Parameter id="470"   name="visualTransitionType">
             <Keyframes>
             <Keyframe id="471"  time="0/1" value="CubeRotate" leadInLength="0/1"  />
             </Keyframes>
            </Parameter>
            </Parameters>
            <MetaData>
            </MetaData>
           </GenericEffect>
          </Effects>
          <Attributes>
           <Attribute id="472" value="" name="ident"/>
          </Attributes>
          <ExtraData>
           <Entry key="ZoomPanBin">
            <ZoomPanBin id="473"  >
             <ZoomPanKeyframes>
             </ZoomPanKeyframes>
            </ZoomPanBin>
           </Entry>
          </ExtraData>
         </ImageTransition>
         <MetaData>
          <entry key="WinSubProjectDisplayName" val=""/>
         </MetaData>
        </UnifiedMedia>
        <IMFile id="474" start="509" duration="240" scalar="1/1" mediaStart="0/1" mediaDuration="1/1" trackNumber="0" src="10" trimStartSum="15/1" >
         <Transformer>
          <VectorParam id="475"  name="translation">
           <InterpolatingParam id="476" interp="linr"  time="-9999999/1" value="0" leadInLength="0/1"  />
           <InterpolatingParam id="477" interp="linr"  time="-9999999/1" value="0" leadInLength="0/1"  />
           <InterpolatingParam id="478" interp="linr"  time="-9999999/1" value="0" leadInLength="0/1"  />
          </VectorParam>
          <VectorParam id="479"  name="rotation">
           <InterpolatingParam id="480" interp="linr"  time="-9999999/1" value="0" leadInLength="0/1"  />
           <InterpolatingParam id="481" interp="linr"  time="-9999999/1" value="0" leadInLength="0/1"  />
           <InterpolatingParam id="482" interp="linr"  time="-9999999/1" value="0" leadInLength="0/1"  />
          </VectorParam>
          <VectorParam id="483"  name="shear">
           <InterpolatingParam id="484" interp="linr"  time="-9999999/1" value="0" leadInLength="0/1"  />
           <InterpolatingParam id="485" interp="linr"  time="-9999999/1" value="0" leadInLength="0/1"  />
           <InterpolatingParam id="486" interp="linr"  time="-9999999/1" value="0" leadInLength="0/1"  />
          </VectorParam>
          <VectorParam id="487"  name="scale">
           <InterpolatingParam id="488" interp="linr"  time="-9999999/1" value="1" leadInLength="0/1"  />
           <InterpolatingParam id="489" interp="linr"  time="-9999999/1" value="1" leadInLength="0/1"  />
           <InterpolatingParam id="490" interp="linr"  time="-9999999/1" value="1" leadInLength="0/1"  />
          </VectorParam>
          <VectorParam id="491"  name="anchor">
           <InterpolatingParam id="492" interp="linr"  time="0/1" value="0" leadInLength="0/1"  />
           <InterpolatingParam id="493" interp="linr"  time="0/1" value="0" leadInLength="0/1"  />
           <InterpolatingParam id="494" interp="linr"  time="0/1" value="0" leadInLength="0/1"  />
          </VectorParam>
         </Transformer>
         <Parameters>
          <VectorParam id="495"  name="sourceCrop">
           <InterpolatingParam id="496" interp="linr"  time="0/1" value="0" leadInLength="0/1"  />
           <InterpolatingParam id="497" interp="linr"  time="0/1" value="0" leadInLength="0/1"  />
           <InterpolatingParam id="498" interp="linr"  time="0/1" value="0" leadInLength="0/1"  />
           <InterpolatingParam id="499" interp="linr"  time="0/1" value="0" leadInLength="0/1"  />
          </VectorParam>
          <VectorParam id="500"  name="geometryCrop">
           <InterpolatingParam id="501" interp="linr"  time="-9999999/1" value="0" leadInLength="0/1"  />
           <InterpolatingParam id="502" interp="linr"  time="-9999999/1" value="0" leadInLength="0/1"  />
           <InterpolatingParam id="503" interp="linr"  time="-9999999/1" value="0" leadInLength="0/1"  />
           <InterpolatingParam id="504" interp="linr"  time="-9999999/1" value="0" leadInLength="0/1"  />
          </VectorParam>
          <InterpolatingParam id="505" interp="linr"  time="-9999999/1" value="1" leadInLength="0/1"  name="opacity"/>
         </Parameters>
         <Attributes>
          <Attribute id="506" value="" name="ident"/>
         </Attributes>
         <MetaData>
          <entry key="WinSubProjectDisplayName" val=""/>
         </MetaData>
         <ExtraData>
          <Entry key="ZoomPanBin">
           <ZoomPanBin id="507"  >
            <ZoomPanKeyframes>
             <ZoomPanKeyframe id="508" timeRangeEnd="-9999999/1" timeRangeDuration="0/1" interpolaterName="linr"  />
            </ZoomPanKeyframes>
           </ZoomPanBin>
          </Entry>
         </ExtraData>
        </IMFile>
        <UnifiedMedia id="509"  >
         <AudioTransition id="510" start="749" duration="30" >
          <Parameters>
           <InterpolatingParam id="511" interp="linr"  time="0/1" value="1" leadInLength="0/1"  name="volume"/>
           <Parameter id="512"  name="captions"/>
          </Parameters>
          <Effects>
           <GenericEffect id="513" name = "AudioTransition" >
            <Parameters>
            <Parameter id="514"   name="audioEdgeModType">
             <Keyframes>
             <Keyframe id="515"  time="0/1" value="0" leadInLength="0/1"  />
             </Keyframes>
            </Parameter>
            <Parameter id="516"   name="audioTransitionType">
             <Keyframes>
             <Keyframe id="517"  time="0/1" value="" leadInLength="0/1"  />
             </Keyframes>
            </Parameter>
            </Parameters>
            <MetaData>
            </MetaData>
           </GenericEffect>
          </Effects>
          <Attributes>
           <Attribute id="518" value="" name="ident"/>
           <Attribute id="519" value="0" name="sampleRate"/>
           <Attribute id="520" value="0" name="bitDepth"/>
           <Attribute id="521" value="1" name="gain"/>
           <Attribute id="522" value="0" name="mixToMono"/>
          </Attributes>
         </AudioTransition>
         <ImageTransition id="523" start="749" duration="30" >
          <Transformer>
           <VectorParam id="524"  name="translation">
            <InterpolatingParam id="525" interp="linr"  time="0/1" value="0" leadInLength="0/1"  />
            <InterpolatingParam id="526" interp="linr"  time="0/1" value="0" leadInLength="0/1"  />
            <InterpolatingParam id="527" interp="linr"  time="0/1" value="0" leadInLength="0/1"  />
           </VectorParam>
           <VectorParam id="528"  name="rotation">
            <InterpolatingParam id="529" interp="linr"  time="0/1" value="0" leadInLength="0/1"  />
            <InterpolatingParam id="530" interp="linr"  time="0/1" value="0" leadInLength="0/1"  />
            <InterpolatingParam id="531" interp="linr"  time="0/1" value="0" leadInLength="0/1"  />
           </VectorParam>
           <VectorParam id="532"  name="shear">
            <InterpolatingParam id="533" interp="linr"  time="0/1" value="0" leadInLength="0/1"  />
            <InterpolatingParam id="534" interp="linr"  time="0/1" value="0" leadInLength="0/1"  />
            <InterpolatingParam id="535" interp="linr"  time="0/1" value="0" leadInLength="0/1"  />
           </VectorParam>
           <VectorParam id="536"  name="scale">
            <InterpolatingParam id="537" interp="linr"  time="0/1" value="1" leadInLength="0/1"  />
            <InterpolatingParam id="538" interp="linr"  time="0/1" value="1" leadInLength="0/1"  />
            <InterpolatingParam id="539" interp="linr"  time="0/1" value="1" leadInLength="0/1"  />
           </VectorParam>
           <VectorParam id="540"  name="anchor">
            <InterpolatingParam id="541" interp="linr"  time="0/1" value="0" leadInLength="0/1"  />
            <InterpolatingParam id="542" interp="linr"  time="0/1" value="0" leadInLength="0/1"  />
            <InterpolatingParam id="543" interp="linr"  time="0/1" value="0" leadInLength="0/1"  />
           </VectorParam>
          </Transformer>
          <Parameters>
           <VectorParam id="544"  name="sourceCrop">
            <InterpolatingParam id="545" interp="linr"  time="0/1" value="0" leadInLength="0/1"  />
            <InterpolatingParam id="546" interp="linr"  time="0/1" value="0" leadInLength="0/1"  />
            <InterpolatingParam id="547" interp="linr"  time="0/1" value="0" leadInLength="0/1"  />
            <InterpolatingParam id="548" interp="linr"  time="0/1" value="0" leadInLength="0/1"  />
           </VectorParam>
           <VectorParam id="549"  name="geometryCrop">
            <InterpolatingParam id="550" interp="linr"  time="0/1" value="0" leadInLength="0/1"  />
            <InterpolatingParam id="551" interp="linr"  time="0/1" value="0" leadInLength="0/1"  />
            <InterpolatingParam id="552" interp="linr"  time="0/1" value="0" leadInLength="0/1"  />
            <InterpolatingParam id="553" interp="linr"  time="0/1" value="0" leadInLength="0/1"  />
           </VectorParam>
           <InterpolatingParam id="554" interp="linr"  time="0/1" value="1" leadInLength="0/1"  name="opacity"/>
          </Parameters>
          <Effects>
           <GenericEffect id="555" name = "VisualTransition" >
            <Parameters>
            <InterpolatingParam id="556" interp="linr"  time="0/1" value="1" leadInLength="0/1"   name="leftFramePercentage"/>
            <InterpolatingParam id="557" interp="linr"  time="0/1" value="1" leadInLength="0/1"   name="rightFramePercentage"/>
            <Parameter id="558"   name="visualEdgeModType">
             <Keyframes>
             <Keyframe id="559"  time="0/1" value="0" leadInLength="0/1"  />
             </Keyframes>
            </Parameter>
            <Parameter id="560"   name="visualTransitionType">
             <Keyframes>
             <Keyframe id="561"  time="0/1" value="CubeRotate" leadInLength="0/1"  />
             </Keyframes>
            </Parameter>
            </Parameters>
            <MetaData>
            </MetaData>
           </GenericEffect>
          </Effects>
          <Attributes>
           <Attribute id="562" value="" name="ident"/>
          </Attributes>
          <ExtraData>
           <Entry key="ZoomPanBin">
            <ZoomPanBin id="563"  >
             <ZoomPanKeyframes>
             </ZoomPanKeyframes>
            </ZoomPanBin>
           </Entry>
          </ExtraData>
         </ImageTransition>
         <MetaData>
          <entry key="WinSubProjectDisplayName" val=""/>
         </MetaData>
        </UnifiedMedia>
        <IMFile id="564" start="779" duration="638" scalar="1/1" mediaStart="0/1" mediaDuration="1/1" trackNumber="0" src="11" trimStartSum="-256/1" >
         <Transformer>
          <VectorParam id="565"  name="translation">
           <InterpolatingParam id="566" interp="linr"  time="-9999999/1" value="0" leadInLength="0/1"  />
           <InterpolatingParam id="567" interp="linr"  time="-9999999/1" value="0" leadInLength="0/1"  />
           <InterpolatingParam id="568" interp="linr"  time="-9999999/1" value="0" leadInLength="0/1"  />
          </VectorParam>
          <VectorParam id="569"  name="rotation">
           <InterpolatingParam id="570" interp="linr"  time="-9999999/1" value="0" leadInLength="0/1"  />
           <InterpolatingParam id="571" interp="linr"  time="-9999999/1" value="0" leadInLength="0/1"  />
           <InterpolatingParam id="572" interp="linr"  time="-9999999/1" value="0" leadInLength="0/1"  />
          </VectorParam>
          <VectorParam id="573"  name="shear">
           <InterpolatingParam id="574" interp="linr"  time="-9999999/1" value="0" leadInLength="0/1"  />
           <InterpolatingParam id="575" interp="linr"  time="-9999999/1" value="0" leadInLength="0/1"  />
           <InterpolatingParam id="576" interp="linr"  time="-9999999/1" value="0" leadInLength="0/1"  />
          </VectorParam>
          <VectorParam id="577"  name="scale">
           <InterpolatingParam id="578" interp="linr"  time="-9999999/1" value="1" leadInLength="0/1"  />
           <InterpolatingParam id="579" interp="linr"  time="-9999999/1" value="1" leadInLength="0/1"  />
           <InterpolatingParam id="580" interp="linr"  time="-9999999/1" value="1" leadInLength="0/1"  />
          </VectorParam>
          <VectorParam id="581"  name="anchor">
           <InterpolatingParam id="582" interp="linr"  time="0/1" value="0" leadInLength="0/1"  />
           <InterpolatingParam id="583" interp="linr"  time="0/1" value="0" leadInLength="0/1"  />
           <InterpolatingParam id="584" interp="linr"  time="0/1" value="0" leadInLength="0/1"  />
          </VectorParam>
         </Transformer>
         <Parameters>
          <VectorParam id="585"  name="sourceCrop">
           <InterpolatingParam id="586" interp="linr"  time="0/1" value="0" leadInLength="0/1"  />
           <InterpolatingParam id="587" interp="linr"  time="0/1" value="0" leadInLength="0/1"  />
           <InterpolatingParam id="588" interp="linr"  time="0/1" value="0" leadInLength="0/1"  />
           <InterpolatingParam id="589" interp="linr"  time="0/1" value="0" leadInLength="0/1"  />
          </VectorParam>
          <VectorParam id="590"  name="geometryCrop">
           <InterpolatingParam id="591" interp="linr"  time="-9999999/1" value="0" leadInLength="0/1"  />
           <InterpolatingParam id="592" interp="linr"  time="-9999999/1" value="0" leadInLength="0/1"  />
           <InterpolatingParam id="593" interp="linr"  time="-9999999/1" value="0" leadInLength="0/1"  />
           <InterpolatingParam id="594" interp="linr"  time="-9999999/1" value="0" leadInLength="0/1"  />
          </VectorParam>
          <InterpolatingParam id="595" interp="linr"  time="-9999999/1" value="1" leadInLength="0/1"  name="opacity"/>
         </Parameters>
         <Attributes>
          <Attribute id="596" value="" name="ident"/>
         </Attributes>
         <MetaData>
          <entry key="WinSubProjectDisplayName" val=""/>
         </MetaData>
         <ExtraData>
          <Entry key="ZoomPanBin">
           <ZoomPanBin id="597"  >
            <ZoomPanKeyframes>
             <ZoomPanKeyframe id="598" timeRangeEnd="-9999999/1" timeRangeDuration="0/1" interpolaterName="linr"  />
            </ZoomPanKeyframes>
           </ZoomPanBin>
          </Entry>
         </ExtraData>
        </IMFile>
        <UnifiedMedia id="599"  >
         <AudioTransition id="600" start="1417" duration="30" >
          <Parameters>
           <InterpolatingParam id="601" interp="linr"  time="0/1" value="1" leadInLength="0/1"  name="volume"/>
           <Parameter id="602"  name="captions"/>
          </Parameters>
          <Effects>
           <GenericEffect id="603" name = "AudioTransition" >
            <Parameters>
            <Parameter id="604"   name="audioEdgeModType">
             <Keyframes>
             <Keyframe id="605"  time="0/1" value="0" leadInLength="0/1"  />
             </Keyframes>
            </Parameter>
            <Parameter id="606"   name="audioTransitionType">
             <Keyframes>
             <Keyframe id="607"  time="0/1" value="" leadInLength="0/1"  />
             </Keyframes>
            </Parameter>
            </Parameters>
            <MetaData>
            </MetaData>
           </GenericEffect>
          </Effects>
          <Attributes>
           <Attribute id="608" value="" name="ident"/>
           <Attribute id="609" value="0" name="sampleRate"/>
           <Attribute id="610" value="0" name="bitDepth"/>
           <Attribute id="611" value="1" name="gain"/>
           <Attribute id="612" value="0" name="mixToMono"/>
          </Attributes>
         </AudioTransition>
         <ImageTransition id="613" start="1417" duration="30" >
          <Transformer>
           <VectorParam id="614"  name="translation">
            <InterpolatingParam id="615" interp="linr"  time="0/1" value="0" leadInLength="0/1"  />
            <InterpolatingParam id="616" interp="linr"  time="0/1" value="0" leadInLength="0/1"  />
            <InterpolatingParam id="617" interp="linr"  time="0/1" value="0" leadInLength="0/1"  />
           </VectorParam>
           <VectorParam id="618"  name="rotation">
            <InterpolatingParam id="619" interp="linr"  time="0/1" value="0" leadInLength="0/1"  />
            <InterpolatingParam id="620" interp="linr"  time="0/1" value="0" leadInLength="0/1"  />
            <InterpolatingParam id="621" interp="linr"  time="0/1" value="0" leadInLength="0/1"  />
           </VectorParam>
           <VectorParam id="622"  name="shear">
            <InterpolatingParam id="623" interp="linr"  time="0/1" value="0" leadInLength="0/1"  />
            <InterpolatingParam id="624" interp="linr"  time="0/1" value="0" leadInLength="0/1"  />
            <InterpolatingParam id="625" interp="linr"  time="0/1" value="0" leadInLength="0/1"  />
           </VectorParam>
           <VectorParam id="626"  name="scale">
            <InterpolatingParam id="627" interp="linr"  time="0/1" value="1" leadInLength="0/1"  />
            <InterpolatingParam id="628" interp="linr"  time="0/1" value="1" leadInLength="0/1"  />
            <InterpolatingParam id="629" interp="linr"  time="0/1" value="1" leadInLength="0/1"  />
           </VectorParam>
           <VectorParam id="630"  name="anchor">
            <InterpolatingParam id="631" interp="linr"  time="0/1" value="0" leadInLength="0/1"  />
            <InterpolatingParam id="632" interp="linr"  time="0/1" value="0" leadInLength="0/1"  />
            <InterpolatingParam id="633" interp="linr"  time="0/1" value="0" leadInLength="0/1"  />
           </VectorParam>
          </Transformer>
          <Parameters>
           <VectorParam id="634"  name="sourceCrop">
            <InterpolatingParam id="635" interp="linr"  time="0/1" value="0" leadInLength="0/1"  />
            <InterpolatingParam id="636" interp="linr"  time="0/1" value="0" leadInLength="0/1"  />
            <InterpolatingParam id="637" interp="linr"  time="0/1" value="0" leadInLength="0/1"  />
            <InterpolatingParam id="638" interp="linr"  time="0/1" value="0" leadInLength="0/1"  />
           </VectorParam>
           <VectorParam id="639"  name="geometryCrop">
            <InterpolatingParam id="640" interp="linr"  time="0/1" value="0" leadInLength="0/1"  />
            <InterpolatingParam id="641" interp="linr"  time="0/1" value="0" leadInLength="0/1"  />
            <InterpolatingParam id="642" interp="linr"  time="0/1" value="0" leadInLength="0/1"  />
            <InterpolatingParam id="643" interp="linr"  time="0/1" value="0" leadInLength="0/1"  />
           </VectorParam>
           <InterpolatingParam id="644" interp="linr"  time="0/1" value="1" leadInLength="0/1"  name="opacity"/>
          </Parameters>
          <Effects>
           <GenericEffect id="645" name = "VisualTransition" >
            <Parameters>
            <InterpolatingParam id="646" interp="linr"  time="0/1" value="1" leadInLength="0/1"   name="leftFramePercentage"/>
            <InterpolatingParam id="647" interp="linr"  time="0/1" value="1" leadInLength="0/1"   name="rightFramePercentage"/>
            <Parameter id="648"   name="visualEdgeModType">
             <Keyframes>
             <Keyframe id="649"  time="0/1" value="0" leadInLength="0/1"  />
             </Keyframes>
            </Parameter>
            <Parameter id="650"   name="visualTransitionType">
             <Keyframes>
             <Keyframe id="651"  time="0/1" value="CubeRotate" leadInLength="0/1"  />
             </Keyframes>
            </Parameter>
            </Parameters>
            <MetaData>
            </MetaData>
           </GenericEffect>
          </Effects>
          <Attributes>
           <Attribute id="652" value="" name="ident"/>
          </Attributes>
          <ExtraData>
           <Entry key="ZoomPanBin">
            <ZoomPanBin id="653"  >
             <ZoomPanKeyframes>
             </ZoomPanKeyframes>
            </ZoomPanBin>
           </Entry>
          </ExtraData>
         </ImageTransition>
         <MetaData>
          <entry key="WinSubProjectDisplayName" val=""/>
         </MetaData>
        </UnifiedMedia>
        <IMFile id="654" start="1447" duration="495" scalar="1/1" mediaStart="0/1" mediaDuration="1/1" trackNumber="0" src="12" trimStartSum="15/1" >
         <Transformer>
          <VectorParam id="655"  name="translation">
           <InterpolatingParam id="656" interp="linr"  time="-9999999/1" value="0" leadInLength="0/1"  />
           <InterpolatingParam id="657" interp="linr"  time="-9999999/1" value="0" leadInLength="0/1"  />
           <InterpolatingParam id="658" interp="linr"  time="-9999999/1" value="0" leadInLength="0/1"  />
          </VectorParam>
          <VectorParam id="659"  name="rotation">
           <InterpolatingParam id="660" interp="linr"  time="-9999999/1" value="0" leadInLength="0/1"  />
           <InterpolatingParam id="661" interp="linr"  time="-9999999/1" value="0" leadInLength="0/1"  />
           <InterpolatingParam id="662" interp="linr"  time="-9999999/1" value="0" leadInLength="0/1"  />
          </VectorParam>
          <VectorParam id="663"  name="shear">
           <InterpolatingParam id="664" interp="linr"  time="-9999999/1" value="0" leadInLength="0/1"  />
           <InterpolatingParam id="665" interp="linr"  time="-9999999/1" value="0" leadInLength="0/1"  />
           <InterpolatingParam id="666" interp="linr"  time="-9999999/1" value="0" leadInLength="0/1"  />
          </VectorParam>
          <VectorParam id="667"  name="scale">
           <InterpolatingParam id="668" interp="linr"  time="-9999999/1" value="1" leadInLength="0/1"  />
           <InterpolatingParam id="669" interp="linr"  time="-9999999/1" value="1" leadInLength="0/1"  />
           <InterpolatingParam id="670" interp="linr"  time="-9999999/1" value="1" leadInLength="0/1"  />
          </VectorParam>
          <VectorParam id="671"  name="anchor">
           <InterpolatingParam id="672" interp="linr"  time="0/1" value="0" leadInLength="0/1"  />
           <InterpolatingParam id="673" interp="linr"  time="0/1" value="0" leadInLength="0/1"  />
           <InterpolatingParam id="674" interp="linr"  time="0/1" value="0" leadInLength="0/1"  />
          </VectorParam>
         </Transformer>
         <Parameters>
          <VectorParam id="675"  name="sourceCrop">
           <InterpolatingParam id="676" interp="linr"  time="0/1" value="0" leadInLength="0/1"  />
           <InterpolatingParam id="677" interp="linr"  time="0/1" value="0" leadInLength="0/1"  />
           <InterpolatingParam id="678" interp="linr"  time="0/1" value="0" leadInLength="0/1"  />
           <InterpolatingParam id="679" interp="linr"  time="0/1" value="0" leadInLength="0/1"  />
          </VectorParam>
          <VectorParam id="680"  name="geometryCrop">
           <InterpolatingParam id="681" interp="linr"  time="-9999999/1" value="0" leadInLength="0/1"  />
           <InterpolatingParam id="682" interp="linr"  time="-9999999/1" value="0" leadInLength="0/1"  />
           <InterpolatingParam id="683" interp="linr"  time="-9999999/1" value="0" leadInLength="0/1"  />
           <InterpolatingParam id="684" interp="linr"  time="-9999999/1" value="0" leadInLength="0/1"  />
          </VectorParam>
          <InterpolatingParam id="685" interp="linr"  time="-9999999/1" value="1" leadInLength="0/1"  name="opacity"/>
         </Parameters>
         <Attributes>
          <Attribute id="686" value="" name="ident"/>
         </Attributes>
         <MetaData>
          <entry key="WinSubProjectDisplayName" val=""/>
         </MetaData>
         <ExtraData>
          <Entry key="ZoomPanBin">
           <ZoomPanBin id="687"  >
            <ZoomPanKeyframes>
             <ZoomPanKeyframe id="688" timeRangeEnd="-9999999/1" timeRangeDuration="0/1" interpolaterName="linr"  />
            </ZoomPanKeyframes>
           </ZoomPanBin>
          </Entry>
         </ExtraData>
        </IMFile>
        <UnifiedMedia id="689"  >
         <AudioTransition id="690" start="1942" duration="30" >
          <Parameters>
           <InterpolatingParam id="691" interp="linr"  time="0/1" value="1" leadInLength="0/1"  name="volume"/>
           <Parameter id="692"  name="captions"/>
          </Parameters>
          <Effects>
           <GenericEffect id="693" name = "AudioTransition" >
            <Parameters>
            <Parameter id="694"   name="audioEdgeModType">
             <Keyframes>
             <Keyframe id="695"  time="0/1" value="0" leadInLength="0/1"  />
             </Keyframes>
            </Parameter>
            <Parameter id="696"   name="audioTransitionType">
             <Keyframes>
             <Keyframe id="697"  time="0/1" value="" leadInLength="0/1"  />
             </Keyframes>
            </Parameter>
            </Parameters>
            <MetaData>
            </MetaData>
           </GenericEffect>
          </Effects>
          <Attributes>
           <Attribute id="698" value="" name="ident"/>
           <Attribute id="699" value="0" name="sampleRate"/>
           <Attribute id="700" value="0" name="bitDepth"/>
           <Attribute id="701" value="1" name="gain"/>
           <Attribute id="702" value="0" name="mixToMono"/>
          </Attributes>
         </AudioTransition>
         <ImageTransition id="703" start="1942" duration="30" >
          <Transformer>
           <VectorParam id="704"  name="translation">
            <InterpolatingParam id="705" interp="linr"  time="0/1" value="0" leadInLength="0/1"  />
            <InterpolatingParam id="706" interp="linr"  time="0/1" value="0" leadInLength="0/1"  />
            <InterpolatingParam id="707" interp="linr"  time="0/1" value="0" leadInLength="0/1"  />
           </VectorParam>
           <VectorParam id="708"  name="rotation">
            <InterpolatingParam id="709" interp="linr"  time="0/1" value="0" leadInLength="0/1"  />
            <InterpolatingParam id="710" interp="linr"  time="0/1" value="0" leadInLength="0/1"  />
            <InterpolatingParam id="711" interp="linr"  time="0/1" value="0" leadInLength="0/1"  />
           </VectorParam>
           <VectorParam id="712"  name="shear">
            <InterpolatingParam id="713" interp="linr"  time="0/1" value="0" leadInLength="0/1"  />
            <InterpolatingParam id="714" interp="linr"  time="0/1" value="0" leadInLength="0/1"  />
            <InterpolatingParam id="715" interp="linr"  time="0/1" value="0" leadInLength="0/1"  />
           </VectorParam>
           <VectorParam id="716"  name="scale">
            <InterpolatingParam id="717" interp="linr"  time="0/1" value="1" leadInLength="0/1"  />
            <InterpolatingParam id="718" interp="linr"  time="0/1" value="1" leadInLength="0/1"  />
            <InterpolatingParam id="719" interp="linr"  time="0/1" value="1" leadInLength="0/1"  />
           </VectorParam>
           <VectorParam id="720"  name="anchor">
            <InterpolatingParam id="721" interp="linr"  time="0/1" value="0" leadInLength="0/1"  />
            <InterpolatingParam id="722" interp="linr"  time="0/1" value="0" leadInLength="0/1"  />
            <InterpolatingParam id="723" interp="linr"  time="0/1" value="0" leadInLength="0/1"  />
           </VectorParam>
          </Transformer>
          <Parameters>
           <VectorParam id="724"  name="sourceCrop">
            <InterpolatingParam id="725" interp="linr"  time="0/1" value="0" leadInLength="0/1"  />
            <InterpolatingParam id="726" interp="linr"  time="0/1" value="0" leadInLength="0/1"  />
            <InterpolatingParam id="727" interp="linr"  time="0/1" value="0" leadInLength="0/1"  />
            <InterpolatingParam id="728" interp="linr"  time="0/1" value="0" leadInLength="0/1"  />
           </VectorParam>
           <VectorParam id="729"  name="geometryCrop">
            <InterpolatingParam id="730" interp="linr"  time="0/1" value="0" leadInLength="0/1"  />
            <InterpolatingParam id="731" interp="linr"  time="0/1" value="0" leadInLength="0/1"  />
            <InterpolatingParam id="732" interp="linr"  time="0/1" value="0" leadInLength="0/1"  />
            <InterpolatingParam id="733" interp="linr"  time="0/1" value="0" leadInLength="0/1"  />
           </VectorParam>
           <InterpolatingParam id="734" interp="linr"  time="0/1" value="1" leadInLength="0/1"  name="opacity"/>
          </Parameters>
          <Effects>
           <GenericEffect id="735" name = "VisualTransition" >
            <Parameters>
            <InterpolatingParam id="736" interp="linr"  time="0/1" value="1" leadInLength="0/1"   name="leftFramePercentage"/>
            <InterpolatingParam id="737" interp="linr"  time="0/1" value="1" leadInLength="0/1"   name="rightFramePercentage"/>
            <Parameter id="738"   name="visualEdgeModType">
             <Keyframes>
             <Keyframe id="739"  time="0/1" value="0" leadInLength="0/1"  />
             </Keyframes>
            </Parameter>
            <Parameter id="740"   name="visualTransitionType">
             <Keyframes>
             <Keyframe id="741"  time="0/1" value="CubeRotate" leadInLength="0/1"  />
             </Keyframes>
            </Parameter>
            </Parameters>
            <MetaData>
            </MetaData>
           </GenericEffect>
          </Effects>
          <Attributes>
           <Attribute id="742" value="" name="ident"/>
          </Attributes>
          <ExtraData>
           <Entry key="ZoomPanBin">
            <ZoomPanBin id="743"  >
             <ZoomPanKeyframes>
             </ZoomPanKeyframes>
            </ZoomPanBin>
           </Entry>
          </ExtraData>
         </ImageTransition>
         <MetaData>
          <entry key="WinSubProjectDisplayName" val=""/>
         </MetaData>
        </UnifiedMedia>
        <IMFile id="744" start="1972" duration="213" scalar="1/1" mediaStart="0/1" mediaDuration="1/1" trackNumber="0" src="13" trimStartSum="15/1" >
         <Transformer>
          <VectorParam id="745"  name="translation">
           <InterpolatingParam id="746" interp="linr"  time="-9999999/1" value="0" leadInLength="0/1"  />
           <InterpolatingParam id="747" interp="linr"  time="-9999999/1" value="0" leadInLength="0/1"  />
           <InterpolatingParam id="748" interp="linr"  time="-9999999/1" value="0" leadInLength="0/1"  />
          </VectorParam>
          <VectorParam id="749"  name="rotation">
           <InterpolatingParam id="750" interp="linr"  time="-9999999/1" value="0" leadInLength="0/1"  />
           <InterpolatingParam id="751" interp="linr"  time="-9999999/1" value="0" leadInLength="0/1"  />
           <InterpolatingParam id="752" interp="linr"  time="-9999999/1" value="0" leadInLength="0/1"  />
          </VectorParam>
          <VectorParam id="753"  name="shear">
           <InterpolatingParam id="754" interp="linr"  time="-9999999/1" value="0" leadInLength="0/1"  />
           <InterpolatingParam id="755" interp="linr"  time="-9999999/1" value="0" leadInLength="0/1"  />
           <InterpolatingParam id="756" interp="linr"  time="-9999999/1" value="0" leadInLength="0/1"  />
          </VectorParam>
          <VectorParam id="757"  name="scale">
           <InterpolatingParam id="758" interp="linr"  time="-9999999/1" value="1" leadInLength="0/1"  />
           <InterpolatingParam id="759" interp="linr"  time="-9999999/1" value="1" leadInLength="0/1"  />
           <InterpolatingParam id="760" interp="linr"  time="-9999999/1" value="1" leadInLength="0/1"  />
          </VectorParam>
          <VectorParam id="761"  name="anchor">
           <InterpolatingParam id="762" interp="linr"  time="0/1" value="0" leadInLength="0/1"  />
           <InterpolatingParam id="763" interp="linr"  time="0/1" value="0" leadInLength="0/1"  />
           <InterpolatingParam id="764" interp="linr"  time="0/1" value="0" leadInLength="0/1"  />
          </VectorParam>
         </Transformer>
         <Parameters>
          <VectorParam id="765"  name="sourceCrop">
           <InterpolatingParam id="766" interp="linr"  time="0/1" value="0" leadInLength="0/1"  />
           <InterpolatingParam id="767" interp="linr"  time="0/1" value="0" leadInLength="0/1"  />
           <InterpolatingParam id="768" interp="linr"  time="0/1" value="0" leadInLength="0/1"  />
           <InterpolatingParam id="769" interp="linr"  time="0/1" value="0" leadInLength="0/1"  />
          </VectorParam>
          <VectorParam id="770"  name="geometryCrop">
           <InterpolatingParam id="771" interp="linr"  time="-9999999/1" value="0" leadInLength="0/1"  />
           <InterpolatingParam id="772" interp="linr"  time="-9999999/1" value="0" leadInLength="0/1"  />
           <InterpolatingParam id="773" interp="linr"  time="-9999999/1" value="0" leadInLength="0/1"  />
           <InterpolatingParam id="774" interp="linr"  time="-9999999/1" value="0" leadInLength="0/1"  />
          </VectorParam>
          <InterpolatingParam id="775" interp="linr"  time="-9999999/1" value="1" leadInLength="0/1"  name="opacity"/>
         </Parameters>
         <Attributes>
          <Attribute id="776" value="" name="ident"/>
         </Attributes>
         <MetaData>
          <entry key="WinSubProjectDisplayName" val=""/>
         </MetaData>
         <ExtraData>
          <Entry key="ZoomPanBin">
           <ZoomPanBin id="777"  >
            <ZoomPanKeyframes>
             <ZoomPanKeyframe id="778" timeRangeEnd="-9999999/1" timeRangeDuration="0/1" interpolaterName="linr"  />
            </ZoomPanKeyframes>
           </ZoomPanBin>
          </Entry>
         </ExtraData>
        </IMFile>
        <UnifiedMedia id="779"  >
         <AudioTransition id="780" start="2185" duration="30" >
          <Parameters>
           <InterpolatingParam id="781" interp="linr"  time="0/1" value="1" leadInLength="0/1"  name="volume"/>
           <Parameter id="782"  name="captions"/>
          </Parameters>
          <Effects>
           <GenericEffect id="783" name = "AudioTransition" >
            <Parameters>
            <Parameter id="784"   name="audioEdgeModType">
             <Keyframes>
             <Keyframe id="785"  time="0/1" value="0" leadInLength="0/1"  />
             </Keyframes>
            </Parameter>
            <Parameter id="786"   name="audioTransitionType">
             <Keyframes>
             <Keyframe id="787"  time="0/1" value="" leadInLength="0/1"  />
             </Keyframes>
            </Parameter>
            </Parameters>
            <MetaData>
            </MetaData>
           </GenericEffect>
          </Effects>
          <Attributes>
           <Attribute id="788" value="" name="ident"/>
           <Attribute id="789" value="0" name="sampleRate"/>
           <Attribute id="790" value="0" name="bitDepth"/>
           <Attribute id="791" value="1" name="gain"/>
           <Attribute id="792" value="0" name="mixToMono"/>
          </Attributes>
         </AudioTransition>
         <ImageTransition id="793" start="2185" duration="30" >
          <Transformer>
           <VectorParam id="794"  name="translation">
            <InterpolatingParam id="795" interp="linr"  time="0/1" value="0" leadInLength="0/1"  />
            <InterpolatingParam id="796" interp="linr"  time="0/1" value="0" leadInLength="0/1"  />
            <InterpolatingParam id="797" interp="linr"  time="0/1" value="0" leadInLength="0/1"  />
           </VectorParam>
           <VectorParam id="798"  name="rotation">
            <InterpolatingParam id="799" interp="linr"  time="0/1" value="0" leadInLength="0/1"  />
            <InterpolatingParam id="800" interp="linr"  time="0/1" value="0" leadInLength="0/1"  />
            <InterpolatingParam id="801" interp="linr"  time="0/1" value="0" leadInLength="0/1"  />
           </VectorParam>
           <VectorParam id="802"  name="shear">
            <InterpolatingParam id="803" interp="linr"  time="0/1" value="0" leadInLength="0/1"  />
            <InterpolatingParam id="804" interp="linr"  time="0/1" value="0" leadInLength="0/1"  />
            <InterpolatingParam id="805" interp="linr"  time="0/1" value="0" leadInLength="0/1"  />
           </VectorParam>
           <VectorParam id="806"  name="scale">
            <InterpolatingParam id="807" interp="linr"  time="0/1" value="1" leadInLength="0/1"  />
            <InterpolatingParam id="808" interp="linr"  time="0/1" value="1" leadInLength="0/1"  />
            <InterpolatingParam id="809" interp="linr"  time="0/1" value="1" leadInLength="0/1"  />
           </VectorParam>
           <VectorParam id="810"  name="anchor">
            <InterpolatingParam id="811" interp="linr"  time="0/1" value="0" leadInLength="0/1"  />
            <InterpolatingParam id="812" interp="linr"  time="0/1" value="0" leadInLength="0/1"  />
            <InterpolatingParam id="813" interp="linr"  time="0/1" value="0" leadInLength="0/1"  />
           </VectorParam>
          </Transformer>
          <Parameters>
           <VectorParam id="814"  name="sourceCrop">
            <InterpolatingParam id="815" interp="linr"  time="0/1" value="0" leadInLength="0/1"  />
            <InterpolatingParam id="816" interp="linr"  time="0/1" value="0" leadInLength="0/1"  />
            <InterpolatingParam id="817" interp="linr"  time="0/1" value="0" leadInLength="0/1"  />
            <InterpolatingParam id="818" interp="linr"  time="0/1" value="0" leadInLength="0/1"  />
           </VectorParam>
           <VectorParam id="819"  name="geometryCrop">
            <InterpolatingParam id="820" interp="linr"  time="0/1" value="0" leadInLength="0/1"  />
            <InterpolatingParam id="821" interp="linr"  time="0/1" value="0" leadInLength="0/1"  />
            <InterpolatingParam id="822" interp="linr"  time="0/1" value="0" leadInLength="0/1"  />
            <InterpolatingParam id="823" interp="linr"  time="0/1" value="0" leadInLength="0/1"  />
           </VectorParam>
           <InterpolatingParam id="824" interp="linr"  time="0/1" value="1" leadInLength="0/1"  name="opacity"/>
          </Parameters>
          <Effects>
           <GenericEffect id="825" name = "VisualTransition" >
            <Parameters>
            <InterpolatingParam id="826" interp="linr"  time="0/1" value="1" leadInLength="0/1"   name="leftFramePercentage"/>
            <InterpolatingParam id="827" interp="linr"  time="0/1" value="1" leadInLength="0/1"   name="rightFramePercentage"/>
            <Parameter id="828"   name="visualEdgeModType">
             <Keyframes>
             <Keyframe id="829"  time="0/1" value="0" leadInLength="0/1"  />
             </Keyframes>
            </Parameter>
            <Parameter id="830"   name="visualTransitionType">
             <Keyframes>
             <Keyframe id="831"  time="0/1" value="Dissolve" leadInLength="0/1"  />
             </Keyframes>
            </Parameter>
            </Parameters>
            <MetaData>
            </MetaData>
           </GenericEffect>
          </Effects>
          <Attributes>
           <Attribute id="832" value="" name="ident"/>
          </Attributes>
          <ExtraData>
           <Entry key="ZoomPanBin">
            <ZoomPanBin id="833"  >
             <ZoomPanKeyframes>
             </ZoomPanKeyframes>
            </ZoomPanBin>
           </Entry>
          </ExtraData>
         </ImageTransition>
         <MetaData>
          <entry key="WinSubProjectDisplayName" val=""/>
         </MetaData>
        </UnifiedMedia>
        <ScreenVMFile id="834" start="2215" duration="1106" scalar="1/1" mediaStart="15/1" mediaDuration="1106/1" trackNumber="0" src="14" >
         <Transformer>
          <VectorParam id="835"  name="translation">
           <InterpolatingParam id="836" interp="linr"  time="-9999999/1" value="0" leadInLength="0/1"  />
           <InterpolatingParam id="837" interp="linr"  time="-9999999/1" value="0" leadInLength="0/1"  />
           <InterpolatingParam id="838" interp="linr"  time="-9999999/1" value="0" leadInLength="0/1"  />
          </VectorParam>
          <VectorParam id="839"  name="rotation">
           <InterpolatingParam id="840" interp="linr"  time="-9999999/1" value="0" leadInLength="0/1"  />
           <InterpolatingParam id="841" interp="linr"  time="-9999999/1" value="0" leadInLength="0/1"  />
           <InterpolatingParam id="842" interp="linr"  time="-9999999/1" value="0" leadInLength="0/1"  />
          </VectorParam>
          <VectorParam id="843"  name="shear">
           <InterpolatingParam id="844" interp="linr"  time="-9999999/1" value="0" leadInLength="0/1"  />
           <InterpolatingParam id="845" interp="linr"  time="-9999999/1" value="0" leadInLength="0/1"  />
           <InterpolatingParam id="846" interp="linr"  time="-9999999/1" value="0" leadInLength="0/1"  />
          </VectorParam>
          <VectorParam id="847"  name="scale">
           <InterpolatingParam id="848" interp="linr"  time="-9999999/1" value="1" leadInLength="0/1"  />
           <InterpolatingParam id="849" interp="linr"  time="-9999999/1" value="1" leadInLength="0/1"  />
           <InterpolatingParam id="850" interp="linr"  time="-9999999/1" value="1" leadInLength="0/1"  />
          </VectorParam>
          <VectorParam id="851"  name="anchor">
           <InterpolatingParam id="852" interp="linr"  time="0/1" value="0" leadInLength="0/1"  />
           <InterpolatingParam id="853" interp="linr"  time="0/1" value="0" leadInLength="0/1"  />
           <InterpolatingParam id="854" interp="linr"  time="0/1" value="0" leadInLength="0/1"  />
          </VectorParam>
         </Transformer>
         <Parameters>
          <VectorParam id="855"  name="sourceCrop">
           <InterpolatingParam id="856" interp="linr"  time="0/1" value="0" leadInLength="0/1"  />
           <InterpolatingParam id="857" interp="linr"  time="0/1" value="0" leadInLength="0/1"  />
           <InterpolatingParam id="858" interp="linr"  time="0/1" value="0" leadInLength="0/1"  />
           <InterpolatingParam id="859" interp="linr"  time="0/1" value="0" leadInLength="0/1"  />
          </VectorParam>
          <VectorParam id="860"  name="geometryCrop">
           <InterpolatingParam id="861" interp="linr"  time="-9999999/1" value="0" leadInLength="0/1"  />
           <InterpolatingParam id="862" interp="linr"  time="-9999999/1" value="0" leadInLength="0/1"  />
           <InterpolatingParam id="863" interp="linr"  time="-9999999/1" value="0" leadInLength="0/1"  />
           <InterpolatingParam id="864" interp="linr"  time="-9999999/1" value="0" leadInLength="0/1"  />
          </VectorParam>
          <InterpolatingParam id="865" interp="linr"  time="-9999999/1" value="1" leadInLength="0/1"  name="opacity"/>
          <InterpolatingParam id="866" interp="linr"  time="0/1" value="1" leadInLength="0/1"  name="cursorOpacity"/>
          <InterpolatingParam id="867" interp="linr"  time="0/1" value="1" leadInLength="0/1"  name="cursorScale"/>
         </Parameters>
         <Effects>
          <GenericEffect id="868" name = "CursorBaseEffectName" >
           <Parameters>
           <InterpolatingParam id="869" interp="linr"  time="-9999999/1" value="1" leadInLength="0/1"   name="cursorSize"/>
           <InterpolatingParam id="870" interp="linr"  time="-9999999/1" value="0" leadInLength="0/1"   name="highlightBlurRadius"/>
           <InterpolatingParam id="871" interp="linr"  time="-9999999/1" value="0" leadInLength="0/1"   name="highlightColorBlue"/>
           <InterpolatingParam id="872" interp="linr"  time="-9999999/1" value="255" leadInLength="0/1"   name="highlightColorGreen"/>
           <InterpolatingParam id="873" interp="linr"  time="-9999999/1" value="255" leadInLength="0/1"   name="highlightColorRed"/>
           <InterpolatingParam id="874" interp="linr"  time="-9999999/1" value="5" leadInLength="0/1"   name="highlightFeatherSize"/>
           <InterpolatingParam id="875" interp="linr"  time="-9999999/1" value="2" leadInLength="0/1"   name="highlightMagnification"/>
           <InterpolatingParam id="876" interp="linr"  time="-9999999/1" value="1" leadInLength="0/1"   name="highlightOpacity"/>
           <InterpolatingParam id="877" interp="linr"  time="-9999999/1" value="45" leadInLength="0/1"   name="highlightSize"/>
           <Parameter id="878"   name="highlightType">
            <Keyframes>
            <Keyframe id="879"  time="-9999999/1" value="0" leadInLength="0/1"  />
            </Keyframes>
           </Parameter>
           <InterpolatingParam id="880" interp="linr"  time="-9999999/1" value="0" leadInLength="0/1"   name="leftClickColorBlue"/>
           <InterpolatingParam id="881" interp="linr"  time="-9999999/1" value="0" leadInLength="0/1"   name="leftClickColorGreen"/>
           <InterpolatingParam id="882" interp="linr"  time="-9999999/1" value="255" leadInLength="0/1"   name="leftClickColorRed"/>
           <InterpolatingParam id="883" interp="linr"  time="-9999999/1" value="0.80000000000000004" leadInLength="0/1"   name="leftClickDuration"/>
           <InterpolatingParam id="884" interp="linr"  time="-9999999/1" value="20" leadInLength="0/1"   name="leftClickSize"/>
           <Parameter id="885"   name="leftClickSoundFilename">
            <Keyframes>
            <Keyframe id="886"  time="-9999999/1" value="" leadInLength="0/1"  />
            </Keyframes>
           </Parameter>
           <InterpolatingParam id="887" interp="linr"  time="-9999999/1" value="1" leadInLength="0/1"   name="leftClickSoundVolume"/>
           <Parameter id="888"   name="leftClickType">
            <Keyframes>
            <Keyframe id="889"  time="-9999999/1" value="0" leadInLength="0/1"  />
            </Keyframes>
           </Parameter>
           <InterpolatingParam id="890" interp="linr"  time="-9999999/1" value="1" leadInLength="0/1"   name="opacity"/>
           <InterpolatingParam id="891" interp="linr"  time="-9999999/1" value="255" leadInLength="0/1"   name="rightClickColorBlue"/>
           <InterpolatingParam id="892" interp="linr"  time="-9999999/1" value="0" leadInLength="0/1"   name="rightClickColorGreen"/>
           <InterpolatingParam id="893" interp="linr"  time="-9999999/1" value="0" leadInLength="0/1"   name="rightClickColorRed"/>
           <InterpolatingParam id="894" interp="linr"  time="-9999999/1" value="0.80000000000000004" leadInLength="0/1"   name="rightClickDuration"/>
           <InterpolatingParam id="895" interp="linr"  time="-9999999/1" value="20" leadInLength="0/1"   name="rightClickSize"/>
           <Parameter id="896"   name="rightClickSoundFilename">
            <Keyframes>
            <Keyframe id="897"  time="-9999999/1" value="" leadInLength="0/1"  />
            </Keyframes>
           </Parameter>
           <InterpolatingParam id="898" interp="linr"  time="-9999999/1" value="1" leadInLength="0/1"   name="rightClickSoundVolume"/>
           <Parameter id="899"   name="rightClickType">
            <Keyframes>
            <Keyframe id="900"  time="-9999999/1" value="0" leadInLength="0/1"  />
            </Keyframes>
           </Parameter>
           </Parameters>
          </GenericEffect>
         </Effects>
         <Attributes>
          <Attribute id="901" value="" name="ident"/>
         </Attributes>
         <MetaData>
          <entry key="AutoAppliedSmartFocus" val="False"/>
          <entry key="WinSubProjectDisplayName" val=""/>
         </MetaData>
         <ExtraData>
          <Entry key="ZoomPanBin">
           <ZoomPanBin id="902"  >
            <ZoomPanKeyframes>
             <ZoomPanKeyframe id="903" timeRangeEnd="-9999999/1" timeRangeDuration="0/1" interpolaterName="linr"  />
            </ZoomPanKeyframes>
           </ZoomPanBin>
          </Entry>
          <Entry key="CursorEffectBin">
           <CursorEffectBin id="904"  >
            <CursorEffectKeyframes>
             <CursorEffectKeyframe id="905" timeRangeEnd="-9999999/1" timeRangeDuration="0/1" interpolaterName=""  />
            </CursorEffectKeyframes>
           </CursorEffectBin>
          </Entry>
         </ExtraData>
        </ScreenVMFile>
        <ScreenVMFile id="906" start="3321" duration="334" scalar="334/519" mediaStart="1121/1" mediaDuration="519/1" trackNumber="0" src="14" >
         <Transformer>
          <VectorParam id="907"  name="translation">
           <InterpolatingParam id="908" interp="linr"  time="-9999999/1" value="0" leadInLength="0/1"  />
           <InterpolatingParam id="909" interp="linr"  time="-9999999/1" value="0" leadInLength="0/1"  />
           <InterpolatingParam id="910" interp="linr"  time="-9999999/1" value="0" leadInLength="0/1"  />
          </VectorParam>
          <VectorParam id="911"  name="rotation">
           <InterpolatingParam id="912" interp="linr"  time="-9999999/1" value="0" leadInLength="0/1"  />
           <InterpolatingParam id="913" interp="linr"  time="-9999999/1" value="0" leadInLength="0/1"  />
           <InterpolatingParam id="914" interp="linr"  time="-9999999/1" value="0" leadInLength="0/1"  />
          </VectorParam>
          <VectorParam id="915"  name="shear">
           <InterpolatingParam id="916" interp="linr"  time="-9999999/1" value="0" leadInLength="0/1"  />
           <InterpolatingParam id="917" interp="linr"  time="-9999999/1" value="0" leadInLength="0/1"  />
           <InterpolatingParam id="918" interp="linr"  time="-9999999/1" value="0" leadInLength="0/1"  />
          </VectorParam>
          <VectorParam id="919"  name="scale">
           <InterpolatingParam id="920" interp="linr"  time="-9999999/1" value="1" leadInLength="0/1"  />
           <InterpolatingParam id="921" interp="linr"  time="-9999999/1" value="1" leadInLength="0/1"  />
           <InterpolatingParam id="922" interp="linr"  time="-9999999/1" value="1" leadInLength="0/1"  />
          </VectorParam>
          <VectorParam id="923"  name="anchor">
           <InterpolatingParam id="924" interp="linr"  time="0/1" value="0" leadInLength="0/1"  />
           <InterpolatingParam id="925" interp="linr"  time="0/1" value="0" leadInLength="0/1"  />
           <InterpolatingParam id="926" interp="linr"  time="0/1" value="0" leadInLength="0/1"  />
          </VectorParam>
         </Transformer>
         <Parameters>
          <VectorParam id="927"  name="sourceCrop">
           <InterpolatingParam id="928" interp="linr"  time="0/1" value="0" leadInLength="0/1"  />
           <InterpolatingParam id="929" interp="linr"  time="0/1" value="0" leadInLength="0/1"  />
           <InterpolatingParam id="930" interp="linr"  time="0/1" value="0" leadInLength="0/1"  />
           <InterpolatingParam id="931" interp="linr"  time="0/1" value="0" leadInLength="0/1"  />
          </VectorParam>
          <VectorParam id="932"  name="geometryCrop">
           <InterpolatingParam id="933" interp="linr"  time="-9999999/1" value="0" leadInLength="0/1"  />
           <InterpolatingParam id="934" interp="linr"  time="-9999999/1" value="0" leadInLength="0/1"  />
           <InterpolatingParam id="935" interp="linr"  time="-9999999/1" value="0" leadInLength="0/1"  />
           <InterpolatingParam id="936" interp="linr"  time="-9999999/1" value="0" leadInLength="0/1"  />
          </VectorParam>
          <InterpolatingParam id="937" interp="linr"  time="-9999999/1" value="1" leadInLength="0/1"  name="opacity"/>
          <InterpolatingParam id="938" interp="linr"  time="0/1" value="1" leadInLength="0/1"  name="cursorOpacity"/>
          <InterpolatingParam id="939" interp="linr"  time="0/1" value="1" leadInLength="0/1"  name="cursorScale"/>
         </Parameters>
         <Effects>
          <GenericEffect id="940" name = "CursorBaseEffectName" >
           <Parameters>
           <InterpolatingParam id="941" interp="linr"  time="-9999999/1" value="1" leadInLength="0/1"   name="cursorSize"/>
           <InterpolatingParam id="942" interp="linr"  time="-9999999/1" value="0" leadInLength="0/1"   name="highlightBlurRadius"/>
           <InterpolatingParam id="943" interp="linr"  time="-9999999/1" value="0" leadInLength="0/1"   name="highlightColorBlue"/>
           <InterpolatingParam id="944" interp="linr"  time="-9999999/1" value="255" leadInLength="0/1"   name="highlightColorGreen"/>
           <InterpolatingParam id="945" interp="linr"  time="-9999999/1" value="255" leadInLength="0/1"   name="highlightColorRed"/>
           <InterpolatingParam id="946" interp="linr"  time="-9999999/1" value="5" leadInLength="0/1"   name="highlightFeatherSize"/>
           <InterpolatingParam id="947" interp="linr"  time="-9999999/1" value="2" leadInLength="0/1"   name="highlightMagnification"/>
           <InterpolatingParam id="948" interp="linr"  time="-9999999/1" value="1" leadInLength="0/1"   name="highlightOpacity"/>
           <InterpolatingParam id="949" interp="linr"  time="-9999999/1" value="45" leadInLength="0/1"   name="highlightSize"/>
           <Parameter id="950"   name="highlightType">
            <Keyframes>
            <Keyframe id="951"  time="-9999999/1" value="0" leadInLength="0/1"  />
            </Keyframes>
           </Parameter>
           <InterpolatingParam id="952" interp="linr"  time="-9999999/1" value="0" leadInLength="0/1"   name="leftClickColorBlue"/>
           <InterpolatingParam id="953" interp="linr"  time="-9999999/1" value="0" leadInLength="0/1"   name="leftClickColorGreen"/>
           <InterpolatingParam id="954" interp="linr"  time="-9999999/1" value="255" leadInLength="0/1"   name="leftClickColorRed"/>
           <InterpolatingParam id="955" interp="linr"  time="-9999999/1" value="0.80000000000000004" leadInLength="0/1"   name="leftClickDuration"/>
           <InterpolatingParam id="956" interp="linr"  time="-9999999/1" value="20" leadInLength="0/1"   name="leftClickSize"/>
           <Parameter id="957"   name="leftClickSoundFilename">
            <Keyframes>
            <Keyframe id="958"  time="-9999999/1" value="" leadInLength="0/1"  />
            </Keyframes>
           </Parameter>
           <InterpolatingParam id="959" interp="linr"  time="-9999999/1" value="1" leadInLength="0/1"   name="leftClickSoundVolume"/>
           <Parameter id="960"   name="leftClickType">
            <Keyframes>
            <Keyframe id="961"  time="-9999999/1" value="0" leadInLength="0/1"  />
            </Keyframes>
           </Parameter>
           <InterpolatingParam id="962" interp="linr"  time="-9999999/1" value="1" leadInLength="0/1"   name="opacity"/>
           <InterpolatingParam id="963" interp="linr"  time="-9999999/1" value="255" leadInLength="0/1"   name="rightClickColorBlue"/>
           <InterpolatingParam id="964" interp="linr"  time="-9999999/1" value="0" leadInLength="0/1"   name="rightClickColorGreen"/>
           <InterpolatingParam id="965" interp="linr"  time="-9999999/1" value="0" leadInLength="0/1"   name="rightClickColorRed"/>
           <InterpolatingParam id="966" interp="linr"  time="-9999999/1" value="0.80000000000000004" leadInLength="0/1"   name="rightClickDuration"/>
           <InterpolatingParam id="967" interp="linr"  time="-9999999/1" value="20" leadInLength="0/1"   name="rightClickSize"/>
           <Parameter id="968"   name="rightClickSoundFilename">
            <Keyframes>
            <Keyframe id="969"  time="-9999999/1" value="" leadInLength="0/1"  />
            </Keyframes>
           </Parameter>
           <InterpolatingParam id="970" interp="linr"  time="-9999999/1" value="1" leadInLength="0/1"   name="rightClickSoundVolume"/>
           <Parameter id="971"   name="rightClickType">
            <Keyframes>
            <Keyframe id="972"  time="-9999999/1" value="0" leadInLength="0/1"  />
            </Keyframes>
           </Parameter>
           </Parameters>
          </GenericEffect>
         </Effects>
         <Attributes>
          <Attribute id="973" value="" name="ident"/>
         </Attributes>
         <MetaData>
          <entry key="AutoAppliedSmartFocus" val="False"/>
          <entry key="WinSubProjectDisplayName" val=""/>
         </MetaData>
         <ExtraData>
          <Entry key="ZoomPanBin">
           <ZoomPanBin id="974"  >
            <ZoomPanKeyframes>
             <ZoomPanKeyframe id="975" timeRangeEnd="-9999999/1" timeRangeDuration="0/1" interpolaterName="linr"  />
            </ZoomPanKeyframes>
           </ZoomPanBin>
          </Entry>
          <Entry key="CursorEffectBin">
           <CursorEffectBin id="976"  >
            <CursorEffectKeyframes>
             <CursorEffectKeyframe id="977" timeRangeEnd="-9999999/1" timeRangeDuration="0/1" interpolaterName=""  />
            </CursorEffectKeyframes>
           </CursorEffectBin>
          </Entry>
         </ExtraData>
        </ScreenVMFile>
        <ScreenVMFile id="978" start="3655" duration="926" scalar="1/1" mediaStart="1640/1" mediaDuration="926/1" trackNumber="0" src="14" >
         <Transformer>
          <VectorParam id="979"  name="translation">
           <InterpolatingParam id="980" interp="linr"  time="-9999999/1" value="0" leadInLength="0/1"  />
           <InterpolatingParam id="981" interp="linr"  time="-9999999/1" value="0" leadInLength="0/1"  />
           <InterpolatingParam id="982" interp="linr"  time="-9999999/1" value="0" leadInLength="0/1"  />
          </VectorParam>
          <VectorParam id="983"  name="rotation">
           <InterpolatingParam id="984" interp="linr"  time="-9999999/1" value="0" leadInLength="0/1"  />
           <InterpolatingParam id="985" interp="linr"  time="-9999999/1" value="0" leadInLength="0/1"  />
           <InterpolatingParam id="986" interp="linr"  time="-9999999/1" value="0" leadInLength="0/1"  />
          </VectorParam>
          <VectorParam id="987"  name="shear">
           <InterpolatingParam id="988" interp="linr"  time="-9999999/1" value="0" leadInLength="0/1"  />
           <InterpolatingParam id="989" interp="linr"  time="-9999999/1" value="0" leadInLength="0/1"  />
           <InterpolatingParam id="990" interp="linr"  time="-9999999/1" value="0" leadInLength="0/1"  />
          </VectorParam>
          <VectorParam id="991"  name="scale">
           <InterpolatingParam id="992" interp="linr"  time="-9999999/1" value="1" leadInLength="0/1"  />
           <InterpolatingParam id="993" interp="linr"  time="-9999999/1" value="1" leadInLength="0/1"  />
           <InterpolatingParam id="994" interp="linr"  time="-9999999/1" value="1" leadInLength="0/1"  />
          </VectorParam>
          <VectorParam id="995"  name="anchor">
           <InterpolatingParam id="996" interp="linr"  time="0/1" value="0" leadInLength="0/1"  />
           <InterpolatingParam id="997" interp="linr"  time="0/1" value="0" leadInLength="0/1"  />
           <InterpolatingParam id="998" interp="linr"  time="0/1" value="0" leadInLength="0/1"  />
          </VectorParam>
         </Transformer>
         <Parameters>
          <VectorParam id="999"  name="sourceCrop">
           <InterpolatingParam id="1000" interp="linr"  time="0/1" value="0" leadInLength="0/1"  />
           <InterpolatingParam id="1001" interp="linr"  time="0/1" value="0" leadInLength="0/1"  />
           <InterpolatingParam id="1002" interp="linr"  time="0/1" value="0" leadInLength="0/1"  />
           <InterpolatingParam id="1003" interp="linr"  time="0/1" value="0" leadInLength="0/1"  />
          </VectorParam>
          <VectorParam id="1004"  name="geometryCrop">
           <InterpolatingParam id="1005" interp="linr"  time="-9999999/1" value="0" leadInLength="0/1"  />
           <InterpolatingParam id="1006" interp="linr"  time="-9999999/1" value="0" leadInLength="0/1"  />
           <InterpolatingParam id="1007" interp="linr"  time="-9999999/1" value="0" leadInLength="0/1"  />
           <InterpolatingParam id="1008" interp="linr"  time="-9999999/1" value="0" leadInLength="0/1"  />
          </VectorParam>
          <InterpolatingParam id="1009" interp="linr"  time="-9999999/1" value="1" leadInLength="0/1"  name="opacity"/>
          <InterpolatingParam id="1010" interp="linr"  time="0/1" value="1" leadInLength="0/1"  name="cursorOpacity"/>
          <InterpolatingParam id="1011" interp="linr"  time="0/1" value="1" leadInLength="0/1"  name="cursorScale"/>
         </Parameters>
         <Effects>
          <GenericEffect id="1012" name = "CursorBaseEffectName" >
           <Parameters>
           <InterpolatingParam id="1013" interp="linr"  time="-9999999/1" value="1" leadInLength="0/1"   name="cursorSize"/>
           <InterpolatingParam id="1014" interp="linr"  time="-9999999/1" value="0" leadInLength="0/1"   name="highlightBlurRadius"/>
           <InterpolatingParam id="1015" interp="linr"  time="-9999999/1" value="0" leadInLength="0/1"   name="highlightColorBlue"/>
           <InterpolatingParam id="1016" interp="linr"  time="-9999999/1" value="255" leadInLength="0/1"   name="highlightColorGreen"/>
           <InterpolatingParam id="1017" interp="linr"  time="-9999999/1" value="255" leadInLength="0/1"   name="highlightColorRed"/>
           <InterpolatingParam id="1018" interp="linr"  time="-9999999/1" value="5" leadInLength="0/1"   name="highlightFeatherSize"/>
           <InterpolatingParam id="1019" interp="linr"  time="-9999999/1" value="2" leadInLength="0/1"   name="highlightMagnification"/>
           <InterpolatingParam id="1020" interp="linr"  time="-9999999/1" value="1" leadInLength="0/1"   name="highlightOpacity"/>
           <InterpolatingParam id="1021" interp="linr"  time="-9999999/1" value="45" leadInLength="0/1"   name="highlightSize"/>
           <Parameter id="1022"   name="highlightType">
            <Keyframes>
            <Keyframe id="1023"  time="-9999999/1" value="0" leadInLength="0/1"  />
            </Keyframes>
           </Parameter>
           <InterpolatingParam id="1024" interp="linr"  time="-9999999/1" value="0" leadInLength="0/1"   name="leftClickColorBlue"/>
           <InterpolatingParam id="1025" interp="linr"  time="-9999999/1" value="0" leadInLength="0/1"   name="leftClickColorGreen"/>
           <InterpolatingParam id="1026" interp="linr"  time="-9999999/1" value="255" leadInLength="0/1"   name="leftClickColorRed"/>
           <InterpolatingParam id="1027" interp="linr"  time="-9999999/1" value="0.80000000000000004" leadInLength="0/1"   name="leftClickDuration"/>
           <InterpolatingParam id="1028" interp="linr"  time="-9999999/1" value="20" leadInLength="0/1"   name="leftClickSize"/>
           <Parameter id="1029"   name="leftClickSoundFilename">
            <Keyframes>
            <Keyframe id="1030"  time="-9999999/1" value="" leadInLength="0/1"  />
            </Keyframes>
           </Parameter>
           <InterpolatingParam id="1031" interp="linr"  time="-9999999/1" value="1" leadInLength="0/1"   name="leftClickSoundVolume"/>
           <Parameter id="1032"   name="leftClickType">
            <Keyframes>
            <Keyframe id="1033"  time="-9999999/1" value="0" leadInLength="0/1"  />
            </Keyframes>
           </Parameter>
           <InterpolatingParam id="1034" interp="linr"  time="-9999999/1" value="1" leadInLength="0/1"   name="opacity"/>
           <InterpolatingParam id="1035" interp="linr"  time="-9999999/1" value="255" leadInLength="0/1"   name="rightClickColorBlue"/>
           <InterpolatingParam id="1036" interp="linr"  time="-9999999/1" value="0" leadInLength="0/1"   name="rightClickColorGreen"/>
           <InterpolatingParam id="1037" interp="linr"  time="-9999999/1" value="0" leadInLength="0/1"   name="rightClickColorRed"/>
           <InterpolatingParam id="1038" interp="linr"  time="-9999999/1" value="0.80000000000000004" leadInLength="0/1"   name="rightClickDuration"/>
           <InterpolatingParam id="1039" interp="linr"  time="-9999999/1" value="20" leadInLength="0/1"   name="rightClickSize"/>
           <Parameter id="1040"   name="rightClickSoundFilename">
            <Keyframes>
            <Keyframe id="1041"  time="-9999999/1" value="" leadInLength="0/1"  />
            </Keyframes>
           </Parameter>
           <InterpolatingParam id="1042" interp="linr"  time="-9999999/1" value="1" leadInLength="0/1"   name="rightClickSoundVolume"/>
           <Parameter id="1043"   name="rightClickType">
            <Keyframes>
            <Keyframe id="1044"  time="-9999999/1" value="0" leadInLength="0/1"  />
            </Keyframes>
           </Parameter>
           </Parameters>
          </GenericEffect>
         </Effects>
         <Attributes>
          <Attribute id="1045" value="" name="ident"/>
         </Attributes>
         <MetaData>
          <entry key="AutoAppliedSmartFocus" val="False"/>
          <entry key="WinSubProjectDisplayName" val=""/>
         </MetaData>
         <ExtraData>
          <Entry key="ZoomPanBin">
           <ZoomPanBin id="1046"  >
            <ZoomPanKeyframes>
             <ZoomPanKeyframe id="1047" timeRangeEnd="-9999999/1" timeRangeDuration="0/1" interpolaterName="linr"  />
            </ZoomPanKeyframes>
           </ZoomPanBin>
          </Entry>
          <Entry key="CursorEffectBin">
           <CursorEffectBin id="1048"  >
            <CursorEffectKeyframes>
             <CursorEffectKeyframe id="1049" timeRangeEnd="-9999999/1" timeRangeDuration="0/1" interpolaterName=""  />
            </CursorEffectKeyframes>
           </CursorEffectBin>
          </Entry>
         </ExtraData>
        </ScreenVMFile>
        <StitchedMedia id="1050" start="4581" duration="173" scalar="1/1" mediaStart="2566/1" mediaDuration="173/1" minMediaStart="0/1" >
         <Transformer>
          <VectorParam id="1051"  name="translation">
           <InterpolatingParam id="1052" interp="linr"  time="-9999999/1" value="0" leadInLength="0/1"  />
           <InterpolatingParam id="1053" interp="linr"  time="-9999999/1" value="0" leadInLength="0/1"  />
           <InterpolatingParam id="1054" interp="linr"  time="-9999999/1" value="0" leadInLength="0/1"  />
          </VectorParam>
          <VectorParam id="1055"  name="rotation">
           <InterpolatingParam id="1056" interp="linr"  time="-9999999/1" value="0" leadInLength="0/1"  />
           <InterpolatingParam id="1057" interp="linr"  time="-9999999/1" value="0" leadInLength="0/1"  />
           <InterpolatingParam id="1058" interp="linr"  time="-9999999/1" value="0" leadInLength="0/1"  />
          </VectorParam>
          <VectorParam id="1059"  name="shear">
           <InterpolatingParam id="1060" interp="linr"  time="-9999999/1" value="0" leadInLength="0/1"  />
           <InterpolatingParam id="1061" interp="linr"  time="-9999999/1" value="0" leadInLength="0/1"  />
           <InterpolatingParam id="1062" interp="linr"  time="-9999999/1" value="0" leadInLength="0/1"  />
          </VectorParam>
          <VectorParam id="1063"  name="scale">
           <InterpolatingParam id="1064" interp="linr"  time="-9999999/1" value="1" leadInLength="0/1"  />
           <InterpolatingParam id="1065" interp="linr"  time="-9999999/1" value="1" leadInLength="0/1"  />
           <InterpolatingParam id="1066" interp="linr"  time="-9999999/1" value="1" leadInLength="0/1"  />
          </VectorParam>
          <VectorParam id="1067"  name="anchor">
           <InterpolatingParam id="1068" interp="linr"  >
            <Keyframes>
            <Keyframe id="1069"  time="0/1" value="0" leadInLength="0/1"  />
            <Keyframe id="1070"  time="2640/1" value="0" leadInLength="0/1"  />
            </Keyframes>
           </InterpolatingParam>
           <InterpolatingParam id="1071" interp="linr"  >
            <Keyframes>
            <Keyframe id="1072"  time="0/1" value="0" leadInLength="0/1"  />
            <Keyframe id="1073"  time="2640/1" value="0" leadInLength="0/1"  />
            </Keyframes>
           </InterpolatingParam>
           <InterpolatingParam id="1074" interp="linr"  >
            <Keyframes>
            <Keyframe id="1075"  time="0/1" value="0" leadInLength="0/1"  />
            <Keyframe id="1076"  time="2640/1" value="0" leadInLength="0/1"  />
            </Keyframes>
           </InterpolatingParam>
          </VectorParam>
         </Transformer>
         <Parameters>
          <VectorParam id="1077"  name="sourceCrop">
           <InterpolatingParam id="1078" interp="linr"  >
            <Keyframes>
            <Keyframe id="1079"  time="0/1" value="0" leadInLength="0/1"  />
            <Keyframe id="1080"  time="2640/1" value="0" leadInLength="0/1"  />
            </Keyframes>
           </InterpolatingParam>
           <InterpolatingParam id="1081" interp="linr"  >
            <Keyframes>
            <Keyframe id="1082"  time="0/1" value="0" leadInLength="0/1"  />
            <Keyframe id="1083"  time="2640/1" value="0" leadInLength="0/1"  />
            </Keyframes>
           </InterpolatingParam>
           <InterpolatingParam id="1084" interp="linr"  >
            <Keyframes>
            <Keyframe id="1085"  time="0/1" value="0" leadInLength="0/1"  />
            <Keyframe id="1086"  time="2640/1" value="0" leadInLength="0/1"  />
            </Keyframes>
           </InterpolatingParam>
           <InterpolatingParam id="1087" interp="linr"  >
            <Keyframes>
            <Keyframe id="1088"  time="0/1" value="0" leadInLength="0/1"  />
            <Keyframe id="1089"  time="2640/1" value="0" leadInLength="0/1"  />
            </Keyframes>
           </InterpolatingParam>
          </VectorParam>
          <VectorParam id="1090"  name="geometryCrop">
           <InterpolatingParam id="1091" interp="linr"  time="-9999999/1" value="0" leadInLength="0/1"  />
           <InterpolatingParam id="1092" interp="linr"  time="-9999999/1" value="0" leadInLength="0/1"  />
           <InterpolatingParam id="1093" interp="linr"  time="-9999999/1" value="0" leadInLength="0/1"  />
           <InterpolatingParam id="1094" interp="linr"  time="-9999999/1" value="0" leadInLength="0/1"  />
          </VectorParam>
          <InterpolatingParam id="1095" interp="linr"  time="-9999999/1" value="1" leadInLength="0/1"  name="opacity"/>
          <InterpolatingParam id="1096" interp="linr"  time="0/1" value="1" leadInLength="0/1"  name="cursorOpacity"/>
          <InterpolatingParam id="1097" interp="linr"  name="cursorScale">
           <Keyframes>
           <Keyframe id="1098"  time="0/1" value="1" leadInLength="0/1"  />
           <Keyframe id="1099"  time="2640/1" value="1" leadInLength="0/1"  />
           </Keyframes>
          </InterpolatingParam>
          <Parameter id="1100"  name="captions"/>
         </Parameters>
         <Effects>
          <GenericEffect id="1101" name = "CursorBaseEffectName" >
           <Parameters>
           <InterpolatingParam id="1102" interp="linr"  time="-9999999/1" value="1" leadInLength="0/1"   name="cursorSize"/>
           <InterpolatingParam id="1103" interp="linr"  time="-9999999/1" value="0" leadInLength="0/1"   name="highlightBlurRadius"/>
           <InterpolatingParam id="1104" interp="linr"  time="-9999999/1" value="0" leadInLength="0/1"   name="highlightColorBlue"/>
           <InterpolatingParam id="1105" interp="linr"  time="-9999999/1" value="255" leadInLength="0/1"   name="highlightColorGreen"/>
           <InterpolatingParam id="1106" interp="linr"  time="-9999999/1" value="255" leadInLength="0/1"   name="highlightColorRed"/>
           <InterpolatingParam id="1107" interp="linr"  time="-9999999/1" value="5" leadInLength="0/1"   name="highlightFeatherSize"/>
           <InterpolatingParam id="1108" interp="linr"  time="-9999999/1" value="2" leadInLength="0/1"   name="highlightMagnification"/>
           <InterpolatingParam id="1109" interp="linr"  time="-9999999/1" value="1" leadInLength="0/1"   name="highlightOpacity"/>
           <InterpolatingParam id="1110" interp="linr"  time="-9999999/1" value="45" leadInLength="0/1"   name="highlightSize"/>
           <Parameter id="1111"   name="highlightType">
            <Keyframes>
            <Keyframe id="1112"  time="-9999999/1" value="0" leadInLength="0/1"  />
            </Keyframes>
           </Parameter>
           <InterpolatingParam id="1113" interp="linr"  time="-9999999/1" value="0" leadInLength="0/1"   name="leftClickColorBlue"/>
           <InterpolatingParam id="1114" interp="linr"  time="-9999999/1" value="0" leadInLength="0/1"   name="leftClickColorGreen"/>
           <InterpolatingParam id="1115" interp="linr"  time="-9999999/1" value="255" leadInLength="0/1"   name="leftClickColorRed"/>
           <InterpolatingParam id="1116" interp="linr"  time="-9999999/1" value="0.80000000000000004" leadInLength="0/1"   name="leftClickDuration"/>
           <InterpolatingParam id="1117" interp="linr"  time="-9999999/1" value="20" leadInLength="0/1"   name="leftClickSize"/>
           <Parameter id="1118"   name="leftClickSoundFilename">
            <Keyframes>
            <Keyframe id="1119"  time="-9999999/1" value="" leadInLength="0/1"  />
            </Keyframes>
           </Parameter>
           <InterpolatingParam id="1120" interp="linr"  time="-9999999/1" value="1" leadInLength="0/1"   name="leftClickSoundVolume"/>
           <Parameter id="1121"   name="leftClickType">
            <Keyframes>
            <Keyframe id="1122"  time="-9999999/1" value="0" leadInLength="0/1"  />
            </Keyframes>
           </Parameter>
           <InterpolatingParam id="1123" interp="linr"  time="-9999999/1" value="1" leadInLength="0/1"   name="opacity"/>
           <InterpolatingParam id="1124" interp="linr"  time="-9999999/1" value="255" leadInLength="0/1"   name="rightClickColorBlue"/>
           <InterpolatingParam id="1125" interp="linr"  time="-9999999/1" value="0" leadInLength="0/1"   name="rightClickColorGreen"/>
           <InterpolatingParam id="1126" interp="linr"  time="-9999999/1" value="0" leadInLength="0/1"   name="rightClickColorRed"/>
           <InterpolatingParam id="1127" interp="linr"  time="-9999999/1" value="0.80000000000000004" leadInLength="0/1"   name="rightClickDuration"/>
           <InterpolatingParam id="1128" interp="linr"  time="-9999999/1" value="20" leadInLength="0/1"   name="rightClickSize"/>
           <Parameter id="1129"   name="rightClickSoundFilename">
            <Keyframes>
            <Keyframe id="1130"  time="-9999999/1" value="" leadInLength="0/1"  />
            </Keyframes>
           </Parameter>
           <InterpolatingParam id="1131" interp="linr"  time="-9999999/1" value="1" leadInLength="0/1"   name="rightClickSoundVolume"/>
           <Parameter id="1132"   name="rightClickType">
            <Keyframes>
            <Keyframe id="1133"  time="-9999999/1" value="0" leadInLength="0/1"  />
            </Keyframes>
           </Parameter>
           </Parameters>
          </GenericEffect>
         </Effects>
         <Attributes>
          <Attribute id="1134" value="" name="ident"/>
         </Attributes>
         <MetaData>
          <entry key="AutoAppliedSmartFocus" val="False"/>
          <entry key="WinSubProjectDisplayName" val=""/>
         </MetaData>
         <ExtraData>
          <Entry key="ZoomPanBin">
           <ZoomPanBin id="1135"  >
            <ZoomPanKeyframes>
             <ZoomPanKeyframe id="1136" timeRangeEnd="-9999999/1" timeRangeDuration="0/1" interpolaterName="linr"  />
            </ZoomPanKeyframes>
           </ZoomPanBin>
          </Entry>
          <Entry key="CursorEffectBin">
           <CursorEffectBin id="1137"  >
            <CursorEffectKeyframes>
             <CursorEffectKeyframe id="1138" timeRangeEnd="-9999999/1" timeRangeDuration="0/1" interpolaterName=""  />
            </CursorEffectKeyframes>
           </CursorEffectBin>
          </Entry>
         </ExtraData>
         <GenericTrack id="1139"  >
          <Attributes>
           <Attribute id="1140" value="" name="ident"/>
           <Attribute id="1141" value="0" name="audioMuted"/>
           <Attribute id="1142" value="0" name="videoHidden"/>
          </Attributes>
          <MetaData>
           <entry key="IsLocked" val="False"/>
           <entry key="WinTrackHeight" val="0"/>
          </MetaData>
          <Medias>
           <ScreenVMFile id="1143" start="0" duration="2640" scalar="1/1" mediaStart="0/1" mediaDuration="2640/1" trackNumber="0" src="14" >
            <Transformer>
             <VectorParam id="1144"  name="translation">
              <InterpolatingParam id="1145" interp="linr"  time="-9999999/1" value="0" leadInLength="0/1"  />
              <InterpolatingParam id="1146" interp="linr"  time="-9999999/1" value="0" leadInLength="0/1"  />
              <InterpolatingParam id="1147" interp="linr"  time="-9999999/1" value="0" leadInLength="0/1"  />
             </VectorParam>
             <VectorParam id="1148"  name="rotation">
              <InterpolatingParam id="1149" interp="linr"  time="-9999999/1" value="0" leadInLength="0/1"  />
              <InterpolatingParam id="1150" interp="linr"  time="-9999999/1" value="0" leadInLength="0/1"  />
              <InterpolatingParam id="1151" interp="linr"  time="-9999999/1" value="0" leadInLength="0/1"  />
             </VectorParam>
             <VectorParam id="1152"  name="shear">
              <InterpolatingParam id="1153" interp="linr"  time="-9999999/1" value="0" leadInLength="0/1"  />
              <InterpolatingParam id="1154" interp="linr"  time="-9999999/1" value="0" leadInLength="0/1"  />
              <InterpolatingParam id="1155" interp="linr"  time="-9999999/1" value="0" leadInLength="0/1"  />
             </VectorParam>
             <VectorParam id="1156"  name="scale">
              <InterpolatingParam id="1157" interp="linr"  time="-9999999/1" value="1" leadInLength="0/1"  />
              <InterpolatingParam id="1158" interp="linr"  time="-9999999/1" value="1" leadInLength="0/1"  />
              <InterpolatingParam id="1159" interp="linr"  time="-9999999/1" value="1" leadInLength="0/1"  />
             </VectorParam>
             <VectorParam id="1160"  name="anchor">
              <InterpolatingParam id="1161" interp="linr"  time="0/1" value="0" leadInLength="0/1"  />
              <InterpolatingParam id="1162" interp="linr"  time="0/1" value="0" leadInLength="0/1"  />
              <InterpolatingParam id="1163" interp="linr"  time="0/1" value="0" leadInLength="0/1"  />
             </VectorParam>
            </Transformer>
            <Parameters>
             <VectorParam id="1164"  name="sourceCrop">
              <InterpolatingParam id="1165" interp="linr"  time="0/1" value="0" leadInLength="0/1"  />
              <InterpolatingParam id="1166" interp="linr"  time="0/1" value="0" leadInLength="0/1"  />
              <InterpolatingParam id="1167" interp="linr"  time="0/1" value="0" leadInLength="0/1"  />
              <InterpolatingParam id="1168" interp="linr"  time="0/1" value="0" leadInLength="0/1"  />
             </VectorParam>
             <VectorParam id="1169"  name="geometryCrop">
              <InterpolatingParam id="1170" interp="linr"  time="-9999999/1" value="0" leadInLength="0/1"  />
              <InterpolatingParam id="1171" interp="linr"  time="-9999999/1" value="0" leadInLength="0/1"  />
              <InterpolatingParam id="1172" interp="linr"  time="-9999999/1" value="0" leadInLength="0/1"  />
              <InterpolatingParam id="1173" interp="linr"  time="-9999999/1" value="0" leadInLength="0/1"  />
             </VectorParam>
             <InterpolatingParam id="1174" interp="linr"  time="-9999999/1" value="1" leadInLength="0/1"  name="opacity"/>
             <InterpolatingParam id="1175" interp="linr"  time="0/1" value="0" leadInLength="0/1"  name="cursorOpacity"/>
             <InterpolatingParam id="1176" interp="linr"  time="0/1" value="0" leadInLength="0/1"  name="cursorScale"/>
            </Parameters>
            <Attributes>
             <Attribute id="1177" value="" name="ident"/>
            </Attributes>
            <MetaData>
             <entry key="AutoAppliedSmartFocus" val="False"/>
             <entry key="WinSubProjectDisplayName" val=""/>
            </MetaData>
            <ExtraData>
             <Entry key="ZoomPanBin">
              <ZoomPanBin id="1178"  >
               <ZoomPanKeyframes>
                <ZoomPanKeyframe id="1179" timeRangeEnd="-9999999/1" timeRangeDuration="0/1" interpolaterName="linr"  />
               </ZoomPanKeyframes>
              </ZoomPanBin>
             </Entry>
             <Entry key="CursorEffectBin">
              <CursorEffectBin id="1180"  >
               <CursorEffectKeyframes>
               </CursorEffectKeyframes>
              </CursorEffectBin>
             </Entry>
            </ExtraData>
           </ScreenVMFile>
           <ScreenIMFile id="1181" start="2640" duration="108030" scalar="1/1" mediaStart="2639/1" mediaDuration="1/1" trackNumber="0" src="14" trimStartSum="0/1" >
            <Transformer>
             <VectorParam id="1182"  name="translation">
              <InterpolatingParam id="1183" interp="linr"  time="-9999999/1" value="0" leadInLength="0/1"  />
              <InterpolatingParam id="1184" interp="linr"  time="-9999999/1" value="0" leadInLength="0/1"  />
              <InterpolatingParam id="1185" interp="linr"  time="-9999999/1" value="0" leadInLength="0/1"  />
             </VectorParam>
             <VectorParam id="1186"  name="rotation">
              <InterpolatingParam id="1187" interp="linr"  time="-9999999/1" value="0" leadInLength="0/1"  />
              <InterpolatingParam id="1188" interp="linr"  time="-9999999/1" value="0" leadInLength="0/1"  />
              <InterpolatingParam id="1189" interp="linr"  time="-9999999/1" value="0" leadInLength="0/1"  />
             </VectorParam>
             <VectorParam id="1190"  name="shear">
              <InterpolatingParam id="1191" interp="linr"  time="-9999999/1" value="0" leadInLength="0/1"  />
              <InterpolatingParam id="1192" interp="linr"  time="-9999999/1" value="0" leadInLength="0/1"  />
              <InterpolatingParam id="1193" interp="linr"  time="-9999999/1" value="0" leadInLength="0/1"  />
             </VectorParam>
             <VectorParam id="1194"  name="scale">
              <InterpolatingParam id="1195" interp="linr"  time="-9999999/1" value="1" leadInLength="0/1"  />
              <InterpolatingParam id="1196" interp="linr"  time="-9999999/1" value="1" leadInLength="0/1"  />
              <InterpolatingParam id="1197" interp="linr"  time="-9999999/1" value="1" leadInLength="0/1"  />
             </VectorParam>
             <VectorParam id="1198"  name="anchor">
              <InterpolatingParam id="1199" interp="linr"  time="0/1" value="0" leadInLength="0/1"  />
              <InterpolatingParam id="1200" interp="linr"  time="0/1" value="0" leadInLength="0/1"  />
              <InterpolatingParam id="1201" interp="linr"  time="0/1" value="0" leadInLength="0/1"  />
             </VectorParam>
            </Transformer>
            <Parameters>
             <VectorParam id="1202"  name="sourceCrop">
              <InterpolatingParam id="1203" interp="linr"  time="0/1" value="0" leadInLength="0/1"  />
              <InterpolatingParam id="1204" interp="linr"  time="0/1" value="0" leadInLength="0/1"  />
              <InterpolatingParam id="1205" interp="linr"  time="0/1" value="0" leadInLength="0/1"  />
              <InterpolatingParam id="1206" interp="linr"  time="0/1" value="0" leadInLength="0/1"  />
             </VectorParam>
             <VectorParam id="1207"  name="geometryCrop">
              <InterpolatingParam id="1208" interp="linr"  time="-9999999/1" value="0" leadInLength="0/1"  />
              <InterpolatingParam id="1209" interp="linr"  time="-9999999/1" value="0" leadInLength="0/1"  />
              <InterpolatingParam id="1210" interp="linr"  time="-9999999/1" value="0" leadInLength="0/1"  />
              <InterpolatingParam id="1211" interp="linr"  time="-9999999/1" value="0" leadInLength="0/1"  />
             </VectorParam>
             <InterpolatingParam id="1212" interp="linr"  time="-9999999/1" value="1" leadInLength="0/1"  name="opacity"/>
             <InterpolatingParam id="1213" interp="linr"  name="cursorLocation">
              <Keyframes>
              <Keyframe id="1214"  time="-114/1" value="(429,392,0)" leadInLength="0/1"  />
              <Keyframe id="1215"  time="-113/1" value="(427,395,0)" leadInLength="0/1"  />
              <Keyframe id="1216"  time="-112/1" value="(419,409,0)" leadInLength="0/1"  />
              <Keyframe id="1217"  time="-111/1" value="(417,414,0)" leadInLength="0/1"  />
              <Keyframe id="1218"  time="-110/1" value="(415,421,0)" leadInLength="0/1"  />
              <Keyframe id="1219"  time="-109/1" value="(411,437,0)" leadInLength="0/1"  />
              <Keyframe id="1220"  time="-108/1" value="(407,446,0)" leadInLength="0/1"  />
              <Keyframe id="1221"  time="-107/1" value="(403,466,0)" leadInLength="0/1"  />
              <Keyframe id="1222"  time="-106/1" value="(403,468,0)" leadInLength="0/1"  />
              <Keyframe id="1223"  time="-105/1" value="(403,474,0)" leadInLength="0/1"  />
              <Keyframe id="1224"  time="-104/1" value="(403,477,0)" leadInLength="0/1"  />
              <Keyframe id="1225"  time="-103/1" value="(402,482,0)" leadInLength="0/1"  />
              <Keyframe id="1226"  time="-102/1" value="(402,484,0)" leadInLength="0/1"  />
              <Keyframe id="1227"  time="-101/1" value="(401,485,0)" leadInLength="0/1"  />
              <Keyframe id="1228"  time="-100/1" value="(400,487,0)" leadInLength="0/1"  />
              <Keyframe id="1229"  time="-99/1" value="(398,491,0)" leadInLength="0/1"  />
              <Keyframe id="1230"  time="-98/1" value="(398,492,0)" leadInLength="0/1"  />
              <Keyframe id="1231"  time="-75/1" value="(396,492,0)" leadInLength="0/1"  />
              <Keyframe id="1232"  time="-74/1" value="(392,492,0)" leadInLength="0/1"  />
              <Keyframe id="1233"  time="-73/1" value="(385,490,0)" leadInLength="0/1"  />
              <Keyframe id="1234"  time="-72/1" value="(373,488,0)" leadInLength="0/1"  />
              <Keyframe id="1235"  time="-71/1" value="(359,486,0)" leadInLength="0/1"  />
              <Keyframe id="1236"  time="-70/1" value="(337,481,0)" leadInLength="0/1"  />
              <Keyframe id="1237"  time="-69/1" value="(272,471,0)" leadInLength="0/1"  />
              <Keyframe id="1238"  time="-68/1" value="(269,471,0)" leadInLength="0/1"  />
              <Keyframe id="1239"  time="-67/1" value="(265,471,0)" leadInLength="0/1"  />
              <Keyframe id="1240"  time="-66/1" value="(251,471,0)" leadInLength="0/1"  />
              <Keyframe id="1241"  time="-65/1" value="(247,471,0)" leadInLength="0/1"  />
              <Keyframe id="1242"  time="-64/1" value="(241,471,0)" leadInLength="0/1"  />
              <Keyframe id="1243"  time="-61/1" value="(232,473,0)" leadInLength="0/1"  />
              <Keyframe id="1244"  time="-44/1" value="(229,473,0)" leadInLength="0/1"  />
              <Keyframe id="1245"  time="-43/1" value="(230,473,0)" leadInLength="0/1"  />
              <Keyframe id="1246"  time="-42/1" value="(238,473,0)" leadInLength="0/1"  />
              <Keyframe id="1247"  time="-41/1" value="(244,473,0)" leadInLength="0/1"  />
              <Keyframe id="1248"  time="-40/1" value="(251,473,0)" leadInLength="0/1"  />
              <Keyframe id="1249"  time="-39/1" value="(267,473,0)" leadInLength="0/1"  />
              <Keyframe id="1250"  time="-38/1" value="(276,473,0)" leadInLength="0/1"  />
              <Keyframe id="1251"  time="-37/1" value="(304,472,0)" leadInLength="0/1"  />
              <Keyframe id="1252"  time="-36/1" value="(313,471,0)" leadInLength="0/1"  />
              <Keyframe id="1253"  time="-35/1" value="(319,471,0)" leadInLength="0/1"  />
              <Keyframe id="1254"  time="-34/1" value="(352,461,0)" leadInLength="0/1"  />
              <Keyframe id="1255"  time="-33/1" value="(356,458,0)" leadInLength="0/1"  />
              <Keyframe id="1256"  time="-32/1" value="(359,456,0)" leadInLength="0/1"  />
              <Keyframe id="1257"  time="-31/1" value="(380,434,0)" leadInLength="0/1"  />
              <Keyframe id="1258"  time="-29/1" value="(380,434,0)" leadInLength="0/1"  />
              <Keyframe id="1259"  time="-27/1" value="(382,433,0)" leadInLength="0/1"  />
              <Keyframe id="1260"  time="-26/1" value="(389,428,0)" leadInLength="0/1"  />
              <Keyframe id="1261"  time="-25/1" value="(391,427,0)" leadInLength="0/1"  />
              <Keyframe id="1262"  time="-24/1" value="(392,427,0)" leadInLength="0/1"  />
              <Keyframe id="1263"  time="-18/1" value="(393,425,0)" leadInLength="0/1"  />
              <Keyframe id="1264"  time="-17/1" value="(393,429,0)" leadInLength="0/1"  />
              <Keyframe id="1265"  time="-16/1" value="(395,456,0)" leadInLength="0/1"  />
              <Keyframe id="1266"  time="-15/1" value="(396,461,0)" leadInLength="0/1"  />
              <Keyframe id="1267"  time="-13/1" value="(396,463,0)" leadInLength="0/1"  />
              <Keyframe id="1268"  time="-12/1" value="(397,469,0)" leadInLength="0/1"  />
              <Keyframe id="1269"  time="-11/1" value="(397,476,0)" leadInLength="0/1"  />
              <Keyframe id="1270"  time="-9/1" value="(397,476,0)" leadInLength="0/1"  />
              <Keyframe id="1271"  time="-6/1" value="(397,476,0)" leadInLength="0/1"  />
              <Keyframe id="1272"  time="0/1" value="(397,476,0)" leadInLength="0/1"  />
              <Keyframe id="1273"  time="1/1" value="(397,486,0)" leadInLength="0/1"  />
              <Keyframe id="1274"  time="2/1" value="(397,494,0)" leadInLength="0/1"  />
              <Keyframe id="1275"  time="3/1" value="(397,497,0)" leadInLength="0/1"  />
              <Keyframe id="1276"  time="4/1" value="(396,529,0)" leadInLength="0/1"  />
              <Keyframe id="1277"  time="5/1" value="(395,533,0)" leadInLength="0/1"  />
              <Keyframe id="1278"  time="6/1" value="(395,536,0)" leadInLength="0/1"  />
              <Keyframe id="1279"  time="7/1" value="(394,540,0)" leadInLength="0/1"  />
              <Keyframe id="1280"  time="8/1" value="(394,545,0)" leadInLength="0/1"  />
              <Keyframe id="1281"  time="9/1" value="(394,546,0)" leadInLength="0/1"  />
              <Keyframe id="1282"  time="10/1" value="(394,550,0)" leadInLength="0/1"  />
              <Keyframe id="1283"  time="48/1" value="(392,550,0)" leadInLength="0/1"  />
              <Keyframe id="1284"  time="49/1" value="(392,550,0)" leadInLength="0/1"  />
              <Keyframe id="1285"  time="50/1" value="(382,549,0)" leadInLength="0/1"  />
              <Keyframe id="1286"  time="51/1" value="(359,542,0)" leadInLength="0/1"  />
              <Keyframe id="1287"  time="52/1" value="(343,539,0)" leadInLength="0/1"  />
              <Keyframe id="1288"  time="53/1" value="(293,531,0)" leadInLength="0/1"  />
              <Keyframe id="1289"  time="54/1" value="(280,528,0)" leadInLength="0/1"  />
              <Keyframe id="1290"  time="55/1" value="(271,527,0)" leadInLength="0/1"  />
              <Keyframe id="1291"  time="56/1" value="(240,519,0)" leadInLength="0/1"  />
              <Keyframe id="1292"  time="57/1" value="(232,518,0)" leadInLength="0/1"  />
              <Keyframe id="1293"  time="58/1" value="(225,517,0)" leadInLength="0/1"  />
              <Keyframe id="1294"  time="126/1" value="(215,516,0)" leadInLength="0/1"  />
              <Keyframe id="1295"  time="127/1" value="(224,515,0)" leadInLength="0/1"  />
              <Keyframe id="1296"  time="128/1" value="(240,515,0)" leadInLength="0/1"  />
              <Keyframe id="1297"  time="129/1" value="(260,513,0)" leadInLength="0/1"  />
              <Keyframe id="1298"  time="130/1" value="(383,505,0)" leadInLength="0/1"  />
              <Keyframe id="1299"  time="131/1" value="(464,499,0)" leadInLength="0/1"  />
              <Keyframe id="1300"  time="132/1" value="(516,494,0)" leadInLength="0/1"  />
              <Keyframe id="1301"  time="133/1" value="(694,482,0)" leadInLength="0/1"  />
              <Keyframe id="1302"  time="134/1" value="(724,479,0)" leadInLength="0/1"  />
              <Keyframe id="1303"  time="135/1" value="(773,477,0)" leadInLength="0/1"  />
              <Keyframe id="1304"  time="136/1" value="(808,476,0)" leadInLength="0/1"  />
              <Keyframe id="1305"  time="137/1" value="(840,475,0)" leadInLength="0/1"  />
              <Keyframe id="1306"  time="138/1" value="(927,474,0)" leadInLength="0/1"  />
              <Keyframe id="1307"  time="139/1" value="(962,473,0)" leadInLength="0/1"  />
              <Keyframe id="1308"  time="140/1" value="(967,471,0)" leadInLength="0/1"  />
              <Keyframe id="1309"  time="141/1" value="(975,468,0)" leadInLength="0/1"  />
              <Keyframe id="1310"  time="142/1" value="(976,467,0)" leadInLength="0/1"  />
              <Keyframe id="1311"  time="143/1" value="(978,465,0)" leadInLength="0/1"  />
              <Keyframe id="1312"  time="144/1" value="(989,461,0)" leadInLength="0/1"  />
              <Keyframe id="1313"  time="145/1" value="(1020,451,0)" leadInLength="0/1"  />
              <Keyframe id="1314"  time="147/1" value="(1021,451,0)" leadInLength="0/1"  />
              <Keyframe id="1315"  time="169/1" value="(1020,451,0)" leadInLength="0/1"  />
              <Keyframe id="1316"  time="170/1" value="(1014,451,0)" leadInLength="0/1"  />
              <Keyframe id="1317"  time="171/1" value="(964,451,0)" leadInLength="0/1"  />
              <Keyframe id="1318"  time="172/1" value="(909,447,0)" leadInLength="0/1"  />
              <Keyframe id="1319"  time="173/1" value="(878,447,0)" leadInLength="0/1"  />
              <Keyframe id="1320"  time="174/1" value="(759,437,0)" leadInLength="0/1"  />
              <Keyframe id="1321"  time="175/1" value="(665,421,0)" leadInLength="0/1"  />
              <Keyframe id="1322"  time="176/1" value="(600,419,0)" leadInLength="0/1"  />
              <Keyframe id="1323"  time="177/1" value="(576,419,0)" leadInLength="0/1"  />
              <Keyframe id="1324"  time="178/1" value="(484,423,0)" leadInLength="0/1"  />
              <Keyframe id="1325"  time="179/1" value="(448,426,0)" leadInLength="0/1"  />
              <Keyframe id="1326"  time="180/1" value="(427,427,0)" leadInLength="0/1"  />
              <Keyframe id="1327"  time="181/1" value="(421,427,0)" leadInLength="0/1"  />
              <Keyframe id="1328"  time="182/1" value="(414,427,0)" leadInLength="0/1"  />
              <Keyframe id="1329"  time="183/1" value="(377,420,0)" leadInLength="0/1"  />
              <Keyframe id="1330"  time="184/1" value="(363,417,0)" leadInLength="0/1"  />
              <Keyframe id="1331"  time="185/1" value="(355,413,0)" leadInLength="0/1"  />
              <Keyframe id="1332"  time="186/1" value="(346,398,0)" leadInLength="0/1"  />
              <Keyframe id="1333"  time="194/1" value="(343,396,0)" leadInLength="0/1"  />
              <Keyframe id="1334"  time="195/1" value="(342,398,0)" leadInLength="0/1"  />
              <Keyframe id="1335"  time="196/1" value="(338,405,0)" leadInLength="0/1"  />
              <Keyframe id="1336"  time="197/1" value="(337,408,0)" leadInLength="0/1"  />
              <Keyframe id="1337"  time="198/1" value="(331,412,0)" leadInLength="0/1"  />
              <Keyframe id="1338"  time="199/1" value="(305,432,0)" leadInLength="0/1"  />
              <Keyframe id="1339"  time="200/1" value="(269,457,0)" leadInLength="0/1"  />
              <Keyframe id="1340"  time="201/1" value="(260,463,0)" leadInLength="0/1"  />
              <Keyframe id="1341"  time="202/1" value="(253,470,0)" leadInLength="0/1"  />
              <Keyframe id="1342"  time="203/1" value="(239,488,0)" leadInLength="0/1"  />
              <Keyframe id="1343"  time="204/1" value="(235,494,0)" leadInLength="0/1"  />
              <Keyframe id="1344"  time="205/1" value="(231,501,0)" leadInLength="0/1"  />
              <Keyframe id="1345"  time="206/1" value="(228,507,0)" leadInLength="0/1"  />
              <Keyframe id="1346"  time="207/1" value="(225,512,0)" leadInLength="0/1"  />
              <Keyframe id="1347"  time="208/1" value="(220,528,0)" leadInLength="0/1"  />
              <Keyframe id="1348"  time="209/1" value="(220,541,0)" leadInLength="0/1"  />
              <Keyframe id="1349"  time="210/1" value="(220,543,0)" leadInLength="0/1"  />
              <Keyframe id="1350"  time="211/1" value="(220,547,0)" leadInLength="0/1"  />
              <Keyframe id="1351"  time="212/1" value="(220,548,0)" leadInLength="0/1"  />
              <Keyframe id="1352"  time="213/1" value="(220,548,0)" leadInLength="0/1"  />
              <Keyframe id="1353"  time="214/1" value="(219,551,0)" leadInLength="0/1"  />
              <Keyframe id="1354"  time="215/1" value="(221,542,0)" leadInLength="0/1"  />
              <Keyframe id="1355"  time="216/1" value="(222,539,0)" leadInLength="0/1"  />
              <Keyframe id="1356"  time="217/1" value="(229,508,0)" leadInLength="0/1"  />
              <Keyframe id="1357"  time="218/1" value="(229,507,0)" leadInLength="0/1"  />
              <Keyframe id="1358"  time="220/1" value="(229,505,0)" leadInLength="0/1"  />
              <Keyframe id="1359"  time="221/1" value="(229,503,0)" leadInLength="0/1"  />
              <Keyframe id="1360"  time="222/1" value="(229,495,0)" leadInLength="0/1"  />
              <Keyframe id="1361"  time="223/1" value="(229,490,0)" leadInLength="0/1"  />
              <Keyframe id="1362"  time="224/1" value="(229,488,0)" leadInLength="0/1"  />
              <Keyframe id="1363"  time="248/1" value="(229,488,0)" leadInLength="0/1"  />
              <Keyframe id="1364"  time="249/1" value="(229,489,0)" leadInLength="0/1"  />
              <Keyframe id="1365"  time="250/1" value="(230,502,0)" leadInLength="0/1"  />
              <Keyframe id="1366"  time="251/1" value="(230,506,0)" leadInLength="0/1"  />
              <Keyframe id="1367"  time="252/1" value="(230,513,0)" leadInLength="0/1"  />
              <Keyframe id="1368"  time="253/1" value="(230,513,0)" leadInLength="0/1"  />
              <Keyframe id="1369"  time="254/1" value="(229,516,0)" leadInLength="0/1"  />
              <Keyframe id="1370"  time="255/1" value="(227,523,0)" leadInLength="0/1"  />
              <Keyframe id="1371"  time="256/1" value="(225,528,0)" leadInLength="0/1"  />
              <Keyframe id="1372"  time="257/1" value="(224,532,0)" leadInLength="0/1"  />
              <Keyframe id="1373"  time="258/1" value="(223,533,0)" leadInLength="0/1"  />
              </Keyframes>
             </InterpolatingParam>
             <InterpolatingParam id="1374" interp="linr"  time="0/1" value="(93,45,1296,775)" leadInLength="0/1"  name="topmostWindowCoordinates"/>
             <InterpolatingParam id="1375" interp="linr"  name="cursorAction">
              <Keyframes>
              <Keyframe id="1376"  time="-97/1" value="1" leadInLength="0/1"  />
              <Keyframe id="1377"  time="-93/1" value="2" leadInLength="0/1"  />
              <Keyframe id="1378"  time="-55/1" value="1" leadInLength="0/1"  />
              <Keyframe id="1379"  time="-53/1" value="2" leadInLength="0/1"  />
              <Keyframe id="1380"  time="-22/1" value="1" leadInLength="0/1"  />
              <Keyframe id="1381"  time="-19/1" value="2" leadInLength="0/1"  />
              <Keyframe id="1382"  time="-8/1" value="1" leadInLength="0/1"  />
              <Keyframe id="1383"  time="-4/1" value="2" leadInLength="0/1"  />
              <Keyframe id="1384"  time="29/1" value="1" leadInLength="0/1"  />
              <Keyframe id="1385"  time="30/1" value="2" leadInLength="0/1"  />
              <Keyframe id="1386"  time="89/1" value="1" leadInLength="0/1"  />
              <Keyframe id="1387"  time="94/1" value="2" leadInLength="0/1"  />
              <Keyframe id="1388"  time="147/1" value="1" leadInLength="0/1"  />
              <Keyframe id="1389"  time="148/1" value="2" leadInLength="0/1"  />
              <Keyframe id="1390"  time="187/1" value="1" leadInLength="0/1"  />
              <Keyframe id="1391"  time="189/1" value="2" leadInLength="0/1"  />
              <Keyframe id="1392"  time="224/1" value="1" leadInLength="0/1"  />
              <Keyframe id="1393"  time="229/1" value="2" leadInLength="0/1"  />
              <Keyframe id="1394"  time="258/1" value="1" leadInLength="0/1"  />
              <Keyframe id="1395"  time="263/1" value="2" leadInLength="0/1"  />
              </Keyframes>
             </InterpolatingParam>
             <Parameter id="1396"  name="cursorImagePath">
              <Keyframes>
              <Keyframe id="1397"  time="0/1" value="0" leadInLength="0/1"  />
              </Keyframes>
             </Parameter>
             <InterpolatingParam id="1398" interp="linr"  time="0/1" value="(101,92,1280,720)" leadInLength="0/1"  name="recordingRegion"/>
             <InterpolatingParam id="1399" interp="linr"  time="0/1" value="0" leadInLength="0/1"  name="cursorOpacity"/>
             <InterpolatingParam id="1400" interp="linr"  time="0/1" value="1" leadInLength="0/1"  name="recordedCursorOpacity"/>
             <InterpolatingParam id="1401" interp="linr"  time="0/1" value="0" leadInLength="0/1"  name="cursorScale"/>
            </Parameters>
            <Attributes>
             <Attribute id="1402" value="" name="ident"/>
            </Attributes>
            <MetaData>
             <entry key="AutoAppliedSmartFocus" val="False"/>
             <entry key="WinSubProjectDisplayName" val=""/>
            </MetaData>
            <ExtraData>
             <Entry key="ZoomPanBin">
              <ZoomPanBin id="1403"  >
               <ZoomPanKeyframes>
                <ZoomPanKeyframe id="1404" timeRangeEnd="-9999999/1" timeRangeDuration="0/1" interpolaterName="linr"  />
               </ZoomPanKeyframes>
              </ZoomPanBin>
             </Entry>
             <Entry key="CursorEffectBin">
              <CursorEffectBin id="1405"  >
               <CursorEffectKeyframes>
               </CursorEffectKeyframes>
              </CursorEffectBin>
             </Entry>
            </ExtraData>
           </ScreenIMFile>
          </Medias>
         </GenericTrack>
        </StitchedMedia>
        <ScreenVMFile id="1406" start="4754" duration="77" scalar="1/1" mediaStart="2635/1" mediaDuration="77/1" trackNumber="0" src="14" >
         <Transformer>
          <VectorParam id="1407"  name="translation">
           <InterpolatingParam id="1408" interp="linr"  time="-9999999/1" value="0" leadInLength="0/1"  />
           <InterpolatingParam id="1409" interp="linr"  time="-9999999/1" value="0" leadInLength="0/1"  />
           <InterpolatingParam id="1410" interp="linr"  time="-9999999/1" value="0" leadInLength="0/1"  />
          </VectorParam>
          <VectorParam id="1411"  name="rotation">
           <InterpolatingParam id="1412" interp="linr"  time="-9999999/1" value="0" leadInLength="0/1"  />
           <InterpolatingParam id="1413" interp="linr"  time="-9999999/1" value="0" leadInLength="0/1"  />
           <InterpolatingParam id="1414" interp="linr"  time="-9999999/1" value="0" leadInLength="0/1"  />
          </VectorParam>
          <VectorParam id="1415"  name="shear">
           <InterpolatingParam id="1416" interp="linr"  time="-9999999/1" value="0" leadInLength="0/1"  />
           <InterpolatingParam id="1417" interp="linr"  time="-9999999/1" value="0" leadInLength="0/1"  />
           <InterpolatingParam id="1418" interp="linr"  time="-9999999/1" value="0" leadInLength="0/1"  />
          </VectorParam>
          <VectorParam id="1419"  name="scale">
           <InterpolatingParam id="1420" interp="linr"  time="-9999999/1" value="1" leadInLength="0/1"  />
           <InterpolatingParam id="1421" interp="linr"  time="-9999999/1" value="1" leadInLength="0/1"  />
           <InterpolatingParam id="1422" interp="linr"  time="-9999999/1" value="1" leadInLength="0/1"  />
          </VectorParam>
          <VectorParam id="1423"  name="anchor">
           <InterpolatingParam id="1424" interp="linr"  time="0/1" value="0" leadInLength="0/1"  />
           <InterpolatingParam id="1425" interp="linr"  time="0/1" value="0" leadInLength="0/1"  />
           <InterpolatingParam id="1426" interp="linr"  time="0/1" value="0" leadInLength="0/1"  />
          </VectorParam>
         </Transformer>
         <Parameters>
          <VectorParam id="1427"  name="sourceCrop">
           <InterpolatingParam id="1428" interp="linr"  time="0/1" value="0" leadInLength="0/1"  />
           <InterpolatingParam id="1429" interp="linr"  time="0/1" value="0" leadInLength="0/1"  />
           <InterpolatingParam id="1430" interp="linr"  time="0/1" value="0" leadInLength="0/1"  />
           <InterpolatingParam id="1431" interp="linr"  time="0/1" value="0" leadInLength="0/1"  />
          </VectorParam>
          <VectorParam id="1432"  name="geometryCrop">
           <InterpolatingParam id="1433" interp="linr"  time="-9999999/1" value="0" leadInLength="0/1"  />
           <InterpolatingParam id="1434" interp="linr"  time="-9999999/1" value="0" leadInLength="0/1"  />
           <InterpolatingParam id="1435" interp="linr"  time="-9999999/1" value="0" leadInLength="0/1"  />
           <InterpolatingParam id="1436" interp="linr"  time="-9999999/1" value="0" leadInLength="0/1"  />
          </VectorParam>
          <InterpolatingParam id="1437" interp="linr"  time="-9999999/1" value="1" leadInLength="0/1"  name="opacity"/>
          <InterpolatingParam id="1438" interp="linr"  time="0/1" value="1" leadInLength="0/1"  name="cursorOpacity"/>
          <InterpolatingParam id="1439" interp="linr"  time="0/1" value="1" leadInLength="0/1"  name="cursorScale"/>
         </Parameters>
         <Effects>
          <GenericEffect id="1440" name = "CursorBaseEffectName" >
           <Parameters>
           <InterpolatingParam id="1441" interp="linr"  time="-9999999/1" value="1" leadInLength="0/1"   name="cursorSize"/>
           <InterpolatingParam id="1442" interp="linr"  time="-9999999/1" value="0" leadInLength="0/1"   name="highlightBlurRadius"/>
           <InterpolatingParam id="1443" interp="linr"  time="-9999999/1" value="0" leadInLength="0/1"   name="highlightColorBlue"/>
           <InterpolatingParam id="1444" interp="linr"  time="-9999999/1" value="255" leadInLength="0/1"   name="highlightColorGreen"/>
           <InterpolatingParam id="1445" interp="linr"  time="-9999999/1" value="255" leadInLength="0/1"   name="highlightColorRed"/>
           <InterpolatingParam id="1446" interp="linr"  time="-9999999/1" value="5" leadInLength="0/1"   name="highlightFeatherSize"/>
           <InterpolatingParam id="1447" interp="linr"  time="-9999999/1" value="2" leadInLength="0/1"   name="highlightMagnification"/>
           <InterpolatingParam id="1448" interp="linr"  time="-9999999/1" value="1" leadInLength="0/1"   name="highlightOpacity"/>
           <InterpolatingParam id="1449" interp="linr"  time="-9999999/1" value="45" leadInLength="0/1"   name="highlightSize"/>
           <Parameter id="1450"   name="highlightType">
            <Keyframes>
            <Keyframe id="1451"  time="-9999999/1" value="0" leadInLength="0/1"  />
            </Keyframes>
           </Parameter>
           <InterpolatingParam id="1452" interp="linr"  time="-9999999/1" value="0" leadInLength="0/1"   name="leftClickColorBlue"/>
           <InterpolatingParam id="1453" interp="linr"  time="-9999999/1" value="0" leadInLength="0/1"   name="leftClickColorGreen"/>
           <InterpolatingParam id="1454" interp="linr"  time="-9999999/1" value="255" leadInLength="0/1"   name="leftClickColorRed"/>
           <InterpolatingParam id="1455" interp="linr"  time="-9999999/1" value="0.80000000000000004" leadInLength="0/1"   name="leftClickDuration"/>
           <InterpolatingParam id="1456" interp="linr"  time="-9999999/1" value="20" leadInLength="0/1"   name="leftClickSize"/>
           <Parameter id="1457"   name="leftClickSoundFilename">
            <Keyframes>
            <Keyframe id="1458"  time="-9999999/1" value="" leadInLength="0/1"  />
            </Keyframes>
           </Parameter>
           <InterpolatingParam id="1459" interp="linr"  time="-9999999/1" value="1" leadInLength="0/1"   name="leftClickSoundVolume"/>
           <Parameter id="1460"   name="leftClickType">
            <Keyframes>
            <Keyframe id="1461"  time="-9999999/1" value="0" leadInLength="0/1"  />
            </Keyframes>
           </Parameter>
           <InterpolatingParam id="1462" interp="linr"  time="-9999999/1" value="1" leadInLength="0/1"   name="opacity"/>
           <InterpolatingParam id="1463" interp="linr"  time="-9999999/1" value="255" leadInLength="0/1"   name="rightClickColorBlue"/>
           <InterpolatingParam id="1464" interp="linr"  time="-9999999/1" value="0" leadInLength="0/1"   name="rightClickColorGreen"/>
           <InterpolatingParam id="1465" interp="linr"  time="-9999999/1" value="0" leadInLength="0/1"   name="rightClickColorRed"/>
           <InterpolatingParam id="1466" interp="linr"  time="-9999999/1" value="0.80000000000000004" leadInLength="0/1"   name="rightClickDuration"/>
           <InterpolatingParam id="1467" interp="linr"  time="-9999999/1" value="20" leadInLength="0/1"   name="rightClickSize"/>
           <Parameter id="1468"   name="rightClickSoundFilename">
            <Keyframes>
            <Keyframe id="1469"  time="-9999999/1" value="" leadInLength="0/1"  />
            </Keyframes>
           </Parameter>
           <InterpolatingParam id="1470" interp="linr"  time="-9999999/1" value="1" leadInLength="0/1"   name="rightClickSoundVolume"/>
           <Parameter id="1471"   name="rightClickType">
            <Keyframes>
            <Keyframe id="1472"  time="-9999999/1" value="0" leadInLength="0/1"  />
            </Keyframes>
           </Parameter>
           </Parameters>
          </GenericEffect>
         </Effects>
         <Attributes>
          <Attribute id="1473" value="" name="ident"/>
         </Attributes>
         <MetaData>
          <entry key="AutoAppliedSmartFocus" val="False"/>
          <entry key="WinSubProjectDisplayName" val=""/>
         </MetaData>
         <ExtraData>
          <Entry key="ZoomPanBin">
           <ZoomPanBin id="1474"  >
            <ZoomPanKeyframes>
             <ZoomPanKeyframe id="1475" timeRangeEnd="-9999999/1" timeRangeDuration="0/1" interpolaterName="linr"  />
            </ZoomPanKeyframes>
           </ZoomPanBin>
          </Entry>
          <Entry key="CursorEffectBin">
           <CursorEffectBin id="1476"  >
            <CursorEffectKeyframes>
             <CursorEffectKeyframe id="1477" timeRangeEnd="-9999999/1" timeRangeDuration="0/1" interpolaterName=""  />
            </CursorEffectKeyframes>
           </CursorEffectBin>
          </Entry>
         </ExtraData>
        </ScreenVMFile>
        <ScreenVMFile id="1478" start="4831" duration="158" scalar="1/1" mediaStart="2689/1" mediaDuration="158/1" trackNumber="0" src="14" >
         <Transformer>
          <VectorParam id="1479"  name="translation">
           <InterpolatingParam id="1480" interp="linr"  time="-9999999/1" value="0" leadInLength="0/1"  />
           <InterpolatingParam id="1481" interp="linr"  time="-9999999/1" value="0" leadInLength="0/1"  />
           <InterpolatingParam id="1482" interp="linr"  time="-9999999/1" value="0" leadInLength="0/1"  />
          </VectorParam>
          <VectorParam id="1483"  name="rotation">
           <InterpolatingParam id="1484" interp="linr"  time="-9999999/1" value="0" leadInLength="0/1"  />
           <InterpolatingParam id="1485" interp="linr"  time="-9999999/1" value="0" leadInLength="0/1"  />
           <InterpolatingParam id="1486" interp="linr"  time="-9999999/1" value="0" leadInLength="0/1"  />
          </VectorParam>
          <VectorParam id="1487"  name="shear">
           <InterpolatingParam id="1488" interp="linr"  time="-9999999/1" value="0" leadInLength="0/1"  />
           <InterpolatingParam id="1489" interp="linr"  time="-9999999/1" value="0" leadInLength="0/1"  />
           <InterpolatingParam id="1490" interp="linr"  time="-9999999/1" value="0" leadInLength="0/1"  />
          </VectorParam>
          <VectorParam id="1491"  name="scale">
           <InterpolatingParam id="1492" interp="linr"  time="-9999999/1" value="1" leadInLength="0/1"  />
           <InterpolatingParam id="1493" interp="linr"  time="-9999999/1" value="1" leadInLength="0/1"  />
           <InterpolatingParam id="1494" interp="linr"  time="-9999999/1" value="1" leadInLength="0/1"  />
          </VectorParam>
          <VectorParam id="1495"  name="anchor">
           <InterpolatingParam id="1496" interp="linr"  time="0/1" value="0" leadInLength="0/1"  />
           <InterpolatingParam id="1497" interp="linr"  time="0/1" value="0" leadInLength="0/1"  />
           <InterpolatingParam id="1498" interp="linr"  time="0/1" value="0" leadInLength="0/1"  />
          </VectorParam>
         </Transformer>
         <Parameters>
          <VectorParam id="1499"  name="sourceCrop">
           <InterpolatingParam id="1500" interp="linr"  time="0/1" value="0" leadInLength="0/1"  />
           <InterpolatingParam id="1501" interp="linr"  time="0/1" value="0" leadInLength="0/1"  />
           <InterpolatingParam id="1502" interp="linr"  time="0/1" value="0" leadInLength="0/1"  />
           <InterpolatingParam id="1503" interp="linr"  time="0/1" value="0" leadInLength="0/1"  />
          </VectorParam>
          <VectorParam id="1504"  name="geometryCrop">
           <InterpolatingParam id="1505" interp="linr"  time="-9999999/1" value="0" leadInLength="0/1"  />
           <InterpolatingParam id="1506" interp="linr"  time="-9999999/1" value="0" leadInLength="0/1"  />
           <InterpolatingParam id="1507" interp="linr"  time="-9999999/1" value="0" leadInLength="0/1"  />
           <InterpolatingParam id="1508" interp="linr"  time="-9999999/1" value="0" leadInLength="0/1"  />
          </VectorParam>
          <InterpolatingParam id="1509" interp="linr"  time="-9999999/1" value="1" leadInLength="0/1"  name="opacity"/>
          <InterpolatingParam id="1510" interp="linr"  time="0/1" value="1" leadInLength="0/1"  name="cursorOpacity"/>
          <InterpolatingParam id="1511" interp="linr"  time="0/1" value="1" leadInLength="0/1"  name="cursorScale"/>
         </Parameters>
         <Effects>
          <GenericEffect id="1512" name = "CursorBaseEffectName" >
           <Parameters>
           <InterpolatingParam id="1513" interp="linr"  time="-9999999/1" value="1" leadInLength="0/1"   name="cursorSize"/>
           <InterpolatingParam id="1514" interp="linr"  time="-9999999/1" value="0" leadInLength="0/1"   name="highlightBlurRadius"/>
           <InterpolatingParam id="1515" interp="linr"  time="-9999999/1" value="0" leadInLength="0/1"   name="highlightColorBlue"/>
           <InterpolatingParam id="1516" interp="linr"  time="-9999999/1" value="255" leadInLength="0/1"   name="highlightColorGreen"/>
           <InterpolatingParam id="1517" interp="linr"  time="-9999999/1" value="255" leadInLength="0/1"   name="highlightColorRed"/>
           <InterpolatingParam id="1518" interp="linr"  time="-9999999/1" value="5" leadInLength="0/1"   name="highlightFeatherSize"/>
           <InterpolatingParam id="1519" interp="linr"  time="-9999999/1" value="2" leadInLength="0/1"   name="highlightMagnification"/>
           <InterpolatingParam id="1520" interp="linr"  time="-9999999/1" value="1" leadInLength="0/1"   name="highlightOpacity"/>
           <InterpolatingParam id="1521" interp="linr"  time="-9999999/1" value="45" leadInLength="0/1"   name="highlightSize"/>
           <Parameter id="1522"   name="highlightType">
            <Keyframes>
            <Keyframe id="1523"  time="-9999999/1" value="0" leadInLength="0/1"  />
            </Keyframes>
           </Parameter>
           <InterpolatingParam id="1524" interp="linr"  time="-9999999/1" value="0" leadInLength="0/1"   name="leftClickColorBlue"/>
           <InterpolatingParam id="1525" interp="linr"  time="-9999999/1" value="0" leadInLength="0/1"   name="leftClickColorGreen"/>
           <InterpolatingParam id="1526" interp="linr"  time="-9999999/1" value="255" leadInLength="0/1"   name="leftClickColorRed"/>
           <InterpolatingParam id="1527" interp="linr"  time="-9999999/1" value="0.80000000000000004" leadInLength="0/1"   name="leftClickDuration"/>
           <InterpolatingParam id="1528" interp="linr"  time="-9999999/1" value="20" leadInLength="0/1"   name="leftClickSize"/>
           <Parameter id="1529"   name="leftClickSoundFilename">
            <Keyframes>
            <Keyframe id="1530"  time="-9999999/1" value="" leadInLength="0/1"  />
            </Keyframes>
           </Parameter>
           <InterpolatingParam id="1531" interp="linr"  time="-9999999/1" value="1" leadInLength="0/1"   name="leftClickSoundVolume"/>
           <Parameter id="1532"   name="leftClickType">
            <Keyframes>
            <Keyframe id="1533"  time="-9999999/1" value="0" leadInLength="0/1"  />
            </Keyframes>
           </Parameter>
           <InterpolatingParam id="1534" interp="linr"  time="-9999999/1" value="1" leadInLength="0/1"   name="opacity"/>
           <InterpolatingParam id="1535" interp="linr"  time="-9999999/1" value="255" leadInLength="0/1"   name="rightClickColorBlue"/>
           <InterpolatingParam id="1536" interp="linr"  time="-9999999/1" value="0" leadInLength="0/1"   name="rightClickColorGreen"/>
           <InterpolatingParam id="1537" interp="linr"  time="-9999999/1" value="0" leadInLength="0/1"   name="rightClickColorRed"/>
           <InterpolatingParam id="1538" interp="linr"  time="-9999999/1" value="0.80000000000000004" leadInLength="0/1"   name="rightClickDuration"/>
           <InterpolatingParam id="1539" interp="linr"  time="-9999999/1" value="20" leadInLength="0/1"   name="rightClickSize"/>
           <Parameter id="1540"   name="rightClickSoundFilename">
            <Keyframes>
            <Keyframe id="1541"  time="-9999999/1" value="" leadInLength="0/1"  />
            </Keyframes>
           </Parameter>
           <InterpolatingParam id="1542" interp="linr"  time="-9999999/1" value="1" leadInLength="0/1"   name="rightClickSoundVolume"/>
           <Parameter id="1543"   name="rightClickType">
            <Keyframes>
            <Keyframe id="1544"  time="-9999999/1" value="0" leadInLength="0/1"  />
            </Keyframes>
           </Parameter>
           </Parameters>
          </GenericEffect>
         </Effects>
         <Attributes>
          <Attribute id="1545" value="" name="ident"/>
         </Attributes>
         <MetaData>
          <entry key="AutoAppliedSmartFocus" val="False"/>
          <entry key="WinSubProjectDisplayName" val=""/>
         </MetaData>
         <ExtraData>
          <Entry key="ZoomPanBin">
           <ZoomPanBin id="1546"  >
            <ZoomPanKeyframes>
             <ZoomPanKeyframe id="1547" timeRangeEnd="-9999999/1" timeRangeDuration="0/1" interpolaterName="linr"  />
            </ZoomPanKeyframes>
           </ZoomPanBin>
          </Entry>
          <Entry key="CursorEffectBin">
           <CursorEffectBin id="1548"  >
            <CursorEffectKeyframes>
             <CursorEffectKeyframe id="1549" timeRangeEnd="-9999999/1" timeRangeDuration="0/1" interpolaterName=""  />
            </CursorEffectKeyframes>
           </CursorEffectBin>
          </Entry>
         </ExtraData>
        </ScreenVMFile>
        <ScreenVMFile id="1550" start="4989" duration="388" scalar="388/505" mediaStart="2847/1" mediaDuration="505/1" trackNumber="0" src="14" >
         <Transformer>
          <VectorParam id="1551"  name="translation">
           <InterpolatingParam id="1552" interp="linr"  time="-9999999/1" value="0" leadInLength="0/1"  />
           <InterpolatingParam id="1553" interp="linr"  time="-9999999/1" value="0" leadInLength="0/1"  />
           <InterpolatingParam id="1554" interp="linr"  time="-9999999/1" value="0" leadInLength="0/1"  />
          </VectorParam>
          <VectorParam id="1555"  name="rotation">
           <InterpolatingParam id="1556" interp="linr"  time="-9999999/1" value="0" leadInLength="0/1"  />
           <InterpolatingParam id="1557" interp="linr"  time="-9999999/1" value="0" leadInLength="0/1"  />
           <InterpolatingParam id="1558" interp="linr"  time="-9999999/1" value="0" leadInLength="0/1"  />
          </VectorParam>
          <VectorParam id="1559"  name="shear">
           <InterpolatingParam id="1560" interp="linr"  time="-9999999/1" value="0" leadInLength="0/1"  />
           <InterpolatingParam id="1561" interp="linr"  time="-9999999/1" value="0" leadInLength="0/1"  />
           <InterpolatingParam id="1562" interp="linr"  time="-9999999/1" value="0" leadInLength="0/1"  />
          </VectorParam>
          <VectorParam id="1563"  name="scale">
           <InterpolatingParam id="1564" interp="linr"  time="-9999999/1" value="1" leadInLength="0/1"  />
           <InterpolatingParam id="1565" interp="linr"  time="-9999999/1" value="1" leadInLength="0/1"  />
           <InterpolatingParam id="1566" interp="linr"  time="-9999999/1" value="1" leadInLength="0/1"  />
          </VectorParam>
          <VectorParam id="1567"  name="anchor">
           <InterpolatingParam id="1568" interp="linr"  time="0/1" value="0" leadInLength="0/1"  />
           <InterpolatingParam id="1569" interp="linr"  time="0/1" value="0" leadInLength="0/1"  />
           <InterpolatingParam id="1570" interp="linr"  time="0/1" value="0" leadInLength="0/1"  />
          </VectorParam>
         </Transformer>
         <Parameters>
          <VectorParam id="1571"  name="sourceCrop">
           <InterpolatingParam id="1572" interp="linr"  time="0/1" value="0" leadInLength="0/1"  />
           <InterpolatingParam id="1573" interp="linr"  time="0/1" value="0" leadInLength="0/1"  />
           <InterpolatingParam id="1574" interp="linr"  time="0/1" value="0" leadInLength="0/1"  />
           <InterpolatingParam id="1575" interp="linr"  time="0/1" value="0" leadInLength="0/1"  />
          </VectorParam>
          <VectorParam id="1576"  name="geometryCrop">
           <InterpolatingParam id="1577" interp="linr"  time="-9999999/1" value="0" leadInLength="0/1"  />
           <InterpolatingParam id="1578" interp="linr"  time="-9999999/1" value="0" leadInLength="0/1"  />
           <InterpolatingParam id="1579" interp="linr"  time="-9999999/1" value="0" leadInLength="0/1"  />
           <InterpolatingParam id="1580" interp="linr"  time="-9999999/1" value="0" leadInLength="0/1"  />
          </VectorParam>
          <InterpolatingParam id="1581" interp="linr"  time="-9999999/1" value="1" leadInLength="0/1"  name="opacity"/>
          <InterpolatingParam id="1582" interp="linr"  time="0/1" value="1" leadInLength="0/1"  name="cursorOpacity"/>
          <InterpolatingParam id="1583" interp="linr"  time="0/1" value="1" leadInLength="0/1"  name="cursorScale"/>
         </Parameters>
         <Effects>
          <GenericEffect id="1584" name = "CursorBaseEffectName" >
           <Parameters>
           <InterpolatingParam id="1585" interp="linr"  time="-9999999/1" value="1" leadInLength="0/1"   name="cursorSize"/>
           <InterpolatingParam id="1586" interp="linr"  time="-9999999/1" value="0" leadInLength="0/1"   name="highlightBlurRadius"/>
           <InterpolatingParam id="1587" interp="linr"  time="-9999999/1" value="0" leadInLength="0/1"   name="highlightColorBlue"/>
           <InterpolatingParam id="1588" interp="linr"  time="-9999999/1" value="255" leadInLength="0/1"   name="highlightColorGreen"/>
           <InterpolatingParam id="1589" interp="linr"  time="-9999999/1" value="255" leadInLength="0/1"   name="highlightColorRed"/>
           <InterpolatingParam id="1590" interp="linr"  time="-9999999/1" value="5" leadInLength="0/1"   name="highlightFeatherSize"/>
           <InterpolatingParam id="1591" interp="linr"  time="-9999999/1" value="2" leadInLength="0/1"   name="highlightMagnification"/>
           <InterpolatingParam id="1592" interp="linr"  time="-9999999/1" value="1" leadInLength="0/1"   name="highlightOpacity"/>
           <InterpolatingParam id="1593" interp="linr"  time="-9999999/1" value="45" leadInLength="0/1"   name="highlightSize"/>
           <Parameter id="1594"   name="highlightType">
            <Keyframes>
            <Keyframe id="1595"  time="-9999999/1" value="0" leadInLength="0/1"  />
            </Keyframes>
           </Parameter>
           <InterpolatingParam id="1596" interp="linr"  time="-9999999/1" value="0" leadInLength="0/1"   name="leftClickColorBlue"/>
           <InterpolatingParam id="1597" interp="linr"  time="-9999999/1" value="0" leadInLength="0/1"   name="leftClickColorGreen"/>
           <InterpolatingParam id="1598" interp="linr"  time="-9999999/1" value="255" leadInLength="0/1"   name="leftClickColorRed"/>
           <InterpolatingParam id="1599" interp="linr"  time="-9999999/1" value="0.80000000000000004" leadInLength="0/1"   name="leftClickDuration"/>
           <InterpolatingParam id="1600" interp="linr"  time="-9999999/1" value="20" leadInLength="0/1"   name="leftClickSize"/>
           <Parameter id="1601"   name="leftClickSoundFilename">
            <Keyframes>
            <Keyframe id="1602"  time="-9999999/1" value="" leadInLength="0/1"  />
            </Keyframes>
           </Parameter>
           <InterpolatingParam id="1603" interp="linr"  time="-9999999/1" value="1" leadInLength="0/1"   name="leftClickSoundVolume"/>
           <Parameter id="1604"   name="leftClickType">
            <Keyframes>
            <Keyframe id="1605"  time="-9999999/1" value="0" leadInLength="0/1"  />
            </Keyframes>
           </Parameter>
           <InterpolatingParam id="1606" interp="linr"  time="-9999999/1" value="1" leadInLength="0/1"   name="opacity"/>
           <InterpolatingParam id="1607" interp="linr"  time="-9999999/1" value="255" leadInLength="0/1"   name="rightClickColorBlue"/>
           <InterpolatingParam id="1608" interp="linr"  time="-9999999/1" value="0" leadInLength="0/1"   name="rightClickColorGreen"/>
           <InterpolatingParam id="1609" interp="linr"  time="-9999999/1" value="0" leadInLength="0/1"   name="rightClickColorRed"/>
           <InterpolatingParam id="1610" interp="linr"  time="-9999999/1" value="0.80000000000000004" leadInLength="0/1"   name="rightClickDuration"/>
           <InterpolatingParam id="1611" interp="linr"  time="-9999999/1" value="20" leadInLength="0/1"   name="rightClickSize"/>
           <Parameter id="1612"   name="rightClickSoundFilename">
            <Keyframes>
            <Keyframe id="1613"  time="-9999999/1" value="" leadInLength="0/1"  />
            </Keyframes>
           </Parameter>
           <InterpolatingParam id="1614" interp="linr"  time="-9999999/1" value="1" leadInLength="0/1"   name="rightClickSoundVolume"/>
           <Parameter id="1615"   name="rightClickType">
            <Keyframes>
            <Keyframe id="1616"  time="-9999999/1" value="0" leadInLength="0/1"  />
            </Keyframes>
           </Parameter>
           </Parameters>
          </GenericEffect>
         </Effects>
         <Attributes>
          <Attribute id="1617" value="" name="ident"/>
         </Attributes>
         <MetaData>
          <entry key="AutoAppliedSmartFocus" val="False"/>
          <entry key="WinSubProjectDisplayName" val=""/>
         </MetaData>
         <ExtraData>
          <Entry key="ZoomPanBin">
           <ZoomPanBin id="1618"  >
            <ZoomPanKeyframes>
             <ZoomPanKeyframe id="1619" timeRangeEnd="-9999999/1" timeRangeDuration="0/1" interpolaterName="linr"  />
            </ZoomPanKeyframes>
           </ZoomPanBin>
          </Entry>
          <Entry key="CursorEffectBin">
           <CursorEffectBin id="1620"  >
            <CursorEffectKeyframes>
             <CursorEffectKeyframe id="1621" timeRangeEnd="-9999999/1" timeRangeDuration="0/1" interpolaterName=""  />
            </CursorEffectKeyframes>
           </CursorEffectBin>
          </Entry>
         </ExtraData>
        </ScreenVMFile>
        <StitchedMedia id="1622" start="5377" duration="368" scalar="1/1" mediaStart="3352/1" mediaDuration="368/1" minMediaStart="0/1" >
         <Transformer>
          <VectorParam id="1623"  name="translation">
           <InterpolatingParam id="1624" interp="linr"  time="-9999999/1" value="0" leadInLength="0/1"  />
           <InterpolatingParam id="1625" interp="linr"  time="-9999999/1" value="0" leadInLength="0/1"  />
           <InterpolatingParam id="1626" interp="linr"  time="-9999999/1" value="0" leadInLength="0/1"  />
          </VectorParam>
          <VectorParam id="1627"  name="rotation">
           <InterpolatingParam id="1628" interp="linr"  time="-9999999/1" value="0" leadInLength="0/1"  />
           <InterpolatingParam id="1629" interp="linr"  time="-9999999/1" value="0" leadInLength="0/1"  />
           <InterpolatingParam id="1630" interp="linr"  time="-9999999/1" value="0" leadInLength="0/1"  />
          </VectorParam>
          <VectorParam id="1631"  name="shear">
           <InterpolatingParam id="1632" interp="linr"  time="-9999999/1" value="0" leadInLength="0/1"  />
           <InterpolatingParam id="1633" interp="linr"  time="-9999999/1" value="0" leadInLength="0/1"  />
           <InterpolatingParam id="1634" interp="linr"  time="-9999999/1" value="0" leadInLength="0/1"  />
          </VectorParam>
          <VectorParam id="1635"  name="scale">
           <InterpolatingParam id="1636" interp="linr"  time="-9999999/1" value="1" leadInLength="0/1"  />
           <InterpolatingParam id="1637" interp="linr"  time="-9999999/1" value="1" leadInLength="0/1"  />
           <InterpolatingParam id="1638" interp="linr"  time="-9999999/1" value="1" leadInLength="0/1"  />
          </VectorParam>
          <VectorParam id="1639"  name="anchor">
           <InterpolatingParam id="1640" interp="linr"  >
            <Keyframes>
            <Keyframe id="1641"  time="0/1" value="0" leadInLength="0/1"  />
            <Keyframe id="1642"  time="3572/1" value="0" leadInLength="0/1"  />
            </Keyframes>
           </InterpolatingParam>
           <InterpolatingParam id="1643" interp="linr"  >
            <Keyframes>
            <Keyframe id="1644"  time="0/1" value="0" leadInLength="0/1"  />
            <Keyframe id="1645"  time="3572/1" value="0" leadInLength="0/1"  />
            </Keyframes>
           </InterpolatingParam>
           <InterpolatingParam id="1646" interp="linr"  >
            <Keyframes>
            <Keyframe id="1647"  time="0/1" value="0" leadInLength="0/1"  />
            <Keyframe id="1648"  time="3572/1" value="0" leadInLength="0/1"  />
            </Keyframes>
           </InterpolatingParam>
          </VectorParam>
         </Transformer>
         <Parameters>
          <VectorParam id="1649"  name="sourceCrop">
           <InterpolatingParam id="1650" interp="linr"  >
            <Keyframes>
            <Keyframe id="1651"  time="0/1" value="0" leadInLength="0/1"  />
            <Keyframe id="1652"  time="3572/1" value="0" leadInLength="0/1"  />
            </Keyframes>
           </InterpolatingParam>
           <InterpolatingParam id="1653" interp="linr"  >
            <Keyframes>
            <Keyframe id="1654"  time="0/1" value="0" leadInLength="0/1"  />
            <Keyframe id="1655"  time="3572/1" value="0" leadInLength="0/1"  />
            </Keyframes>
           </InterpolatingParam>
           <InterpolatingParam id="1656" interp="linr"  >
            <Keyframes>
            <Keyframe id="1657"  time="0/1" value="0" leadInLength="0/1"  />
            <Keyframe id="1658"  time="3572/1" value="0" leadInLength="0/1"  />
            </Keyframes>
           </InterpolatingParam>
           <InterpolatingParam id="1659" interp="linr"  >
            <Keyframes>
            <Keyframe id="1660"  time="0/1" value="0" leadInLength="0/1"  />
            <Keyframe id="1661"  time="3572/1" value="0" leadInLength="0/1"  />
            </Keyframes>
           </InterpolatingParam>
          </VectorParam>
          <VectorParam id="1662"  name="geometryCrop">
           <InterpolatingParam id="1663" interp="linr"  time="-9999999/1" value="0" leadInLength="0/1"  />
           <InterpolatingParam id="1664" interp="linr"  time="-9999999/1" value="0" leadInLength="0/1"  />
           <InterpolatingParam id="1665" interp="linr"  time="-9999999/1" value="0" leadInLength="0/1"  />
           <InterpolatingParam id="1666" interp="linr"  time="-9999999/1" value="0" leadInLength="0/1"  />
          </VectorParam>
          <InterpolatingParam id="1667" interp="linr"  time="-9999999/1" value="1" leadInLength="0/1"  name="opacity"/>
          <InterpolatingParam id="1668" interp="linr"  time="0/1" value="1" leadInLength="0/1"  name="cursorOpacity"/>
          <InterpolatingParam id="1669" interp="linr"  name="cursorScale">
           <Keyframes>
           <Keyframe id="1670"  time="0/1" value="1" leadInLength="0/1"  />
           <Keyframe id="1671"  time="3572/1" value="1" leadInLength="0/1"  />
           </Keyframes>
          </InterpolatingParam>
          <Parameter id="1672"  name="captions"/>
         </Parameters>
         <Effects>
          <GenericEffect id="1673" name = "CursorBaseEffectName" >
           <Parameters>
           <InterpolatingParam id="1674" interp="linr"  time="-9999999/1" value="1" leadInLength="0/1"   name="cursorSize"/>
           <InterpolatingParam id="1675" interp="linr"  time="-9999999/1" value="0" leadInLength="0/1"   name="highlightBlurRadius"/>
           <InterpolatingParam id="1676" interp="linr"  time="-9999999/1" value="0" leadInLength="0/1"   name="highlightColorBlue"/>
           <InterpolatingParam id="1677" interp="linr"  time="-9999999/1" value="255" leadInLength="0/1"   name="highlightColorGreen"/>
           <InterpolatingParam id="1678" interp="linr"  time="-9999999/1" value="255" leadInLength="0/1"   name="highlightColorRed"/>
           <InterpolatingParam id="1679" interp="linr"  time="-9999999/1" value="5" leadInLength="0/1"   name="highlightFeatherSize"/>
           <InterpolatingParam id="1680" interp="linr"  time="-9999999/1" value="2" leadInLength="0/1"   name="highlightMagnification"/>
           <InterpolatingParam id="1681" interp="linr"  time="-9999999/1" value="1" leadInLength="0/1"   name="highlightOpacity"/>
           <InterpolatingParam id="1682" interp="linr"  time="-9999999/1" value="45" leadInLength="0/1"   name="highlightSize"/>
           <Parameter id="1683"   name="highlightType">
            <Keyframes>
            <Keyframe id="1684"  time="-9999999/1" value="0" leadInLength="0/1"  />
            </Keyframes>
           </Parameter>
           <InterpolatingParam id="1685" interp="linr"  time="-9999999/1" value="0" leadInLength="0/1"   name="leftClickColorBlue"/>
           <InterpolatingParam id="1686" interp="linr"  time="-9999999/1" value="0" leadInLength="0/1"   name="leftClickColorGreen"/>
           <InterpolatingParam id="1687" interp="linr"  time="-9999999/1" value="255" leadInLength="0/1"   name="leftClickColorRed"/>
           <InterpolatingParam id="1688" interp="linr"  time="-9999999/1" value="0.80000000000000004" leadInLength="0/1"   name="leftClickDuration"/>
           <InterpolatingParam id="1689" interp="linr"  time="-9999999/1" value="20" leadInLength="0/1"   name="leftClickSize"/>
           <Parameter id="1690"   name="leftClickSoundFilename">
            <Keyframes>
            <Keyframe id="1691"  time="-9999999/1" value="" leadInLength="0/1"  />
            </Keyframes>
           </Parameter>
           <InterpolatingParam id="1692" interp="linr"  time="-9999999/1" value="1" leadInLength="0/1"   name="leftClickSoundVolume"/>
           <Parameter id="1693"   name="leftClickType">
            <Keyframes>
            <Keyframe id="1694"  time="-9999999/1" value="0" leadInLength="0/1"  />
            </Keyframes>
           </Parameter>
           <InterpolatingParam id="1695" interp="linr"  time="-9999999/1" value="1" leadInLength="0/1"   name="opacity"/>
           <InterpolatingParam id="1696" interp="linr"  time="-9999999/1" value="255" leadInLength="0/1"   name="rightClickColorBlue"/>
           <InterpolatingParam id="1697" interp="linr"  time="-9999999/1" value="0" leadInLength="0/1"   name="rightClickColorGreen"/>
           <InterpolatingParam id="1698" interp="linr"  time="-9999999/1" value="0" leadInLength="0/1"   name="rightClickColorRed"/>
           <InterpolatingParam id="1699" interp="linr"  time="-9999999/1" value="0.80000000000000004" leadInLength="0/1"   name="rightClickDuration"/>
           <InterpolatingParam id="1700" interp="linr"  time="-9999999/1" value="20" leadInLength="0/1"   name="rightClickSize"/>
           <Parameter id="1701"   name="rightClickSoundFilename">
            <Keyframes>
            <Keyframe id="1702"  time="-9999999/1" value="" leadInLength="0/1"  />
            </Keyframes>
           </Parameter>
           <InterpolatingParam id="1703" interp="linr"  time="-9999999/1" value="1" leadInLength="0/1"   name="rightClickSoundVolume"/>
           <Parameter id="1704"   name="rightClickType">
            <Keyframes>
            <Keyframe id="1705"  time="-9999999/1" value="0" leadInLength="0/1"  />
            </Keyframes>
           </Parameter>
           </Parameters>
          </GenericEffect>
         </Effects>
         <Attributes>
          <Attribute id="1706" value="" name="ident"/>
         </Attributes>
         <MetaData>
          <entry key="AutoAppliedSmartFocus" val="False"/>
          <entry key="WinSubProjectDisplayName" val=""/>
         </MetaData>
         <ExtraData>
          <Entry key="ZoomPanBin">
           <ZoomPanBin id="1707"  >
            <ZoomPanKeyframes>
             <ZoomPanKeyframe id="1708" timeRangeEnd="-9999999/1" timeRangeDuration="0/1" interpolaterName="linr"  />
            </ZoomPanKeyframes>
           </ZoomPanBin>
          </Entry>
          <Entry key="CursorEffectBin">
           <CursorEffectBin id="1709"  >
            <CursorEffectKeyframes>
             <CursorEffectKeyframe id="1710" timeRangeEnd="-9999999/1" timeRangeDuration="0/1" interpolaterName=""  />
            </CursorEffectKeyframes>
           </CursorEffectBin>
          </Entry>
         </ExtraData>
         <GenericTrack id="1711"  >
          <Attributes>
           <Attribute id="1712" value="" name="ident"/>
           <Attribute id="1713" value="0" name="audioMuted"/>
           <Attribute id="1714" value="0" name="videoHidden"/>
          </Attributes>
          <MetaData>
           <entry key="IsLocked" val="False"/>
           <entry key="WinTrackHeight" val="0"/>
          </MetaData>
          <Medias>
           <ScreenVMFile id="1715" start="0" duration="3572" scalar="1/1" mediaStart="0/1" mediaDuration="3572/1" trackNumber="0" src="14" >
            <Transformer>
             <VectorParam id="1716"  name="translation">
              <InterpolatingParam id="1717" interp="linr"  time="-9999999/1" value="0" leadInLength="0/1"  />
              <InterpolatingParam id="1718" interp="linr"  time="-9999999/1" value="0" leadInLength="0/1"  />
              <InterpolatingParam id="1719" interp="linr"  time="-9999999/1" value="0" leadInLength="0/1"  />
             </VectorParam>
             <VectorParam id="1720"  name="rotation">
              <InterpolatingParam id="1721" interp="linr"  time="-9999999/1" value="0" leadInLength="0/1"  />
              <InterpolatingParam id="1722" interp="linr"  time="-9999999/1" value="0" leadInLength="0/1"  />
              <InterpolatingParam id="1723" interp="linr"  time="-9999999/1" value="0" leadInLength="0/1"  />
             </VectorParam>
             <VectorParam id="1724"  name="shear">
              <InterpolatingParam id="1725" interp="linr"  time="-9999999/1" value="0" leadInLength="0/1"  />
              <InterpolatingParam id="1726" interp="linr"  time="-9999999/1" value="0" leadInLength="0/1"  />
              <InterpolatingParam id="1727" interp="linr"  time="-9999999/1" value="0" leadInLength="0/1"  />
             </VectorParam>
             <VectorParam id="1728"  name="scale">
              <InterpolatingParam id="1729" interp="linr"  time="-9999999/1" value="1" leadInLength="0/1"  />
              <InterpolatingParam id="1730" interp="linr"  time="-9999999/1" value="1" leadInLength="0/1"  />
              <InterpolatingParam id="1731" interp="linr"  time="-9999999/1" value="1" leadInLength="0/1"  />
             </VectorParam>
             <VectorParam id="1732"  name="anchor">
              <InterpolatingParam id="1733" interp="linr"  time="0/1" value="0" leadInLength="0/1"  />
              <InterpolatingParam id="1734" interp="linr"  time="0/1" value="0" leadInLength="0/1"  />
              <InterpolatingParam id="1735" interp="linr"  time="0/1" value="0" leadInLength="0/1"  />
             </VectorParam>
            </Transformer>
            <Parameters>
             <VectorParam id="1736"  name="sourceCrop">
              <InterpolatingParam id="1737" interp="linr"  time="0/1" value="0" leadInLength="0/1"  />
              <InterpolatingParam id="1738" interp="linr"  time="0/1" value="0" leadInLength="0/1"  />
              <InterpolatingParam id="1739" interp="linr"  time="0/1" value="0" leadInLength="0/1"  />
              <InterpolatingParam id="1740" interp="linr"  time="0/1" value="0" leadInLength="0/1"  />
             </VectorParam>
             <VectorParam id="1741"  name="geometryCrop">
              <InterpolatingParam id="1742" interp="linr"  time="-9999999/1" value="0" leadInLength="0/1"  />
              <InterpolatingParam id="1743" interp="linr"  time="-9999999/1" value="0" leadInLength="0/1"  />
              <InterpolatingParam id="1744" interp="linr"  time="-9999999/1" value="0" leadInLength="0/1"  />
              <InterpolatingParam id="1745" interp="linr"  time="-9999999/1" value="0" leadInLength="0/1"  />
             </VectorParam>
             <InterpolatingParam id="1746" interp="linr"  time="-9999999/1" value="1" leadInLength="0/1"  name="opacity"/>
             <InterpolatingParam id="1747" interp="linr"  time="0/1" value="0" leadInLength="0/1"  name="cursorOpacity"/>
             <InterpolatingParam id="1748" interp="linr"  time="0/1" value="0" leadInLength="0/1"  name="cursorScale"/>
            </Parameters>
            <Attributes>
             <Attribute id="1749" value="" name="ident"/>
            </Attributes>
            <MetaData>
             <entry key="AutoAppliedSmartFocus" val="False"/>
             <entry key="WinSubProjectDisplayName" val=""/>
            </MetaData>
            <ExtraData>
             <Entry key="ZoomPanBin">
              <ZoomPanBin id="1750"  >
               <ZoomPanKeyframes>
                <ZoomPanKeyframe id="1751" timeRangeEnd="-9999999/1" timeRangeDuration="0/1" interpolaterName="linr"  />
               </ZoomPanKeyframes>
              </ZoomPanBin>
             </Entry>
             <Entry key="CursorEffectBin">
              <CursorEffectBin id="1752"  >
               <CursorEffectKeyframes>
               </CursorEffectKeyframes>
              </CursorEffectBin>
             </Entry>
            </ExtraData>
           </ScreenVMFile>
           <ScreenIMFile id="1753" start="3572" duration="108030" scalar="1/1" mediaStart="3571/1" mediaDuration="1/1" trackNumber="0" src="14" trimStartSum="0/1" >
            <Transformer>
             <VectorParam id="1754"  name="translation">
              <InterpolatingParam id="1755" interp="linr"  time="-9999999/1" value="0" leadInLength="0/1"  />
              <InterpolatingParam id="1756" interp="linr"  time="-9999999/1" value="0" leadInLength="0/1"  />
              <InterpolatingParam id="1757" interp="linr"  time="-9999999/1" value="0" leadInLength="0/1"  />
             </VectorParam>
             <VectorParam id="1758"  name="rotation">
              <InterpolatingParam id="1759" interp="linr"  time="-9999999/1" value="0" leadInLength="0/1"  />
              <InterpolatingParam id="1760" interp="linr"  time="-9999999/1" value="0" leadInLength="0/1"  />
              <InterpolatingParam id="1761" interp="linr"  time="-9999999/1" value="0" leadInLength="0/1"  />
             </VectorParam>
             <VectorParam id="1762"  name="shear">
              <InterpolatingParam id="1763" interp="linr"  time="-9999999/1" value="0" leadInLength="0/1"  />
              <InterpolatingParam id="1764" interp="linr"  time="-9999999/1" value="0" leadInLength="0/1"  />
              <InterpolatingParam id="1765" interp="linr"  time="-9999999/1" value="0" leadInLength="0/1"  />
             </VectorParam>
             <VectorParam id="1766"  name="scale">
              <InterpolatingParam id="1767" interp="linr"  time="-9999999/1" value="1" leadInLength="0/1"  />
              <InterpolatingParam id="1768" interp="linr"  time="-9999999/1" value="1" leadInLength="0/1"  />
              <InterpolatingParam id="1769" interp="linr"  time="-9999999/1" value="1" leadInLength="0/1"  />
             </VectorParam>
             <VectorParam id="1770"  name="anchor">
              <InterpolatingParam id="1771" interp="linr"  time="0/1" value="0" leadInLength="0/1"  />
              <InterpolatingParam id="1772" interp="linr"  time="0/1" value="0" leadInLength="0/1"  />
              <InterpolatingParam id="1773" interp="linr"  time="0/1" value="0" leadInLength="0/1"  />
             </VectorParam>
            </Transformer>
            <Parameters>
             <VectorParam id="1774"  name="sourceCrop">
              <InterpolatingParam id="1775" interp="linr"  time="0/1" value="0" leadInLength="0/1"  />
              <InterpolatingParam id="1776" interp="linr"  time="0/1" value="0" leadInLength="0/1"  />
              <InterpolatingParam id="1777" interp="linr"  time="0/1" value="0" leadInLength="0/1"  />
              <InterpolatingParam id="1778" interp="linr"  time="0/1" value="0" leadInLength="0/1"  />
             </VectorParam>
             <VectorParam id="1779"  name="geometryCrop">
              <InterpolatingParam id="1780" interp="linr"  time="-9999999/1" value="0" leadInLength="0/1"  />
              <InterpolatingParam id="1781" interp="linr"  time="-9999999/1" value="0" leadInLength="0/1"  />
              <InterpolatingParam id="1782" interp="linr"  time="-9999999/1" value="0" leadInLength="0/1"  />
              <InterpolatingParam id="1783" interp="linr"  time="-9999999/1" value="0" leadInLength="0/1"  />
             </VectorParam>
             <InterpolatingParam id="1784" interp="linr"  time="-9999999/1" value="1" leadInLength="0/1"  name="opacity"/>
             <InterpolatingParam id="1785" interp="linr"  name="cursorLocation">
              <Keyframes>
              <Keyframe id="1786"  time="-287/1" value="(195,698,0)" leadInLength="0/1"  />
              <Keyframe id="1787"  time="-286/1" value="(226,698,0)" leadInLength="0/1"  />
              <Keyframe id="1788"  time="-285/1" value="(283,709,0)" leadInLength="0/1"  />
              <Keyframe id="1789"  time="-284/1" value="(300,714,0)" leadInLength="0/1"  />
              <Keyframe id="1790"  time="-283/1" value="(316,720,0)" leadInLength="0/1"  />
              <Keyframe id="1791"  time="-282/1" value="(330,723,0)" leadInLength="0/1"  />
              <Keyframe id="1792"  time="-281/1" value="(338,723,0)" leadInLength="0/1"  />
              <Keyframe id="1793"  time="-280/1" value="(357,724,0)" leadInLength="0/1"  />
              <Keyframe id="1794"  time="-279/1" value="(377,724,0)" leadInLength="0/1"  />
              <Keyframe id="1795"  time="-278/1" value="(390,724,0)" leadInLength="0/1"  />
              <Keyframe id="1796"  time="-277/1" value="(420,724,0)" leadInLength="0/1"  />
              <Keyframe id="1797"  time="-276/1" value="(422,723,0)" leadInLength="0/1"  />
              <Keyframe id="1798"  time="-275/1" value="(423,721,0)" leadInLength="0/1"  />
              <Keyframe id="1799"  time="-274/1" value="(423,720,0)" leadInLength="0/1"  />
              <Keyframe id="1800"  time="-273/1" value="(421,716,0)" leadInLength="0/1"  />
              <Keyframe id="1801"  time="-272/1" value="(416,714,0)" leadInLength="0/1"  />
              <Keyframe id="1802"  time="-270/1" value="(410,710,0)" leadInLength="0/1"  />
              <Keyframe id="1803"  time="-269/1" value="(409,709,0)" leadInLength="0/1"  />
              <Keyframe id="1804"  time="-267/1" value="(408,709,0)" leadInLength="0/1"  />
              <Keyframe id="1805"  time="-239/1" value="(408,709,0)" leadInLength="0/1"  />
              <Keyframe id="1806"  time="-238/1" value="(402,709,0)" leadInLength="0/1"  />
              <Keyframe id="1807"  time="-237/1" value="(385,712,0)" leadInLength="0/1"  />
              <Keyframe id="1808"  time="-236/1" value="(288,729,0)" leadInLength="0/1"  />
              <Keyframe id="1809"  time="-235/1" value="(250,740,0)" leadInLength="0/1"  />
              <Keyframe id="1810"  time="-234/1" value="(237,746,0)" leadInLength="0/1"  />
              <Keyframe id="1811"  time="-233/1" value="(210,759,0)" leadInLength="0/1"  />
              <Keyframe id="1812"  time="-232/1" value="(205,763,0)" leadInLength="0/1"  />
              <Keyframe id="1813"  time="-231/1" value="(203,765,0)" leadInLength="0/1"  />
              <Keyframe id="1814"  time="-230/1" value="(197,771,0)" leadInLength="0/1"  />
              <Keyframe id="1815"  time="-229/1" value="(196,771,0)" leadInLength="0/1"  />
              <Keyframe id="1816"  time="-228/1" value="(194,773,0)" leadInLength="0/1"  />
              <Keyframe id="1817"  time="-227/1" value="(188,776,0)" leadInLength="0/1"  />
              <Keyframe id="1818"  time="-226/1" value="(186,777,0)" leadInLength="0/1"  />
              <Keyframe id="1819"  time="-225/1" value="(182,777,0)" leadInLength="0/1"  />
              <Keyframe id="1820"  time="-183/1" value="(182,777,0)" leadInLength="0/1"  />
              <Keyframe id="1821"  time="-182/1" value="(184,777,0)" leadInLength="0/1"  />
              <Keyframe id="1822"  time="-181/1" value="(187,777,0)" leadInLength="0/1"  />
              <Keyframe id="1823"  time="-177/1" value="(189,776,0)" leadInLength="0/1"  />
              <Keyframe id="1824"  time="-176/1" value="(190,776,0)" leadInLength="0/1"  />
              <Keyframe id="1825"  time="-175/1" value="(192,776,0)" leadInLength="0/1"  />
              <Keyframe id="1826"  time="-174/1" value="(212,771,0)" leadInLength="0/1"  />
              <Keyframe id="1827"  time="-173/1" value="(222,770,0)" leadInLength="0/1"  />
              <Keyframe id="1828"  time="-172/1" value="(245,765,0)" leadInLength="0/1"  />
              <Keyframe id="1829"  time="-171/1" value="(251,762,0)" leadInLength="0/1"  />
              <Keyframe id="1830"  time="-170/1" value="(259,758,0)" leadInLength="0/1"  />
              <Keyframe id="1831"  time="-169/1" value="(290,743,0)" leadInLength="0/1"  />
              <Keyframe id="1832"  time="-168/1" value="(296,742,0)" leadInLength="0/1"  />
              <Keyframe id="1833"  time="-167/1" value="(305,738,0)" leadInLength="0/1"  />
              <Keyframe id="1834"  time="-166/1" value="(362,717,0)" leadInLength="0/1"  />
              <Keyframe id="1835"  time="-165/1" value="(375,708,0)" leadInLength="0/1"  />
              <Keyframe id="1836"  time="-164/1" value="(384,701,0)" leadInLength="0/1"  />
              <Keyframe id="1837"  time="-163/1" value="(440,649,0)" leadInLength="0/1"  />
              <Keyframe id="1838"  time="-162/1" value="(450,630,0)" leadInLength="0/1"  />
              <Keyframe id="1839"  time="-161/1" value="(460,603,0)" leadInLength="0/1"  />
              <Keyframe id="1840"  time="-160/1" value="(474,471,0)" leadInLength="0/1"  />
              <Keyframe id="1841"  time="-159/1" value="(473,463,0)" leadInLength="0/1"  />
              <Keyframe id="1842"  time="-158/1" value="(467,434,0)" leadInLength="0/1"  />
              <Keyframe id="1843"  time="-157/1" value="(418,339,0)" leadInLength="0/1"  />
              <Keyframe id="1844"  time="-156/1" value="(408,320,0)" leadInLength="0/1"  />
              <Keyframe id="1845"  time="-155/1" value="(384,289,0)" leadInLength="0/1"  />
              <Keyframe id="1846"  time="-154/1" value="(336,246,0)" leadInLength="0/1"  />
              <Keyframe id="1847"  time="-153/1" value="(247,266,0)" leadInLength="0/1"  />
              <Keyframe id="1848"  time="-152/1" value="(234,281,0)" leadInLength="0/1"  />
              <Keyframe id="1849"  time="-151/1" value="(221,296,0)" leadInLength="0/1"  />
              <Keyframe id="1850"  time="-150/1" value="(191,349,0)" leadInLength="0/1"  />
              <Keyframe id="1851"  time="-149/1" value="(189,354,0)" leadInLength="0/1"  />
              <Keyframe id="1852"  time="-148/1" value="(186,366,0)" leadInLength="0/1"  />
              <Keyframe id="1853"  time="-147/1" value="(185,379,0)" leadInLength="0/1"  />
              <Keyframe id="1854"  time="-146/1" value="(185,397,0)" leadInLength="0/1"  />
              <Keyframe id="1855"  time="-145/1" value="(191,407,0)" leadInLength="0/1"  />
              <Keyframe id="1856"  time="-144/1" value="(196,407,0)" leadInLength="0/1"  />
              <Keyframe id="1857"  time="-143/1" value="(200,406,0)" leadInLength="0/1"  />
              <Keyframe id="1858"  time="-142/1" value="(207,402,0)" leadInLength="0/1"  />
              <Keyframe id="1859"  time="-141/1" value="(211,395,0)" leadInLength="0/1"  />
              <Keyframe id="1860"  time="-140/1" value="(212,393,0)" leadInLength="0/1"  />
              <Keyframe id="1861"  time="-139/1" value="(214,389,0)" leadInLength="0/1"  />
              <Keyframe id="1862"  time="-102/1" value="(217,388,0)" leadInLength="0/1"  />
              <Keyframe id="1863"  time="-101/1" value="(223,387,0)" leadInLength="0/1"  />
              <Keyframe id="1864"  time="-100/1" value="(275,385,0)" leadInLength="0/1"  />
              <Keyframe id="1865"  time="-99/1" value="(298,385,0)" leadInLength="0/1"  />
              <Keyframe id="1866"  time="-98/1" value="(304,385,0)" leadInLength="0/1"  />
              <Keyframe id="1867"  time="-97/1" value="(429,384,0)" leadInLength="0/1"  />
              <Keyframe id="1868"  time="-96/1" value="(454,386,0)" leadInLength="0/1"  />
              <Keyframe id="1869"  time="-95/1" value="(468,386,0)" leadInLength="0/1"  />
              <Keyframe id="1870"  time="-94/1" value="(584,397,0)" leadInLength="0/1"  />
              <Keyframe id="1871"  time="-93/1" value="(615,401,0)" leadInLength="0/1"  />
              <Keyframe id="1872"  time="-92/1" value="(644,404,0)" leadInLength="0/1"  />
              <Keyframe id="1873"  time="-91/1" value="(696,408,0)" leadInLength="0/1"  />
              <Keyframe id="1874"  time="-90/1" value="(780,414,0)" leadInLength="0/1"  />
              <Keyframe id="1875"  time="-89/1" value="(803,415,0)" leadInLength="0/1"  />
              <Keyframe id="1876"  time="-88/1" value="(823,417,0)" leadInLength="0/1"  />
              <Keyframe id="1877"  time="-87/1" value="(875,424,0)" leadInLength="0/1"  />
              <Keyframe id="1878"  time="-86/1" value="(881,425,0)" leadInLength="0/1"  />
              <Keyframe id="1879"  time="-85/1" value="(886,429,0)" leadInLength="0/1"  />
              <Keyframe id="1880"  time="-84/1" value="(887,432,0)" leadInLength="0/1"  />
              <Keyframe id="1881"  time="-83/1" value="(887,434,0)" leadInLength="0/1"  />
              <Keyframe id="1882"  time="-82/1" value="(890,442,0)" leadInLength="0/1"  />
              <Keyframe id="1883"  time="-32/1" value="(890,444,0)" leadInLength="0/1"  />
              <Keyframe id="1884"  time="-31/1" value="(886,437,0)" leadInLength="0/1"  />
              <Keyframe id="1885"  time="-17/1" value="(886,437,0)" leadInLength="0/1"  />
              <Keyframe id="1886"  time="-16/1" value="(886,437,0)" leadInLength="0/1"  />
              <Keyframe id="1887"  time="-15/1" value="(885,438,0)" leadInLength="0/1"  />
              <Keyframe id="1888"  time="-14/1" value="(885,443,0)" leadInLength="0/1"  />
              <Keyframe id="1889"  time="-11/1" value="(882,453,0)" leadInLength="0/1"  />
              <Keyframe id="1890"  time="-10/1" value="(865,455,0)" leadInLength="0/1"  />
              <Keyframe id="1891"  time="-9/1" value="(863,455,0)" leadInLength="0/1"  />
              <Keyframe id="1892"  time="-8/1" value="(849,453,0)" leadInLength="0/1"  />
              <Keyframe id="1893"  time="-7/1" value="(846,452,0)" leadInLength="0/1"  />
              <Keyframe id="1894"  time="-6/1" value="(845,452,0)" leadInLength="0/1"  />
              <Keyframe id="1895"  time="-5/1" value="(844,451,0)" leadInLength="0/1"  />
              <Keyframe id="1896"  time="-3/1" value="(844,451,0)" leadInLength="0/1"  />
              <Keyframe id="1897"  time="-2/1" value="(865,474,0)" leadInLength="0/1"  />
              <Keyframe id="1898"  time="-1/1" value="(889,497,0)" leadInLength="0/1"  />
              <Keyframe id="1899"  time="0/1" value="(921,531,0)" leadInLength="0/1"  />
              <Keyframe id="1900"  time="1/1" value="(995,602,0)" leadInLength="0/1"  />
              <Keyframe id="1901"  time="2/1" value="(1125,702,0)" leadInLength="0/1"  />
              <Keyframe id="1902"  time="3/1" value="(1147,724,0)" leadInLength="0/1"  />
              <Keyframe id="1903"  time="4/1" value="(1166,744,0)" leadInLength="0/1"  />
              <Keyframe id="1904"  time="5/1" value="(1215,800,0)" leadInLength="0/1"  />
              <Keyframe id="1905"  time="6/1" value="(1222,808,0)" leadInLength="0/1"  />
              <Keyframe id="1906"  time="7/1" value="(1248,823,0)" leadInLength="0/1"  />
              <Keyframe id="1907"  time="8/1" value="(1257,824,0)" leadInLength="0/1"  />
              <Keyframe id="1908"  time="9/1" value="(1266,824,0)" leadInLength="0/1"  />
              <Keyframe id="1909"  time="10/1" value="(1272,827,0)" leadInLength="0/1"  />
              <Keyframe id="1910"  time="11/1" value="(1321,856,0)" leadInLength="0/1"  />
              <Keyframe id="1911"  time="12/1" value="(1333,864,0)" leadInLength="0/1"  />
              <Keyframe id="1912"  time="13/1" value="(1345,872,0)" leadInLength="0/1"  />
              <Keyframe id="1913"  time="14/1" value="(1386,902,0)" leadInLength="0/1"  />
              <Keyframe id="1914"  time="15/1" value="(1395,914,0)" leadInLength="0/1"  />
              <Keyframe id="1915"  time="16/1" value="(1397,916,0)" leadInLength="0/1"  />
              <Keyframe id="1916"  time="19/1" value="(1398,916,0)" leadInLength="0/1"  />
              <Keyframe id="1917"  time="20/1" value="(1396,915,0)" leadInLength="0/1"  />
              <Keyframe id="1918"  time="21/1" value="(1387,908,0)" leadInLength="0/1"  />
              <Keyframe id="1919"  time="22/1" value="(1383,905,0)" leadInLength="0/1"  />
              <Keyframe id="1920"  time="23/1" value="(1379,900,0)" leadInLength="0/1"  />
              <Keyframe id="1921"  time="24/1" value="(1375,896,0)" leadInLength="0/1"  />
              <Keyframe id="1922"  time="25/1" value="(1370,891,0)" leadInLength="0/1"  />
              </Keyframes>
             </InterpolatingParam>
             <InterpolatingParam id="1923" interp="linr"  time="0/1" value="(93,45,1296,775)" leadInLength="0/1"  name="topmostWindowCoordinates"/>
             <InterpolatingParam id="1924" interp="linr"  name="cursorAction">
              <Keyframes>
              <Keyframe id="1925"  time="-260/1" value="1" leadInLength="0/1"  />
              <Keyframe id="1926"  time="-258/1" value="2" leadInLength="0/1"  />
              <Keyframe id="1927"  time="-217/1" value="1" leadInLength="0/1"  />
              <Keyframe id="1928"  time="-214/1" value="2" leadInLength="0/1"  />
              <Keyframe id="1929"  time="-132/1" value="1" leadInLength="0/1"  />
              <Keyframe id="1930"  time="-127/1" value="2" leadInLength="0/1"  />
              <Keyframe id="1931"  time="-74/1" value="1" leadInLength="0/1"  />
              <Keyframe id="1932"  time="-71/1" value="2" leadInLength="0/1"  />
              <Keyframe id="1933"  time="26/1" value="1" leadInLength="0/1"  />
              <Keyframe id="1934"  time="28/1" value="2" leadInLength="0/1"  />
              </Keyframes>
             </InterpolatingParam>
             <Parameter id="1935"  name="cursorImagePath">
              <Keyframes>
              <Keyframe id="1936"  time="0/1" value="0" leadInLength="0/1"  />
              </Keyframes>
             </Parameter>
             <InterpolatingParam id="1937" interp="linr"  time="0/1" value="(101,92,1280,720)" leadInLength="0/1"  name="recordingRegion"/>
             <InterpolatingParam id="1938" interp="linr"  time="0/1" value="0" leadInLength="0/1"  name="cursorOpacity"/>
             <InterpolatingParam id="1939" interp="linr"  time="0/1" value="1" leadInLength="0/1"  name="recordedCursorOpacity"/>
             <InterpolatingParam id="1940" interp="linr"  time="0/1" value="0" leadInLength="0/1"  name="cursorScale"/>
            </Parameters>
            <Attributes>
             <Attribute id="1941" value="" name="ident"/>
            </Attributes>
            <MetaData>
             <entry key="AutoAppliedSmartFocus" val="False"/>
             <entry key="WinSubProjectDisplayName" val=""/>
            </MetaData>
            <ExtraData>
             <Entry key="ZoomPanBin">
              <ZoomPanBin id="1942"  >
               <ZoomPanKeyframes>
                <ZoomPanKeyframe id="1943" timeRangeEnd="-9999999/1" timeRangeDuration="0/1" interpolaterName="linr"  />
               </ZoomPanKeyframes>
              </ZoomPanBin>
             </Entry>
             <Entry key="CursorEffectBin">
              <CursorEffectBin id="1944"  >
               <CursorEffectKeyframes>
               </CursorEffectKeyframes>
              </CursorEffectBin>
             </Entry>
            </ExtraData>
           </ScreenIMFile>
          </Medias>
         </GenericTrack>
        </StitchedMedia>
        <UnifiedMedia id="1945"  >
         <AudioTransition id="1946" start="5745" duration="30" >
          <Parameters>
           <InterpolatingParam id="1947" interp="linr"  time="0/1" value="1" leadInLength="0/1"  name="volume"/>
           <Parameter id="1948"  name="captions"/>
          </Parameters>
          <Effects>
           <GenericEffect id="1949" name = "AudioTransition" >
            <Parameters>
            <Parameter id="1950"   name="audioEdgeModType">
             <Keyframes>
             <Keyframe id="1951"  time="0/1" value="0" leadInLength="0/1"  />
             </Keyframes>
            </Parameter>
            <Parameter id="1952"   name="audioTransitionType">
             <Keyframes>
             <Keyframe id="1953"  time="0/1" value="" leadInLength="0/1"  />
             </Keyframes>
            </Parameter>
            </Parameters>
            <MetaData>
            </MetaData>
           </GenericEffect>
          </Effects>
          <Attributes>
           <Attribute id="1954" value="" name="ident"/>
           <Attribute id="1955" value="0" name="sampleRate"/>
           <Attribute id="1956" value="0" name="bitDepth"/>
           <Attribute id="1957" value="1" name="gain"/>
           <Attribute id="1958" value="0" name="mixToMono"/>
          </Attributes>
         </AudioTransition>
         <ImageTransition id="1959" start="5745" duration="30" >
          <Transformer>
           <VectorParam id="1960"  name="translation">
            <InterpolatingParam id="1961" interp="linr"  time="0/1" value="0" leadInLength="0/1"  />
            <InterpolatingParam id="1962" interp="linr"  time="0/1" value="0" leadInLength="0/1"  />
            <InterpolatingParam id="1963" interp="linr"  time="0/1" value="0" leadInLength="0/1"  />
           </VectorParam>
           <VectorParam id="1964"  name="rotation">
            <InterpolatingParam id="1965" interp="linr"  time="0/1" value="0" leadInLength="0/1"  />
            <InterpolatingParam id="1966" interp="linr"  time="0/1" value="0" leadInLength="0/1"  />
            <InterpolatingParam id="1967" interp="linr"  time="0/1" value="0" leadInLength="0/1"  />
           </VectorParam>
           <VectorParam id="1968"  name="shear">
            <InterpolatingParam id="1969" interp="linr"  time="0/1" value="0" leadInLength="0/1"  />
            <InterpolatingParam id="1970" interp="linr"  time="0/1" value="0" leadInLength="0/1"  />
            <InterpolatingParam id="1971" interp="linr"  time="0/1" value="0" leadInLength="0/1"  />
           </VectorParam>
           <VectorParam id="1972"  name="scale">
            <InterpolatingParam id="1973" interp="linr"  time="0/1" value="1" leadInLength="0/1"  />
            <InterpolatingParam id="1974" interp="linr"  time="0/1" value="1" leadInLength="0/1"  />
            <InterpolatingParam id="1975" interp="linr"  time="0/1" value="1" leadInLength="0/1"  />
           </VectorParam>
           <VectorParam id="1976"  name="anchor">
            <InterpolatingParam id="1977" interp="linr"  time="0/1" value="0" leadInLength="0/1"  />
            <InterpolatingParam id="1978" interp="linr"  time="0/1" value="0" leadInLength="0/1"  />
            <InterpolatingParam id="1979" interp="linr"  time="0/1" value="0" leadInLength="0/1"  />
           </VectorParam>
          </Transformer>
          <Parameters>
           <VectorParam id="1980"  name="sourceCrop">
            <InterpolatingParam id="1981" interp="linr"  time="0/1" value="0" leadInLength="0/1"  />
            <InterpolatingParam id="1982" interp="linr"  time="0/1" value="0" leadInLength="0/1"  />
            <InterpolatingParam id="1983" interp="linr"  time="0/1" value="0" leadInLength="0/1"  />
            <InterpolatingParam id="1984" interp="linr"  time="0/1" value="0" leadInLength="0/1"  />
           </VectorParam>
           <VectorParam id="1985"  name="geometryCrop">
            <InterpolatingParam id="1986" interp="linr"  time="0/1" value="0" leadInLength="0/1"  />
            <InterpolatingParam id="1987" interp="linr"  time="0/1" value="0" leadInLength="0/1"  />
            <InterpolatingParam id="1988" interp="linr"  time="0/1" value="0" leadInLength="0/1"  />
            <InterpolatingParam id="1989" interp="linr"  time="0/1" value="0" leadInLength="0/1"  />
           </VectorParam>
           <InterpolatingParam id="1990" interp="linr"  time="0/1" value="1" leadInLength="0/1"  name="opacity"/>
          </Parameters>
          <Effects>
           <GenericEffect id="1991" name = "VisualTransition" >
            <Parameters>
            <InterpolatingParam id="1992" interp="linr"  time="0/1" value="1" leadInLength="0/1"   name="leftFramePercentage"/>
            <InterpolatingParam id="1993" interp="linr"  time="0/1" value="1" leadInLength="0/1"   name="rightFramePercentage"/>
            <Parameter id="1994"   name="visualEdgeModType">
             <Keyframes>
             <Keyframe id="1995"  time="0/1" value="0" leadInLength="0/1"  />
             </Keyframes>
            </Parameter>
            <Parameter id="1996"   name="visualTransitionType">
             <Keyframes>
             <Keyframe id="1997"  time="0/1" value="Dissolve" leadInLength="0/1"  />
             </Keyframes>
            </Parameter>
            </Parameters>
            <MetaData>
            </MetaData>
           </GenericEffect>
          </Effects>
          <Attributes>
           <Attribute id="1998" value="" name="ident"/>
          </Attributes>
          <ExtraData>
           <Entry key="ZoomPanBin">
            <ZoomPanBin id="1999"  >
             <ZoomPanKeyframes>
             </ZoomPanKeyframes>
            </ZoomPanBin>
           </Entry>
          </ExtraData>
         </ImageTransition>
         <MetaData>
          <entry key="WinSubProjectDisplayName" val=""/>
         </MetaData>
        </UnifiedMedia>
        <StitchedMedia id="2000" start="5775" duration="1935" scalar="1/1" mediaStart="15/1" mediaDuration="1935/1" minMediaStart="0/1" >
         <Transformer>
          <VectorParam id="2001"  name="translation">
           <InterpolatingParam id="2002" interp="linr"  time="-9999999/1" value="0" leadInLength="0/1"  />
           <InterpolatingParam id="2003" interp="linr"  time="-9999999/1" value="0" leadInLength="0/1"  />
           <InterpolatingParam id="2004" interp="linr"  time="-9999999/1" value="0" leadInLength="0/1"  />
          </VectorParam>
          <VectorParam id="2005"  name="rotation">
           <InterpolatingParam id="2006" interp="linr"  time="-9999999/1" value="0" leadInLength="0/1"  />
           <InterpolatingParam id="2007" interp="linr"  time="-9999999/1" value="0" leadInLength="0/1"  />
           <InterpolatingParam id="2008" interp="linr"  time="-9999999/1" value="0" leadInLength="0/1"  />
          </VectorParam>
          <VectorParam id="2009"  name="shear">
           <InterpolatingParam id="2010" interp="linr"  time="-9999999/1" value="0" leadInLength="0/1"  />
           <InterpolatingParam id="2011" interp="linr"  time="-9999999/1" value="0" leadInLength="0/1"  />
           <InterpolatingParam id="2012" interp="linr"  time="-9999999/1" value="0" leadInLength="0/1"  />
          </VectorParam>
          <VectorParam id="2013"  name="scale">
           <InterpolatingParam id="2014" interp="linr"  time="-9999999/1" value="1" leadInLength="0/1"  />
           <InterpolatingParam id="2015" interp="linr"  time="-9999999/1" value="1" leadInLength="0/1"  />
           <InterpolatingParam id="2016" interp="linr"  time="-9999999/1" value="1" leadInLength="0/1"  />
          </VectorParam>
          <VectorParam id="2017"  name="anchor">
           <InterpolatingParam id="2018" interp="linr"  >
            <Keyframes>
            <Keyframe id="2019"  time="0/1" value="0" leadInLength="0/1"  />
            <Keyframe id="2020"  time="1615/1" value="0" leadInLength="0/1"  />
            </Keyframes>
           </InterpolatingParam>
           <InterpolatingParam id="2021" interp="linr"  >
            <Keyframes>
            <Keyframe id="2022"  time="0/1" value="0" leadInLength="0/1"  />
            <Keyframe id="2023"  time="1615/1" value="0" leadInLength="0/1"  />
            </Keyframes>
           </InterpolatingParam>
           <InterpolatingParam id="2024" interp="linr"  >
            <Keyframes>
            <Keyframe id="2025"  time="0/1" value="0" leadInLength="0/1"  />
            <Keyframe id="2026"  time="1615/1" value="0" leadInLength="0/1"  />
            </Keyframes>
           </InterpolatingParam>
          </VectorParam>
         </Transformer>
         <Parameters>
          <VectorParam id="2027"  name="sourceCrop">
           <InterpolatingParam id="2028" interp="linr"  >
            <Keyframes>
            <Keyframe id="2029"  time="0/1" value="0" leadInLength="0/1"  />
            <Keyframe id="2030"  time="1615/1" value="0" leadInLength="0/1"  />
            </Keyframes>
           </InterpolatingParam>
           <InterpolatingParam id="2031" interp="linr"  >
            <Keyframes>
            <Keyframe id="2032"  time="0/1" value="0" leadInLength="0/1"  />
            <Keyframe id="2033"  time="1615/1" value="0" leadInLength="0/1"  />
            </Keyframes>
           </InterpolatingParam>
           <InterpolatingParam id="2034" interp="linr"  >
            <Keyframes>
            <Keyframe id="2035"  time="0/1" value="0" leadInLength="0/1"  />
            <Keyframe id="2036"  time="1615/1" value="0" leadInLength="0/1"  />
            </Keyframes>
           </InterpolatingParam>
           <InterpolatingParam id="2037" interp="linr"  >
            <Keyframes>
            <Keyframe id="2038"  time="0/1" value="0" leadInLength="0/1"  />
            <Keyframe id="2039"  time="1615/1" value="0" leadInLength="0/1"  />
            </Keyframes>
           </InterpolatingParam>
          </VectorParam>
          <VectorParam id="2040"  name="geometryCrop">
           <InterpolatingParam id="2041" interp="linr"  time="-9999999/1" value="0" leadInLength="0/1"  />
           <InterpolatingParam id="2042" interp="linr"  time="-9999999/1" value="0" leadInLength="0/1"  />
           <InterpolatingParam id="2043" interp="linr"  time="-9999999/1" value="0" leadInLength="0/1"  />
           <InterpolatingParam id="2044" interp="linr"  time="-9999999/1" value="0" leadInLength="0/1"  />
          </VectorParam>
          <InterpolatingParam id="2045" interp="linr"  time="-9999999/1" value="1" leadInLength="0/1"  name="opacity"/>
          <InterpolatingParam id="2046" interp="linr"  time="0/1" value="1" leadInLength="0/1"  name="cursorOpacity"/>
          <InterpolatingParam id="2047" interp="linr"  name="cursorScale">
           <Keyframes>
           <Keyframe id="2048"  time="0/1" value="1" leadInLength="0/1"  />
           <Keyframe id="2049"  time="1615/1" value="1" leadInLength="0/1"  />
           </Keyframes>
          </InterpolatingParam>
          <Parameter id="2050"  name="captions"/>
         </Parameters>
         <Effects>
          <GenericEffect id="2051" name = "CursorBaseEffectName" >
           <Parameters>
           <InterpolatingParam id="2052" interp="linr"  time="-9999999/1" value="1" leadInLength="0/1"   name="cursorSize"/>
           <InterpolatingParam id="2053" interp="linr"  time="-9999999/1" value="0" leadInLength="0/1"   name="highlightBlurRadius"/>
           <InterpolatingParam id="2054" interp="linr"  time="-9999999/1" value="0" leadInLength="0/1"   name="highlightColorBlue"/>
           <InterpolatingParam id="2055" interp="linr"  time="-9999999/1" value="255" leadInLength="0/1"   name="highlightColorGreen"/>
           <InterpolatingParam id="2056" interp="linr"  time="-9999999/1" value="255" leadInLength="0/1"   name="highlightColorRed"/>
           <InterpolatingParam id="2057" interp="linr"  time="-9999999/1" value="5" leadInLength="0/1"   name="highlightFeatherSize"/>
           <InterpolatingParam id="2058" interp="linr"  time="-9999999/1" value="2" leadInLength="0/1"   name="highlightMagnification"/>
           <InterpolatingParam id="2059" interp="linr"  time="-9999999/1" value="1" leadInLength="0/1"   name="highlightOpacity"/>
           <InterpolatingParam id="2060" interp="linr"  time="-9999999/1" value="45" leadInLength="0/1"   name="highlightSize"/>
           <Parameter id="2061"   name="highlightType">
            <Keyframes>
            <Keyframe id="2062"  time="-9999999/1" value="0" leadInLength="0/1"  />
            </Keyframes>
           </Parameter>
           <InterpolatingParam id="2063" interp="linr"  time="-9999999/1" value="0" leadInLength="0/1"   name="leftClickColorBlue"/>
           <InterpolatingParam id="2064" interp="linr"  time="-9999999/1" value="0" leadInLength="0/1"   name="leftClickColorGreen"/>
           <InterpolatingParam id="2065" interp="linr"  time="-9999999/1" value="255" leadInLength="0/1"   name="leftClickColorRed"/>
           <InterpolatingParam id="2066" interp="linr"  time="-9999999/1" value="0.80000000000000004" leadInLength="0/1"   name="leftClickDuration"/>
           <InterpolatingParam id="2067" interp="linr"  time="-9999999/1" value="20" leadInLength="0/1"   name="leftClickSize"/>
           <Parameter id="2068"   name="leftClickSoundFilename">
            <Keyframes>
            <Keyframe id="2069"  time="-9999999/1" value="" leadInLength="0/1"  />
            </Keyframes>
           </Parameter>
           <InterpolatingParam id="2070" interp="linr"  time="-9999999/1" value="1" leadInLength="0/1"   name="leftClickSoundVolume"/>
           <Parameter id="2071"   name="leftClickType">
            <Keyframes>
            <Keyframe id="2072"  time="-9999999/1" value="0" leadInLength="0/1"  />
            </Keyframes>
           </Parameter>
           <InterpolatingParam id="2073" interp="linr"  time="-9999999/1" value="1" leadInLength="0/1"   name="opacity"/>
           <InterpolatingParam id="2074" interp="linr"  time="-9999999/1" value="255" leadInLength="0/1"   name="rightClickColorBlue"/>
           <InterpolatingParam id="2075" interp="linr"  time="-9999999/1" value="0" leadInLength="0/1"   name="rightClickColorGreen"/>
           <InterpolatingParam id="2076" interp="linr"  time="-9999999/1" value="0" leadInLength="0/1"   name="rightClickColorRed"/>
           <InterpolatingParam id="2077" interp="linr"  time="-9999999/1" value="0.80000000000000004" leadInLength="0/1"   name="rightClickDuration"/>
           <InterpolatingParam id="2078" interp="linr"  time="-9999999/1" value="20" leadInLength="0/1"   name="rightClickSize"/>
           <Parameter id="2079"   name="rightClickSoundFilename">
            <Keyframes>
            <Keyframe id="2080"  time="-9999999/1" value="" leadInLength="0/1"  />
            </Keyframes>
           </Parameter>
           <InterpolatingParam id="2081" interp="linr"  time="-9999999/1" value="1" leadInLength="0/1"   name="rightClickSoundVolume"/>
           <Parameter id="2082"   name="rightClickType">
            <Keyframes>
            <Keyframe id="2083"  time="-9999999/1" value="0" leadInLength="0/1"  />
            </Keyframes>
           </Parameter>
           </Parameters>
          </GenericEffect>
         </Effects>
         <Attributes>
          <Attribute id="2084" value="" name="ident"/>
         </Attributes>
         <MetaData>
          <entry key="AutoAppliedSmartFocus" val="False"/>
          <entry key="WinSubProjectDisplayName" val=""/>
         </MetaData>
         <ExtraData>
          <Entry key="ZoomPanBin">
           <ZoomPanBin id="2085"  >
            <ZoomPanKeyframes>
             <ZoomPanKeyframe id="2086" timeRangeEnd="-9999999/1" timeRangeDuration="0/1" interpolaterName="linr"  />
            </ZoomPanKeyframes>
           </ZoomPanBin>
          </Entry>
          <Entry key="CursorEffectBin">
           <CursorEffectBin id="2087"  >
            <CursorEffectKeyframes>
             <CursorEffectKeyframe id="2088" timeRangeEnd="-9999999/1" timeRangeDuration="0/1" interpolaterName=""  />
            </CursorEffectKeyframes>
           </CursorEffectBin>
          </Entry>
         </ExtraData>
         <GenericTrack id="2089"  >
          <Attributes>
           <Attribute id="2090" value="" name="ident"/>
           <Attribute id="2091" value="0" name="audioMuted"/>
           <Attribute id="2092" value="0" name="videoHidden"/>
          </Attributes>
          <MetaData>
           <entry key="IsLocked" val="False"/>
           <entry key="WinTrackHeight" val="0"/>
          </MetaData>
          <Medias>
           <ScreenVMFile id="2093" start="0" duration="1615" scalar="1/1" mediaStart="0/1" mediaDuration="1615/1" trackNumber="0" src="16" >
            <Transformer>
             <VectorParam id="2094"  name="translation">
              <InterpolatingParam id="2095" interp="linr"  time="-9999999/1" value="0" leadInLength="0/1"  />
              <InterpolatingParam id="2096" interp="linr"  time="-9999999/1" value="0" leadInLength="0/1"  />
              <InterpolatingParam id="2097" interp="linr"  time="-9999999/1" value="0" leadInLength="0/1"  />
             </VectorParam>
             <VectorParam id="2098"  name="rotation">
              <InterpolatingParam id="2099" interp="linr"  time="-9999999/1" value="0" leadInLength="0/1"  />
              <InterpolatingParam id="2100" interp="linr"  time="-9999999/1" value="0" leadInLength="0/1"  />
              <InterpolatingParam id="2101" interp="linr"  time="-9999999/1" value="0" leadInLength="0/1"  />
             </VectorParam>
             <VectorParam id="2102"  name="shear">
              <InterpolatingParam id="2103" interp="linr"  time="-9999999/1" value="0" leadInLength="0/1"  />
              <InterpolatingParam id="2104" interp="linr"  time="-9999999/1" value="0" leadInLength="0/1"  />
              <InterpolatingParam id="2105" interp="linr"  time="-9999999/1" value="0" leadInLength="0/1"  />
             </VectorParam>
             <VectorParam id="2106"  name="scale">
              <InterpolatingParam id="2107" interp="linr"  time="-9999999/1" value="1" leadInLength="0/1"  />
              <InterpolatingParam id="2108" interp="linr"  time="-9999999/1" value="1" leadInLength="0/1"  />
              <InterpolatingParam id="2109" interp="linr"  time="-9999999/1" value="1" leadInLength="0/1"  />
             </VectorParam>
             <VectorParam id="2110"  name="anchor">
              <InterpolatingParam id="2111" interp="linr"  time="0/1" value="0" leadInLength="0/1"  />
              <InterpolatingParam id="2112" interp="linr"  time="0/1" value="0" leadInLength="0/1"  />
              <InterpolatingParam id="2113" interp="linr"  time="0/1" value="0" leadInLength="0/1"  />
             </VectorParam>
            </Transformer>
            <Parameters>
             <VectorParam id="2114"  name="sourceCrop">
              <InterpolatingParam id="2115" interp="linr"  time="0/1" value="0" leadInLength="0/1"  />
              <InterpolatingParam id="2116" interp="linr"  time="0/1" value="0" leadInLength="0/1"  />
              <InterpolatingParam id="2117" interp="linr"  time="0/1" value="0" leadInLength="0/1"  />
              <InterpolatingParam id="2118" interp="linr"  time="0/1" value="0" leadInLength="0/1"  />
             </VectorParam>
             <VectorParam id="2119"  name="geometryCrop">
              <InterpolatingParam id="2120" interp="linr"  time="-9999999/1" value="0" leadInLength="0/1"  />
              <InterpolatingParam id="2121" interp="linr"  time="-9999999/1" value="0" leadInLength="0/1"  />
              <InterpolatingParam id="2122" interp="linr"  time="-9999999/1" value="0" leadInLength="0/1"  />
              <InterpolatingParam id="2123" interp="linr"  time="-9999999/1" value="0" leadInLength="0/1"  />
             </VectorParam>
             <InterpolatingParam id="2124" interp="linr"  time="-9999999/1" value="1" leadInLength="0/1"  name="opacity"/>
             <InterpolatingParam id="2125" interp="linr"  time="0/1" value="0" leadInLength="0/1"  name="cursorOpacity"/>
             <InterpolatingParam id="2126" interp="linr"  time="0/1" value="0" leadInLength="0/1"  name="cursorScale"/>
            </Parameters>
            <Attributes>
             <Attribute id="2127" value="" name="ident"/>
            </Attributes>
            <MetaData>
             <entry key="AutoAppliedSmartFocus" val="False"/>
             <entry key="WinSubProjectDisplayName" val=""/>
            </MetaData>
            <ExtraData>
             <Entry key="ZoomPanBin">
              <ZoomPanBin id="2128"  >
               <ZoomPanKeyframes>
                <ZoomPanKeyframe id="2129" timeRangeEnd="-9999999/1" timeRangeDuration="0/1" interpolaterName="linr"  />
               </ZoomPanKeyframes>
              </ZoomPanBin>
             </Entry>
             <Entry key="CursorEffectBin">
              <CursorEffectBin id="2130"  >
               <CursorEffectKeyframes>
               </CursorEffectKeyframes>
              </CursorEffectBin>
             </Entry>
            </ExtraData>
           </ScreenVMFile>
           <ScreenIMFile id="2131" start="1615" duration="108030" scalar="1/1" mediaStart="1614/1" mediaDuration="1/1" trackNumber="0" src="16" trimStartSum="0/1" >
            <Transformer>
             <VectorParam id="2132"  name="translation">
              <InterpolatingParam id="2133" interp="linr"  time="-9999999/1" value="0" leadInLength="0/1"  />
              <InterpolatingParam id="2134" interp="linr"  time="-9999999/1" value="0" leadInLength="0/1"  />
              <InterpolatingParam id="2135" interp="linr"  time="-9999999/1" value="0" leadInLength="0/1"  />
             </VectorParam>
             <VectorParam id="2136"  name="rotation">
              <InterpolatingParam id="2137" interp="linr"  time="-9999999/1" value="0" leadInLength="0/1"  />
              <InterpolatingParam id="2138" interp="linr"  time="-9999999/1" value="0" leadInLength="0/1"  />
              <InterpolatingParam id="2139" interp="linr"  time="-9999999/1" value="0" leadInLength="0/1"  />
             </VectorParam>
             <VectorParam id="2140"  name="shear">
              <InterpolatingParam id="2141" interp="linr"  time="-9999999/1" value="0" leadInLength="0/1"  />
              <InterpolatingParam id="2142" interp="linr"  time="-9999999/1" value="0" leadInLength="0/1"  />
              <InterpolatingParam id="2143" interp="linr"  time="-9999999/1" value="0" leadInLength="0/1"  />
             </VectorParam>
             <VectorParam id="2144"  name="scale">
              <InterpolatingParam id="2145" interp="linr"  time="-9999999/1" value="1" leadInLength="0/1"  />
              <InterpolatingParam id="2146" interp="linr"  time="-9999999/1" value="1" leadInLength="0/1"  />
              <InterpolatingParam id="2147" interp="linr"  time="-9999999/1" value="1" leadInLength="0/1"  />
             </VectorParam>
             <VectorParam id="2148"  name="anchor">
              <InterpolatingParam id="2149" interp="linr"  time="0/1" value="0" leadInLength="0/1"  />
              <InterpolatingParam id="2150" interp="linr"  time="0/1" value="0" leadInLength="0/1"  />
              <InterpolatingParam id="2151" interp="linr"  time="0/1" value="0" leadInLength="0/1"  />
             </VectorParam>
            </Transformer>
            <Parameters>
             <VectorParam id="2152"  name="sourceCrop">
              <InterpolatingParam id="2153" interp="linr"  time="0/1" value="0" leadInLength="0/1"  />
              <InterpolatingParam id="2154" interp="linr"  time="0/1" value="0" leadInLength="0/1"  />
              <InterpolatingParam id="2155" interp="linr"  time="0/1" value="0" leadInLength="0/1"  />
              <InterpolatingParam id="2156" interp="linr"  time="0/1" value="0" leadInLength="0/1"  />
             </VectorParam>
             <VectorParam id="2157"  name="geometryCrop">
              <InterpolatingParam id="2158" interp="linr"  time="-9999999/1" value="0" leadInLength="0/1"  />
              <InterpolatingParam id="2159" interp="linr"  time="-9999999/1" value="0" leadInLength="0/1"  />
              <InterpolatingParam id="2160" interp="linr"  time="-9999999/1" value="0" leadInLength="0/1"  />
              <InterpolatingParam id="2161" interp="linr"  time="-9999999/1" value="0" leadInLength="0/1"  />
             </VectorParam>
             <InterpolatingParam id="2162" interp="linr"  time="-9999999/1" value="1" leadInLength="0/1"  name="opacity"/>
             <InterpolatingParam id="2163" interp="linr"  name="cursorLocation">
              <Keyframes>
              <Keyframe id="2164"  time="-271/1" value="(1234,381,0)" leadInLength="0/1"  />
              <Keyframe id="2165"  time="-270/1" value="(1229,382,0)" leadInLength="0/1"  />
              <Keyframe id="2166"  time="-269/1" value="(1223,384,0)" leadInLength="0/1"  />
              <Keyframe id="2167"  time="-268/1" value="(1220,385,0)" leadInLength="0/1"  />
              <Keyframe id="2168"  time="-267/1" value="(1207,388,0)" leadInLength="0/1"  />
              <Keyframe id="2169"  time="-266/1" value="(1193,390,0)" leadInLength="0/1"  />
              <Keyframe id="2170"  time="-265/1" value="(1109,395,0)" leadInLength="0/1"  />
              <Keyframe id="2171"  time="-264/1" value="(1097,395,0)" leadInLength="0/1"  />
              <Keyframe id="2172"  time="-263/1" value="(1067,395,0)" leadInLength="0/1"  />
              <Keyframe id="2173"  time="-262/1" value="(1050,395,0)" leadInLength="0/1"  />
              <Keyframe id="2174"  time="-261/1" value="(1035,395,0)" leadInLength="0/1"  />
              <Keyframe id="2175"  time="-260/1" value="(1005,397,0)" leadInLength="0/1"  />
              <Keyframe id="2176"  time="-259/1" value="(927,403,0)" leadInLength="0/1"  />
              <Keyframe id="2177"  time="-258/1" value="(923,404,0)" leadInLength="0/1"  />
              <Keyframe id="2178"  time="-256/1" value="(920,404,0)" leadInLength="0/1"  />
              <Keyframe id="2179"  time="-255/1" value="(894,406,0)" leadInLength="0/1"  />
              <Keyframe id="2180"  time="-254/1" value="(893,406,0)" leadInLength="0/1"  />
              <Keyframe id="2181"  time="-253/1" value="(933,412,0)" leadInLength="0/1"  />
              <Keyframe id="2182"  time="-252/1" value="(996,418,0)" leadInLength="0/1"  />
              <Keyframe id="2183"  time="-251/1" value="(1042,422,0)" leadInLength="0/1"  />
              <Keyframe id="2184"  time="-250/1" value="(1074,424,0)" leadInLength="0/1"  />
              <Keyframe id="2185"  time="-249/1" value="(1173,425,0)" leadInLength="0/1"  />
              <Keyframe id="2186"  time="-248/1" value="(1191,424,0)" leadInLength="0/1"  />
              <Keyframe id="2187"  time="-247/1" value="(1201,422,0)" leadInLength="0/1"  />
              <Keyframe id="2188"  time="-246/1" value="(1235,413,0)" leadInLength="0/1"  />
              <Keyframe id="2189"  time="-245/1" value="(1248,409,0)" leadInLength="0/1"  />
              <Keyframe id="2190"  time="-244/1" value="(1258,406,0)" leadInLength="0/1"  />
              <Keyframe id="2191"  time="-243/1" value="(1281,395,0)" leadInLength="0/1"  />
              <Keyframe id="2192"  time="-242/1" value="(1290,393,0)" leadInLength="0/1"  />
              <Keyframe id="2193"  time="-241/1" value="(1304,389,0)" leadInLength="0/1"  />
              <Keyframe id="2194"  time="-240/1" value="(1350,378,0)" leadInLength="0/1"  />
              <Keyframe id="2195"  time="-239/1" value="(1358,376,0)" leadInLength="0/1"  />
              <Keyframe id="2196"  time="-238/1" value="(1363,375,0)" leadInLength="0/1"  />
              <Keyframe id="2197"  time="-237/1" value="(1366,374,0)" leadInLength="0/1"  />
              <Keyframe id="2198"  time="-236/1" value="(1369,374,0)" leadInLength="0/1"  />
              <Keyframe id="2199"  time="-230/1" value="(1371,374,0)" leadInLength="0/1"  />
              <Keyframe id="2200"  time="-229/1" value="(1371,377,0)" leadInLength="0/1"  />
              <Keyframe id="2201"  time="-228/1" value="(1371,379,0)" leadInLength="0/1"  />
              <Keyframe id="2202"  time="-227/1" value="(1371,381,0)" leadInLength="0/1"  />
              <Keyframe id="2203"  time="-226/1" value="(1371,382,0)" leadInLength="0/1"  />
              <Keyframe id="2204"  time="-225/1" value="(1371,402,0)" leadInLength="0/1"  />
              <Keyframe id="2205"  time="-224/1" value="(1371,409,0)" leadInLength="0/1"  />
              <Keyframe id="2206"  time="-223/1" value="(1372,416,0)" leadInLength="0/1"  />
              <Keyframe id="2207"  time="-222/1" value="(1374,438,0)" leadInLength="0/1"  />
              <Keyframe id="2208"  time="-221/1" value="(1374,445,0)" leadInLength="0/1"  />
              <Keyframe id="2209"  time="-220/1" value="(1374,448,0)" leadInLength="0/1"  />
              <Keyframe id="2210"  time="-219/1" value="(1374,466,0)" leadInLength="0/1"  />
              <Keyframe id="2211"  time="-218/1" value="(1374,471,0)" leadInLength="0/1"  />
              <Keyframe id="2212"  time="-217/1" value="(1374,475,0)" leadInLength="0/1"  />
              <Keyframe id="2213"  time="-216/1" value="(1374,491,0)" leadInLength="0/1"  />
              <Keyframe id="2214"  time="-215/1" value="(1374,497,0)" leadInLength="0/1"  />
              <Keyframe id="2215"  time="-214/1" value="(1374,501,0)" leadInLength="0/1"  />
              <Keyframe id="2216"  time="-213/1" value="(1374,516,0)" leadInLength="0/1"  />
              <Keyframe id="2217"  time="-212/1" value="(1374,528,0)" leadInLength="0/1"  />
              <Keyframe id="2218"  time="-211/1" value="(1374,529,0)" leadInLength="0/1"  />
              <Keyframe id="2219"  time="-210/1" value="(1374,531,0)" leadInLength="0/1"  />
              <Keyframe id="2220"  time="-209/1" value="(1374,532,0)" leadInLength="0/1"  />
              <Keyframe id="2221"  time="-208/1" value="(1371,532,0)" leadInLength="0/1"  />
              <Keyframe id="2222"  time="-207/1" value="(1280,520,0)" leadInLength="0/1"  />
              <Keyframe id="2223"  time="-206/1" value="(1065,477,0)" leadInLength="0/1"  />
              <Keyframe id="2224"  time="-205/1" value="(982,459,0)" leadInLength="0/1"  />
              <Keyframe id="2225"  time="-204/1" value="(727,393,0)" leadInLength="0/1"  />
              <Keyframe id="2226"  time="-203/1" value="(686,381,0)" leadInLength="0/1"  />
              <Keyframe id="2227"  time="-202/1" value="(650,370,0)" leadInLength="0/1"  />
              <Keyframe id="2228"  time="-201/1" value="(618,360,0)" leadInLength="0/1"  />
              <Keyframe id="2229"  time="-200/1" value="(590,353,0)" leadInLength="0/1"  />
              <Keyframe id="2230"  time="-199/1" value="(495,336,0)" leadInLength="0/1"  />
              <Keyframe id="2231"  time="-198/1" value="(362,328,0)" leadInLength="0/1"  />
              <Keyframe id="2232"  time="-197/1" value="(339,328,0)" leadInLength="0/1"  />
              <Keyframe id="2233"  time="-195/1" value="(327,328,0)" leadInLength="0/1"  />
              <Keyframe id="2234"  time="-194/1" value="(281,331,0)" leadInLength="0/1"  />
              <Keyframe id="2235"  time="-193/1" value="(272,333,0)" leadInLength="0/1"  />
              <Keyframe id="2236"  time="-192/1" value="(271,334,0)" leadInLength="0/1"  />
              <Keyframe id="2237"  time="-191/1" value="(265,347,0)" leadInLength="0/1"  />
              <Keyframe id="2238"  time="-190/1" value="(264,348,0)" leadInLength="0/1"  />
              <Keyframe id="2239"  time="-189/1" value="(262,354,0)" leadInLength="0/1"  />
              <Keyframe id="2240"  time="-188/1" value="(260,361,0)" leadInLength="0/1"  />
              <Keyframe id="2241"  time="-187/1" value="(259,376,0)" leadInLength="0/1"  />
              <Keyframe id="2242"  time="-186/1" value="(256,403,0)" leadInLength="0/1"  />
              <Keyframe id="2243"  time="-185/1" value="(256,410,0)" leadInLength="0/1"  />
              <Keyframe id="2244"  time="-184/1" value="(256,418,0)" leadInLength="0/1"  />
              <Keyframe id="2245"  time="-183/1" value="(258,450,0)" leadInLength="0/1"  />
              <Keyframe id="2246"  time="-182/1" value="(258,484,0)" leadInLength="0/1"  />
              <Keyframe id="2247"  time="-181/1" value="(258,486,0)" leadInLength="0/1"  />
              <Keyframe id="2248"  time="-180/1" value="(258,493,0)" leadInLength="0/1"  />
              <Keyframe id="2249"  time="-179/1" value="(258,500,0)" leadInLength="0/1"  />
              <Keyframe id="2250"  time="-178/1" value="(258,510,0)" leadInLength="0/1"  />
              <Keyframe id="2251"  time="-177/1" value="(257,534,0)" leadInLength="0/1"  />
              <Keyframe id="2252"  time="-176/1" value="(244,571,0)" leadInLength="0/1"  />
              <Keyframe id="2253"  time="-175/1" value="(238,587,0)" leadInLength="0/1"  />
              <Keyframe id="2254"  time="-174/1" value="(229,630,0)" leadInLength="0/1"  />
              <Keyframe id="2255"  time="-173/1" value="(228,639,0)" leadInLength="0/1"  />
              <Keyframe id="2256"  time="-172/1" value="(226,648,0)" leadInLength="0/1"  />
              <Keyframe id="2257"  time="-171/1" value="(226,650,0)" leadInLength="0/1"  />
              <Keyframe id="2258"  time="-170/1" value="(226,651,0)" leadInLength="0/1"  />
              <Keyframe id="2259"  time="-169/1" value="(224,653,0)" leadInLength="0/1"  />
              <Keyframe id="2260"  time="-168/1" value="(224,662,0)" leadInLength="0/1"  />
              <Keyframe id="2261"  time="-167/1" value="(224,665,0)" leadInLength="0/1"  />
              <Keyframe id="2262"  time="-166/1" value="(224,678,0)" leadInLength="0/1"  />
              <Keyframe id="2263"  time="-165/1" value="(225,698,0)" leadInLength="0/1"  />
              <Keyframe id="2264"  time="-164/1" value="(225,703,0)" leadInLength="0/1"  />
              <Keyframe id="2265"  time="-162/1" value="(225,706,0)" leadInLength="0/1"  />
              <Keyframe id="2266"  time="-161/1" value="(225,710,0)" leadInLength="0/1"  />
              <Keyframe id="2267"  time="-160/1" value="(222,732,0)" leadInLength="0/1"  />
              <Keyframe id="2268"  time="-159/1" value="(213,751,0)" leadInLength="0/1"  />
              <Keyframe id="2269"  time="-158/1" value="(211,756,0)" leadInLength="0/1"  />
              <Keyframe id="2270"  time="-157/1" value="(210,759,0)" leadInLength="0/1"  />
              <Keyframe id="2271"  time="-156/1" value="(207,764,0)" leadInLength="0/1"  />
              <Keyframe id="2272"  time="-155/1" value="(205,768,0)" leadInLength="0/1"  />
              <Keyframe id="2273"  time="-153/1" value="(201,774,0)" leadInLength="0/1"  />
              <Keyframe id="2274"  time="-152/1" value="(199,775,0)" leadInLength="0/1"  />
              <Keyframe id="2275"  time="-151/1" value="(198,777,0)" leadInLength="0/1"  />
              <Keyframe id="2276"  time="-98/1" value="(197,778,0)" leadInLength="0/1"  />
              <Keyframe id="2277"  time="-97/1" value="(199,770,0)" leadInLength="0/1"  />
              <Keyframe id="2278"  time="-96/1" value="(198,752,0)" leadInLength="0/1"  />
              <Keyframe id="2279"  time="-95/1" value="(195,745,0)" leadInLength="0/1"  />
              <Keyframe id="2280"  time="-94/1" value="(194,740,0)" leadInLength="0/1"  />
              <Keyframe id="2281"  time="-93/1" value="(186,717,0)" leadInLength="0/1"  />
              <Keyframe id="2282"  time="-92/1" value="(186,715,0)" leadInLength="0/1"  />
              <Keyframe id="2283"  time="-91/1" value="(185,710,0)" leadInLength="0/1"  />
              <Keyframe id="2284"  time="-90/1" value="(184,702,0)" leadInLength="0/1"  />
              <Keyframe id="2285"  time="0/1" value="(184,702,0)" leadInLength="0/1"  />
              <Keyframe id="2286"  time="3/1" value="(185,701,0)" leadInLength="0/1"  />
              <Keyframe id="2287"  time="4/1" value="(195,701,0)" leadInLength="0/1"  />
              <Keyframe id="2288"  time="5/1" value="(208,701,0)" leadInLength="0/1"  />
              <Keyframe id="2289"  time="6/1" value="(215,700,0)" leadInLength="0/1"  />
              <Keyframe id="2290"  time="7/1" value="(238,692,0)" leadInLength="0/1"  />
              <Keyframe id="2291"  time="8/1" value="(249,688,0)" leadInLength="0/1"  />
              <Keyframe id="2292"  time="9/1" value="(264,683,0)" leadInLength="0/1"  />
              <Keyframe id="2293"  time="10/1" value="(316,664,0)" leadInLength="0/1"  />
              <Keyframe id="2294"  time="11/1" value="(351,646,0)" leadInLength="0/1"  />
              <Keyframe id="2295"  time="12/1" value="(353,644,0)" leadInLength="0/1"  />
              <Keyframe id="2296"  time="14/1" value="(354,636,0)" leadInLength="0/1"  />
              <Keyframe id="2297"  time="15/1" value="(357,600,0)" leadInLength="0/1"  />
              <Keyframe id="2298"  time="16/1" value="(352,527,0)" leadInLength="0/1"  />
              <Keyframe id="2299"  time="17/1" value="(346,511,0)" leadInLength="0/1"  />
              <Keyframe id="2300"  time="18/1" value="(335,486,0)" leadInLength="0/1"  />
              <Keyframe id="2301"  time="19/1" value="(326,471,0)" leadInLength="0/1"  />
              <Keyframe id="2302"  time="20/1" value="(320,458,0)" leadInLength="0/1"  />
              <Keyframe id="2303"  time="21/1" value="(311,436,0)" leadInLength="0/1"  />
              <Keyframe id="2304"  time="22/1" value="(293,416,0)" leadInLength="0/1"  />
              <Keyframe id="2305"  time="23/1" value="(282,407,0)" leadInLength="0/1"  />
              <Keyframe id="2306"  time="24/1" value="(277,404,0)" leadInLength="0/1"  />
              <Keyframe id="2307"  time="25/1" value="(252,392,0)" leadInLength="0/1"  />
              <Keyframe id="2308"  time="26/1" value="(248,389,0)" leadInLength="0/1"  />
              <Keyframe id="2309"  time="27/1" value="(242,387,0)" leadInLength="0/1"  />
              <Keyframe id="2310"  time="28/1" value="(240,387,0)" leadInLength="0/1"  />
              <Keyframe id="2311"  time="29/1" value="(239,385,0)" leadInLength="0/1"  />
              <Keyframe id="2312"  time="30/1" value="(236,385,0)" leadInLength="0/1"  />
              <Keyframe id="2313"  time="88/1" value="(236,384,0)" leadInLength="0/1"  />
              <Keyframe id="2314"  time="89/1" value="(264,381,0)" leadInLength="0/1"  />
              <Keyframe id="2315"  time="90/1" value="(269,381,0)" leadInLength="0/1"  />
              <Keyframe id="2316"  time="91/1" value="(302,377,0)" leadInLength="0/1"  />
              <Keyframe id="2317"  time="92/1" value="(405,373,0)" leadInLength="0/1"  />
              <Keyframe id="2318"  time="93/1" value="(560,370,0)" leadInLength="0/1"  />
              <Keyframe id="2319"  time="94/1" value="(585,371,0)" leadInLength="0/1"  />
              <Keyframe id="2320"  time="95/1" value="(613,374,0)" leadInLength="0/1"  />
              <Keyframe id="2321"  time="96/1" value="(629,375,0)" leadInLength="0/1"  />
              <Keyframe id="2322"  time="97/1" value="(689,381,0)" leadInLength="0/1"  />
              <Keyframe id="2323"  time="98/1" value="(778,392,0)" leadInLength="0/1"  />
              <Keyframe id="2324"  time="99/1" value="(836,407,0)" leadInLength="0/1"  />
              <Keyframe id="2325"  time="100/1" value="(854,413,0)" leadInLength="0/1"  />
              <Keyframe id="2326"  time="101/1" value="(903,439,0)" leadInLength="0/1"  />
              <Keyframe id="2327"  time="102/1" value="(916,450,0)" leadInLength="0/1"  />
              <Keyframe id="2328"  time="103/1" value="(918,453,0)" leadInLength="0/1"  />
              <Keyframe id="2329"  time="105/1" value="(921,462,0)" leadInLength="0/1"  />
              <Keyframe id="2330"  time="107/1" value="(920,463,0)" leadInLength="0/1"  />
              <Keyframe id="2331"  time="108/1" value="(917,464,0)" leadInLength="0/1"  />
              <Keyframe id="2332"  time="109/1" value="(902,459,0)" leadInLength="0/1"  />
              <Keyframe id="2333"  time="110/1" value="(892,456,0)" leadInLength="0/1"  />
              <Keyframe id="2334"  time="111/1" value="(889,455,0)" leadInLength="0/1"  />
              <Keyframe id="2335"  time="153/1" value="(887,454,0)" leadInLength="0/1"  />
              <Keyframe id="2336"  time="154/1" value="(890,453,0)" leadInLength="0/1"  />
              <Keyframe id="2337"  time="155/1" value="(913,453,0)" leadInLength="0/1"  />
              <Keyframe id="2338"  time="156/1" value="(930,453,0)" leadInLength="0/1"  />
              <Keyframe id="2339"  time="157/1" value="(1013,478,0)" leadInLength="0/1"  />
              <Keyframe id="2340"  time="158/1" value="(1024,484,0)" leadInLength="0/1"  />
              <Keyframe id="2341"  time="159/1" value="(1060,506,0)" leadInLength="0/1"  />
              <Keyframe id="2342"  time="160/1" value="(1065,509,0)" leadInLength="0/1"  />
              <Keyframe id="2343"  time="161/1" value="(1083,521,0)" leadInLength="0/1"  />
              <Keyframe id="2344"  time="162/1" value="(1134,557,0)" leadInLength="0/1"  />
              <Keyframe id="2345"  time="163/1" value="(1229,643,0)" leadInLength="0/1"  />
              <Keyframe id="2346"  time="164/1" value="(1249,666,0)" leadInLength="0/1"  />
              <Keyframe id="2347"  time="165/1" value="(1279,715,0)" leadInLength="0/1"  />
              <Keyframe id="2348"  time="166/1" value="(1289,737,0)" leadInLength="0/1"  />
              <Keyframe id="2349"  time="167/1" value="(1295,749,0)" leadInLength="0/1"  />
              <Keyframe id="2350"  time="168/1" value="(1326,842,0)" leadInLength="0/1"  />
              <Keyframe id="2351"  time="169/1" value="(1326,857,0)" leadInLength="0/1"  />
              <Keyframe id="2352"  time="170/1" value="(1326,864,0)" leadInLength="0/1"  />
              <Keyframe id="2353"  time="171/1" value="(1327,870,0)" leadInLength="0/1"  />
              <Keyframe id="2354"  time="172/1" value="(1334,877,0)" leadInLength="0/1"  />
              <Keyframe id="2355"  time="173/1" value="(1336,878,0)" leadInLength="0/1"  />
              <Keyframe id="2356"  time="174/1" value="(1338,880,0)" leadInLength="0/1"  />
              <Keyframe id="2357"  time="175/1" value="(1339,881,0)" leadInLength="0/1"  />
              <Keyframe id="2358"  time="176/1" value="(1340,881,0)" leadInLength="0/1"  />
              <Keyframe id="2359"  time="177/1" value="(1346,888,0)" leadInLength="0/1"  />
              <Keyframe id="2360"  time="178/1" value="(1348,890,0)" leadInLength="0/1"  />
              <Keyframe id="2361"  time="179/1" value="(1350,890,0)" leadInLength="0/1"  />
              </Keyframes>
             </InterpolatingParam>
             <InterpolatingParam id="2362" interp="linr"  time="0/1" value="(93,45,1296,775)" leadInLength="0/1"  name="topmostWindowCoordinates"/>
             <InterpolatingParam id="2363" interp="linr"  name="cursorAction">
              <Keyframes>
              <Keyframe id="2364"  time="-300/1" value="2" leadInLength="0/1"  />
              <Keyframe id="2365"  time="-229/1" value="1" leadInLength="0/1"  />
              <Keyframe id="2366"  time="-210/1" value="2" leadInLength="0/1"  />
              <Keyframe id="2367"  time="-136/1" value="1" leadInLength="0/1"  />
              <Keyframe id="2368"  time="-132/1" value="2" leadInLength="0/1"  />
              <Keyframe id="2369"  time="-71/1" value="1" leadInLength="0/1"  />
              <Keyframe id="2370"  time="-68/1" value="2" leadInLength="0/1"  />
              <Keyframe id="2371"  time="66/1" value="1" leadInLength="0/1"  />
              <Keyframe id="2372"  time="70/1" value="2" leadInLength="0/1"  />
              <Keyframe id="2373"  time="118/1" value="1" leadInLength="0/1"  />
              <Keyframe id="2374"  time="122/1" value="2" leadInLength="0/1"  />
              <Keyframe id="2375"  time="185/1" value="1" leadInLength="0/1"  />
              <Keyframe id="2376"  time="187/1" value="2" leadInLength="0/1"  />
              </Keyframes>
             </InterpolatingParam>
             <Parameter id="2377"  name="cursorImagePath">
              <Keyframes>
              <Keyframe id="2378"  time="0/1" value="0" leadInLength="0/1"  />
              </Keyframes>
             </Parameter>
             <InterpolatingParam id="2379" interp="linr"  time="0/1" value="(101,92,1280,720)" leadInLength="0/1"  name="recordingRegion"/>
             <InterpolatingParam id="2380" interp="linr"  time="0/1" value="0" leadInLength="0/1"  name="cursorOpacity"/>
             <InterpolatingParam id="2381" interp="linr"  time="0/1" value="1" leadInLength="0/1"  name="recordedCursorOpacity"/>
             <InterpolatingParam id="2382" interp="linr"  time="0/1" value="0" leadInLength="0/1"  name="cursorScale"/>
            </Parameters>
            <Attributes>
             <Attribute id="2383" value="" name="ident"/>
            </Attributes>
            <MetaData>
             <entry key="AutoAppliedSmartFocus" val="False"/>
             <entry key="WinSubProjectDisplayName" val=""/>
            </MetaData>
            <ExtraData>
             <Entry key="ZoomPanBin">
              <ZoomPanBin id="2384"  >
               <ZoomPanKeyframes>
                <ZoomPanKeyframe id="2385" timeRangeEnd="-9999999/1" timeRangeDuration="0/1" interpolaterName="linr"  />
               </ZoomPanKeyframes>
              </ZoomPanBin>
             </Entry>
             <Entry key="CursorEffectBin">
              <CursorEffectBin id="2386"  >
               <CursorEffectKeyframes>
               </CursorEffectKeyframes>
              </CursorEffectBin>
             </Entry>
            </ExtraData>
           </ScreenIMFile>
          </Medias>
         </GenericTrack>
        </StitchedMedia>
        <StitchedMedia id="2387" start="7710" duration="361" scalar="1/1" mediaStart="1615/1" mediaDuration="361/1" minMediaStart="0/1" >
         <Transformer>
          <VectorParam id="2388"  name="translation">
           <InterpolatingParam id="2389" interp="linr"  time="-9999999/1" value="0" leadInLength="0/1"  />
           <InterpolatingParam id="2390" interp="linr"  time="-9999999/1" value="0" leadInLength="0/1"  />
           <InterpolatingParam id="2391" interp="linr"  time="-9999999/1" value="0" leadInLength="0/1"  />
          </VectorParam>
          <VectorParam id="2392"  name="rotation">
           <InterpolatingParam id="2393" interp="linr"  time="-9999999/1" value="0" leadInLength="0/1"  />
           <InterpolatingParam id="2394" interp="linr"  time="-9999999/1" value="0" leadInLength="0/1"  />
           <InterpolatingParam id="2395" interp="linr"  time="-9999999/1" value="0" leadInLength="0/1"  />
          </VectorParam>
          <VectorParam id="2396"  name="shear">
           <InterpolatingParam id="2397" interp="linr"  time="-9999999/1" value="0" leadInLength="0/1"  />
           <InterpolatingParam id="2398" interp="linr"  time="-9999999/1" value="0" leadInLength="0/1"  />
           <InterpolatingParam id="2399" interp="linr"  time="-9999999/1" value="0" leadInLength="0/1"  />
          </VectorParam>
          <VectorParam id="2400"  name="scale">
           <InterpolatingParam id="2401" interp="linr"  time="-9999999/1" value="1" leadInLength="0/1"  />
           <InterpolatingParam id="2402" interp="linr"  time="-9999999/1" value="1" leadInLength="0/1"  />
           <InterpolatingParam id="2403" interp="linr"  time="-9999999/1" value="1" leadInLength="0/1"  />
          </VectorParam>
          <VectorParam id="2404"  name="anchor">
           <InterpolatingParam id="2405" interp="linr"  >
            <Keyframes>
            <Keyframe id="2406"  time="0/1" value="0" leadInLength="0/1"  />
            <Keyframe id="2407"  time="1776/1" value="0" leadInLength="0/1"  />
            </Keyframes>
           </InterpolatingParam>
           <InterpolatingParam id="2408" interp="linr"  >
            <Keyframes>
            <Keyframe id="2409"  time="0/1" value="0" leadInLength="0/1"  />
            <Keyframe id="2410"  time="1776/1" value="0" leadInLength="0/1"  />
            </Keyframes>
           </InterpolatingParam>
           <InterpolatingParam id="2411" interp="linr"  >
            <Keyframes>
            <Keyframe id="2412"  time="0/1" value="0" leadInLength="0/1"  />
            <Keyframe id="2413"  time="1776/1" value="0" leadInLength="0/1"  />
            </Keyframes>
           </InterpolatingParam>
          </VectorParam>
         </Transformer>
         <Parameters>
          <VectorParam id="2414"  name="sourceCrop">
           <InterpolatingParam id="2415" interp="linr"  >
            <Keyframes>
            <Keyframe id="2416"  time="0/1" value="0" leadInLength="0/1"  />
            <Keyframe id="2417"  time="1776/1" value="0" leadInLength="0/1"  />
            </Keyframes>
           </InterpolatingParam>
           <InterpolatingParam id="2418" interp="linr"  >
            <Keyframes>
            <Keyframe id="2419"  time="0/1" value="0" leadInLength="0/1"  />
            <Keyframe id="2420"  time="1776/1" value="0" leadInLength="0/1"  />
            </Keyframes>
           </InterpolatingParam>
           <InterpolatingParam id="2421" interp="linr"  >
            <Keyframes>
            <Keyframe id="2422"  time="0/1" value="0" leadInLength="0/1"  />
            <Keyframe id="2423"  time="1776/1" value="0" leadInLength="0/1"  />
            </Keyframes>
           </InterpolatingParam>
           <InterpolatingParam id="2424" interp="linr"  >
            <Keyframes>
            <Keyframe id="2425"  time="0/1" value="0" leadInLength="0/1"  />
            <Keyframe id="2426"  time="1776/1" value="0" leadInLength="0/1"  />
            </Keyframes>
           </InterpolatingParam>
          </VectorParam>
          <VectorParam id="2427"  name="geometryCrop">
           <InterpolatingParam id="2428" interp="linr"  time="-9999999/1" value="0" leadInLength="0/1"  />
           <InterpolatingParam id="2429" interp="linr"  time="-9999999/1" value="0" leadInLength="0/1"  />
           <InterpolatingParam id="2430" interp="linr"  time="-9999999/1" value="0" leadInLength="0/1"  />
           <InterpolatingParam id="2431" interp="linr"  time="-9999999/1" value="0" leadInLength="0/1"  />
          </VectorParam>
          <InterpolatingParam id="2432" interp="linr"  time="-9999999/1" value="1" leadInLength="0/1"  name="opacity"/>
          <InterpolatingParam id="2433" interp="linr"  time="0/1" value="1" leadInLength="0/1"  name="cursorOpacity"/>
          <InterpolatingParam id="2434" interp="linr"  name="cursorScale">
           <Keyframes>
           <Keyframe id="2435"  time="0/1" value="1" leadInLength="0/1"  />
           <Keyframe id="2436"  time="1776/1" value="1" leadInLength="0/1"  />
           </Keyframes>
          </InterpolatingParam>
          <Parameter id="2437"  name="captions"/>
         </Parameters>
         <Effects>
          <GenericEffect id="2438" name = "CursorBaseEffectName" >
           <Parameters>
           <InterpolatingParam id="2439" interp="linr"  time="-9999999/1" value="1" leadInLength="0/1"   name="cursorSize"/>
           <InterpolatingParam id="2440" interp="linr"  time="-9999999/1" value="0" leadInLength="0/1"   name="highlightBlurRadius"/>
           <InterpolatingParam id="2441" interp="linr"  time="-9999999/1" value="0" leadInLength="0/1"   name="highlightColorBlue"/>
           <InterpolatingParam id="2442" interp="linr"  time="-9999999/1" value="255" leadInLength="0/1"   name="highlightColorGreen"/>
           <InterpolatingParam id="2443" interp="linr"  time="-9999999/1" value="255" leadInLength="0/1"   name="highlightColorRed"/>
           <InterpolatingParam id="2444" interp="linr"  time="-9999999/1" value="5" leadInLength="0/1"   name="highlightFeatherSize"/>
           <InterpolatingParam id="2445" interp="linr"  time="-9999999/1" value="2" leadInLength="0/1"   name="highlightMagnification"/>
           <InterpolatingParam id="2446" interp="linr"  time="-9999999/1" value="1" leadInLength="0/1"   name="highlightOpacity"/>
           <InterpolatingParam id="2447" interp="linr"  time="-9999999/1" value="45" leadInLength="0/1"   name="highlightSize"/>
           <Parameter id="2448"   name="highlightType">
            <Keyframes>
            <Keyframe id="2449"  time="-9999999/1" value="0" leadInLength="0/1"  />
            </Keyframes>
           </Parameter>
           <InterpolatingParam id="2450" interp="linr"  time="-9999999/1" value="0" leadInLength="0/1"   name="leftClickColorBlue"/>
           <InterpolatingParam id="2451" interp="linr"  time="-9999999/1" value="0" leadInLength="0/1"   name="leftClickColorGreen"/>
           <InterpolatingParam id="2452" interp="linr"  time="-9999999/1" value="255" leadInLength="0/1"   name="leftClickColorRed"/>
           <InterpolatingParam id="2453" interp="linr"  time="-9999999/1" value="0.80000000000000004" leadInLength="0/1"   name="leftClickDuration"/>
           <InterpolatingParam id="2454" interp="linr"  time="-9999999/1" value="20" leadInLength="0/1"   name="leftClickSize"/>
           <Parameter id="2455"   name="leftClickSoundFilename">
            <Keyframes>
            <Keyframe id="2456"  time="-9999999/1" value="" leadInLength="0/1"  />
            </Keyframes>
           </Parameter>
           <InterpolatingParam id="2457" interp="linr"  time="-9999999/1" value="1" leadInLength="0/1"   name="leftClickSoundVolume"/>
           <Parameter id="2458"   name="leftClickType">
            <Keyframes>
            <Keyframe id="2459"  time="-9999999/1" value="0" leadInLength="0/1"  />
            </Keyframes>
           </Parameter>
           <InterpolatingParam id="2460" interp="linr"  time="-9999999/1" value="1" leadInLength="0/1"   name="opacity"/>
           <InterpolatingParam id="2461" interp="linr"  time="-9999999/1" value="255" leadInLength="0/1"   name="rightClickColorBlue"/>
           <InterpolatingParam id="2462" interp="linr"  time="-9999999/1" value="0" leadInLength="0/1"   name="rightClickColorGreen"/>
           <InterpolatingParam id="2463" interp="linr"  time="-9999999/1" value="0" leadInLength="0/1"   name="rightClickColorRed"/>
           <InterpolatingParam id="2464" interp="linr"  time="-9999999/1" value="0.80000000000000004" leadInLength="0/1"   name="rightClickDuration"/>
           <InterpolatingParam id="2465" interp="linr"  time="-9999999/1" value="20" leadInLength="0/1"   name="rightClickSize"/>
           <Parameter id="2466"   name="rightClickSoundFilename">
            <Keyframes>
            <Keyframe id="2467"  time="-9999999/1" value="" leadInLength="0/1"  />
            </Keyframes>
           </Parameter>
           <InterpolatingParam id="2468" interp="linr"  time="-9999999/1" value="1" leadInLength="0/1"   name="rightClickSoundVolume"/>
           <Parameter id="2469"   name="rightClickType">
            <Keyframes>
            <Keyframe id="2470"  time="-9999999/1" value="0" leadInLength="0/1"  />
            </Keyframes>
           </Parameter>
           </Parameters>
          </GenericEffect>
         </Effects>
         <Attributes>
          <Attribute id="2471" value="" name="ident"/>
         </Attributes>
         <MetaData>
          <entry key="AutoAppliedSmartFocus" val="False"/>
          <entry key="WinSubProjectDisplayName" val=""/>
         </MetaData>
         <ExtraData>
          <Entry key="ZoomPanBin">
           <ZoomPanBin id="2472"  >
            <ZoomPanKeyframes>
             <ZoomPanKeyframe id="2473" timeRangeEnd="-9999999/1" timeRangeDuration="0/1" interpolaterName="linr"  />
            </ZoomPanKeyframes>
           </ZoomPanBin>
          </Entry>
          <Entry key="CursorEffectBin">
           <CursorEffectBin id="2474"  >
            <CursorEffectKeyframes>
             <CursorEffectKeyframe id="2475" timeRangeEnd="-9999999/1" timeRangeDuration="0/1" interpolaterName=""  />
            </CursorEffectKeyframes>
           </CursorEffectBin>
          </Entry>
         </ExtraData>
         <GenericTrack id="2476"  >
          <Attributes>
           <Attribute id="2477" value="" name="ident"/>
           <Attribute id="2478" value="0" name="audioMuted"/>
           <Attribute id="2479" value="0" name="videoHidden"/>
          </Attributes>
          <MetaData>
           <entry key="IsLocked" val="False"/>
           <entry key="WinTrackHeight" val="0"/>
          </MetaData>
          <Medias>
           <ScreenVMFile id="2480" start="0" duration="1776" scalar="1/1" mediaStart="0/1" mediaDuration="1776/1" trackNumber="0" src="16" >
            <Transformer>
             <VectorParam id="2481"  name="translation">
              <InterpolatingParam id="2482" interp="linr"  time="-9999999/1" value="0" leadInLength="0/1"  />
              <InterpolatingParam id="2483" interp="linr"  time="-9999999/1" value="0" leadInLength="0/1"  />
              <InterpolatingParam id="2484" interp="linr"  time="-9999999/1" value="0" leadInLength="0/1"  />
             </VectorParam>
             <VectorParam id="2485"  name="rotation">
              <InterpolatingParam id="2486" interp="linr"  time="-9999999/1" value="0" leadInLength="0/1"  />
              <InterpolatingParam id="2487" interp="linr"  time="-9999999/1" value="0" leadInLength="0/1"  />
              <InterpolatingParam id="2488" interp="linr"  time="-9999999/1" value="0" leadInLength="0/1"  />
             </VectorParam>
             <VectorParam id="2489"  name="shear">
              <InterpolatingParam id="2490" interp="linr"  time="-9999999/1" value="0" leadInLength="0/1"  />
              <InterpolatingParam id="2491" interp="linr"  time="-9999999/1" value="0" leadInLength="0/1"  />
              <InterpolatingParam id="2492" interp="linr"  time="-9999999/1" value="0" leadInLength="0/1"  />
             </VectorParam>
             <VectorParam id="2493"  name="scale">
              <InterpolatingParam id="2494" interp="linr"  time="-9999999/1" value="1" leadInLength="0/1"  />
              <InterpolatingParam id="2495" interp="linr"  time="-9999999/1" value="1" leadInLength="0/1"  />
              <InterpolatingParam id="2496" interp="linr"  time="-9999999/1" value="1" leadInLength="0/1"  />
             </VectorParam>
             <VectorParam id="2497"  name="anchor">
              <InterpolatingParam id="2498" interp="linr"  time="0/1" value="0" leadInLength="0/1"  />
              <InterpolatingParam id="2499" interp="linr"  time="0/1" value="0" leadInLength="0/1"  />
              <InterpolatingParam id="2500" interp="linr"  time="0/1" value="0" leadInLength="0/1"  />
             </VectorParam>
            </Transformer>
            <Parameters>
             <VectorParam id="2501"  name="sourceCrop">
              <InterpolatingParam id="2502" interp="linr"  time="0/1" value="0" leadInLength="0/1"  />
              <InterpolatingParam id="2503" interp="linr"  time="0/1" value="0" leadInLength="0/1"  />
              <InterpolatingParam id="2504" interp="linr"  time="0/1" value="0" leadInLength="0/1"  />
              <InterpolatingParam id="2505" interp="linr"  time="0/1" value="0" leadInLength="0/1"  />
             </VectorParam>
             <VectorParam id="2506"  name="geometryCrop">
              <InterpolatingParam id="2507" interp="linr"  time="-9999999/1" value="0" leadInLength="0/1"  />
              <InterpolatingParam id="2508" interp="linr"  time="-9999999/1" value="0" leadInLength="0/1"  />
              <InterpolatingParam id="2509" interp="linr"  time="-9999999/1" value="0" leadInLength="0/1"  />
              <InterpolatingParam id="2510" interp="linr"  time="-9999999/1" value="0" leadInLength="0/1"  />
             </VectorParam>
             <InterpolatingParam id="2511" interp="linr"  time="-9999999/1" value="1" leadInLength="0/1"  name="opacity"/>
             <InterpolatingParam id="2512" interp="linr"  time="0/1" value="0" leadInLength="0/1"  name="cursorOpacity"/>
             <InterpolatingParam id="2513" interp="linr"  time="0/1" value="0" leadInLength="0/1"  name="cursorScale"/>
            </Parameters>
            <Attributes>
             <Attribute id="2514" value="" name="ident"/>
            </Attributes>
            <MetaData>
             <entry key="AutoAppliedSmartFocus" val="False"/>
             <entry key="WinSubProjectDisplayName" val=""/>
            </MetaData>
            <ExtraData>
             <Entry key="ZoomPanBin">
              <ZoomPanBin id="2515"  >
               <ZoomPanKeyframes>
                <ZoomPanKeyframe id="2516" timeRangeEnd="-9999999/1" timeRangeDuration="0/1" interpolaterName="linr"  />
               </ZoomPanKeyframes>
              </ZoomPanBin>
             </Entry>
             <Entry key="CursorEffectBin">
              <CursorEffectBin id="2517"  >
               <CursorEffectKeyframes>
               </CursorEffectKeyframes>
              </CursorEffectBin>
             </Entry>
            </ExtraData>
           </ScreenVMFile>
           <ScreenIMFile id="2518" start="1776" duration="108030" scalar="1/1" mediaStart="1775/1" mediaDuration="1/1" trackNumber="0" src="16" trimStartSum="0/1" >
            <Transformer>
             <VectorParam id="2519"  name="translation">
              <InterpolatingParam id="2520" interp="linr"  time="-9999999/1" value="0" leadInLength="0/1"  />
              <InterpolatingParam id="2521" interp="linr"  time="-9999999/1" value="0" leadInLength="0/1"  />
              <InterpolatingParam id="2522" interp="linr"  time="-9999999/1" value="0" leadInLength="0/1"  />
             </VectorParam>
             <VectorParam id="2523"  name="rotation">
              <InterpolatingParam id="2524" interp="linr"  time="-9999999/1" value="0" leadInLength="0/1"  />
              <InterpolatingParam id="2525" interp="linr"  time="-9999999/1" value="0" leadInLength="0/1"  />
              <InterpolatingParam id="2526" interp="linr"  time="-9999999/1" value="0" leadInLength="0/1"  />
             </VectorParam>
             <VectorParam id="2527"  name="shear">
              <InterpolatingParam id="2528" interp="linr"  time="-9999999/1" value="0" leadInLength="0/1"  />
              <InterpolatingParam id="2529" interp="linr"  time="-9999999/1" value="0" leadInLength="0/1"  />
              <InterpolatingParam id="2530" interp="linr"  time="-9999999/1" value="0" leadInLength="0/1"  />
             </VectorParam>
             <VectorParam id="2531"  name="scale">
              <InterpolatingParam id="2532" interp="linr"  time="-9999999/1" value="1" leadInLength="0/1"  />
              <InterpolatingParam id="2533" interp="linr"  time="-9999999/1" value="1" leadInLength="0/1"  />
              <InterpolatingParam id="2534" interp="linr"  time="-9999999/1" value="1" leadInLength="0/1"  />
             </VectorParam>
             <VectorParam id="2535"  name="anchor">
              <InterpolatingParam id="2536" interp="linr"  time="0/1" value="0" leadInLength="0/1"  />
              <InterpolatingParam id="2537" interp="linr"  time="0/1" value="0" leadInLength="0/1"  />
              <InterpolatingParam id="2538" interp="linr"  time="0/1" value="0" leadInLength="0/1"  />
             </VectorParam>
            </Transformer>
            <Parameters>
             <VectorParam id="2539"  name="sourceCrop">
              <InterpolatingParam id="2540" interp="linr"  time="0/1" value="0" leadInLength="0/1"  />
              <InterpolatingParam id="2541" interp="linr"  time="0/1" value="0" leadInLength="0/1"  />
              <InterpolatingParam id="2542" interp="linr"  time="0/1" value="0" leadInLength="0/1"  />
              <InterpolatingParam id="2543" interp="linr"  time="0/1" value="0" leadInLength="0/1"  />
             </VectorParam>
             <VectorParam id="2544"  name="geometryCrop">
              <InterpolatingParam id="2545" interp="linr"  time="-9999999/1" value="0" leadInLength="0/1"  />
              <InterpolatingParam id="2546" interp="linr"  time="-9999999/1" value="0" leadInLength="0/1"  />
              <InterpolatingParam id="2547" interp="linr"  time="-9999999/1" value="0" leadInLength="0/1"  />
              <InterpolatingParam id="2548" interp="linr"  time="-9999999/1" value="0" leadInLength="0/1"  />
             </VectorParam>
             <InterpolatingParam id="2549" interp="linr"  time="-9999999/1" value="1" leadInLength="0/1"  name="opacity"/>
             <InterpolatingParam id="2550" interp="linr"  name="cursorLocation">
              <Keyframes>
              <Keyframe id="2551"  time="-259/1" value="(197,778,0)" leadInLength="0/1"  />
              <Keyframe id="2552"  time="-258/1" value="(199,770,0)" leadInLength="0/1"  />
              <Keyframe id="2553"  time="-257/1" value="(198,752,0)" leadInLength="0/1"  />
              <Keyframe id="2554"  time="-256/1" value="(195,745,0)" leadInLength="0/1"  />
              <Keyframe id="2555"  time="-255/1" value="(194,740,0)" leadInLength="0/1"  />
              <Keyframe id="2556"  time="-254/1" value="(186,717,0)" leadInLength="0/1"  />
              <Keyframe id="2557"  time="-253/1" value="(186,715,0)" leadInLength="0/1"  />
              <Keyframe id="2558"  time="-252/1" value="(185,710,0)" leadInLength="0/1"  />
              <Keyframe id="2559"  time="-251/1" value="(184,702,0)" leadInLength="0/1"  />
              <Keyframe id="2560"  time="-158/1" value="(185,701,0)" leadInLength="0/1"  />
              <Keyframe id="2561"  time="-157/1" value="(195,701,0)" leadInLength="0/1"  />
              <Keyframe id="2562"  time="-156/1" value="(208,701,0)" leadInLength="0/1"  />
              <Keyframe id="2563"  time="-155/1" value="(215,700,0)" leadInLength="0/1"  />
              <Keyframe id="2564"  time="-154/1" value="(238,692,0)" leadInLength="0/1"  />
              <Keyframe id="2565"  time="-153/1" value="(249,688,0)" leadInLength="0/1"  />
              <Keyframe id="2566"  time="-152/1" value="(264,683,0)" leadInLength="0/1"  />
              <Keyframe id="2567"  time="-151/1" value="(316,664,0)" leadInLength="0/1"  />
              <Keyframe id="2568"  time="-150/1" value="(351,646,0)" leadInLength="0/1"  />
              <Keyframe id="2569"  time="-149/1" value="(353,644,0)" leadInLength="0/1"  />
              <Keyframe id="2570"  time="-147/1" value="(354,636,0)" leadInLength="0/1"  />
              <Keyframe id="2571"  time="-146/1" value="(357,600,0)" leadInLength="0/1"  />
              <Keyframe id="2572"  time="-145/1" value="(352,527,0)" leadInLength="0/1"  />
              <Keyframe id="2573"  time="-144/1" value="(346,511,0)" leadInLength="0/1"  />
              <Keyframe id="2574"  time="-143/1" value="(335,486,0)" leadInLength="0/1"  />
              <Keyframe id="2575"  time="-142/1" value="(326,471,0)" leadInLength="0/1"  />
              <Keyframe id="2576"  time="-141/1" value="(320,458,0)" leadInLength="0/1"  />
              <Keyframe id="2577"  time="-140/1" value="(311,436,0)" leadInLength="0/1"  />
              <Keyframe id="2578"  time="-139/1" value="(293,416,0)" leadInLength="0/1"  />
              <Keyframe id="2579"  time="-138/1" value="(282,407,0)" leadInLength="0/1"  />
              <Keyframe id="2580"  time="-137/1" value="(277,404,0)" leadInLength="0/1"  />
              <Keyframe id="2581"  time="-136/1" value="(252,392,0)" leadInLength="0/1"  />
              <Keyframe id="2582"  time="-135/1" value="(248,389,0)" leadInLength="0/1"  />
              <Keyframe id="2583"  time="-134/1" value="(242,387,0)" leadInLength="0/1"  />
              <Keyframe id="2584"  time="-133/1" value="(240,387,0)" leadInLength="0/1"  />
              <Keyframe id="2585"  time="-132/1" value="(239,385,0)" leadInLength="0/1"  />
              <Keyframe id="2586"  time="-131/1" value="(236,385,0)" leadInLength="0/1"  />
              <Keyframe id="2587"  time="-73/1" value="(236,384,0)" leadInLength="0/1"  />
              <Keyframe id="2588"  time="-72/1" value="(264,381,0)" leadInLength="0/1"  />
              <Keyframe id="2589"  time="-71/1" value="(269,381,0)" leadInLength="0/1"  />
              <Keyframe id="2590"  time="-70/1" value="(302,377,0)" leadInLength="0/1"  />
              <Keyframe id="2591"  time="-69/1" value="(405,373,0)" leadInLength="0/1"  />
              <Keyframe id="2592"  time="-68/1" value="(560,370,0)" leadInLength="0/1"  />
              <Keyframe id="2593"  time="-67/1" value="(585,371,0)" leadInLength="0/1"  />
              <Keyframe id="2594"  time="-66/1" value="(613,374,0)" leadInLength="0/1"  />
              <Keyframe id="2595"  time="-65/1" value="(629,375,0)" leadInLength="0/1"  />
              <Keyframe id="2596"  time="-64/1" value="(689,381,0)" leadInLength="0/1"  />
              <Keyframe id="2597"  time="-63/1" value="(778,392,0)" leadInLength="0/1"  />
              <Keyframe id="2598"  time="-62/1" value="(836,407,0)" leadInLength="0/1"  />
              <Keyframe id="2599"  time="-61/1" value="(854,413,0)" leadInLength="0/1"  />
              <Keyframe id="2600"  time="-60/1" value="(903,439,0)" leadInLength="0/1"  />
              <Keyframe id="2601"  time="-59/1" value="(916,450,0)" leadInLength="0/1"  />
              <Keyframe id="2602"  time="-58/1" value="(918,453,0)" leadInLength="0/1"  />
              <Keyframe id="2603"  time="-56/1" value="(921,462,0)" leadInLength="0/1"  />
              <Keyframe id="2604"  time="-54/1" value="(920,463,0)" leadInLength="0/1"  />
              <Keyframe id="2605"  time="-53/1" value="(917,464,0)" leadInLength="0/1"  />
              <Keyframe id="2606"  time="-52/1" value="(902,459,0)" leadInLength="0/1"  />
              <Keyframe id="2607"  time="-51/1" value="(892,456,0)" leadInLength="0/1"  />
              <Keyframe id="2608"  time="-50/1" value="(889,455,0)" leadInLength="0/1"  />
              <Keyframe id="2609"  time="-8/1" value="(887,454,0)" leadInLength="0/1"  />
              <Keyframe id="2610"  time="-7/1" value="(890,453,0)" leadInLength="0/1"  />
              <Keyframe id="2611"  time="-6/1" value="(913,453,0)" leadInLength="0/1"  />
              <Keyframe id="2612"  time="-5/1" value="(930,453,0)" leadInLength="0/1"  />
              <Keyframe id="2613"  time="-4/1" value="(1013,478,0)" leadInLength="0/1"  />
              <Keyframe id="2614"  time="-3/1" value="(1024,484,0)" leadInLength="0/1"  />
              <Keyframe id="2615"  time="-2/1" value="(1060,506,0)" leadInLength="0/1"  />
              <Keyframe id="2616"  time="-1/1" value="(1065,509,0)" leadInLength="0/1"  />
              <Keyframe id="2617"  time="0/1" value="(1083,521,0)" leadInLength="0/1"  />
              <Keyframe id="2618"  time="1/1" value="(1134,557,0)" leadInLength="0/1"  />
              <Keyframe id="2619"  time="2/1" value="(1229,643,0)" leadInLength="0/1"  />
              <Keyframe id="2620"  time="3/1" value="(1249,666,0)" leadInLength="0/1"  />
              <Keyframe id="2621"  time="4/1" value="(1279,715,0)" leadInLength="0/1"  />
              <Keyframe id="2622"  time="5/1" value="(1289,737,0)" leadInLength="0/1"  />
              <Keyframe id="2623"  time="6/1" value="(1295,749,0)" leadInLength="0/1"  />
              <Keyframe id="2624"  time="7/1" value="(1326,842,0)" leadInLength="0/1"  />
              <Keyframe id="2625"  time="8/1" value="(1326,857,0)" leadInLength="0/1"  />
              <Keyframe id="2626"  time="9/1" value="(1326,864,0)" leadInLength="0/1"  />
              <Keyframe id="2627"  time="10/1" value="(1327,870,0)" leadInLength="0/1"  />
              <Keyframe id="2628"  time="11/1" value="(1334,877,0)" leadInLength="0/1"  />
              <Keyframe id="2629"  time="12/1" value="(1336,878,0)" leadInLength="0/1"  />
              <Keyframe id="2630"  time="13/1" value="(1338,880,0)" leadInLength="0/1"  />
              <Keyframe id="2631"  time="14/1" value="(1339,881,0)" leadInLength="0/1"  />
              <Keyframe id="2632"  time="15/1" value="(1340,881,0)" leadInLength="0/1"  />
              <Keyframe id="2633"  time="16/1" value="(1346,888,0)" leadInLength="0/1"  />
              <Keyframe id="2634"  time="17/1" value="(1348,890,0)" leadInLength="0/1"  />
              <Keyframe id="2635"  time="18/1" value="(1350,890,0)" leadInLength="0/1"  />
              </Keyframes>
             </InterpolatingParam>
             <InterpolatingParam id="2636" interp="linr"  time="0/1" value="(93,45,1296,775)" leadInLength="0/1"  name="topmostWindowCoordinates"/>
             <InterpolatingParam id="2637" interp="linr"  name="cursorAction">
              <Keyframes>
              <Keyframe id="2638"  time="-297/1" value="1" leadInLength="0/1"  />
              <Keyframe id="2639"  time="-293/1" value="2" leadInLength="0/1"  />
              <Keyframe id="2640"  time="-232/1" value="1" leadInLength="0/1"  />
              <Keyframe id="2641"  time="-229/1" value="2" leadInLength="0/1"  />
              <Keyframe id="2642"  time="-95/1" value="1" leadInLength="0/1"  />
              <Keyframe id="2643"  time="-91/1" value="2" leadInLength="0/1"  />
              <Keyframe id="2644"  time="-43/1" value="1" leadInLength="0/1"  />
              <Keyframe id="2645"  time="-39/1" value="2" leadInLength="0/1"  />
              <Keyframe id="2646"  time="24/1" value="1" leadInLength="0/1"  />
              <Keyframe id="2647"  time="26/1" value="2" leadInLength="0/1"  />
              </Keyframes>
             </InterpolatingParam>
             <Parameter id="2648"  name="cursorImagePath">
              <Keyframes>
              <Keyframe id="2649"  time="0/1" value="0" leadInLength="0/1"  />
              </Keyframes>
             </Parameter>
             <InterpolatingParam id="2650" interp="linr"  time="0/1" value="(101,92,1280,720)" leadInLength="0/1"  name="recordingRegion"/>
             <InterpolatingParam id="2651" interp="linr"  time="0/1" value="0" leadInLength="0/1"  name="cursorOpacity"/>
             <InterpolatingParam id="2652" interp="linr"  time="0/1" value="1" leadInLength="0/1"  name="recordedCursorOpacity"/>
             <InterpolatingParam id="2653" interp="linr"  time="0/1" value="0" leadInLength="0/1"  name="cursorScale"/>
            </Parameters>
            <Attributes>
             <Attribute id="2654" value="" name="ident"/>
            </Attributes>
            <MetaData>
             <entry key="AutoAppliedSmartFocus" val="False"/>
             <entry key="WinSubProjectDisplayName" val=""/>
            </MetaData>
            <ExtraData>
             <Entry key="ZoomPanBin">
              <ZoomPanBin id="2655"  >
               <ZoomPanKeyframes>
                <ZoomPanKeyframe id="2656" timeRangeEnd="-9999999/1" timeRangeDuration="0/1" interpolaterName="linr"  />
               </ZoomPanKeyframes>
              </ZoomPanBin>
             </Entry>
             <Entry key="CursorEffectBin">
              <CursorEffectBin id="2657"  >
               <CursorEffectKeyframes>
               </CursorEffectKeyframes>
              </CursorEffectBin>
             </Entry>
            </ExtraData>
           </ScreenIMFile>
          </Medias>
         </GenericTrack>
        </StitchedMedia>
        <UnifiedMedia id="2658"  >
         <AudioTransition id="2659" start="8071" duration="30" >
          <Parameters>
           <InterpolatingParam id="2660" interp="linr"  time="0/1" value="1" leadInLength="0/1"  name="volume"/>
           <Parameter id="2661"  name="captions"/>
          </Parameters>
          <Effects>
           <GenericEffect id="2662" name = "AudioTransition" >
            <Parameters>
            <Parameter id="2663"   name="audioEdgeModType">
             <Keyframes>
             <Keyframe id="2664"  time="0/1" value="0" leadInLength="0/1"  />
             </Keyframes>
            </Parameter>
            <Parameter id="2665"   name="audioTransitionType">
             <Keyframes>
             <Keyframe id="2666"  time="0/1" value="" leadInLength="0/1"  />
             </Keyframes>
            </Parameter>
            </Parameters>
            <MetaData>
            </MetaData>
           </GenericEffect>
          </Effects>
          <Attributes>
           <Attribute id="2667" value="" name="ident"/>
           <Attribute id="2668" value="0" name="sampleRate"/>
           <Attribute id="2669" value="0" name="bitDepth"/>
           <Attribute id="2670" value="1" name="gain"/>
           <Attribute id="2671" value="0" name="mixToMono"/>
          </Attributes>
         </AudioTransition>
         <ImageTransition id="2672" start="8071" duration="30" >
          <Transformer>
           <VectorParam id="2673"  name="translation">
            <InterpolatingParam id="2674" interp="linr"  time="0/1" value="0" leadInLength="0/1"  />
            <InterpolatingParam id="2675" interp="linr"  time="0/1" value="0" leadInLength="0/1"  />
            <InterpolatingParam id="2676" interp="linr"  time="0/1" value="0" leadInLength="0/1"  />
           </VectorParam>
           <VectorParam id="2677"  name="rotation">
            <InterpolatingParam id="2678" interp="linr"  time="0/1" value="0" leadInLength="0/1"  />
            <InterpolatingParam id="2679" interp="linr"  time="0/1" value="0" leadInLength="0/1"  />
            <InterpolatingParam id="2680" interp="linr"  time="0/1" value="0" leadInLength="0/1"  />
           </VectorParam>
           <VectorParam id="2681"  name="shear">
            <InterpolatingParam id="2682" interp="linr"  time="0/1" value="0" leadInLength="0/1"  />
            <InterpolatingParam id="2683" interp="linr"  time="0/1" value="0" leadInLength="0/1"  />
            <InterpolatingParam id="2684" interp="linr"  time="0/1" value="0" leadInLength="0/1"  />
           </VectorParam>
           <VectorParam id="2685"  name="scale">
            <InterpolatingParam id="2686" interp="linr"  time="0/1" value="1" leadInLength="0/1"  />
            <InterpolatingParam id="2687" interp="linr"  time="0/1" value="1" leadInLength="0/1"  />
            <InterpolatingParam id="2688" interp="linr"  time="0/1" value="1" leadInLength="0/1"  />
           </VectorParam>
           <VectorParam id="2689"  name="anchor">
            <InterpolatingParam id="2690" interp="linr"  time="0/1" value="0" leadInLength="0/1"  />
            <InterpolatingParam id="2691" interp="linr"  time="0/1" value="0" leadInLength="0/1"  />
            <InterpolatingParam id="2692" interp="linr"  time="0/1" value="0" leadInLength="0/1"  />
           </VectorParam>
          </Transformer>
          <Parameters>
           <VectorParam id="2693"  name="sourceCrop">
            <InterpolatingParam id="2694" interp="linr"  time="0/1" value="0" leadInLength="0/1"  />
            <InterpolatingParam id="2695" interp="linr"  time="0/1" value="0" leadInLength="0/1"  />
            <InterpolatingParam id="2696" interp="linr"  time="0/1" value="0" leadInLength="0/1"  />
            <InterpolatingParam id="2697" interp="linr"  time="0/1" value="0" leadInLength="0/1"  />
           </VectorParam>
           <VectorParam id="2698"  name="geometryCrop">
            <InterpolatingParam id="2699" interp="linr"  time="0/1" value="0" leadInLength="0/1"  />
            <InterpolatingParam id="2700" interp="linr"  time="0/1" value="0" leadInLength="0/1"  />
            <InterpolatingParam id="2701" interp="linr"  time="0/1" value="0" leadInLength="0/1"  />
            <InterpolatingParam id="2702" interp="linr"  time="0/1" value="0" leadInLength="0/1"  />
           </VectorParam>
           <InterpolatingParam id="2703" interp="linr"  time="0/1" value="1" leadInLength="0/1"  name="opacity"/>
          </Parameters>
          <Effects>
           <GenericEffect id="2704" name = "VisualTransition" >
            <Parameters>
            <InterpolatingParam id="2705" interp="linr"  time="0/1" value="1" leadInLength="0/1"   name="leftFramePercentage"/>
            <InterpolatingParam id="2706" interp="linr"  time="0/1" value="1" leadInLength="0/1"   name="rightFramePercentage"/>
            <Parameter id="2707"   name="visualEdgeModType">
             <Keyframes>
             <Keyframe id="2708"  time="0/1" value="0" leadInLength="0/1"  />
             </Keyframes>
            </Parameter>
            <Parameter id="2709"   name="visualTransitionType">
             <Keyframes>
             <Keyframe id="2710"  time="0/1" value="Dissolve" leadInLength="0/1"  />
             </Keyframes>
            </Parameter>
            </Parameters>
            <MetaData>
            </MetaData>
           </GenericEffect>
          </Effects>
          <Attributes>
           <Attribute id="2711" value="" name="ident"/>
          </Attributes>
          <ExtraData>
           <Entry key="ZoomPanBin">
            <ZoomPanBin id="2712"  >
             <ZoomPanKeyframes>
             </ZoomPanKeyframes>
            </ZoomPanBin>
           </Entry>
          </ExtraData>
         </ImageTransition>
         <MetaData>
          <entry key="WinSubProjectDisplayName" val=""/>
         </MetaData>
        </UnifiedMedia>
        <ScreenVMFile id="2713" start="8101" duration="465" scalar="1/1" mediaStart="15/1" mediaDuration="465/1" trackNumber="0" src="15" >
         <Transformer>
          <VectorParam id="2714"  name="translation">
           <InterpolatingParam id="2715" interp="linr"  time="-9999999/1" value="0" leadInLength="0/1"  />
           <InterpolatingParam id="2716" interp="linr"  time="-9999999/1" value="0" leadInLength="0/1"  />
           <InterpolatingParam id="2717" interp="linr"  time="-9999999/1" value="0" leadInLength="0/1"  />
          </VectorParam>
          <VectorParam id="2718"  name="rotation">
           <InterpolatingParam id="2719" interp="linr"  time="-9999999/1" value="0" leadInLength="0/1"  />
           <InterpolatingParam id="2720" interp="linr"  time="-9999999/1" value="0" leadInLength="0/1"  />
           <InterpolatingParam id="2721" interp="linr"  time="-9999999/1" value="0" leadInLength="0/1"  />
          </VectorParam>
          <VectorParam id="2722"  name="shear">
           <InterpolatingParam id="2723" interp="linr"  time="-9999999/1" value="0" leadInLength="0/1"  />
           <InterpolatingParam id="2724" interp="linr"  time="-9999999/1" value="0" leadInLength="0/1"  />
           <InterpolatingParam id="2725" interp="linr"  time="-9999999/1" value="0" leadInLength="0/1"  />
          </VectorParam>
          <VectorParam id="2726"  name="scale">
           <InterpolatingParam id="2727" interp="linr"  time="-9999999/1" value="1" leadInLength="0/1"  />
           <InterpolatingParam id="2728" interp="linr"  time="-9999999/1" value="1" leadInLength="0/1"  />
           <InterpolatingParam id="2729" interp="linr"  time="-9999999/1" value="1" leadInLength="0/1"  />
          </VectorParam>
          <VectorParam id="2730"  name="anchor">
           <InterpolatingParam id="2731" interp="linr"  time="0/1" value="0" leadInLength="0/1"  />
           <InterpolatingParam id="2732" interp="linr"  time="0/1" value="0" leadInLength="0/1"  />
           <InterpolatingParam id="2733" interp="linr"  time="0/1" value="0" leadInLength="0/1"  />
          </VectorParam>
         </Transformer>
         <Parameters>
          <VectorParam id="2734"  name="sourceCrop">
           <InterpolatingParam id="2735" interp="linr"  time="0/1" value="0" leadInLength="0/1"  />
           <InterpolatingParam id="2736" interp="linr"  time="0/1" value="0" leadInLength="0/1"  />
           <InterpolatingParam id="2737" interp="linr"  time="0/1" value="0" leadInLength="0/1"  />
           <InterpolatingParam id="2738" interp="linr"  time="0/1" value="0" leadInLength="0/1"  />
          </VectorParam>
          <VectorParam id="2739"  name="geometryCrop">
           <InterpolatingParam id="2740" interp="linr"  time="-9999999/1" value="0" leadInLength="0/1"  />
           <InterpolatingParam id="2741" interp="linr"  time="-9999999/1" value="0" leadInLength="0/1"  />
           <InterpolatingParam id="2742" interp="linr"  time="-9999999/1" value="0" leadInLength="0/1"  />
           <InterpolatingParam id="2743" interp="linr"  time="-9999999/1" value="0" leadInLength="0/1"  />
          </VectorParam>
          <InterpolatingParam id="2744" interp="linr"  time="-9999999/1" value="1" leadInLength="0/1"  name="opacity"/>
          <InterpolatingParam id="2745" interp="linr"  time="0/1" value="1" leadInLength="0/1"  name="cursorOpacity"/>
          <InterpolatingParam id="2746" interp="linr"  time="0/1" value="1" leadInLength="0/1"  name="cursorScale"/>
         </Parameters>
         <Effects>
          <GenericEffect id="2747" name = "CursorBaseEffectName" >
           <Parameters>
           <InterpolatingParam id="2748" interp="linr"  time="-9999999/1" value="1" leadInLength="0/1"   name="cursorSize"/>
           <InterpolatingParam id="2749" interp="linr"  time="-9999999/1" value="0" leadInLength="0/1"   name="highlightBlurRadius"/>
           <InterpolatingParam id="2750" interp="linr"  time="-9999999/1" value="0" leadInLength="0/1"   name="highlightColorBlue"/>
           <InterpolatingParam id="2751" interp="linr"  time="-9999999/1" value="255" leadInLength="0/1"   name="highlightColorGreen"/>
           <InterpolatingParam id="2752" interp="linr"  time="-9999999/1" value="255" leadInLength="0/1"   name="highlightColorRed"/>
           <InterpolatingParam id="2753" interp="linr"  time="-9999999/1" value="5" leadInLength="0/1"   name="highlightFeatherSize"/>
           <InterpolatingParam id="2754" interp="linr"  time="-9999999/1" value="2" leadInLength="0/1"   name="highlightMagnification"/>
           <InterpolatingParam id="2755" interp="linr"  time="-9999999/1" value="1" leadInLength="0/1"   name="highlightOpacity"/>
           <InterpolatingParam id="2756" interp="linr"  time="-9999999/1" value="45" leadInLength="0/1"   name="highlightSize"/>
           <Parameter id="2757"   name="highlightType">
            <Keyframes>
            <Keyframe id="2758"  time="-9999999/1" value="0" leadInLength="0/1"  />
            </Keyframes>
           </Parameter>
           <InterpolatingParam id="2759" interp="linr"  time="-9999999/1" value="0" leadInLength="0/1"   name="leftClickColorBlue"/>
           <InterpolatingParam id="2760" interp="linr"  time="-9999999/1" value="0" leadInLength="0/1"   name="leftClickColorGreen"/>
           <InterpolatingParam id="2761" interp="linr"  time="-9999999/1" value="255" leadInLength="0/1"   name="leftClickColorRed"/>
           <InterpolatingParam id="2762" interp="linr"  time="-9999999/1" value="0.80000000000000004" leadInLength="0/1"   name="leftClickDuration"/>
           <InterpolatingParam id="2763" interp="linr"  time="-9999999/1" value="20" leadInLength="0/1"   name="leftClickSize"/>
           <Parameter id="2764"   name="leftClickSoundFilename">
            <Keyframes>
            <Keyframe id="2765"  time="-9999999/1" value="" leadInLength="0/1"  />
            </Keyframes>
           </Parameter>
           <InterpolatingParam id="2766" interp="linr"  time="-9999999/1" value="1" leadInLength="0/1"   name="leftClickSoundVolume"/>
           <Parameter id="2767"   name="leftClickType">
            <Keyframes>
            <Keyframe id="2768"  time="-9999999/1" value="0" leadInLength="0/1"  />
            </Keyframes>
           </Parameter>
           <InterpolatingParam id="2769" interp="linr"  time="-9999999/1" value="1" leadInLength="0/1"   name="opacity"/>
           <InterpolatingParam id="2770" interp="linr"  time="-9999999/1" value="255" leadInLength="0/1"   name="rightClickColorBlue"/>
           <InterpolatingParam id="2771" interp="linr"  time="-9999999/1" value="0" leadInLength="0/1"   name="rightClickColorGreen"/>
           <InterpolatingParam id="2772" interp="linr"  time="-9999999/1" value="0" leadInLength="0/1"   name="rightClickColorRed"/>
           <InterpolatingParam id="2773" interp="linr"  time="-9999999/1" value="0.80000000000000004" leadInLength="0/1"   name="rightClickDuration"/>
           <InterpolatingParam id="2774" interp="linr"  time="-9999999/1" value="20" leadInLength="0/1"   name="rightClickSize"/>
           <Parameter id="2775"   name="rightClickSoundFilename">
            <Keyframes>
            <Keyframe id="2776"  time="-9999999/1" value="" leadInLength="0/1"  />
            </Keyframes>
           </Parameter>
           <InterpolatingParam id="2777" interp="linr"  time="-9999999/1" value="1" leadInLength="0/1"   name="rightClickSoundVolume"/>
           <Parameter id="2778"   name="rightClickType">
            <Keyframes>
            <Keyframe id="2779"  time="-9999999/1" value="0" leadInLength="0/1"  />
            </Keyframes>
           </Parameter>
           </Parameters>
          </GenericEffect>
         </Effects>
         <Attributes>
          <Attribute id="2780" value="" name="ident"/>
         </Attributes>
         <MetaData>
          <entry key="AutoAppliedSmartFocus" val="False"/>
          <entry key="WinSubProjectDisplayName" val=""/>
         </MetaData>
         <ExtraData>
          <Entry key="ZoomPanBin">
           <ZoomPanBin id="2781"  >
            <ZoomPanKeyframes>
             <ZoomPanKeyframe id="2782" timeRangeEnd="-9999999/1" timeRangeDuration="0/1" interpolaterName="linr"  />
            </ZoomPanKeyframes>
           </ZoomPanBin>
          </Entry>
          <Entry key="CursorEffectBin">
           <CursorEffectBin id="2783"  >
            <CursorEffectKeyframes>
             <CursorEffectKeyframe id="2784" timeRangeEnd="-9999999/1" timeRangeDuration="0/1" interpolaterName=""  />
            </CursorEffectKeyframes>
           </CursorEffectBin>
          </Entry>
         </ExtraData>
        </ScreenVMFile>
        <ScreenVMFile id="2785" start="8566" duration="118" scalar="59/89" mediaStart="480/1" mediaDuration="178/1" trackNumber="0" src="15" >
         <Transformer>
          <VectorParam id="2786"  name="translation">
           <InterpolatingParam id="2787" interp="linr"  time="-9999999/1" value="0" leadInLength="0/1"  />
           <InterpolatingParam id="2788" interp="linr"  time="-9999999/1" value="0" leadInLength="0/1"  />
           <InterpolatingParam id="2789" interp="linr"  time="-9999999/1" value="0" leadInLength="0/1"  />
          </VectorParam>
          <VectorParam id="2790"  name="rotation">
           <InterpolatingParam id="2791" interp="linr"  time="-9999999/1" value="0" leadInLength="0/1"  />
           <InterpolatingParam id="2792" interp="linr"  time="-9999999/1" value="0" leadInLength="0/1"  />
           <InterpolatingParam id="2793" interp="linr"  time="-9999999/1" value="0" leadInLength="0/1"  />
          </VectorParam>
          <VectorParam id="2794"  name="shear">
           <InterpolatingParam id="2795" interp="linr"  time="-9999999/1" value="0" leadInLength="0/1"  />
           <InterpolatingParam id="2796" interp="linr"  time="-9999999/1" value="0" leadInLength="0/1"  />
           <InterpolatingParam id="2797" interp="linr"  time="-9999999/1" value="0" leadInLength="0/1"  />
          </VectorParam>
          <VectorParam id="2798"  name="scale">
           <InterpolatingParam id="2799" interp="linr"  time="-9999999/1" value="1" leadInLength="0/1"  />
           <InterpolatingParam id="2800" interp="linr"  time="-9999999/1" value="1" leadInLength="0/1"  />
           <InterpolatingParam id="2801" interp="linr"  time="-9999999/1" value="1" leadInLength="0/1"  />
          </VectorParam>
          <VectorParam id="2802"  name="anchor">
           <InterpolatingParam id="2803" interp="linr"  time="0/1" value="0" leadInLength="0/1"  />
           <InterpolatingParam id="2804" interp="linr"  time="0/1" value="0" leadInLength="0/1"  />
           <InterpolatingParam id="2805" interp="linr"  time="0/1" value="0" leadInLength="0/1"  />
          </VectorParam>
         </Transformer>
         <Parameters>
          <VectorParam id="2806"  name="sourceCrop">
           <InterpolatingParam id="2807" interp="linr"  time="0/1" value="0" leadInLength="0/1"  />
           <InterpolatingParam id="2808" interp="linr"  time="0/1" value="0" leadInLength="0/1"  />
           <InterpolatingParam id="2809" interp="linr"  time="0/1" value="0" leadInLength="0/1"  />
           <InterpolatingParam id="2810" interp="linr"  time="0/1" value="0" leadInLength="0/1"  />
          </VectorParam>
          <VectorParam id="2811"  name="geometryCrop">
           <InterpolatingParam id="2812" interp="linr"  time="-9999999/1" value="0" leadInLength="0/1"  />
           <InterpolatingParam id="2813" interp="linr"  time="-9999999/1" value="0" leadInLength="0/1"  />
           <InterpolatingParam id="2814" interp="linr"  time="-9999999/1" value="0" leadInLength="0/1"  />
           <InterpolatingParam id="2815" interp="linr"  time="-9999999/1" value="0" leadInLength="0/1"  />
          </VectorParam>
          <InterpolatingParam id="2816" interp="linr"  time="-9999999/1" value="1" leadInLength="0/1"  name="opacity"/>
          <InterpolatingParam id="2817" interp="linr"  time="0/1" value="1" leadInLength="0/1"  name="cursorOpacity"/>
          <InterpolatingParam id="2818" interp="linr"  time="0/1" value="1" leadInLength="0/1"  name="cursorScale"/>
         </Parameters>
         <Effects>
          <GenericEffect id="2819" name = "CursorBaseEffectName" >
           <Parameters>
           <InterpolatingParam id="2820" interp="linr"  time="-9999999/1" value="1" leadInLength="0/1"   name="cursorSize"/>
           <InterpolatingParam id="2821" interp="linr"  time="-9999999/1" value="0" leadInLength="0/1"   name="highlightBlurRadius"/>
           <InterpolatingParam id="2822" interp="linr"  time="-9999999/1" value="0" leadInLength="0/1"   name="highlightColorBlue"/>
           <InterpolatingParam id="2823" interp="linr"  time="-9999999/1" value="255" leadInLength="0/1"   name="highlightColorGreen"/>
           <InterpolatingParam id="2824" interp="linr"  time="-9999999/1" value="255" leadInLength="0/1"   name="highlightColorRed"/>
           <InterpolatingParam id="2825" interp="linr"  time="-9999999/1" value="5" leadInLength="0/1"   name="highlightFeatherSize"/>
           <InterpolatingParam id="2826" interp="linr"  time="-9999999/1" value="2" leadInLength="0/1"   name="highlightMagnification"/>
           <InterpolatingParam id="2827" interp="linr"  time="-9999999/1" value="1" leadInLength="0/1"   name="highlightOpacity"/>
           <InterpolatingParam id="2828" interp="linr"  time="-9999999/1" value="45" leadInLength="0/1"   name="highlightSize"/>
           <Parameter id="2829"   name="highlightType">
            <Keyframes>
            <Keyframe id="2830"  time="-9999999/1" value="0" leadInLength="0/1"  />
            </Keyframes>
           </Parameter>
           <InterpolatingParam id="2831" interp="linr"  time="-9999999/1" value="0" leadInLength="0/1"   name="leftClickColorBlue"/>
           <InterpolatingParam id="2832" interp="linr"  time="-9999999/1" value="0" leadInLength="0/1"   name="leftClickColorGreen"/>
           <InterpolatingParam id="2833" interp="linr"  time="-9999999/1" value="255" leadInLength="0/1"   name="leftClickColorRed"/>
           <InterpolatingParam id="2834" interp="linr"  time="-9999999/1" value="0.80000000000000004" leadInLength="0/1"   name="leftClickDuration"/>
           <InterpolatingParam id="2835" interp="linr"  time="-9999999/1" value="20" leadInLength="0/1"   name="leftClickSize"/>
           <Parameter id="2836"   name="leftClickSoundFilename">
            <Keyframes>
            <Keyframe id="2837"  time="-9999999/1" value="" leadInLength="0/1"  />
            </Keyframes>
           </Parameter>
           <InterpolatingParam id="2838" interp="linr"  time="-9999999/1" value="1" leadInLength="0/1"   name="leftClickSoundVolume"/>
           <Parameter id="2839"   name="leftClickType">
            <Keyframes>
            <Keyframe id="2840"  time="-9999999/1" value="0" leadInLength="0/1"  />
            </Keyframes>
           </Parameter>
           <InterpolatingParam id="2841" interp="linr"  time="-9999999/1" value="1" leadInLength="0/1"   name="opacity"/>
           <InterpolatingParam id="2842" interp="linr"  time="-9999999/1" value="255" leadInLength="0/1"   name="rightClickColorBlue"/>
           <InterpolatingParam id="2843" interp="linr"  time="-9999999/1" value="0" leadInLength="0/1"   name="rightClickColorGreen"/>
           <InterpolatingParam id="2844" interp="linr"  time="-9999999/1" value="0" leadInLength="0/1"   name="rightClickColorRed"/>
           <InterpolatingParam id="2845" interp="linr"  time="-9999999/1" value="0.80000000000000004" leadInLength="0/1"   name="rightClickDuration"/>
           <InterpolatingParam id="2846" interp="linr"  time="-9999999/1" value="20" leadInLength="0/1"   name="rightClickSize"/>
           <Parameter id="2847"   name="rightClickSoundFilename">
            <Keyframes>
            <Keyframe id="2848"  time="-9999999/1" value="" leadInLength="0/1"  />
            </Keyframes>
           </Parameter>
           <InterpolatingParam id="2849" interp="linr"  time="-9999999/1" value="1" leadInLength="0/1"   name="rightClickSoundVolume"/>
           <Parameter id="2850"   name="rightClickType">
            <Keyframes>
            <Keyframe id="2851"  time="-9999999/1" value="0" leadInLength="0/1"  />
            </Keyframes>
           </Parameter>
           </Parameters>
          </GenericEffect>
         </Effects>
         <Attributes>
          <Attribute id="2852" value="" name="ident"/>
         </Attributes>
         <MetaData>
          <entry key="AutoAppliedSmartFocus" val="False"/>
          <entry key="WinSubProjectDisplayName" val=""/>
         </MetaData>
         <ExtraData>
          <Entry key="ZoomPanBin">
           <ZoomPanBin id="2853"  >
            <ZoomPanKeyframes>
             <ZoomPanKeyframe id="2854" timeRangeEnd="-9999999/1" timeRangeDuration="0/1" interpolaterName="linr"  />
            </ZoomPanKeyframes>
           </ZoomPanBin>
          </Entry>
          <Entry key="CursorEffectBin">
           <CursorEffectBin id="2855"  >
            <CursorEffectKeyframes>
             <CursorEffectKeyframe id="2856" timeRangeEnd="-9999999/1" timeRangeDuration="0/1" interpolaterName=""  />
            </CursorEffectKeyframes>
           </CursorEffectBin>
          </Entry>
         </ExtraData>
        </ScreenVMFile>
        <StitchedMedia id="2857" start="8684" duration="527" scalar="1/1" mediaStart="893/1" mediaDuration="527/1" minMediaStart="0/1" >
         <Transformer>
          <VectorParam id="2858"  name="translation">
           <InterpolatingParam id="2859" interp="linr"  time="-9999999/1" value="0" leadInLength="0/1"  />
           <InterpolatingParam id="2860" interp="linr"  time="-9999999/1" value="0" leadInLength="0/1"  />
           <InterpolatingParam id="2861" interp="linr"  time="-9999999/1" value="0" leadInLength="0/1"  />
          </VectorParam>
          <VectorParam id="2862"  name="rotation">
           <InterpolatingParam id="2863" interp="linr"  time="-9999999/1" value="0" leadInLength="0/1"  />
           <InterpolatingParam id="2864" interp="linr"  time="-9999999/1" value="0" leadInLength="0/1"  />
           <InterpolatingParam id="2865" interp="linr"  time="-9999999/1" value="0" leadInLength="0/1"  />
          </VectorParam>
          <VectorParam id="2866"  name="shear">
           <InterpolatingParam id="2867" interp="linr"  time="-9999999/1" value="0" leadInLength="0/1"  />
           <InterpolatingParam id="2868" interp="linr"  time="-9999999/1" value="0" leadInLength="0/1"  />
           <InterpolatingParam id="2869" interp="linr"  time="-9999999/1" value="0" leadInLength="0/1"  />
          </VectorParam>
          <VectorParam id="2870"  name="scale">
           <InterpolatingParam id="2871" interp="linr"  time="-9999999/1" value="1" leadInLength="0/1"  />
           <InterpolatingParam id="2872" interp="linr"  time="-9999999/1" value="1" leadInLength="0/1"  />
           <InterpolatingParam id="2873" interp="linr"  time="-9999999/1" value="1" leadInLength="0/1"  />
          </VectorParam>
          <VectorParam id="2874"  name="anchor">
           <InterpolatingParam id="2875" interp="linr"  >
            <Keyframes>
            <Keyframe id="2876"  time="0/1" value="0" leadInLength="0/1"  />
            <Keyframe id="2877"  time="1000/1" value="0" leadInLength="0/1"  />
            </Keyframes>
           </InterpolatingParam>
           <InterpolatingParam id="2878" interp="linr"  >
            <Keyframes>
            <Keyframe id="2879"  time="0/1" value="0" leadInLength="0/1"  />
            <Keyframe id="2880"  time="1000/1" value="0" leadInLength="0/1"  />
            </Keyframes>
           </InterpolatingParam>
           <InterpolatingParam id="2881" interp="linr"  >
            <Keyframes>
            <Keyframe id="2882"  time="0/1" value="0" leadInLength="0/1"  />
            <Keyframe id="2883"  time="1000/1" value="0" leadInLength="0/1"  />
            </Keyframes>
           </InterpolatingParam>
          </VectorParam>
         </Transformer>
         <Parameters>
          <VectorParam id="2884"  name="sourceCrop">
           <InterpolatingParam id="2885" interp="linr"  >
            <Keyframes>
            <Keyframe id="2886"  time="0/1" value="0" leadInLength="0/1"  />
            <Keyframe id="2887"  time="1000/1" value="0" leadInLength="0/1"  />
            </Keyframes>
           </InterpolatingParam>
           <InterpolatingParam id="2888" interp="linr"  >
            <Keyframes>
            <Keyframe id="2889"  time="0/1" value="0" leadInLength="0/1"  />
            <Keyframe id="2890"  time="1000/1" value="0" leadInLength="0/1"  />
            </Keyframes>
           </InterpolatingParam>
           <InterpolatingParam id="2891" interp="linr"  >
            <Keyframes>
            <Keyframe id="2892"  time="0/1" value="0" leadInLength="0/1"  />
            <Keyframe id="2893"  time="1000/1" value="0" leadInLength="0/1"  />
            </Keyframes>
           </InterpolatingParam>
           <InterpolatingParam id="2894" interp="linr"  >
            <Keyframes>
            <Keyframe id="2895"  time="0/1" value="0" leadInLength="0/1"  />
            <Keyframe id="2896"  time="1000/1" value="0" leadInLength="0/1"  />
            </Keyframes>
           </InterpolatingParam>
          </VectorParam>
          <VectorParam id="2897"  name="geometryCrop">
           <InterpolatingParam id="2898" interp="linr"  time="-9999999/1" value="0" leadInLength="0/1"  />
           <InterpolatingParam id="2899" interp="linr"  time="-9999999/1" value="0" leadInLength="0/1"  />
           <InterpolatingParam id="2900" interp="linr"  time="-9999999/1" value="0" leadInLength="0/1"  />
           <InterpolatingParam id="2901" interp="linr"  time="-9999999/1" value="0" leadInLength="0/1"  />
          </VectorParam>
          <InterpolatingParam id="2902" interp="linr"  time="-9999999/1" value="1" leadInLength="0/1"  name="opacity"/>
          <InterpolatingParam id="2903" interp="linr"  time="0/1" value="1" leadInLength="0/1"  name="cursorOpacity"/>
          <InterpolatingParam id="2904" interp="linr"  name="cursorScale">
           <Keyframes>
           <Keyframe id="2905"  time="0/1" value="1" leadInLength="0/1"  />
           <Keyframe id="2906"  time="1000/1" value="1" leadInLength="0/1"  />
           </Keyframes>
          </InterpolatingParam>
          <Parameter id="2907"  name="captions"/>
         </Parameters>
         <Effects>
          <GenericEffect id="2908" name = "CursorBaseEffectName" >
           <Parameters>
           <InterpolatingParam id="2909" interp="linr"  time="-9999999/1" value="1" leadInLength="0/1"   name="cursorSize"/>
           <InterpolatingParam id="2910" interp="linr"  time="-9999999/1" value="0" leadInLength="0/1"   name="highlightBlurRadius"/>
           <InterpolatingParam id="2911" interp="linr"  time="-9999999/1" value="0" leadInLength="0/1"   name="highlightColorBlue"/>
           <InterpolatingParam id="2912" interp="linr"  time="-9999999/1" value="255" leadInLength="0/1"   name="highlightColorGreen"/>
           <InterpolatingParam id="2913" interp="linr"  time="-9999999/1" value="255" leadInLength="0/1"   name="highlightColorRed"/>
           <InterpolatingParam id="2914" interp="linr"  time="-9999999/1" value="5" leadInLength="0/1"   name="highlightFeatherSize"/>
           <InterpolatingParam id="2915" interp="linr"  time="-9999999/1" value="2" leadInLength="0/1"   name="highlightMagnification"/>
           <InterpolatingParam id="2916" interp="linr"  time="-9999999/1" value="1" leadInLength="0/1"   name="highlightOpacity"/>
           <InterpolatingParam id="2917" interp="linr"  time="-9999999/1" value="45" leadInLength="0/1"   name="highlightSize"/>
           <Parameter id="2918"   name="highlightType">
            <Keyframes>
            <Keyframe id="2919"  time="-9999999/1" value="0" leadInLength="0/1"  />
            </Keyframes>
           </Parameter>
           <InterpolatingParam id="2920" interp="linr"  time="-9999999/1" value="0" leadInLength="0/1"   name="leftClickColorBlue"/>
           <InterpolatingParam id="2921" interp="linr"  time="-9999999/1" value="0" leadInLength="0/1"   name="leftClickColorGreen"/>
           <InterpolatingParam id="2922" interp="linr"  time="-9999999/1" value="255" leadInLength="0/1"   name="leftClickColorRed"/>
           <InterpolatingParam id="2923" interp="linr"  time="-9999999/1" value="0.80000000000000004" leadInLength="0/1"   name="leftClickDuration"/>
           <InterpolatingParam id="2924" interp="linr"  time="-9999999/1" value="20" leadInLength="0/1"   name="leftClickSize"/>
           <Parameter id="2925"   name="leftClickSoundFilename">
            <Keyframes>
            <Keyframe id="2926"  time="-9999999/1" value="" leadInLength="0/1"  />
            </Keyframes>
           </Parameter>
           <InterpolatingParam id="2927" interp="linr"  time="-9999999/1" value="1" leadInLength="0/1"   name="leftClickSoundVolume"/>
           <Parameter id="2928"   name="leftClickType">
            <Keyframes>
            <Keyframe id="2929"  time="-9999999/1" value="0" leadInLength="0/1"  />
            </Keyframes>
           </Parameter>
           <InterpolatingParam id="2930" interp="linr"  time="-9999999/1" value="1" leadInLength="0/1"   name="opacity"/>
           <InterpolatingParam id="2931" interp="linr"  time="-9999999/1" value="255" leadInLength="0/1"   name="rightClickColorBlue"/>
           <InterpolatingParam id="2932" interp="linr"  time="-9999999/1" value="0" leadInLength="0/1"   name="rightClickColorGreen"/>
           <InterpolatingParam id="2933" interp="linr"  time="-9999999/1" value="0" leadInLength="0/1"   name="rightClickColorRed"/>
           <InterpolatingParam id="2934" interp="linr"  time="-9999999/1" value="0.80000000000000004" leadInLength="0/1"   name="rightClickDuration"/>
           <InterpolatingParam id="2935" interp="linr"  time="-9999999/1" value="20" leadInLength="0/1"   name="rightClickSize"/>
           <Parameter id="2936"   name="rightClickSoundFilename">
            <Keyframes>
            <Keyframe id="2937"  time="-9999999/1" value="" leadInLength="0/1"  />
            </Keyframes>
           </Parameter>
           <InterpolatingParam id="2938" interp="linr"  time="-9999999/1" value="1" leadInLength="0/1"   name="rightClickSoundVolume"/>
           <Parameter id="2939"   name="rightClickType">
            <Keyframes>
            <Keyframe id="2940"  time="-9999999/1" value="0" leadInLength="0/1"  />
            </Keyframes>
           </Parameter>
           </Parameters>
          </GenericEffect>
         </Effects>
         <Attributes>
          <Attribute id="2941" value="" name="ident"/>
         </Attributes>
         <MetaData>
          <entry key="AutoAppliedSmartFocus" val="False"/>
          <entry key="WinSubProjectDisplayName" val=""/>
         </MetaData>
         <ExtraData>
          <Entry key="ZoomPanBin">
           <ZoomPanBin id="2942"  >
            <ZoomPanKeyframes>
             <ZoomPanKeyframe id="2943" timeRangeEnd="-9999999/1" timeRangeDuration="0/1" interpolaterName="linr"  />
            </ZoomPanKeyframes>
           </ZoomPanBin>
          </Entry>
          <Entry key="CursorEffectBin">
           <CursorEffectBin id="2944"  >
            <CursorEffectKeyframes>
             <CursorEffectKeyframe id="2945" timeRangeEnd="-9999999/1" timeRangeDuration="0/1" interpolaterName=""  />
            </CursorEffectKeyframes>
           </CursorEffectBin>
          </Entry>
         </ExtraData>
         <GenericTrack id="2946"  >
          <Attributes>
           <Attribute id="2947" value="" name="ident"/>
           <Attribute id="2948" value="0" name="audioMuted"/>
           <Attribute id="2949" value="0" name="videoHidden"/>
          </Attributes>
          <MetaData>
           <entry key="IsLocked" val="False"/>
           <entry key="WinTrackHeight" val="0"/>
          </MetaData>
          <Medias>
           <ScreenVMFile id="2950" start="0" duration="1000" scalar="1/1" mediaStart="0/1" mediaDuration="1000/1" trackNumber="0" src="15" >
            <Transformer>
             <VectorParam id="2951"  name="translation">
              <InterpolatingParam id="2952" interp="linr"  time="-9999999/1" value="0" leadInLength="0/1"  />
              <InterpolatingParam id="2953" interp="linr"  time="-9999999/1" value="0" leadInLength="0/1"  />
              <InterpolatingParam id="2954" interp="linr"  time="-9999999/1" value="0" leadInLength="0/1"  />
             </VectorParam>
             <VectorParam id="2955"  name="rotation">
              <InterpolatingParam id="2956" interp="linr"  time="-9999999/1" value="0" leadInLength="0/1"  />
              <InterpolatingParam id="2957" interp="linr"  time="-9999999/1" value="0" leadInLength="0/1"  />
              <InterpolatingParam id="2958" interp="linr"  time="-9999999/1" value="0" leadInLength="0/1"  />
             </VectorParam>
             <VectorParam id="2959"  name="shear">
              <InterpolatingParam id="2960" interp="linr"  time="-9999999/1" value="0" leadInLength="0/1"  />
              <InterpolatingParam id="2961" interp="linr"  time="-9999999/1" value="0" leadInLength="0/1"  />
              <InterpolatingParam id="2962" interp="linr"  time="-9999999/1" value="0" leadInLength="0/1"  />
             </VectorParam>
             <VectorParam id="2963"  name="scale">
              <InterpolatingParam id="2964" interp="linr"  time="-9999999/1" value="1" leadInLength="0/1"  />
              <InterpolatingParam id="2965" interp="linr"  time="-9999999/1" value="1" leadInLength="0/1"  />
              <InterpolatingParam id="2966" interp="linr"  time="-9999999/1" value="1" leadInLength="0/1"  />
             </VectorParam>
             <VectorParam id="2967"  name="anchor">
              <InterpolatingParam id="2968" interp="linr"  time="0/1" value="0" leadInLength="0/1"  />
              <InterpolatingParam id="2969" interp="linr"  time="0/1" value="0" leadInLength="0/1"  />
              <InterpolatingParam id="2970" interp="linr"  time="0/1" value="0" leadInLength="0/1"  />
             </VectorParam>
            </Transformer>
            <Parameters>
             <VectorParam id="2971"  name="sourceCrop">
              <InterpolatingParam id="2972" interp="linr"  time="0/1" value="0" leadInLength="0/1"  />
              <InterpolatingParam id="2973" interp="linr"  time="0/1" value="0" leadInLength="0/1"  />
              <InterpolatingParam id="2974" interp="linr"  time="0/1" value="0" leadInLength="0/1"  />
              <InterpolatingParam id="2975" interp="linr"  time="0/1" value="0" leadInLength="0/1"  />
             </VectorParam>
             <VectorParam id="2976"  name="geometryCrop">
              <InterpolatingParam id="2977" interp="linr"  time="-9999999/1" value="0" leadInLength="0/1"  />
              <InterpolatingParam id="2978" interp="linr"  time="-9999999/1" value="0" leadInLength="0/1"  />
              <InterpolatingParam id="2979" interp="linr"  time="-9999999/1" value="0" leadInLength="0/1"  />
              <InterpolatingParam id="2980" interp="linr"  time="-9999999/1" value="0" leadInLength="0/1"  />
             </VectorParam>
             <InterpolatingParam id="2981" interp="linr"  time="-9999999/1" value="1" leadInLength="0/1"  name="opacity"/>
             <InterpolatingParam id="2982" interp="linr"  time="0/1" value="0" leadInLength="0/1"  name="cursorOpacity"/>
             <InterpolatingParam id="2983" interp="linr"  time="0/1" value="0" leadInLength="0/1"  name="cursorScale"/>
            </Parameters>
            <Attributes>
             <Attribute id="2984" value="" name="ident"/>
            </Attributes>
            <MetaData>
             <entry key="AutoAppliedSmartFocus" val="False"/>
             <entry key="WinSubProjectDisplayName" val=""/>
            </MetaData>
            <ExtraData>
             <Entry key="ZoomPanBin">
              <ZoomPanBin id="2985"  >
               <ZoomPanKeyframes>
                <ZoomPanKeyframe id="2986" timeRangeEnd="-9999999/1" timeRangeDuration="0/1" interpolaterName="linr"  />
               </ZoomPanKeyframes>
              </ZoomPanBin>
             </Entry>
             <Entry key="CursorEffectBin">
              <CursorEffectBin id="2987"  >
               <CursorEffectKeyframes>
               </CursorEffectKeyframes>
              </CursorEffectBin>
             </Entry>
            </ExtraData>
           </ScreenVMFile>
           <ScreenIMFile id="2988" start="1000" duration="108030" scalar="1/1" mediaStart="999/1" mediaDuration="1/1" trackNumber="0" src="15" trimStartSum="0/1" >
            <Transformer>
             <VectorParam id="2989"  name="translation">
              <InterpolatingParam id="2990" interp="linr"  time="-9999999/1" value="0" leadInLength="0/1"  />
              <InterpolatingParam id="2991" interp="linr"  time="-9999999/1" value="0" leadInLength="0/1"  />
              <InterpolatingParam id="2992" interp="linr"  time="-9999999/1" value="0" leadInLength="0/1"  />
             </VectorParam>
             <VectorParam id="2993"  name="rotation">
              <InterpolatingParam id="2994" interp="linr"  time="-9999999/1" value="0" leadInLength="0/1"  />
              <InterpolatingParam id="2995" interp="linr"  time="-9999999/1" value="0" leadInLength="0/1"  />
              <InterpolatingParam id="2996" interp="linr"  time="-9999999/1" value="0" leadInLength="0/1"  />
             </VectorParam>
             <VectorParam id="2997"  name="shear">
              <InterpolatingParam id="2998" interp="linr"  time="-9999999/1" value="0" leadInLength="0/1"  />
              <InterpolatingParam id="2999" interp="linr"  time="-9999999/1" value="0" leadInLength="0/1"  />
              <InterpolatingParam id="3000" interp="linr"  time="-9999999/1" value="0" leadInLength="0/1"  />
             </VectorParam>
             <VectorParam id="3001"  name="scale">
              <InterpolatingParam id="3002" interp="linr"  time="-9999999/1" value="1" leadInLength="0/1"  />
              <InterpolatingParam id="3003" interp="linr"  time="-9999999/1" value="1" leadInLength="0/1"  />
              <InterpolatingParam id="3004" interp="linr"  time="-9999999/1" value="1" leadInLength="0/1"  />
             </VectorParam>
             <VectorParam id="3005"  name="anchor">
              <InterpolatingParam id="3006" interp="linr"  time="0/1" value="0" leadInLength="0/1"  />
              <InterpolatingParam id="3007" interp="linr"  time="0/1" value="0" leadInLength="0/1"  />
              <InterpolatingParam id="3008" interp="linr"  time="0/1" value="0" leadInLength="0/1"  />
             </VectorParam>
            </Transformer>
            <Parameters>
             <VectorParam id="3009"  name="sourceCrop">
              <InterpolatingParam id="3010" interp="linr"  time="0/1" value="0" leadInLength="0/1"  />
              <InterpolatingParam id="3011" interp="linr"  time="0/1" value="0" leadInLength="0/1"  />
              <InterpolatingParam id="3012" interp="linr"  time="0/1" value="0" leadInLength="0/1"  />
              <InterpolatingParam id="3013" interp="linr"  time="0/1" value="0" leadInLength="0/1"  />
             </VectorParam>
             <VectorParam id="3014"  name="geometryCrop">
              <InterpolatingParam id="3015" interp="linr"  time="-9999999/1" value="0" leadInLength="0/1"  />
              <InterpolatingParam id="3016" interp="linr"  time="-9999999/1" value="0" leadInLength="0/1"  />
              <InterpolatingParam id="3017" interp="linr"  time="-9999999/1" value="0" leadInLength="0/1"  />
              <InterpolatingParam id="3018" interp="linr"  time="-9999999/1" value="0" leadInLength="0/1"  />
             </VectorParam>
             <InterpolatingParam id="3019" interp="linr"  time="-9999999/1" value="1" leadInLength="0/1"  name="opacity"/>
             <InterpolatingParam id="3020" interp="linr"  name="cursorLocation">
              <Keyframes>
              <Keyframe id="3021"  time="-300/1" value="(798,429,0)" leadInLength="0/1"  />
              <Keyframe id="3022"  time="-299/1" value="(917,424,0)" leadInLength="0/1"  />
              <Keyframe id="3023"  time="-298/1" value="(1009,424,0)" leadInLength="0/1"  />
              <Keyframe id="3024"  time="-297/1" value="(1117,424,0)" leadInLength="0/1"  />
              <Keyframe id="3025"  time="-296/1" value="(1466,436,0)" leadInLength="0/1"  />
              <Keyframe id="3026"  time="-295/1" value="(1602,440,0)" leadInLength="0/1"  />
              <Keyframe id="3027"  time="-294/1" value="(1777,455,0)" leadInLength="0/1"  />
              <Keyframe id="3028"  time="-293/1" value="(2031,493,0)" leadInLength="0/1"  />
              <Keyframe id="3029"  time="-292/1" value="(2119,526,0)" leadInLength="0/1"  />
              <Keyframe id="3030"  time="-291/1" value="(2141,534,0)" leadInLength="0/1"  />
              <Keyframe id="3031"  time="-290/1" value="(2175,544,0)" leadInLength="0/1"  />
              <Keyframe id="3032"  time="-289/1" value="(2185,546,0)" leadInLength="0/1"  />
              <Keyframe id="3033"  time="-288/1" value="(2184,545,0)" leadInLength="0/1"  />
              <Keyframe id="3034"  time="-285/1" value="(2175,535,0)" leadInLength="0/1"  />
              <Keyframe id="3035"  time="-282/1" value="(2175,539,0)" leadInLength="0/1"  />
              <Keyframe id="3036"  time="-281/1" value="(2170,544,0)" leadInLength="0/1"  />
              <Keyframe id="3037"  time="-279/1" value="(2167,549,0)" leadInLength="0/1"  />
              <Keyframe id="3038"  time="-278/1" value="(2162,549,0)" leadInLength="0/1"  />
              <Keyframe id="3039"  time="-277/1" value="(2161,550,0)" leadInLength="0/1"  />
              <Keyframe id="3040"  time="-275/1" value="(2156,550,0)" leadInLength="0/1"  />
              <Keyframe id="3041"  time="-274/1" value="(2139,551,0)" leadInLength="0/1"  />
              <Keyframe id="3042"  time="-273/1" value="(2120,551,0)" leadInLength="0/1"  />
              <Keyframe id="3043"  time="-272/1" value="(2098,554,0)" leadInLength="0/1"  />
              <Keyframe id="3044"  time="-271/1" value="(2088,556,0)" leadInLength="0/1"  />
              <Keyframe id="3045"  time="-270/1" value="(2071,557,0)" leadInLength="0/1"  />
              <Keyframe id="3046"  time="-269/1" value="(2065,558,0)" leadInLength="0/1"  />
              <Keyframe id="3047"  time="-268/1" value="(2041,562,0)" leadInLength="0/1"  />
              <Keyframe id="3048"  time="-267/1" value="(2030,563,0)" leadInLength="0/1"  />
              <Keyframe id="3049"  time="-266/1" value="(2024,564,0)" leadInLength="0/1"  />
              <Keyframe id="3050"  time="-265/1" value="(1994,568,0)" leadInLength="0/1"  />
              <Keyframe id="3051"  time="-264/1" value="(1991,569,0)" leadInLength="0/1"  />
              <Keyframe id="3052"  time="-263/1" value="(1989,570,0)" leadInLength="0/1"  />
              <Keyframe id="3053"  time="-260/1" value="(1984,570,0)" leadInLength="0/1"  />
              <Keyframe id="3054"  time="-259/1" value="(1984,570,0)" leadInLength="0/1"  />
              <Keyframe id="3055"  time="-257/1" value="(1984,566,0)" leadInLength="0/1"  />
              <Keyframe id="3056"  time="-254/1" value="(1984,566,0)" leadInLength="0/1"  />
              <Keyframe id="3057"  time="-253/1" value="(1984,562,0)" leadInLength="0/1"  />
              <Keyframe id="3058"  time="-230/1" value="(1984,562,0)" leadInLength="0/1"  />
              <Keyframe id="3059"  time="-228/1" value="(1988,562,0)" leadInLength="0/1"  />
              <Keyframe id="3060"  time="-227/1" value="(1989,562,0)" leadInLength="0/1"  />
              <Keyframe id="3061"  time="-226/1" value="(2004,561,0)" leadInLength="0/1"  />
              <Keyframe id="3062"  time="-225/1" value="(2008,561,0)" leadInLength="0/1"  />
              <Keyframe id="3063"  time="-224/1" value="(2014,561,0)" leadInLength="0/1"  />
              <Keyframe id="3064"  time="-223/1" value="(2037,560,0)" leadInLength="0/1"  />
              <Keyframe id="3065"  time="-222/1" value="(2039,560,0)" leadInLength="0/1"  />
              <Keyframe id="3066"  time="-221/1" value="(2040,560,0)" leadInLength="0/1"  />
              <Keyframe id="3067"  time="-220/1" value="(2050,560,0)" leadInLength="0/1"  />
              <Keyframe id="3068"  time="-202/1" value="(2067,560,0)" leadInLength="0/1"  />
              <Keyframe id="3069"  time="-201/1" value="(2110,560,0)" leadInLength="0/1"  />
              <Keyframe id="3070"  time="-200/1" value="(2115,559,0)" leadInLength="0/1"  />
              <Keyframe id="3071"  time="-198/1" value="(2124,559,0)" leadInLength="0/1"  />
              <Keyframe id="3072"  time="-197/1" value="(2135,560,0)" leadInLength="0/1"  />
              <Keyframe id="3073"  time="-65/1" value="(2139,559,0)" leadInLength="0/1"  />
              <Keyframe id="3074"  time="-64/1" value="(2135,545,0)" leadInLength="0/1"  />
              <Keyframe id="3075"  time="-63/1" value="(2094,460,0)" leadInLength="0/1"  />
              <Keyframe id="3076"  time="-62/1" value="(2034,392,0)" leadInLength="0/1"  />
              <Keyframe id="3077"  time="-61/1" value="(1842,284,0)" leadInLength="0/1"  />
              <Keyframe id="3078"  time="-60/1" value="(1699,242,0)" leadInLength="0/1"  />
              <Keyframe id="3079"  time="-59/1" value="(1538,210,0)" leadInLength="0/1"  />
              <Keyframe id="3080"  time="-58/1" value="(1088,157,0)" leadInLength="0/1"  />
              <Keyframe id="3081"  time="-57/1" value="(938,142,0)" leadInLength="0/1"  />
              <Keyframe id="3082"  time="-56/1" value="(626,104,0)" leadInLength="0/1"  />
              <Keyframe id="3083"  time="-55/1" value="(498,110,0)" leadInLength="0/1"  />
              <Keyframe id="3084"  time="-54/1" value="(488,115,0)" leadInLength="0/1"  />
              <Keyframe id="3085"  time="-53/1" value="(483,121,0)" leadInLength="0/1"  />
              <Keyframe id="3086"  time="-52/1" value="(480,134,0)" leadInLength="0/1"  />
              <Keyframe id="3087"  time="-51/1" value="(479,179,0)" leadInLength="0/1"  />
              <Keyframe id="3088"  time="-50/1" value="(552,266,0)" leadInLength="0/1"  />
              <Keyframe id="3089"  time="-49/1" value="(594,284,0)" leadInLength="0/1"  />
              <Keyframe id="3090"  time="-48/1" value="(655,302,0)" leadInLength="0/1"  />
              <Keyframe id="3091"  time="-47/1" value="(827,337,0)" leadInLength="0/1"  />
              <Keyframe id="3092"  time="-44/1" value="(845,340,0)" leadInLength="0/1"  />
              <Keyframe id="3093"  time="-43/1" value="(845,340,0)" leadInLength="0/1"  />
              <Keyframe id="3094"  time="-42/1" value="(862,336,0)" leadInLength="0/1"  />
              <Keyframe id="3095"  time="-41/1" value="(874,334,0)" leadInLength="0/1"  />
              <Keyframe id="3096"  time="-10/1" value="(923,339,0)" leadInLength="0/1"  />
              <Keyframe id="3097"  time="-9/1" value="(925,341,0)" leadInLength="0/1"  />
              <Keyframe id="3098"  time="-8/1" value="(928,343,0)" leadInLength="0/1"  />
              <Keyframe id="3099"  time="-7/1" value="(928,345,0)" leadInLength="0/1"  />
              <Keyframe id="3100"  time="-6/1" value="(932,347,0)" leadInLength="0/1"  />
              <Keyframe id="3101"  time="-5/1" value="(947,353,0)" leadInLength="0/1"  />
              <Keyframe id="3102"  time="-4/1" value="(953,353,0)" leadInLength="0/1"  />
              <Keyframe id="3103"  time="-3/1" value="(957,353,0)" leadInLength="0/1"  />
              <Keyframe id="3104"  time="-2/1" value="(998,352,0)" leadInLength="0/1"  />
              <Keyframe id="3105"  time="-1/1" value="(1017,354,0)" leadInLength="0/1"  />
              <Keyframe id="3106"  time="0/1" value="(1041,356,0)" leadInLength="0/1"  />
              <Keyframe id="3107"  time="1/1" value="(1149,363,0)" leadInLength="0/1"  />
              <Keyframe id="3108"  time="2/1" value="(1189,363,0)" leadInLength="0/1"  />
              <Keyframe id="3109"  time="3/1" value="(1198,363,0)" leadInLength="0/1"  />
              <Keyframe id="3110"  time="4/1" value="(1236,361,0)" leadInLength="0/1"  />
              <Keyframe id="3111"  time="5/1" value="(1245,361,0)" leadInLength="0/1"  />
              <Keyframe id="3112"  time="6/1" value="(1264,361,0)" leadInLength="0/1"  />
              <Keyframe id="3113"  time="7/1" value="(1268,360,0)" leadInLength="0/1"  />
              <Keyframe id="3114"  time="8/1" value="(1268,359,0)" leadInLength="0/1"  />
              <Keyframe id="3115"  time="9/1" value="(1263,351,0)" leadInLength="0/1"  />
              <Keyframe id="3116"  time="10/1" value="(1256,346,0)" leadInLength="0/1"  />
              <Keyframe id="3117"  time="11/1" value="(1254,345,0)" leadInLength="0/1"  />
              <Keyframe id="3118"  time="12/1" value="(1252,345,0)" leadInLength="0/1"  />
              <Keyframe id="3119"  time="13/1" value="(1251,344,0)" leadInLength="0/1"  />
              <Keyframe id="3120"  time="14/1" value="(1249,344,0)" leadInLength="0/1"  />
              <Keyframe id="3121"  time="15/1" value="(1248,343,0)" leadInLength="0/1"  />
              <Keyframe id="3122"  time="16/1" value="(1248,343,0)" leadInLength="0/1"  />
              <Keyframe id="3123"  time="17/1" value="(1247,342,0)" leadInLength="0/1"  />
              <Keyframe id="3124"  time="34/1" value="(1247,343,0)" leadInLength="0/1"  />
              <Keyframe id="3125"  time="35/1" value="(1247,345,0)" leadInLength="0/1"  />
              <Keyframe id="3126"  time="36/1" value="(1247,346,0)" leadInLength="0/1"  />
              <Keyframe id="3127"  time="37/1" value="(1247,349,0)" leadInLength="0/1"  />
              <Keyframe id="3128"  time="38/1" value="(1246,352,0)" leadInLength="0/1"  />
              <Keyframe id="3129"  time="39/1" value="(1244,356,0)" leadInLength="0/1"  />
              <Keyframe id="3130"  time="40/1" value="(1242,362,0)" leadInLength="0/1"  />
              <Keyframe id="3131"  time="41/1" value="(1241,363,0)" leadInLength="0/1"  />
              <Keyframe id="3132"  time="42/1" value="(1240,363,0)" leadInLength="0/1"  />
              <Keyframe id="3133"  time="43/1" value="(1237,367,0)" leadInLength="0/1"  />
              <Keyframe id="3134"  time="44/1" value="(1234,369,0)" leadInLength="0/1"  />
              <Keyframe id="3135"  time="45/1" value="(1234,369,0)" leadInLength="0/1"  />
              <Keyframe id="3136"  time="46/1" value="(1226,374,0)" leadInLength="0/1"  />
              <Keyframe id="3137"  time="47/1" value="(1221,376,0)" leadInLength="0/1"  />
              <Keyframe id="3138"  time="48/1" value="(1218,377,0)" leadInLength="0/1"  />
              <Keyframe id="3139"  time="49/1" value="(1191,387,0)" leadInLength="0/1"  />
              <Keyframe id="3140"  time="50/1" value="(1178,391,0)" leadInLength="0/1"  />
              <Keyframe id="3141"  time="51/1" value="(1171,394,0)" leadInLength="0/1"  />
              <Keyframe id="3142"  time="52/1" value="(1170,394,0)" leadInLength="0/1"  />
              <Keyframe id="3143"  time="60/1" value="(1168,396,0)" leadInLength="0/1"  />
              <Keyframe id="3144"  time="61/1" value="(1163,400,0)" leadInLength="0/1"  />
              <Keyframe id="3145"  time="62/1" value="(1149,410,0)" leadInLength="0/1"  />
              <Keyframe id="3146"  time="63/1" value="(1137,416,0)" leadInLength="0/1"  />
              <Keyframe id="3147"  time="64/1" value="(1121,421,0)" leadInLength="0/1"  />
              <Keyframe id="3148"  time="65/1" value="(1108,424,0)" leadInLength="0/1"  />
              <Keyframe id="3149"  time="66/1" value="(1091,426,0)" leadInLength="0/1"  />
              <Keyframe id="3150"  time="67/1" value="(1005,436,0)" leadInLength="0/1"  />
              <Keyframe id="3151"  time="68/1" value="(931,462,0)" leadInLength="0/1"  />
              <Keyframe id="3152"  time="69/1" value="(915,471,0)" leadInLength="0/1"  />
              <Keyframe id="3153"  time="70/1" value="(897,490,0)" leadInLength="0/1"  />
              <Keyframe id="3154"  time="71/1" value="(894,493,0)" leadInLength="0/1"  />
              <Keyframe id="3155"  time="72/1" value="(891,501,0)" leadInLength="0/1"  />
              <Keyframe id="3156"  time="73/1" value="(878,531,0)" leadInLength="0/1"  />
              <Keyframe id="3157"  time="74/1" value="(877,534,0)" leadInLength="0/1"  />
              <Keyframe id="3158"  time="75/1" value="(875,539,0)" leadInLength="0/1"  />
              <Keyframe id="3159"  time="76/1" value="(867,558,0)" leadInLength="0/1"  />
              <Keyframe id="3160"  time="78/1" value="(860,573,0)" leadInLength="0/1"  />
              <Keyframe id="3161"  time="79/1" value="(860,574,0)" leadInLength="0/1"  />
              <Keyframe id="3162"  time="80/1" value="(860,586,0)" leadInLength="0/1"  />
              <Keyframe id="3163"  time="81/1" value="(861,588,0)" leadInLength="0/1"  />
              <Keyframe id="3164"  time="85/1" value="(861,588,0)" leadInLength="0/1"  />
              <Keyframe id="3165"  time="86/1" value="(861,587,0)" leadInLength="0/1"  />
              <Keyframe id="3166"  time="132/1" value="(862,584,0)" leadInLength="0/1"  />
              <Keyframe id="3167"  time="133/1" value="(863,583,0)" leadInLength="0/1"  />
              <Keyframe id="3168"  time="134/1" value="(866,581,0)" leadInLength="0/1"  />
              <Keyframe id="3169"  time="135/1" value="(871,575,0)" leadInLength="0/1"  />
              <Keyframe id="3170"  time="145/1" value="(875,562,0)" leadInLength="0/1"  />
              <Keyframe id="3171"  time="146/1" value="(874,567,0)" leadInLength="0/1"  />
              <Keyframe id="3172"  time="147/1" value="(873,570,0)" leadInLength="0/1"  />
              <Keyframe id="3173"  time="148/1" value="(873,571,0)" leadInLength="0/1"  />
              <Keyframe id="3174"  time="149/1" value="(871,575,0)" leadInLength="0/1"  />
              <Keyframe id="3175"  time="150/1" value="(868,574,0)" leadInLength="0/1"  />
              <Keyframe id="3176"  time="151/1" value="(866,573,0)" leadInLength="0/1"  />
              <Keyframe id="3177"  time="152/1" value="(864,571,0)" leadInLength="0/1"  />
              <Keyframe id="3178"  time="153/1" value="(863,569,0)" leadInLength="0/1"  />
              <Keyframe id="3179"  time="154/1" value="(862,567,0)" leadInLength="0/1"  />
              <Keyframe id="3180"  time="155/1" value="(860,561,0)" leadInLength="0/1"  />
              <Keyframe id="3181"  time="156/1" value="(854,547,0)" leadInLength="0/1"  />
              <Keyframe id="3182"  time="157/1" value="(850,540,0)" leadInLength="0/1"  />
              <Keyframe id="3183"  time="158/1" value="(848,533,0)" leadInLength="0/1"  />
              <Keyframe id="3184"  time="159/1" value="(840,490,0)" leadInLength="0/1"  />
              <Keyframe id="3185"  time="160/1" value="(840,485,0)" leadInLength="0/1"  />
              <Keyframe id="3186"  time="161/1" value="(841,481,0)" leadInLength="0/1"  />
              <Keyframe id="3187"  time="162/1" value="(841,480,0)" leadInLength="0/1"  />
              <Keyframe id="3188"  time="163/1" value="(841,478,0)" leadInLength="0/1"  />
              <Keyframe id="3189"  time="168/1" value="(841,465,0)" leadInLength="0/1"  />
              <Keyframe id="3190"  time="169/1" value="(841,465,0)" leadInLength="0/1"  />
              <Keyframe id="3191"  time="170/1" value="(841,467,0)" leadInLength="0/1"  />
              <Keyframe id="3192"  time="171/1" value="(841,471,0)" leadInLength="0/1"  />
              <Keyframe id="3193"  time="172/1" value="(841,478,0)" leadInLength="0/1"  />
              <Keyframe id="3194"  time="173/1" value="(839,478,0)" leadInLength="0/1"  />
              <Keyframe id="3195"  time="174/1" value="(837,479,0)" leadInLength="0/1"  />
              <Keyframe id="3196"  time="175/1" value="(836,479,0)" leadInLength="0/1"  />
              <Keyframe id="3197"  time="192/1" value="(835,479,0)" leadInLength="0/1"  />
              <Keyframe id="3198"  time="193/1" value="(833,479,0)" leadInLength="0/1"  />
              <Keyframe id="3199"  time="194/1" value="(831,479,0)" leadInLength="0/1"  />
              <Keyframe id="3200"  time="195/1" value="(825,479,0)" leadInLength="0/1"  />
              <Keyframe id="3201"  time="196/1" value="(816,479,0)" leadInLength="0/1"  />
              <Keyframe id="3202"  time="200/1" value="(814,479,0)" leadInLength="0/1"  />
              <Keyframe id="3203"  time="201/1" value="(812,479,0)" leadInLength="0/1"  />
              <Keyframe id="3204"  time="202/1" value="(797,473,0)" leadInLength="0/1"  />
              <Keyframe id="3205"  time="203/1" value="(792,471,0)" leadInLength="0/1"  />
              <Keyframe id="3206"  time="204/1" value="(783,468,0)" leadInLength="0/1"  />
              <Keyframe id="3207"  time="205/1" value="(774,466,0)" leadInLength="0/1"  />
              <Keyframe id="3208"  time="206/1" value="(761,459,0)" leadInLength="0/1"  />
              <Keyframe id="3209"  time="207/1" value="(746,453,0)" leadInLength="0/1"  />
              <Keyframe id="3210"  time="208/1" value="(742,452,0)" leadInLength="0/1"  />
              <Keyframe id="3211"  time="210/1" value="(735,451,0)" leadInLength="0/1"  />
              <Keyframe id="3212"  time="211/1" value="(722,448,0)" leadInLength="0/1"  />
              <Keyframe id="3213"  time="212/1" value="(711,446,0)" leadInLength="0/1"  />
              <Keyframe id="3214"  time="213/1" value="(707,445,0)" leadInLength="0/1"  />
              <Keyframe id="3215"  time="214/1" value="(705,445,0)" leadInLength="0/1"  />
              <Keyframe id="3216"  time="215/1" value="(653,437,0)" leadInLength="0/1"  />
              <Keyframe id="3217"  time="216/1" value="(635,436,0)" leadInLength="0/1"  />
              <Keyframe id="3218"  time="217/1" value="(614,436,0)" leadInLength="0/1"  />
              <Keyframe id="3219"  time="218/1" value="(558,442,0)" leadInLength="0/1"  />
              <Keyframe id="3220"  time="219/1" value="(486,488,0)" leadInLength="0/1"  />
              <Keyframe id="3221"  time="220/1" value="(476,500,0)" leadInLength="0/1"  />
              <Keyframe id="3222"  time="222/1" value="(469,513,0)" leadInLength="0/1"  />
              <Keyframe id="3223"  time="223/1" value="(457,534,0)" leadInLength="0/1"  />
              <Keyframe id="3224"  time="224/1" value="(442,567,0)" leadInLength="0/1"  />
              <Keyframe id="3225"  time="225/1" value="(434,595,0)" leadInLength="0/1"  />
              <Keyframe id="3226"  time="226/1" value="(431,602,0)" leadInLength="0/1"  />
              <Keyframe id="3227"  time="227/1" value="(428,612,0)" leadInLength="0/1"  />
              <Keyframe id="3228"  time="228/1" value="(427,618,0)" leadInLength="0/1"  />
              <Keyframe id="3229"  time="229/1" value="(427,620,0)" leadInLength="0/1"  />
              <Keyframe id="3230"  time="230/1" value="(427,632,0)" leadInLength="0/1"  />
              <Keyframe id="3231"  time="231/1" value="(427,636,0)" leadInLength="0/1"  />
              <Keyframe id="3232"  time="232/1" value="(427,637,0)" leadInLength="0/1"  />
              <Keyframe id="3233"  time="233/1" value="(428,639,0)" leadInLength="0/1"  />
              <Keyframe id="3234"  time="235/1" value="(428,640,0)" leadInLength="0/1"  />
              <Keyframe id="3235"  time="236/1" value="(428,641,0)" leadInLength="0/1"  />
              <Keyframe id="3236"  time="238/1" value="(428,641,0)" leadInLength="0/1"  />
              <Keyframe id="3237"  time="241/1" value="(428,641,0)" leadInLength="0/1"  />
              <Keyframe id="3238"  time="242/1" value="(416,628,0)" leadInLength="0/1"  />
              <Keyframe id="3239"  time="243/1" value="(406,604,0)" leadInLength="0/1"  />
              <Keyframe id="3240"  time="244/1" value="(405,601,0)" leadInLength="0/1"  />
              <Keyframe id="3241"  time="245/1" value="(404,598,0)" leadInLength="0/1"  />
              <Keyframe id="3242"  time="246/1" value="(404,596,0)" leadInLength="0/1"  />
              <Keyframe id="3243"  time="247/1" value="(404,594,0)" leadInLength="0/1"  />
              <Keyframe id="3244"  time="248/1" value="(403,589,0)" leadInLength="0/1"  />
              <Keyframe id="3245"  time="249/1" value="(403,588,0)" leadInLength="0/1"  />
              <Keyframe id="3246"  time="251/1" value="(403,587,0)" leadInLength="0/1"  />
              <Keyframe id="3247"  time="252/1" value="(402,580,0)" leadInLength="0/1"  />
              <Keyframe id="3248"  time="276/1" value="(403,579,0)" leadInLength="0/1"  />
              <Keyframe id="3249"  time="277/1" value="(412,585,0)" leadInLength="0/1"  />
              <Keyframe id="3250"  time="278/1" value="(444,618,0)" leadInLength="0/1"  />
              <Keyframe id="3251"  time="279/1" value="(493,653,0)" leadInLength="0/1"  />
              <Keyframe id="3252"  time="280/1" value="(498,656,0)" leadInLength="0/1"  />
              <Keyframe id="3253"  time="281/1" value="(502,659,0)" leadInLength="0/1"  />
              <Keyframe id="3254"  time="282/1" value="(505,661,0)" leadInLength="0/1"  />
              <Keyframe id="3255"  time="283/1" value="(508,663,0)" leadInLength="0/1"  />
              <Keyframe id="3256"  time="284/1" value="(523,672,0)" leadInLength="0/1"  />
              <Keyframe id="3257"  time="285/1" value="(544,694,0)" leadInLength="0/1"  />
              <Keyframe id="3258"  time="286/1" value="(549,703,0)" leadInLength="0/1"  />
              <Keyframe id="3259"  time="287/1" value="(557,721,0)" leadInLength="0/1"  />
              <Keyframe id="3260"  time="288/1" value="(561,731,0)" leadInLength="0/1"  />
              <Keyframe id="3261"  time="289/1" value="(566,743,0)" leadInLength="0/1"  />
              <Keyframe id="3262"  time="290/1" value="(595,769,0)" leadInLength="0/1"  />
              <Keyframe id="3263"  time="293/1" value="(607,770,0)" leadInLength="0/1"  />
              <Keyframe id="3264"  time="294/1" value="(607,770,0)" leadInLength="0/1"  />
              <Keyframe id="3265"  time="298/1" value="(606,770,0)" leadInLength="0/1"  />
              <Keyframe id="3266"  time="299/1" value="(606,770,0)" leadInLength="0/1"  />
              <Keyframe id="3267"  time="300/1" value="(608,771,0)" leadInLength="0/1"  />
              </Keyframes>
             </InterpolatingParam>
             <InterpolatingParam id="3268" interp="linr"  time="0/1" value="(165,104,1296,841)" leadInLength="0/1"  name="topmostWindowCoordinates"/>
             <InterpolatingParam id="3269" interp="linr"  name="cursorAction">
              <Keyframes>
              <Keyframe id="3270"  time="-214/1" value="1" leadInLength="0/1"  />
              <Keyframe id="3271"  time="-213/1" value="2" leadInLength="0/1"  />
              <Keyframe id="3272"  time="-212/1" value="1" leadInLength="0/1"  />
              <Keyframe id="3273"  time="-211/1" value="2" leadInLength="0/1"  />
              <Keyframe id="3274"  time="-39/1" value="1" leadInLength="0/1"  />
              <Keyframe id="3275"  time="-35/1" value="2" leadInLength="0/1"  />
              <Keyframe id="3276"  time="18/1" value="1" leadInLength="0/1"  />
              <Keyframe id="3277"  time="20/1" value="2" leadInLength="0/1"  />
              <Keyframe id="3278"  time="106/1" value="1" leadInLength="0/1"  />
              <Keyframe id="3279"  time="108/1" value="2" leadInLength="0/1"  />
              <Keyframe id="3280"  time="254/1" value="1" leadInLength="0/1"  />
              <Keyframe id="3281"  time="257/1" value="2" leadInLength="0/1"  />
              </Keyframes>
             </InterpolatingParam>
             <Parameter id="3282"  name="cursorImagePath">
              <Keyframes>
              <Keyframe id="3283"  time="0/1" value="0" leadInLength="0/1"  />
              </Keyframes>
             </Parameter>
             <InterpolatingParam id="3284" interp="linr"  time="0/1" value="(173,217,1280,720)" leadInLength="0/1"  name="recordingRegion"/>
             <InterpolatingParam id="3285" interp="linr"  time="0/1" value="0" leadInLength="0/1"  name="cursorOpacity"/>
             <InterpolatingParam id="3286" interp="linr"  time="0/1" value="1" leadInLength="0/1"  name="recordedCursorOpacity"/>
             <InterpolatingParam id="3287" interp="linr"  time="0/1" value="0" leadInLength="0/1"  name="cursorScale"/>
            </Parameters>
            <Attributes>
             <Attribute id="3288" value="" name="ident"/>
            </Attributes>
            <MetaData>
             <entry key="AutoAppliedSmartFocus" val="False"/>
             <entry key="WinSubProjectDisplayName" val=""/>
            </MetaData>
            <ExtraData>
             <Entry key="ZoomPanBin">
              <ZoomPanBin id="3289"  >
               <ZoomPanKeyframes>
                <ZoomPanKeyframe id="3290" timeRangeEnd="-9999999/1" timeRangeDuration="0/1" interpolaterName="linr"  />
               </ZoomPanKeyframes>
              </ZoomPanBin>
             </Entry>
             <Entry key="CursorEffectBin">
              <CursorEffectBin id="3291"  >
               <CursorEffectKeyframes>
               </CursorEffectKeyframes>
              </CursorEffectBin>
             </Entry>
            </ExtraData>
           </ScreenIMFile>
          </Medias>
         </GenericTrack>
        </StitchedMedia>
        <StitchedMedia id="3292" start="9211" duration="1601" scalar="1/1" mediaStart="1000/1" mediaDuration="1601/1" minMediaStart="0/1" >
         <Transformer>
          <VectorParam id="3293"  name="translation">
           <InterpolatingParam id="3294" interp="linr"  time="-9999999/1" value="0" leadInLength="0/1"  />
           <InterpolatingParam id="3295" interp="linr"  time="-9999999/1" value="0" leadInLength="0/1"  />
           <InterpolatingParam id="3296" interp="linr"  time="-9999999/1" value="0" leadInLength="0/1"  />
          </VectorParam>
          <VectorParam id="3297"  name="rotation">
           <InterpolatingParam id="3298" interp="linr"  time="-9999999/1" value="0" leadInLength="0/1"  />
           <InterpolatingParam id="3299" interp="linr"  time="-9999999/1" value="0" leadInLength="0/1"  />
           <InterpolatingParam id="3300" interp="linr"  time="-9999999/1" value="0" leadInLength="0/1"  />
          </VectorParam>
          <VectorParam id="3301"  name="shear">
           <InterpolatingParam id="3302" interp="linr"  time="-9999999/1" value="0" leadInLength="0/1"  />
           <InterpolatingParam id="3303" interp="linr"  time="-9999999/1" value="0" leadInLength="0/1"  />
           <InterpolatingParam id="3304" interp="linr"  time="-9999999/1" value="0" leadInLength="0/1"  />
          </VectorParam>
          <VectorParam id="3305"  name="scale">
           <InterpolatingParam id="3306" interp="linr"  time="-9999999/1" value="1" leadInLength="0/1"  />
           <InterpolatingParam id="3307" interp="linr"  time="-9999999/1" value="1" leadInLength="0/1"  />
           <InterpolatingParam id="3308" interp="linr"  time="-9999999/1" value="1" leadInLength="0/1"  />
          </VectorParam>
          <VectorParam id="3309"  name="anchor">
           <InterpolatingParam id="3310" interp="linr"  >
            <Keyframes>
            <Keyframe id="3311"  time="0/1" value="0" leadInLength="0/1"  />
            <Keyframe id="3312"  time="2285/1" value="0" leadInLength="0/1"  />
            </Keyframes>
           </InterpolatingParam>
           <InterpolatingParam id="3313" interp="linr"  >
            <Keyframes>
            <Keyframe id="3314"  time="0/1" value="0" leadInLength="0/1"  />
            <Keyframe id="3315"  time="2285/1" value="0" leadInLength="0/1"  />
            </Keyframes>
           </InterpolatingParam>
           <InterpolatingParam id="3316" interp="linr"  >
            <Keyframes>
            <Keyframe id="3317"  time="0/1" value="0" leadInLength="0/1"  />
            <Keyframe id="3318"  time="2285/1" value="0" leadInLength="0/1"  />
            </Keyframes>
           </InterpolatingParam>
          </VectorParam>
         </Transformer>
         <Parameters>
          <VectorParam id="3319"  name="sourceCrop">
           <InterpolatingParam id="3320" interp="linr"  >
            <Keyframes>
            <Keyframe id="3321"  time="0/1" value="0" leadInLength="0/1"  />
            <Keyframe id="3322"  time="2285/1" value="0" leadInLength="0/1"  />
            </Keyframes>
           </InterpolatingParam>
           <InterpolatingParam id="3323" interp="linr"  >
            <Keyframes>
            <Keyframe id="3324"  time="0/1" value="0" leadInLength="0/1"  />
            <Keyframe id="3325"  time="2285/1" value="0" leadInLength="0/1"  />
            </Keyframes>
           </InterpolatingParam>
           <InterpolatingParam id="3326" interp="linr"  >
            <Keyframes>
            <Keyframe id="3327"  time="0/1" value="0" leadInLength="0/1"  />
            <Keyframe id="3328"  time="2285/1" value="0" leadInLength="0/1"  />
            </Keyframes>
           </InterpolatingParam>
           <InterpolatingParam id="3329" interp="linr"  >
            <Keyframes>
            <Keyframe id="3330"  time="0/1" value="0" leadInLength="0/1"  />
            <Keyframe id="3331"  time="2285/1" value="0" leadInLength="0/1"  />
            </Keyframes>
           </InterpolatingParam>
          </VectorParam>
          <VectorParam id="3332"  name="geometryCrop">
           <InterpolatingParam id="3333" interp="linr"  time="-9999999/1" value="0" leadInLength="0/1"  />
           <InterpolatingParam id="3334" interp="linr"  time="-9999999/1" value="0" leadInLength="0/1"  />
           <InterpolatingParam id="3335" interp="linr"  time="-9999999/1" value="0" leadInLength="0/1"  />
           <InterpolatingParam id="3336" interp="linr"  time="-9999999/1" value="0" leadInLength="0/1"  />
          </VectorParam>
          <InterpolatingParam id="3337" interp="linr"  time="-9999999/1" value="1" leadInLength="0/1"  name="opacity"/>
          <InterpolatingParam id="3338" interp="linr"  time="0/1" value="1" leadInLength="0/1"  name="cursorOpacity"/>
          <InterpolatingParam id="3339" interp="linr"  name="cursorScale">
           <Keyframes>
           <Keyframe id="3340"  time="0/1" value="1" leadInLength="0/1"  />
           <Keyframe id="3341"  time="2285/1" value="1" leadInLength="0/1"  />
           </Keyframes>
          </InterpolatingParam>
          <Parameter id="3342"  name="captions"/>
         </Parameters>
         <Effects>
          <GenericEffect id="3343" name = "CursorBaseEffectName" >
           <Parameters>
           <InterpolatingParam id="3344" interp="linr"  time="-9999999/1" value="1" leadInLength="0/1"   name="cursorSize"/>
           <InterpolatingParam id="3345" interp="linr"  time="-9999999/1" value="0" leadInLength="0/1"   name="highlightBlurRadius"/>
           <InterpolatingParam id="3346" interp="linr"  time="-9999999/1" value="0" leadInLength="0/1"   name="highlightColorBlue"/>
           <InterpolatingParam id="3347" interp="linr"  time="-9999999/1" value="255" leadInLength="0/1"   name="highlightColorGreen"/>
           <InterpolatingParam id="3348" interp="linr"  time="-9999999/1" value="255" leadInLength="0/1"   name="highlightColorRed"/>
           <InterpolatingParam id="3349" interp="linr"  time="-9999999/1" value="5" leadInLength="0/1"   name="highlightFeatherSize"/>
           <InterpolatingParam id="3350" interp="linr"  time="-9999999/1" value="2" leadInLength="0/1"   name="highlightMagnification"/>
           <InterpolatingParam id="3351" interp="linr"  time="-9999999/1" value="1" leadInLength="0/1"   name="highlightOpacity"/>
           <InterpolatingParam id="3352" interp="linr"  time="-9999999/1" value="45" leadInLength="0/1"   name="highlightSize"/>
           <Parameter id="3353"   name="highlightType">
            <Keyframes>
            <Keyframe id="3354"  time="-9999999/1" value="0" leadInLength="0/1"  />
            </Keyframes>
           </Parameter>
           <InterpolatingParam id="3355" interp="linr"  time="-9999999/1" value="0" leadInLength="0/1"   name="leftClickColorBlue"/>
           <InterpolatingParam id="3356" interp="linr"  time="-9999999/1" value="0" leadInLength="0/1"   name="leftClickColorGreen"/>
           <InterpolatingParam id="3357" interp="linr"  time="-9999999/1" value="255" leadInLength="0/1"   name="leftClickColorRed"/>
           <InterpolatingParam id="3358" interp="linr"  time="-9999999/1" value="0.80000000000000004" leadInLength="0/1"   name="leftClickDuration"/>
           <InterpolatingParam id="3359" interp="linr"  time="-9999999/1" value="20" leadInLength="0/1"   name="leftClickSize"/>
           <Parameter id="3360"   name="leftClickSoundFilename">
            <Keyframes>
            <Keyframe id="3361"  time="-9999999/1" value="" leadInLength="0/1"  />
            </Keyframes>
           </Parameter>
           <InterpolatingParam id="3362" interp="linr"  time="-9999999/1" value="1" leadInLength="0/1"   name="leftClickSoundVolume"/>
           <Parameter id="3363"   name="leftClickType">
            <Keyframes>
            <Keyframe id="3364"  time="-9999999/1" value="0" leadInLength="0/1"  />
            </Keyframes>
           </Parameter>
           <InterpolatingParam id="3365" interp="linr"  time="-9999999/1" value="1" leadInLength="0/1"   name="opacity"/>
           <InterpolatingParam id="3366" interp="linr"  time="-9999999/1" value="255" leadInLength="0/1"   name="rightClickColorBlue"/>
           <InterpolatingParam id="3367" interp="linr"  time="-9999999/1" value="0" leadInLength="0/1"   name="rightClickColorGreen"/>
           <InterpolatingParam id="3368" interp="linr"  time="-9999999/1" value="0" leadInLength="0/1"   name="rightClickColorRed"/>
           <InterpolatingParam id="3369" interp="linr"  time="-9999999/1" value="0.80000000000000004" leadInLength="0/1"   name="rightClickDuration"/>
           <InterpolatingParam id="3370" interp="linr"  time="-9999999/1" value="20" leadInLength="0/1"   name="rightClickSize"/>
           <Parameter id="3371"   name="rightClickSoundFilename">
            <Keyframes>
            <Keyframe id="3372"  time="-9999999/1" value="" leadInLength="0/1"  />
            </Keyframes>
           </Parameter>
           <InterpolatingParam id="3373" interp="linr"  time="-9999999/1" value="1" leadInLength="0/1"   name="rightClickSoundVolume"/>
           <Parameter id="3374"   name="rightClickType">
            <Keyframes>
            <Keyframe id="3375"  time="-9999999/1" value="0" leadInLength="0/1"  />
            </Keyframes>
           </Parameter>
           </Parameters>
          </GenericEffect>
         </Effects>
         <Attributes>
          <Attribute id="3376" value="" name="ident"/>
         </Attributes>
         <MetaData>
          <entry key="AutoAppliedSmartFocus" val="False"/>
          <entry key="WinSubProjectDisplayName" val=""/>
         </MetaData>
         <ExtraData>
          <Entry key="ZoomPanBin">
           <ZoomPanBin id="3377"  >
            <ZoomPanKeyframes>
             <ZoomPanKeyframe id="3378" timeRangeEnd="-9999999/1" timeRangeDuration="0/1" interpolaterName="linr"  />
            </ZoomPanKeyframes>
           </ZoomPanBin>
          </Entry>
          <Entry key="CursorEffectBin">
           <CursorEffectBin id="3379"  >
            <CursorEffectKeyframes>
             <CursorEffectKeyframe id="3380" timeRangeEnd="-9999999/1" timeRangeDuration="0/1" interpolaterName=""  />
            </CursorEffectKeyframes>
           </CursorEffectBin>
          </Entry>
         </ExtraData>
         <GenericTrack id="3381"  >
          <Attributes>
           <Attribute id="3382" value="" name="ident"/>
           <Attribute id="3383" value="0" name="audioMuted"/>
           <Attribute id="3384" value="0" name="videoHidden"/>
          </Attributes>
          <MetaData>
           <entry key="IsLocked" val="False"/>
           <entry key="WinTrackHeight" val="0"/>
          </MetaData>
          <Medias>
           <ScreenVMFile id="3385" start="0" duration="2285" scalar="1/1" mediaStart="0/1" mediaDuration="2285/1" trackNumber="0" src="15" >
            <Transformer>
             <VectorParam id="3386"  name="translation">
              <InterpolatingParam id="3387" interp="linr"  time="-9999999/1" value="0" leadInLength="0/1"  />
              <InterpolatingParam id="3388" interp="linr"  time="-9999999/1" value="0" leadInLength="0/1"  />
              <InterpolatingParam id="3389" interp="linr"  time="-9999999/1" value="0" leadInLength="0/1"  />
             </VectorParam>
             <VectorParam id="3390"  name="rotation">
              <InterpolatingParam id="3391" interp="linr"  time="-9999999/1" value="0" leadInLength="0/1"  />
              <InterpolatingParam id="3392" interp="linr"  time="-9999999/1" value="0" leadInLength="0/1"  />
              <InterpolatingParam id="3393" interp="linr"  time="-9999999/1" value="0" leadInLength="0/1"  />
             </VectorParam>
             <VectorParam id="3394"  name="shear">
              <InterpolatingParam id="3395" interp="linr"  time="-9999999/1" value="0" leadInLength="0/1"  />
              <InterpolatingParam id="3396" interp="linr"  time="-9999999/1" value="0" leadInLength="0/1"  />
              <InterpolatingParam id="3397" interp="linr"  time="-9999999/1" value="0" leadInLength="0/1"  />
             </VectorParam>
             <VectorParam id="3398"  name="scale">
              <InterpolatingParam id="3399" interp="linr"  time="-9999999/1" value="1" leadInLength="0/1"  />
              <InterpolatingParam id="3400" interp="linr"  time="-9999999/1" value="1" leadInLength="0/1"  />
              <InterpolatingParam id="3401" interp="linr"  time="-9999999/1" value="1" leadInLength="0/1"  />
             </VectorParam>
             <VectorParam id="3402"  name="anchor">
              <InterpolatingParam id="3403" interp="linr"  time="0/1" value="0" leadInLength="0/1"  />
              <InterpolatingParam id="3404" interp="linr"  time="0/1" value="0" leadInLength="0/1"  />
              <InterpolatingParam id="3405" interp="linr"  time="0/1" value="0" leadInLength="0/1"  />
             </VectorParam>
            </Transformer>
            <Parameters>
             <VectorParam id="3406"  name="sourceCrop">
              <InterpolatingParam id="3407" interp="linr"  time="0/1" value="0" leadInLength="0/1"  />
              <InterpolatingParam id="3408" interp="linr"  time="0/1" value="0" leadInLength="0/1"  />
              <InterpolatingParam id="3409" interp="linr"  time="0/1" value="0" leadInLength="0/1"  />
              <InterpolatingParam id="3410" interp="linr"  time="0/1" value="0" leadInLength="0/1"  />
             </VectorParam>
             <VectorParam id="3411"  name="geometryCrop">
              <InterpolatingParam id="3412" interp="linr"  time="-9999999/1" value="0" leadInLength="0/1"  />
              <InterpolatingParam id="3413" interp="linr"  time="-9999999/1" value="0" leadInLength="0/1"  />
              <InterpolatingParam id="3414" interp="linr"  time="-9999999/1" value="0" leadInLength="0/1"  />
              <InterpolatingParam id="3415" interp="linr"  time="-9999999/1" value="0" leadInLength="0/1"  />
             </VectorParam>
             <InterpolatingParam id="3416" interp="linr"  time="-9999999/1" value="1" leadInLength="0/1"  name="opacity"/>
             <InterpolatingParam id="3417" interp="linr"  time="0/1" value="0" leadInLength="0/1"  name="cursorOpacity"/>
             <InterpolatingParam id="3418" interp="linr"  time="0/1" value="0" leadInLength="0/1"  name="cursorScale"/>
            </Parameters>
            <Attributes>
             <Attribute id="3419" value="" name="ident"/>
            </Attributes>
            <MetaData>
             <entry key="AutoAppliedSmartFocus" val="False"/>
             <entry key="WinSubProjectDisplayName" val=""/>
            </MetaData>
            <ExtraData>
             <Entry key="ZoomPanBin">
              <ZoomPanBin id="3420"  >
               <ZoomPanKeyframes>
                <ZoomPanKeyframe id="3421" timeRangeEnd="-9999999/1" timeRangeDuration="0/1" interpolaterName="linr"  />
               </ZoomPanKeyframes>
              </ZoomPanBin>
             </Entry>
             <Entry key="CursorEffectBin">
              <CursorEffectBin id="3422"  >
               <CursorEffectKeyframes>
               </CursorEffectKeyframes>
              </CursorEffectBin>
             </Entry>
            </ExtraData>
           </ScreenVMFile>
           <ScreenIMFile id="3423" start="2285" duration="108030" scalar="1/1" mediaStart="2284/1" mediaDuration="1/1" trackNumber="0" src="15" trimStartSum="0/1" >
            <Transformer>
             <VectorParam id="3424"  name="translation">
              <InterpolatingParam id="3425" interp="linr"  time="-9999999/1" value="0" leadInLength="0/1"  />
              <InterpolatingParam id="3426" interp="linr"  time="-9999999/1" value="0" leadInLength="0/1"  />
              <InterpolatingParam id="3427" interp="linr"  time="-9999999/1" value="0" leadInLength="0/1"  />
             </VectorParam>
             <VectorParam id="3428"  name="rotation">
              <InterpolatingParam id="3429" interp="linr"  time="-9999999/1" value="0" leadInLength="0/1"  />
              <InterpolatingParam id="3430" interp="linr"  time="-9999999/1" value="0" leadInLength="0/1"  />
              <InterpolatingParam id="3431" interp="linr"  time="-9999999/1" value="0" leadInLength="0/1"  />
             </VectorParam>
             <VectorParam id="3432"  name="shear">
              <InterpolatingParam id="3433" interp="linr"  time="-9999999/1" value="0" leadInLength="0/1"  />
              <InterpolatingParam id="3434" interp="linr"  time="-9999999/1" value="0" leadInLength="0/1"  />
              <InterpolatingParam id="3435" interp="linr"  time="-9999999/1" value="0" leadInLength="0/1"  />
             </VectorParam>
             <VectorParam id="3436"  name="scale">
              <InterpolatingParam id="3437" interp="linr"  time="-9999999/1" value="1" leadInLength="0/1"  />
              <InterpolatingParam id="3438" interp="linr"  time="-9999999/1" value="1" leadInLength="0/1"  />
              <InterpolatingParam id="3439" interp="linr"  time="-9999999/1" value="1" leadInLength="0/1"  />
             </VectorParam>
             <VectorParam id="3440"  name="anchor">
              <InterpolatingParam id="3441" interp="linr"  time="0/1" value="0" leadInLength="0/1"  />
              <InterpolatingParam id="3442" interp="linr"  time="0/1" value="0" leadInLength="0/1"  />
              <InterpolatingParam id="3443" interp="linr"  time="0/1" value="0" leadInLength="0/1"  />
             </VectorParam>
            </Transformer>
            <Parameters>
             <VectorParam id="3444"  name="sourceCrop">
              <InterpolatingParam id="3445" interp="linr"  time="0/1" value="0" leadInLength="0/1"  />
              <InterpolatingParam id="3446" interp="linr"  time="0/1" value="0" leadInLength="0/1"  />
              <InterpolatingParam id="3447" interp="linr"  time="0/1" value="0" leadInLength="0/1"  />
              <InterpolatingParam id="3448" interp="linr"  time="0/1" value="0" leadInLength="0/1"  />
             </VectorParam>
             <VectorParam id="3449"  name="geometryCrop">
              <InterpolatingParam id="3450" interp="linr"  time="-9999999/1" value="0" leadInLength="0/1"  />
              <InterpolatingParam id="3451" interp="linr"  time="-9999999/1" value="0" leadInLength="0/1"  />
              <InterpolatingParam id="3452" interp="linr"  time="-9999999/1" value="0" leadInLength="0/1"  />
              <InterpolatingParam id="3453" interp="linr"  time="-9999999/1" value="0" leadInLength="0/1"  />
             </VectorParam>
             <InterpolatingParam id="3454" interp="linr"  time="-9999999/1" value="1" leadInLength="0/1"  name="opacity"/>
             <InterpolatingParam id="3455" interp="linr"  name="cursorLocation">
              <Keyframes>
              <Keyframe id="3456"  time="-299/1" value="(1239,301,0)" leadInLength="0/1"  />
              <Keyframe id="3457"  time="-298/1" value="(1239,299,0)" leadInLength="0/1"  />
              <Keyframe id="3458"  time="-297/1" value="(1239,297,0)" leadInLength="0/1"  />
              <Keyframe id="3459"  time="-283/1" value="(1239,297,0)" leadInLength="0/1"  />
              <Keyframe id="3460"  time="-282/1" value="(1234,303,0)" leadInLength="0/1"  />
              <Keyframe id="3461"  time="-281/1" value="(1140,351,0)" leadInLength="0/1"  />
              <Keyframe id="3462"  time="-280/1" value="(847,474,0)" leadInLength="0/1"  />
              <Keyframe id="3463"  time="-279/1" value="(782,500,0)" leadInLength="0/1"  />
              <Keyframe id="3464"  time="-278/1" value="(732,518,0)" leadInLength="0/1"  />
              <Keyframe id="3465"  time="-277/1" value="(693,532,0)" leadInLength="0/1"  />
              <Keyframe id="3466"  time="-276/1" value="(661,545,0)" leadInLength="0/1"  />
              <Keyframe id="3467"  time="-275/1" value="(545,591,0)" leadInLength="0/1"  />
              <Keyframe id="3468"  time="-274/1" value="(457,616,0)" leadInLength="0/1"  />
              <Keyframe id="3469"  time="-273/1" value="(448,617,0)" leadInLength="0/1"  />
              <Keyframe id="3470"  time="-272/1" value="(446,618,0)" leadInLength="0/1"  />
              <Keyframe id="3471"  time="-271/1" value="(443,619,0)" leadInLength="0/1"  />
              <Keyframe id="3472"  time="-270/1" value="(430,626,0)" leadInLength="0/1"  />
              <Keyframe id="3473"  time="-269/1" value="(427,629,0)" leadInLength="0/1"  />
              <Keyframe id="3474"  time="-268/1" value="(423,631,0)" leadInLength="0/1"  />
              <Keyframe id="3475"  time="-267/1" value="(409,641,0)" leadInLength="0/1"  />
              <Keyframe id="3476"  time="-248/1" value="(403,646,0)" leadInLength="0/1"  />
              <Keyframe id="3477"  time="-247/1" value="(410,642,0)" leadInLength="0/1"  />
              <Keyframe id="3478"  time="-246/1" value="(422,636,0)" leadInLength="0/1"  />
              <Keyframe id="3479"  time="-245/1" value="(605,567,0)" leadInLength="0/1"  />
              <Keyframe id="3480"  time="-244/1" value="(859,487,0)" leadInLength="0/1"  />
              <Keyframe id="3481"  time="-243/1" value="(922,466,0)" leadInLength="0/1"  />
              <Keyframe id="3482"  time="-242/1" value="(936,462,0)" leadInLength="0/1"  />
              <Keyframe id="3483"  time="-241/1" value="(994,442,0)" leadInLength="0/1"  />
              <Keyframe id="3484"  time="-240/1" value="(1153,384,0)" leadInLength="0/1"  />
              <Keyframe id="3485"  time="-239/1" value="(1167,378,0)" leadInLength="0/1"  />
              <Keyframe id="3486"  time="-238/1" value="(1186,369,0)" leadInLength="0/1"  />
              <Keyframe id="3487"  time="-237/1" value="(1205,355,0)" leadInLength="0/1"  />
              <Keyframe id="3488"  time="-236/1" value="(1206,352,0)" leadInLength="0/1"  />
              <Keyframe id="3489"  time="-235/1" value="(1206,350,0)" leadInLength="0/1"  />
              <Keyframe id="3490"  time="-234/1" value="(1221,334,0)" leadInLength="0/1"  />
              <Keyframe id="3491"  time="-233/1" value="(1233,326,0)" leadInLength="0/1"  />
              <Keyframe id="3492"  time="-232/1" value="(1243,319,0)" leadInLength="0/1"  />
              <Keyframe id="3493"  time="-231/1" value="(1248,312,0)" leadInLength="0/1"  />
              <Keyframe id="3494"  time="-230/1" value="(1248,312,0)" leadInLength="0/1"  />
              <Keyframe id="3495"  time="-229/1" value="(1250,310,0)" leadInLength="0/1"  />
              <Keyframe id="3496"  time="-228/1" value="(1251,307,0)" leadInLength="0/1"  />
              <Keyframe id="3497"  time="-227/1" value="(1250,304,0)" leadInLength="0/1"  />
              <Keyframe id="3498"  time="-226/1" value="(1249,303,0)" leadInLength="0/1"  />
              <Keyframe id="3499"  time="-225/1" value="(1249,303,0)" leadInLength="0/1"  />
              <Keyframe id="3500"  time="-209/1" value="(1249,303,0)" leadInLength="0/1"  />
              <Keyframe id="3501"  time="-208/1" value="(1303,301,0)" leadInLength="0/1"  />
              <Keyframe id="3502"  time="-207/1" value="(1314,301,0)" leadInLength="0/1"  />
              <Keyframe id="3503"  time="-206/1" value="(1323,301,0)" leadInLength="0/1"  />
              <Keyframe id="3504"  time="-205/1" value="(1324,301,0)" leadInLength="0/1"  />
              <Keyframe id="3505"  time="-202/1" value="(1324,300,0)" leadInLength="0/1"  />
              <Keyframe id="3506"  time="-201/1" value="(1321,300,0)" leadInLength="0/1"  />
              <Keyframe id="3507"  time="-200/1" value="(1295,299,0)" leadInLength="0/1"  />
              <Keyframe id="3508"  time="-199/1" value="(1272,299,0)" leadInLength="0/1"  />
              <Keyframe id="3509"  time="-198/1" value="(1266,299,0)" leadInLength="0/1"  />
              <Keyframe id="3510"  time="-197/1" value="(1257,299,0)" leadInLength="0/1"  />
              <Keyframe id="3511"  time="-196/1" value="(1256,299,0)" leadInLength="0/1"  />
              <Keyframe id="3512"  time="-195/1" value="(1253,299,0)" leadInLength="0/1"  />
              <Keyframe id="3513"  time="-190/1" value="(1245,298,0)" leadInLength="0/1"  />
              <Keyframe id="3514"  time="-189/1" value="(1245,298,0)" leadInLength="0/1"  />
              <Keyframe id="3515"  time="-188/1" value="(1252,300,0)" leadInLength="0/1"  />
              <Keyframe id="3516"  time="-187/1" value="(1262,302,0)" leadInLength="0/1"  />
              <Keyframe id="3517"  time="-186/1" value="(1267,304,0)" leadInLength="0/1"  />
              <Keyframe id="3518"  time="-185/1" value="(1296,306,0)" leadInLength="0/1"  />
              <Keyframe id="3519"  time="-184/1" value="(1309,309,0)" leadInLength="0/1"  />
              <Keyframe id="3520"  time="-183/1" value="(1313,310,0)" leadInLength="0/1"  />
              <Keyframe id="3521"  time="-182/1" value="(1321,310,0)" leadInLength="0/1"  />
              <Keyframe id="3522"  time="-181/1" value="(1322,310,0)" leadInLength="0/1"  />
              <Keyframe id="3523"  time="-178/1" value="(1323,310,0)" leadInLength="0/1"  />
              <Keyframe id="3524"  time="-177/1" value="(1319,310,0)" leadInLength="0/1"  />
              <Keyframe id="3525"  time="-176/1" value="(1311,309,0)" leadInLength="0/1"  />
              <Keyframe id="3526"  time="-175/1" value="(1293,307,0)" leadInLength="0/1"  />
              <Keyframe id="3527"  time="-174/1" value="(1290,306,0)" leadInLength="0/1"  />
              <Keyframe id="3528"  time="-173/1" value="(1285,306,0)" leadInLength="0/1"  />
              <Keyframe id="3529"  time="-172/1" value="(1283,306,0)" leadInLength="0/1"  />
              <Keyframe id="3530"  time="-171/1" value="(1282,306,0)" leadInLength="0/1"  />
              <Keyframe id="3531"  time="-170/1" value="(1275,306,0)" leadInLength="0/1"  />
              <Keyframe id="3532"  time="-169/1" value="(1257,306,0)" leadInLength="0/1"  />
              <Keyframe id="3533"  time="-168/1" value="(1253,306,0)" leadInLength="0/1"  />
              <Keyframe id="3534"  time="-167/1" value="(1249,305,0)" leadInLength="0/1"  />
              <Keyframe id="3535"  time="-166/1" value="(1248,305,0)" leadInLength="0/1"  />
              <Keyframe id="3536"  time="-165/1" value="(1246,305,0)" leadInLength="0/1"  />
              <Keyframe id="3537"  time="-164/1" value="(1241,304,0)" leadInLength="0/1"  />
              <Keyframe id="3538"  time="-163/1" value="(1239,304,0)" leadInLength="0/1"  />
              <Keyframe id="3539"  time="-162/1" value="(1235,303,0)" leadInLength="0/1"  />
              <Keyframe id="3540"  time="-161/1" value="(1234,303,0)" leadInLength="0/1"  />
              <Keyframe id="3541"  time="-160/1" value="(1233,303,0)" leadInLength="0/1"  />
              <Keyframe id="3542"  time="-144/1" value="(1231,303,0)" leadInLength="0/1"  />
              <Keyframe id="3543"  time="-143/1" value="(1244,304,0)" leadInLength="0/1"  />
              <Keyframe id="3544"  time="-142/1" value="(1245,305,0)" leadInLength="0/1"  />
              <Keyframe id="3545"  time="-141/1" value="(1253,310,0)" leadInLength="0/1"  />
              <Keyframe id="3546"  time="-140/1" value="(1257,313,0)" leadInLength="0/1"  />
              <Keyframe id="3547"  time="-139/1" value="(1263,314,0)" leadInLength="0/1"  />
              <Keyframe id="3548"  time="-138/1" value="(1270,317,0)" leadInLength="0/1"  />
              <Keyframe id="3549"  time="-137/1" value="(1280,320,0)" leadInLength="0/1"  />
              <Keyframe id="3550"  time="-136/1" value="(1281,320,0)" leadInLength="0/1"  />
              <Keyframe id="3551"  time="-135/1" value="(1283,320,0)" leadInLength="0/1"  />
              <Keyframe id="3552"  time="-134/1" value="(1287,321,0)" leadInLength="0/1"  />
              <Keyframe id="3553"  time="-118/1" value="(1288,322,0)" leadInLength="0/1"  />
              <Keyframe id="3554"  time="-117/1" value="(1286,322,0)" leadInLength="0/1"  />
              <Keyframe id="3555"  time="-116/1" value="(1283,322,0)" leadInLength="0/1"  />
              <Keyframe id="3556"  time="-115/1" value="(1280,322,0)" leadInLength="0/1"  />
              <Keyframe id="3557"  time="-114/1" value="(1268,320,0)" leadInLength="0/1"  />
              <Keyframe id="3558"  time="-113/1" value="(1263,319,0)" leadInLength="0/1"  />
              <Keyframe id="3559"  time="-112/1" value="(1257,318,0)" leadInLength="0/1"  />
              <Keyframe id="3560"  time="-111/1" value="(1251,315,0)" leadInLength="0/1"  />
              <Keyframe id="3561"  time="-110/1" value="(1249,315,0)" leadInLength="0/1"  />
              <Keyframe id="3562"  time="-109/1" value="(1241,311,0)" leadInLength="0/1"  />
              <Keyframe id="3563"  time="-108/1" value="(1240,310,0)" leadInLength="0/1"  />
              <Keyframe id="3564"  time="-107/1" value="(1239,309,0)" leadInLength="0/1"  />
              <Keyframe id="3565"  time="-106/1" value="(1238,309,0)" leadInLength="0/1"  />
              <Keyframe id="3566"  time="-105/1" value="(1238,308,0)" leadInLength="0/1"  />
              <Keyframe id="3567"  time="-104/1" value="(1238,307,0)" leadInLength="0/1"  />
              <Keyframe id="3568"  time="-103/1" value="(1236,302,0)" leadInLength="0/1"  />
              <Keyframe id="3569"  time="-102/1" value="(1236,301,0)" leadInLength="0/1"  />
              <Keyframe id="3570"  time="-101/1" value="(1236,300,0)" leadInLength="0/1"  />
              <Keyframe id="3571"  time="-100/1" value="(1235,298,0)" leadInLength="0/1"  />
              <Keyframe id="3572"  time="-99/1" value="(1235,295,0)" leadInLength="0/1"  />
              <Keyframe id="3573"  time="-98/1" value="(1235,294,0)" leadInLength="0/1"  />
              <Keyframe id="3574"  time="-97/1" value="(1235,293,0)" leadInLength="0/1"  />
              <Keyframe id="3575"  time="-91/1" value="(1235,293,0)" leadInLength="0/1"  />
              <Keyframe id="3576"  time="-90/1" value="(1236,293,0)" leadInLength="0/1"  />
              <Keyframe id="3577"  time="-89/1" value="(1237,293,0)" leadInLength="0/1"  />
              <Keyframe id="3578"  time="-88/1" value="(1256,304,0)" leadInLength="0/1"  />
              <Keyframe id="3579"  time="-87/1" value="(1285,317,0)" leadInLength="0/1"  />
              <Keyframe id="3580"  time="-86/1" value="(1302,324,0)" leadInLength="0/1"  />
              <Keyframe id="3581"  time="-85/1" value="(1306,326,0)" leadInLength="0/1"  />
              <Keyframe id="3582"  time="-84/1" value="(1307,326,0)" leadInLength="0/1"  />
              <Keyframe id="3583"  time="-83/1" value="(1307,327,0)" leadInLength="0/1"  />
              <Keyframe id="3584"  time="-82/1" value="(1307,327,0)" leadInLength="0/1"  />
              <Keyframe id="3585"  time="-66/1" value="(1307,327,0)" leadInLength="0/1"  />
              <Keyframe id="3586"  time="-61/1" value="(1307,329,0)" leadInLength="0/1"  />
              <Keyframe id="3587"  time="-60/1" value="(1300,333,0)" leadInLength="0/1"  />
              <Keyframe id="3588"  time="-49/1" value="(1299,335,0)" leadInLength="0/1"  />
              <Keyframe id="3589"  time="-48/1" value="(1304,341,0)" leadInLength="0/1"  />
              <Keyframe id="3590"  time="-47/1" value="(1306,345,0)" leadInLength="0/1"  />
              <Keyframe id="3591"  time="-46/1" value="(1307,346,0)" leadInLength="0/1"  />
              <Keyframe id="3592"  time="-41/1" value="(1308,341,0)" leadInLength="0/1"  />
              <Keyframe id="3593"  time="-40/1" value="(1306,345,0)" leadInLength="0/1"  />
              <Keyframe id="3594"  time="-39/1" value="(1305,354,0)" leadInLength="0/1"  />
              <Keyframe id="3595"  time="-38/1" value="(1312,351,0)" leadInLength="0/1"  />
              <Keyframe id="3596"  time="-37/1" value="(1316,347,0)" leadInLength="0/1"  />
              <Keyframe id="3597"  time="-36/1" value="(1336,310,0)" leadInLength="0/1"  />
              <Keyframe id="3598"  time="-35/1" value="(1367,249,0)" leadInLength="0/1"  />
              <Keyframe id="3599"  time="-34/1" value="(1368,244,0)" leadInLength="0/1"  />
              <Keyframe id="3600"  time="-33/1" value="(1369,239,0)" leadInLength="0/1"  />
              <Keyframe id="3601"  time="-32/1" value="(1371,236,0)" leadInLength="0/1"  />
              <Keyframe id="3602"  time="-31/1" value="(1377,224,0)" leadInLength="0/1"  />
              <Keyframe id="3603"  time="-30/1" value="(1383,218,0)" leadInLength="0/1"  />
              <Keyframe id="3604"  time="-29/1" value="(1388,213,0)" leadInLength="0/1"  />
              <Keyframe id="3605"  time="-28/1" value="(1395,193,0)" leadInLength="0/1"  />
              <Keyframe id="3606"  time="-27/1" value="(1398,188,0)" leadInLength="0/1"  />
              <Keyframe id="3607"  time="-26/1" value="(1400,185,0)" leadInLength="0/1"  />
              <Keyframe id="3608"  time="-25/1" value="(1404,171,0)" leadInLength="0/1"  />
              <Keyframe id="3609"  time="-24/1" value="(1406,169,0)" leadInLength="0/1"  />
              <Keyframe id="3610"  time="-22/1" value="(1407,165,0)" leadInLength="0/1"  />
              <Keyframe id="3611"  time="-21/1" value="(1410,157,0)" leadInLength="0/1"  />
              <Keyframe id="3612"  time="-20/1" value="(1412,149,0)" leadInLength="0/1"  />
              <Keyframe id="3613"  time="-19/1" value="(1412,148,0)" leadInLength="0/1"  />
              <Keyframe id="3614"  time="0/1" value="(1412,148,0)" leadInLength="0/1"  />
              </Keyframes>
             </InterpolatingParam>
             <InterpolatingParam id="3615" interp="linr"  time="0/1" value="(1063,55,398,162)" leadInLength="0/1"  name="topmostWindowCoordinates"/>
             <InterpolatingParam id="3616" interp="linr"  name="cursorAction">
              <Keyframes>
              <Keyframe id="3617"  time="-263/1" value="1" leadInLength="0/1"  />
              <Keyframe id="3618"  time="-223/1" value="1" leadInLength="0/1"  />
              <Keyframe id="3619"  time="-222/1" value="2" leadInLength="0/1"  />
              <Keyframe id="3620"  time="-193/1" value="1" leadInLength="0/1"  />
              <Keyframe id="3621"  time="-191/1" value="2" leadInLength="0/1"  />
              <Keyframe id="3622"  time="-150/1" value="1" leadInLength="0/1"  />
              <Keyframe id="3623"  time="-147/1" value="2" leadInLength="0/1"  />
              <Keyframe id="3624"  time="-96/1" value="1" leadInLength="0/1"  />
              <Keyframe id="3625"  time="-94/1" value="2" leadInLength="0/1"  />
              <Keyframe id="3626"  time="-6/1" value="1" leadInLength="0/1"  />
              <Keyframe id="3627"  time="-5/1" value="2" leadInLength="0/1"  />
              </Keyframes>
             </InterpolatingParam>
             <Parameter id="3628"  name="cursorImagePath">
              <Keyframes>
              <Keyframe id="3629"  time="0/1" value="2" leadInLength="0/1"  />
              </Keyframes>
             </Parameter>
             <InterpolatingParam id="3630" interp="linr"  time="0/1" value="(173,217,1280,720)" leadInLength="0/1"  name="recordingRegion"/>
             <InterpolatingParam id="3631" interp="linr"  time="0/1" value="0" leadInLength="0/1"  name="cursorOpacity"/>
             <InterpolatingParam id="3632" interp="linr"  time="0/1" value="1" leadInLength="0/1"  name="recordedCursorOpacity"/>
             <InterpolatingParam id="3633" interp="linr"  time="0/1" value="0" leadInLength="0/1"  name="cursorScale"/>
            </Parameters>
            <Attributes>
             <Attribute id="3634" value="" name="ident"/>
            </Attributes>
            <MetaData>
             <entry key="AutoAppliedSmartFocus" val="False"/>
             <entry key="WinSubProjectDisplayName" val=""/>
            </MetaData>
            <ExtraData>
             <Entry key="ZoomPanBin">
              <ZoomPanBin id="3635"  >
               <ZoomPanKeyframes>
                <ZoomPanKeyframe id="3636" timeRangeEnd="-9999999/1" timeRangeDuration="0/1" interpolaterName="linr"  />
               </ZoomPanKeyframes>
              </ZoomPanBin>
             </Entry>
             <Entry key="CursorEffectBin">
              <CursorEffectBin id="3637"  >
               <CursorEffectKeyframes>
               </CursorEffectKeyframes>
              </CursorEffectBin>
             </Entry>
            </ExtraData>
           </ScreenIMFile>
          </Medias>
         </GenericTrack>
        </StitchedMedia>
       </Medias>
      </GenericTrack>
      <GenericTrack id="3638"  >
       <Attributes>
        <Attribute id="3639" value="" name="ident"/>
        <Attribute id="3640" value="0" name="audioMuted"/>
        <Attribute id="3641" value="0" name="videoHidden"/>
       </Attributes>
       <MetaData>
        <entry key="IsLocked" val="False"/>
        <entry key="WinTrackHeight" val="62"/>
       </MetaData>
       <Medias>
       </Medias>
      </GenericTrack>
     </Tracks>
    </GenericMixer>
   <CaptionAttributes id="3642"  >
    <Attribute id="3643" value="1" name="captionsEnabled"/>
    <Attribute id="3644" value="Arial" name="captionsFontName"/>
    <Attribute id="3645" value="28" name="captionsFontSize"/>
    <Attribute id="3646" value="(0,0,0,255)" name="captionsBackgroundColor"/>
    <Attribute id="3647" value="(255,255,255,255)" name="captionsForegroundColor"/>
    <Attribute id="3648" value="en" name="lang"/>
    <Attribute id="3649" value="0" name="captionsAlignment"/>
    <Attribute id="3650" value="1" name="captionsDefaultFontSize"/>
    <Attribute id="3651" value="0.5" name="captionsOpacity"/>
    <Attribute id="3652" value="1" name="captionsBackgroundEnabled"/>
    <Attribute id="3653" value="1" name="captionsBackgroundOnlyAroundText"/>
   </CaptionAttributes>
   <Parameters>
    <VectorParam id="3654"  name="eyePosition">
     <InterpolatingParam id="3655" interp="linr"  time="0/1" value="0" leadInLength="0/1"  />
     <InterpolatingParam id="3656" interp="linr"  time="0/1" value="0" leadInLength="0/1"  />
     <InterpolatingParam id="3657" interp="linr"  time="0/1" value="3000" leadInLength="0/1"  />
    </VectorParam>
    <VectorParam id="3658"  name="eyeLookAtPosition">
     <InterpolatingParam id="3659" interp="linr"  time="0/1" value="0" leadInLength="0/1"  />
     <InterpolatingParam id="3660" interp="linr"  time="0/1" value="0" leadInLength="0/1"  />
     <InterpolatingParam id="3661" interp="linr"  time="0/1" value="0" leadInLength="0/1"  />
    </VectorParam>
    <VectorParam id="3662"  name="eyeUpVector">
     <InterpolatingParam id="3663" interp="linr"  time="0/1" value="0" leadInLength="0/1"  />
     <InterpolatingParam id="3664" interp="linr"  time="0/1" value="1" leadInLength="0/1"  />
     <InterpolatingParam id="3665" interp="linr"  time="0/1" value="0" leadInLength="0/1"  />
    </VectorParam>
    <InterpolatingParam id="3666" interp="linr"  time="0/1" value="0.23885785" leadInLength="0/1"  name="fov"/>
    <InterpolatingParam id="3667" interp="linr"  time="0/1" value="1.5" leadInLength="0/1"  name="nearClipDistance"/>
    <InterpolatingParam id="3668" interp="linr"  time="0/1" value="6000" leadInLength="0/1"  name="farClipDistance"/>
   </Parameters>
  </Timeline>
 </Project>
</GoProject>
</CSMLData>

</Project_Data>
