<?xml version="1.0"?>
<Project_Data Version="8.00">
<Project_Settings>
<ProfileName>MP4 only (up to 720p)</ProfileName>
<ProjectWidth>1280</ProjectWidth>
<ProjectHeight>720</ProjectHeight>
<IsCustomProject>1</IsCustomProject>
<SavedProjectSettings>1</SavedProjectSettings>
<LastFlashTemplate>-1</LastFlashTemplate>
</Project_Settings>


<AutoSaveFile>C:\Users\ewittman\git\apiman-videos\installing-apiman\_auto-saves\installing-apiman2365dfd8.autosave.camproj</AutoSaveFile>

<ProjectID>E18ED1BA-75D6-422A-972D-AB4C8343FE34</ProjectID>

<PowerPointProject>0</PowerPointProject>

<PowerPointFilename></PowerPointFilename>


<Project_Notes>
</Project_Notes>

<Project_MetaData>
<Project_MetaData_Object>
<FieldArrayKey>8</FieldArrayKey>
<Value>installing-apiman</Value>
</Project_MetaData_Object>
<Project_MetaData_Object>
<FieldArrayKey>13</FieldArrayKey>
<Value>2014-11-13 12:15:43 PM</Value>
</Project_MetaData_Object>
<Project_MetaData_Object>
<FieldArrayKey>16</FieldArrayKey>
<Value>ENU</Value>
</Project_MetaData_Object>
</Project_MetaData>

<CSMLData>
<GoProject id="1" version="3.0" >
 <Project id="2" editRate="30/1" version="3.0" >
  <Author></Author>
  <Comment></Comment>
  <System></System>
  <SourceBin id="3"  >
    <Source id="4" src="C:\Users\ewittman\git\apiman-videos\installing-apiman\audio\login.mp3" lastMod="20141113T173932" rect="(0,0,0,0)" >
      <SourceTrack range="(0,166666667)" type="2" editRate="10000000/1" trackRect="(0,0,0,0)" sampleRate="44100/1" bitDepth="0" numChannels="2" filename="" metaData="" />
    </Source>
    <Source id="5" src="C:\Users\ewittman\git\apiman-videos\installing-apiman\audio\prereqs.mp3" lastMod="20141113T173722" rect="(0,0,0,0)" >
      <SourceTrack range="(0,133333333)" type="2" editRate="10000000/1" trackRect="(0,0,0,0)" sampleRate="44100/1" bitDepth="0" numChannels="2" filename="" metaData="" />
    </Source>
    <Source id="6" src="C:\Users\ewittman\git\apiman-videos\installing-apiman\audio\runapiman.mp3" lastMod="20141113T173900" rect="(0,0,0,0)" >
      <SourceTrack range="(0,215333333)" type="2" editRate="10000000/1" trackRect="(0,0,0,0)" sampleRate="44100/1" bitDepth="0" numChannels="2" filename="" metaData="" />
    </Source>
    <Source id="7" src="C:\Users\ewittman\git\apiman-videos\installing-apiman\audio\unpack.mp3" lastMod="20141113T173826" rect="(0,0,0,0)" >
      <SourceTrack range="(0,130000000)" type="2" editRate="10000000/1" trackRect="(0,0,0,0)" sampleRate="44100/1" bitDepth="0" numChannels="2" filename="" metaData="" />
    </Source>
    <Source id="8" src="C:\Users\ewittman\git\apiman-videos\installing-apiman\audio\wrapup.mp3" lastMod="20141113T174054" rect="(0,0,0,0)" >
      <SourceTrack range="(0,104333333)" type="2" editRate="10000000/1" trackRect="(0,0,0,0)" sampleRate="44100/1" bitDepth="0" numChannels="2" filename="" metaData="" />
    </Source>
    <Source id="9" src="C:\Users\ewittman\git\apiman-videos\installing-apiman\audio\download.mp3" lastMod="20141113T173758" rect="(0,0,0,0)" >
      <SourceTrack range="(0,161333333)" type="2" editRate="10000000/1" trackRect="(0,0,0,0)" sampleRate="44100/1" bitDepth="0" numChannels="2" filename="" metaData="" />
    </Source>
    <Source id="10" src="C:\Users\ewittman\git\apiman-videos\installing-apiman\audio\intro.mp3" lastMod="20141113T173558" rect="(0,0,0,0)" >
      <SourceTrack range="(0,74333333)" type="2" editRate="10000000/1" trackRect="(0,0,0,0)" sampleRate="44100/1" bitDepth="0" numChannels="2" filename="" metaData="" />
    </Source>
    <Source id="11" src="C:\Users\ewittman\git\apiman-videos\installing-apiman\video\login.camrec" lastMod="20141113T154626" rect="(0,0,1280,720)" >
      <SourceTrack range="(0,182666667)" type="0" editRate="10000000/1" trackRect="(0,0,1280,720)" sampleRate="10000000/333333" bitDepth="24" numChannels="0" filename="login.camrec!Screen_Stream.avi" metaData="login.camrec!Events.dat;login.camrec!manifest.camxml;" />
    </Source>
    <Source id="12" src="C:\Users\ewittman\git\apiman-videos\installing-apiman\screenshots\prereqs.png" lastMod="20141113T161142" rect="(0,0,1280,720)" >
      <SourceTrack range="(0,1)" type="1" editRate="10000000/1" trackRect="(0,0,1280,720)" sampleRate="0/1" bitDepth="32" numChannels="0" filename="" metaData="" />
    </Source>
    <Source id="13" src="C:\Users\ewittman\git\apiman-videos\installing-apiman\video\runapiman.camrec" lastMod="20141113T154241" rect="(0,0,1280,720)" >
      <SourceTrack range="(0,240666667)" type="0" editRate="10000000/1" trackRect="(0,0,1280,720)" sampleRate="10000000/333333" bitDepth="24" numChannels="0" filename="runapiman.camrec!Screen_Stream.avi" metaData="runapiman.camrec!Events.dat;runapiman.camrec!manifest.camxml;" />
    </Source>
    <Source id="14" src="C:\Users\ewittman\git\apiman-videos\installing-apiman\video\unpack.camrec" lastMod="20141113T154126" rect="(0,0,1280,720)" >
      <SourceTrack range="(0,211333333)" type="0" editRate="10000000/1" trackRect="(0,0,1280,720)" sampleRate="10000000/333333" bitDepth="24" numChannels="0" filename="unpack.camrec!Screen_Stream.avi" metaData="unpack.camrec!Events.dat;unpack.camrec!manifest.camxml;" />
    </Source>
    <Source id="15" src="C:\Users\ewittman\git\apiman-videos\installing-apiman\video\download.camrec" lastMod="20141113T153808" rect="(0,0,1280,720)" >
      <SourceTrack range="(0,199666667)" type="0" editRate="10000000/1" trackRect="(0,0,1280,720)" sampleRate="10000000/333333" bitDepth="24" numChannels="0" filename="download.camrec!Screen_Stream.avi" metaData="download.camrec!Events.dat;download.camrec!manifest.camxml;" />
    </Source>
    <Source id="16" src="C:\Users\ewittman\git\apiman-videos\installing-apiman\screenshots\intro.png" lastMod="20141120T210430" rect="(0,0,1286,720)" >
      <SourceTrack range="(0,1)" type="1" editRate="10000000/1" trackRect="(0,0,1286,720)" sampleRate="0/1" bitDepth="32" numChannels="0" filename="" metaData="" />
    </Source>
    <Source id="17" src="C:\Users\ewittman\git\apiman-videos\music_beat.wav" lastMod="20141115T163242" rect="(0,0,0,0)" >
      <SourceTrack range="(0,160000000)" type="2" editRate="10000000/1" trackRect="(0,0,0,0)" sampleRate="44100/1" bitDepth="16" numChannels="2" filename="" metaData="" />
    </Source>
  </SourceBin>
  <Timeline id="18"  >
   <Attributes>
    <Attribute id="19" value="1280" name="width"/>
    <Attribute id="20" value="720" name="height"/>
    <Attribute id="21" value="(0,0,0,255)" name="backgroundColor"/>
   </Attributes>
    <GenericMixer id="22"  name="Unified Mixer">
     <MetaData>
      <entry key="MixerType" val="TimelineMixer"/>
     </MetaData>
     <Tracks>
      <GenericTrack id="23"  >
       <Attributes>
        <Attribute id="24" value="Music" name="ident"/>
        <Attribute id="25" value="0" name="audioMuted"/>
        <Attribute id="26" value="0" name="videoHidden"/>
       </Attributes>
       <MetaData>
        <entry key="IsLocked" val="True"/>
        <entry key="WinTrackHeight" val="0"/>
       </MetaData>
       <Medias>
        <AMFile id="27" start="6" duration="480" scalar="1/1" mediaStart="0/1" mediaDuration="480/1" trackNumber="0" src="17" channelNumber="0,1" >
         <Parameters>
          <InterpolatingParam id="28" interp="linr"  time="0/1" value="0.028147497671065627" leadInLength="0/1"  name="volume"/>
          <Parameter id="29"  name="captions"/>
         </Parameters>
         <Attributes>
          <Attribute id="30" value="" name="ident"/>
          <Attribute id="31" value="44100" name="sampleRate"/>
          <Attribute id="32" value="16" name="bitDepth"/>
          <Attribute id="33" value="1" name="gain"/>
          <Attribute id="34" value="0" name="mixToMono"/>
         </Attributes>
         <MetaData>
          <entry key="WinSubProjectDisplayName" val=""/>
         </MetaData>
        </AMFile>
        <AMFile id="35" start="486" duration="480" scalar="1/1" mediaStart="0/1" mediaDuration="480/1" trackNumber="0" src="17" channelNumber="0,1" >
         <Parameters>
          <InterpolatingParam id="36" interp="linr"  time="0/1" value="0.028147497671065627" leadInLength="0/1"  name="volume"/>
          <Parameter id="37"  name="captions"/>
         </Parameters>
         <Attributes>
          <Attribute id="38" value="" name="ident"/>
          <Attribute id="39" value="44100" name="sampleRate"/>
          <Attribute id="40" value="16" name="bitDepth"/>
          <Attribute id="41" value="1" name="gain"/>
          <Attribute id="42" value="0" name="mixToMono"/>
         </Attributes>
         <MetaData>
          <entry key="WinSubProjectDisplayName" val=""/>
         </MetaData>
        </AMFile>
        <AMFile id="43" start="966" duration="480" scalar="1/1" mediaStart="0/1" mediaDuration="480/1" trackNumber="0" src="17" channelNumber="0,1" >
         <Parameters>
          <InterpolatingParam id="44" interp="linr"  time="0/1" value="0.028147497671065627" leadInLength="0/1"  name="volume"/>
          <Parameter id="45"  name="captions"/>
         </Parameters>
         <Attributes>
          <Attribute id="46" value="" name="ident"/>
          <Attribute id="47" value="44100" name="sampleRate"/>
          <Attribute id="48" value="16" name="bitDepth"/>
          <Attribute id="49" value="1" name="gain"/>
          <Attribute id="50" value="0" name="mixToMono"/>
         </Attributes>
         <MetaData>
          <entry key="WinSubProjectDisplayName" val=""/>
         </MetaData>
        </AMFile>
        <AMFile id="51" start="1446" duration="480" scalar="1/1" mediaStart="0/1" mediaDuration="480/1" trackNumber="0" src="17" channelNumber="0,1" >
         <Parameters>
          <InterpolatingParam id="52" interp="linr"  time="0/1" value="0.028147497671065627" leadInLength="0/1"  name="volume"/>
          <Parameter id="53"  name="captions"/>
         </Parameters>
         <Attributes>
          <Attribute id="54" value="" name="ident"/>
          <Attribute id="55" value="44100" name="sampleRate"/>
          <Attribute id="56" value="16" name="bitDepth"/>
          <Attribute id="57" value="1" name="gain"/>
          <Attribute id="58" value="0" name="mixToMono"/>
         </Attributes>
         <MetaData>
          <entry key="WinSubProjectDisplayName" val=""/>
         </MetaData>
        </AMFile>
        <AMFile id="59" start="1926" duration="480" scalar="1/1" mediaStart="0/1" mediaDuration="480/1" trackNumber="0" src="17" channelNumber="0,1" >
         <Parameters>
          <InterpolatingParam id="60" interp="linr"  time="0/1" value="0.028147497671065627" leadInLength="0/1"  name="volume"/>
          <Parameter id="61"  name="captions"/>
         </Parameters>
         <Attributes>
          <Attribute id="62" value="" name="ident"/>
          <Attribute id="63" value="44100" name="sampleRate"/>
          <Attribute id="64" value="16" name="bitDepth"/>
          <Attribute id="65" value="1" name="gain"/>
          <Attribute id="66" value="0" name="mixToMono"/>
         </Attributes>
         <MetaData>
          <entry key="WinSubProjectDisplayName" val=""/>
         </MetaData>
        </AMFile>
        <AMFile id="67" start="2406" duration="480" scalar="1/1" mediaStart="0/1" mediaDuration="480/1" trackNumber="0" src="17" channelNumber="0,1" >
         <Parameters>
          <InterpolatingParam id="68" interp="linr"  time="0/1" value="0.028147497671065627" leadInLength="0/1"  name="volume"/>
          <Parameter id="69"  name="captions"/>
         </Parameters>
         <Attributes>
          <Attribute id="70" value="" name="ident"/>
          <Attribute id="71" value="44100" name="sampleRate"/>
          <Attribute id="72" value="16" name="bitDepth"/>
          <Attribute id="73" value="1" name="gain"/>
          <Attribute id="74" value="0" name="mixToMono"/>
         </Attributes>
         <MetaData>
          <entry key="WinSubProjectDisplayName" val=""/>
         </MetaData>
        </AMFile>
        <AMFile id="75" start="2886" duration="193" scalar="1/1" mediaStart="0/1" mediaDuration="193/1" trackNumber="0" src="17" channelNumber="0,1" >
         <Parameters>
          <InterpolatingParam id="76" interp="linr"  name="volume">
           <Keyframes>
           <Keyframe id="77"  time="0/1" value="0.028147497671065627" leadInLength="0/1"  />
           <Keyframe id="78"  time="103/1" value="0.028147497671065627" leadInLength="0/1"  />
           <Keyframe id="79"  time="193/1" value="0" leadInLength="0/1"  />
           <Keyframe id="80"  time="194/1" value="0.028147497671065627" leadInLength="0/1"  />
           </Keyframes>
          </InterpolatingParam>
          <Parameter id="81"  name="captions"/>
         </Parameters>
         <Attributes>
          <Attribute id="82" value="" name="ident"/>
          <Attribute id="83" value="44100" name="sampleRate"/>
          <Attribute id="84" value="16" name="bitDepth"/>
          <Attribute id="85" value="1" name="gain"/>
          <Attribute id="86" value="0" name="mixToMono"/>
         </Attributes>
         <MetaData>
          <entry key="WinSubProjectDisplayName" val=""/>
         </MetaData>
        </AMFile>
       </Medias>
      </GenericTrack>
      <GenericTrack id="87"  >
       <Attributes>
        <Attribute id="88" value="Audio" name="ident"/>
        <Attribute id="89" value="0" name="audioMuted"/>
        <Attribute id="90" value="0" name="videoHidden"/>
       </Attributes>
       <MetaData>
        <entry key="IsLocked" val="False"/>
        <entry key="WinTrackHeight" val="62"/>
       </MetaData>
       <Medias>
        <AMFile id="91" start="6" duration="222" scalar="1/1" mediaStart="0/1" mediaDuration="222/1" trackNumber="0" src="10" channelNumber="0,1" >
         <Parameters>
          <InterpolatingParam id="92" interp="linr"  time="0/1" value="1.25" leadInLength="0/1"  name="volume"/>
          <Parameter id="93"  name="captions"/>
         </Parameters>
         <Attributes>
          <Attribute id="94" value="" name="ident"/>
          <Attribute id="95" value="44100" name="sampleRate"/>
          <Attribute id="96" value="0" name="bitDepth"/>
          <Attribute id="97" value="1" name="gain"/>
          <Attribute id="98" value="0" name="mixToMono"/>
         </Attributes>
         <MetaData>
          <entry key="WinSubProjectDisplayName" val=""/>
         </MetaData>
        </AMFile>
        <AMFile id="99" start="228" duration="399" scalar="1/1" mediaStart="0/1" mediaDuration="399/1" trackNumber="0" src="5" channelNumber="0,1" >
         <Parameters>
          <InterpolatingParam id="100" interp="linr"  time="0/1" value="1.25" leadInLength="0/1"  name="volume"/>
          <Parameter id="101"  name="captions"/>
         </Parameters>
         <Attributes>
          <Attribute id="102" value="" name="ident"/>
          <Attribute id="103" value="44100" name="sampleRate"/>
          <Attribute id="104" value="0" name="bitDepth"/>
          <Attribute id="105" value="1" name="gain"/>
          <Attribute id="106" value="0" name="mixToMono"/>
         </Attributes>
         <MetaData>
          <entry key="WinSubProjectDisplayName" val=""/>
         </MetaData>
        </AMFile>
        <AMFile id="107" start="627" duration="483" scalar="1/1" mediaStart="0/1" mediaDuration="483/1" trackNumber="0" src="9" channelNumber="0,1" >
         <Parameters>
          <InterpolatingParam id="108" interp="linr"  time="0/1" value="1.25" leadInLength="0/1"  name="volume"/>
          <Parameter id="109"  name="captions"/>
         </Parameters>
         <Attributes>
          <Attribute id="110" value="" name="ident"/>
          <Attribute id="111" value="44100" name="sampleRate"/>
          <Attribute id="112" value="0" name="bitDepth"/>
          <Attribute id="113" value="1" name="gain"/>
          <Attribute id="114" value="0" name="mixToMono"/>
         </Attributes>
         <MetaData>
          <entry key="WinSubProjectDisplayName" val=""/>
         </MetaData>
        </AMFile>
        <AMFile id="115" start="1155" duration="390" scalar="1/1" mediaStart="0/1" mediaDuration="390/1" trackNumber="0" src="7" channelNumber="0,1" >
         <Parameters>
          <InterpolatingParam id="116" interp="linr"  time="0/1" value="1.25" leadInLength="0/1"  name="volume"/>
          <Parameter id="117"  name="captions"/>
         </Parameters>
         <Attributes>
          <Attribute id="118" value="" name="ident"/>
          <Attribute id="119" value="44100" name="sampleRate"/>
          <Attribute id="120" value="0" name="bitDepth"/>
          <Attribute id="121" value="1" name="gain"/>
          <Attribute id="122" value="0" name="mixToMono"/>
         </Attributes>
         <MetaData>
          <entry key="WinSubProjectDisplayName" val=""/>
         </MetaData>
        </AMFile>
        <AMFile id="123" start="1545" duration="645" scalar="1/1" mediaStart="0/1" mediaDuration="645/1" trackNumber="0" src="6" channelNumber="0,1" >
         <Parameters>
          <InterpolatingParam id="124" interp="linr"  time="0/1" value="1.25" leadInLength="0/1"  name="volume"/>
          <Parameter id="125"  name="captions"/>
         </Parameters>
         <Attributes>
          <Attribute id="126" value="" name="ident"/>
          <Attribute id="127" value="44100" name="sampleRate"/>
          <Attribute id="128" value="0" name="bitDepth"/>
          <Attribute id="129" value="1" name="gain"/>
          <Attribute id="130" value="0" name="mixToMono"/>
         </Attributes>
         <MetaData>
          <entry key="WinSubProjectDisplayName" val=""/>
         </MetaData>
        </AMFile>
        <AMFile id="131" start="2190" duration="500" scalar="1/1" mediaStart="0/1" mediaDuration="500/1" trackNumber="0" src="4" channelNumber="0,1" >
         <Parameters>
          <InterpolatingParam id="132" interp="linr"  time="0/1" value="1.25" leadInLength="0/1"  name="volume"/>
          <Parameter id="133"  name="captions"/>
         </Parameters>
         <Attributes>
          <Attribute id="134" value="" name="ident"/>
          <Attribute id="135" value="44100" name="sampleRate"/>
          <Attribute id="136" value="0" name="bitDepth"/>
          <Attribute id="137" value="1" name="gain"/>
          <Attribute id="138" value="0" name="mixToMono"/>
         </Attributes>
         <MetaData>
          <entry key="WinSubProjectDisplayName" val=""/>
         </MetaData>
        </AMFile>
        <AMFile id="139" start="2767" duration="312" scalar="1/1" mediaStart="0/1" mediaDuration="312/1" trackNumber="0" src="8" channelNumber="0,1" >
         <Parameters>
          <InterpolatingParam id="140" interp="linr"  time="0/1" value="1.25" leadInLength="0/1"  name="volume"/>
          <Parameter id="141"  name="captions"/>
         </Parameters>
         <Attributes>
          <Attribute id="142" value="" name="ident"/>
          <Attribute id="143" value="44100" name="sampleRate"/>
          <Attribute id="144" value="0" name="bitDepth"/>
          <Attribute id="145" value="1" name="gain"/>
          <Attribute id="146" value="0" name="mixToMono"/>
         </Attributes>
         <MetaData>
          <entry key="WinSubProjectDisplayName" val=""/>
         </MetaData>
        </AMFile>
       </Medias>
      </GenericTrack>
      <GenericTrack id="147"  >
       <Attributes>
        <Attribute id="148" value="Video" name="ident"/>
        <Attribute id="149" value="0" name="audioMuted"/>
        <Attribute id="150" value="0" name="videoHidden"/>
       </Attributes>
       <MetaData>
        <entry key="IsLocked" val="False"/>
        <entry key="WinTrackHeight" val="62"/>
       </MetaData>
       <Medias>
        <IMFile id="151" start="6" duration="207" scalar="1/1" mediaStart="0/1" mediaDuration="1/1" trackNumber="0" src="16" trimStartSum="0/1" >
         <Transformer>
          <VectorParam id="152"  name="translation">
           <InterpolatingParam id="153" interp="linr"  time="-9999999/1" value="0" leadInLength="0/1"  interpolater="leadin-linr"  />
           <InterpolatingParam id="154" interp="linr"  time="-9999999/1" value="0" leadInLength="0/1"  interpolater="leadin-linr"  />
           <InterpolatingParam id="155" interp="linr"  time="-9999999/1" value="0" leadInLength="0/1"  interpolater="leadin-linr"  />
          </VectorParam>
          <VectorParam id="156"  name="rotation">
           <InterpolatingParam id="157" interp="linr"  time="-9999999/1" value="0" leadInLength="0/1"  interpolater="leadin-linr"  />
           <InterpolatingParam id="158" interp="linr"  time="-9999999/1" value="0" leadInLength="0/1"  interpolater="leadin-linr"  />
           <InterpolatingParam id="159" interp="linr"  time="-9999999/1" value="0" leadInLength="0/1"  interpolater="leadin-linr"  />
          </VectorParam>
          <VectorParam id="160"  name="shear">
           <InterpolatingParam id="161" interp="linr"  time="-9999999/1" value="0" leadInLength="0/1"  interpolater="leadin-linr"  />
           <InterpolatingParam id="162" interp="linr"  time="-9999999/1" value="0" leadInLength="0/1"  interpolater="leadin-linr"  />
           <InterpolatingParam id="163" interp="linr"  time="-9999999/1" value="0" leadInLength="0/1"  interpolater="leadin-linr"  />
          </VectorParam>
          <VectorParam id="164"  name="scale">
           <InterpolatingParam id="165" interp="linr"  time="-9999999/1" value="1" leadInLength="0/1"  interpolater="leadin-linr"  />
           <InterpolatingParam id="166" interp="linr"  time="-9999999/1" value="1" leadInLength="0/1"  interpolater="leadin-linr"  />
           <InterpolatingParam id="167" interp="linr"  time="-9999999/1" value="1" leadInLength="0/1"  interpolater="leadin-linr"  />
          </VectorParam>
          <VectorParam id="168"  name="anchor">
           <InterpolatingParam id="169" interp="linr"  time="0/1" value="0" leadInLength="0/1"  />
           <InterpolatingParam id="170" interp="linr"  time="0/1" value="0" leadInLength="0/1"  />
           <InterpolatingParam id="171" interp="linr"  time="0/1" value="0" leadInLength="0/1"  />
          </VectorParam>
         </Transformer>
         <Parameters>
          <VectorParam id="172"  name="sourceCrop">
           <InterpolatingParam id="173" interp="linr"  time="0/1" value="0" leadInLength="0/1"  />
           <InterpolatingParam id="174" interp="linr"  time="0/1" value="0" leadInLength="0/1"  />
           <InterpolatingParam id="175" interp="linr"  time="0/1" value="0" leadInLength="0/1"  />
           <InterpolatingParam id="176" interp="linr"  time="0/1" value="0" leadInLength="0/1"  />
          </VectorParam>
          <VectorParam id="177"  name="geometryCrop">
           <InterpolatingParam id="178" interp="linr"  time="-9999999/1" value="0" leadInLength="0/1"  interpolater="leadin-linr"  />
           <InterpolatingParam id="179" interp="linr"  time="-9999999/1" value="0" leadInLength="0/1"  interpolater="leadin-linr"  />
           <InterpolatingParam id="180" interp="linr"  time="-9999999/1" value="0" leadInLength="0/1"  interpolater="leadin-linr"  />
           <InterpolatingParam id="181" interp="linr"  time="-9999999/1" value="0" leadInLength="0/1"  interpolater="leadin-linr"  />
          </VectorParam>
          <InterpolatingParam id="182" interp="linr"  time="-9999999/1" value="1" leadInLength="0/1"  interpolater="leadin-linr"  name="opacity"/>
         </Parameters>
         <Attributes>
          <Attribute id="183" value="" name="ident"/>
         </Attributes>
         <MetaData>
          <entry key="WinSubProjectDisplayName" val=""/>
         </MetaData>
         <ExtraData>
          <Entry key="ZoomPanBin">
           <ZoomPanBin id="184"  >
            <ZoomPanKeyframes>
             <ZoomPanKeyframe id="185" timeRangeEnd="-9999999/1" timeRangeDuration="0/1" interpolaterName="leadin-linr"  />
            </ZoomPanKeyframes>
           </ZoomPanBin>
          </Entry>
         </ExtraData>
        </IMFile>
        <UnifiedMedia id="186"  >
         <AudioTransition id="187" start="213" duration="30" >
          <Parameters>
           <InterpolatingParam id="188" interp="linr"  time="0/1" value="1" leadInLength="0/1"  name="volume"/>
           <Parameter id="189"  name="captions"/>
          </Parameters>
          <Effects>
           <GenericEffect id="190" name = "AudioTransition" >
            <Parameters>
            <Parameter id="191"   name="audioEdgeModType">
             <Keyframes>
             <Keyframe id="192"  time="0/1" value="0" leadInLength="0/1"  />
             </Keyframes>
            </Parameter>
            <Parameter id="193"   name="audioTransitionType">
             <Keyframes>
             <Keyframe id="194"  time="0/1" value="" leadInLength="0/1"  />
             </Keyframes>
            </Parameter>
            </Parameters>
            <MetaData>
            </MetaData>
           </GenericEffect>
          </Effects>
          <Attributes>
           <Attribute id="195" value="" name="ident"/>
           <Attribute id="196" value="0" name="sampleRate"/>
           <Attribute id="197" value="0" name="bitDepth"/>
           <Attribute id="198" value="1" name="gain"/>
           <Attribute id="199" value="0" name="mixToMono"/>
          </Attributes>
         </AudioTransition>
         <ImageTransition id="200" start="213" duration="30" >
          <Transformer>
           <VectorParam id="201"  name="translation">
            <InterpolatingParam id="202" interp="linr"  time="0/1" value="0" leadInLength="0/1"  />
            <InterpolatingParam id="203" interp="linr"  time="0/1" value="0" leadInLength="0/1"  />
            <InterpolatingParam id="204" interp="linr"  time="0/1" value="0" leadInLength="0/1"  />
           </VectorParam>
           <VectorParam id="205"  name="rotation">
            <InterpolatingParam id="206" interp="linr"  time="0/1" value="0" leadInLength="0/1"  />
            <InterpolatingParam id="207" interp="linr"  time="0/1" value="0" leadInLength="0/1"  />
            <InterpolatingParam id="208" interp="linr"  time="0/1" value="0" leadInLength="0/1"  />
           </VectorParam>
           <VectorParam id="209"  name="shear">
            <InterpolatingParam id="210" interp="linr"  time="0/1" value="0" leadInLength="0/1"  />
            <InterpolatingParam id="211" interp="linr"  time="0/1" value="0" leadInLength="0/1"  />
            <InterpolatingParam id="212" interp="linr"  time="0/1" value="0" leadInLength="0/1"  />
           </VectorParam>
           <VectorParam id="213"  name="scale">
            <InterpolatingParam id="214" interp="linr"  time="0/1" value="1" leadInLength="0/1"  />
            <InterpolatingParam id="215" interp="linr"  time="0/1" value="1" leadInLength="0/1"  />
            <InterpolatingParam id="216" interp="linr"  time="0/1" value="1" leadInLength="0/1"  />
           </VectorParam>
           <VectorParam id="217"  name="anchor">
            <InterpolatingParam id="218" interp="linr"  time="0/1" value="0" leadInLength="0/1"  />
            <InterpolatingParam id="219" interp="linr"  time="0/1" value="0" leadInLength="0/1"  />
            <InterpolatingParam id="220" interp="linr"  time="0/1" value="0" leadInLength="0/1"  />
           </VectorParam>
          </Transformer>
          <Parameters>
           <VectorParam id="221"  name="sourceCrop">
            <InterpolatingParam id="222" interp="linr"  time="0/1" value="0" leadInLength="0/1"  />
            <InterpolatingParam id="223" interp="linr"  time="0/1" value="0" leadInLength="0/1"  />
            <InterpolatingParam id="224" interp="linr"  time="0/1" value="0" leadInLength="0/1"  />
            <InterpolatingParam id="225" interp="linr"  time="0/1" value="0" leadInLength="0/1"  />
           </VectorParam>
           <VectorParam id="226"  name="geometryCrop">
            <InterpolatingParam id="227" interp="linr"  time="0/1" value="0" leadInLength="0/1"  />
            <InterpolatingParam id="228" interp="linr"  time="0/1" value="0" leadInLength="0/1"  />
            <InterpolatingParam id="229" interp="linr"  time="0/1" value="0" leadInLength="0/1"  />
            <InterpolatingParam id="230" interp="linr"  time="0/1" value="0" leadInLength="0/1"  />
           </VectorParam>
           <InterpolatingParam id="231" interp="linr"  time="0/1" value="1" leadInLength="0/1"  name="opacity"/>
          </Parameters>
          <Effects>
           <GenericEffect id="232" name = "VisualTransition" >
            <Parameters>
            <InterpolatingParam id="233" interp="linr"  time="0/1" value="1" leadInLength="0/1"   name="leftFramePercentage"/>
            <InterpolatingParam id="234" interp="linr"  time="0/1" value="1" leadInLength="0/1"   name="rightFramePercentage"/>
            <Parameter id="235"   name="visualEdgeModType">
             <Keyframes>
             <Keyframe id="236"  time="0/1" value="0" leadInLength="0/1"  />
             </Keyframes>
            </Parameter>
            <Parameter id="237"   name="visualTransitionType">
             <Keyframes>
             <Keyframe id="238"  time="0/1" value="Flip" leadInLength="0/1"  />
             </Keyframes>
            </Parameter>
            </Parameters>
            <MetaData>
            </MetaData>
           </GenericEffect>
          </Effects>
          <Attributes>
           <Attribute id="239" value="" name="ident"/>
          </Attributes>
          <ExtraData>
           <Entry key="ZoomPanBin">
            <ZoomPanBin id="240"  >
             <ZoomPanKeyframes>
             </ZoomPanKeyframes>
            </ZoomPanBin>
           </Entry>
          </ExtraData>
         </ImageTransition>
         <MetaData>
          <entry key="WinSubProjectDisplayName" val=""/>
         </MetaData>
        </UnifiedMedia>
        <IMFile id="241" start="243" duration="433" scalar="1/1" mediaStart="0/1" mediaDuration="1/1" trackNumber="0" src="12" trimStartSum="15/1" >
         <Transformer>
          <VectorParam id="242"  name="translation">
           <InterpolatingParam id="243" interp="linr"  time="-9999999/1" value="0" leadInLength="0/1"  />
           <InterpolatingParam id="244" interp="linr"  time="-9999999/1" value="0" leadInLength="0/1"  />
           <InterpolatingParam id="245" interp="linr"  time="-9999999/1" value="0" leadInLength="0/1"  />
          </VectorParam>
          <VectorParam id="246"  name="rotation">
           <InterpolatingParam id="247" interp="linr"  time="-9999999/1" value="0" leadInLength="0/1"  />
           <InterpolatingParam id="248" interp="linr"  time="-9999999/1" value="0" leadInLength="0/1"  />
           <InterpolatingParam id="249" interp="linr"  time="-9999999/1" value="0" leadInLength="0/1"  />
          </VectorParam>
          <VectorParam id="250"  name="shear">
           <InterpolatingParam id="251" interp="linr"  time="-9999999/1" value="0" leadInLength="0/1"  />
           <InterpolatingParam id="252" interp="linr"  time="-9999999/1" value="0" leadInLength="0/1"  />
           <InterpolatingParam id="253" interp="linr"  time="-9999999/1" value="0" leadInLength="0/1"  />
          </VectorParam>
          <VectorParam id="254"  name="scale">
           <InterpolatingParam id="255" interp="linr"  time="-9999999/1" value="1" leadInLength="0/1"  />
           <InterpolatingParam id="256" interp="linr"  time="-9999999/1" value="1" leadInLength="0/1"  />
           <InterpolatingParam id="257" interp="linr"  time="-9999999/1" value="1" leadInLength="0/1"  />
          </VectorParam>
          <VectorParam id="258"  name="anchor">
           <InterpolatingParam id="259" interp="linr"  time="0/1" value="0" leadInLength="0/1"  />
           <InterpolatingParam id="260" interp="linr"  time="0/1" value="0" leadInLength="0/1"  />
           <InterpolatingParam id="261" interp="linr"  time="0/1" value="0" leadInLength="0/1"  />
          </VectorParam>
         </Transformer>
         <Parameters>
          <VectorParam id="262"  name="sourceCrop">
           <InterpolatingParam id="263" interp="linr"  time="0/1" value="0" leadInLength="0/1"  />
           <InterpolatingParam id="264" interp="linr"  time="0/1" value="0" leadInLength="0/1"  />
           <InterpolatingParam id="265" interp="linr"  time="0/1" value="0" leadInLength="0/1"  />
           <InterpolatingParam id="266" interp="linr"  time="0/1" value="0" leadInLength="0/1"  />
          </VectorParam>
          <VectorParam id="267"  name="geometryCrop">
           <InterpolatingParam id="268" interp="linr"  time="-9999999/1" value="0" leadInLength="0/1"  />
           <InterpolatingParam id="269" interp="linr"  time="-9999999/1" value="0" leadInLength="0/1"  />
           <InterpolatingParam id="270" interp="linr"  time="-9999999/1" value="0" leadInLength="0/1"  />
           <InterpolatingParam id="271" interp="linr"  time="-9999999/1" value="0" leadInLength="0/1"  />
          </VectorParam>
          <InterpolatingParam id="272" interp="linr"  time="-9999999/1" value="1" leadInLength="0/1"  name="opacity"/>
         </Parameters>
         <Attributes>
          <Attribute id="273" value="" name="ident"/>
         </Attributes>
         <MetaData>
          <entry key="WinSubProjectDisplayName" val=""/>
         </MetaData>
         <ExtraData>
          <Entry key="ZoomPanBin">
           <ZoomPanBin id="274"  >
            <ZoomPanKeyframes>
             <ZoomPanKeyframe id="275" timeRangeEnd="-9999999/1" timeRangeDuration="0/1" interpolaterName="linr"  />
            </ZoomPanKeyframes>
           </ZoomPanBin>
          </Entry>
         </ExtraData>
        </IMFile>
        <UnifiedMedia id="276"  >
         <AudioTransition id="277" start="676" duration="30" >
          <Parameters>
           <InterpolatingParam id="278" interp="linr"  time="0/1" value="1" leadInLength="0/1"  name="volume"/>
           <Parameter id="279"  name="captions"/>
          </Parameters>
          <Effects>
           <GenericEffect id="280" name = "AudioTransition" >
            <Parameters>
            <Parameter id="281"   name="audioEdgeModType">
             <Keyframes>
             <Keyframe id="282"  time="0/1" value="0" leadInLength="0/1"  />
             </Keyframes>
            </Parameter>
            <Parameter id="283"   name="audioTransitionType">
             <Keyframes>
             <Keyframe id="284"  time="0/1" value="" leadInLength="0/1"  />
             </Keyframes>
            </Parameter>
            </Parameters>
            <MetaData>
            </MetaData>
           </GenericEffect>
          </Effects>
          <Attributes>
           <Attribute id="285" value="" name="ident"/>
           <Attribute id="286" value="0" name="sampleRate"/>
           <Attribute id="287" value="0" name="bitDepth"/>
           <Attribute id="288" value="1" name="gain"/>
           <Attribute id="289" value="0" name="mixToMono"/>
          </Attributes>
         </AudioTransition>
         <ImageTransition id="290" start="676" duration="30" >
          <Transformer>
           <VectorParam id="291"  name="translation">
            <InterpolatingParam id="292" interp="linr"  time="0/1" value="0" leadInLength="0/1"  />
            <InterpolatingParam id="293" interp="linr"  time="0/1" value="0" leadInLength="0/1"  />
            <InterpolatingParam id="294" interp="linr"  time="0/1" value="0" leadInLength="0/1"  />
           </VectorParam>
           <VectorParam id="295"  name="rotation">
            <InterpolatingParam id="296" interp="linr"  time="0/1" value="0" leadInLength="0/1"  />
            <InterpolatingParam id="297" interp="linr"  time="0/1" value="0" leadInLength="0/1"  />
            <InterpolatingParam id="298" interp="linr"  time="0/1" value="0" leadInLength="0/1"  />
           </VectorParam>
           <VectorParam id="299"  name="shear">
            <InterpolatingParam id="300" interp="linr"  time="0/1" value="0" leadInLength="0/1"  />
            <InterpolatingParam id="301" interp="linr"  time="0/1" value="0" leadInLength="0/1"  />
            <InterpolatingParam id="302" interp="linr"  time="0/1" value="0" leadInLength="0/1"  />
           </VectorParam>
           <VectorParam id="303"  name="scale">
            <InterpolatingParam id="304" interp="linr"  time="0/1" value="1" leadInLength="0/1"  />
            <InterpolatingParam id="305" interp="linr"  time="0/1" value="1" leadInLength="0/1"  />
            <InterpolatingParam id="306" interp="linr"  time="0/1" value="1" leadInLength="0/1"  />
           </VectorParam>
           <VectorParam id="307"  name="anchor">
            <InterpolatingParam id="308" interp="linr"  time="0/1" value="0" leadInLength="0/1"  />
            <InterpolatingParam id="309" interp="linr"  time="0/1" value="0" leadInLength="0/1"  />
            <InterpolatingParam id="310" interp="linr"  time="0/1" value="0" leadInLength="0/1"  />
           </VectorParam>
          </Transformer>
          <Parameters>
           <VectorParam id="311"  name="sourceCrop">
            <InterpolatingParam id="312" interp="linr"  time="0/1" value="0" leadInLength="0/1"  />
            <InterpolatingParam id="313" interp="linr"  time="0/1" value="0" leadInLength="0/1"  />
            <InterpolatingParam id="314" interp="linr"  time="0/1" value="0" leadInLength="0/1"  />
            <InterpolatingParam id="315" interp="linr"  time="0/1" value="0" leadInLength="0/1"  />
           </VectorParam>
           <VectorParam id="316"  name="geometryCrop">
            <InterpolatingParam id="317" interp="linr"  time="0/1" value="0" leadInLength="0/1"  />
            <InterpolatingParam id="318" interp="linr"  time="0/1" value="0" leadInLength="0/1"  />
            <InterpolatingParam id="319" interp="linr"  time="0/1" value="0" leadInLength="0/1"  />
            <InterpolatingParam id="320" interp="linr"  time="0/1" value="0" leadInLength="0/1"  />
           </VectorParam>
           <InterpolatingParam id="321" interp="linr"  time="0/1" value="1" leadInLength="0/1"  name="opacity"/>
          </Parameters>
          <Effects>
           <GenericEffect id="322" name = "VisualTransition" >
            <Parameters>
            <InterpolatingParam id="323" interp="linr"  time="0/1" value="1" leadInLength="0/1"   name="leftFramePercentage"/>
            <InterpolatingParam id="324" interp="linr"  time="0/1" value="1" leadInLength="0/1"   name="rightFramePercentage"/>
            <Parameter id="325"   name="visualEdgeModType">
             <Keyframes>
             <Keyframe id="326"  time="0/1" value="0" leadInLength="0/1"  />
             </Keyframes>
            </Parameter>
            <Parameter id="327"   name="visualTransitionType">
             <Keyframes>
             <Keyframe id="328"  time="0/1" value="Dissolve" leadInLength="0/1"  />
             </Keyframes>
            </Parameter>
            </Parameters>
            <MetaData>
            </MetaData>
           </GenericEffect>
          </Effects>
          <Attributes>
           <Attribute id="329" value="" name="ident"/>
          </Attributes>
          <ExtraData>
           <Entry key="ZoomPanBin">
            <ZoomPanBin id="330"  >
             <ZoomPanKeyframes>
             </ZoomPanKeyframes>
            </ZoomPanBin>
           </Entry>
          </ExtraData>
         </ImageTransition>
         <MetaData>
          <entry key="WinSubProjectDisplayName" val=""/>
         </MetaData>
        </UnifiedMedia>
        <ScreenVMFile id="331" start="706" duration="469" scalar="499/599" mediaStart="8985/499" mediaDuration="280931/499" trackNumber="0" src="15" >
         <Transformer>
          <VectorParam id="332"  name="translation">
           <InterpolatingParam id="333" interp="linr"  time="-9999999/1" value="0" leadInLength="0/1"  />
           <InterpolatingParam id="334" interp="linr"  time="-9999999/1" value="0" leadInLength="0/1"  />
           <InterpolatingParam id="335" interp="linr"  time="-9999999/1" value="0" leadInLength="0/1"  />
          </VectorParam>
          <VectorParam id="336"  name="rotation">
           <InterpolatingParam id="337" interp="linr"  time="-9999999/1" value="0" leadInLength="0/1"  />
           <InterpolatingParam id="338" interp="linr"  time="-9999999/1" value="0" leadInLength="0/1"  />
           <InterpolatingParam id="339" interp="linr"  time="-9999999/1" value="0" leadInLength="0/1"  />
          </VectorParam>
          <VectorParam id="340"  name="shear">
           <InterpolatingParam id="341" interp="linr"  time="-9999999/1" value="0" leadInLength="0/1"  />
           <InterpolatingParam id="342" interp="linr"  time="-9999999/1" value="0" leadInLength="0/1"  />
           <InterpolatingParam id="343" interp="linr"  time="-9999999/1" value="0" leadInLength="0/1"  />
          </VectorParam>
          <VectorParam id="344"  name="scale">
           <InterpolatingParam id="345" interp="linr"  time="-9999999/1" value="1" leadInLength="0/1"  />
           <InterpolatingParam id="346" interp="linr"  time="-9999999/1" value="1" leadInLength="0/1"  />
           <InterpolatingParam id="347" interp="linr"  time="-9999999/1" value="1" leadInLength="0/1"  />
          </VectorParam>
          <VectorParam id="348"  name="anchor">
           <InterpolatingParam id="349" interp="linr"  time="0/1" value="0" leadInLength="0/1"  />
           <InterpolatingParam id="350" interp="linr"  time="0/1" value="0" leadInLength="0/1"  />
           <InterpolatingParam id="351" interp="linr"  time="0/1" value="0" leadInLength="0/1"  />
          </VectorParam>
         </Transformer>
         <Parameters>
          <VectorParam id="352"  name="sourceCrop">
           <InterpolatingParam id="353" interp="linr"  time="0/1" value="0" leadInLength="0/1"  />
           <InterpolatingParam id="354" interp="linr"  time="0/1" value="0" leadInLength="0/1"  />
           <InterpolatingParam id="355" interp="linr"  time="0/1" value="0" leadInLength="0/1"  />
           <InterpolatingParam id="356" interp="linr"  time="0/1" value="0" leadInLength="0/1"  />
          </VectorParam>
          <VectorParam id="357"  name="geometryCrop">
           <InterpolatingParam id="358" interp="linr"  time="-9999999/1" value="0" leadInLength="0/1"  />
           <InterpolatingParam id="359" interp="linr"  time="-9999999/1" value="0" leadInLength="0/1"  />
           <InterpolatingParam id="360" interp="linr"  time="-9999999/1" value="0" leadInLength="0/1"  />
           <InterpolatingParam id="361" interp="linr"  time="-9999999/1" value="0" leadInLength="0/1"  />
          </VectorParam>
          <InterpolatingParam id="362" interp="linr"  time="-9999999/1" value="1" leadInLength="0/1"  name="opacity"/>
          <InterpolatingParam id="363" interp="linr"  time="0/1" value="1" leadInLength="0/1"  name="cursorOpacity"/>
          <InterpolatingParam id="364" interp="linr"  time="0/1" value="1" leadInLength="0/1"  name="cursorScale"/>
         </Parameters>
         <Effects>
          <GenericEffect id="365" name = "CursorBaseEffectName" >
           <Parameters>
           <InterpolatingParam id="366" interp="linr"  time="-9999999/1" value="1" leadInLength="0/1"   name="cursorSize"/>
           <InterpolatingParam id="367" interp="linr"  time="-9999999/1" value="0" leadInLength="0/1"   name="highlightBlurRadius"/>
           <InterpolatingParam id="368" interp="linr"  time="-9999999/1" value="0" leadInLength="0/1"   name="highlightColorBlue"/>
           <InterpolatingParam id="369" interp="linr"  time="-9999999/1" value="255" leadInLength="0/1"   name="highlightColorGreen"/>
           <InterpolatingParam id="370" interp="linr"  time="-9999999/1" value="255" leadInLength="0/1"   name="highlightColorRed"/>
           <InterpolatingParam id="371" interp="linr"  time="-9999999/1" value="5" leadInLength="0/1"   name="highlightFeatherSize"/>
           <InterpolatingParam id="372" interp="linr"  time="-9999999/1" value="2" leadInLength="0/1"   name="highlightMagnification"/>
           <InterpolatingParam id="373" interp="linr"  time="-9999999/1" value="1" leadInLength="0/1"   name="highlightOpacity"/>
           <InterpolatingParam id="374" interp="linr"  time="-9999999/1" value="45" leadInLength="0/1"   name="highlightSize"/>
           <Parameter id="375"   name="highlightType">
            <Keyframes>
            <Keyframe id="376"  time="-9999999/1" value="0" leadInLength="0/1"  />
            </Keyframes>
           </Parameter>
           <InterpolatingParam id="377" interp="linr"  time="-9999999/1" value="0" leadInLength="0/1"   name="leftClickColorBlue"/>
           <InterpolatingParam id="378" interp="linr"  time="-9999999/1" value="0" leadInLength="0/1"   name="leftClickColorGreen"/>
           <InterpolatingParam id="379" interp="linr"  time="-9999999/1" value="255" leadInLength="0/1"   name="leftClickColorRed"/>
           <InterpolatingParam id="380" interp="linr"  time="-9999999/1" value="0.80000000000000004" leadInLength="0/1"   name="leftClickDuration"/>
           <InterpolatingParam id="381" interp="linr"  time="-9999999/1" value="20" leadInLength="0/1"   name="leftClickSize"/>
           <Parameter id="382"   name="leftClickSoundFilename">
            <Keyframes>
            <Keyframe id="383"  time="-9999999/1" value="" leadInLength="0/1"  />
            </Keyframes>
           </Parameter>
           <InterpolatingParam id="384" interp="linr"  time="-9999999/1" value="1" leadInLength="0/1"   name="leftClickSoundVolume"/>
           <Parameter id="385"   name="leftClickType">
            <Keyframes>
            <Keyframe id="386"  time="-9999999/1" value="0" leadInLength="0/1"  />
            </Keyframes>
           </Parameter>
           <InterpolatingParam id="387" interp="linr"  time="-9999999/1" value="1" leadInLength="0/1"   name="opacity"/>
           <InterpolatingParam id="388" interp="linr"  time="-9999999/1" value="255" leadInLength="0/1"   name="rightClickColorBlue"/>
           <InterpolatingParam id="389" interp="linr"  time="-9999999/1" value="0" leadInLength="0/1"   name="rightClickColorGreen"/>
           <InterpolatingParam id="390" interp="linr"  time="-9999999/1" value="0" leadInLength="0/1"   name="rightClickColorRed"/>
           <InterpolatingParam id="391" interp="linr"  time="-9999999/1" value="0.80000000000000004" leadInLength="0/1"   name="rightClickDuration"/>
           <InterpolatingParam id="392" interp="linr"  time="-9999999/1" value="20" leadInLength="0/1"   name="rightClickSize"/>
           <Parameter id="393"   name="rightClickSoundFilename">
            <Keyframes>
            <Keyframe id="394"  time="-9999999/1" value="" leadInLength="0/1"  />
            </Keyframes>
           </Parameter>
           <InterpolatingParam id="395" interp="linr"  time="-9999999/1" value="1" leadInLength="0/1"   name="rightClickSoundVolume"/>
           <Parameter id="396"   name="rightClickType">
            <Keyframes>
            <Keyframe id="397"  time="-9999999/1" value="0" leadInLength="0/1"  />
            </Keyframes>
           </Parameter>
           </Parameters>
          </GenericEffect>
         </Effects>
         <Attributes>
          <Attribute id="398" value="" name="ident"/>
         </Attributes>
         <MetaData>
          <entry key="AutoAppliedSmartFocus" val="False"/>
          <entry key="WinSubProjectDisplayName" val=""/>
         </MetaData>
         <ExtraData>
          <Entry key="ZoomPanBin">
           <ZoomPanBin id="399"  >
            <ZoomPanKeyframes>
             <ZoomPanKeyframe id="400" timeRangeEnd="-9999999/1" timeRangeDuration="0/1" interpolaterName="linr"  />
            </ZoomPanKeyframes>
           </ZoomPanBin>
          </Entry>
          <Entry key="CursorEffectBin">
           <CursorEffectBin id="401"  >
            <CursorEffectKeyframes>
             <CursorEffectKeyframe id="402" timeRangeEnd="-9999999/1" timeRangeDuration="0/1" interpolaterName=""  />
            </CursorEffectKeyframes>
           </CursorEffectBin>
          </Entry>
         </ExtraData>
        </ScreenVMFile>
        <UnifiedMedia id="403"  >
         <AudioTransition id="404" start="1175" duration="30" >
          <Parameters>
           <InterpolatingParam id="405" interp="linr"  time="0/1" value="1" leadInLength="0/1"  name="volume"/>
           <Parameter id="406"  name="captions"/>
          </Parameters>
          <Effects>
           <GenericEffect id="407" name = "AudioTransition" >
            <Parameters>
            <Parameter id="408"   name="audioEdgeModType">
             <Keyframes>
             <Keyframe id="409"  time="0/1" value="0" leadInLength="0/1"  />
             </Keyframes>
            </Parameter>
            <Parameter id="410"   name="audioTransitionType">
             <Keyframes>
             <Keyframe id="411"  time="0/1" value="" leadInLength="0/1"  />
             </Keyframes>
            </Parameter>
            </Parameters>
            <MetaData>
            </MetaData>
           </GenericEffect>
          </Effects>
          <Attributes>
           <Attribute id="412" value="" name="ident"/>
           <Attribute id="413" value="0" name="sampleRate"/>
           <Attribute id="414" value="0" name="bitDepth"/>
           <Attribute id="415" value="1" name="gain"/>
           <Attribute id="416" value="0" name="mixToMono"/>
          </Attributes>
         </AudioTransition>
         <ImageTransition id="417" start="1175" duration="30" >
          <Transformer>
           <VectorParam id="418"  name="translation">
            <InterpolatingParam id="419" interp="linr"  time="0/1" value="0" leadInLength="0/1"  />
            <InterpolatingParam id="420" interp="linr"  time="0/1" value="0" leadInLength="0/1"  />
            <InterpolatingParam id="421" interp="linr"  time="0/1" value="0" leadInLength="0/1"  />
           </VectorParam>
           <VectorParam id="422"  name="rotation">
            <InterpolatingParam id="423" interp="linr"  time="0/1" value="0" leadInLength="0/1"  />
            <InterpolatingParam id="424" interp="linr"  time="0/1" value="0" leadInLength="0/1"  />
            <InterpolatingParam id="425" interp="linr"  time="0/1" value="0" leadInLength="0/1"  />
           </VectorParam>
           <VectorParam id="426"  name="shear">
            <InterpolatingParam id="427" interp="linr"  time="0/1" value="0" leadInLength="0/1"  />
            <InterpolatingParam id="428" interp="linr"  time="0/1" value="0" leadInLength="0/1"  />
            <InterpolatingParam id="429" interp="linr"  time="0/1" value="0" leadInLength="0/1"  />
           </VectorParam>
           <VectorParam id="430"  name="scale">
            <InterpolatingParam id="431" interp="linr"  time="0/1" value="1" leadInLength="0/1"  />
            <InterpolatingParam id="432" interp="linr"  time="0/1" value="1" leadInLength="0/1"  />
            <InterpolatingParam id="433" interp="linr"  time="0/1" value="1" leadInLength="0/1"  />
           </VectorParam>
           <VectorParam id="434"  name="anchor">
            <InterpolatingParam id="435" interp="linr"  time="0/1" value="0" leadInLength="0/1"  />
            <InterpolatingParam id="436" interp="linr"  time="0/1" value="0" leadInLength="0/1"  />
            <InterpolatingParam id="437" interp="linr"  time="0/1" value="0" leadInLength="0/1"  />
           </VectorParam>
          </Transformer>
          <Parameters>
           <VectorParam id="438"  name="sourceCrop">
            <InterpolatingParam id="439" interp="linr"  time="0/1" value="0" leadInLength="0/1"  />
            <InterpolatingParam id="440" interp="linr"  time="0/1" value="0" leadInLength="0/1"  />
            <InterpolatingParam id="441" interp="linr"  time="0/1" value="0" leadInLength="0/1"  />
            <InterpolatingParam id="442" interp="linr"  time="0/1" value="0" leadInLength="0/1"  />
           </VectorParam>
           <VectorParam id="443"  name="geometryCrop">
            <InterpolatingParam id="444" interp="linr"  time="0/1" value="0" leadInLength="0/1"  />
            <InterpolatingParam id="445" interp="linr"  time="0/1" value="0" leadInLength="0/1"  />
            <InterpolatingParam id="446" interp="linr"  time="0/1" value="0" leadInLength="0/1"  />
            <InterpolatingParam id="447" interp="linr"  time="0/1" value="0" leadInLength="0/1"  />
           </VectorParam>
           <InterpolatingParam id="448" interp="linr"  time="0/1" value="1" leadInLength="0/1"  name="opacity"/>
          </Parameters>
          <Effects>
           <GenericEffect id="449" name = "VisualTransition" >
            <Parameters>
            <InterpolatingParam id="450" interp="linr"  time="0/1" value="1" leadInLength="0/1"   name="leftFramePercentage"/>
            <InterpolatingParam id="451" interp="linr"  time="0/1" value="1" leadInLength="0/1"   name="rightFramePercentage"/>
            <Parameter id="452"   name="visualEdgeModType">
             <Keyframes>
             <Keyframe id="453"  time="0/1" value="0" leadInLength="0/1"  />
             </Keyframes>
            </Parameter>
            <Parameter id="454"   name="visualTransitionType">
             <Keyframes>
             <Keyframe id="455"  time="0/1" value="Dissolve" leadInLength="0/1"  />
             </Keyframes>
            </Parameter>
            </Parameters>
            <MetaData>
            </MetaData>
           </GenericEffect>
          </Effects>
          <Attributes>
           <Attribute id="456" value="" name="ident"/>
          </Attributes>
          <ExtraData>
           <Entry key="ZoomPanBin">
            <ZoomPanBin id="457"  >
             <ZoomPanKeyframes>
             </ZoomPanKeyframes>
            </ZoomPanBin>
           </Entry>
          </ExtraData>
         </ImageTransition>
         <MetaData>
          <entry key="WinSubProjectDisplayName" val=""/>
         </MetaData>
        </UnifiedMedia>
        <ScreenVMFile id="458" start="1205" duration="407" scalar="2/3" mediaStart="45/2" mediaDuration="1221/2" trackNumber="0" src="14" >
         <Transformer>
          <VectorParam id="459"  name="translation">
           <InterpolatingParam id="460" interp="linr"  time="-9999999/1" value="0" leadInLength="0/1"  />
           <InterpolatingParam id="461" interp="linr"  time="-9999999/1" value="0" leadInLength="0/1"  />
           <InterpolatingParam id="462" interp="linr"  time="-9999999/1" value="0" leadInLength="0/1"  />
          </VectorParam>
          <VectorParam id="463"  name="rotation">
           <InterpolatingParam id="464" interp="linr"  time="-9999999/1" value="0" leadInLength="0/1"  />
           <InterpolatingParam id="465" interp="linr"  time="-9999999/1" value="0" leadInLength="0/1"  />
           <InterpolatingParam id="466" interp="linr"  time="-9999999/1" value="0" leadInLength="0/1"  />
          </VectorParam>
          <VectorParam id="467"  name="shear">
           <InterpolatingParam id="468" interp="linr"  time="-9999999/1" value="0" leadInLength="0/1"  />
           <InterpolatingParam id="469" interp="linr"  time="-9999999/1" value="0" leadInLength="0/1"  />
           <InterpolatingParam id="470" interp="linr"  time="-9999999/1" value="0" leadInLength="0/1"  />
          </VectorParam>
          <VectorParam id="471"  name="scale">
           <InterpolatingParam id="472" interp="linr"  time="-9999999/1" value="1" leadInLength="0/1"  />
           <InterpolatingParam id="473" interp="linr"  time="-9999999/1" value="1" leadInLength="0/1"  />
           <InterpolatingParam id="474" interp="linr"  time="-9999999/1" value="1" leadInLength="0/1"  />
          </VectorParam>
          <VectorParam id="475"  name="anchor">
           <InterpolatingParam id="476" interp="linr"  time="0/1" value="0" leadInLength="0/1"  />
           <InterpolatingParam id="477" interp="linr"  time="0/1" value="0" leadInLength="0/1"  />
           <InterpolatingParam id="478" interp="linr"  time="0/1" value="0" leadInLength="0/1"  />
          </VectorParam>
         </Transformer>
         <Parameters>
          <VectorParam id="479"  name="sourceCrop">
           <InterpolatingParam id="480" interp="linr"  time="0/1" value="0" leadInLength="0/1"  />
           <InterpolatingParam id="481" interp="linr"  time="0/1" value="0" leadInLength="0/1"  />
           <InterpolatingParam id="482" interp="linr"  time="0/1" value="0" leadInLength="0/1"  />
           <InterpolatingParam id="483" interp="linr"  time="0/1" value="0" leadInLength="0/1"  />
          </VectorParam>
          <VectorParam id="484"  name="geometryCrop">
           <InterpolatingParam id="485" interp="linr"  time="-9999999/1" value="0" leadInLength="0/1"  />
           <InterpolatingParam id="486" interp="linr"  time="-9999999/1" value="0" leadInLength="0/1"  />
           <InterpolatingParam id="487" interp="linr"  time="-9999999/1" value="0" leadInLength="0/1"  />
           <InterpolatingParam id="488" interp="linr"  time="-9999999/1" value="0" leadInLength="0/1"  />
          </VectorParam>
          <InterpolatingParam id="489" interp="linr"  time="-9999999/1" value="1" leadInLength="0/1"  name="opacity"/>
          <InterpolatingParam id="490" interp="linr"  time="0/1" value="1" leadInLength="0/1"  name="cursorOpacity"/>
          <InterpolatingParam id="491" interp="linr"  time="0/1" value="1" leadInLength="0/1"  name="cursorScale"/>
         </Parameters>
         <Effects>
          <GenericEffect id="492" name = "CursorBaseEffectName" >
           <Parameters>
           <InterpolatingParam id="493" interp="linr"  time="-9999999/1" value="1" leadInLength="0/1"   name="cursorSize"/>
           <InterpolatingParam id="494" interp="linr"  time="-9999999/1" value="0" leadInLength="0/1"   name="highlightBlurRadius"/>
           <InterpolatingParam id="495" interp="linr"  time="-9999999/1" value="0" leadInLength="0/1"   name="highlightColorBlue"/>
           <InterpolatingParam id="496" interp="linr"  time="-9999999/1" value="255" leadInLength="0/1"   name="highlightColorGreen"/>
           <InterpolatingParam id="497" interp="linr"  time="-9999999/1" value="255" leadInLength="0/1"   name="highlightColorRed"/>
           <InterpolatingParam id="498" interp="linr"  time="-9999999/1" value="5" leadInLength="0/1"   name="highlightFeatherSize"/>
           <InterpolatingParam id="499" interp="linr"  time="-9999999/1" value="2" leadInLength="0/1"   name="highlightMagnification"/>
           <InterpolatingParam id="500" interp="linr"  time="-9999999/1" value="1" leadInLength="0/1"   name="highlightOpacity"/>
           <InterpolatingParam id="501" interp="linr"  time="-9999999/1" value="45" leadInLength="0/1"   name="highlightSize"/>
           <Parameter id="502"   name="highlightType">
            <Keyframes>
            <Keyframe id="503"  time="-9999999/1" value="0" leadInLength="0/1"  />
            </Keyframes>
           </Parameter>
           <InterpolatingParam id="504" interp="linr"  time="-9999999/1" value="0" leadInLength="0/1"   name="leftClickColorBlue"/>
           <InterpolatingParam id="505" interp="linr"  time="-9999999/1" value="0" leadInLength="0/1"   name="leftClickColorGreen"/>
           <InterpolatingParam id="506" interp="linr"  time="-9999999/1" value="255" leadInLength="0/1"   name="leftClickColorRed"/>
           <InterpolatingParam id="507" interp="linr"  time="-9999999/1" value="0.80000000000000004" leadInLength="0/1"   name="leftClickDuration"/>
           <InterpolatingParam id="508" interp="linr"  time="-9999999/1" value="20" leadInLength="0/1"   name="leftClickSize"/>
           <Parameter id="509"   name="leftClickSoundFilename">
            <Keyframes>
            <Keyframe id="510"  time="-9999999/1" value="" leadInLength="0/1"  />
            </Keyframes>
           </Parameter>
           <InterpolatingParam id="511" interp="linr"  time="-9999999/1" value="1" leadInLength="0/1"   name="leftClickSoundVolume"/>
           <Parameter id="512"   name="leftClickType">
            <Keyframes>
            <Keyframe id="513"  time="-9999999/1" value="0" leadInLength="0/1"  />
            </Keyframes>
           </Parameter>
           <InterpolatingParam id="514" interp="linr"  time="-9999999/1" value="1" leadInLength="0/1"   name="opacity"/>
           <InterpolatingParam id="515" interp="linr"  time="-9999999/1" value="255" leadInLength="0/1"   name="rightClickColorBlue"/>
           <InterpolatingParam id="516" interp="linr"  time="-9999999/1" value="0" leadInLength="0/1"   name="rightClickColorGreen"/>
           <InterpolatingParam id="517" interp="linr"  time="-9999999/1" value="0" leadInLength="0/1"   name="rightClickColorRed"/>
           <InterpolatingParam id="518" interp="linr"  time="-9999999/1" value="0.80000000000000004" leadInLength="0/1"   name="rightClickDuration"/>
           <InterpolatingParam id="519" interp="linr"  time="-9999999/1" value="20" leadInLength="0/1"   name="rightClickSize"/>
           <Parameter id="520"   name="rightClickSoundFilename">
            <Keyframes>
            <Keyframe id="521"  time="-9999999/1" value="" leadInLength="0/1"  />
            </Keyframes>
           </Parameter>
           <InterpolatingParam id="522" interp="linr"  time="-9999999/1" value="1" leadInLength="0/1"   name="rightClickSoundVolume"/>
           <Parameter id="523"   name="rightClickType">
            <Keyframes>
            <Keyframe id="524"  time="-9999999/1" value="0" leadInLength="0/1"  />
            </Keyframes>
           </Parameter>
           </Parameters>
          </GenericEffect>
         </Effects>
         <Attributes>
          <Attribute id="525" value="" name="ident"/>
         </Attributes>
         <MetaData>
          <entry key="AutoAppliedSmartFocus" val="False"/>
          <entry key="WinSubProjectDisplayName" val=""/>
         </MetaData>
         <ExtraData>
          <Entry key="ZoomPanBin">
           <ZoomPanBin id="526"  >
            <ZoomPanKeyframes>
             <ZoomPanKeyframe id="527" timeRangeEnd="-9999999/1" timeRangeDuration="0/1" interpolaterName="linr"  />
            </ZoomPanKeyframes>
           </ZoomPanBin>
          </Entry>
          <Entry key="CursorEffectBin">
           <CursorEffectBin id="528"  >
            <CursorEffectKeyframes>
             <CursorEffectKeyframe id="529" timeRangeEnd="-9999999/1" timeRangeDuration="0/1" interpolaterName=""  />
            </CursorEffectKeyframes>
           </CursorEffectBin>
          </Entry>
         </ExtraData>
        </ScreenVMFile>
        <ScreenVMFile id="530" start="1612" duration="707" scalar="1/1" mediaStart="0/1" mediaDuration="707/1" trackNumber="0" src="13" >
         <Transformer>
          <VectorParam id="531"  name="translation">
           <InterpolatingParam id="532" interp="linr"  time="-9999999/1" value="0" leadInLength="0/1"  />
           <InterpolatingParam id="533" interp="linr"  time="-9999999/1" value="0" leadInLength="0/1"  />
           <InterpolatingParam id="534" interp="linr"  time="-9999999/1" value="0" leadInLength="0/1"  />
          </VectorParam>
          <VectorParam id="535"  name="rotation">
           <InterpolatingParam id="536" interp="linr"  time="-9999999/1" value="0" leadInLength="0/1"  />
           <InterpolatingParam id="537" interp="linr"  time="-9999999/1" value="0" leadInLength="0/1"  />
           <InterpolatingParam id="538" interp="linr"  time="-9999999/1" value="0" leadInLength="0/1"  />
          </VectorParam>
          <VectorParam id="539"  name="shear">
           <InterpolatingParam id="540" interp="linr"  time="-9999999/1" value="0" leadInLength="0/1"  />
           <InterpolatingParam id="541" interp="linr"  time="-9999999/1" value="0" leadInLength="0/1"  />
           <InterpolatingParam id="542" interp="linr"  time="-9999999/1" value="0" leadInLength="0/1"  />
          </VectorParam>
          <VectorParam id="543"  name="scale">
           <InterpolatingParam id="544" interp="linr"  time="-9999999/1" value="1" leadInLength="0/1"  />
           <InterpolatingParam id="545" interp="linr"  time="-9999999/1" value="1" leadInLength="0/1"  />
           <InterpolatingParam id="546" interp="linr"  time="-9999999/1" value="1" leadInLength="0/1"  />
          </VectorParam>
          <VectorParam id="547"  name="anchor">
           <InterpolatingParam id="548" interp="linr"  time="0/1" value="0" leadInLength="0/1"  />
           <InterpolatingParam id="549" interp="linr"  time="0/1" value="0" leadInLength="0/1"  />
           <InterpolatingParam id="550" interp="linr"  time="0/1" value="0" leadInLength="0/1"  />
          </VectorParam>
         </Transformer>
         <Parameters>
          <VectorParam id="551"  name="sourceCrop">
           <InterpolatingParam id="552" interp="linr"  time="0/1" value="0" leadInLength="0/1"  />
           <InterpolatingParam id="553" interp="linr"  time="0/1" value="0" leadInLength="0/1"  />
           <InterpolatingParam id="554" interp="linr"  time="0/1" value="0" leadInLength="0/1"  />
           <InterpolatingParam id="555" interp="linr"  time="0/1" value="0" leadInLength="0/1"  />
          </VectorParam>
          <VectorParam id="556"  name="geometryCrop">
           <InterpolatingParam id="557" interp="linr"  time="-9999999/1" value="0" leadInLength="0/1"  />
           <InterpolatingParam id="558" interp="linr"  time="-9999999/1" value="0" leadInLength="0/1"  />
           <InterpolatingParam id="559" interp="linr"  time="-9999999/1" value="0" leadInLength="0/1"  />
           <InterpolatingParam id="560" interp="linr"  time="-9999999/1" value="0" leadInLength="0/1"  />
          </VectorParam>
          <InterpolatingParam id="561" interp="linr"  time="-9999999/1" value="1" leadInLength="0/1"  name="opacity"/>
          <InterpolatingParam id="562" interp="linr"  time="0/1" value="1" leadInLength="0/1"  name="cursorOpacity"/>
          <InterpolatingParam id="563" interp="linr"  time="0/1" value="1" leadInLength="0/1"  name="cursorScale"/>
         </Parameters>
         <Effects>
          <GenericEffect id="564" name = "CursorBaseEffectName" >
           <Parameters>
           <InterpolatingParam id="565" interp="linr"  time="-9999999/1" value="1" leadInLength="0/1"   name="cursorSize"/>
           <InterpolatingParam id="566" interp="linr"  time="-9999999/1" value="0" leadInLength="0/1"   name="highlightBlurRadius"/>
           <InterpolatingParam id="567" interp="linr"  time="-9999999/1" value="0" leadInLength="0/1"   name="highlightColorBlue"/>
           <InterpolatingParam id="568" interp="linr"  time="-9999999/1" value="255" leadInLength="0/1"   name="highlightColorGreen"/>
           <InterpolatingParam id="569" interp="linr"  time="-9999999/1" value="255" leadInLength="0/1"   name="highlightColorRed"/>
           <InterpolatingParam id="570" interp="linr"  time="-9999999/1" value="5" leadInLength="0/1"   name="highlightFeatherSize"/>
           <InterpolatingParam id="571" interp="linr"  time="-9999999/1" value="2" leadInLength="0/1"   name="highlightMagnification"/>
           <InterpolatingParam id="572" interp="linr"  time="-9999999/1" value="1" leadInLength="0/1"   name="highlightOpacity"/>
           <InterpolatingParam id="573" interp="linr"  time="-9999999/1" value="45" leadInLength="0/1"   name="highlightSize"/>
           <Parameter id="574"   name="highlightType">
            <Keyframes>
            <Keyframe id="575"  time="-9999999/1" value="0" leadInLength="0/1"  />
            </Keyframes>
           </Parameter>
           <InterpolatingParam id="576" interp="linr"  time="-9999999/1" value="0" leadInLength="0/1"   name="leftClickColorBlue"/>
           <InterpolatingParam id="577" interp="linr"  time="-9999999/1" value="0" leadInLength="0/1"   name="leftClickColorGreen"/>
           <InterpolatingParam id="578" interp="linr"  time="-9999999/1" value="255" leadInLength="0/1"   name="leftClickColorRed"/>
           <InterpolatingParam id="579" interp="linr"  time="-9999999/1" value="0.80000000000000004" leadInLength="0/1"   name="leftClickDuration"/>
           <InterpolatingParam id="580" interp="linr"  time="-9999999/1" value="20" leadInLength="0/1"   name="leftClickSize"/>
           <Parameter id="581"   name="leftClickSoundFilename">
            <Keyframes>
            <Keyframe id="582"  time="-9999999/1" value="" leadInLength="0/1"  />
            </Keyframes>
           </Parameter>
           <InterpolatingParam id="583" interp="linr"  time="-9999999/1" value="1" leadInLength="0/1"   name="leftClickSoundVolume"/>
           <Parameter id="584"   name="leftClickType">
            <Keyframes>
            <Keyframe id="585"  time="-9999999/1" value="0" leadInLength="0/1"  />
            </Keyframes>
           </Parameter>
           <InterpolatingParam id="586" interp="linr"  time="-9999999/1" value="1" leadInLength="0/1"   name="opacity"/>
           <InterpolatingParam id="587" interp="linr"  time="-9999999/1" value="255" leadInLength="0/1"   name="rightClickColorBlue"/>
           <InterpolatingParam id="588" interp="linr"  time="-9999999/1" value="0" leadInLength="0/1"   name="rightClickColorGreen"/>
           <InterpolatingParam id="589" interp="linr"  time="-9999999/1" value="0" leadInLength="0/1"   name="rightClickColorRed"/>
           <InterpolatingParam id="590" interp="linr"  time="-9999999/1" value="0.80000000000000004" leadInLength="0/1"   name="rightClickDuration"/>
           <InterpolatingParam id="591" interp="linr"  time="-9999999/1" value="20" leadInLength="0/1"   name="rightClickSize"/>
           <Parameter id="592"   name="rightClickSoundFilename">
            <Keyframes>
            <Keyframe id="593"  time="-9999999/1" value="" leadInLength="0/1"  />
            </Keyframes>
           </Parameter>
           <InterpolatingParam id="594" interp="linr"  time="-9999999/1" value="1" leadInLength="0/1"   name="rightClickSoundVolume"/>
           <Parameter id="595"   name="rightClickType">
            <Keyframes>
            <Keyframe id="596"  time="-9999999/1" value="0" leadInLength="0/1"  />
            </Keyframes>
           </Parameter>
           </Parameters>
          </GenericEffect>
         </Effects>
         <Attributes>
          <Attribute id="597" value="" name="ident"/>
         </Attributes>
         <MetaData>
          <entry key="AutoAppliedSmartFocus" val="False"/>
          <entry key="WinSubProjectDisplayName" val=""/>
         </MetaData>
         <ExtraData>
          <Entry key="ZoomPanBin">
           <ZoomPanBin id="598"  >
            <ZoomPanKeyframes>
             <ZoomPanKeyframe id="599" timeRangeEnd="-9999999/1" timeRangeDuration="0/1" interpolaterName="linr"  />
            </ZoomPanKeyframes>
           </ZoomPanBin>
          </Entry>
          <Entry key="CursorEffectBin">
           <CursorEffectBin id="600"  >
            <CursorEffectKeyframes>
             <CursorEffectKeyframe id="601" timeRangeEnd="-9999999/1" timeRangeDuration="0/1" interpolaterName=""  />
            </CursorEffectKeyframes>
           </CursorEffectBin>
          </Entry>
         </ExtraData>
        </ScreenVMFile>
        <UnifiedMedia id="602"  >
         <AudioTransition id="603" start="2319" duration="30" >
          <Parameters>
           <InterpolatingParam id="604" interp="linr"  time="0/1" value="1" leadInLength="0/1"  name="volume"/>
           <Parameter id="605"  name="captions"/>
          </Parameters>
          <Effects>
           <GenericEffect id="606" name = "AudioTransition" >
            <Parameters>
            <Parameter id="607"   name="audioEdgeModType">
             <Keyframes>
             <Keyframe id="608"  time="0/1" value="0" leadInLength="0/1"  />
             </Keyframes>
            </Parameter>
            <Parameter id="609"   name="audioTransitionType">
             <Keyframes>
             <Keyframe id="610"  time="0/1" value="" leadInLength="0/1"  />
             </Keyframes>
            </Parameter>
            </Parameters>
            <MetaData>
            </MetaData>
           </GenericEffect>
          </Effects>
          <Attributes>
           <Attribute id="611" value="" name="ident"/>
           <Attribute id="612" value="0" name="sampleRate"/>
           <Attribute id="613" value="0" name="bitDepth"/>
           <Attribute id="614" value="1" name="gain"/>
           <Attribute id="615" value="0" name="mixToMono"/>
          </Attributes>
         </AudioTransition>
         <ImageTransition id="616" start="2319" duration="30" >
          <Transformer>
           <VectorParam id="617"  name="translation">
            <InterpolatingParam id="618" interp="linr"  time="0/1" value="0" leadInLength="0/1"  />
            <InterpolatingParam id="619" interp="linr"  time="0/1" value="0" leadInLength="0/1"  />
            <InterpolatingParam id="620" interp="linr"  time="0/1" value="0" leadInLength="0/1"  />
           </VectorParam>
           <VectorParam id="621"  name="rotation">
            <InterpolatingParam id="622" interp="linr"  time="0/1" value="0" leadInLength="0/1"  />
            <InterpolatingParam id="623" interp="linr"  time="0/1" value="0" leadInLength="0/1"  />
            <InterpolatingParam id="624" interp="linr"  time="0/1" value="0" leadInLength="0/1"  />
           </VectorParam>
           <VectorParam id="625"  name="shear">
            <InterpolatingParam id="626" interp="linr"  time="0/1" value="0" leadInLength="0/1"  />
            <InterpolatingParam id="627" interp="linr"  time="0/1" value="0" leadInLength="0/1"  />
            <InterpolatingParam id="628" interp="linr"  time="0/1" value="0" leadInLength="0/1"  />
           </VectorParam>
           <VectorParam id="629"  name="scale">
            <InterpolatingParam id="630" interp="linr"  time="0/1" value="1" leadInLength="0/1"  />
            <InterpolatingParam id="631" interp="linr"  time="0/1" value="1" leadInLength="0/1"  />
            <InterpolatingParam id="632" interp="linr"  time="0/1" value="1" leadInLength="0/1"  />
           </VectorParam>
           <VectorParam id="633"  name="anchor">
            <InterpolatingParam id="634" interp="linr"  time="0/1" value="0" leadInLength="0/1"  />
            <InterpolatingParam id="635" interp="linr"  time="0/1" value="0" leadInLength="0/1"  />
            <InterpolatingParam id="636" interp="linr"  time="0/1" value="0" leadInLength="0/1"  />
           </VectorParam>
          </Transformer>
          <Parameters>
           <VectorParam id="637"  name="sourceCrop">
            <InterpolatingParam id="638" interp="linr"  time="0/1" value="0" leadInLength="0/1"  />
            <InterpolatingParam id="639" interp="linr"  time="0/1" value="0" leadInLength="0/1"  />
            <InterpolatingParam id="640" interp="linr"  time="0/1" value="0" leadInLength="0/1"  />
            <InterpolatingParam id="641" interp="linr"  time="0/1" value="0" leadInLength="0/1"  />
           </VectorParam>
           <VectorParam id="642"  name="geometryCrop">
            <InterpolatingParam id="643" interp="linr"  time="0/1" value="0" leadInLength="0/1"  />
            <InterpolatingParam id="644" interp="linr"  time="0/1" value="0" leadInLength="0/1"  />
            <InterpolatingParam id="645" interp="linr"  time="0/1" value="0" leadInLength="0/1"  />
            <InterpolatingParam id="646" interp="linr"  time="0/1" value="0" leadInLength="0/1"  />
           </VectorParam>
           <InterpolatingParam id="647" interp="linr"  time="0/1" value="1" leadInLength="0/1"  name="opacity"/>
          </Parameters>
          <Effects>
           <GenericEffect id="648" name = "VisualTransition" >
            <Parameters>
            <InterpolatingParam id="649" interp="linr"  time="0/1" value="1" leadInLength="0/1"   name="leftFramePercentage"/>
            <InterpolatingParam id="650" interp="linr"  time="0/1" value="1" leadInLength="0/1"   name="rightFramePercentage"/>
            <Parameter id="651"   name="visualEdgeModType">
             <Keyframes>
             <Keyframe id="652"  time="0/1" value="0" leadInLength="0/1"  />
             </Keyframes>
            </Parameter>
            <Parameter id="653"   name="visualTransitionType">
             <Keyframes>
             <Keyframe id="654"  time="0/1" value="Dissolve" leadInLength="0/1"  />
             </Keyframes>
            </Parameter>
            </Parameters>
            <MetaData>
            </MetaData>
           </GenericEffect>
          </Effects>
          <Attributes>
           <Attribute id="655" value="" name="ident"/>
          </Attributes>
          <ExtraData>
           <Entry key="ZoomPanBin">
            <ZoomPanBin id="656"  >
             <ZoomPanKeyframes>
             </ZoomPanKeyframes>
            </ZoomPanBin>
           </Entry>
          </ExtraData>
         </ImageTransition>
         <MetaData>
          <entry key="WinSubProjectDisplayName" val=""/>
         </MetaData>
        </UnifiedMedia>
        <StitchedMedia id="657" start="2349" duration="726" scalar="1/1" mediaStart="15/1" mediaDuration="726/1" minMediaStart="0/1" >
         <Transformer>
          <VectorParam id="658"  name="translation">
           <InterpolatingParam id="659" interp="linr"  time="-9999999/1" value="0" leadInLength="0/1"  />
           <InterpolatingParam id="660" interp="linr"  time="-9999999/1" value="0" leadInLength="0/1"  />
           <InterpolatingParam id="661" interp="linr"  time="-9999999/1" value="0" leadInLength="0/1"  />
          </VectorParam>
          <VectorParam id="662"  name="rotation">
           <InterpolatingParam id="663" interp="linr"  time="-9999999/1" value="0" leadInLength="0/1"  />
           <InterpolatingParam id="664" interp="linr"  time="-9999999/1" value="0" leadInLength="0/1"  />
           <InterpolatingParam id="665" interp="linr"  time="-9999999/1" value="0" leadInLength="0/1"  />
          </VectorParam>
          <VectorParam id="666"  name="shear">
           <InterpolatingParam id="667" interp="linr"  time="-9999999/1" value="0" leadInLength="0/1"  />
           <InterpolatingParam id="668" interp="linr"  time="-9999999/1" value="0" leadInLength="0/1"  />
           <InterpolatingParam id="669" interp="linr"  time="-9999999/1" value="0" leadInLength="0/1"  />
          </VectorParam>
          <VectorParam id="670"  name="scale">
           <InterpolatingParam id="671" interp="linr"  time="-9999999/1" value="1" leadInLength="0/1"  />
           <InterpolatingParam id="672" interp="linr"  time="-9999999/1" value="1" leadInLength="0/1"  />
           <InterpolatingParam id="673" interp="linr"  time="-9999999/1" value="1" leadInLength="0/1"  />
          </VectorParam>
          <VectorParam id="674"  name="anchor">
           <InterpolatingParam id="675" interp="linr"  >
            <Keyframes>
            <Keyframe id="676"  time="0/1" value="0" leadInLength="0/1"  />
            <Keyframe id="677"  time="391/1" value="0" leadInLength="0/1"  />
            </Keyframes>
           </InterpolatingParam>
           <InterpolatingParam id="678" interp="linr"  >
            <Keyframes>
            <Keyframe id="679"  time="0/1" value="0" leadInLength="0/1"  />
            <Keyframe id="680"  time="391/1" value="0" leadInLength="0/1"  />
            </Keyframes>
           </InterpolatingParam>
           <InterpolatingParam id="681" interp="linr"  >
            <Keyframes>
            <Keyframe id="682"  time="0/1" value="0" leadInLength="0/1"  />
            <Keyframe id="683"  time="391/1" value="0" leadInLength="0/1"  />
            </Keyframes>
           </InterpolatingParam>
          </VectorParam>
         </Transformer>
         <Parameters>
          <VectorParam id="684"  name="sourceCrop">
           <InterpolatingParam id="685" interp="linr"  >
            <Keyframes>
            <Keyframe id="686"  time="0/1" value="0" leadInLength="0/1"  />
            <Keyframe id="687"  time="391/1" value="0" leadInLength="0/1"  />
            </Keyframes>
           </InterpolatingParam>
           <InterpolatingParam id="688" interp="linr"  >
            <Keyframes>
            <Keyframe id="689"  time="0/1" value="0" leadInLength="0/1"  />
            <Keyframe id="690"  time="391/1" value="0" leadInLength="0/1"  />
            </Keyframes>
           </InterpolatingParam>
           <InterpolatingParam id="691" interp="linr"  >
            <Keyframes>
            <Keyframe id="692"  time="0/1" value="0" leadInLength="0/1"  />
            <Keyframe id="693"  time="391/1" value="0" leadInLength="0/1"  />
            </Keyframes>
           </InterpolatingParam>
           <InterpolatingParam id="694" interp="linr"  >
            <Keyframes>
            <Keyframe id="695"  time="0/1" value="0" leadInLength="0/1"  />
            <Keyframe id="696"  time="391/1" value="0" leadInLength="0/1"  />
            </Keyframes>
           </InterpolatingParam>
          </VectorParam>
          <VectorParam id="697"  name="geometryCrop">
           <InterpolatingParam id="698" interp="linr"  time="-9999999/1" value="0" leadInLength="0/1"  />
           <InterpolatingParam id="699" interp="linr"  time="-9999999/1" value="0" leadInLength="0/1"  />
           <InterpolatingParam id="700" interp="linr"  time="-9999999/1" value="0" leadInLength="0/1"  />
           <InterpolatingParam id="701" interp="linr"  time="-9999999/1" value="0" leadInLength="0/1"  />
          </VectorParam>
          <InterpolatingParam id="702" interp="linr"  time="-9999999/1" value="1" leadInLength="0/1"  name="opacity"/>
          <InterpolatingParam id="703" interp="linr"  time="0/1" value="1" leadInLength="0/1"  name="cursorOpacity"/>
          <InterpolatingParam id="704" interp="linr"  time="0/1" value="1" leadInLength="0/1"  name="cursorScale"/>
          <Parameter id="705"  name="captions"/>
         </Parameters>
         <Effects>
          <GenericEffect id="706" name = "CursorBaseEffectName" >
           <Parameters>
           <InterpolatingParam id="707" interp="linr"  time="-9999999/1" value="1" leadInLength="0/1"   name="cursorSize"/>
           <InterpolatingParam id="708" interp="linr"  time="-9999999/1" value="0" leadInLength="0/1"   name="highlightBlurRadius"/>
           <InterpolatingParam id="709" interp="linr"  time="-9999999/1" value="0" leadInLength="0/1"   name="highlightColorBlue"/>
           <InterpolatingParam id="710" interp="linr"  time="-9999999/1" value="255" leadInLength="0/1"   name="highlightColorGreen"/>
           <InterpolatingParam id="711" interp="linr"  time="-9999999/1" value="255" leadInLength="0/1"   name="highlightColorRed"/>
           <InterpolatingParam id="712" interp="linr"  time="-9999999/1" value="5" leadInLength="0/1"   name="highlightFeatherSize"/>
           <InterpolatingParam id="713" interp="linr"  time="-9999999/1" value="2" leadInLength="0/1"   name="highlightMagnification"/>
           <InterpolatingParam id="714" interp="linr"  time="-9999999/1" value="1" leadInLength="0/1"   name="highlightOpacity"/>
           <InterpolatingParam id="715" interp="linr"  time="-9999999/1" value="45" leadInLength="0/1"   name="highlightSize"/>
           <Parameter id="716"   name="highlightType">
            <Keyframes>
            <Keyframe id="717"  time="-9999999/1" value="0" leadInLength="0/1"  />
            </Keyframes>
           </Parameter>
           <InterpolatingParam id="718" interp="linr"  time="-9999999/1" value="0" leadInLength="0/1"   name="leftClickColorBlue"/>
           <InterpolatingParam id="719" interp="linr"  time="-9999999/1" value="0" leadInLength="0/1"   name="leftClickColorGreen"/>
           <InterpolatingParam id="720" interp="linr"  time="-9999999/1" value="255" leadInLength="0/1"   name="leftClickColorRed"/>
           <InterpolatingParam id="721" interp="linr"  time="-9999999/1" value="0.80000000000000004" leadInLength="0/1"   name="leftClickDuration"/>
           <InterpolatingParam id="722" interp="linr"  time="-9999999/1" value="20" leadInLength="0/1"   name="leftClickSize"/>
           <Parameter id="723"   name="leftClickSoundFilename">
            <Keyframes>
            <Keyframe id="724"  time="-9999999/1" value="" leadInLength="0/1"  />
            </Keyframes>
           </Parameter>
           <InterpolatingParam id="725" interp="linr"  time="-9999999/1" value="1" leadInLength="0/1"   name="leftClickSoundVolume"/>
           <Parameter id="726"   name="leftClickType">
            <Keyframes>
            <Keyframe id="727"  time="-9999999/1" value="0" leadInLength="0/1"  />
            </Keyframes>
           </Parameter>
           <InterpolatingParam id="728" interp="linr"  time="-9999999/1" value="1" leadInLength="0/1"   name="opacity"/>
           <InterpolatingParam id="729" interp="linr"  time="-9999999/1" value="255" leadInLength="0/1"   name="rightClickColorBlue"/>
           <InterpolatingParam id="730" interp="linr"  time="-9999999/1" value="0" leadInLength="0/1"   name="rightClickColorGreen"/>
           <InterpolatingParam id="731" interp="linr"  time="-9999999/1" value="0" leadInLength="0/1"   name="rightClickColorRed"/>
           <InterpolatingParam id="732" interp="linr"  time="-9999999/1" value="0.80000000000000004" leadInLength="0/1"   name="rightClickDuration"/>
           <InterpolatingParam id="733" interp="linr"  time="-9999999/1" value="20" leadInLength="0/1"   name="rightClickSize"/>
           <Parameter id="734"   name="rightClickSoundFilename">
            <Keyframes>
            <Keyframe id="735"  time="-9999999/1" value="" leadInLength="0/1"  />
            </Keyframes>
           </Parameter>
           <InterpolatingParam id="736" interp="linr"  time="-9999999/1" value="1" leadInLength="0/1"   name="rightClickSoundVolume"/>
           <Parameter id="737"   name="rightClickType">
            <Keyframes>
            <Keyframe id="738"  time="-9999999/1" value="0" leadInLength="0/1"  />
            </Keyframes>
           </Parameter>
           </Parameters>
          </GenericEffect>
         </Effects>
         <Attributes>
          <Attribute id="739" value="" name="ident"/>
         </Attributes>
         <MetaData>
          <entry key="AutoAppliedSmartFocus" val="False"/>
          <entry key="WinSubProjectDisplayName" val=""/>
         </MetaData>
         <ExtraData>
          <Entry key="ZoomPanBin">
           <ZoomPanBin id="740"  >
            <ZoomPanKeyframes>
             <ZoomPanKeyframe id="741" timeRangeEnd="-9999999/1" timeRangeDuration="0/1" interpolaterName="linr"  />
            </ZoomPanKeyframes>
           </ZoomPanBin>
          </Entry>
          <Entry key="CursorEffectBin">
           <CursorEffectBin id="742"  >
            <CursorEffectKeyframes>
             <CursorEffectKeyframe id="743" timeRangeEnd="-9999999/1" timeRangeDuration="0/1" interpolaterName=""  />
            </CursorEffectKeyframes>
           </CursorEffectBin>
          </Entry>
         </ExtraData>
         <GenericTrack id="744"  >
          <Attributes>
           <Attribute id="745" value="" name="ident"/>
           <Attribute id="746" value="0" name="audioMuted"/>
           <Attribute id="747" value="0" name="videoHidden"/>
          </Attributes>
          <MetaData>
           <entry key="IsLocked" val="False"/>
           <entry key="WinTrackHeight" val="0"/>
          </MetaData>
          <Medias>
           <ScreenVMFile id="748" start="0" duration="391" scalar="1/1" mediaStart="0/1" mediaDuration="391/1" trackNumber="0" src="11" >
            <Transformer>
             <VectorParam id="749"  name="translation">
              <InterpolatingParam id="750" interp="linr"  time="-9999999/1" value="0" leadInLength="0/1"  />
              <InterpolatingParam id="751" interp="linr"  time="-9999999/1" value="0" leadInLength="0/1"  />
              <InterpolatingParam id="752" interp="linr"  time="-9999999/1" value="0" leadInLength="0/1"  />
             </VectorParam>
             <VectorParam id="753"  name="rotation">
              <InterpolatingParam id="754" interp="linr"  time="-9999999/1" value="0" leadInLength="0/1"  />
              <InterpolatingParam id="755" interp="linr"  time="-9999999/1" value="0" leadInLength="0/1"  />
              <InterpolatingParam id="756" interp="linr"  time="-9999999/1" value="0" leadInLength="0/1"  />
             </VectorParam>
             <VectorParam id="757"  name="shear">
              <InterpolatingParam id="758" interp="linr"  time="-9999999/1" value="0" leadInLength="0/1"  />
              <InterpolatingParam id="759" interp="linr"  time="-9999999/1" value="0" leadInLength="0/1"  />
              <InterpolatingParam id="760" interp="linr"  time="-9999999/1" value="0" leadInLength="0/1"  />
             </VectorParam>
             <VectorParam id="761"  name="scale">
              <InterpolatingParam id="762" interp="linr"  time="-9999999/1" value="1" leadInLength="0/1"  />
              <InterpolatingParam id="763" interp="linr"  time="-9999999/1" value="1" leadInLength="0/1"  />
              <InterpolatingParam id="764" interp="linr"  time="-9999999/1" value="1" leadInLength="0/1"  />
             </VectorParam>
             <VectorParam id="765"  name="anchor">
              <InterpolatingParam id="766" interp="linr"  time="0/1" value="0" leadInLength="0/1"  />
              <InterpolatingParam id="767" interp="linr"  time="0/1" value="0" leadInLength="0/1"  />
              <InterpolatingParam id="768" interp="linr"  time="0/1" value="0" leadInLength="0/1"  />
             </VectorParam>
            </Transformer>
            <Parameters>
             <VectorParam id="769"  name="sourceCrop">
              <InterpolatingParam id="770" interp="linr"  time="0/1" value="0" leadInLength="0/1"  />
              <InterpolatingParam id="771" interp="linr"  time="0/1" value="0" leadInLength="0/1"  />
              <InterpolatingParam id="772" interp="linr"  time="0/1" value="0" leadInLength="0/1"  />
              <InterpolatingParam id="773" interp="linr"  time="0/1" value="0" leadInLength="0/1"  />
             </VectorParam>
             <VectorParam id="774"  name="geometryCrop">
              <InterpolatingParam id="775" interp="linr"  time="-9999999/1" value="0" leadInLength="0/1"  />
              <InterpolatingParam id="776" interp="linr"  time="-9999999/1" value="0" leadInLength="0/1"  />
              <InterpolatingParam id="777" interp="linr"  time="-9999999/1" value="0" leadInLength="0/1"  />
              <InterpolatingParam id="778" interp="linr"  time="-9999999/1" value="0" leadInLength="0/1"  />
             </VectorParam>
             <InterpolatingParam id="779" interp="linr"  time="-9999999/1" value="1" leadInLength="0/1"  name="opacity"/>
             <InterpolatingParam id="780" interp="linr"  time="0/1" value="0" leadInLength="0/1"  name="cursorOpacity"/>
             <InterpolatingParam id="781" interp="linr"  time="0/1" value="0" leadInLength="0/1"  name="cursorScale"/>
            </Parameters>
            <Attributes>
             <Attribute id="782" value="" name="ident"/>
            </Attributes>
            <MetaData>
             <entry key="AutoAppliedSmartFocus" val="False"/>
             <entry key="WinSubProjectDisplayName" val=""/>
            </MetaData>
            <ExtraData>
             <Entry key="ZoomPanBin">
              <ZoomPanBin id="783"  >
               <ZoomPanKeyframes>
                <ZoomPanKeyframe id="784" timeRangeEnd="-9999999/1" timeRangeDuration="0/1" interpolaterName="linr"  />
               </ZoomPanKeyframes>
              </ZoomPanBin>
             </Entry>
             <Entry key="CursorEffectBin">
              <CursorEffectBin id="785"  >
               <CursorEffectKeyframes>
               </CursorEffectKeyframes>
              </CursorEffectBin>
             </Entry>
            </ExtraData>
           </ScreenVMFile>
           <ScreenIMFile id="786" start="391" duration="600" scalar="1/1" mediaStart="391/1" mediaDuration="1/1" trackNumber="0" src="11" trimStartSum="0/1" >
            <Transformer>
             <VectorParam id="787"  name="translation">
              <InterpolatingParam id="788" interp="linr"  time="-9999999/1" value="0" leadInLength="0/1"  />
              <InterpolatingParam id="789" interp="linr"  time="-9999999/1" value="0" leadInLength="0/1"  />
              <InterpolatingParam id="790" interp="linr"  time="-9999999/1" value="0" leadInLength="0/1"  />
             </VectorParam>
             <VectorParam id="791"  name="rotation">
              <InterpolatingParam id="792" interp="linr"  time="-9999999/1" value="0" leadInLength="0/1"  />
              <InterpolatingParam id="793" interp="linr"  time="-9999999/1" value="0" leadInLength="0/1"  />
              <InterpolatingParam id="794" interp="linr"  time="-9999999/1" value="0" leadInLength="0/1"  />
             </VectorParam>
             <VectorParam id="795"  name="shear">
              <InterpolatingParam id="796" interp="linr"  time="-9999999/1" value="0" leadInLength="0/1"  />
              <InterpolatingParam id="797" interp="linr"  time="-9999999/1" value="0" leadInLength="0/1"  />
              <InterpolatingParam id="798" interp="linr"  time="-9999999/1" value="0" leadInLength="0/1"  />
             </VectorParam>
             <VectorParam id="799"  name="scale">
              <InterpolatingParam id="800" interp="linr"  time="-9999999/1" value="1" leadInLength="0/1"  />
              <InterpolatingParam id="801" interp="linr"  time="-9999999/1" value="1" leadInLength="0/1"  />
              <InterpolatingParam id="802" interp="linr"  time="-9999999/1" value="1" leadInLength="0/1"  />
             </VectorParam>
             <VectorParam id="803"  name="anchor">
              <InterpolatingParam id="804" interp="linr"  time="0/1" value="0" leadInLength="0/1"  />
              <InterpolatingParam id="805" interp="linr"  time="0/1" value="0" leadInLength="0/1"  />
              <InterpolatingParam id="806" interp="linr"  time="0/1" value="0" leadInLength="0/1"  />
             </VectorParam>
            </Transformer>
            <Parameters>
             <VectorParam id="807"  name="sourceCrop">
              <InterpolatingParam id="808" interp="linr"  time="0/1" value="0" leadInLength="0/1"  />
              <InterpolatingParam id="809" interp="linr"  time="0/1" value="0" leadInLength="0/1"  />
              <InterpolatingParam id="810" interp="linr"  time="0/1" value="0" leadInLength="0/1"  />
              <InterpolatingParam id="811" interp="linr"  time="0/1" value="0" leadInLength="0/1"  />
             </VectorParam>
             <VectorParam id="812"  name="geometryCrop">
              <InterpolatingParam id="813" interp="linr"  time="-9999999/1" value="0" leadInLength="0/1"  />
              <InterpolatingParam id="814" interp="linr"  time="-9999999/1" value="0" leadInLength="0/1"  />
              <InterpolatingParam id="815" interp="linr"  time="-9999999/1" value="0" leadInLength="0/1"  />
              <InterpolatingParam id="816" interp="linr"  time="-9999999/1" value="0" leadInLength="0/1"  />
             </VectorParam>
             <InterpolatingParam id="817" interp="linr"  time="-9999999/1" value="1" leadInLength="0/1"  name="opacity"/>
             <InterpolatingParam id="818" interp="linr"  time="0/1" value="0" leadInLength="0/1"  name="cursorOpacity"/>
             <InterpolatingParam id="819" interp="linr"  time="0/1" value="1" leadInLength="0/1"  name="recordedCursorOpacity"/>
             <InterpolatingParam id="820" interp="linr"  time="0/1" value="0" leadInLength="0/1"  name="cursorScale"/>
            </Parameters>
            <Attributes>
             <Attribute id="821" value="" name="ident"/>
            </Attributes>
            <MetaData>
             <entry key="AutoAppliedSmartFocus" val="False"/>
             <entry key="WinSubProjectDisplayName" val=""/>
            </MetaData>
            <ExtraData>
             <Entry key="ZoomPanBin">
              <ZoomPanBin id="822"  >
               <ZoomPanKeyframes>
                <ZoomPanKeyframe id="823" timeRangeEnd="-9999999/1" timeRangeDuration="0/1" interpolaterName="linr"  />
               </ZoomPanKeyframes>
              </ZoomPanBin>
             </Entry>
             <Entry key="CursorEffectBin">
              <CursorEffectBin id="824"  >
               <CursorEffectKeyframes>
               </CursorEffectKeyframes>
              </CursorEffectBin>
             </Entry>
            </ExtraData>
           </ScreenIMFile>
           <ScreenVMFile id="825" start="991" duration="157" scalar="1/1" mediaStart="391/1" mediaDuration="157/1" trackNumber="0" src="11" >
            <Transformer>
             <VectorParam id="826"  name="translation">
              <InterpolatingParam id="827" interp="linr"  time="-9999999/1" value="0" leadInLength="0/1"  />
              <InterpolatingParam id="828" interp="linr"  time="-9999999/1" value="0" leadInLength="0/1"  />
              <InterpolatingParam id="829" interp="linr"  time="-9999999/1" value="0" leadInLength="0/1"  />
             </VectorParam>
             <VectorParam id="830"  name="rotation">
              <InterpolatingParam id="831" interp="linr"  time="-9999999/1" value="0" leadInLength="0/1"  />
              <InterpolatingParam id="832" interp="linr"  time="-9999999/1" value="0" leadInLength="0/1"  />
              <InterpolatingParam id="833" interp="linr"  time="-9999999/1" value="0" leadInLength="0/1"  />
             </VectorParam>
             <VectorParam id="834"  name="shear">
              <InterpolatingParam id="835" interp="linr"  time="-9999999/1" value="0" leadInLength="0/1"  />
              <InterpolatingParam id="836" interp="linr"  time="-9999999/1" value="0" leadInLength="0/1"  />
              <InterpolatingParam id="837" interp="linr"  time="-9999999/1" value="0" leadInLength="0/1"  />
             </VectorParam>
             <VectorParam id="838"  name="scale">
              <InterpolatingParam id="839" interp="linr"  time="-9999999/1" value="1" leadInLength="0/1"  />
              <InterpolatingParam id="840" interp="linr"  time="-9999999/1" value="1" leadInLength="0/1"  />
              <InterpolatingParam id="841" interp="linr"  time="-9999999/1" value="1" leadInLength="0/1"  />
             </VectorParam>
             <VectorParam id="842"  name="anchor">
              <InterpolatingParam id="843" interp="linr"  time="0/1" value="0" leadInLength="0/1"  />
              <InterpolatingParam id="844" interp="linr"  time="0/1" value="0" leadInLength="0/1"  />
              <InterpolatingParam id="845" interp="linr"  time="0/1" value="0" leadInLength="0/1"  />
             </VectorParam>
            </Transformer>
            <Parameters>
             <VectorParam id="846"  name="sourceCrop">
              <InterpolatingParam id="847" interp="linr"  time="0/1" value="0" leadInLength="0/1"  />
              <InterpolatingParam id="848" interp="linr"  time="0/1" value="0" leadInLength="0/1"  />
              <InterpolatingParam id="849" interp="linr"  time="0/1" value="0" leadInLength="0/1"  />
              <InterpolatingParam id="850" interp="linr"  time="0/1" value="0" leadInLength="0/1"  />
             </VectorParam>
             <VectorParam id="851"  name="geometryCrop">
              <InterpolatingParam id="852" interp="linr"  time="-9999999/1" value="0" leadInLength="0/1"  />
              <InterpolatingParam id="853" interp="linr"  time="-9999999/1" value="0" leadInLength="0/1"  />
              <InterpolatingParam id="854" interp="linr"  time="-9999999/1" value="0" leadInLength="0/1"  />
              <InterpolatingParam id="855" interp="linr"  time="-9999999/1" value="0" leadInLength="0/1"  />
             </VectorParam>
             <InterpolatingParam id="856" interp="linr"  time="-9999999/1" value="1" leadInLength="0/1"  name="opacity"/>
             <InterpolatingParam id="857" interp="linr"  time="0/1" value="0" leadInLength="0/1"  name="cursorOpacity"/>
             <InterpolatingParam id="858" interp="linr"  time="0/1" value="0" leadInLength="0/1"  name="cursorScale"/>
            </Parameters>
            <Attributes>
             <Attribute id="859" value="" name="ident"/>
            </Attributes>
            <MetaData>
             <entry key="AutoAppliedSmartFocus" val="False"/>
             <entry key="WinSubProjectDisplayName" val=""/>
            </MetaData>
            <ExtraData>
             <Entry key="ZoomPanBin">
              <ZoomPanBin id="860"  >
               <ZoomPanKeyframes>
                <ZoomPanKeyframe id="861" timeRangeEnd="-9999999/1" timeRangeDuration="0/1" interpolaterName="linr"  />
               </ZoomPanKeyframes>
              </ZoomPanBin>
             </Entry>
             <Entry key="CursorEffectBin">
              <CursorEffectBin id="862"  >
               <CursorEffectKeyframes>
               </CursorEffectKeyframes>
              </CursorEffectBin>
             </Entry>
            </ExtraData>
           </ScreenVMFile>
          </Medias>
         </GenericTrack>
        </StitchedMedia>
       </Medias>
      </GenericTrack>
      <GenericTrack id="863"  >
       <Attributes>
        <Attribute id="864" value="" name="ident"/>
        <Attribute id="865" value="0" name="audioMuted"/>
        <Attribute id="866" value="0" name="videoHidden"/>
       </Attributes>
       <MetaData>
        <entry key="IsLocked" val="False"/>
        <entry key="WinTrackHeight" val="62"/>
       </MetaData>
       <Medias>
       </Medias>
      </GenericTrack>
     </Tracks>
    </GenericMixer>
   <CaptionAttributes id="867"  >
    <Attribute id="868" value="1" name="captionsEnabled"/>
    <Attribute id="869" value="Arial" name="captionsFontName"/>
    <Attribute id="870" value="28" name="captionsFontSize"/>
    <Attribute id="871" value="(0,0,0,255)" name="captionsBackgroundColor"/>
    <Attribute id="872" value="(255,255,255,255)" name="captionsForegroundColor"/>
    <Attribute id="873" value="en" name="lang"/>
    <Attribute id="874" value="0" name="captionsAlignment"/>
    <Attribute id="875" value="1" name="captionsDefaultFontSize"/>
    <Attribute id="876" value="0.5" name="captionsOpacity"/>
    <Attribute id="877" value="1" name="captionsBackgroundEnabled"/>
    <Attribute id="878" value="1" name="captionsBackgroundOnlyAroundText"/>
   </CaptionAttributes>
   <Parameters>
    <VectorParam id="879"  name="eyePosition">
     <InterpolatingParam id="880" interp="linr"  time="0/1" value="0" leadInLength="0/1"  />
     <InterpolatingParam id="881" interp="linr"  time="0/1" value="0" leadInLength="0/1"  />
     <InterpolatingParam id="882" interp="linr"  time="0/1" value="3000" leadInLength="0/1"  />
    </VectorParam>
    <VectorParam id="883"  name="eyeLookAtPosition">
     <InterpolatingParam id="884" interp="linr"  time="0/1" value="0" leadInLength="0/1"  />
     <InterpolatingParam id="885" interp="linr"  time="0/1" value="0" leadInLength="0/1"  />
     <InterpolatingParam id="886" interp="linr"  time="0/1" value="0" leadInLength="0/1"  />
    </VectorParam>
    <VectorParam id="887"  name="eyeUpVector">
     <InterpolatingParam id="888" interp="linr"  time="0/1" value="0" leadInLength="0/1"  />
     <InterpolatingParam id="889" interp="linr"  time="0/1" value="1" leadInLength="0/1"  />
     <InterpolatingParam id="890" interp="linr"  time="0/1" value="0" leadInLength="0/1"  />
    </VectorParam>
    <InterpolatingParam id="891" interp="linr"  time="0/1" value="0.23885785" leadInLength="0/1"  name="fov"/>
    <InterpolatingParam id="892" interp="linr"  time="0/1" value="1.5" leadInLength="0/1"  name="nearClipDistance"/>
    <InterpolatingParam id="893" interp="linr"  time="0/1" value="6000" leadInLength="0/1"  name="farClipDistance"/>
   </Parameters>
  </Timeline>
 </Project>
</GoProject>
</CSMLData>

</Project_Data>
